<svg width="20" height="21" viewBox="0 0 20 21" fill="none" xmlns="http://www.w3.org/2000/svg">
<g id="Achievement_Icon" clip-path="url(#clip0_1369_9727)">
<path id="Vector" d="M18.875 12.4915L10 18.9415L1.125 12.4915C1.00602 12.404 0.917764 12.2811 0.87286 12.1404C0.827956 11.9997 0.828705 11.8484 0.874998 11.7082L1.89166 8.55818L3.925 2.29985C3.94472 2.24885 3.97611 2.20319 4.01666 2.16651C4.0827 2.1062 4.1689 2.07275 4.25833 2.07275C4.34776 2.07275 4.43397 2.1062 4.5 2.16651C4.54282 2.2079 4.57437 2.25953 4.59167 2.31651L6.625 8.55818H13.375L15.4083 2.29985C15.4281 2.24885 15.4594 2.20319 15.5 2.16651C15.566 2.1062 15.6522 2.07275 15.7417 2.07275C15.8311 2.07275 15.9173 2.1062 15.9833 2.16651C16.0262 2.2079 16.0577 2.25953 16.075 2.31651L18.1083 8.57485L19.1667 11.7082C19.2088 11.8528 19.2031 12.007 19.1506 12.1482C19.098 12.2893 19.0014 12.4097 18.875 12.4915V12.4915Z" stroke="#013216" stroke-width="1.8" stroke-linecap="round" stroke-linejoin="round"/>
</g>
<defs>
<clipPath id="clip0_1369_9727">
<rect width="20" height="20" fill="white" transform="translate(0 0.5)"/>
</clipPath>
</defs>
</svg>
