<svg width="94" height="72" viewBox="0 0 94 72" fill="none" xmlns="http://www.w3.org/2000/svg">
<g id="Article_Illistration_1">
<g clip-path="url(#clip0_2566_1717)">
<path id="Vector" d="M94 0H0V72H94V0Z" fill="white"/>
<g id="Group">
<g id="Group_2">
<g id="Group_3">
<g id="Group_4">
<g id="Group_5">
<g id="Group_6">
<path id="Vector_2" d="M61.0837 69.7197C71.4249 66.4027 85.5912 55.0823 84.9288 36.6293C84.1066 13.7244 65.6376 2.66293 58.9644 0.813385C52.2912 -1.03616 45.5681 -0.191723 43.6516 3.34183C40.9693 8.28737 38.8181 8.92795 33.1763 8.67198C30.1261 8.53358 16.3181 3.84363 8.79956 18.9858C4.05399 28.5433 4.70298 51.7196 18.0416 63.0457C29.1901 72.5122 50.7425 73.0368 61.0837 69.7197Z" fill="#DAF2F1"/>
</g>
</g>
</g>
</g>
</g>
<g id="Group_7">
<g id="Group_8">
<g id="Group_9">
<g id="Group_10">
<path id="Vector_3" d="M45.7716 34.2801H57.5046L56.0763 19.9082H45.7716H35.4669L34.0386 34.2801H45.7716Z" fill="#7FC6A6"/>
</g>
</g>
</g>
<g id="Group_11">
<g id="Group_12">
<g id="Group_13">
<path id="Vector_4" d="M45.7716 29.4585H57.5046L56.0763 66.2925H45.7716H35.4669L34.0386 29.4585H45.7716Z" fill="#7FC6A6"/>
</g>
</g>
</g>
<g id="Group_14">
<g id="Group_15">
<g id="Group_16">
<path id="Vector_5" d="M32.9915 34.2788L58.7021 34.2788V27.6731L32.9915 27.6731V34.2788Z" fill="#5CAB88"/>
</g>
</g>
</g>
<g id="Group_17">
<g id="Group_18">
<g id="Group_19">
<path id="Vector_6" d="M37.4296 26.2753H54.1109L53.4732 21.812H38.0672L37.4296 26.2753Z" fill="#140811"/>
</g>
</g>
</g>
<g id="Group_20">
<g id="Group_21">
<g id="Group_22">
<g id="Group_23">
<g id="Group_24">
<path id="Vector_7" d="M49.6142 44.0502L47.1382 39.0566H46.7325L45.79 40.9496L47.2082 44.0502H49.6142Z" fill="white"/>
</g>
</g>
</g>
<g id="Group_25">
<g id="Group_26">
<g id="Group_27">
<path id="Vector_8" d="M42.4334 42.3918L44.1342 39.0576H46.3717L44.1743 43.5694L45.0513 44.1656L42.4055 44.7881L41.5542 41.8001L42.4334 42.3918Z" fill="white"/>
</g>
</g>
</g>
</g>
<g id="Group_28">
<g id="Group_29">
<g id="Group_30">
<g id="Group_31">
<path id="Vector_9" d="M41.0654 44.7871L38.5281 49.7387L38.7253 50.1523L40.6015 50.193L42.2349 47.2401L41.0654 44.7871Z" fill="white"/>
</g>
</g>
</g>
<g id="Group_32">
<g id="Group_33">
<g id="Group_34">
<path id="Vector_10" d="M43.3129 52.9153L39.9884 52.8021L38.9008 50.521L43.3488 50.5681L43.3691 49.3843L45.1216 51.779L43.297 54.0993L43.3129 52.9153Z" fill="white"/>
</g>
</g>
</g>
</g>
<g id="Group_35">
<g id="Group_36">
<g id="Group_37">
<g id="Group_38">
<path id="Vector_11" d="M46.5623 52.9248L51.5073 52.9367L51.7112 52.5276L50.7818 50.6258L47.7713 50.498L46.5623 52.9248Z" fill="white"/>
</g>
</g>
</g>
<g id="Group_39">
<g id="Group_40">
<g id="Group_41">
<path id="Vector_12" d="M51.4004 46.5155L53.0169 49.9064L51.8925 52.1631L49.6529 47.6796L48.7704 48.2646L49.6385 45.2832L52.2807 45.9261L51.4004 46.5155Z" fill="white"/>
</g>
</g>
</g>
</g>
</g>
<g id="Group_42">
<g id="Group_43">
<g id="Group_44">
<path id="Vector_13" d="M57.2208 34.2718L55.9791 66.2861L56.1787 66.2967L57.4204 34.2823L57.2208 34.2718Z" fill="black"/>
</g>
</g>
</g>
<g id="Group_45">
<g id="Group_46">
<g id="Group_47">
<path id="Vector_14" d="M32.993 34.3959H58.8036V27.5571H46.372V27.7902H58.6039V34.1628H32.993V34.3959Z" fill="black"/>
</g>
</g>
</g>
<g id="Group_48">
<g id="Group_49">
<g id="Group_50">
<path id="Vector_15" d="M56.1727 19.8901L55.9742 19.917L56.7476 27.6827L56.9461 27.6559L56.1727 19.8901Z" fill="black"/>
</g>
</g>
</g>
<g id="Group_51">
<g id="Group_52">
<g id="Group_53">
<path id="Vector_16" d="M34.7949 27.6872L35.5565 20.0241H45.3981V19.791H35.3785L34.5964 27.6603L34.7949 27.6872Z" fill="black"/>
</g>
</g>
</g>
<g id="Group_54">
<g id="Group_55">
<g id="Group_56">
<path id="Vector_17" d="M32.8928 30.5798H33.0926V27.7902H40.5682V27.5571H32.8928V30.5798Z" fill="black"/>
</g>
</g>
</g>
<g id="Group_57">
<g id="Group_58">
<g id="Group_59">
<path id="Vector_18" d="M34.1403 34.277L33.9408 34.2891L35.3627 66.3043L35.5623 66.2923L34.1403 34.277Z" fill="black"/>
</g>
</g>
</g>
<g id="Group_60">
<g id="Group_61">
<g id="Group_62">
<g id="Group_63">
<path id="Vector_19" d="M37.1682 61.7232L37.0243 61.8848L38.825 64.0669L38.9689 63.9053L37.1682 61.7232Z" fill="black"/>
</g>
</g>
</g>
<g id="Group_64">
<g id="Group_65">
<g id="Group_66">
<path id="Vector_20" d="M37.3755 60.2564L37.2316 60.418L39.0326 62.6002L39.1765 62.4385L37.3755 60.2564Z" fill="black"/>
</g>
</g>
</g>
</g>
<g id="Group_67">
<g id="Group_68">
<g id="Group_69">
<g id="Group_70">
<path id="Vector_21" d="M54.5277 30.1431L54.3838 30.3047L56.1845 32.4868L56.3284 32.3252L54.5277 30.1431Z" fill="black"/>
</g>
</g>
</g>
<g id="Group_71">
<g id="Group_72">
<g id="Group_73">
<path id="Vector_22" d="M54.7335 28.6729L54.5896 28.8345L56.3905 31.0166L56.5344 30.855L54.7335 28.6729Z" fill="black"/>
</g>
</g>
</g>
</g>
</g>
<g id="Group_74">
<g id="Group_75">
<g id="Group_76">
<g id="Group_77">
<g id="Group_78">
<g id="Group_79">
<path id="Vector_23" d="M15.7849 47.5704C16.7242 44.4605 19.6466 42.8277 22.3121 43.9234C24.9777 45.0191 26.3771 48.4284 25.4377 51.5382C24.9718 53.0808 24.0179 54.2596 22.8496 54.9227L22.8497 54.9227C22.8497 54.9227 20.8386 56.1447 19.7454 57.9283C19.7454 57.9283 18.8012 57.9157 18.1591 57.6727C17.5283 57.3925 16.7859 56.7117 16.7859 56.7117C16.8926 54.5227 15.9825 52.0999 15.9825 52.0999L15.9827 52.1C15.4287 50.729 15.319 49.1129 15.7849 47.5704Z" fill="#FECC86"/>
</g>
</g>
<g id="Group_80">
<g id="Group_81">
<path id="Vector_24" d="M17.0604 59.8304L17.8556 60.1573C18.5246 60.4323 19.258 60.0226 19.4937 59.2421L20.0099 57.5332L16.7921 56.2104L16.2759 57.9194C16.0401 58.6998 16.3914 59.5554 17.0604 59.8304Z" fill="#4CB7D8"/>
</g>
</g>
<g id="Group_82">
<g id="Group_83">
<path id="Vector_25" d="M17.2675 60.6274C17.6818 60.7976 18.136 60.544 18.282 60.061L16.7817 59.4448C16.6356 59.9278 16.8531 60.4572 17.2675 60.6274Z" fill="#4CB7D8"/>
</g>
</g>
<g id="Group_84" opacity="0.3">
<path id="Vector_26" d="M15.7849 47.5686C16.1329 46.4165 16.7531 45.4672 17.5315 44.7842C17.7174 49.4224 19.1444 53.077 22.0676 55.4685C21.4703 55.9256 20.6447 56.6443 20.0091 57.5302L16.7935 56.2084L16.7934 56.2086C16.7596 54.1671 15.9825 52.0981 15.9825 52.0981L15.9827 52.0982C15.4287 50.7272 15.319 49.1112 15.7849 47.5686Z" fill="#FECC86"/>
</g>
</g>
<g id="Group_85">
<g id="Group_86">
<path id="Vector_27" d="M18.0265 52.3104C18.4215 49.3931 18.8904 47.9422 19.46 47.8748C19.902 47.8225 20.0816 48.0695 20.1544 48.2859C20.1647 48.3163 20.1734 48.3478 20.1806 48.3801C20.3747 48.3658 20.6096 48.4009 20.8922 48.5171L21.0316 48.5744C21.3142 48.6906 21.5161 48.8349 21.6596 48.9881C21.6826 48.9682 21.7063 48.95 21.7306 48.9338C21.9036 48.8185 22.1763 48.7574 22.4925 49.1213C22.9001 49.5905 22.4858 51.0638 21.2258 53.6256C20.3131 55.4813 19.2766 57.2324 19.2662 57.2499L19.1414 57.1491C19.1517 57.1317 20.185 55.3859 21.0946 53.5366C22.6727 50.3278 22.581 49.4719 22.386 49.2474C22.1866 49.0179 21.9913 48.9642 21.8059 49.0877C21.7924 49.0967 21.779 49.1065 21.766 49.1171C22.0332 49.4878 22.0072 49.878 21.9829 50.0303C21.9161 50.4507 21.6433 50.7856 21.3747 50.7769C21.3096 50.7749 21.1939 50.7396 21.1485 50.5283C21.0764 50.1926 21.2338 49.492 21.5437 49.1091C21.4017 48.9618 21.2123 48.8366 20.981 48.7415L20.8417 48.6842C20.6104 48.5891 20.3956 48.5482 20.2058 48.5592C20.2415 49.0841 19.9877 49.745 19.7511 49.9539C19.6022 50.0853 19.4931 50.0281 19.4413 49.9822C19.2274 49.7925 19.1948 49.332 19.3686 48.9557C19.4316 48.8193 19.621 48.4963 20.0284 48.4028C20.0239 48.385 20.0188 48.3676 20.0131 48.3507C19.935 48.1188 19.7541 48.0181 19.4753 48.051C19.2027 48.0833 18.6714 48.683 18.1766 52.3371C17.8914 54.4431 17.7583 56.5589 17.757 56.58L17.6056 56.5672C17.6069 56.546 17.7403 54.4237 18.0265 52.3104ZM21.2958 50.4852C21.32 50.598 21.3629 50.5993 21.3789 50.5998C21.5514 50.6054 21.7753 50.3649 21.8336 49.9979C21.8779 49.7194 21.8118 49.4579 21.6501 49.2356C21.3851 49.5677 21.2341 50.1978 21.2958 50.4852ZM19.5023 49.0397C19.3505 49.3682 19.3958 49.7193 19.5332 49.8411C19.546 49.8525 19.58 49.8828 19.6595 49.8126C19.8621 49.6338 20.083 49.0324 20.0549 48.5799C19.8095 48.6349 19.6175 48.7902 19.5023 49.0397Z" fill="#F99247"/>
</g>
</g>
<g id="Group_87">
<g id="Group_88">
<path id="Vector_28" d="M20.0216 57.581C20.0989 57.4684 20.1304 57.4285 20.1995 57.3412L20.2372 57.2934C21.3357 55.8993 22.8508 54.9703 22.866 54.9611L22.8708 54.9582C24.0956 54.261 25.0193 53.0516 25.4723 51.552C26.4171 48.4241 25.0045 44.9828 22.3235 43.8807C20.6774 43.2041 18.8655 43.539 17.4767 44.7766L17.5228 44.8471C18.8911 43.6276 20.6764 43.2976 22.2982 43.9643C24.9397 45.0501 26.3315 48.4408 25.4006 51.5226C24.9536 53.0024 24.0413 54.1955 22.8317 54.8819L22.7683 54.9178L22.7715 54.92C22.4785 55.1077 21.1646 55.9856 20.1813 57.2335L20.1437 57.2811C20.0734 57.37 20.0412 57.4106 19.9623 57.5256L20.0216 57.581Z" fill="#21111D"/>
</g>
</g>
<g id="Group_89">
<g id="Group_90">
<path id="Vector_29" d="M24.7666 48.3399L24.8423 48.3449C24.8431 48.3295 24.9048 46.7968 23.8616 45.7822L23.813 45.8503C24.8262 46.8356 24.7673 48.3249 24.7666 48.3399Z" fill="#21111D"/>
</g>
</g>
<g id="Group_91">
<g id="Group_92">
<path id="Vector_30" d="M24.3929 48.7486L24.4687 48.7536C24.4694 48.7382 24.5312 47.2055 23.488 46.1909L23.4393 46.259C24.4525 47.2444 24.3936 48.7336 24.3929 48.7486Z" fill="#21111D"/>
</g>
</g>
<g id="Group_93">
<g id="Group_94">
<path id="Vector_31" d="M17.2705 59.9643L17.6213 60.1085C18.4315 60.4416 19.323 59.9435 19.6085 58.9983L20.0589 57.5069L16.8052 56.1694L16.78 56.253L19.9621 57.561L19.5369 58.9689C19.2653 59.868 18.4173 60.3418 17.6465 60.025L17.2957 59.8808C16.9267 59.7291 16.6289 59.4198 16.457 59.0098L16.3888 59.0487C16.5695 59.4797 16.8826 59.8049 17.2705 59.9643Z" fill="#21111D"/>
</g>
</g>
<g id="Group_95">
<g id="Group_96">
<path id="Vector_32" d="M17.2339 60.6614C17.9313 60.9478 18.2704 60.2006 18.2738 60.1929L18.2062 60.1523C18.1935 60.1811 17.8853 60.8545 17.2359 60.568L17.2091 60.6508C17.2174 60.6545 17.2257 60.658 17.2339 60.6614Z" fill="#21111D"/>
</g>
</g>
<g id="Group_97">
<g id="Group_98">
<path id="Vector_33" d="M16.3493 51.3459L16.4123 51.2963C15.9418 50.483 16.1196 49.5213 16.1214 49.5117L16.0474 49.4922C16.0455 49.5022 15.8601 50.5002 16.3493 51.3459Z" fill="#21111D"/>
</g>
</g>
<g id="Group_99">
<g id="Group_100">
<path id="Vector_34" d="M16.6113 51.0026L16.6742 50.9531C16.3313 50.3604 16.4608 49.6588 16.4622 49.6518L16.3881 49.6323C16.3823 49.6625 16.2496 50.3774 16.6113 51.0026Z" fill="#21111D"/>
</g>
</g>
<g id="Group_101">
<g id="Group_102">
<path id="Vector_35" d="M19.9326 58.3436L19.9586 58.2605C19.9314 58.2489 17.2306 57.0926 16.4842 56.3657L16.4355 56.4337C17.1921 57.1704 19.821 58.2961 19.9326 58.3436Z" fill="#21111D"/>
</g>
</g>
<g id="Group_103">
<g id="Group_104">
<path id="Vector_36" d="M19.7193 59.0485L19.7459 58.9655C19.7164 58.9526 16.7926 57.6742 16.3461 57.104L16.29 57.1637C16.7488 57.7496 19.5983 58.9957 19.7193 59.0485Z" fill="#21111D"/>
</g>
</g>
<g id="Group_105">
<g id="Group_106">
<path id="Vector_37" d="M19.3519 59.7119L19.3777 59.6286C19.3512 59.6174 16.7188 58.4989 16.14 57.7812L16.0847 57.842C16.6759 58.5748 19.2429 59.6658 19.3519 59.7119Z" fill="#21111D"/>
</g>
</g>
</g>
<g id="Group_107">
<g id="Group_108">
<g id="Group_109">
<path id="Vector_38" d="M26.9359 51.1568C26.939 51.1581 26.9421 51.1592 26.9453 51.1602L28.7045 51.6922C28.7654 51.7106 28.8275 51.668 28.8433 51.5971C28.8591 51.5261 28.8225 51.4539 28.7617 51.4353L27.0025 50.9032C26.9416 50.8848 26.8794 50.9274 26.8636 50.9984C26.8487 51.0656 26.8808 51.1341 26.9359 51.1568Z" fill="#F99247"/>
</g>
</g>
</g>
<g id="Group_110">
<g id="Group_111">
<g id="Group_112">
<path id="Vector_39" d="M27.0121 47.6174C27.033 47.6259 27.0562 47.6275 27.0793 47.6204L28.835 47.073C28.8958 47.0541 28.9318 46.9813 28.9156 46.9105C28.8994 46.8397 28.837 46.7976 28.7762 46.8166L27.0204 47.3639C26.9596 47.3828 26.9236 47.4556 26.9398 47.5264C26.9499 47.5704 26.9778 47.6033 27.0121 47.6174Z" fill="#F99247"/>
</g>
</g>
</g>
<g id="Group_113">
<g id="Group_114">
<g id="Group_115">
<path id="Vector_40" d="M25.1426 44.2911C25.185 44.3085 25.2341 44.2955 25.2658 44.2538L26.4706 42.6662C26.5123 42.6113 26.5079 42.5273 26.4608 42.4787C26.4138 42.4301 26.3418 42.4352 26.3001 42.4901L25.0953 44.0777C25.0536 44.1326 25.058 44.2166 25.105 44.2652C25.1164 44.2769 25.1291 44.2855 25.1426 44.2911Z" fill="#F99247"/>
</g>
</g>
</g>
<g id="Group_116">
<g id="Group_117">
<g id="Group_118">
<path id="Vector_41" d="M14.7992 46.5735C14.8552 46.5965 14.9178 46.5651 14.9416 46.5005C14.9663 46.4331 14.9395 46.3551 14.8817 46.3262L13.2111 45.4921C13.1537 45.4635 13.0864 45.4944 13.0616 45.5619C13.0368 45.6292 13.0636 45.7073 13.1214 45.7361L14.7921 46.5703C14.7944 46.5714 14.7968 46.5725 14.7992 46.5735Z" fill="#F99247"/>
</g>
</g>
</g>
<g id="Group_119">
<g id="Group_120">
<g id="Group_121">
<path id="Vector_42" d="M16.5954 43.7222C16.6303 43.7366 16.6706 43.7308 16.7023 43.7027C16.7523 43.6582 16.762 43.5749 16.7239 43.5165L15.6227 41.8297C15.5846 41.7713 15.5131 41.7601 15.4631 41.8045C15.4131 41.849 15.4034 41.9323 15.4415 41.9907L16.5427 43.6775C16.5567 43.6988 16.5752 43.7139 16.5954 43.7222Z" fill="#F99247"/>
</g>
</g>
</g>
<g id="Group_122">
<g id="Group_123">
<g id="Group_124">
<path id="Vector_43" d="M19.5768 41.9941C19.5909 41.9999 19.6063 42.0025 19.6222 42.0012C19.6849 41.9964 19.7324 41.9331 19.7283 41.8599L19.6084 39.7442C19.6042 39.6709 19.5499 39.6156 19.4872 39.6204C19.4245 39.6253 19.377 39.6885 19.3811 39.7617L19.501 41.8775C19.5041 41.9321 19.5352 41.9769 19.5768 41.9941Z" fill="#F99247"/>
</g>
</g>
</g>
<g id="Group_125">
<g id="Group_126">
<g id="Group_127">
<path id="Vector_44" d="M22.6241 42.1523C22.6247 42.1525 22.6252 42.1528 22.6258 42.153C22.6855 42.1763 22.75 42.1388 22.77 42.0693L23.3476 40.0588C23.3674 39.9899 23.336 39.9154 23.2775 39.8913C23.2769 39.8911 23.2764 39.8908 23.2764 39.8908C23.2162 39.8673 23.1516 39.9048 23.1316 39.9744L22.554 41.9848C22.5342 42.0537 22.5656 42.1283 22.6241 42.1523Z" fill="#F99247"/>
</g>
</g>
</g>
<g id="Group_128" opacity="0.5">
<g id="Group_129">
<path id="Vector_45" d="M19.5495 45.8462C20.2231 45.6591 20.7072 45.2031 20.6306 44.8278C20.554 44.4524 19.9457 44.2998 19.2721 44.4869C18.5984 44.674 18.1143 45.13 18.1909 45.5053C18.2675 45.8807 18.8758 46.0333 19.5495 45.8462Z" fill="#F3FFFE"/>
</g>
</g>
</g>
<g id="Group_130">
<g id="Group_131">
<g id="Group_132">
<path id="Vector_46" d="M17.0796 64.3751C16.7362 63.7011 15.7121 63.3657 15.1494 62.7209C14.5869 62.0761 13.5935 62.7772 13.5935 62.7772C13.5935 62.7772 14.5684 64.0002 14.86 64.1492C15.0434 64.2428 15.8165 64.6651 16.3833 64.9629C16.6313 65.0933 16.8397 65.1998 16.9419 65.2444C16.9577 65.2513 16.9708 65.2567 16.9814 65.2606C16.9831 65.2612 16.9849 65.2618 16.9864 65.2624C16.9972 65.2659 17.0042 65.2676 17.0075 65.267C17.0759 65.2537 17.423 65.0488 17.0796 64.3751Z" fill="#F49D75"/>
</g>
</g>
<g id="Group_133">
<g id="Group_134">
<g id="Group_135">
<path id="Vector_47" d="M16.9428 65.2443C16.9586 65.2512 16.9718 65.2566 16.9823 65.2605C17.0009 65.203 17.0179 65.1411 17.0315 65.0747C17.0454 65.0071 17.0095 64.9358 16.9495 64.9074C16.9465 64.9059 16.9436 64.9046 16.9406 64.9035L16.6038 64.773C16.6038 64.773 16.5424 64.7668 16.4536 64.8636C16.4261 64.8936 16.4028 64.9288 16.3842 64.963C16.6323 65.0934 16.8407 65.1998 16.9428 65.2443Z" fill="#F07162"/>
</g>
<g id="Group_136">
<path id="Vector_48" d="M16.9555 65.3341L16.9556 65.334C16.9541 65.3341 16.9526 65.3342 16.9509 65.3342C16.9524 65.3343 16.954 65.3342 16.9555 65.3341Z" fill="#F07162"/>
</g>
</g>
<g id="Group_137">
<g id="Group_138">
<path id="Vector_49" d="M16.9824 65.2622C16.9841 65.2628 16.9858 65.2634 16.9873 65.264C17.0064 65.209 17.0237 65.1482 17.0372 65.0825C17.0495 65.023 17.0165 64.9349 16.9616 64.9136L16.949 64.9087L16.9495 64.9092C16.9853 64.9385 17.004 65.0127 16.9942 65.0599C16.9803 65.1274 16.9624 65.1895 16.9429 65.246C16.9586 65.253 16.9718 65.2584 16.9824 65.2622Z" fill="#FDC9BC"/>
</g>
<g id="Group_139">
<path id="Vector_50" d="M16.9142 65.3328C16.9126 65.3326 16.9113 65.3325 16.9101 65.332L16.91 65.3323C16.9113 65.3325 16.9128 65.3328 16.9142 65.3328Z" fill="#FDC9BC"/>
</g>
</g>
</g>
<g id="Group_140">
<g id="Group_141">
<path id="Vector_51" d="M17.211 64.6284L17.1662 64.6446C17.2199 64.8469 17.218 65.0044 17.1605 65.1127C17.1114 65.2055 17.034 65.2334 17.0116 65.2398C16.8787 65.1705 14.9322 64.1558 14.7211 64.0125C14.5054 63.8661 13.6211 62.7708 13.6122 62.7598L13.578 62.7973C13.6146 62.8426 14.4759 63.9095 14.6974 64.0599C14.9171 64.209 16.9145 65.2492 16.9994 65.2935L17.0057 65.2968L17.0126 65.2955C17.0173 65.2947 17.1304 65.2726 17.1999 65.1426C17.2654 65.0201 17.2691 64.8471 17.211 64.6284Z" fill="black"/>
</g>
</g>
<g id="Group_142">
<g id="Group_143">
<path id="Vector_52" d="M18.4226 63.4124C17.8472 62.6632 16.4866 62.5368 15.6412 61.8877C14.7959 61.2384 13.6942 62.4081 13.6942 62.4081C13.6942 62.4081 15.1812 63.6663 15.5802 63.7694C15.821 63.8316 16.8121 64.1187 17.5785 64.3286C17.952 64.4308 18.2722 64.5148 18.426 64.5452C18.4485 64.5497 18.4674 64.5529 18.4824 64.5551C18.4858 64.5556 18.4889 64.5559 18.4919 64.5563C18.5072 64.5581 18.5171 64.558 18.5213 64.5563C18.6048 64.5195 18.9982 64.1615 18.4226 63.4124Z" fill="#F49D75"/>
</g>
</g>
<g id="Group_144">
<g id="Group_145">
<g id="Group_146">
<path id="Vector_53" d="M18.427 64.542C18.4495 64.5465 18.4683 64.5497 18.4833 64.5518C18.4925 64.5164 18.5009 64.48 18.5087 64.4426C18.5284 64.3476 18.4777 64.2471 18.393 64.2073L18.3929 64.2071C18.389 64.2053 18.3851 64.2038 18.3811 64.2022L17.9089 64.0192C17.9089 64.0192 17.8226 64.0104 17.698 64.1461C17.6484 64.2001 17.609 64.266 17.5795 64.3256C17.953 64.4276 18.2731 64.5115 18.427 64.542Z" fill="#F07162"/>
</g>
<g id="Group_147">
<path id="Vector_54" d="M18.4051 64.8063L18.4052 64.8062C18.4016 64.8066 18.3978 64.8066 18.3944 64.8066C18.3979 64.8066 18.4015 64.8064 18.4051 64.8063Z" fill="#F07162"/>
</g>
</g>
<g id="Group_148">
<g id="Group_149">
<path id="Vector_55" d="M18.4831 64.553C18.4866 64.5535 18.4896 64.5539 18.4927 64.5542C18.5012 64.5212 18.5092 64.4874 18.5165 64.4523C18.5337 64.3688 18.4873 64.2449 18.4103 64.2151L18.3928 64.2085C18.4435 64.2491 18.4698 64.3538 18.4561 64.4204C18.4473 64.4628 18.4375 64.5037 18.4268 64.5431C18.4493 64.5477 18.4682 64.5509 18.4831 64.553Z" fill="#FDC9BC"/>
</g>
<g id="Group_150">
<path id="Vector_56" d="M18.3412 64.8049C18.3399 64.8046 18.3384 64.8045 18.3371 64.8042L18.3369 64.8043C18.3383 64.8045 18.3397 64.8047 18.3412 64.8049Z" fill="#FDC9BC"/>
</g>
</g>
</g>
<g id="Group_151">
<g id="Group_152">
<path id="Vector_57" d="M18.5757 63.5822L18.5385 63.6156C18.7389 63.92 18.7208 64.1626 18.6703 64.3126C18.623 64.4534 18.5422 64.525 18.5181 64.5298C18.4818 64.5325 18.0596 64.4362 15.6496 63.7596L15.5493 63.7315C15.3149 63.666 14.3491 62.9085 14.3394 62.9009L14.3131 62.9463C14.3531 62.9777 15.2958 63.717 15.5383 63.7848L15.6386 63.8129C18.4431 64.6002 18.5054 64.5878 18.5259 64.5838C18.5792 64.5732 18.6664 64.4742 18.714 64.3326C18.759 64.1991 18.8008 63.924 18.5757 63.5822Z" fill="black"/>
</g>
</g>
<path id="Vector_58" d="M19.3271 59.6159C19.0028 60.1435 18.408 60.3822 17.8567 60.1556L17.0616 59.8287C17.0518 59.8247 17.0424 59.8202 17.0327 59.8159C16.4808 60.1305 16.0051 60.4556 15.8527 60.4446C15.5178 60.4202 14.0051 60.8591 13.6155 59.2559C13.6155 59.2559 13.5622 58.2194 14.0102 57.8634C14.0102 57.8634 15.5723 57.9451 15.7878 58.0103C15.8499 58.029 16.0163 58.083 16.2296 58.1191C16.2414 58.0517 16.2569 57.9844 16.2771 57.9176L16.6439 56.7032C16.6033 56.686 16.563 56.6691 16.5233 56.6528C16.2919 56.558 16.0801 56.4821 15.9404 56.4547C15.7523 56.4178 15.3541 56.3334 14.9339 56.2431C14.1494 56.0749 13.3869 55.7917 12.6602 55.4086C11.9578 55.0384 10.9011 54.6126 9.78091 54.6325C8.09678 54.6627 -0.438843 55.9335 -0.438843 55.9335V62.7983L8.43646 59.4658C8.43646 59.4658 13.4841 62.7933 13.9001 62.9622C14.3161 63.1314 16.2885 62.053 16.5025 61.9957C16.6382 61.9594 17.8209 61.2458 18.6682 60.7284C19.0482 60.4965 19.3606 60.3039 19.481 60.2296C19.5099 60.2117 19.5278 60.2007 19.5328 60.1976C19.5338 60.1969 19.5343 60.1967 19.5343 60.1967C19.5343 60.1967 19.5364 60.1929 19.5394 60.1851C19.5607 60.1328 19.6261 59.9046 19.3271 59.6159Z" fill="#F49D75"/>
<g id="Group_153">
<g id="Group_154">
<path id="Vector_59" d="M20.2814 62.9152C20.3571 62.8424 20.6573 62.3068 19.8306 61.7659C19.0039 61.2252 17.5501 61.6571 16.473 61.332C15.3959 61.0068 14.606 62.6799 14.606 62.6799C14.606 62.6799 16.5358 63.3727 16.9824 63.3148C17.2501 63.28 18.3565 63.1693 19.2154 63.0705C19.6003 63.0264 19.9355 62.9845 20.1232 62.9531C20.1454 62.9492 20.1656 62.9456 20.1834 62.9422C20.1864 62.9419 20.1892 62.9412 20.192 62.9405C20.2431 62.9306 20.2742 62.922 20.2814 62.9152Z" fill="#F49D75"/>
</g>
</g>
<g id="Group_155">
<g id="Group_156">
<path id="Vector_60" d="M14.033 57.8738L14.0022 57.8325C13.9963 57.8385 13.4198 58.4357 13.6346 59.3793L13.68 59.3652C13.4728 58.4555 14.0274 57.8796 14.033 57.8738Z" fill="black"/>
</g>
</g>
<g id="Group_157">
<g id="Group_158">
<g id="Group_159">
<path id="Vector_61" d="M19.5422 60.1882C19.5378 60.1738 19.5333 60.1591 19.5286 60.1446C19.4978 60.0499 19.4041 59.9982 19.3119 60.0218L19.3117 60.0217C19.3074 60.0228 19.3032 60.024 19.2992 60.0253L18.8031 60.1897C18.8031 60.1897 18.7246 60.2406 18.6859 60.4416C18.6673 60.5381 18.6699 60.6396 18.6775 60.7185C19.0575 60.4868 19.3699 60.2944 19.4903 60.2202C19.5193 60.2023 19.5371 60.1912 19.5422 60.1882Z" fill="#F07162"/>
</g>
<g id="Group_160">
<path id="Vector_62" d="M19.6212 60.5299L19.6211 60.5298C19.6177 60.5326 19.6143 60.5351 19.6107 60.5376C19.6143 60.5352 19.6177 60.5326 19.6212 60.5299Z" fill="#F07162"/>
</g>
</g>
<g id="Group_161">
<g id="Group_162">
<path id="Vector_63" d="M19.5443 60.1869C19.5443 60.1869 19.5464 60.1831 19.5494 60.1754C19.5464 60.1656 19.5434 60.1558 19.5403 60.1462C19.5133 60.063 19.4117 59.9885 19.3308 60.0154L19.3125 60.0215C19.3762 60.022 19.4512 60.0936 19.4726 60.1601C19.4792 60.1801 19.4853 60.2002 19.4909 60.2199C19.5198 60.202 19.5377 60.191 19.5427 60.1879C19.5438 60.1871 19.5443 60.1869 19.5443 60.1869Z" fill="#FDC9BC"/>
</g>
<g id="Group_163">
<path id="Vector_64" d="M19.5663 60.5669C19.5652 60.5676 19.5637 60.5682 19.5621 60.5689L19.5623 60.569C19.5638 60.5684 19.565 60.5677 19.5663 60.5669Z" fill="#FDC9BC"/>
</g>
</g>
</g>
<g id="Group_164">
<g id="Group_165">
<g id="Group_166">
<path id="Vector_65" d="M20.1238 62.9538C20.146 62.9499 20.1662 62.9463 20.184 62.9429C20.1852 62.8697 20.1832 62.7932 20.1774 62.7141C20.1697 62.6134 20.0916 62.5339 19.9974 62.5274L19.9971 62.5272C19.9928 62.527 19.9885 62.5268 19.9842 62.5269L19.4684 62.5279C19.4684 62.5279 19.3811 62.5521 19.297 62.7335C19.2425 62.851 19.223 62.9889 19.2161 63.0712C19.6009 63.027 19.9361 62.9851 20.1238 62.9538Z" fill="#F07162"/>
</g>
<g id="Group_167">
<path id="Vector_66" d="M20.177 63.1132L20.1769 63.1128C20.1731 63.1146 20.1689 63.1161 20.1648 63.1177C20.1689 63.1163 20.173 63.1148 20.177 63.1132Z" fill="#F07162"/>
</g>
</g>
<g id="Group_168">
<g id="Group_169">
<path id="Vector_67" d="M20.1921 62.9416C20.1939 62.8715 20.1926 62.7972 20.1869 62.7198C20.1804 62.6311 20.0999 62.5273 20.0157 62.5273L19.9965 62.5276L19.9968 62.5277C20.058 62.5484 20.1134 62.6411 20.1186 62.7116C20.1248 62.7965 20.1258 62.8777 20.1232 62.9541C20.1454 62.9502 20.1656 62.9466 20.1834 62.9432C20.1865 62.9429 20.1893 62.9422 20.1921 62.9416Z" fill="#FDC9BC"/>
</g>
</g>
</g>
<g id="Group_170">
<g id="Group_171">
<path id="Vector_68" d="M19.4786 59.7314C19.3867 59.6011 19.2242 59.4493 18.9408 59.2927C18.3689 58.9768 17.3396 59.593 16.5881 60.043C16.2548 60.2425 15.967 60.4148 15.8641 60.4074L15.8612 60.462C15.9769 60.4704 16.2423 60.3116 16.6095 60.0917C17.3104 59.672 18.3697 59.0379 18.9208 59.3422C19.36 59.5848 19.4967 59.8096 19.534 59.9554C19.563 60.0687 19.5363 60.1451 19.5271 60.1664C19.3791 60.2578 16.7109 61.9049 16.5072 61.9593C16.4495 61.9747 16.2766 62.0579 16.0372 62.173C15.401 62.4789 14.217 63.0483 13.9177 62.9266C13.7282 62.8496 12.332 62.0812 11.1459 61.1971L11.1206 61.2433C12.3098 62.1296 13.7117 62.9009 13.9023 62.9784C14.2184 63.1069 15.3681 62.554 16.055 62.2237C16.2834 62.1138 16.4638 62.0271 16.5176 62.0127C16.7321 61.9554 19.44 60.2822 19.5552 60.211L19.5608 60.2076L19.5641 60.2014C19.5664 60.1972 19.6185 60.0976 19.5797 59.9424C19.5648 59.8828 19.5349 59.8111 19.4786 59.7314Z" fill="black"/>
</g>
</g>
<g id="Group_172">
<g id="Group_173">
<path id="Vector_69" d="M20.288 62.1567C20.224 62.0659 20.1383 61.9745 20.0313 61.8828L20.0035 61.927C20.2593 62.1461 20.3869 62.3596 20.3827 62.5615C20.3786 62.7614 20.2426 62.8869 20.216 62.9096C20.0595 62.9279 17.0749 63.2777 16.8454 63.2895C16.6139 63.3014 14.8416 62.7352 14.8237 62.7295L14.8113 62.7823C14.8846 62.8058 16.6087 63.3566 16.8475 63.3443C17.0832 63.3321 20.0986 62.9784 20.2268 62.9634L20.2326 62.9627L20.2374 62.959C20.2451 62.9531 20.4245 62.8116 20.4296 62.5629C20.4324 62.4299 20.3849 62.294 20.288 62.1567Z" fill="black"/>
</g>
</g>
<g id="Group_174">
<path id="Vector_70" d="M10.9005 55.0058C10.567 54.8925 10.243 55.1095 10.2294 55.1188L10.2497 55.1593C10.2529 55.1572 10.5727 54.9434 10.8892 55.0509L10.9005 55.0058Z" fill="black"/>
</g>
<g id="Group_175">
<path id="Vector_71" d="M11.2361 55.3067C10.9364 55.1022 10.5768 55.2206 10.5616 55.2257L10.5729 55.2708C10.5764 55.2696 10.9313 55.1531 11.2158 55.3472L11.2361 55.3067Z" fill="black"/>
</g>
</g>
</g>
<g id="Group_176">
<g id="Group_177">
<g id="Group_178">
<g id="Group_179">
<g id="Group_180">
<g id="Group_181">
<path id="Vector_72" d="M15.7835 17.3354C16.7229 20.4453 19.6452 22.0781 22.3108 20.9824C24.9764 19.8867 26.3757 16.4774 25.4364 13.3675C24.9705 11.825 24.0166 10.6462 22.8482 9.98314L22.8484 9.98305C22.8484 9.98305 20.8373 8.76106 19.7441 6.97754C19.7441 6.97754 18.7998 6.99005 18.1578 7.23308C17.5269 7.51327 16.7846 8.19407 16.7846 8.19407C16.8913 10.3831 15.9811 12.8059 15.9811 12.8059L15.9813 12.8058C15.4273 14.1768 15.3176 15.7929 15.7835 17.3354Z" fill="#FECC86"/>
</g>
</g>
<g id="Group_182">
<g id="Group_183">
<path id="Vector_73" d="M17.0595 5.07745L17.8547 4.7506C18.5237 4.47562 19.2572 4.88534 19.4929 5.66578L20.0091 7.37473L16.7912 8.69745L16.275 6.98849C16.0393 6.20805 16.3905 5.35248 17.0595 5.07745Z" fill="#4CB7D8"/>
</g>
</g>
<g id="Group_184">
<g id="Group_185">
<path id="Vector_74" d="M17.2673 4.27706C17.6817 4.10691 18.1359 4.36046 18.2819 4.84343L16.7815 5.45964C16.6355 4.97668 16.853 4.44722 17.2673 4.27706Z" fill="#4CB7D8"/>
</g>
</g>
<g id="Group_186" opacity="0.3">
<path id="Vector_75" d="M15.7826 17.3366C16.1305 18.4887 16.7508 19.438 17.5292 20.121C17.7151 15.4829 19.1421 11.8282 22.0652 9.43665C21.468 8.97953 20.6424 8.26089 20.0068 7.375L16.7912 8.69681L16.7911 8.69659C16.7573 10.7381 15.9802 12.807 15.9802 12.807L15.9803 12.807C15.4264 14.178 15.3167 15.7941 15.7826 17.3366Z" fill="#FECC86"/>
</g>
</g>
<g id="Group_187">
<g id="Group_188">
<path id="Vector_76" d="M17.6042 8.3393L17.7557 8.32652C17.757 8.34764 17.8901 10.4635 18.1752 12.5695C18.67 16.2236 19.2013 16.8233 19.474 16.8556C19.7527 16.8885 19.9337 16.7878 20.0118 16.5559C20.0175 16.539 20.0226 16.5216 20.0271 16.5037C19.6197 16.4103 19.4303 16.0873 19.3673 15.9509C19.1934 15.5746 19.226 15.114 19.4399 14.9244C19.4917 14.8785 19.6008 14.8212 19.7498 14.9528C19.9864 15.1616 20.2402 15.8225 20.2045 16.3475C20.3943 16.3584 20.6091 16.3175 20.8404 16.2224L20.9797 16.1651C21.211 16.0701 21.4004 15.9448 21.5424 15.7975C21.2325 15.4146 21.075 14.714 21.1472 14.3783C21.1925 14.167 21.3082 14.1318 21.3734 14.1297C21.6419 14.121 21.9148 14.4559 21.9816 14.8763C22.0058 15.0286 22.0318 15.4188 21.7646 15.7895C21.7777 15.8001 21.791 15.81 21.8045 15.819C21.9899 15.9425 22.1852 15.8888 22.3846 15.6592C22.5797 15.4346 22.6713 14.5788 21.0932 11.3701C20.1837 9.52073 19.1504 7.77496 19.14 7.75755L19.2649 7.65674C19.2753 7.6742 20.3118 9.42534 21.2245 11.2811C22.4845 13.8428 22.8988 15.3162 22.4912 15.7853C22.1749 16.1492 21.9023 16.0881 21.7292 15.9728C21.7049 15.9566 21.6813 15.9385 21.6583 15.9185C21.5147 16.0717 21.3128 16.216 21.0302 16.3322L20.8909 16.3895C20.6083 16.5056 20.3734 16.5409 20.1792 16.5265C20.1721 16.5589 20.1634 16.5903 20.1531 16.6207C20.0803 16.8371 19.9006 17.0841 19.4587 17.0318C18.8891 16.9644 18.4201 15.5135 18.0251 12.5962C17.739 10.4829 17.6056 8.3605 17.6042 8.3393ZM21.6488 15.6709C21.8105 15.4486 21.8766 15.1872 21.8323 14.9086C21.774 14.5417 21.5501 14.3011 21.3776 14.3067C21.3616 14.3072 21.3188 14.3085 21.2945 14.4213C21.2328 14.7088 21.3838 15.3389 21.6488 15.6709ZM20.0536 16.3266C20.0817 15.8742 19.8608 15.2728 19.6582 15.094C19.5787 15.0238 19.5447 15.0541 19.5319 15.0654C19.3944 15.1873 19.3492 15.5384 19.501 15.8669C19.6162 16.1163 19.8082 16.2716 20.0536 16.3266Z" fill="#F99247"/>
</g>
</g>
<g id="Group_189">
<g id="Group_190">
<path id="Vector_77" d="M20.0208 7.3252C20.098 7.43779 20.1295 7.47761 20.1987 7.565L20.2364 7.61278C21.3349 9.00684 22.85 9.93582 22.8651 9.94503L22.8699 9.94795C24.0947 10.6452 25.0185 11.8545 25.4714 13.3541C26.4162 16.482 25.0037 19.9234 22.3226 21.0254C20.6765 21.702 18.8647 21.3671 17.4758 20.1295L17.5219 20.0591C18.8903 21.2786 20.6755 21.6085 22.2973 20.9419C24.9389 19.8561 26.3306 16.4654 25.3998 13.3836C24.9528 11.9038 24.0405 10.7107 22.8308 10.0243L22.7675 9.98838L22.7706 9.98618C22.4777 9.7985 21.1637 8.92057 20.1805 7.67273L20.1429 7.62512C20.0725 7.53619 20.0404 7.49563 19.9615 7.38063L20.0208 7.3252Z" fill="#21111D"/>
</g>
</g>
<g id="Group_191">
<g id="Group_192">
<path id="Vector_78" d="M24.7652 16.5655L24.841 16.5605C24.8417 16.5759 24.9035 18.1086 23.8602 19.1232L23.8116 19.0552C24.8249 18.0698 24.7659 16.5805 24.7652 16.5655Z" fill="#21111D"/>
</g>
</g>
<g id="Group_193">
<g id="Group_194">
<path id="Vector_79" d="M24.392 16.1564L24.4678 16.1514C24.4685 16.1667 24.5304 17.6994 23.4871 18.714L23.4385 18.646C24.4517 17.6606 24.3927 16.1713 24.392 16.1564Z" fill="#21111D"/>
</g>
</g>
<g id="Group_195">
<g id="Group_196">
<path id="Vector_80" d="M17.2692 4.94293L17.62 4.79873C18.4302 4.46568 19.3216 4.96378 19.6071 5.90898L20.0576 7.40037L16.8039 8.73783L16.7787 8.65431L19.9608 7.34631L19.5355 5.93844C19.2639 5.03926 18.4159 4.56546 17.6452 4.88229L17.2944 5.02649C16.9254 5.17817 16.6275 5.48752 16.4557 5.89754L16.3875 5.85862C16.5681 5.42757 16.8812 5.1024 17.2692 4.94293Z" fill="#21111D"/>
</g>
</g>
<g id="Group_197">
<g id="Group_198">
<path id="Vector_81" d="M17.2323 4.24357C17.9297 3.95719 18.2688 4.70437 18.2722 4.71206L18.2047 4.75258C18.1919 4.72379 17.8837 4.05043 17.2344 4.33694L17.2075 4.25414C17.2158 4.25045 17.2241 4.24692 17.2323 4.24357Z" fill="#21111D"/>
</g>
</g>
<g id="Group_199">
<g id="Group_200">
<path id="Vector_82" d="M16.3479 13.562L16.4108 13.6116C15.9403 14.4248 16.1181 15.3865 16.12 15.3962L16.0459 15.4156C16.044 15.4056 15.8586 14.4077 16.3479 13.562Z" fill="#21111D"/>
</g>
</g>
<g id="Group_201">
<g id="Group_202">
<path id="Vector_83" d="M16.6099 13.9038L16.6729 13.9534C16.33 14.546 16.4595 15.2476 16.4608 15.2546L16.3868 15.274C16.3809 15.2439 16.2483 14.529 16.6099 13.9038Z" fill="#21111D"/>
</g>
</g>
<g id="Group_203">
<g id="Group_204">
<path id="Vector_84" d="M19.9302 6.56396L19.9563 6.64714C19.9291 6.65875 17.2283 7.81503 16.4819 8.54188L16.4332 8.47389C17.1898 7.73718 19.8187 6.61153 19.9302 6.56396Z" fill="#21111D"/>
</g>
</g>
<g id="Group_205">
<g id="Group_206">
<path id="Vector_85" d="M19.717 5.8584L19.7436 5.9414C19.7141 5.95426 16.7903 7.23263 16.3438 7.80285L16.2877 7.74316C16.7464 7.15724 19.5959 5.91117 19.717 5.8584Z" fill="#21111D"/>
</g>
</g>
<g id="Group_207">
<g id="Group_208">
<path id="Vector_86" d="M19.3505 5.19531L19.3764 5.27857C19.3499 5.2898 16.7175 6.40831 16.1387 7.12592L16.0834 7.0652C16.6746 6.33232 19.2415 5.24142 19.3505 5.19531Z" fill="#21111D"/>
</g>
</g>
</g>
<g id="Group_209">
<g id="Group_210">
<g id="Group_211">
<path id="Vector_87" d="M26.9353 13.7496C26.9384 13.7483 26.9415 13.7472 26.9447 13.7463L28.7038 13.2142C28.7648 13.1958 28.8269 13.2384 28.8427 13.3094C28.8585 13.3803 28.8219 13.4526 28.7611 13.4712L27.0019 14.0032C26.941 14.0216 26.8788 13.979 26.863 13.9081C26.8481 13.8408 26.8801 13.7722 26.9353 13.7496Z" fill="#F99247"/>
</g>
</g>
</g>
<g id="Group_212">
<g id="Group_213">
<g id="Group_214">
<path id="Vector_88" d="M27.011 17.2863C27.0319 17.2777 27.0551 17.2762 27.0782 17.2833L28.8339 17.8307C28.8947 17.8496 28.9307 17.9224 28.9145 17.9932C28.8983 18.064 28.8359 18.1061 28.7751 18.0871L27.0193 17.5398C26.9585 17.5209 26.9225 17.4481 26.9387 17.3773C26.9488 17.3333 26.9767 17.3004 27.011 17.2863Z" fill="#F99247"/>
</g>
</g>
</g>
<g id="Group_215">
<g id="Group_216">
<g id="Group_217">
<path id="Vector_89" d="M25.1415 20.6159C25.1839 20.5985 25.233 20.6115 25.2647 20.6532L26.4695 22.2408C26.5112 22.2957 26.5068 22.3797 26.4597 22.4283C26.4127 22.4769 26.3407 22.4718 26.299 22.4169L25.0942 20.8293C25.0525 20.7744 25.0569 20.6904 25.1039 20.6418C25.1153 20.6301 25.128 20.6215 25.1415 20.6159Z" fill="#F99247"/>
</g>
</g>
</g>
<g id="Group_218">
<g id="Group_219">
<g id="Group_220">
<path id="Vector_90" d="M14.7981 18.3327C14.8541 18.3097 14.9167 18.3411 14.9405 18.4057C14.9652 18.4731 14.9384 18.5511 14.8806 18.58L13.21 19.4141C13.1526 19.4427 13.0853 19.4117 13.0605 19.3443C13.0357 19.277 13.0625 19.1989 13.1203 19.17L14.791 18.3359C14.7933 18.3348 14.7957 18.3337 14.7981 18.3327Z" fill="#F99247"/>
</g>
</g>
</g>
<g id="Group_221">
<g id="Group_222">
<g id="Group_223">
<path id="Vector_91" d="M16.5943 21.1838C16.6292 21.1695 16.6695 21.1753 16.7012 21.2034C16.7512 21.2479 16.7609 21.3312 16.7228 21.3896L15.6216 23.0764C15.5835 23.1348 15.512 23.146 15.462 23.1016C15.412 23.0571 15.4023 22.9738 15.4404 22.9154L16.5416 21.2286C16.5556 21.2072 16.5741 21.1921 16.5943 21.1838Z" fill="#F99247"/>
</g>
</g>
</g>
<g id="Group_224">
<g id="Group_225">
<g id="Group_226">
<path id="Vector_92" d="M19.5777 22.9108C19.5918 22.905 19.6071 22.9024 19.623 22.9036C19.6858 22.9084 19.7333 22.9717 19.7292 23.0449L19.6092 25.1607C19.6051 25.2339 19.5507 25.2892 19.4881 25.2845C19.4254 25.2796 19.3778 25.2163 19.382 25.1432L19.5019 23.0274C19.5049 22.9727 19.536 22.9279 19.5777 22.9108Z" fill="#F99247"/>
</g>
</g>
</g>
<g id="Group_227">
<g id="Group_228">
<g id="Group_229">
<path id="Vector_93" d="M22.623 22.7522C22.6236 22.752 22.6241 22.7518 22.6247 22.7515C22.6844 22.7282 22.7489 22.7657 22.7689 22.8353L23.3465 24.8458C23.3663 24.9147 23.3349 24.9892 23.2764 25.0133C23.2758 25.0135 23.2753 25.0137 23.2753 25.0137C23.2151 25.0373 23.1505 24.9998 23.1305 24.9302L22.5529 22.9197C22.5331 22.8509 22.5645 22.7763 22.623 22.7522Z" fill="#F99247"/>
</g>
</g>
</g>
<g id="Group_230" opacity="0.5">
<g id="Group_231">
<path id="Vector_94" d="M20.6314 20.0785C20.708 19.7031 20.224 19.2472 19.5503 19.0601C18.8766 18.873 18.2684 19.0256 18.1918 19.4009C18.1152 19.7763 18.5992 20.2322 19.2729 20.4193C19.9466 20.6065 20.5548 20.4538 20.6314 20.0785Z" fill="#F3FFFE"/>
</g>
</g>
</g>
<g id="Group_232">
<g id="Group_233">
<g id="Group_234">
<path id="Vector_95" d="M17.0799 0.531196C16.7364 1.20515 15.7123 1.5406 15.1497 2.18531C14.5871 2.83016 13.5938 2.12906 13.5938 2.12906C13.5938 2.12906 14.5686 0.906042 14.8603 0.757067C15.0436 0.663485 15.8167 0.241159 16.3835 -0.0566181C16.6316 -0.187014 16.84 -0.293584 16.9421 -0.338139C16.9579 -0.345063 16.9711 -0.350482 16.9816 -0.354309C16.9834 -0.354912 16.9851 -0.355556 16.9866 -0.356115C16.9974 -0.359685 17.0045 -0.36132 17.0077 -0.360718C17.0762 -0.347429 17.4232 -0.142588 17.0799 0.531196Z" fill="#F49D75"/>
</g>
</g>
<g id="Group_235">
<g id="Group_236">
<g id="Group_237">
<path id="Vector_96" d="M16.9404 -0.338824C16.9562 -0.345742 16.9693 -0.351156 16.9799 -0.35498C16.9985 -0.297532 17.0155 -0.235614 17.0291 -0.16927C17.0429 -0.101681 17.0071 -0.0303103 16.947 -0.00195113C16.944 -0.000490189 16.9412 0.000799 16.9381 0.00195915L16.6014 0.132411C16.6014 0.132411 16.54 0.138642 16.4512 0.0418337C16.4236 0.0118417 16.4004 -0.0233927 16.3817 -0.0575526C16.6298 -0.187833 16.8382 -0.294266 16.9404 -0.338824Z" fill="#F07162"/>
</g>
</g>
</g>
<g id="Group_238">
<g id="Group_239">
<path id="Vector_97" d="M17.2093 0.278271L17.1645 0.262058C17.2182 0.0597548 17.2163 -0.0977784 17.1588 -0.206112C17.1097 -0.298834 17.0323 -0.326788 17.0099 -0.333153C16.877 -0.263913 14.9305 0.750828 14.7194 0.894126C14.5037 1.04052 13.6194 2.13581 13.6105 2.14686L13.5763 2.10936C13.6129 2.06399 14.4742 0.997169 14.6957 0.846775C14.9154 0.697671 16.9127 -0.342615 16.9976 -0.386825L17.004 -0.390137L17.0108 -0.38889C17.0156 -0.38803 17.1287 -0.36601 17.1982 -0.236001C17.2637 -0.113475 17.2674 0.0595397 17.2093 0.278271Z" fill="black"/>
</g>
</g>
<g id="Group_240">
<g id="Group_241">
<path id="Vector_98" d="M18.4224 1.4939C17.8469 2.24312 16.4864 2.36947 15.641 3.01861C14.7956 3.66788 13.694 2.49823 13.694 2.49823C13.694 2.49823 15.181 1.23999 15.5799 1.13694C15.8207 1.07476 16.8118 0.787602 17.5782 0.577644C17.9517 0.475503 18.2719 0.391554 18.4258 0.361063C18.4483 0.356547 18.4671 0.353321 18.4821 0.351214C18.4855 0.350698 18.4886 0.350354 18.4917 0.349967C18.5069 0.348117 18.5168 0.348247 18.521 0.35001C18.6045 0.386781 18.998 0.74481 18.4224 1.4939Z" fill="#F49D75"/>
</g>
</g>
<g id="Group_242">
<g id="Group_243">
<g id="Group_244">
<path id="Vector_99" d="M18.4262 0.360914C18.4488 0.356402 18.4676 0.35318 18.4826 0.351074C18.4918 0.38648 18.5002 0.422961 18.5079 0.460343C18.5277 0.555346 18.4769 0.65585 18.3923 0.695596L18.3921 0.695768C18.3882 0.697615 18.3843 0.699162 18.3804 0.700709L17.9081 0.883755C17.9081 0.883755 17.8218 0.89252 17.6973 0.756783C17.6476 0.702857 17.6083 0.6369 17.5787 0.577346C17.9522 0.475296 18.2724 0.391379 18.4262 0.360914Z" fill="#F07162"/>
</g>
<g id="Group_245">
<path id="Vector_100" d="M18.4043 0.0989884L18.4045 0.0991071C18.4008 0.0986727 18.3971 0.0986723 18.3937 0.0986328C18.3972 0.0986328 18.4007 0.0987909 18.4043 0.0989884Z" fill="#F07162"/>
</g>
</g>
<g id="Group_246">
<g id="Group_247">
<path id="Vector_101" d="M18.4808 0.351344C18.4843 0.350828 18.4873 0.350484 18.4904 0.350098C18.4989 0.383097 18.5069 0.416957 18.5141 0.452019C18.5314 0.535507 18.485 0.659428 18.408 0.689248L18.3905 0.695823C18.4412 0.655174 18.4674 0.550503 18.4538 0.483902C18.445 0.441492 18.4352 0.400586 18.4245 0.361184C18.447 0.356672 18.4659 0.353449 18.4808 0.351344Z" fill="#FDC9BC"/>
</g>
<g id="Group_248">
<path id="Vector_102" d="M18.3409 0.102051C18.3395 0.102321 18.3381 0.102437 18.3367 0.102707L18.3365 0.102591C18.3379 0.10236 18.3394 0.102205 18.3409 0.102051Z" fill="#FDC9BC"/>
</g>
</g>
</g>
<g id="Group_249">
<g id="Group_250">
<path id="Vector_103" d="M18.5755 1.32603L18.5383 1.29265C18.7386 0.988253 18.7206 0.745567 18.6701 0.595646C18.6227 0.454842 18.542 0.383193 18.5178 0.378419C18.4815 0.375753 18.0594 0.472045 15.6494 1.14858L15.549 1.17671C15.3147 1.24221 14.3488 1.99968 14.3391 2.00734L14.3129 1.96192C14.3529 1.93048 15.2955 1.19124 15.5381 1.12347L15.6383 1.09534C18.4429 0.308104 18.5052 0.320404 18.5256 0.324446C18.579 0.334983 18.6661 0.434027 18.7137 0.575648C18.7587 0.709183 18.8005 0.98421 18.5755 1.32603Z" fill="black"/>
</g>
</g>
<path id="Vector_104" d="M19.3268 5.29007C19.0026 4.76247 18.4078 4.52378 17.8565 4.75042L17.0613 5.07727C17.0516 5.08127 17.0421 5.08583 17.0325 5.09009C16.4806 4.7755 16.0048 4.45037 15.8525 4.46142C15.5176 4.4858 14.0049 4.04688 13.6153 5.65012C13.6153 5.65012 13.562 6.68658 14.01 7.04263C14.01 7.04263 15.5721 6.96088 15.7876 6.89572C15.8496 6.87701 16.0161 6.82304 16.2294 6.78691C16.2412 6.85435 16.2567 6.92165 16.2768 6.98836L16.6437 8.20282C16.6031 8.22002 16.5628 8.23688 16.5231 8.25318C16.2916 8.34801 16.0799 8.42392 15.9402 8.45127C15.7521 8.48817 15.3538 8.57259 14.9336 8.66291C14.1492 8.83115 13.3866 9.1143 12.6599 9.49745C11.9576 9.86765 10.9009 10.2934 9.78067 10.2735C8.09653 10.2433 -0.439087 8.97247 -0.439087 8.97247V2.10771L8.43622 5.44016C8.43622 5.44016 13.4839 2.11266 13.8999 1.94377C14.3159 1.77458 16.2883 2.85302 16.5023 2.91026C16.6379 2.9466 17.8207 3.66025 18.668 4.17762C19.0479 4.40951 19.3603 4.60209 19.4807 4.67637C19.5097 4.69426 19.5276 4.70531 19.5326 4.70836C19.5336 4.70909 19.5341 4.70931 19.5341 4.70931C19.5341 4.70931 19.5362 4.71309 19.5392 4.72084C19.5604 4.77322 19.6259 5.00141 19.3268 5.29007Z" fill="#F49D75"/>
<g id="Group_251">
<g id="Group_252">
<path id="Vector_105" d="M20.2811 1.99144C20.3569 2.06421 20.6571 2.59977 19.8303 3.14066C19.0037 3.68143 17.5498 3.24951 16.4728 3.57464C15.3957 3.89977 14.6057 2.22673 14.6057 2.22673C14.6057 2.22673 16.5355 1.53385 16.9821 1.59182C17.2499 1.62657 18.3562 1.73727 19.2152 1.83606C19.6001 1.88023 19.9353 1.92211 20.1229 1.95351C20.1452 1.95738 20.1653 1.96095 20.1832 1.96439C20.1862 1.96473 20.189 1.96538 20.1918 1.96607C20.2428 1.976 20.274 1.9846 20.2811 1.99144Z" fill="#F49D75"/>
</g>
</g>
<g id="Group_253">
<g id="Group_254">
<path id="Vector_106" d="M14.0342 7.03132L14.0034 7.07265C13.9976 7.06672 13.421 6.46944 13.6358 5.52588L13.6812 5.53994C13.4741 6.44975 14.0286 7.0256 14.0342 7.03132Z" fill="black"/>
</g>
</g>
<g id="Group_255">
<g id="Group_256">
<g id="Group_257">
<path id="Vector_107" d="M19.5404 4.71489C19.5361 4.72928 19.5316 4.74398 19.5269 4.75841C19.4961 4.85316 19.4024 4.90481 19.3102 4.88126L19.31 4.8813C19.3057 4.88027 19.3015 4.87907 19.2975 4.87769L18.8014 4.71338C18.8014 4.71338 18.7229 4.66242 18.6842 4.46146C18.6656 4.36491 18.6682 4.2635 18.6758 4.18457C19.0558 4.41626 19.3682 4.60867 19.4886 4.68288C19.5176 4.70079 19.5354 4.71184 19.5404 4.71489Z" fill="#F07162"/>
</g>
<g id="Group_258">
<path id="Vector_108" d="M19.62 4.37778L19.6198 4.37794C19.6165 4.37517 19.6131 4.37261 19.6095 4.37012C19.6131 4.37257 19.6165 4.37517 19.62 4.37778Z" fill="#F07162"/>
</g>
</g>
<g id="Group_259">
<g id="Group_260">
<path id="Vector_109" d="M19.5431 4.71802C19.5431 4.71802 19.5452 4.7218 19.5482 4.72953C19.5452 4.73933 19.5422 4.74912 19.539 4.75879C19.5121 4.84198 19.4105 4.91649 19.3296 4.88959L19.3113 4.88344C19.375 4.88293 19.4499 4.8113 19.4714 4.74487C19.4779 4.7248 19.484 4.70478 19.4897 4.68506C19.5186 4.70293 19.5365 4.71398 19.5415 4.71703C19.5425 4.7178 19.5431 4.71802 19.5431 4.71802Z" fill="#FDC9BC"/>
</g>
<g id="Group_261">
<path id="Vector_110" d="M19.5656 4.33812C19.5644 4.33742 19.5629 4.33678 19.5614 4.33614L19.5616 4.33594C19.563 4.33658 19.5642 4.33728 19.5656 4.33812Z" fill="#FDC9BC"/>
</g>
</g>
</g>
<g id="Group_262">
<g id="Group_263">
<g id="Group_264">
<path id="Vector_111" d="M20.1221 1.95284C20.1443 1.95671 20.1645 1.96027 20.1823 1.96371C20.1835 2.03689 20.1815 2.11337 20.1757 2.19247C20.168 2.29324 20.0899 2.37273 19.9957 2.37922L19.9954 2.37939C19.9911 2.3796 19.9868 2.37982 19.9825 2.37973L19.4667 2.37874C19.4667 2.37874 19.3794 2.35451 19.2953 2.17314C19.2408 2.05562 19.2213 1.91773 19.2144 1.83545C19.5992 1.87962 19.9344 1.92147 20.1221 1.95284Z" fill="#F07162"/>
</g>
<g id="Group_265">
<path id="Vector_112" d="M20.177 1.79446L20.1769 1.79486C20.1731 1.79304 20.1689 1.79154 20.1648 1.79004C20.1689 1.79126 20.173 1.7928 20.177 1.79446Z" fill="#F07162"/>
</g>
</g>
<g id="Group_266">
<g id="Group_267">
<path id="Vector_113" d="M20.1908 1.96416C20.1927 2.0342 20.1914 2.1085 20.1856 2.18597C20.1792 2.27461 20.0986 2.37847 20.0145 2.37838L19.9952 2.37821L19.9956 2.37804C20.0568 2.35733 20.1122 2.26469 20.1174 2.19413C20.1236 2.10927 20.1246 2.02802 20.1219 1.95166C20.1442 1.95553 20.1643 1.95909 20.1822 1.96253C20.1852 1.96283 20.188 1.96348 20.1908 1.96416Z" fill="#FDC9BC"/>
</g>
</g>
</g>
<g id="Group_268">
<g id="Group_269">
<path id="Vector_114" d="M19.4769 5.17372C19.385 5.30403 19.2225 5.45589 18.9391 5.61243C18.3672 5.92836 17.3379 5.31216 16.5864 4.86219C16.2531 4.66264 15.9653 4.49035 15.8624 4.49779L15.8595 4.44313C15.9752 4.43474 16.2406 4.59357 16.6078 4.81346C17.3087 5.23312 18.368 5.86729 18.919 5.56293C19.3583 5.32033 19.495 5.09554 19.5323 4.94966C19.5613 4.83638 19.5346 4.76004 19.5254 4.73871C19.3774 4.64732 16.7092 3.00026 16.5054 2.94581C16.4478 2.93042 16.2749 2.84724 16.0354 2.73211C15.3993 2.42621 14.2152 1.85684 13.916 1.97847C13.7264 2.05549 12.3303 2.82393 11.1442 3.70798L11.1189 3.66183C12.3081 2.77546 13.71 2.00418 13.9006 1.92673C14.2166 1.79823 15.3664 2.35112 16.0533 2.68145C16.2817 2.79129 16.4621 2.87804 16.5159 2.8924C16.7304 2.94968 19.4383 4.6229 19.5535 4.69411L19.5591 4.69756L19.5624 4.70375C19.5647 4.70792 19.6168 4.80748 19.5779 4.96269C19.5631 5.02234 19.5332 5.09403 19.4769 5.17372Z" fill="black"/>
</g>
</g>
<g id="Group_270">
<g id="Group_271">
<path id="Vector_115" d="M20.2868 2.75024C20.2227 2.84103 20.1371 2.93246 20.0301 3.02415L20.0023 2.97998C20.2581 2.76082 20.3857 2.54738 20.3815 2.34542C20.3774 2.14557 20.2414 2.02008 20.2147 1.99741C20.0583 1.97905 17.0736 1.62928 16.8442 1.61745C16.6127 1.60554 14.8404 2.17172 14.8225 2.17744L14.8101 2.12463C14.8833 2.10115 16.6075 1.5504 16.8463 1.5627C17.082 1.57487 20.0973 1.92856 20.2256 1.94361L20.2313 1.9443L20.2362 1.94804C20.2438 1.95393 20.4233 2.09543 20.4284 2.34413C20.4312 2.47707 20.3837 2.61292 20.2868 2.75024Z" fill="black"/>
</g>
</g>
<g id="Group_272">
<path id="Vector_116" d="M10.8993 9.90104C10.5658 10.0143 10.2418 9.7974 10.2281 9.78812L10.2485 9.74756C10.2517 9.74975 10.5715 9.96348 10.888 9.85593L10.8993 9.90104Z" fill="black"/>
</g>
<g id="Group_273">
<path id="Vector_117" d="M11.2349 9.59964C10.9352 9.80417 10.5756 9.68575 10.5604 9.6806L10.5717 9.63548C10.5752 9.63668 10.93 9.75321 11.2145 9.55908L11.2349 9.59964Z" fill="black"/>
</g>
</g>
</g>
<g id="Group_274">
<g id="Group_275">
<g id="Group_276">
<g id="Group_277">
<g id="Group_278">
<g id="Group_279">
<path id="Vector_118" d="M75.3468 32.6167C72.8325 34.123 69.7476 32.9666 68.4565 30.0338C67.1654 27.1009 68.1569 23.5023 70.6712 21.996C71.9183 21.2488 73.3057 21.1571 74.545 21.612L74.545 21.6118C74.545 21.6118 76.7258 22.3361 78.5706 21.9167C78.5706 21.9167 79.2493 22.6827 79.5725 23.374C79.8658 24.0833 80.0041 25.173 80.0041 25.173C78.6372 26.6778 77.8713 29.1675 77.8713 29.1675L77.8712 29.1674C77.4661 30.6075 76.5939 31.8695 75.3468 32.6167Z" fill="#FECC86"/>
</g>
</g>
<g id="Group_280">
<g id="Group_281">
<path id="Vector_119" d="M81.6415 22.6871L81.2563 21.8122C80.9322 21.0761 80.158 20.7858 79.5271 21.1639L78.1454 21.9916L79.704 25.5322L81.0857 24.7044C81.7167 24.3263 81.9655 23.4232 81.6415 22.6871Z" fill="#4CB7D8"/>
</g>
</g>
<g id="Group_282">
<g id="Group_283">
<path id="Vector_120" d="M81.9632 21.9417C81.7625 21.4858 81.283 21.3061 80.8922 21.5402L81.6189 23.191C82.0098 22.9569 82.1639 22.3975 81.9632 21.9417Z" fill="#4CB7D8"/>
</g>
</g>
<g id="Group_284" opacity="0.3">
<path id="Vector_121" d="M75.3467 32.617C74.4152 33.1751 73.4055 33.3676 72.4376 33.2398C75.0346 29.7211 76.1507 25.922 75.4357 21.8413C76.1389 21.988 77.162 22.1277 78.1456 21.9936L79.7031 25.5317L79.7033 25.5315C78.5253 27.0418 77.8712 29.1679 77.8712 29.1679L77.8711 29.1677C77.466 30.6079 76.5938 31.8699 75.3467 32.617Z" fill="#FECC86"/>
</g>
</g>
<g id="Group_285">
<g id="Group_286">
<path id="Vector_122" d="M76.5117 27.3752C74.5064 29.1781 73.311 29.8562 72.8574 29.4486C72.5055 29.1323 72.5206 28.8088 72.5951 28.5932C72.6056 28.5629 72.6178 28.5331 72.6316 28.5039C72.4821 28.3587 72.3322 28.1448 72.1953 27.8339L72.1279 27.6806C71.991 27.3696 71.9293 27.103 71.9153 26.8766C71.8868 26.8726 71.8589 26.8669 71.8317 26.8592C71.6381 26.8042 71.404 26.63 71.3886 26.1121C71.3688 25.4445 72.5377 24.7063 74.9621 23.8552C76.7183 23.2387 78.5028 22.7974 78.5206 22.793L78.5519 22.9663C78.5342 22.9707 76.7551 23.4107 75.005 24.0251C71.9684 25.0912 71.5308 25.7865 71.5403 26.106C71.5499 26.4326 71.6601 26.6282 71.8676 26.687C71.8827 26.6913 71.8982 26.6949 71.9139 26.6977C71.9382 26.2141 72.1869 25.9515 72.2942 25.8603C72.5904 25.6084 72.9859 25.5838 73.1759 25.8054C73.222 25.8592 73.2853 25.9775 73.1938 26.1674C73.0484 26.4691 72.5214 26.8518 72.0707 26.8816C72.087 27.1024 72.1509 27.3453 72.2629 27.5997L72.3304 27.753C72.4424 28.0074 72.5744 28.2094 72.7187 28.3536C73.002 27.9436 73.5757 27.6669 73.8706 27.7048C74.0563 27.7287 74.1018 27.8577 74.1124 27.9326C74.1561 28.2419 73.9085 28.6026 73.5605 28.7366C73.4344 28.7852 73.1066 28.868 72.7555 28.6093C72.7483 28.6259 72.7417 28.6426 72.7359 28.6595C72.656 28.8906 72.7281 29.1088 72.95 29.3083C73.1671 29.5035 73.9064 29.4936 76.4183 27.2356C77.866 25.9342 79.209 24.5037 79.2224 24.4894L79.3249 24.6201C79.3115 24.6344 77.9644 26.0693 76.5117 27.3752ZM73.0614 26.0805C73.1103 25.9791 73.0799 25.9438 73.0686 25.9306C72.9465 25.7882 72.6422 25.7835 72.3837 26.0033C72.1874 26.1702 72.0815 26.4131 72.0679 26.7042C72.456 26.6754 72.9369 26.3388 73.0614 26.0805ZM73.5129 28.5684C73.8167 28.4514 73.9906 28.1601 73.9625 27.9614C73.9599 27.9429 73.9531 27.8936 73.8539 27.8808C73.6015 27.8483 73.0867 28.1082 72.8406 28.4594C73.0513 28.6162 73.2823 28.6573 73.5129 28.5684Z" fill="#F99247"/>
</g>
</g>
<g id="Group_287">
<g id="Group_288">
<path id="Vector_123" d="M78.1658 21.9444C78.0434 21.9642 77.997 21.9679 77.8953 21.9759L77.8398 21.9804C76.2205 22.1126 74.5726 21.573 74.5562 21.5675L74.551 21.5658C73.2505 21.0905 71.867 21.2286 70.6546 21.955C68.1258 23.47 67.1249 27.1025 68.4235 30.0524C69.2208 31.8635 70.7344 33.0726 72.4724 33.2868L72.4804 33.1986C70.768 32.9877 69.2766 31.7963 68.4911 30.0119C67.2116 27.1055 68.1977 23.5265 70.6893 22.0337C71.8857 21.3169 73.2513 21.1815 74.5345 21.6525L74.6016 21.6772L74.6006 21.6731C74.924 21.7716 76.3957 22.187 77.8451 22.0687L77.9005 22.0643C78.0039 22.0561 78.0512 22.0523 78.1763 22.0321L78.1658 21.9444Z" fill="#21111D"/>
</g>
</g>
<g id="Group_289">
<g id="Group_290">
<path id="Vector_124" d="M69.2748 24.8568L69.2227 24.7925C69.2131 24.8031 68.2654 25.867 68.4257 27.4404L68.5011 27.4299C68.3455 25.9018 69.2655 24.8671 69.2748 24.8568Z" fill="#21111D"/>
</g>
</g>
<g id="Group_291">
<g id="Group_292">
<path id="Vector_125" d="M69.7875 24.8593L69.7354 24.7949C69.7258 24.8055 68.7781 25.8694 68.9384 27.4428L69.0138 27.4324C68.8581 25.9042 69.7782 24.8695 69.7875 24.8593Z" fill="#21111D"/>
</g>
</g>
<g id="Group_293">
<g id="Group_294">
<path id="Vector_126" d="M81.5666 22.4222L81.3967 22.0362C81.0042 21.1448 80.0632 20.792 79.299 21.2499L78.0933 21.9723L79.6693 25.5522L79.7368 25.5117L78.1955 22.0106L79.3337 21.3287C80.0607 20.8931 80.9558 21.2287 81.3292 22.0767L81.4991 22.4627C81.6778 22.8687 81.712 23.3322 81.5953 23.7679L81.6678 23.7943C81.7904 23.3363 81.7545 22.849 81.5666 22.4222Z" fill="#21111D"/>
</g>
</g>
<g id="Group_295">
<g id="Group_296">
<path id="Vector_127" d="M82.0065 21.9427C81.6687 21.1761 80.9819 21.4474 80.9749 21.4502L81 21.5337C81.0262 21.5231 81.6471 21.2807 81.95 22.0089L82.0183 21.9702C82.0144 21.9609 82.0105 21.9518 82.0065 21.9427Z" fill="#21111D"/>
</g>
</g>
<g id="Group_297">
<g id="Group_298">
<path id="Vector_128" d="M77.1609 29.4197L77.086 29.4053C76.9488 30.3733 76.2531 30.9294 76.2461 30.9349L76.2884 31.0084C76.2957 31.0028 77.0182 30.4263 77.1609 29.4197Z" fill="#21111D"/>
</g>
</g>
<g id="Group_299">
<g id="Group_300">
<path id="Vector_129" d="M76.7689 29.4583L76.694 29.4438C76.5939 30.1487 76.0866 30.5542 76.0815 30.5582L76.1239 30.6316C76.1459 30.6145 76.6634 30.2018 76.7689 29.4583Z" fill="#21111D"/>
</g>
</g>
<g id="Group_301">
<g id="Group_302">
<path id="Vector_130" d="M78.6794 21.4634L78.6115 21.5029C78.6244 21.5331 79.9054 24.5382 80.0195 25.6646L80.0949 25.6542C79.9792 24.5125 78.7324 21.5873 78.6794 21.4634Z" fill="#21111D"/>
</g>
</g>
<g id="Group_303">
<g id="Group_304">
<path id="Vector_131" d="M79.2518 21.124L79.1836 21.163C79.1975 21.196 80.5686 24.4686 80.5571 25.2407L80.633 25.2423C80.6448 24.4489 79.3087 21.2594 79.2518 21.124Z" fill="#21111D"/>
</g>
</g>
<g id="Group_305">
<g id="Group_306">
<path id="Vector_132" d="M79.9079 20.9355L79.8401 20.9753C79.8528 21.0047 81.1063 23.9275 81.1041 24.9129L81.18 24.9131C81.1823 23.9067 79.9599 21.0564 79.9079 20.9355Z" fill="#21111D"/>
</g>
</g>
</g>
<g id="Group_307">
<g id="Group_308">
<g id="Group_309">
<path id="Vector_133" d="M69.3582 21.0725C69.3567 21.0691 69.3551 21.0658 69.3534 21.0626L68.389 19.2655C68.3556 19.2033 68.2853 19.1844 68.232 19.2234C68.1787 19.2623 68.1627 19.3442 68.1959 19.4065L69.1603 21.2036C69.1937 21.2657 69.2639 21.2846 69.3172 21.2457C69.3678 21.2088 69.3849 21.1332 69.3582 21.0725Z" fill="#F99247"/>
</g>
</g>
</g>
<g id="Group_310">
<g id="Group_311">
<g id="Group_312">
<path id="Vector_134" d="M67.2201 23.5806C67.21 23.5576 67.194 23.5379 67.173 23.5246L65.5748 22.516C65.5195 22.4811 65.4504 22.5051 65.4204 22.5696C65.3904 22.634 65.4109 22.7145 65.4663 22.7495L67.0646 23.7581C67.1199 23.793 67.189 23.769 67.2189 23.7045C67.2376 23.6645 67.2367 23.6182 67.2201 23.5806Z" fill="#F99247"/>
</g>
</g>
</g>
<g id="Group_313">
<g id="Group_314">
<g id="Group_315">
<path id="Vector_135" d="M66.6169 27.4998C66.5963 27.4532 66.553 27.4234 66.5054 27.4283L64.695 27.6157C64.6323 27.6221 64.5861 27.6866 64.5916 27.7596C64.5971 27.8325 64.6525 27.8866 64.7151 27.8801L66.5256 27.6926C66.5882 27.6862 66.6345 27.6217 66.6289 27.5487C66.6276 27.5312 66.6234 27.5147 66.6169 27.4998Z" fill="#F99247"/>
</g>
</g>
</g>
<g id="Group_316">
<g id="Group_317">
<g id="Group_318">
<path id="Vector_136" d="M75.4759 34.1321C75.4487 34.0704 75.3848 34.043 75.3294 34.071C75.2717 34.1002 75.2452 34.1784 75.2701 34.2457L75.9921 36.1915C76.0169 36.2583 76.0841 36.2898 76.1418 36.2606C76.1996 36.2315 76.2261 36.1533 76.2011 36.0859L75.4792 34.1402C75.4781 34.1374 75.477 34.1347 75.4759 34.1321Z" fill="#F99247"/>
</g>
</g>
</g>
<g id="Group_319">
<g id="Group_320">
<g id="Group_321">
<path id="Vector_137" d="M72.4917 34.7642C72.4748 34.7257 72.4421 34.6976 72.4025 34.6927C72.3399 34.6849 72.2838 34.7376 72.2771 34.8106L72.0835 36.9188C72.0768 36.9917 72.1221 37.0573 72.1846 37.0651C72.2472 37.0729 72.3033 37.0201 72.31 36.9471L72.5036 34.8389C72.506 34.8122 72.5015 34.7864 72.4917 34.7642Z" fill="#F99247"/>
</g>
</g>
</g>
<g id="Group_322">
<g id="Group_323">
<g id="Group_324">
<path id="Vector_138" d="M69.3073 33.6263C69.3005 33.6108 69.2909 33.5966 69.2786 33.5847C69.2302 33.5379 69.1584 33.5458 69.1183 33.6023L67.9591 35.2355C67.919 35.2921 67.9259 35.3758 67.9742 35.4226C68.0227 35.4694 68.0944 35.4615 68.1345 35.405L69.2937 33.7718C69.3237 33.7296 69.3275 33.6721 69.3073 33.6263Z" fill="#F99247"/>
</g>
</g>
</g>
<g id="Group_325">
<g id="Group_326">
<g id="Group_327">
<path id="Vector_139" d="M67.1873 31.0692C67.187 31.0686 67.1867 31.068 67.1865 31.0674C67.1569 31.0027 67.0879 30.9782 67.0324 31.0127L65.4285 32.0094C65.3735 32.0436 65.3524 32.1228 65.3807 32.1872C65.381 32.1878 65.3813 32.1884 65.3813 32.1884C65.4112 32.2537 65.4802 32.2782 65.5357 32.2437L67.1396 31.247C67.1945 31.2128 67.2156 31.1336 67.1873 31.0692Z" fill="#F99247"/>
</g>
</g>
</g>
<g id="Group_328" opacity="0.5">
<g id="Group_329">
<path id="Vector_140" d="M72.3796 32.1842C72.5449 31.8503 72.1929 31.2521 71.5934 30.8481C70.9939 30.4441 70.3739 30.3872 70.2085 30.7211C70.0432 31.055 70.3952 31.6532 70.9947 32.0572C71.5942 32.4612 72.2143 32.5181 72.3796 32.1842Z" fill="#F3FFFE"/>
</g>
</g>
</g>
<g id="Group_330">
<g id="Group_331">
<g id="Group_332">
<path id="Vector_141" d="M84.3038 19.3656C84.1563 20.1306 84.7027 21.1952 84.7318 22.1147C84.7606 23.0341 85.8953 23.3211 85.8953 23.3211C85.8953 23.3211 85.9074 21.6511 85.7833 21.3091C85.7052 21.0942 85.3923 20.1676 85.156 19.4969C85.0525 19.2033 84.964 18.9588 84.916 18.8446C84.9086 18.8269 84.9022 18.8124 84.8968 18.8012C84.8959 18.7993 84.895 18.7975 84.8943 18.7959C84.8885 18.7846 84.8844 18.7778 84.8816 18.7756C84.824 18.7302 84.4512 18.6008 84.3038 19.3656Z" fill="#F49D75"/>
</g>
</g>
<g id="Group_333">
<g id="Group_334">
<g id="Group_335">
<path id="Vector_142" d="M84.9155 18.8471C84.9081 18.8294 84.9017 18.8149 84.8963 18.8037C84.8489 18.8305 84.8001 18.8619 84.7511 18.8992C84.7012 18.9372 84.6851 19.0178 84.712 19.0865C84.7134 19.0899 84.7147 19.0932 84.7162 19.0965L84.8839 19.4609C84.8839 19.4609 84.9249 19.5147 85.0464 19.5154C85.0841 19.5157 85.1218 19.5087 85.1555 19.4989C85.0521 19.2055 84.9635 18.9612 84.9155 18.8471Z" fill="#F07162"/>
</g>
<g id="Group_336">
<path id="Vector_143" d="M84.9574 18.771H84.9573C84.9586 18.7721 84.96 18.7732 84.9613 18.7745C84.9602 18.7732 84.9588 18.7721 84.9574 18.771Z" fill="#F07162"/>
</g>
</g>
<g id="Group_337">
<g id="Group_338">
<path id="Vector_144" d="M84.8968 18.8036C84.8959 18.8018 84.895 18.7999 84.8943 18.7983C84.848 18.8231 84.7996 18.8533 84.7511 18.8903C84.707 18.9236 84.6791 19.014 84.7064 19.0736L84.7126 19.0873L84.7125 19.0864C84.7039 19.0365 84.734 18.9676 84.769 18.9412C84.8189 18.9032 84.8685 18.8725 84.916 18.847C84.9086 18.8293 84.9022 18.8148 84.8968 18.8036Z" fill="#FDC9BC"/>
</g>
<g id="Group_339">
<path id="Vector_145" d="M84.9884 18.8066C84.9897 18.8082 84.9908 18.8094 84.9916 18.8109L84.9919 18.8107C84.9908 18.8094 84.9898 18.8079 84.9884 18.8066Z" fill="#FDC9BC"/>
</g>
</g>
</g>
<g id="Group_340">
<g id="Group_341">
<path id="Vector_146" d="M84.3579 19.0794L84.4001 19.1036C84.4802 18.9136 84.5744 18.8006 84.6799 18.768C84.7702 18.74 84.8429 18.7817 84.863 18.7951C84.9187 18.9519 85.7351 21.2495 85.8041 21.5229C85.8746 21.8021 85.8718 23.3067 85.8718 23.3219L85.9187 23.322C85.9189 23.2598 85.9215 21.7942 85.8492 21.5074C85.7774 21.223 84.9391 18.8661 84.9035 18.7659L84.9008 18.7584L84.895 18.7538C84.8911 18.7506 84.796 18.676 84.6689 18.7147C84.5492 18.7512 84.4446 18.8739 84.3579 19.0794Z" fill="black"/>
</g>
</g>
<g id="Group_342">
<g id="Group_343">
<path id="Vector_147" d="M82.7606 18.991C82.7373 19.9966 83.6513 21.179 83.8832 22.3283C84.1148 23.4776 85.6042 23.511 85.6042 23.511C85.6042 23.511 85.265 21.4049 85.0359 21.0102C84.8976 20.772 84.3467 19.7689 83.9136 19.002C83.7024 18.6284 83.5193 18.3107 83.4254 18.1653C83.4117 18.1439 83.3999 18.1265 83.3903 18.1129C83.3881 18.1098 83.3861 18.1071 83.3841 18.1044C83.3741 18.0908 83.3668 18.0829 83.3627 18.0808C83.2804 18.0406 82.7836 17.9854 82.7606 18.991Z" fill="#F49D75"/>
</g>
</g>
<g id="Group_344">
<g id="Group_345">
<g id="Group_346">
<path id="Vector_148" d="M83.4244 18.1661C83.4107 18.1447 83.3989 18.1273 83.3893 18.1138C83.3617 18.1322 83.3341 18.1519 83.3065 18.1729C83.2361 18.2261 83.2137 18.3397 83.2518 18.4364V18.4366C83.2535 18.4411 83.2555 18.4453 83.2574 18.4496L83.4926 18.9608C83.4926 18.9608 83.5501 19.0363 83.7206 19.0374C83.7885 19.038 83.856 19.0216 83.9126 19.002C83.7014 18.6288 83.5182 18.3114 83.4244 18.1661Z" fill="#F07162"/>
</g>
<g id="Group_347">
<path id="Vector_149" d="M83.5949 17.9927H83.5947C83.5976 17.9948 83.6003 17.9974 83.6029 17.9997C83.6003 17.9974 83.5976 17.995 83.5949 17.9927Z" fill="#F07162"/>
</g>
</g>
<g id="Group_348">
<g id="Group_349">
<path id="Vector_150" d="M83.3886 18.1126C83.3865 18.1094 83.3844 18.1067 83.3824 18.104C83.3568 18.1212 83.331 18.1393 83.3051 18.159C83.2433 18.2059 83.204 18.3331 83.2423 18.4165L83.2512 18.4353C83.2383 18.3651 83.2809 18.268 83.3302 18.2306C83.3615 18.2068 83.3928 18.185 83.4238 18.1649C83.41 18.1435 83.3983 18.126 83.3886 18.1126Z" fill="#FDC9BC"/>
</g>
<g id="Group_350">
<path id="Vector_151" d="M83.6383 18.0444C83.6393 18.0459 83.6406 18.0473 83.6416 18.0487H83.6419C83.6408 18.0473 83.6395 18.0459 83.6383 18.0444Z" fill="#FDC9BC"/>
</g>
</g>
</g>
<g id="Group_351">
<g id="Group_352">
<path id="Vector_152" d="M82.7485 18.7445L82.7952 18.7502C82.829 18.3684 82.9851 18.2066 83.11 18.1381C83.2274 18.0738 83.3283 18.0864 83.3486 18.1024C83.3766 18.1295 83.6265 18.5379 84.9789 20.9613L85.0352 21.0622C85.1669 21.2977 85.4224 22.6222 85.4249 22.6355L85.4708 22.6235C85.4602 22.5686 85.2108 21.2759 85.0745 21.0322L85.0183 20.9315C83.4445 18.1113 83.392 18.0703 83.3747 18.0569C83.3297 18.0217 83.2081 18.0239 83.0901 18.0886C82.9788 18.1495 82.7864 18.3158 82.7485 18.7445Z" fill="black"/>
</g>
</g>
<path id="Vector_153" d="M79.8684 21.0246C80.4147 20.9013 80.9874 21.2047 81.2544 21.8112L81.6396 22.6862C81.6443 22.6969 81.6485 22.7078 81.653 22.7186C82.2393 22.9324 82.7764 23.0776 82.8806 23.2078C83.1096 23.494 84.4671 24.3877 83.8058 25.8648C83.8058 25.8648 83.234 26.6605 82.6988 26.5601C82.6988 26.5601 81.6121 25.2484 81.4939 25.0283C81.4598 24.965 81.3707 24.7924 81.237 24.5951C81.1887 24.6347 81.1378 24.6711 81.0838 24.7035L80.102 25.2917C80.1214 25.3368 80.1407 25.3813 80.16 25.4249C80.2723 25.6794 80.3814 25.9043 80.4668 26.0361C80.5817 26.2137 80.8213 26.5943 81.0733 26.9967C81.5442 27.7478 81.9314 28.5648 82.2337 29.4257C82.5259 30.2577 83.0427 31.414 83.8683 32.2976C85.1095 33.6257 93.5595 40.6972 93.5595 40.6972V33.1382L87.692 29.8639C87.692 29.8639 85.9849 23.4001 85.7822 22.9439C85.5796 22.4875 83.5115 21.6899 83.3223 21.5599C83.2023 21.4776 81.9227 21.0479 81.0023 20.7446C80.5897 20.6084 80.2493 20.4979 80.1181 20.4554C80.0865 20.4452 80.067 20.4389 80.0616 20.437C80.0604 20.4367 80.0599 20.4365 80.0599 20.4365C80.0599 20.4365 80.0561 20.4376 80.0494 20.4408C80.0031 20.4619 79.8211 20.5751 79.8684 21.0246Z" fill="#F49D75"/>
<g id="Group_353">
<g id="Group_354">
<path id="Vector_154" d="M81.1175 17.8641C81.0196 17.8562 80.486 18.0046 80.768 19.0603C81.05 20.1158 82.3607 20.9675 82.9517 22.0671C83.5426 23.1668 85.1021 22.5845 85.1021 22.5845C85.1021 22.5845 84.1082 20.5342 83.7496 20.2183C83.5346 20.0289 82.6656 19.2225 81.9835 18.6057C81.6778 18.3292 81.4096 18.0909 81.2548 17.9633C81.2363 17.9483 81.2196 17.9348 81.2046 17.9229C81.2022 17.9208 81.1998 17.919 81.1974 17.9173C81.1544 17.8835 81.1267 17.8648 81.1175 17.8641Z" fill="#F49D75"/>
</g>
</g>
<g id="Group_355">
<g id="Group_356">
<path id="Vector_155" d="M82.6868 26.5293L82.6848 26.5839C82.6926 26.5843 83.4633 26.6126 83.863 25.7556L83.8217 25.7295C83.4363 26.5557 82.6943 26.5296 82.6868 26.5293Z" fill="black"/>
</g>
</g>
<g id="Group_357">
<g id="Group_358">
<g id="Group_359">
<path id="Vector_156" d="M80.0483 20.436C80.0429 20.4499 80.0375 20.4642 80.0325 20.4785C79.999 20.572 80.0366 20.6846 80.1175 20.7413L80.1176 20.7415C80.1214 20.7442 80.1251 20.7467 80.1288 20.7489L80.5861 21.0269C80.5861 21.0269 80.6732 21.0528 80.8198 20.9377C80.8902 20.8826 80.9481 20.8067 80.9891 20.7433C80.5764 20.6072 80.236 20.4968 80.1048 20.4543C80.0732 20.4442 80.0537 20.4379 80.0483 20.436Z" fill="#F07162"/>
</g>
<g id="Group_360">
<path id="Vector_157" d="M80.1903 20.1265V20.1266C80.1946 20.1269 80.1989 20.1274 80.2032 20.128C80.1989 20.1274 80.1946 20.1269 80.1903 20.1265Z" fill="#F07162"/>
</g>
</g>
<g id="Group_361">
<g id="Group_362">
<path id="Vector_158" d="M80.0471 20.436C80.0471 20.436 80.0433 20.4371 80.0366 20.4403C80.033 20.4498 80.0294 20.4593 80.026 20.4689C79.9965 20.5509 80.0264 20.6864 80.101 20.7317L80.1179 20.7418C80.072 20.6905 80.0597 20.5783 80.0833 20.5129C80.0904 20.4931 80.0978 20.4737 80.1053 20.4549C80.0737 20.4447 80.0542 20.4384 80.0488 20.4366C80.0476 20.4363 80.0471 20.436 80.0471 20.436Z" fill="#FDC9BC"/>
</g>
<g id="Group_363">
<path id="Vector_159" d="M80.2561 20.1416C80.2574 20.1419 80.259 20.1425 80.2605 20.143V20.1428C80.259 20.1422 80.2576 20.1419 80.2561 20.1416Z" fill="#FDC9BC"/>
</g>
</g>
</g>
<g id="Group_364">
<g id="Group_365">
<g id="Group_366">
<path id="Vector_160" d="M81.2566 17.9622C81.2381 17.9472 81.2214 17.9337 81.2064 17.9219C81.1624 17.9741 81.1188 18.0312 81.0763 18.0934C81.0225 18.1727 81.0324 18.293 81.097 18.3732L81.0972 18.3736C81.1002 18.3772 81.1031 18.3808 81.1063 18.3841L81.4816 18.7965C81.4816 18.7965 81.5593 18.8489 81.7273 18.7845C81.8362 18.7428 81.9317 18.6582 81.9852 18.604C81.6796 18.3278 81.4114 18.0897 81.2566 17.9622Z" fill="#F07162"/>
</g>
<g id="Group_367">
<path id="Vector_161" d="M81.3117 17.8052L81.3115 17.8055C81.3156 17.8069 81.3196 17.8086 81.3237 17.8103C81.3198 17.8085 81.3158 17.8067 81.3117 17.8052Z" fill="#F07162"/>
</g>
</g>
<g id="Group_368">
<g id="Group_369">
<path id="Vector_162" d="M81.1988 17.9141C81.1561 17.9634 81.1133 18.0185 81.0718 18.0794C81.0242 18.149 81.0215 18.2889 81.0827 18.3562L81.0968 18.3715L81.0966 18.3711C81.0644 18.3071 81.0787 18.1953 81.1165 18.1399C81.1621 18.0733 81.2092 18.0134 81.2562 17.9601C81.2377 17.945 81.221 17.9315 81.206 17.9197C81.2036 17.9176 81.2012 17.9158 81.1988 17.9141Z" fill="#FDC9BC"/>
</g>
</g>
</g>
<g id="Group_370">
<g id="Group_371">
<path id="Vector_163" d="M79.8279 20.8185C79.8179 20.9869 79.8465 21.2274 79.9602 21.5683C80.1896 22.2564 81.3004 22.6337 82.1114 22.9093C82.471 23.0315 82.7816 23.1371 82.852 23.2249L82.8863 23.1875C82.8072 23.0887 82.5208 22.9914 82.1245 22.8567C81.3681 22.5997 80.225 22.2113 80.0039 21.5485C79.8277 21.0201 79.8608 20.7472 79.9196 20.6114C79.9653 20.5058 80.0297 20.4718 80.0489 20.4637C80.2103 20.5159 83.1189 21.4582 83.299 21.582C83.3499 21.617 83.5246 21.6952 83.7663 21.8035C84.4086 22.0912 85.6043 22.6267 85.75 22.9549C85.8423 23.1629 86.404 24.8403 86.745 26.4334L86.7905 26.4201C86.4487 24.8229 85.8845 23.1387 85.7917 22.9297C85.6377 22.583 84.4768 22.063 83.7831 21.7523C83.5525 21.6491 83.3704 21.5674 83.3228 21.5348C83.1332 21.4044 80.1803 20.4493 80.0547 20.4087L80.0486 20.4067L80.0426 20.4086C80.0385 20.4098 79.942 20.4404 79.8788 20.5843C79.8545 20.6395 79.834 20.7155 79.8279 20.8185Z" fill="black"/>
</g>
</g>
<g id="Group_372">
<g id="Group_373">
<path id="Vector_164" d="M80.6652 18.4114C80.6583 18.5288 80.6666 18.6639 80.6904 18.8163L80.7366 18.8065C80.6798 18.4422 80.7128 18.1848 80.8348 18.0415C80.9555 17.8996 81.1283 17.9174 81.1609 17.9223C81.2854 18.0344 83.6598 20.1728 83.8335 20.3482C84.0087 20.525 84.9628 22.3572 84.9724 22.3757L85.0125 22.3472C84.9731 22.2715 84.0449 20.4892 83.8642 20.3067C83.6858 20.1265 81.2868 17.9663 81.1848 17.8745L81.1802 17.8703L81.1745 17.8692C81.1655 17.8673 80.9518 17.8263 80.8016 18.0028C80.7212 18.0973 80.6757 18.234 80.6652 18.4114Z" fill="black"/>
</g>
</g>
<g id="Group_374">
<path id="Vector_165" d="M83.2734 31.1277C83.4489 31.4771 83.8122 31.579 83.8276 31.5832L83.8367 31.5374C83.8331 31.5364 83.4748 31.4356 83.3082 31.104L83.2734 31.1277Z" fill="black"/>
</g>
<g id="Group_375">
<path id="Vector_166" d="M83.2078 30.6416C83.3049 31.0303 83.636 31.2322 83.65 31.2406L83.6685 31.1988C83.6652 31.1968 83.3387 30.9973 83.2465 30.6284L83.2078 30.6416Z" fill="black"/>
</g>
</g>
</g>
</g>
</g>
</g>
<defs>
<clipPath id="clip0_2566_1717">
<rect width="94" height="72" rx="14" fill="white"/>
</clipPath>
</defs>
</svg>
