<svg width="32" height="33" viewBox="0 0 32 33" fill="none" xmlns="http://www.w3.org/2000/svg">
<path d="M32 13.4146L31.7613 13.4216L31.8455 22.6926H31.986V23.9609H28.8121V23.071L26.1929 18.404L26.0525 23.2322H26.523V24.5005H23.3561V23.2322H23.63L23.3631 14.1084L23.012 14.1574L22.8154 12.6928L26.8881 12.1533L27.0777 13.6178L26.7968 13.6529L28.9806 18.1447L28.6085 13.4497H28.2995L28.2855 11.9711L31.986 11.936L32 13.4146Z" fill="url(#paint0_linear_2245_15361)"/>
<path d="M21.8644 13.9955H21.5063L21.3588 22.2504H21.8504V23.7289H18.9222V22.2504H19.3365L18.6203 13.9955H18.1709V12.5239H21.8644V13.9955Z" fill="url(#paint1_linear_2245_15361)"/>
<path d="M11.1947 22.3773L10.7313 14.8933L10.1133 14.9703L9.94482 12.8611L11.1245 12.7209C11.5458 12.6509 12.1076 12.5878 12.8027 12.5317C13.4979 12.4687 14.2141 12.4757 14.9374 12.5387C15.6606 12.6018 16.2785 12.784 16.7911 13.0853C17.3037 13.3867 17.5846 13.8491 17.6338 14.4868C17.6689 15.7272 17.2616 16.6522 16.6998 17.3038C15.8923 18.2779 14.8039 18.6633 14.818 18.6633C17.6689 18.6773 17.6899 20.4783 17.704 20.4712C17.6689 21.2981 17.4161 21.9498 16.9316 22.4263C16.4471 22.9028 15.8642 23.2532 15.1761 23.4705C14.495 23.6877 13.8279 23.8278 13.1819 23.8839V23.933H12.4516C11.8899 23.947 11.5247 23.947 11.3562 23.933H10.5066V22.3773H11.1947ZM13.6594 20.3171L13.7928 22.2582C16.4611 20.3451 13.6664 20.3311 13.6594 20.3171ZM13.2732 14.8863L13.4487 17.5561C17.1422 14.9283 13.2732 14.8793 13.2732 14.8863Z" fill="url(#paint2_linear_2245_15361)"/>
<path d="M9.27963 18.5198C9.27963 18.8285 9.02942 19.0787 8.72077 19.0787H6.63846C6.3298 19.0787 6.07959 18.8285 6.07959 18.5198V18.5198C6.07959 18.2112 6.3298 17.9609 6.63846 17.9609H8.72077C9.02942 17.9609 9.27963 18.2112 9.27963 18.5198V18.5198Z" fill="url(#paint3_linear_2245_15361)"/>
<path d="M4.56713 14.4442L4.41968 22.6991V23.8973H3.42257H2.18673L2.13055 22.8672L1.68115 14.4442L3.12414 15.5234L4.56713 14.4442Z" fill="url(#paint4_linear_2245_15361)"/>
<g clip-path="url(#clip0_2245_15361)">
<mask id="mask0_2245_15361" style="mask-type:luminance" maskUnits="userSpaceOnUse" x="0" y="8" width="7" height="7">
<path d="M3.04663 10.0766C3.10636 10.19 3.17916 10.305 3.24442 10.4162C3.24743 10.417 3.25044 10.4178 3.25345 10.4186C3.16038 10.4722 3.06729 10.5258 2.97421 10.5795C3.19982 10.6753 3.42543 10.7712 3.65103 10.867C3.87664 10.9629 4.10225 11.0587 4.32785 11.1546C4.35748 10.9117 4.3871 10.6687 4.41672 10.4258C4.44635 10.1829 4.47598 9.94002 4.5056 9.69711C4.41738 9.74794 4.32916 9.79878 4.24094 9.84961C4.05697 9.48225 3.873 9.1149 3.68903 8.74755C3.53491 8.43933 2.70116 8.38647 2.44259 8.8143C2.44259 8.8143 1.57101 10.3383 1.48911 10.4798C1.82016 10.6706 2.15122 10.8613 2.48227 11.0521L3.04663 10.0766ZM4.56818 12.5395C4.43981 12.5414 4.30411 12.5543 4.17523 12.5622C4.17317 12.5645 4.17109 12.5669 4.16904 12.5692C4.16313 12.4621 4.15721 12.355 4.1513 12.2479C3.96372 12.4055 3.77614 12.5631 3.58856 12.7207C3.40097 12.8782 3.21339 13.0358 3.02581 13.1934C3.2296 13.3295 3.43338 13.4656 3.63717 13.6017C3.84096 13.7377 4.04475 13.8738 4.24854 14.0099C4.24293 13.9084 4.23733 13.8069 4.23173 13.7054C4.64324 13.7075 5.05476 13.7096 5.46627 13.7117C5.81142 13.7137 6.23523 12.9952 5.96951 12.5717C5.96951 12.5717 5.00066 11.1074 4.91108 10.9706C4.59104 11.1792 4.27099 11.3878 3.95095 11.5964L4.56818 12.5395ZM0.767806 11.6548C0.540999 11.9975 0.314201 12.3402 0.087401 12.6829C-0.103011 12.9702 0.267992 13.7172 0.768545 13.7267C0.768545 13.7267 1.75992 13.7218 2.3232 13.7194C2.51006 13.7186 2.64982 13.718 2.69063 13.718C2.69063 13.3365 2.69063 12.955 2.69063 12.5735H1.56193C1.63048 12.4652 1.6939 12.3448 1.75775 12.2328C1.75693 12.2298 1.75612 12.2268 1.75529 12.2238C1.84837 12.2774 1.94145 12.3311 2.03453 12.3847C2.00491 12.1418 1.97528 11.8989 1.94566 11.656C1.91603 11.4131 1.88641 11.1702 1.85678 10.9273C1.63117 11.0231 1.40556 11.119 1.17996 11.2148C0.954351 11.3107 0.728744 11.4065 0.503135 11.5024C0.591359 11.5532 0.679584 11.604 0.767806 11.6548Z" fill="white"/>
</mask>
<g mask="url(#mask0_2245_15361)">
<path d="M6.23521 8.38623H-0.103027V14.0097H6.23521V8.38623Z" fill="url(#paint5_linear_2245_15361)"/>
</g>
<path fill-rule="evenodd" clip-rule="evenodd" d="M3.65094 10.8668C3.87655 10.9626 4.10216 11.0585 4.32776 11.1543C4.35739 10.9114 4.38701 10.6685 4.41664 10.4256C4.44626 10.1827 4.47589 9.93979 4.50552 9.69688C4.41729 9.74771 4.32907 9.79855 4.24085 9.84938C3.55057 9.06059 3.04654 10.0764 3.04654 10.0764C3.10626 10.1898 3.17907 10.3048 3.24433 10.416C3.24734 10.4168 3.25035 10.4175 3.25336 10.4183C3.16028 10.472 3.0672 10.5256 2.97412 10.5792C3.19973 10.6751 3.42534 10.7709 3.65094 10.8668Z" fill="url(#paint6_linear_2245_15361)"/>
<path fill-rule="evenodd" clip-rule="evenodd" d="M2.03433 12.3847C2.0047 12.1418 1.97508 11.8989 1.94545 11.656C1.91583 11.4131 1.8862 11.1702 1.85658 10.9272C1.63097 11.0231 1.40536 11.1189 1.17976 11.2148C0.954146 11.3107 0.728539 11.4065 0.50293 11.5024C0.591151 11.5532 0.679377 11.604 0.767598 11.6548C0.428233 12.6458 1.56173 12.5735 1.56173 12.5735C1.63028 12.4652 1.69369 12.3448 1.75755 12.2328C1.75673 12.2298 1.7559 12.2268 1.75508 12.2238C1.84817 12.2774 1.94125 12.3311 2.03433 12.3847Z" fill="url(#paint7_linear_2245_15361)"/>
<path fill-rule="evenodd" clip-rule="evenodd" d="M3.58863 12.7203C3.40104 12.8779 3.21346 13.0355 3.02588 13.1931C3.22967 13.3292 3.43345 13.4653 3.63724 13.6013C3.84103 13.7374 4.04482 13.8735 4.24861 14.0096C4.24301 13.9081 4.2374 13.8066 4.2318 13.7051C4.24967 13.7051 4.26755 13.7052 4.28543 13.7053C5.25829 13.415 4.56825 12.5391 4.56825 12.5391C4.43989 12.5411 4.30418 12.554 4.17531 12.5619C4.17324 12.5642 4.17117 12.5665 4.1691 12.5689C4.1632 12.4618 4.15729 12.3547 4.15138 12.2476C3.96379 12.4051 3.77621 12.5627 3.58863 12.7203Z" fill="url(#paint8_linear_2245_15361)"/>
<path fill-rule="evenodd" clip-rule="evenodd" d="M1.48926 10.4798C1.48926 10.4798 2.95882 8.2439 3.96513 9.29858C3.87314 9.1149 3.78116 8.93122 3.68917 8.74754C3.53506 8.43933 2.7013 8.38647 2.44274 8.8143C2.44274 8.8143 1.57116 10.3383 1.48926 10.4798Z" fill="url(#paint9_linear_2245_15361)"/>
<path fill-rule="evenodd" clip-rule="evenodd" d="M4.91092 10.9707C4.91092 10.9707 6.24647 13.2888 4.84912 13.7087C5.05488 13.7097 5.26063 13.7107 5.46639 13.7118C5.81154 13.7137 6.23527 12.9952 5.96951 12.5718C5.96951 12.5718 5.00052 11.1076 4.91092 10.9707Z" fill="url(#paint10_linear_2245_15361)"/>
<path fill-rule="evenodd" clip-rule="evenodd" d="M2.69077 13.7164C2.69077 13.7164 0.0155498 13.5663 0.426588 12.1689C0.313315 12.3404 0.200039 12.5118 0.0867638 12.6832C-0.103429 12.9707 0.268137 13.7174 0.7687 13.7266C0.7687 13.7266 2.52697 13.7165 2.69077 13.7164Z" fill="url(#paint11_linear_2245_15361)"/>
<path fill-rule="evenodd" clip-rule="evenodd" d="M1.75548 12.2237C0.699983 12.4385 0.767995 11.6548 0.767995 11.6548C0.428629 12.6458 1.56212 12.5735 1.56212 12.5735C1.63067 12.4652 1.69409 12.3447 1.75794 12.2327C1.75712 12.2297 1.7563 12.2267 1.75548 12.2237Z" fill="url(#paint12_linear_2245_15361)"/>
<path fill-rule="evenodd" clip-rule="evenodd" d="M4.16895 12.5693C4.92634 13.3337 4.23166 13.7055 4.23166 13.7055C5.2486 13.4471 4.56809 12.5396 4.56809 12.5396C4.43973 12.5415 4.30402 12.5544 4.17514 12.5623C4.17307 12.5646 4.17101 12.5669 4.16895 12.5693Z" fill="url(#paint13_linear_2245_15361)"/>
<path fill-rule="evenodd" clip-rule="evenodd" d="M3.2532 10.4183C3.59459 9.39874 4.24069 9.84938 4.24069 9.84938C3.55041 9.06059 3.04639 10.0764 3.04639 10.0764C3.10611 10.1898 3.17892 10.3048 3.24417 10.416C3.24718 10.4168 3.2502 10.4176 3.2532 10.4183Z" fill="url(#paint14_linear_2245_15361)"/>
</g>
<defs>
<linearGradient id="paint0_linear_2245_15361" x1="27.421" y1="28.3147" x2="27.421" y2="1.0543" gradientUnits="userSpaceOnUse">
<stop stop-color="#03B04E"/>
<stop offset="1" stop-color="#02C320"/>
</linearGradient>
<linearGradient id="paint1_linear_2245_15361" x1="20.023" y1="27.1305" x2="20.023" y2="2.81958" gradientUnits="userSpaceOnUse">
<stop stop-color="#03B04E"/>
<stop offset="1" stop-color="#02C320"/>
</linearGradient>
<linearGradient id="paint2_linear_2245_15361" x1="13.8356" y1="27.4211" x2="13.8356" y2="2.56636" gradientUnits="userSpaceOnUse">
<stop stop-color="#03B04E"/>
<stop offset="1" stop-color="#02C320"/>
</linearGradient>
<linearGradient id="paint3_linear_2245_15361" x1="7.68422" y1="19.418" x2="7.68422" y2="16.9929" gradientUnits="userSpaceOnUse">
<stop stop-color="#03B04E"/>
<stop offset="1" stop-color="#02C320"/>
</linearGradient>
<linearGradient id="paint4_linear_2245_15361" x1="3.1283" y1="26.8138" x2="3.12832" y2="5.96944" gradientUnits="userSpaceOnUse">
<stop stop-color="#03B04E"/>
<stop offset="1" stop-color="#02C320"/>
</linearGradient>
<linearGradient id="paint5_linear_2245_15361" x1="3.06609" y1="8.38623" x2="3.06609" y2="14.0097" gradientUnits="userSpaceOnUse">
<stop stop-color="#03B04E"/>
<stop offset="1" stop-color="#00D421"/>
</linearGradient>
<linearGradient id="paint6_linear_2245_15361" x1="3.73982" y1="9.54932" x2="3.73982" y2="11.1543" gradientUnits="userSpaceOnUse">
<stop stop-color="#03B04E"/>
<stop offset="1" stop-color="#00D421"/>
</linearGradient>
<linearGradient id="paint7_linear_2245_15361" x1="1.26863" y1="10.9272" x2="1.26863" y2="12.5747" gradientUnits="userSpaceOnUse">
<stop stop-color="#03B04E"/>
<stop offset="1" stop-color="#00D421"/>
</linearGradient>
<linearGradient id="paint8_linear_2245_15361" x1="3.91576" y1="12.2476" x2="3.91576" y2="14.0096" gradientUnits="userSpaceOnUse">
<stop stop-color="#03B04E"/>
<stop offset="1" stop-color="#00D421"/>
</linearGradient>
<linearGradient id="paint9_linear_2245_15361" x1="2.72719" y1="8.50488" x2="2.72719" y2="10.4798" gradientUnits="userSpaceOnUse">
<stop stop-color="#03B04E"/>
<stop offset="1" stop-color="#00D421"/>
</linearGradient>
<linearGradient id="paint10_linear_2245_15361" x1="5.45105" y1="10.9707" x2="5.45105" y2="13.7118" gradientUnits="userSpaceOnUse">
<stop stop-color="#03B04E"/>
<stop offset="1" stop-color="#00D421"/>
</linearGradient>
<linearGradient id="paint11_linear_2245_15361" x1="1.36345" y1="12.1689" x2="1.36345" y2="13.7266" gradientUnits="userSpaceOnUse">
<stop stop-color="#03B04E"/>
<stop offset="1" stop-color="#00D421"/>
</linearGradient>
<linearGradient id="paint12_linear_2245_15361" x1="1.23127" y1="11.6548" x2="1.23127" y2="12.5747" gradientUnits="userSpaceOnUse">
<stop stop-color="#03B04E"/>
<stop offset="1" stop-color="#00D421"/>
</linearGradient>
<linearGradient id="paint13_linear_2245_15361" x1="4.47998" y1="12.5396" x2="4.47998" y2="13.7055" gradientUnits="userSpaceOnUse">
<stop stop-color="#03B04E"/>
<stop offset="1" stop-color="#00D421"/>
</linearGradient>
<linearGradient id="paint14_linear_2245_15361" x1="3.64354" y1="9.54932" x2="3.64354" y2="10.4183" gradientUnits="userSpaceOnUse">
<stop stop-color="#03B04E"/>
<stop offset="1" stop-color="#00D421"/>
</linearGradient>
<clipPath id="clip0_2245_15361">
<rect width="6.06544" height="5.53125" fill="white" transform="translate(0 8.5)"/>
</clipPath>
</defs>
</svg>
