<svg width="120" height="120" viewBox="0 0 120 120" fill="none" xmlns="http://www.w3.org/2000/svg">
<path d="M8.68133 30.3712L60 0.742308L111.319 30.3712V89.6288L60 119.258L8.68133 89.6288V30.3712Z" stroke="#8BDBAE" stroke-width="1.28571"/>
<path d="M68.5 44.7998L75.7 47.1998L74.7808 48.7318L80.5 51.9998C81.5609 51.9998 82.5783 52.4212 83.3284 53.1714C84.0786 53.9215 84.5 54.9389 84.5 55.9998C84.5 58.1622 82.6624 60.0006 80.5 59.9998C79.4391 59.9998 78.4217 59.5784 77.6716 58.8282C76.9214 58.0781 76.5 57.0607 76.5 55.9998L68.5 54.3998L71.6048 67.5958C71.668 67.8646 71.7 68.139 71.7 68.415V68.4246C71.6998 69.3727 71.3231 70.282 70.6526 70.9524C69.9822 71.6229 69.0729 71.9996 68.1248 71.9998C67.5073 71.9997 66.9003 71.8398 66.363 71.5356C65.8256 71.2314 65.3762 70.7932 65.0584 70.2638L63.7 67.9998H57.3L55.9416 70.2638C55.5391 70.934 54.9281 71.4538 54.2021 71.7437C53.4761 72.0336 52.675 72.0776 51.9216 71.8689C51.1682 71.6603 50.504 71.2105 50.0305 70.5885C49.557 69.9664 49.3004 69.2064 49.3 68.4246V68.415C49.3 68.139 49.332 67.8646 49.3952 67.5958L52.5 54.3998L44.5 55.9998C44.5 56.5251 44.3965 57.0452 44.1955 57.5305C43.9945 58.0158 43.6999 58.4568 43.3284 58.8282C42.957 59.1997 42.516 59.4943 42.0307 59.6953C41.5454 59.8963 41.0253 59.9998 40.5 59.9998C38.3376 59.9998 36.5 58.1622 36.5 55.9998C36.5 54.9389 36.9214 53.9215 37.6716 53.1714C38.4217 52.4212 39.4391 51.9998 40.5 51.9998L46.2192 48.7318L45.3 47.1998L52.5 44.7998" fill="#027D37"/>
<path d="M71.0712 54.9143L75.0264 55.7055L77.3784 50.2167L74.7808 48.7319L71.0712 54.9143ZM43.6216 50.2167L45.9736 55.7055L49.9288 54.9143L46.2192 48.7319L43.6216 50.2167ZM70.008 60.8079L69.2536 57.6039L60.5 58.3999L51.7464 57.6039L50.992 60.8079L60.5 61.5999L70.008 60.8079ZM64.6232 69.5383L71.2792 66.2103L70.7624 64.0135L62.9 64.7999L62.1 67.9999H63.7L64.6232 69.5383ZM50.2376 64.0135L49.7208 66.2103L56.3768 69.5383L57.3 67.9999H58.9L58.1 64.7999L50.2376 64.0135Z" fill="#8BDBAE"/>
<path d="M68.6072 44.8359L75.7 47.1999L73.3 51.1999L66.9 50.3999V46.1463C67.5072 45.7616 68.0786 45.323 68.6072 44.8359ZM52.3928 44.8359L45.3 47.1999L47.7 51.1999L54.1 50.3999V46.1463C53.4929 45.7616 52.9215 45.323 52.3928 44.8359Z" fill="#03A047"/>
<path d="M60.5001 55.1999C61.8256 55.1999 62.9001 54.1254 62.9001 52.7999C62.9001 51.4744 61.8256 50.3999 60.5001 50.3999C59.1746 50.3999 58.1001 51.4744 58.1001 52.7999C58.1001 54.1254 59.1746 55.1999 60.5001 55.1999Z" fill="white"/>
<path d="M74.0999 32.8L71.9367 32.3672C70.3975 27.516 65.8607 24 60.4999 24C55.1391 24 50.6023 27.516 49.0631 32.3672L46.8999 32.8L47.6999 40H49.1975C50.8463 44.6576 55.2775 48 60.4999 48C65.7223 48 70.1535 44.6576 71.8023 40H73.2999L74.0999 32.8Z" fill="#03A047"/>
<path d="M66.8999 29.6L63.6999 28L62.0999 31.2H58.8999L57.2999 28L54.0999 29.6L50.8999 34.4L52.4999 39.2V44.9224C54.6207 46.8312 57.4199 48 60.4999 48C63.5799 48 66.3791 46.8312 68.4999 44.9224V39.2L70.0999 34.4L66.8999 29.6Z" fill="#8BDBAE"/>
<path d="M57.1433 47.5136C58.2089 47.8248 59.3329 48 60.5001 48C61.6673 48 62.7913 47.8248 63.8569 47.5136L62.1001 44H58.9001L57.1433 47.5136Z" fill="#03A047"/>
<path d="M58.9001 35.9998L51.1465 35.1382L52.2217 38.3646L58.9001 39.1998V35.9998Z" fill="white"/>
<path d="M69.8537 35.1382L62.1001 35.9998V39.1998L68.7785 38.3654L69.8537 35.1382Z" fill="#C4C4C4"/>
<path d="M69.8537 35.1382L62.1001 35.9998V39.1998L68.7785 38.3654L69.8537 35.1382Z" fill="white"/>
<path d="M38.1001 61.6001H39.7001V66.4001H38.1001V61.6001ZM41.3001 63.2001H42.9001V69.6001H41.3001V63.2001ZM81.3001 61.6001H82.9001V66.4001H81.3001V61.6001ZM78.1001 63.2001H79.7001V69.6001H78.1001V63.2001Z" fill="#919191"/>
<path d="M39.6089 93V91.71H40.7789V87.29H39.6089V86H43.4389V87.29H42.2789V91.71H43.4389V93H39.6089ZM44.8819 93V87.71H46.2519L46.3019 89.41L46.0619 89.05C46.1485 88.7833 46.2785 88.54 46.4519 88.32C46.6319 88.1 46.8419 87.9267 47.0819 87.8C47.3285 87.6667 47.5852 87.6 47.8519 87.6C47.9719 87.6 48.0819 87.61 48.1819 87.63C48.2885 87.6433 48.3785 87.6667 48.4519 87.7L48.0719 89.25C47.9985 89.2167 47.9019 89.1867 47.7819 89.16C47.6685 89.1267 47.5519 89.11 47.4319 89.11C47.2785 89.11 47.1319 89.14 46.9919 89.2C46.8585 89.2533 46.7385 89.3333 46.6319 89.44C46.5319 89.54 46.4519 89.66 46.3919 89.8C46.3385 89.94 46.3119 90.0967 46.3119 90.27V93H44.8819ZM51.492 93.1C50.9587 93.1 50.4787 92.9833 50.052 92.75C49.632 92.51 49.2987 92.1833 49.052 91.77C48.812 91.3567 48.692 90.8867 48.692 90.36C48.692 89.82 48.812 89.3433 49.052 88.93C49.2987 88.5167 49.632 88.1933 50.052 87.96C50.4787 87.72 50.9587 87.6 51.492 87.6C52.032 87.6 52.512 87.72 52.932 87.96C53.352 88.1933 53.682 88.5167 53.922 88.93C54.1687 89.3433 54.292 89.82 54.292 90.36C54.292 90.8867 54.1687 91.3567 53.922 91.77C53.682 92.1833 53.352 92.51 52.932 92.75C52.512 92.9833 52.032 93.1 51.492 93.1ZM51.492 91.87C51.7587 91.87 51.992 91.8033 52.192 91.67C52.3987 91.5367 52.5587 91.3567 52.672 91.13C52.792 90.9033 52.8487 90.6467 52.842 90.36C52.8487 90.06 52.792 89.7967 52.672 89.57C52.5587 89.3367 52.3987 89.1567 52.192 89.03C51.992 88.8967 51.7587 88.83 51.492 88.83C51.232 88.83 50.9987 88.8967 50.792 89.03C50.5854 89.1633 50.422 89.3433 50.302 89.57C50.182 89.7967 50.1254 90.06 50.132 90.36C50.1254 90.6467 50.182 90.9033 50.302 91.13C50.422 91.3567 50.5854 91.5367 50.792 91.67C50.9987 91.8033 51.232 91.87 51.492 91.87ZM55.3604 93V87.71H56.7304L56.7704 88.79L56.4904 88.91C56.5571 88.67 56.6871 88.4533 56.8804 88.26C57.0737 88.06 57.3037 87.9 57.5704 87.78C57.8371 87.66 58.1137 87.6 58.4004 87.6C58.8004 87.6 59.1337 87.68 59.4004 87.84C59.6737 88 59.8771 88.2433 60.0104 88.57C60.1504 88.89 60.2204 89.29 60.2204 89.77V93H58.8004V89.87C58.8004 89.63 58.7671 89.43 58.7004 89.27C58.6337 89.11 58.5337 88.9933 58.4004 88.92C58.2671 88.8467 58.0971 88.8133 57.8904 88.82C57.7304 88.82 57.5837 88.8467 57.4504 88.9C57.3171 88.9467 57.1971 89.0167 57.0904 89.11C56.9904 89.2033 56.9137 89.31 56.8604 89.43C56.8071 89.55 56.7804 89.6833 56.7804 89.83V93H56.0704C55.9237 93 55.7904 93 55.6704 93C55.5504 93 55.4471 93 55.3604 93ZM61.5711 93V87.71H62.9411L62.9711 88.72L62.7611 88.78C62.8278 88.6067 62.9211 88.45 63.0411 88.31C63.1678 88.1633 63.3111 88.04 63.4711 87.94C63.6311 87.84 63.8011 87.76 63.9811 87.7C64.1678 87.64 64.3511 87.61 64.5311 87.61C64.8111 87.61 65.0578 87.6533 65.2711 87.74C65.4911 87.8267 65.6778 87.9633 65.8311 88.15C65.9844 88.3367 66.1011 88.58 66.1811 88.88L65.9711 88.84L66.0411 88.69C66.1278 88.5367 66.2378 88.3933 66.3711 88.26C66.5044 88.1267 66.6544 88.0133 66.8211 87.92C66.9878 87.82 67.1611 87.7433 67.3411 87.69C67.5211 87.6367 67.6978 87.61 67.8711 87.61C68.2844 87.61 68.6244 87.6933 68.8911 87.86C69.1644 88.0267 69.3678 88.2733 69.5011 88.6C69.6411 88.92 69.7111 89.32 69.7111 89.8V93H68.2911V89.9C68.2911 89.54 68.2178 89.2733 68.0711 89.1C67.9311 88.9267 67.7144 88.84 67.4211 88.84C67.2678 88.84 67.1244 88.8667 66.9911 88.92C66.8578 88.9667 66.7444 89.0367 66.6511 89.13C66.5578 89.2233 66.4844 89.33 66.4311 89.45C66.3778 89.57 66.3511 89.7033 66.3511 89.85V93H64.9311V89.88C64.9311 89.5467 64.8544 89.29 64.7011 89.11C64.5544 88.93 64.3411 88.84 64.0611 88.84C63.9144 88.84 63.7744 88.8667 63.6411 88.92C63.5078 88.9667 63.3944 89.0367 63.3011 89.13C63.2078 89.2167 63.1344 89.3233 63.0811 89.45C63.0278 89.57 63.0011 89.7033 63.0011 89.85V93H61.5711ZM73.9935 93V89.69C73.9935 89.41 73.9068 89.1967 73.7335 89.05C73.5668 88.8967 73.3402 88.82 73.0535 88.82C72.7802 88.82 72.5368 88.8733 72.3235 88.98C72.1102 89.0867 71.9102 89.2533 71.7235 89.48L70.8535 88.64C71.1735 88.3067 71.5302 88.05 71.9235 87.87C72.3235 87.69 72.7568 87.6 73.2235 87.6C73.6502 87.6 74.0202 87.6667 74.3335 87.8C74.6535 87.9333 74.9002 88.1333 75.0735 88.4C75.2468 88.6667 75.3335 89.0033 75.3335 89.41V93H73.9935ZM72.5435 93.1C72.2102 93.1 71.9068 93.0333 71.6335 92.9C71.3668 92.7667 71.1535 92.5833 70.9935 92.35C70.8402 92.11 70.7635 91.83 70.7635 91.51C70.7635 91.2367 70.8135 90.9967 70.9135 90.79C71.0135 90.5767 71.1602 90.4033 71.3535 90.27C71.5535 90.13 71.8002 90.0233 72.0935 89.95C72.3935 89.8767 72.7402 89.84 73.1335 89.84H74.6935L74.6035 90.79H73.1135C72.9535 90.79 72.8102 90.8033 72.6835 90.83C72.5635 90.8567 72.4602 90.9 72.3735 90.96C72.2935 91.02 72.2302 91.09 72.1835 91.17C72.1435 91.25 72.1235 91.3433 72.1235 91.45C72.1235 91.5633 72.1535 91.6633 72.2135 91.75C72.2735 91.8367 72.3535 91.9033 72.4535 91.95C72.5602 91.9967 72.6802 92.02 72.8135 92.02C73.0068 92.02 73.1902 91.9867 73.3635 91.92C73.5435 91.8533 73.7035 91.76 73.8435 91.64C73.9835 91.52 74.0935 91.3833 74.1735 91.23L74.4435 91.94C74.3035 92.1667 74.1335 92.3667 73.9335 92.54C73.7335 92.7133 73.5168 92.85 73.2835 92.95C73.0502 93.05 72.8035 93.1 72.5435 93.1ZM76.6104 93V87.71H77.9804L78.0204 88.79L77.7404 88.91C77.8071 88.67 77.9371 88.4533 78.1304 88.26C78.3237 88.06 78.5537 87.9 78.8204 87.78C79.0871 87.66 79.3637 87.6 79.6504 87.6C80.0504 87.6 80.3837 87.68 80.6504 87.84C80.9237 88 81.1271 88.2433 81.2604 88.57C81.4004 88.89 81.4704 89.29 81.4704 89.77V93H80.0504V89.87C80.0504 89.63 80.0171 89.43 79.9504 89.27C79.8837 89.11 79.7837 88.9933 79.6504 88.92C79.5171 88.8467 79.3471 88.8133 79.1404 88.82C78.9804 88.82 78.8337 88.8467 78.7004 88.9C78.5671 88.9467 78.4471 89.0167 78.3404 89.11C78.2404 89.2033 78.1637 89.31 78.1104 89.43C78.0571 89.55 78.0304 89.6833 78.0304 89.83V93H77.3204C77.1737 93 77.0404 93 76.9204 93C76.8004 93 76.6971 93 76.6104 93Z" fill="url(#paint0_linear_1998_12794)"/>
<defs>
<linearGradient id="paint0_linear_1998_12794" x1="60.5634" y1="103.464" x2="60.5634" y2="64.4107" gradientUnits="userSpaceOnUse">
<stop stop-color="#03B04E"/>
<stop offset="1" stop-color="#02C320"/>
</linearGradient>
</defs>
</svg>
