<svg width="25" height="24" viewBox="0 0 25 24" fill="none" xmlns="http://www.w3.org/2000/svg">
<g id="Bin_Icon" clip-path="url(#clip0_1537_365)">
<path id="Vector" d="M21.1 4H18C17.7679 2.87141 17.1539 1.85735 16.2613 1.12872C15.3687 0.40009 14.2522 0.00145452 13.1 0L11.1 0C9.94783 0.00145452 8.83136 0.40009 7.93879 1.12872C7.04622 1.85735 6.43213 2.87141 6.20004 4H3.10004C2.83482 4 2.58047 4.10536 2.39293 4.29289C2.20539 4.48043 2.10004 4.73478 2.10004 5C2.10004 5.26522 2.20539 5.51957 2.39293 5.70711C2.58047 5.89464 2.83482 6 3.10004 6H4.10004V19C4.10162 20.3256 4.62892 21.5964 5.56626 22.5338C6.50359 23.4711 7.77444 23.9984 9.10004 24H15.1C16.4256 23.9984 17.6965 23.4711 18.6338 22.5338C19.5712 21.5964 20.0984 20.3256 20.1 19V6H21.1C21.3653 6 21.6196 5.89464 21.8071 5.70711C21.9947 5.51957 22.1 5.26522 22.1 5C22.1 4.73478 21.9947 4.48043 21.8071 4.29289C21.6196 4.10536 21.3653 4 21.1 4ZM11.1 2H13.1C13.7203 2.00076 14.3252 2.19338 14.8316 2.55144C15.3381 2.90951 15.7215 3.41549 15.929 4H8.27104C8.47862 3.41549 8.86194 2.90951 9.36842 2.55144C9.87491 2.19338 10.4798 2.00076 11.1 2ZM18.1 19C18.1 19.7956 17.784 20.5587 17.2214 21.1213C16.6587 21.6839 15.8957 22 15.1 22H9.10004C8.30439 22 7.54133 21.6839 6.97872 21.1213C6.41611 20.5587 6.10004 19.7956 6.10004 19V6H18.1V19Z" fill="#013216"/>
<path id="Vector_2" d="M10.1 18C10.3653 18 10.6196 17.8946 10.8071 17.7071C10.9947 17.5196 11.1 17.2652 11.1 17V11C11.1 10.7348 10.9947 10.4804 10.8071 10.2929C10.6196 10.1054 10.3653 10 10.1 10C9.83482 10 9.58047 10.1054 9.39293 10.2929C9.20539 10.4804 9.10004 10.7348 9.10004 11V17C9.10004 17.2652 9.20539 17.5196 9.39293 17.7071C9.58047 17.8946 9.83482 18 10.1 18Z" fill="#013216"/>
<path id="Vector_3" d="M14.1 18C14.3653 18 14.6196 17.8946 14.8071 17.7071C14.9947 17.5196 15.1 17.2652 15.1 17V11C15.1 10.7348 14.9947 10.4804 14.8071 10.2929C14.6196 10.1054 14.3653 10 14.1 10C13.8348 10 13.5805 10.1054 13.3929 10.2929C13.2054 10.4804 13.1 10.7348 13.1 11V17C13.1 17.2652 13.2054 17.5196 13.3929 17.7071C13.5805 17.8946 13.8348 18 14.1 18Z" fill="#013216"/>
</g>
<defs>
<clipPath id="clip0_1537_365">
<rect width="24" height="24" fill="white" transform="translate(0.100037)"/>
</clipPath>
</defs>
</svg>
