<svg width="120" height="120" viewBox="0 0 120 120" fill="none" xmlns="http://www.w3.org/2000/svg">
<path d="M8.68133 30.3712L60 0.742308L111.319 30.3712V89.6288L60 119.258L8.68133 89.6288V30.3712Z" stroke="#8BDBAE" stroke-width="1.28571"/>
<g clip-path="url(#clip0_1998_12869)">
<path d="M83.4688 49.0312C83.4688 58.5225 77.7118 66.6692 69.4994 70.17C69.1675 70.3115 68.8376 69.4979 68.4978 69.624C66.0088 70.5478 63.3163 71.0526 60.5059 71.0526C57.5864 71.0526 54.7942 70.5079 52.2252 69.5146C51.9779 69.419 51.7268 70.2668 51.4837 70.1629C43.2803 66.6581 37.5312 58.5161 37.5312 49.0312C37.5312 36.3459 47.8147 26.0625 60.5 26.0625C73.1853 26.0625 83.4688 36.3459 83.4688 49.0312Z" fill="#00C8DE"/>
<path d="M79.25 47.6162C79.25 57.9716 70.8553 66.3662 60.5 66.3662C50.1447 66.3662 41.75 57.9716 41.75 47.6162C41.75 37.2609 50.1447 28.8662 60.5 28.8662C70.8553 28.8662 79.25 37.2609 79.25 47.6162Z" fill="#2DD2E3"/>
<path d="M42.374 64.8931C38.9641 64.8931 38.8136 59.7638 42.221 59.6317C42.2687 59.6298 42.3168 59.6289 42.3653 59.6289H57.0773C57.595 59.6289 58.0148 60.0486 58.0148 60.5664V64.893H42.374V64.8931Z" fill="#00A86D"/>
<path d="M58.0147 64.3433V66.3194C58.0147 66.8372 57.5949 67.2569 57.0772 67.2569H41.1077C40.9985 67.2569 40.8912 67.2288 40.796 67.1753C40.7009 67.1217 40.6211 67.0446 40.5644 66.9513L40.5272 66.8901L39.53 64.7858C39.4056 64.5811 39.1358 64.5555 39.7557 64.3433H58.0147Z" fill="#00915D"/>
<path d="M60.8177 33.0007L53.4823 45.076C53.3332 45.3215 53.1053 45.5092 52.8359 45.6087C52.5665 45.7081 52.2713 45.7134 51.9984 45.6236L48.4197 44.4463L57.6668 29.2241L58.5869 29.6872C60.4396 29.388 61.792 31.397 60.8177 33.0007ZM49.0025 47.1653C48.9442 46.79 48.5718 46.5492 48.2055 46.6501L47.981 46.712L38.1272 62.9331L40.5271 66.8901L47.9364 54.6931L49.2304 55.5297C49.6914 55.8277 50.2879 55.4407 50.2036 54.8983L49.0025 47.1653Z" fill="#4BCD5C"/>
<path d="M57.7956 29.2887L48.5599 44.4923L46.5837 43.8421C46.0396 43.6632 45.8038 43.0242 46.1012 42.5348L53.8104 29.8441C53.9804 29.5642 54.2197 29.3328 54.5052 29.1722C54.7907 29.0116 55.1127 28.9272 55.4402 28.9272H57.0772L57.7956 29.2887ZM40.4847 49.8751L41.5359 50.5547C41.4985 50.6044 41.4637 50.656 41.4314 50.7091L36.8696 58.2188C36.6278 58.6167 36.5 59.0733 36.5 59.5389C36.5 60.0044 36.6278 60.4611 36.8696 60.859L38.2112 63.0712L48.1828 46.6562L40.6611 48.7286C40.1319 48.8743 40.0239 49.5772 40.4847 49.8751Z" fill="#00C53B"/>
<path d="M76.6655 40.3556L73.7025 47.5987C73.6736 47.6697 73.632 47.735 73.5798 47.7912C73.4825 47.8958 73.3094 47.8705 73.2351 47.7484L61.9457 29.1985C61.8734 29.0795 61.9589 28.9272 62.0982 28.9272H66.8044C67.1319 28.9273 67.454 29.0116 67.7394 29.1722C68.0249 29.3328 68.2642 29.5642 68.4343 29.8441L74.5844 39.9684L75.8653 39.5157C76.3828 39.3327 76.8734 39.8475 76.6655 40.3556Z" fill="#BAED6A"/>
<path d="M73.5893 47.7806C73.3984 47.9954 73.0755 48.0623 72.8077 47.9149L65.9515 44.1422C65.4706 43.8776 65.5286 43.1689 66.0461 42.986L67.2368 42.5652L58.9521 28.9272H62.1153L73.5893 47.7806Z" fill="#A3E72D"/>
<path d="M78.4374 48.3483L84.2218 57.8451C84.3838 58.1112 84.4782 58.4129 84.4967 58.7238C84.5152 59.0348 84.4573 59.3456 84.328 59.629C84.2971 59.6966 83.508 59.7628 83.4689 59.8272L79.6086 66.1818L76.6516 60.084L71.2452 51.2007C70.9047 50.6412 71.174 49.9105 71.7961 49.7058L77.2509 47.9113C77.469 47.8395 77.7049 47.8437 77.9203 47.9231C78.1357 48.0024 78.318 48.1523 78.4374 48.3483Z" fill="#00A86D"/>
<path d="M81.5005 63.0672L79.6084 66.1819L76.6513 60.084L71.2449 51.2008C70.9044 50.6413 71.1738 49.9106 71.7959 49.7059L73.5944 49.1143L79.2034 58.3304L81.5005 63.0672Z" fill="#00915D"/>
<path d="M69.4588 70.1872C66.7059 71.3544 63.6784 72 60.5 72C58.707 72 56.9619 71.7945 55.2872 71.4059C55.0546 71.3519 53.7295 70.6524 53.7268 70.1352V49.3125C53.7268 48.6101 54.113 47.998 54.6847 47.6768C54.0975 47.1613 53.7268 46.4052 53.7268 45.5625C53.7258 44.8926 53.9649 44.2445 54.4008 43.7358C53.9664 42.6804 53.7268 41.5245 53.7268 40.3125V39.5625C53.7268 35.7855 56.0535 32.5519 59.3518 31.2168V26.0907C59.7322 26.072 60.1149 26.0625 60.5 26.0625C61.6465 26.0625 62.7735 26.1465 63.875 26.3087V30.6079C63.875 30.9687 64.0829 31.296 64.4078 31.4528C67.4212 32.9077 69.5 35.9923 69.5 39.5625V40.3125C69.5 41.5245 69.2603 42.6805 68.826 43.7358C69.2619 44.2445 69.501 44.8926 69.5 45.5625C69.5 46.4052 69.1293 47.1613 68.5421 47.6768C69.1138 47.998 69.5 48.6101 69.5 49.3125V70.125L69.4588 70.1872Z" fill="#D5F3F7"/>
<path d="M66.6841 48.616C66.6519 49.1143 66.2158 49.4912 65.7165 49.4912H56.3198C55.4702 49.4912 54.7814 50.18 54.7814 51.0295V70.1248C54.7808 70.6006 54.9617 71.0587 55.2872 71.4057C54.0057 71.1083 52.7523 70.7006 51.5412 70.1871L51.5 70.1249V49.3123C51.5 48.6099 51.8862 47.9978 52.4578 47.6766C51.8707 47.1611 51.5 46.405 51.5 45.5623C51.499 44.8924 51.7381 44.2443 52.174 43.7356C51.7396 42.6803 51.5 41.5243 51.5 40.3123V39.5623C51.5 35.9921 53.5788 32.9075 56.5921 31.4528C56.9171 31.2958 57.125 30.9686 57.125 30.6078V26.3085C58.2116 26.1487 59.3082 26.0665 60.4064 26.0625V30.0369C60.4064 30.7254 60.0255 31.3521 59.4235 31.686C56.6552 33.221 54.7814 36.1728 54.7814 39.5623V40.328C54.7828 41.1702 55.4775 41.8476 56.3199 41.8476H65.7165C66.2158 41.8476 66.6519 42.2243 66.6841 42.7227C66.7195 43.2687 66.2871 43.7226 65.7487 43.7226C65.7487 43.7226 58.8532 43.7284 56.3499 43.7329C55.6471 43.7341 55.0287 44.2097 54.8619 44.8923C54.8084 45.1116 54.7814 45.3366 54.7815 45.5623C54.7815 45.9802 54.8727 46.3767 55.0362 46.7332C55.2845 47.2748 55.8327 47.6162 56.4286 47.6162H65.7488C66.2871 47.6162 66.7195 48.07 66.6841 48.616Z" fill="#AFEAF2"/>
<path d="M60.3386 29.0586H57.8213C57.3035 29.0586 56.8838 28.6389 56.8838 28.1211V26.2461C56.8838 25.7283 57.3035 25.3086 57.8213 25.3086H60.3386C60.8564 25.3086 61.2761 25.7283 61.2761 26.2461V28.1211C61.2761 28.6389 60.8563 29.0586 60.3386 29.0586Z" fill="#87E0EC"/>
<path d="M63.1788 29.0586H60.1016C59.5838 29.0586 59.1641 28.6389 59.1641 28.1211V26.2461C59.1641 25.7283 59.5838 25.3086 60.1016 25.3086H63.1788C63.6966 25.3086 64.1163 25.7283 64.1163 26.2461V28.1211C64.1163 28.6389 63.6966 29.0586 63.1788 29.0586Z" fill="#AFEAF2"/>
<path d="M61.2031 27.75H57.125C56.6072 27.75 56.1875 27.3303 56.1875 26.8125V24.9375C56.1875 24.4197 56.6072 24 57.125 24H61.2031C61.7209 24 62.1406 24.4197 62.1406 24.9375V26.8125C62.1406 27.3303 61.7209 27.75 61.2031 27.75Z" fill="#005AAF"/>
<path d="M63.875 27.75H60.4062C59.8885 27.75 59.4688 27.3303 59.4688 26.8125V24.9375C59.4688 24.4197 59.8885 24 60.4062 24H63.875C64.3928 24 64.8125 24.4197 64.8125 24.9375V26.8125C64.8125 27.3303 64.3928 27.75 63.875 27.75Z" fill="#0573CF"/>
<path d="M84.3279 59.629L80.2736 66.34C80.1036 66.6199 79.8643 66.8513 79.5788 67.0119C79.2934 67.1725 78.9713 67.2569 78.6438 67.2569H66.2388V68.6501C66.2388 69.199 65.59 69.4898 65.1802 69.1246L59.3384 63.9173C59.0548 63.6646 59.0548 63.221 59.3384 62.9683L65.1802 57.761C65.59 57.3958 66.2388 57.6867 66.2388 58.2356V59.6288H84.3279V59.629Z" fill="#4BCD5C"/>
<path d="M81.4867 64.3429L80.2737 66.3396C80.1037 66.6196 79.8644 66.851 79.5789 67.0116C79.2934 67.1722 78.9714 67.2565 78.6439 67.2565H66.2389V68.6497C66.2389 69.1986 65.59 69.4895 65.1803 69.1242L59.8162 64.3428L81.4867 64.3429Z" fill="#00C53B"/>
</g>
<path d="M44.4188 93V86H49.1388V87.32H45.8888V91.68H49.2088V93H44.4188ZM45.1188 90.07V88.79H48.6588V90.07H45.1188ZM50.5764 93V85.6H51.9964V93H50.5764ZM56.2601 93V89.69C56.2601 89.41 56.1735 89.1967 56.0001 89.05C55.8335 88.8967 55.6068 88.82 55.3201 88.82C55.0468 88.82 54.8035 88.8733 54.5901 88.98C54.3768 89.0867 54.1768 89.2533 53.9901 89.48L53.1201 88.64C53.4401 88.3067 53.7968 88.05 54.1901 87.87C54.5901 87.69 55.0235 87.6 55.4901 87.6C55.9168 87.6 56.2868 87.6667 56.6001 87.8C56.9201 87.9333 57.1668 88.1333 57.3401 88.4C57.5135 88.6667 57.6001 89.0033 57.6001 89.41V93H56.2601ZM54.8101 93.1C54.4768 93.1 54.1735 93.0333 53.9001 92.9C53.6335 92.7667 53.4201 92.5833 53.2601 92.35C53.1068 92.11 53.0301 91.83 53.0301 91.51C53.0301 91.2367 53.0801 90.9967 53.1801 90.79C53.2801 90.5767 53.4268 90.4033 53.6201 90.27C53.8201 90.13 54.0668 90.0233 54.3601 89.95C54.6601 89.8767 55.0068 89.84 55.4001 89.84H56.9601L56.8701 90.79H55.3801C55.2201 90.79 55.0768 90.8033 54.9501 90.83C54.8301 90.8567 54.7268 90.9 54.6401 90.96C54.5601 91.02 54.4968 91.09 54.4501 91.17C54.4101 91.25 54.3901 91.3433 54.3901 91.45C54.3901 91.5633 54.4201 91.6633 54.4801 91.75C54.5401 91.8367 54.6201 91.9033 54.7201 91.95C54.8268 91.9967 54.9468 92.02 55.0801 92.02C55.2735 92.02 55.4568 91.9867 55.6301 91.92C55.8101 91.8533 55.9701 91.76 56.1101 91.64C56.2501 91.52 56.3601 91.3833 56.4401 91.23L56.7101 91.94C56.5701 92.1667 56.4001 92.3667 56.2001 92.54C56.0001 92.7133 55.7835 92.85 55.5501 92.95C55.3168 93.05 55.0701 93.1 54.8101 93.1ZM60.657 93.1C60.1703 93.1 59.7337 93.02 59.347 92.86C58.967 92.7 58.657 92.4733 58.417 92.18L59.307 91.42C59.5137 91.64 59.7403 91.8 59.987 91.9C60.2403 91.9933 60.497 92.04 60.757 92.04C60.8503 92.04 60.937 92.03 61.017 92.01C61.097 91.9833 61.167 91.95 61.227 91.91C61.287 91.8633 61.3303 91.81 61.357 91.75C61.3903 91.69 61.407 91.62 61.407 91.54C61.407 91.3933 61.347 91.28 61.227 91.2C61.1737 91.16 61.0737 91.1167 60.927 91.07C60.787 91.0167 60.607 90.96 60.387 90.9C60.047 90.8133 59.7603 90.7133 59.527 90.6C59.2937 90.48 59.1037 90.3433 58.957 90.19C58.837 90.0633 58.7437 89.9167 58.677 89.75C58.617 89.5833 58.587 89.4 58.587 89.2C58.587 88.88 58.6803 88.6 58.867 88.36C59.0537 88.12 59.3003 87.9333 59.607 87.8C59.9203 87.6667 60.2603 87.6 60.627 87.6C60.9003 87.6 61.1637 87.6333 61.417 87.7C61.677 87.7667 61.917 87.8633 62.137 87.99C62.3637 88.11 62.5603 88.2533 62.727 88.42L61.967 89.27C61.847 89.15 61.7103 89.0467 61.557 88.96C61.4037 88.8667 61.2503 88.7933 61.097 88.74C60.9437 88.68 60.8037 88.65 60.677 88.65C60.5637 88.65 60.4603 88.66 60.367 88.68C60.2803 88.7 60.207 88.7333 60.147 88.78C60.087 88.82 60.0403 88.87 60.007 88.93C59.9803 88.99 59.967 89.0567 59.967 89.13C59.967 89.2033 59.9837 89.2733 60.017 89.34C60.057 89.4 60.1103 89.4567 60.177 89.51C60.2437 89.55 60.3503 89.5967 60.497 89.65C60.6503 89.7033 60.847 89.7633 61.087 89.83C61.407 89.9167 61.677 90.0133 61.897 90.12C62.117 90.2267 62.2937 90.35 62.427 90.49C62.547 90.61 62.6303 90.75 62.677 90.91C62.7303 91.0633 62.757 91.23 62.757 91.41C62.757 91.7367 62.6637 92.03 62.477 92.29C62.297 92.5433 62.047 92.7433 61.727 92.89C61.4137 93.03 61.057 93.1 60.657 93.1ZM64.2893 93V86.37H65.7093V93H64.2893ZM63.2993 88.98V87.71H66.7993V88.98H63.2993ZM67.8349 93V87.71H69.2549V93H67.8349ZM68.5449 86.62C68.2649 86.62 68.0482 86.5533 67.8949 86.42C67.7415 86.2867 67.6649 86.0967 67.6649 85.85C67.6649 85.6233 67.7415 85.44 67.8949 85.3C68.0549 85.1533 68.2715 85.08 68.5449 85.08C68.8115 85.08 69.0215 85.1467 69.1749 85.28C69.3282 85.4133 69.4049 85.6033 69.4049 85.85C69.4049 86.0833 69.3282 86.27 69.1749 86.41C69.0215 86.55 68.8115 86.62 68.5449 86.62ZM73.0813 93.1C72.5746 93.1 72.1213 92.98 71.7213 92.74C71.3213 92.5 71.0046 92.1733 70.7713 91.76C70.5446 91.34 70.4313 90.8733 70.4313 90.36C70.4313 89.8333 70.5446 89.3633 70.7713 88.95C71.0046 88.53 71.3213 88.2 71.7213 87.96C72.1213 87.72 72.5746 87.6 73.0813 87.6C73.5546 87.6 73.9846 87.69 74.3713 87.87C74.7646 88.0433 75.0713 88.2833 75.2913 88.59L74.5213 89.53C74.428 89.4033 74.3113 89.2867 74.1713 89.18C74.0313 89.0733 73.878 88.99 73.7113 88.93C73.5513 88.87 73.3846 88.84 73.2113 88.84C72.938 88.84 72.6946 88.9067 72.4813 89.04C72.268 89.1667 72.1013 89.3467 71.9813 89.58C71.8613 89.8067 71.8013 90.0633 71.8013 90.35C71.8013 90.63 71.8646 90.8833 71.9913 91.11C72.118 91.3367 72.288 91.5167 72.5013 91.65C72.7146 91.7833 72.9513 91.85 73.2113 91.85C73.3846 91.85 73.548 91.8267 73.7013 91.78C73.8613 91.7267 74.008 91.65 74.1413 91.55C74.2746 91.45 74.4013 91.3333 74.5213 91.2L75.2913 92.14C75.0713 92.4267 74.758 92.66 74.3513 92.84C73.9513 93.0133 73.528 93.1 73.0813 93.1Z" fill="url(#paint0_linear_1998_12869)"/>
<defs>
<linearGradient id="paint0_linear_1998_12869" x1="59.5461" y1="103.464" x2="59.5461" y2="64.4107" gradientUnits="userSpaceOnUse">
<stop stop-color="#03B04E"/>
<stop offset="1" stop-color="#02C320"/>
</linearGradient>
<clipPath id="clip0_1998_12869">
<rect width="48" height="48" fill="white" transform="translate(36.5 24)"/>
</clipPath>
</defs>
</svg>
