<svg width="55" height="64" viewBox="0 0 55 64" fill="none" xmlns="http://www.w3.org/2000/svg">
<g id="Group">
<path id="Vector" d="M27.5 32.4758H3.92401C2.17226 32.4758 0.752136 33.896 0.752136 35.6477V58.3433C0.752136 61.3863 3.66476 63.5835 6.59076 62.7475L8.02989 62.3363C12.0143 61.198 16.2378 61.198 20.2221 62.3363L24.6474 63.6007C26.5118 64.1333 28.488 64.1333 30.3524 63.6007C35.4766 62.1366 40.0951 60.3721 46.9699 62.3363L48.409 62.7475C51.335 63.5835 54.2476 61.3865 54.2476 58.3433V35.6477C54.2476 33.896 52.8275 32.4758 51.0758 32.4758H27.5Z" fill="#FF6E80"/>
<path id="Vector_2" d="M48.0259 30.9198C42.0758 29.4325 35.851 29.4327 29.901 30.9202L27.5 31.5204L23.2581 47.7679L27.5 58.9375C31.801 57.9125 38.4437 56.0822 47.5376 58.2487L49.2639 58.6598C49.6261 58.746 49.9001 58.6394 50.0661 58.5354C50.2305 58.4313 50.4284 58.241 50.4284 57.9277V33.997C50.4284 33.2897 50.192 32.6026 49.7567 32.045C49.3213 31.4874 48.7121 31.0914 48.0259 30.9198Z" fill="#DBDAFD"/>
<path id="Vector_3" d="M30.3548 53.8135C30.3289 53.6913 30.3273 53.5651 30.3502 53.4423C30.373 53.3194 30.4199 53.2023 30.488 53.0975C30.5561 52.9928 30.6442 52.9025 30.7473 52.8318C30.8503 52.7611 30.9663 52.7114 31.0885 52.6855C33.0463 52.271 34.0563 52.228 36.0487 52.1262C36.5757 52.0975 37.0208 52.5029 37.0478 53.0277C37.0607 53.2797 36.973 53.5266 36.8039 53.7139C36.6349 53.9013 36.3983 54.0138 36.1463 54.0268C34.2317 54.1244 33.3084 54.1608 31.4827 54.5473C30.9688 54.6564 30.4637 54.3277 30.3548 53.8135ZM30.3548 50.4078C30.3289 50.2855 30.3273 50.1594 30.3502 50.0365C30.373 49.9137 30.4199 49.7965 30.488 49.6918C30.5561 49.587 30.6442 49.4967 30.7473 49.4261C30.8503 49.3554 30.9663 49.3057 31.0885 49.2798C33.0463 48.8653 34.0563 48.8223 36.0487 48.7204C36.5757 48.6924 37.0208 49.0972 37.0478 49.6219C37.0607 49.874 36.973 50.1208 36.8039 50.3082C36.6349 50.4955 36.3983 50.6081 36.1463 50.621C34.2317 50.7187 33.3084 50.755 31.4827 51.1415C30.9688 51.2507 30.4637 50.9219 30.3548 50.4078ZM4.57153 33.997V57.9277C4.57153 58.241 4.76941 58.4314 4.93378 58.5354C5.09978 58.6394 5.37378 58.746 5.73603 58.6598L7.46228 58.2488C16.5563 56.0823 23.1989 57.9128 27.4999 58.9377V31.5204L25.0989 30.9202C19.1489 29.4327 12.9241 29.4325 6.97403 30.9198C6.28779 31.0914 5.6786 31.4875 5.24329 32.045C4.80798 32.6026 4.57153 33.2897 4.57153 33.997Z" fill="#CACAFD"/>
<path id="Vector_4" d="M23.677 54.9755C23.6108 54.9755 23.5447 54.9685 23.4799 54.9548C18.9329 53.9974 14.1093 53.9333 9.53089 54.77C9.28395 54.8123 9.03031 54.7554 8.825 54.6119C8.61969 54.4683 8.47928 54.2495 8.43425 54.0031C8.38921 53.7566 8.44317 53.5024 8.58443 53.2955C8.72569 53.0885 8.94284 52.9457 9.18877 52.8979C14.0083 52.0174 19.0855 52.0845 23.8721 53.0925C24.1025 53.1408 24.3068 53.2728 24.4456 53.4629C24.5843 53.653 24.6477 53.8878 24.6234 54.122C24.5992 54.3561 24.489 54.5729 24.3142 54.7306C24.1394 54.8882 23.9124 54.9755 23.677 54.9755ZM23.677 50.46C23.1719 50.46 17.3931 48.8176 9.53089 50.2546C9.28395 50.2969 9.03031 50.2401 8.825 50.0965C8.61969 49.9529 8.47928 49.7342 8.43425 49.4877C8.38921 49.2413 8.44317 48.987 8.58443 48.7801C8.72569 48.5732 8.94284 48.4303 9.18877 48.3825C14.0084 47.5018 19.0856 47.569 23.8721 48.5771C24.1024 48.6256 24.3065 48.7576 24.4452 48.9476C24.5838 49.1377 24.6471 49.3724 24.6228 49.6065C24.5986 49.8405 24.4885 50.0572 24.3138 50.2149C24.1392 50.3725 23.9123 50.4598 23.677 50.46ZM23.4799 46.6181C18.933 45.6608 14.1094 45.5968 9.53089 46.4335C9.28395 46.4758 9.03031 46.4189 8.825 46.2754C8.61969 46.1318 8.47928 45.913 8.43425 45.6666C8.38921 45.4201 8.44317 45.1659 8.58443 44.959C8.72569 44.752 8.94284 44.6092 9.18877 44.5614C14.0085 43.6809 19.0858 43.7479 23.8721 44.7559C24.1191 44.8079 24.3352 44.9558 24.4731 45.1672C24.6109 45.3786 24.6591 45.6361 24.6071 45.883C24.5814 46.0053 24.5318 46.1213 24.4613 46.2245C24.3907 46.3276 24.3005 46.4158 24.1958 46.4841C24.0911 46.5523 23.974 46.5993 23.8512 46.6223C23.7283 46.6453 23.6022 46.6439 23.4799 46.6181ZM23.4799 42.7971C18.9329 41.8398 14.1093 41.7756 9.53089 42.6124C9.40797 42.6348 9.28182 42.6329 9.15965 42.6066C9.03749 42.5803 8.9217 42.5302 8.81889 42.4592C8.71609 42.3881 8.62828 42.2975 8.56048 42.1926C8.49269 42.0876 8.44623 41.9703 8.42377 41.8474C8.4013 41.7245 8.40327 41.5983 8.42956 41.4761C8.45584 41.354 8.50594 41.2382 8.57697 41.1354C8.64801 41.0326 8.7386 40.9448 8.84357 40.877C8.94854 40.8092 9.06584 40.7627 9.18877 40.7403C14.0083 39.8598 19.0855 39.9269 23.8721 40.9349C24.1165 40.9894 24.3296 41.1381 24.4651 41.3487C24.6006 41.5593 24.6476 41.8148 24.596 42.0598C24.5444 42.3048 24.3983 42.5196 24.1894 42.6576C23.9804 42.7957 23.7255 42.8458 23.4799 42.7971Z" fill="#B9B9FC"/>
<path id="Vector_5" d="M44.9883 53.03L40.8388 51.8443C40.5737 51.7686 40.3405 51.6086 40.1745 51.3885C40.0085 51.1683 39.9186 50.9002 39.9186 50.6245V44.666C39.9186 43.8231 40.7254 43.2145 41.5359 43.4461L45.6854 44.6317C45.9505 44.7075 46.1837 44.8675 46.3497 45.0876C46.5157 45.3077 46.6055 45.5759 46.6055 45.8516V51.8101C46.6056 52.653 45.7988 53.2615 44.9883 53.03Z" fill="#CACAFD"/>
<path id="Vector_6" d="M44.6951 18.1467C44.6951 23.7557 42.0093 28.7368 37.8541 31.8756C36.7085 32.7421 35.7913 33.8459 35.1606 35.0919C34.5314 36.3377 34.1875 37.727 34.1875 39.1632H24.771C23.3488 36.1285 21.4926 32.2461 19.0694 27.2816C7.78402 4.15525 32.3364 1.64062 32.3364 1.64062C39.478 3.73025 44.6951 10.3301 44.6951 18.1467Z" fill="#FCEC78"/>
<path id="Vector_7" d="M30.4549 39.1619V39.1632H20.8125V39.1619C20.8125 36.2908 19.4385 33.6074 17.1459 31.8756C12.9337 28.6949 10.2325 23.6199 10.3062 17.9169C10.4532 6.6208 21.4128 -1.55345 32.3364 1.64042C18.7675 5.62017 15.5037 23.3545 26.7883 31.8757C29.0809 33.6074 30.4549 36.2908 30.4549 39.1619Z" fill="#FFCF6B"/>
<path id="Vector_8" d="M17.8504 22.6241C19.9073 22.6241 21.5748 21.2963 21.5748 19.6583C21.5748 18.0203 19.9073 16.6924 17.8504 16.6924C15.7935 16.6924 14.126 18.0203 14.126 19.6583C14.126 21.2963 15.7935 22.6241 17.8504 22.6241Z" fill="#FFA1AC"/>
<path id="Vector_9" d="M38.0376 22.6241C40.0945 22.6241 41.762 21.2963 41.762 19.6583C41.762 18.0203 40.0945 16.6924 38.0376 16.6924C35.9807 16.6924 34.3132 18.0203 34.3132 19.6583C34.3132 21.2963 35.9807 22.6241 38.0376 22.6241Z" fill="#FFA1AC"/>
<path id="Vector_10" d="M20.021 17.7548C19.8961 17.7549 19.7723 17.7303 19.6569 17.6825C19.5414 17.6346 19.4365 17.5646 19.3482 17.4762C19.2598 17.3878 19.1897 17.2829 19.1419 17.1675C19.0941 17.052 19.0695 16.9283 19.0695 16.8033V15.2808C19.0695 15.1559 19.0941 15.0322 19.1419 14.9167C19.1898 14.8013 19.2599 14.6964 19.3482 14.608C19.4366 14.5197 19.5415 14.4496 19.6569 14.4018C19.7723 14.354 19.8961 14.3293 20.021 14.3293C20.146 14.3293 20.2697 14.354 20.3851 14.4018C20.5006 14.4496 20.6055 14.5197 20.6938 14.608C20.7822 14.6964 20.8523 14.8013 20.9001 14.9167C20.9479 15.0322 20.9725 15.1559 20.9725 15.2808V16.8033C20.9725 17.0557 20.8723 17.2977 20.6938 17.4762C20.5154 17.6546 20.2734 17.7548 20.021 17.7548ZM35.867 17.7548C35.7421 17.7549 35.6183 17.7303 35.5029 17.6825C35.3874 17.6346 35.2825 17.5646 35.1942 17.4762C35.1058 17.3878 35.0357 17.2829 34.9879 17.1675C34.9401 17.052 34.9155 16.9283 34.9155 16.8033V15.2808C34.9155 15.1559 34.9401 15.0322 34.9879 14.9167C35.0358 14.8013 35.1059 14.6964 35.1942 14.608C35.2826 14.5197 35.3875 14.4496 35.5029 14.4018C35.6183 14.354 35.7421 14.3293 35.867 14.3293C35.992 14.3293 36.1157 14.354 36.2311 14.4018C36.3466 14.4496 36.4515 14.5197 36.5398 14.608C36.6282 14.6964 36.6983 14.8013 36.7461 14.9167C36.7939 15.0322 36.8185 15.1559 36.8185 15.2808V16.8033C36.8186 16.9283 36.794 17.0521 36.7462 17.1675C36.6984 17.283 36.6283 17.3879 36.5399 17.4762C36.4515 17.5646 36.3466 17.6347 36.2312 17.6825C36.1157 17.7303 35.992 17.7549 35.867 17.7548ZM25.1378 17.3831C24.977 17.1922 24.8977 16.9457 24.9169 16.6968C24.9361 16.448 25.0523 16.2166 25.2405 16.0526C25.4286 15.8886 25.6737 15.8051 25.9229 15.82C26.172 15.835 26.4053 15.9473 26.5725 16.1326C27.2986 16.9658 28.5894 16.966 29.3155 16.1327C29.3976 16.0385 29.4974 15.9613 29.6093 15.9057C29.7212 15.85 29.843 15.817 29.9677 15.8084C30.0923 15.7998 30.2175 15.8159 30.3359 15.8557C30.4544 15.8956 30.5638 15.9583 30.658 16.0405C32.2628 17.4385 27.7015 20.3242 25.1378 17.3831Z" fill="#3D4751"/>
<path id="Vector_11" d="M32.754 37.2522H22.2459C20.9269 37.2522 19.8577 38.3214 19.8577 39.6404C19.8577 40.9594 20.9269 42.0286 22.2459 42.0286L27.5 43.5559L32.754 42.0286C34.073 42.0286 35.1423 40.9593 35.1423 39.6404C35.1423 38.3216 34.073 37.2522 32.754 37.2522Z" fill="#7A8FA5"/>
<path id="Vector_12" d="M27.5705 51.5812C24.6521 51.5812 22.7236 49.3436 22.7236 46.8754V45.8496H32.2764V46.8754C32.2764 49.4744 30.1695 51.5812 27.5705 51.5812Z" fill="#485C70"/>
<path id="Vector_13" d="M32.7893 46.8051H22.2107C20.9112 46.8051 19.8577 45.7516 19.8577 44.4521V44.3816C19.8577 43.0821 20.9112 42.0286 22.2107 42.0286H32.7893C34.0888 42.0286 35.1422 43.0821 35.1422 44.3816V44.4521C35.1423 45.7516 34.0888 46.8051 32.7893 46.8051Z" fill="#5B778F"/>
<g id="Group_2">
<path id="Vector_14" d="M43.9339 4.38835C43.8589 4.28839 43.8043 4.17464 43.7733 4.0536C43.7423 3.93256 43.7354 3.80659 43.7531 3.68289C43.7707 3.55919 43.8126 3.44018 43.8763 3.33266C43.9399 3.22514 44.0241 3.1312 44.1241 3.05623L47.9452 0.190479C48.1471 0.0390572 48.4009 -0.0259667 48.6507 0.00971208C48.9005 0.0453909 49.1259 0.17885 49.2774 0.380729C49.4288 0.582609 49.4938 0.836372 49.4581 1.08619C49.4224 1.33602 49.289 1.56143 49.0871 1.71285L45.266 4.5786C45.0641 4.72996 44.8103 4.79495 44.5605 4.75927C44.3107 4.7236 44.0853 4.59018 43.9339 4.38835ZM48.5154 10.5007C48.2791 10.5008 48.0513 10.4129 47.8763 10.2543C47.7012 10.0957 47.5914 9.87759 47.5683 9.64249C47.5451 9.40739 47.6103 9.17209 47.751 8.98235C47.8917 8.79262 48.098 8.66203 48.3297 8.61598L53.1061 7.66073C53.2286 7.63617 53.3548 7.63601 53.4774 7.66024C53.6 7.68447 53.7166 7.73263 53.8206 7.80196C53.9246 7.87128 54.0139 7.96042 54.0834 8.06428C54.1529 8.16814 54.2013 8.28467 54.2257 8.40723C54.2502 8.52976 54.2504 8.65592 54.2261 8.7785C54.2019 8.90108 54.1537 9.01769 54.0844 9.12165C54.0151 9.22562 53.9259 9.31492 53.8221 9.38444C53.7183 9.45397 53.6018 9.50236 53.4792 9.52685L48.7029 10.4821C48.6411 10.4946 48.5783 10.5008 48.5154 10.5007ZM53.2924 19.0984C53.1714 19.0983 53.0515 19.0752 52.9392 19.0301L48.1629 17.1196C47.9336 17.0224 47.7515 16.8392 47.6558 16.6093C47.56 16.3794 47.5582 16.1211 47.6507 15.8899C47.7432 15.6587 47.9226 15.4729 48.1505 15.3725C48.3784 15.272 48.6365 15.2649 48.8696 15.3526L53.646 17.2631C53.8512 17.3453 54.0215 17.4965 54.1274 17.6905C54.2334 17.8846 54.2685 18.1096 54.2266 18.3267C54.1848 18.5438 54.0687 18.7396 53.8982 18.8804C53.7277 19.0212 53.5135 19.0983 53.2924 19.0984ZM10.3044 4.76885C10.0987 4.76896 9.8986 4.70219 9.73423 4.5786L5.91298 1.71285C5.4926 1.39748 5.40735 0.801104 5.72273 0.380729C6.0381 -0.0396458 6.63423 -0.125021 7.05485 0.190354L10.876 3.0561C11.0358 3.17596 11.1539 3.34308 11.2134 3.53378C11.2729 3.72448 11.271 3.92908 11.2077 4.11858C11.1445 4.30808 11.0232 4.47287 10.861 4.58959C10.6989 4.7063 10.5041 4.76902 10.3044 4.76885ZM6.48485 10.5007C6.42298 10.5007 6.36023 10.4947 6.29723 10.4821L1.52085 9.52685C1.0056 9.42373 0.671226 8.92248 0.774351 8.40723C0.877476 7.89198 1.37885 7.5571 1.89398 7.66073L6.67035 8.61598C6.9178 8.66548 7.13546 8.81124 7.27545 9.02121C7.41544 9.23117 7.4663 9.48814 7.41685 9.7356C7.37379 9.95117 7.25743 10.1452 7.08753 10.2847C6.91763 10.4241 6.70467 10.5005 6.48485 10.5007ZM1.70785 19.0984C1.48681 19.0981 1.27274 19.021 1.10236 18.8802C0.931983 18.7394 0.815927 18.5436 0.774105 18.3266C0.732283 18.1095 0.767303 17.8847 0.873155 17.6906C0.979007 17.4966 1.14909 17.3454 1.35423 17.2631L6.1306 15.3526C6.36493 15.259 6.62683 15.2623 6.85876 15.3617C7.09068 15.4611 7.27366 15.6485 7.36748 15.8827C7.46114 16.1171 7.45791 16.379 7.3585 16.6109C7.25909 16.8429 7.07163 17.0258 6.83735 17.1196L2.06098 19.0301C1.9487 19.0752 1.82884 19.0983 1.70785 19.0984Z" fill="#FCEC78"/>
</g>
</g>
</svg>
