<svg width="61" height="60" viewBox="0 0 61 60" fill="none" xmlns="http://www.w3.org/2000/svg">
<g id="Group">
<path id="Vector" d="M56.5536 11.6005C54.348 8.60767 51.4351 6.20799 48.0754 4.61604L45.4725 3.38267L44.88 3.10542L32.4112 1.99292L31.5215 2.21192L28.7495 2.99417C25.1714 4.0039 21.8993 5.88453 19.2257 8.46792L15.6541 11.9189L21.0477 19.3962L24.2462 17.1558L22.0301 43.5629L47.939 45.7374L50.1552 19.3303L52.9356 22.0724L59.5 15.5985L56.5536 11.6005Z" fill="#FC8860"/>
<path id="Vector_2" d="M50.3691 19.541L52.9356 22.0722L59.5 15.5985L56.9531 12.1426L50.3691 19.541ZM24.1805 16.5855L27.1616 14.4962L27.7356 15.3152L24.7545 17.4045L24.1805 16.5855Z" fill="#E37A56"/>
<path id="Vector_3" d="M32.6852 0.30249L38.0789 7.77974L44.6432 1.30599L32.6852 0.30249Z" fill="#FCA98C"/>
<path id="Vector_4" d="M36.8291 16.7269L37.5851 7.76294L38.5811 7.84694L37.8251 16.8109L36.8291 16.7269Z" fill="#F2C34E"/>
<path id="Vector_5" d="M45.7841 5.03703L44.6432 1.30615L38.0789 7.7799L39.7564 9.11365C40.0886 9.37781 40.4963 9.52942 40.9204 9.54654C41.3445 9.56366 41.763 9.44541 42.1155 9.2089L44.986 7.28265C45.3423 7.04351 45.6123 6.69609 45.7561 6.2917C45.8998 5.88732 45.9096 5.44743 45.7841 5.03703Z" fill="#E37A56"/>
<path id="Vector_6" d="M33.6394 12.9494L33.7234 11.9532L35.7154 12.1212L35.6314 13.1175L33.6394 12.9494ZM33.3867 15.9399L33.4707 14.9437L35.4627 15.1117L35.3787 16.108L33.3867 15.9399ZM35.3921 3.92087C36.3587 3.53174 37.4029 3.37445 38.4412 3.46158C39.4795 3.54871 40.4829 3.87785 41.3711 4.42262L41.4409 4.46399L44.6432 1.30599L32.6852 0.30249L35.3175 3.95162L35.3921 3.92087ZM22.0267 43.5927L22.2787 40.6047L48.1747 42.7887L47.9227 45.7767L22.0267 43.5927Z" fill="#F2C34E"/>
<path id="Vector_7" d="M21.0477 19.3962L24.0002 17.3282L18.7414 8.93599L15.6541 11.919L21.0477 19.3962ZM32.6852 0.30249L30.9385 3.79124C30.7463 4.17498 30.6827 4.61035 30.757 5.03304C30.8313 5.45572 31.0396 5.84329 31.3511 6.13849L33.8605 8.51612C34.1686 8.80808 34.5616 8.99445 34.9826 9.04827C35.4036 9.10209 35.8309 9.02057 36.2025 8.81549L38.0787 7.77999L32.6852 0.30249ZM47.015 16.9412L47.7169 16.2294L50.2002 18.6777L49.4982 19.3896L47.015 16.9412Z" fill="#E37A56"/>
<path id="Vector_8" d="M0.940002 2.6283L20.76 0.00830078L21.284 3.9723L1.464 6.5923L0.940002 2.6283Z" fill="#2F8474"/>
<path id="Vector_9" d="M5.39911 2.03852L6.39011 1.90752L6.91411 5.87152L5.92311 6.00252L5.39911 2.03852ZM10.3545 1.38389L11.3455 1.25289L11.8695 5.21677L10.8785 5.34777L10.3545 1.38389ZM15.3097 0.729145L16.3007 0.598145L16.8247 4.56214L15.8337 4.69314L15.3097 0.729145Z" fill="#349381"/>
<path id="Vector_10" d="M32.4994 42.8296L25.3685 34.6962L20.4269 40.0622L20.8181 23.1947C22.6013 20.5142 23.6323 17.4043 23.8036 14.1894C23.9748 10.9746 23.28 7.77269 21.7916 4.91796L21.2949 3.96509L1.46838 6.59384L9.16251 57.0198L20.0671 55.5733L32.4994 42.8296Z" fill="#349381"/>
<g id="Group_2">
<path id="Vector_11" d="M44.5 55.4999H35.1342C34.313 55.4998 33.5075 55.2751 32.8049 54.85C32.1023 54.4249 31.5294 53.8157 31.1483 53.0883C30.7672 52.3609 30.5924 51.543 30.6428 50.7234C30.6933 49.9037 30.967 49.1135 31.4345 48.4384L34.0207 44.7026L29.5876 45.4921L29.4124 44.5075L35.0277 43.5075C35.1249 43.4902 35.2251 43.502 35.3156 43.5416C35.4061 43.5811 35.4828 43.6465 35.5361 43.7296C35.5895 43.8127 35.617 43.9097 35.6153 44.0085C35.6136 44.1072 35.5827 44.2032 35.5265 44.2844L32.2565 49.0075C31.8929 49.5326 31.6799 50.1473 31.6407 50.7848C31.6014 51.4224 31.7374 52.0585 32.0339 52.6243C32.3303 53.1901 32.776 53.6639 33.3225 53.9946C33.869 54.3252 34.4956 54.4999 35.1344 54.4999H44.5V55.4999ZM54.5 42.4999C54.4191 42.4999 54.3395 42.4802 54.2679 42.4427C54.1963 42.4052 54.1349 42.3508 54.0889 42.2844L48.3776 34.0349C48.0555 33.5697 47.6255 33.1895 47.1243 32.9269C46.6231 32.6643 46.0658 32.5272 45.5 32.5272C44.9342 32.5272 44.3768 32.6643 43.8756 32.9269C43.3745 33.1895 42.9444 33.5697 42.6224 34.0349L36.9111 42.2844L36.0889 41.7152L41.8001 33.4659C42.2142 32.8677 42.7671 32.3788 43.4114 32.0412C44.0558 31.7035 44.7725 31.5271 45.5 31.5271C46.2275 31.5271 46.9441 31.7035 47.5885 32.0412C48.2329 32.3788 48.7858 32.8677 49.1999 33.4659L54.2406 40.747L55.0097 36.9019L55.9902 37.0979L54.9902 42.0979C54.9676 42.2112 54.9063 42.3132 54.817 42.3865C54.7276 42.4598 54.6156 42.4998 54.5 42.4999ZM49.1 59.2999L46.1 55.2999C46.0443 55.2256 46.0103 55.1372 46.002 55.0448C45.9937 54.9523 46.0112 54.8593 46.0528 54.7763C46.0943 54.6932 46.1581 54.6233 46.2371 54.5745C46.3161 54.5257 46.4071 54.4999 46.5 54.4999H55.8657C56.5044 54.4999 57.131 54.3251 57.6774 53.9944C58.2239 53.6638 58.6695 53.19 58.9659 52.6242C59.2624 52.0584 59.3983 51.4224 59.3591 50.7849C59.3198 50.1474 59.1069 49.5327 58.7434 49.0076L55.4735 44.2844L56.2956 43.7154L59.5656 48.4384C60.0331 49.1136 60.3068 49.9038 60.3573 50.7235C60.4077 51.5431 60.2329 52.361 59.8518 53.0884C59.4706 53.8158 58.8977 54.425 58.195 54.8501C57.4924 55.2752 56.6868 55.4999 55.8656 55.4999H47.5L49.9 58.6999L49.1 59.2999Z" fill="#2F8474"/>
<path id="Vector_12" d="M44.5 51.4998H37.3685C37.097 51.4998 36.8306 51.4261 36.5977 51.2866C36.3648 51.1471 36.1741 50.947 36.046 50.7076C35.9179 50.4683 35.8571 50.1986 35.8702 49.9274C35.8833 49.6563 35.9698 49.3937 36.1204 49.1678L39.084 44.7224L39.916 45.2772L36.9525 49.7224C36.9023 49.7977 36.8735 49.8853 36.8691 49.9757C36.8647 50.0661 36.8849 50.1559 36.9276 50.2357C36.9703 50.3155 37.0339 50.3822 37.1115 50.4287C37.1892 50.4753 37.278 50.4998 37.3685 50.4998H44.5V51.4998ZM49.7506 43.2772L45.916 37.5252C45.8703 37.4567 45.8085 37.4006 45.7359 37.3617C45.6633 37.3229 45.5823 37.3026 45.5 37.3026C45.4177 37.3026 45.3366 37.3229 45.2641 37.3617C45.1915 37.4006 45.1296 37.4567 45.084 37.5252L41.2494 43.2772L40.4172 42.7224L44.252 36.9706C44.389 36.7651 44.5746 36.5967 44.7923 36.4802C45.01 36.3637 45.2531 36.3027 45.5 36.3027C45.7469 36.3027 45.99 36.3637 46.2077 36.4802C46.4254 36.5967 46.611 36.7651 46.748 36.9706L50.5827 42.7224L49.7506 43.2772ZM53.6315 51.4998H46.5V50.4998H53.6315C53.722 50.4998 53.8108 50.4753 53.8884 50.4287C53.9661 50.3822 54.0296 50.3155 54.0723 50.2357C54.115 50.1559 54.1353 50.0661 54.1309 49.9757C54.1265 49.8853 54.0977 49.7977 54.0475 49.7224L51.084 45.2772L51.916 44.7224L54.8796 49.1678C55.0302 49.3937 55.1167 49.6563 55.1298 49.9274C55.1429 50.1986 55.0821 50.4683 54.954 50.7076C54.8259 50.947 54.6352 51.1471 54.4023 51.2866C54.1694 51.4261 53.903 51.4998 53.6315 51.4998Z" fill="#2F8474"/>
</g>
<path id="Vector_13" d="M18.7235 8.15381L18.8443 16.8367L15.0704 19.8283L10.6417 17.9368L8.47028 9.52893L18.7235 8.15381Z" fill="#54AA9A"/>
<path id="Vector_14" d="M18.758 10.6347L18.7235 8.15381L8.47028 9.52893L9.09065 11.9312L18.758 10.6347Z" fill="#41A08E"/>
<path id="Vector_15" d="M22.912 37.3638L29.9739 45.4184L32.4994 42.8297L25.3685 34.6963L22.912 37.3638ZM19.5906 54.9747L19.9128 40.9709L20.9128 40.9939L20.5906 54.9977L19.5906 54.9747Z" fill="#2F8474"/>
</g>
</svg>
