<svg width="120" height="120" viewBox="0 0 120 120" fill="none" xmlns="http://www.w3.org/2000/svg">
<path d="M8.68133 30.3712L60 0.742308L111.319 30.3712V89.6288L60 119.258L8.68133 89.6288V30.3712Z" stroke="#8BDBAE" stroke-width="1.28571"/>
<g clip-path="url(#clip0_1998_12818)">
<path d="M70.2313 64.2471L60.5 61.4346L50.7687 64.2471C50.6844 64.4158 50.6562 64.5846 50.6562 64.7814V70.5939H70.3438V64.7814C70.3438 64.5846 70.3156 64.4158 70.2313 64.2471Z" fill="#646D73"/>
<path d="M70.3438 70.5939V64.7814C70.3438 64.5846 70.3156 64.4158 70.2313 64.2471L60.5 61.4346V70.5939H70.3438Z" fill="#474F54"/>
<path d="M83.0938 26.8125H75.9083C75.9207 26.3375 75.9688 25.89 75.9688 25.4063C75.9688 24.6187 75.3501 24 74.5625 24H46.4375C45.6499 24 45.0312 24.6187 45.0312 25.4063C45.0312 25.89 45.0793 26.3375 45.0915 26.8125H37.9062C37.129 26.8125 36.5 27.4415 36.5 28.2188V31.7811C36.5 39.633 42.7899 46.0115 50.5412 46.4221C52.1561 48.6455 54.0726 50.2955 56.2531 51.225C55.9156 58.0594 52.0063 62.8125 51.0782 63.797C50.9375 63.9094 50.825 64.0781 50.7687 64.2469H70.2313C70.175 64.0781 70.0626 63.9094 69.9219 63.797C68.9656 62.8125 65.0844 58.0875 64.7469 51.225C66.9279 50.2953 68.8559 48.6449 70.4721 46.4207C78.2168 46.0034 84.5 39.6286 84.5 31.7811V28.2188C84.5 27.4415 83.871 26.8125 83.0938 26.8125ZM39.3125 31.7811V29.625H45.2122C45.5772 34.2729 46.5851 39.1956 48.7034 43.3789C43.3934 42.1831 39.3125 37.4478 39.3125 31.7811ZM81.6875 31.7811C81.6875 37.4449 77.6102 42.1779 72.3042 43.3764C74.4058 39.1932 75.4193 34.3182 75.7878 29.625H81.6875V31.7811Z" fill="#56CA88"/>
<path d="M83.0938 26.8125H75.9083C75.9207 26.3375 75.9688 25.89 75.9688 25.4063C75.9688 24.6187 75.3501 24 74.5625 24H60.5V64.2469H70.2313C70.175 64.0781 70.0626 63.9094 69.9219 63.797C68.9656 62.8125 65.0844 58.0875 64.7469 51.225C66.9279 50.2953 68.8559 48.6449 70.4721 46.4207C78.2168 46.0034 84.5 39.6286 84.5 31.7811V28.2188C84.5 27.4415 83.871 26.8125 83.0938 26.8125ZM81.6875 31.7811C81.6875 37.4449 77.6102 42.1779 72.3042 43.3764C74.4059 39.1932 75.4195 34.3182 75.7878 29.625H81.6875V31.7811Z" fill="#03B04E"/>
<path d="M62.744 41.8871L60.5 40.7212L58.256 41.8871C57.7863 42.1288 57.2122 42.089 56.7811 41.7773C56.5698 41.6239 56.4054 41.4147 56.3064 41.173C56.2074 40.9314 56.1778 40.667 56.2207 40.4095L56.6328 37.9114L54.8338 36.1358C54.4422 35.754 54.3225 35.188 54.4822 34.6993C54.5633 34.451 54.7118 34.2302 54.9111 34.0614C55.1105 33.8926 55.3528 33.7826 55.6111 33.7435L58.1105 33.3672L59.242 31.1054C59.72 30.1524 61.28 30.1524 61.7579 31.1054L62.8895 33.3672L65.3888 33.7435C65.6471 33.7826 65.8894 33.8927 66.0887 34.0614C66.2881 34.2302 66.4366 34.4511 66.5177 34.6993C66.5988 34.9477 66.6089 35.2139 66.5468 35.4677C66.4847 35.7215 66.3528 35.9529 66.1661 36.1358L64.3671 37.9114L64.7792 40.4095C64.8222 40.667 64.7925 40.9314 64.6936 41.1731C64.5946 41.4147 64.4302 41.6239 64.2188 41.7773C63.7905 42.0877 63.2175 42.1335 62.744 41.8871Z" fill="#03B04E"/>
<path d="M62.744 41.8872C63.2176 42.1336 63.7906 42.0877 64.2189 41.7773C64.4302 41.6239 64.5946 41.4147 64.6936 41.1731C64.7925 40.9315 64.8222 40.667 64.7792 40.4095L64.3672 37.9114L66.1662 36.1358C66.3529 35.953 66.4847 35.7216 66.5469 35.4677C66.609 35.2139 66.5989 34.9478 66.5177 34.6994C66.4366 34.4511 66.2882 34.2302 66.0888 34.0614C65.8895 33.8927 65.6471 33.7826 65.3889 33.7436L62.8895 33.3673L61.7579 31.1055C61.519 30.6289 61.0095 30.3906 60.5 30.3906V40.7212L62.744 41.8872Z" fill="#02612B"/>
<path d="M71.75 72H49.25C48.4727 72 47.8438 71.371 47.8438 70.5938C47.8438 69.8165 48.4727 69.1875 49.25 69.1875H71.75C72.5273 69.1875 73.1562 69.8165 73.1562 70.5938C73.1562 71.371 72.5273 72 71.75 72Z" fill="#474F54"/>
<path d="M71.75 69.1875H60.5V72H71.75C72.5273 72 73.1562 71.371 73.1562 70.5938C73.1562 69.8165 72.5273 69.1875 71.75 69.1875Z" fill="#32393F"/>
</g>
<path d="M41.8411 93.1C41.3278 93.1 40.8544 93.0133 40.4211 92.84C39.9944 92.66 39.6211 92.41 39.3011 92.09C38.9878 91.7633 38.7444 91.38 38.5711 90.94C38.4044 90.5 38.3211 90.0167 38.3211 89.49C38.3211 88.9767 38.4111 88.5033 38.5911 88.07C38.7711 87.63 39.0244 87.2467 39.3511 86.92C39.6778 86.5933 40.0578 86.34 40.4911 86.16C40.9311 85.98 41.4078 85.89 41.9211 85.89C42.2544 85.89 42.5811 85.9367 42.9011 86.03C43.2278 86.1167 43.5244 86.25 43.7911 86.43C44.0644 86.6033 44.2978 86.8067 44.4911 87.04L43.5511 88.09C43.3178 87.8367 43.0644 87.6433 42.7911 87.51C42.5178 87.3767 42.2244 87.31 41.9111 87.31C41.6244 87.31 41.3544 87.3633 41.1011 87.47C40.8544 87.57 40.6378 87.7167 40.4511 87.91C40.2644 88.1033 40.1178 88.3333 40.0111 88.6C39.9044 88.8667 39.8511 89.1633 39.8511 89.49C39.8511 89.8233 39.9011 90.1267 40.0011 90.4C40.1078 90.6667 40.2578 90.8967 40.4511 91.09C40.6444 91.2767 40.8744 91.4233 41.1411 91.53C41.4144 91.63 41.7144 91.68 42.0411 91.68C42.2544 91.68 42.4578 91.65 42.6511 91.59C42.8511 91.53 43.0378 91.4467 43.2111 91.34C43.3844 91.2333 43.5378 91.11 43.6711 90.97L44.4011 92.14C44.2478 92.32 44.0344 92.4833 43.7611 92.63C43.4878 92.7767 43.1844 92.8933 42.8511 92.98C42.5178 93.06 42.1811 93.1 41.8411 93.1ZM47.9159 93.1C47.3825 93.1 46.9025 92.9833 46.4759 92.75C46.0559 92.51 45.7225 92.1833 45.4759 91.77C45.2359 91.3567 45.1159 90.8867 45.1159 90.36C45.1159 89.82 45.2359 89.3433 45.4759 88.93C45.7225 88.5167 46.0559 88.1933 46.4759 87.96C46.9025 87.72 47.3825 87.6 47.9159 87.6C48.4559 87.6 48.9359 87.72 49.3559 87.96C49.7759 88.1933 50.1059 88.5167 50.3459 88.93C50.5925 89.3433 50.7159 89.82 50.7159 90.36C50.7159 90.8867 50.5925 91.3567 50.3459 91.77C50.1059 92.1833 49.7759 92.51 49.3559 92.75C48.9359 92.9833 48.4559 93.1 47.9159 93.1ZM47.9159 91.87C48.1825 91.87 48.4159 91.8033 48.6159 91.67C48.8225 91.5367 48.9825 91.3567 49.0959 91.13C49.2159 90.9033 49.2725 90.6467 49.2659 90.36C49.2725 90.06 49.2159 89.7967 49.0959 89.57C48.9825 89.3367 48.8225 89.1567 48.6159 89.03C48.4159 88.8967 48.1825 88.83 47.9159 88.83C47.6559 88.83 47.4225 88.8967 47.2159 89.03C47.0092 89.1633 46.8459 89.3433 46.7259 89.57C46.6059 89.7967 46.5492 90.06 46.5559 90.36C46.5492 90.6467 46.6059 90.9033 46.7259 91.13C46.8459 91.3567 47.0092 91.5367 47.2159 91.67C47.4225 91.8033 47.6559 91.87 47.9159 91.87ZM51.7942 93V85.6H53.2142V93H51.7942ZM54.6555 93V85.6H56.0755V93H54.6555ZM59.9192 93.1C59.3459 93.1 58.8426 92.9833 58.4092 92.75C57.9826 92.5167 57.6492 92.1967 57.4092 91.79C57.1759 91.3833 57.0592 90.92 57.0592 90.4C57.0592 89.9867 57.1259 89.61 57.2592 89.27C57.3926 88.9233 57.5792 88.6267 57.8192 88.38C58.0592 88.1333 58.3426 87.9433 58.6692 87.81C59.0026 87.67 59.3659 87.6 59.7592 87.6C60.1192 87.6 60.4492 87.6667 60.7492 87.8C61.0559 87.9267 61.3192 88.11 61.5392 88.35C61.7659 88.5833 61.9392 88.86 62.0592 89.18C62.1792 89.5 62.2359 89.85 62.2292 90.23L62.2192 90.67H57.9692L57.7392 89.79H61.0492L60.8792 89.97V89.76C60.8659 89.5733 60.8059 89.41 60.6992 89.27C60.5992 89.13 60.4692 89.02 60.3092 88.94C60.1492 88.8533 59.9726 88.81 59.7792 88.81C59.4792 88.81 59.2259 88.87 59.0192 88.99C58.8192 89.1033 58.6659 89.27 58.5592 89.49C58.4592 89.7033 58.4092 89.97 58.4092 90.29C58.4092 90.6033 58.4759 90.88 58.6092 91.12C58.7426 91.3533 58.9326 91.5333 59.1792 91.66C59.4326 91.7867 59.7292 91.85 60.0692 91.85C60.3026 91.85 60.5159 91.8133 60.7092 91.74C60.9026 91.6667 61.1126 91.54 61.3392 91.36L62.0092 92.31C61.8226 92.4767 61.6126 92.62 61.3792 92.74C61.1459 92.86 60.9059 92.95 60.6592 93.01C60.4126 93.07 60.1659 93.1 59.9192 93.1ZM65.5784 93.1C65.0717 93.1 64.6184 92.98 64.2184 92.74C63.8184 92.5 63.5017 92.1733 63.2684 91.76C63.0417 91.34 62.9284 90.8733 62.9284 90.36C62.9284 89.8333 63.0417 89.3633 63.2684 88.95C63.5017 88.53 63.8184 88.2 64.2184 87.96C64.6184 87.72 65.0717 87.6 65.5784 87.6C66.0517 87.6 66.4817 87.69 66.8684 87.87C67.2617 88.0433 67.5684 88.2833 67.7884 88.59L67.0184 89.53C66.925 89.4033 66.8084 89.2867 66.6684 89.18C66.5284 89.0733 66.375 88.99 66.2084 88.93C66.0484 88.87 65.8817 88.84 65.7084 88.84C65.435 88.84 65.1917 88.9067 64.9784 89.04C64.765 89.1667 64.5984 89.3467 64.4784 89.58C64.3584 89.8067 64.2984 90.0633 64.2984 90.35C64.2984 90.63 64.3617 90.8833 64.4884 91.11C64.615 91.3367 64.785 91.5167 64.9984 91.65C65.2117 91.7833 65.4484 91.85 65.7084 91.85C65.8817 91.85 66.045 91.8267 66.1984 91.78C66.3584 91.7267 66.505 91.65 66.6384 91.55C66.7717 91.45 66.8984 91.3333 67.0184 91.2L67.7884 92.14C67.5684 92.4267 67.255 92.66 66.8484 92.84C66.4484 93.0133 66.025 93.1 65.5784 93.1ZM69.2083 93V86.37H70.6283V93H69.2083ZM68.2183 88.98V87.71H71.7183V88.98H68.2183ZM75.095 93.1C74.5217 93.1 74.0183 92.9833 73.585 92.75C73.1583 92.5167 72.825 92.1967 72.585 91.79C72.3517 91.3833 72.235 90.92 72.235 90.4C72.235 89.9867 72.3017 89.61 72.435 89.27C72.5683 88.9233 72.755 88.6267 72.995 88.38C73.235 88.1333 73.5183 87.9433 73.845 87.81C74.1783 87.67 74.5417 87.6 74.935 87.6C75.295 87.6 75.625 87.6667 75.925 87.8C76.2317 87.9267 76.495 88.11 76.715 88.35C76.9417 88.5833 77.115 88.86 77.235 89.18C77.355 89.5 77.4117 89.85 77.405 90.23L77.395 90.67H73.145L72.915 89.79H76.225L76.055 89.97V89.76C76.0417 89.5733 75.9817 89.41 75.875 89.27C75.775 89.13 75.645 89.02 75.485 88.94C75.325 88.8533 75.1483 88.81 74.955 88.81C74.655 88.81 74.4017 88.87 74.195 88.99C73.995 89.1033 73.8417 89.27 73.735 89.49C73.635 89.7033 73.585 89.97 73.585 90.29C73.585 90.6033 73.6517 90.88 73.785 91.12C73.9183 91.3533 74.1083 91.5333 74.355 91.66C74.6083 91.7867 74.905 91.85 75.245 91.85C75.4783 91.85 75.6917 91.8133 75.885 91.74C76.0783 91.6667 76.2883 91.54 76.515 91.36L77.185 92.31C76.9983 92.4767 76.7883 92.62 76.555 92.74C76.3217 92.86 76.0817 92.95 75.835 93.01C75.5883 93.07 75.3417 93.1 75.095 93.1ZM78.4541 93V87.71H79.8241L79.8741 89.41L79.6341 89.05C79.7208 88.7833 79.8508 88.54 80.0241 88.32C80.2041 88.1 80.4141 87.9267 80.6541 87.8C80.9008 87.6667 81.1575 87.6 81.4241 87.6C81.5441 87.6 81.6541 87.61 81.7541 87.63C81.8608 87.6433 81.9508 87.6667 82.0241 87.7L81.6441 89.25C81.5708 89.2167 81.4741 89.1867 81.3541 89.16C81.2408 89.1267 81.1241 89.11 81.0041 89.11C80.8508 89.11 80.7041 89.14 80.5641 89.2C80.4308 89.2533 80.3108 89.3333 80.2041 89.44C80.1041 89.54 80.0241 89.66 79.9641 89.8C79.9108 89.94 79.8841 90.0967 79.8841 90.27V93H78.4541Z" fill="url(#paint0_linear_1998_12818)"/>
<defs>
<linearGradient id="paint0_linear_1998_12818" x1="60.0648" y1="103.464" x2="60.0648" y2="64.4107" gradientUnits="userSpaceOnUse">
<stop stop-color="#03B04E"/>
<stop offset="1" stop-color="#02C320"/>
</linearGradient>
<clipPath id="clip0_1998_12818">
<rect width="48" height="48" fill="white" transform="translate(36.5 24)"/>
</clipPath>
</defs>
</svg>
