<svg width="17" height="16" viewBox="0 0 17 16" fill="none" xmlns="http://www.w3.org/2000/svg">
<g id="Danger_Icon" clip-path="url(#clip0_1980_28786)">
<path id="Vector" d="M7.58335 8.6665V4.6665C7.58335 4.29984 7.88335 3.99984 8.25002 3.99984C8.61668 3.99984 8.91668 4.29984 8.91668 4.6665V8.6665C8.91668 9.03317 8.61668 9.33317 8.25002 9.33317C7.88335 9.33317 7.58335 9.03317 7.58335 8.6665ZM8.25002 9.99984C7.69668 9.99984 7.25002 10.4465 7.25002 10.9998C7.25002 11.5532 7.69668 11.9998 8.25002 11.9998C8.80335 11.9998 9.25002 11.5532 9.25002 10.9998C9.25002 10.4465 8.80335 9.99984 8.25002 9.99984ZM15.97 13.2532C15.5033 14.1532 14.5233 14.6665 13.2967 14.6665H3.21002C1.97668 14.6665 1.00335 14.1532 0.536684 13.2532C0.0633509 12.3465 0.196684 11.1865 0.870017 10.2132L6.23002 1.73317C6.70335 1.05317 7.45002 0.666504 8.25002 0.666504C9.05002 0.666504 9.79668 1.05317 10.25 1.71317L15.6367 10.2265C16.31 11.1998 16.4367 12.3532 15.9633 13.2532H15.97ZM14.5367 10.9732C14.5367 10.9732 14.5233 10.9598 14.5233 10.9465L9.14335 2.4465C8.95002 2.17317 8.61668 1.99984 8.25002 1.99984C7.88335 1.99984 7.55002 2.17317 7.34335 2.47317L1.97668 10.9465C1.56335 11.5332 1.47002 12.1732 1.71002 12.6332C1.94335 13.0865 2.47668 13.3332 3.20335 13.3332H13.2833C14.01 13.3332 14.5433 13.0865 14.7767 12.6332C15.0167 12.1732 14.9233 11.5332 14.53 10.9732H14.5367Z" fill="#FE0017"/>
</g>
<defs>
<clipPath id="clip0_1980_28786">
<rect width="16" height="16" fill="white" transform="translate(0.25)"/>
</clipPath>
</defs>
</svg>
