<svg width="20" height="20" viewBox="0 0 20 20" fill="none" xmlns="http://www.w3.org/2000/svg">
<g id="Discover_Icon" clip-path="url(#clip0_1515_45769)">
<path id="Vector" d="M11.6558 5.09C11.6233 5.09917 5.6325 7.47667 5.6325 7.47667C5.18707 7.65039 4.80685 7.95861 4.54472 8.35845C4.28259 8.7583 4.15158 9.2299 4.16992 9.70766C4.18825 10.1854 4.35501 10.6456 4.64701 11.0242C4.93901 11.4027 5.34174 11.6809 5.79917 11.82L7.75417 12.3092L8.39834 14.4125C8.56972 14.8329 8.86258 15.1926 9.23948 15.4457C9.61637 15.6988 10.0602 15.8338 10.5142 15.8333H10.5508C11.0117 15.8274 11.46 15.682 11.8366 15.4164C12.2133 15.1507 12.5006 14.7772 12.6608 14.345C12.6608 14.345 14.905 8.37417 14.9108 8.345C15.029 7.89447 15.0271 7.42084 14.9054 6.97126C14.7836 6.52169 14.5462 6.11185 14.2168 5.78254C13.8874 5.45323 13.4775 5.21594 13.0279 5.09429C12.5783 4.97264 12.1047 4.97087 11.6542 5.08917L11.6558 5.09ZM13.3083 7.88917L11.1017 13.7583C11.0592 13.8774 10.981 13.9805 10.8778 14.0536C10.7746 14.1267 10.6514 14.1661 10.525 14.1667C10.4417 14.1567 10.0875 14.145 9.9625 13.8517L9.20584 11.3717C9.16402 11.2341 9.08733 11.1097 8.98322 11.0106C8.8791 10.9114 8.75111 10.8409 8.61167 10.8058L6.26334 10.2225C6.13974 10.1804 6.03211 10.1013 5.95511 9.99588C5.8781 9.89045 5.83547 9.76385 5.83301 9.63331C5.83055 9.50278 5.86838 9.37466 5.94136 9.2664C6.01434 9.15815 6.11891 9.07502 6.24084 9.02833L12.1242 6.695C12.2862 6.6563 12.4555 6.66055 12.6154 6.70732C12.7753 6.75408 12.9202 6.84175 13.0358 6.96167C13.1566 7.08018 13.2451 7.22762 13.2928 7.38996C13.3405 7.55231 13.3458 7.72416 13.3083 7.88917ZM10 0C8.02219 0 6.08879 0.58649 4.4443 1.6853C2.79981 2.78412 1.51809 4.3459 0.761209 6.17317C0.00433286 8.00043 -0.193701 10.0111 0.192152 11.9509C0.578004 13.8907 1.53041 15.6725 2.92894 17.0711C4.32746 18.4696 6.10929 19.422 8.0491 19.8079C9.98891 20.1937 11.9996 19.9957 13.8268 19.2388C15.6541 18.4819 17.2159 17.2002 18.3147 15.5557C19.4135 13.9112 20 11.9778 20 10C19.9971 7.34872 18.9426 4.80684 17.0679 2.9321C15.1932 1.05736 12.6513 0.00286757 10 0ZM10 18.3333C8.35183 18.3333 6.74066 17.8446 5.37025 16.9289C3.99984 16.0132 2.93174 14.7117 2.30101 13.189C1.67028 11.6663 1.50525 9.99076 1.82679 8.37425C2.14834 6.75774 2.94201 5.27288 4.10745 4.10744C5.27289 2.94201 6.75774 2.14833 8.37425 1.82679C9.99076 1.50525 11.6663 1.67027 13.189 2.301C14.7118 2.93173 16.0132 3.99984 16.9289 5.37025C17.8446 6.74066 18.3333 8.35182 18.3333 10C18.3309 12.2094 17.4522 14.3276 15.8899 15.8899C14.3276 17.4522 12.2094 18.3309 10 18.3333Z" fill="#013216"/>
</g>
<defs>
<clipPath id="clip0_1515_45769">
<rect width="20" height="20" fill="white"/>
</clipPath>
</defs>
</svg>
