<svg width="25" height="24" viewBox="0 0 25 24" fill="none" xmlns="http://www.w3.org/2000/svg">
<g id="Donate_Icon">
<path id="Vector" d="M9.86669 24H4.90077C3.83971 24 2.8221 23.5786 2.07182 22.8284C1.32153 22.0783 0.900024 21.0609 0.900024 20V15C0.900024 13.9391 1.32153 12.9217 2.07182 12.1716C2.8221 11.4214 3.83971 11 4.90077 11H13.7594C14.3007 11.0003 14.8328 11.1402 15.3041 11.4063C15.7755 11.6724 16.1701 12.0557 16.4499 12.519L19.6675 8.984C19.9337 8.69139 20.2549 8.45409 20.6128 8.28566C20.9707 8.11723 21.3583 8.02098 21.7535 8.00241C22.1486 7.98383 22.5435 8.0433 22.9157 8.17741C23.2878 8.31152 23.6299 8.51765 23.9223 8.784C24.5058 9.31993 24.8555 10.0635 24.8961 10.8546C24.9366 11.6458 24.6649 12.4212 24.1394 13.014L17.3381 20.651C16.399 21.704 15.248 22.5467 13.9604 23.1239C12.6728 23.701 11.2778 23.9996 9.86669 24ZM4.90077 13C4.37024 13 3.86143 13.2107 3.48629 13.5858C3.11115 13.9609 2.9004 14.4696 2.9004 15V20C2.9004 20.5304 3.11115 21.0391 3.48629 21.4142C3.86143 21.7893 4.37024 22 4.90077 22H9.86669C10.9948 21.9995 12.1101 21.7607 13.1395 21.2992C14.1689 20.8377 15.0891 20.1639 15.8398 19.322L22.6461 11.684C22.8228 11.485 22.9143 11.2246 22.9008 10.9588C22.8873 10.693 22.77 10.4431 22.5741 10.263C22.3748 10.0839 22.1136 9.98958 21.8459 10C21.7132 10.0056 21.583 10.0376 21.4628 10.0941C21.3426 10.1506 21.2348 10.2304 21.1458 10.329L16.719 15.2C16.5246 15.7378 16.1879 16.2127 15.7447 16.5741C15.3015 16.9355 14.7685 17.1698 14.2025 17.252L9.04054 17.99C8.77793 18.0277 8.51111 17.9595 8.29878 17.8004C8.08644 17.6414 7.946 17.4046 7.90833 17.142C7.87066 16.8794 7.93886 16.6127 8.09792 16.4004C8.25698 16.1881 8.49387 16.0477 8.75649 16.01L13.9194 15.273C14.206 15.2329 14.4667 15.0856 14.6489 14.8608C14.831 14.636 14.921 14.3504 14.9007 14.0618C14.8804 13.7732 14.7513 13.5031 14.5394 13.306C14.3276 13.1089 14.0488 12.9995 13.7594 13H4.90077ZM11.9021 9.074C11.4487 9.07522 11.0086 8.92137 10.6548 8.638C8.94252 7.264 6.90114 5.2 6.90114 3.2C6.87658 2.37837 7.17847 1.58044 7.74078 0.980764C8.30309 0.381083 9.08004 0.0284522 9.9017 0C10.6492 0.00291082 11.3663 0.295818 11.9021 0.817C12.4378 0.295818 13.155 0.00291082 13.9024 0C14.7241 0.0284522 15.5011 0.381083 16.0634 0.980764C16.6257 1.58044 16.9276 2.37837 16.903 3.2C16.903 5.2 14.8616 7.264 13.1483 8.639C12.7946 8.92179 12.3549 9.07527 11.9021 9.074ZM9.9017 2C9.611 2.02916 9.34335 2.17122 9.15631 2.39562C8.96927 2.62003 8.87778 2.90886 8.90151 3.2C8.90151 4.1 10.0527 5.59 11.9081 7.079C13.7514 5.59 14.9026 4.1 14.9026 3.2C14.9264 2.90886 14.8349 2.62003 14.6478 2.39562C14.4608 2.17122 14.1931 2.02916 13.9024 2C13.6117 2.02916 13.3441 2.17122 13.1571 2.39562C12.97 2.62003 12.8785 2.90886 12.9023 3.2C12.9023 3.46522 12.7969 3.71957 12.6093 3.90711C12.4217 4.09464 12.1673 4.2 11.9021 4.2C11.6368 4.2 11.3824 4.09464 11.1948 3.90711C11.0073 3.71957 10.9019 3.46522 10.9019 3.2C10.9256 2.90886 10.8341 2.62003 10.6471 2.39562C10.4601 2.17122 10.1924 2.02916 9.9017 2Z" fill="#013216"/>
</g>
</svg>
