<svg width="21" height="20" viewBox="0 0 21 20" fill="none" xmlns="http://www.w3.org/2000/svg">
<g id="Donate_Icon">
<path id="Vector" d="M7.97222 20H3.83395C2.94973 20 2.10173 19.6488 1.47649 19.0237C0.851255 18.3986 0.5 17.5507 0.5 16.6667V12.5C0.5 11.6159 0.851255 10.7681 1.47649 10.143C2.10173 9.51786 2.94973 9.16667 3.83395 9.16667H11.2162C11.6672 9.16688 12.1106 9.28351 12.5034 9.50527C12.8962 9.72703 13.2251 10.0464 13.4582 10.4325L16.1396 7.48667C16.3614 7.24282 16.629 7.04507 16.9273 6.90472C17.2256 6.76436 17.5486 6.68415 17.8779 6.66867C18.2071 6.65319 18.5363 6.70275 18.8464 6.81451C19.1565 6.92627 19.4415 7.09804 19.6852 7.32C20.1715 7.76661 20.4629 8.38624 20.4967 9.04552C20.5305 9.70479 20.3041 10.351 19.8661 10.845L14.1984 17.2092C13.4158 18.0867 12.4566 18.7889 11.3836 19.2699C10.3106 19.7509 9.14811 19.9997 7.97222 20ZM3.83395 10.8333C3.39184 10.8333 2.96784 11.0089 2.65522 11.3215C2.3426 11.634 2.16698 12.058 2.16698 12.5V16.6667C2.16698 17.1087 2.3426 17.5326 2.65522 17.8452C2.96784 18.1577 3.39184 18.3333 3.83395 18.3333H7.97222C8.91233 18.333 9.84175 18.1339 10.6996 17.7494C11.5574 17.3648 12.3242 16.8033 12.9498 16.1017L18.6217 9.73667C18.769 9.57083 18.8452 9.35379 18.834 9.13231C18.8227 8.91083 18.725 8.70261 18.5617 8.5525C18.3957 8.40327 18.178 8.32465 17.9549 8.33333C17.8443 8.33801 17.7358 8.36466 17.6356 8.41174C17.5354 8.45881 17.4456 8.52536 17.3715 8.6075L13.6825 12.6667C13.5205 13.1148 13.2399 13.5106 12.8705 13.8117C12.5012 14.1129 12.057 14.3082 11.5854 14.3767L7.28376 14.9917C7.06492 15.0231 6.84257 14.9662 6.66563 14.8337C6.48868 14.7012 6.37164 14.5038 6.34025 14.285C6.30886 14.0662 6.3657 13.8439 6.49825 13.667C6.6308 13.4901 6.82821 13.3731 7.04705 13.3417L11.3495 12.7275C11.5883 12.6941 11.8056 12.5714 11.9574 12.384C12.1092 12.1966 12.1842 11.9587 12.1672 11.7182C12.1503 11.4777 12.0427 11.2526 11.8662 11.0883C11.6896 10.9241 11.4573 10.8329 11.2162 10.8333H3.83395ZM9.66837 7.56167C9.2906 7.56268 8.92385 7.43447 8.62901 7.19833C7.20208 6.05333 5.50093 4.33333 5.50093 2.66667C5.48047 1.98197 5.73204 1.31704 6.20063 0.817303C6.66922 0.317569 7.31668 0.0237102 8.0014 0C8.6243 0.00242569 9.22193 0.246515 9.66837 0.680833C10.1148 0.246515 10.7124 0.00242569 11.3354 0C12.0201 0.0237102 12.6675 0.317569 13.1361 0.817303C13.6047 1.31704 13.8563 1.98197 13.8358 2.66667C13.8358 4.33333 12.1347 6.05333 10.7069 7.19917C10.4122 7.43483 10.0458 7.56273 9.66837 7.56167ZM8.0014 1.66667C7.75914 1.69097 7.5361 1.80935 7.38024 1.99635C7.22437 2.18336 7.14813 2.42405 7.16791 2.66667C7.16791 3.41667 8.12725 4.65833 9.67337 5.89917C11.2095 4.65833 12.1688 3.41667 12.1688 2.66667C12.1886 2.42405 12.1124 2.18336 11.9565 1.99635C11.8006 1.80935 11.5776 1.69097 11.3354 1.66667C11.0931 1.69097 10.8701 1.80935 10.7142 1.99635C10.5583 2.18336 10.4821 2.42405 10.5019 2.66667C10.5019 2.88768 10.414 3.09964 10.2577 3.25592C10.1014 3.4122 9.88943 3.5 9.66837 3.5C9.44732 3.5 9.23532 3.4122 9.07901 3.25592C8.9227 3.09964 8.83488 2.88768 8.83488 2.66667C8.85466 2.42405 8.77842 2.18336 8.62255 1.99635C8.46669 1.80935 8.24365 1.69097 8.0014 1.66667Z" fill="url(#paint0_linear_2768_14951)"/>
</g>
<defs>
<linearGradient id="paint0_linear_2768_14951" x1="10.5288" y1="26.0714" x2="10.5288" y2="-17.3214" gradientUnits="userSpaceOnUse">
<stop stop-color="#03B04E"/>
<stop offset="1" stop-color="#02C320"/>
</linearGradient>
</defs>
</svg>
