<svg width="20" height="21" viewBox="0 0 20 21" fill="none" xmlns="http://www.w3.org/2000/svg">
<g id="Edit_Profile_Icon" clip-path="url(#clip0_1369_9711)">
<path id="Vector" d="M7.5 10.5C10.2575 10.5 12.5 8.2575 12.5 5.5C12.5 2.7425 10.2575 0.5 7.5 0.5C4.7425 0.5 2.5 2.7425 2.5 5.5C2.5 8.2575 4.7425 10.5 7.5 10.5ZM7.5 2.16667C9.33833 2.16667 10.8333 3.66167 10.8333 5.5C10.8333 7.33833 9.33833 8.83333 7.5 8.83333C5.66167 8.83333 4.16667 7.33833 4.16667 5.5C4.16667 3.66167 5.66167 2.16667 7.5 2.16667ZM8.95833 14.0167C8.485 13.895 7.99417 13.8333 7.5 13.8333C4.28333 13.8333 1.66667 16.45 1.66667 19.6667C1.66667 20.1267 1.29333 20.5 0.833333 20.5C0.373333 20.5 0 20.1267 0 19.6667C0 15.5317 3.365 12.1667 7.5 12.1667C8.135 12.1667 8.76583 12.2458 9.375 12.4033C9.82083 12.5183 10.0883 12.9725 9.97417 13.4183C9.86 13.8642 9.4075 14.1317 8.95917 14.0175L8.95833 14.0167ZM19.2675 10.3992C18.3225 9.45417 16.6758 9.45417 15.7317 10.3992L10.1425 15.9883C9.51333 16.6175 9.16583 17.455 9.16583 18.3458V19.6675C9.16583 20.1275 9.53917 20.5008 9.99917 20.5008H11.3208C12.2117 20.5008 13.0483 20.1533 13.6775 19.5242L19.2667 13.935C19.7392 13.4625 19.9992 12.835 19.9992 12.1667C19.9992 11.4983 19.7392 10.8708 19.2675 10.3992ZM18.0883 12.7558L12.4983 18.345C12.1842 18.66 11.7658 18.8333 11.32 18.8333H10.8317V18.345C10.8317 17.9 11.005 17.4817 11.32 17.1667L16.91 11.5775C17.2242 11.2625 17.7733 11.2625 18.0883 11.5775C18.2458 11.7342 18.3325 11.9433 18.3325 12.1667C18.3325 12.39 18.2458 12.5983 18.0883 12.7558Z" fill="black"/>
</g>
<defs>
<clipPath id="clip0_1369_9711">
<rect width="20" height="20" fill="white" transform="translate(0 0.5)"/>
</clipPath>
</defs>
</svg>
