<svg width="32" height="33" viewBox="0 0 32 33" fill="none" xmlns="http://www.w3.org/2000/svg">
<g id="Emergency_Icon" clip-path="url(#clip0_2246_7705)">
<path id="Vector" d="M27.9999 24.6678V17.8331C27.9999 11.2158 22.6172 5.8331 15.9999 5.8331C9.38254 5.8331 3.99987 11.2158 3.99987 17.8331V24.6678C1.7012 25.2611 -0.000131925 27.3518 -0.000131925 29.8331C-0.000131925 31.3038 1.19587 32.4998 2.66654 32.4998H29.3332C30.8039 32.4998 31.9999 31.3038 31.9999 29.8331C31.9999 27.3518 30.2985 25.2611 27.9999 24.6678ZM15.9999 8.49976C21.1452 8.49976 25.3332 12.6878 25.3332 17.8331V24.4998H6.66654V17.8331C6.66654 12.6878 10.8545 8.49976 15.9999 8.49976ZM2.66654 29.8331C2.66654 28.3624 3.86254 27.1664 5.3332 27.1664H26.6665C28.1372 27.1664 29.3332 28.3624 29.3332 29.8331H2.66654ZM27.7292 8.7811C27.2052 8.26243 27.2012 7.41976 27.7185 6.89576L29.7185 4.8731C30.2359 4.3491 31.0799 4.3451 31.6039 4.86243C32.1279 5.3811 32.1319 6.22376 31.6145 6.74776L29.6145 8.77043C29.3545 9.03443 29.0105 9.16643 28.6665 9.16643C28.3279 9.16643 27.9892 9.0371 27.7292 8.7811ZM22.1492 3.21976L23.1852 1.21976C23.5239 0.563762 24.3305 0.310429 24.9825 0.649096C25.6359 0.987762 25.8919 1.79176 25.5532 2.44643L24.5172 4.44643C24.2799 4.9051 23.8145 5.16643 23.3319 5.16643C23.1252 5.16643 22.9159 5.11843 22.7199 5.0171C22.0665 4.67843 21.8105 3.87443 22.1492 3.21976ZM0.385201 6.7491C-0.133465 6.2251 -0.128132 5.38243 0.395868 4.86376C0.918535 4.3451 1.7652 4.35043 2.2812 4.87443L4.2812 6.8971C4.79987 7.4211 4.79454 8.26376 4.27054 8.78243C4.01187 9.03843 3.67187 9.16776 3.3332 9.16776C2.9892 9.16776 2.6452 9.03576 2.3852 8.77176L0.385201 6.7491ZM6.44654 2.44643C6.10787 1.7931 6.36387 0.987762 7.0172 0.649096C7.66654 0.310429 8.47454 0.563762 8.81454 1.21976L9.85054 3.21976C10.1892 3.8731 9.9332 4.67843 9.27987 5.0171C9.0852 5.11843 8.87454 5.16643 8.66787 5.16643C8.18654 5.16643 7.71987 4.9051 7.48254 4.44643L6.44654 2.44643ZM10.6665 17.8331C10.6665 14.8918 13.0585 12.4998 15.9999 12.4998C16.7372 12.4998 17.3332 13.0958 17.3332 13.8331C17.3332 14.5704 16.7372 15.1664 15.9999 15.1664C14.5292 15.1664 13.3332 16.3624 13.3332 17.8331C13.3332 18.5704 12.7372 19.1664 11.9999 19.1664C11.2625 19.1664 10.6665 18.5704 10.6665 17.8331Z" fill="#F54333"/>
</g>
<defs>
<clipPath id="clip0_2246_7705">
<rect width="32" height="32" fill="white" transform="translate(0 0.5)"/>
</clipPath>
</defs>
</svg>
