<svg width="32" height="33" viewBox="0 0 32 33" fill="none" xmlns="http://www.w3.org/2000/svg">
<g id="envelope_Icon" clip-path="url(#clip0_2246_5685)">
<path id="Vector" d="M32 13.8333V25.8333C32 29.5133 29.0133 32.5 25.3333 32.5H6.66667C2.98667 32.5 0 29.5133 0 25.8333V11.1667C0 7.48667 2.98667 4.5 6.66667 4.5H17.3333C18.0667 4.5 18.6667 5.1 18.6667 5.83333C18.6667 6.56667 18.0667 7.16667 17.3333 7.16667H6.66667C5.13333 7.16667 3.81333 8.03333 3.13333 9.28667L13.1733 19.3267C14.7333 20.8867 17.2667 20.8867 18.8267 19.3267L23.92 14.2333C24.44 13.7133 25.28 13.7133 25.8 14.2333C26.32 14.7533 26.32 15.5933 25.8 16.1133L20.7067 21.2067C19.4133 22.5 17.6933 23.1533 15.9867 23.1533C14.28 23.1533 12.5733 22.5 11.2667 21.2067L2.66667 12.5933V25.8333C2.66667 28.0333 4.46667 29.8333 6.66667 29.8333H25.3333C27.5333 29.8333 29.3333 28.0333 29.3333 25.8333V13.8333C29.3333 13.1 29.9333 12.5 30.6667 12.5C31.4 12.5 32 13.1 32 13.8333ZM21.3333 5.83333C21.3333 2.88667 23.72 0.5 26.6667 0.5C29.6133 0.5 32 2.88667 32 5.83333C32 8.78 29.6133 11.1667 26.6667 11.1667C23.72 11.1667 21.3333 8.78 21.3333 5.83333ZM24 5.83333C24 7.3 25.2 8.5 26.6667 8.5C28.1333 8.5 29.3333 7.3 29.3333 5.83333C29.3333 4.36667 28.1333 3.16667 26.6667 3.16667C25.2 3.16667 24 4.36667 24 5.83333Z" fill="url(#paint0_linear_2246_5685)"/>
</g>
<defs>
<linearGradient id="paint0_linear_2246_5685" x1="16.0461" y1="42.2143" x2="16.0461" y2="-27.2143" gradientUnits="userSpaceOnUse">
<stop stop-color="#03B04E"/>
<stop offset="1" stop-color="#02C320"/>
</linearGradient>
<clipPath id="clip0_2246_5685">
<rect width="32" height="32" fill="white" transform="translate(0 0.5)"/>
</clipPath>
</defs>
</svg>
