<svg width="16" height="16" viewBox="0 0 16 16" fill="none" xmlns="http://www.w3.org/2000/svg">
<path id="Vector (Stroke)" d="M2.73995 0.760051C2.19322 0.213316 1.30678 0.213316 0.760051 0.760051C0.213316 1.30678 0.213316 2.19322 0.760051 2.73995L6.0201 8L0.760051 13.2601C0.213316 13.8068 0.213316 14.6932 0.76005 15.2399C1.30678 15.7867 2.19322 15.7867 2.73995 15.2399L8 9.9799L13.2601 15.2399C13.8068 15.7867 14.6932 15.7867 15.2399 15.2399C15.7867 14.6932 15.7867 13.8068 15.2399 13.2601L9.9799 8L15.2399 2.73995C15.7867 2.19322 15.7867 1.30678 15.2399 0.760051C14.6932 0.213316 13.8068 0.213316 13.2601 0.760051L8 6.0201L2.73995 0.760051Z" fill="#F54333" stroke="#F54333" stroke-width="0.3" stroke-linecap="round" stroke-linejoin="round"/>
</svg>
