<svg width="300" height="192" viewBox="0 0 300 192" fill="none" xmlns="http://www.w3.org/2000/svg">
<g clip-path="url(#clip0_1876_26536)">
<path d="M300 -2H0V192H300V-2Z" fill="url(#paint0_linear_1876_26536)"/>
<path d="M300 18.9952V33.0667L268.191 33.8599C276.38 26.0396 291.669 18.3615 300 18.9952Z" fill="#526C2A"/>
<path d="M300 29.7085V36.9296L246.898 36.7917C246.898 36.796 277.688 30.5017 300 29.7085Z" fill="#D8C574"/>
<path d="M300 23.1514V31.2433L282.242 31.765C286.977 27.5703 290.318 27.9884 291.009 28.4109C293.478 24.5137 297.729 23.2074 300 23.1514Z" fill="#8C7F40"/>
<path d="M253.524 37.3561C256.588 32.0448 260.763 33.5796 261.738 35.3989C263.827 33.7219 266.193 37.6364 266.193 37.6364L253.524 37.3561Z" fill="#A1A882"/>
<path d="M277.869 20.8233C280.636 23.2893 280.74 30.0491 280.895 32.2003C281.314 32.4633 281.521 32.0969 281.521 32.0969C281.521 32.0969 282.095 23.2375 278.128 20.6164C278.184 20.3491 277.191 20.0344 277.869 20.8233Z" fill="#8C7F40"/>
<path d="M277.243 20.142C274.424 20.612 275.102 25.1214 275.102 25.1214C275.102 25.1214 276.302 21.8191 277.61 21.1896C276.829 22.8149 278.236 24.3885 278.236 24.3885C278.236 24.3885 277.817 21.4526 278.288 21.0862C280.273 20.668 281.732 21.4009 281.732 21.4009C281.732 21.4009 280.377 19.5644 278.443 19.6721C278.495 18.465 279.281 17.314 280.062 17.1027C277.973 16.7363 277.662 18.728 277.554 19.4092C274.994 18.3098 273.639 19.6204 273.483 20.0903C275.309 19.4048 277.14 19.8791 277.243 20.142Z" fill="#526C2A"/>
<path d="M300 18.9952V33.0667L268.191 33.8599C276.38 26.0396 291.669 18.3615 300 18.9952Z" fill="#526C2A"/>
<path d="M300 29.7085V36.9296L246.898 36.7917C246.898 36.796 277.688 30.5017 300 29.7085Z" fill="#D8C574"/>
<path d="M300 23.1514V31.2433L282.242 31.765C286.977 27.5703 290.318 27.9884 291.009 28.4109C293.478 24.5137 297.729 23.2074 300 23.1514Z" fill="#8C7F40"/>
<path d="M253.524 37.3561C256.588 32.0448 260.763 33.5796 261.738 35.3989C263.827 33.7219 266.193 37.6364 266.193 37.6364L253.524 37.3561Z" fill="#A1A882"/>
<path d="M277.869 20.8233C280.636 23.2893 280.74 30.0491 280.895 32.2003C281.314 32.4633 281.521 32.0969 281.521 32.0969C281.521 32.0969 282.095 23.2375 278.128 20.6164C278.184 20.3491 277.191 20.0344 277.869 20.8233Z" fill="#8C7F40"/>
<path d="M277.243 20.142C274.424 20.612 275.102 25.1214 275.102 25.1214C275.102 25.1214 276.302 21.8191 277.61 21.1896C276.829 22.8149 278.236 24.3885 278.236 24.3885C278.236 24.3885 277.817 21.4526 278.288 21.0862C280.273 20.668 281.732 21.4009 281.732 21.4009C281.732 21.4009 280.377 19.5644 278.443 19.6721C278.495 18.465 279.281 17.314 280.062 17.1027C277.973 16.7363 277.662 18.728 277.554 19.4092C274.994 18.3098 273.639 19.6204 273.483 20.0903C275.309 19.4048 277.14 19.8791 277.243 20.142Z" fill="#526C2A"/>
<path opacity="0.4" d="M280.735 24.9532C280.304 23.4142 279.622 21.97 278.555 21.0215C280.351 20.7542 281.637 21.4009 281.637 21.4009C281.637 21.4009 280.282 19.5644 278.348 19.6721C278.4 18.465 279.181 17.314 279.967 17.1027C277.878 16.7363 277.567 18.728 277.463 19.4092C274.908 18.3098 273.548 19.6204 273.393 20.0903C275.219 19.4092 277.045 19.8791 277.153 20.142C274.334 20.612 275.012 25.1214 275.012 25.1214C275.012 25.1214 276.212 21.8191 277.515 21.1896C276.734 22.8149 278.141 24.3885 278.141 24.3885C278.141 24.3885 277.77 21.7803 278.124 21.1724C279.043 22.1941 279.63 23.7289 280.014 25.3542C276.026 27.5916 272.245 30.2214 269.232 32.9029C266.141 33.3685 263.214 33.8384 260.564 34.2868C259.226 33.4548 257.055 33.278 255.035 35.2525C250.04 36.1492 246.906 36.7916 246.906 36.7916L253.778 36.8088C253.666 36.9812 253.554 37.1623 253.446 37.352L266.111 37.6322C266.111 37.6322 265.899 37.283 265.55 36.839L300 36.9338V33.0668V31.2432V29.7127V23.1512V18.9953C295.053 18.6159 287.646 21.1767 280.735 24.9532Z" fill="black"/>
<path d="M27.5525 32.8079L28.7223 37.2829L0 37.0803V21.1636L2.8446 21.6422L2.91799 28.915L4.89496 29.2082L5.03741 25.755L7.3036 25.8283L7.16115 29.6479L10.5928 30.0144V30.674L12.5655 30.7472V28.1045L14.905 27.5915L14.3957 30.6007L15.7813 30.8248L15.7122 29.9411L17.6849 30.3808L17.5338 31.4844H18.9281V20.6118H20.823L20.6806 31.7L23.6072 31.7733L30.7683 23.6253L31.5712 23.9917L24.777 32.7002L27.5525 32.8079Z" fill="#B6D2CE"/>
<path d="M29.7195 34.4546C29.8921 34.3167 35.3267 34.0796 41.1497 33.8683L41.7799 30.898H43.0619L43.4634 33.7864C44.9655 33.7347 46.4504 33.6829 47.836 33.6355L47.4346 28.3242L50.5252 28.1733L50.1065 33.5622C53.2231 33.4631 55.4245 33.3941 55.4245 33.3941L54.3713 37.3301L30.777 37.5586C30.777 37.5586 29.3439 34.7564 29.7195 34.4546Z" fill="#B6D2CE"/>
<path d="M300 36.5933H0V192H300V36.5933Z" fill="url(#paint1_linear_1876_26536)"/>
<path opacity="0.2" d="M300 120.13V192H0V104.183C0.915108 103.666 2.00719 103.454 3.29353 103.342C4.76978 103.213 6.32374 103.338 7.77842 103.48C12.6043 103.954 17.5165 104.032 22.2173 105.368C25.4806 106.291 29.1151 106.709 32.2144 108.046C33.8547 108.753 36.3194 109.878 36.7165 111.723C37.0403 113.206 36.7036 115.409 35.8273 116.668C34.7353 118.233 32.6504 118.297 31.3899 119.651C28.7266 122.496 31.4547 124.544 34.036 125.726C42.9194 129.787 49.9597 139.224 59.0892 142.716C67.6576 145.996 77.1022 146.285 85.9295 148.104C91.8432 149.325 98.4561 148.393 104.56 148.699C114.82 149.212 125.081 149.187 135.246 147.923C144.147 146.815 153.108 145.194 159.617 138.551C161.659 136.469 165.954 132.041 166.761 129.235C167.858 125.428 164.672 123.29 162.626 120.535C164.206 118.673 163.217 116.478 161.84 114.732C166.515 112.102 170.698 129.571 170.866 132.688C171.237 133.223 171.786 133.848 172.209 134.499C176.603 135.236 180.043 130.373 184.753 131.852C187.597 130.662 193.878 130.813 197.288 130.416C198.777 126.239 205.351 123.527 209.301 122.565C215.085 121.164 221.02 126.101 226.64 127.299C232.977 128.648 239.184 128.804 245.685 129.123C256.619 129.662 265.528 127.321 276.168 124.829C283.86 123.022 292.256 121.927 300 120.13Z" fill="#6F989F"/>
<path opacity="0.3" d="M300 144.246V188.607C297.945 188.008 295.571 186.835 293.978 186.607C289.075 185.904 284.137 186.365 279.255 185.3C272.611 183.848 266.132 181.386 259.511 179.799C250.381 177.614 241.109 177.778 231.768 178.053C192.6 179.2 153.224 177.527 114.069 177.109C108.643 177.049 103.144 177.049 97.7568 177.562C94.1655 177.903 90.764 179.657 87.1597 179.166C83.8619 178.713 80.5036 176.342 77.128 176.092C75.1511 175.945 68.5165 178.407 68.918 175.299C79.2345 175.355 88.9295 169.617 97.5842 164.659C102.294 161.96 107.655 160.184 113.076 159.912C119.741 159.576 123.475 158.804 129.755 156.192C133.075 154.812 139.8 150.467 143.288 150.937C145.459 151.234 146.624 153.864 149.564 153.506C153.211 153.062 153.954 151.152 158.115 151.976C161.439 152.635 165.721 154.398 169.213 154.006C173.318 153.549 174.527 151.036 178.597 152.894C181.683 154.308 183.673 158.033 187.468 158.123C191.87 158.227 193.45 154.11 196.399 151.325C199.783 148.134 204.414 145.854 209.18 146.875C214.174 147.949 216.704 152.471 221.935 151.174L219.056 149.199V149.195L212.698 144.841C212.227 145.095 211.856 145.155 211.623 144.996L211.096 144.634C210.16 143.991 211.735 140.029 214.614 135.783C217.498 131.541 220.597 128.627 221.534 129.269L222.06 129.627C222.294 129.791 222.371 130.161 222.306 130.696L228.665 135.05V135.054L237.043 140.797C237.337 140.801 237.6 140.87 237.824 141.017C238.986 141.814 238.606 144.496 237.073 147.561C240.937 147.651 246.216 147.47 247.791 149.04C251.055 148.509 253.554 144.763 257.029 144.043C259.968 143.435 264.76 145.009 267.842 145.418C269.46 145.634 272.883 147.143 274.377 146.794C276.371 146.332 276.604 143.478 278.883 143.133C281.534 142.733 282.41 145.526 284.75 146.212C287.331 146.962 287.586 145.819 289.904 145.367C292.753 144.815 296.784 143.836 300 144.246Z" fill="#6F989F"/>
<path opacity="0.2" d="M75.7813 179.472C61.6144 181.356 47.1108 180.977 33.2763 185.348C23.7712 188.349 14.1151 193 4.21727 189.784C2.99568 189.388 1.51942 189.034 0 188.616V158.986C2.35252 157.546 4.70504 158.279 8.64173 160.361C12.764 162.534 17.5856 162.486 22.1439 161.745C26.8791 160.964 30.9971 160.102 36.095 160.361C38.2619 160.469 40.4719 161.124 42.5957 161.167C45.0086 161.206 47.7842 159.46 50.0504 159.9C55.3036 160.913 58.2604 165.871 64.4504 166.246C69.5525 166.552 74.4043 166.345 79.2906 167.582C81.954 168.255 91.6705 168.975 92.3655 171.216C94.3597 177.661 78.7511 179.075 75.7813 179.472Z" fill="#6F989F"/>
<path d="M300 174.35V192H0V180.683C4.41583 179.282 9.02158 177.998 13.7914 176.834C23.0374 174.566 32.8878 172.725 43.0964 171.246C97.9381 163.305 163.036 165.931 199.623 170.32C220.64 172.842 239.43 173.204 255.777 173.221C271.744 173.234 285.38 172.923 296.491 173.967C297.691 174.074 298.86 174.208 300 174.35Z" fill="#5B613E"/>
<path opacity="0.3" d="M67.0964 177.519C67.0964 177.519 59.9611 179.498 51.2633 179.17C42.5654 178.842 35.5985 176.329 35.5985 176.329C35.5985 176.329 42.7338 174.35 51.4316 174.678C60.1338 175.005 67.0964 177.519 67.0964 177.519Z" fill="#5F624F"/>
<path opacity="0.2" d="M288.095 176.174C288.095 176.174 277.606 178.424 264.66 178.424C251.715 178.424 241.226 176.174 241.226 176.174C241.226 176.174 251.715 173.923 264.66 173.923C277.606 173.923 288.095 176.174 288.095 176.174Z" fill="#5F624F"/>
<path opacity="0.3" d="M252.315 174.411C236.482 178.614 86.3353 179.244 39.4878 172.436C94.3684 164.495 159.509 167.121 196.122 171.509C217.157 174.031 235.96 174.394 252.315 174.411Z" fill="#5F624F"/>
<path opacity="0.2" d="M198.324 139.228C198.324 139.228 197.137 135.421 195.453 132.998C193.77 130.575 194.452 125.88 192.289 125.583C190.127 125.29 201.738 121.535 195.989 118.207C190.239 114.879 186.535 123.932 186.535 123.932C186.535 123.932 173.534 126.441 172.619 128.851C171.635 131.455 174.099 133.839 175.761 137.193C177.423 140.543 176.232 144.194 176.892 146.203C177.553 148.212 187.576 144.108 193.636 141.914C199.696 139.723 207.704 145.418 210.501 142.871C213.302 140.327 198.324 139.228 198.324 139.228ZM187.226 123.902C189.755 118.129 193.93 117.194 195.876 118.991C197.823 120.798 191.245 125.294 191.245 125.294L187.226 123.902Z" fill="white"/>
<path d="M266.266 160.021L267.501 167.246L268.981 167.164L268.571 162.318L266.266 160.021Z" fill="#B89861"/>
<path d="M292.916 151.226L288.065 163.469L268.981 167.168L268.571 162.318L266.266 160.02L273.755 157.8L273.669 156.571L274.739 156.731L274.325 155.83L275.236 156.158L277.373 146.298L281.728 145.479L292.916 151.226Z" fill="#A68958"/>
<path d="M277.701 156.731L277.04 156.977L277.209 157.964L276.384 157.718L276.716 158.705L268.571 162.318L266.266 160.02L273.755 157.8L273.669 156.571L274.739 156.731L274.325 155.83L275.236 156.158L277.373 146.298L281.728 145.479L277.701 156.731Z" fill="#D3AF70"/>
<path opacity="0.6" d="M273.755 157.8L276.717 158.705L279.837 160.184L276.384 157.718L273.755 157.8Z" fill="#A68958"/>
<path opacity="0.6" d="M274.74 156.731L277.04 156.977L279.591 158.292L277.701 156.731H274.74Z" fill="#A68958"/>
<path d="M30.6346 176.808C27.9022 175.781 21.9195 175.842 20.3526 172.652C19.1698 170.246 23.0461 171.897 22.8303 170.168C22.6835 168.987 18.7425 168.543 17.8706 167.758C15.954 166.03 19.6706 166.038 18.8849 163.866C18.3281 162.339 14.6806 161.253 17.1885 159.757C17.9655 159.291 18.9108 159.761 18.9152 158.477C18.9195 157.58 17.5511 156.636 17.1065 155.868C15.4749 153.036 18.2547 153.933 18.9195 151.919C19.5238 150.092 16.4029 147.203 18.0432 146.026C19.2562 145.16 20.2403 146.462 20.0375 144.159C19.9382 143.004 19.036 141.206 20.5554 140.642C21.9972 140.107 23.059 141.581 22.813 138.809C22.6921 137.477 21.8288 135.003 23.1842 134.093C24.8331 132.985 25.5842 135.274 25.5152 136.602C25.4159 138.521 24.2029 139.249 25.5152 140.788C26.0677 141.435 27.0044 141.577 26.8706 142.638C26.6806 144.121 24.095 144.155 23.7152 145.733C23.3267 147.345 23.9353 147.479 24.3324 148.656C24.8461 150.173 23.931 150.436 22.6619 151.165C18.2979 153.657 24.4231 153.967 23.2706 156.511C22.6835 157.804 20.4864 157.356 21.1598 159.046C21.6173 160.197 24.1684 160.507 23.5511 162.094C23.1238 163.193 21.1252 162.809 21.3108 164.443C21.4835 165.991 24.2331 165.491 24.8504 166.853C25.472 168.233 22.8907 168.72 24.0734 170.043C25.2173 171.324 29.2662 169.539 29.1281 172.095C29.0763 173.022 27.5828 173.548 29.1195 174.286C29.8792 174.652 32.2965 174.428 32.7022 175.156C33.2763 176.165 31.2519 177.04 30.6346 176.808Z" fill="#285D45"/>
<path d="M34.8432 175.07C35.8533 172.186 31.1267 171.673 29.7756 170.285C28.118 168.582 30.2504 169.328 30.8418 168.151C31.9123 166.012 27.3454 166.241 27.026 165.107C26.849 164.469 27.6864 163.797 27.7814 163.227C28.1224 161.244 26.6677 161.033 26.0806 159.563C25.3684 157.765 27.5094 157.847 28.1698 156.907C28.9857 155.752 27.5957 153.7 28.1008 152.381C28.5583 151.182 29.0332 151.609 30.0001 151.238C31.2346 150.768 31.2562 150.497 31.6878 149.122C32.0806 147.863 32.3137 146.406 33.777 146.104C35.1886 145.815 35.9828 147.358 37.3252 146.927C38.9655 146.401 38.3526 144.72 38.2921 143.496C38.2101 141.918 38.3914 141.935 39.4878 141.086C41.8058 139.288 39.6778 138.43 38.4475 136.412C38.0547 135.77 37.4461 134.382 38.236 133.817C39.3195 133.041 39.9627 134.813 40.4332 135.542C41.1152 136.598 43.5799 139.314 43.4116 140.508C43.2432 141.715 42.0475 141.331 41.7497 142.323C41.4303 143.388 43.0101 144.517 42.6432 145.724C42.2806 146.914 40.7828 147.268 39.7986 147.608C38.8619 147.932 38.8317 147.539 38.4432 148.44C38.1583 149.096 38.7756 150.208 38.4389 150.842C37.3684 152.868 35.1152 150.898 33.7123 151.708C31.2821 153.109 34.826 154.062 34.9641 154.73C35.2404 156.067 33.8763 157.541 32.7713 158.058C31.6274 158.593 30.3497 158.856 31.99 160.171C33.1857 161.128 34.1051 160.524 33.3368 162.395C32.7497 163.827 31.3166 165.797 33.2979 166.81C34.5756 167.465 34.7224 166.034 35.7411 165.857C38.2274 165.426 38.0893 171.768 37.8044 173.083C37.6447 173.816 37.4634 174.505 36.8634 175.01C36.6648 175.174 35.0332 175.906 34.895 175.682C34.7785 175.497 34.7137 175.294 34.8432 175.07Z" fill="#285D45"/>
<g opacity="0.3">
<path d="M76.0403 107.791C72.9626 104.153 65.4432 104.515 62.905 107.882C59.7367 104.424 58.8302 105.791 59.0115 106.972C59.1928 108.153 61.459 108.334 61.459 108.334C61.459 108.334 59.4648 109.516 60.0086 111.244C60.5525 112.973 63.0863 109.063 63.0863 109.063C63.0863 109.063 71.4173 115.249 76.0403 107.791Z" fill="#6F989F"/>
<path d="M57.6431 97.6382C55.3726 94.9567 49.8302 95.224 47.9568 97.7072C45.6172 95.1593 44.9525 96.1638 45.0863 97.0347C45.2201 97.9055 46.8906 98.0391 46.8906 98.0391C46.8906 98.0391 45.423 98.91 45.8201 100.186C46.2215 101.462 48.0906 98.578 48.0906 98.578C48.0906 98.578 54.2374 103.139 57.6431 97.6382Z" fill="#6F989F"/>
<path d="M53.0676 110.973C51.3583 108.951 47.1842 109.153 45.777 111.024C44.0158 109.106 43.5151 109.865 43.6144 110.52C43.7137 111.175 44.9741 111.279 44.9741 111.279C44.9741 111.279 43.8691 111.934 44.1712 112.895C44.4734 113.857 45.8806 111.684 45.8806 111.684C45.8806 111.684 50.5036 115.111 53.0676 110.973Z" fill="#6F989F"/>
</g>
<path d="M66.7036 166.487C65.7496 168.698 60.3107 168.466 54.5568 165.97C48.8028 163.469 44.9093 159.649 45.8633 157.438C46.8172 155.226 52.2561 155.459 58.01 157.955C63.764 160.451 67.6575 164.271 66.7036 166.487Z" fill="#61AC9B"/>
<path d="M64.366 161.282C65.0416 159.735 62.6505 157.2 59.0253 155.622C55.4002 154.043 51.9137 154.017 51.2381 155.565C50.5626 157.112 52.9537 159.646 56.5788 161.225C60.204 162.804 63.6904 162.829 64.366 161.282Z" fill="#89D1C3"/>
<path d="M66.7079 166.483L62.0072 177.398C61.3467 177.472 60.6475 177.528 59.9223 177.575C53.9309 177.924 46.0705 177.29 41.9309 176.881C41.5597 176.846 41.223 176.812 40.9165 176.782C39.4619 175.299 38.7928 173.859 39.2547 172.79L45.4921 158.296C45.5007 158.287 45.5007 158.287 45.5007 158.278L45.8719 157.429L66.7079 166.483Z" fill="#61AC9B"/>
<path opacity="0.4" d="M66.7079 166.483L62.0072 177.398C61.3467 177.472 60.6475 177.528 59.9223 177.575C53.9309 177.924 46.0705 177.291 41.9309 176.881C41.5597 176.847 41.223 176.812 40.9165 176.782C39.4619 175.299 38.7928 173.859 39.2547 172.79L45.4921 158.296C44.7324 161.081 47.9093 164.073 52.0619 166.086C54.587 167.315 57.4748 168.177 60.0604 168.414C62.1842 168.612 64.105 168.388 65.4604 167.591C65.4647 167.591 65.4734 167.586 65.4777 167.582C65.9655 167.297 66.3842 166.931 66.7079 166.483Z" fill="#3E7053"/>
<path opacity="0.3" d="M59.918 177.579C53.9266 177.928 46.0662 177.295 41.9266 176.885C43.8863 173.725 48.0518 168.513 52.0576 166.09C52.4935 165.827 52.9295 165.599 53.3569 165.405C54.9108 164.711 56.4043 164.534 57.682 165.176C58.6878 165.681 59.3612 166.556 59.8015 167.646C59.8964 167.892 59.9871 168.151 60.0604 168.409C60.8374 171.173 60.4144 174.906 59.918 177.579Z" fill="#3E7053"/>
<path d="M53.141 152.765L52.0274 155.351C51.4792 156.623 53.7151 158.817 57.0216 160.253C60.3281 161.689 63.449 161.822 63.9972 160.551L65.1108 157.964L53.141 152.765Z" fill="#314258"/>
<path d="M65.1108 157.964C64.5626 159.236 61.4374 159.102 58.1353 157.666C54.8288 156.231 52.5928 154.036 53.141 152.765C53.6892 151.493 56.8144 151.626 60.1166 153.062C63.423 154.498 65.659 156.692 65.1108 157.964Z" fill="#516C8C"/>
<path d="M37.5971 70.9698C39.9496 71.7199 45.5093 68.6849 44.9395 65.7016C44.6892 64.8954 42.7683 64.1281 40.1438 65.5249C37.5237 66.926 36.1295 70.0989 37.5971 70.9698Z" fill="#5A6972"/>
<path d="M44.6892 65.9473C44.6892 66.0594 44.6806 66.1758 44.6633 66.2879C44.3655 68.3356 41.3525 69.9954 39.4533 70.5559C38.659 70.7887 38.0633 70.8318 37.9338 70.6248C37.9986 68.5038 41.8317 64.4729 44.6892 65.9473Z" fill="#516067"/>
<path d="M44.9439 65.7019C44.8359 65.5554 44.4 65.2881 43.6964 65.232C42.7813 65.1544 41.4215 65.426 39.7554 66.7711C36.8028 69.1552 37.7136 71.0262 37.5971 70.9701C37.528 70.9399 37.0748 70.7416 36.6906 70.5261C36.6561 70.5088 36.6215 70.4873 36.5913 70.47C36.3626 70.3364 36.1813 70.1984 36.1467 70.095C36.0604 69.8061 35.7669 67.047 35.8834 65.6804C35.4086 65.232 35.6676 64.926 35.6676 64.926C35.6676 64.926 31.351 60.0371 31.3813 59.6362C31.3813 59.6362 31.4503 59.619 31.5798 59.5845C32.7323 59.2784 38.5554 57.7307 40.8474 57.2953C41.4086 57.1875 41.7582 57.1487 41.7712 57.2047C41.8662 57.5324 41.5338 62.0677 41.5338 62.0677C41.5338 62.0677 41.9957 62.2703 42.0431 62.6497C42.0906 63.0291 41.9266 63.3998 41.9266 63.3998C41.9266 63.3998 42.2028 63.5205 42.5007 63.7188C42.7251 63.8697 44.0244 64.4431 44.6244 65.0812C44.8273 65.2838 44.9482 65.4993 44.9439 65.7019Z" fill="#A75367"/>
<path d="M37.9292 61.6318C37.8559 61.6706 37.7826 61.7094 37.7136 61.7482C37.7869 61.7008 37.8602 61.662 37.9292 61.6318Z" fill="#77345A"/>
<path opacity="0.4" d="M38.8273 66.4564L36.6906 70.5261C36.6561 70.5088 36.6215 70.4873 36.5913 70.47C36.3626 70.3364 36.1813 70.1984 36.1467 70.095C36.0604 69.8061 35.7669 67.047 35.8834 65.6804C35.4086 65.232 35.6676 64.9259 35.6676 64.9259C35.6676 64.9259 31.351 60.0371 31.3813 59.6362C31.3813 59.6362 31.4503 59.619 31.5798 59.5845C31.6273 59.6362 31.6662 59.6922 31.7007 59.7698C31.9122 60.2354 35.387 64.0034 35.5295 63.9085C35.6676 63.818 35.8964 62.7876 37.6964 61.7659C36.9539 62.266 36.2072 63.5593 36.1251 64.5121C36.9064 63.3179 38.8446 62.2013 40.0748 62.7618C38.6762 62.904 37.7784 63.3222 37.0575 64.3353C36.3496 65.3441 36.5309 66.8487 38.8273 66.4564Z" fill="#77345A"/>
<path opacity="0.6" d="M44.9439 65.7019C44.836 65.5553 44.4 65.288 43.6964 65.2319L43.3727 64.9345L41.4561 63.7532C41.4561 63.7532 39.0518 63.861 38.7842 63.6972C41.1842 63.7576 41.9007 63.1756 41.6288 62.641C41.3741 62.1409 39.2676 62.1495 38.9914 62.1495C39.2331 62.1409 40.9209 62.0848 41.1453 61.8046C41.3871 61.5028 40.9036 58.1876 40.3381 57.9893C40.0878 57.9031 40.4072 57.6013 40.8475 57.2909C41.4086 57.1831 41.7583 57.1443 41.7712 57.2004C41.8662 57.528 41.5338 62.0633 41.5338 62.0633C41.5338 62.0633 41.9957 62.2659 42.0432 62.6453C42.0907 63.0247 41.9266 63.3954 41.9266 63.3954C41.9266 63.3954 42.2029 63.5161 42.5007 63.7144C42.7252 63.8653 44.0245 64.4387 44.6245 65.0767C44.8273 65.2837 44.9482 65.4992 44.9439 65.7019Z" fill="#A74650"/>
<path d="M44.9439 65.7016C44.6978 65.3653 42.7079 64.391 39.7554 66.7707C36.8029 69.1548 37.7137 71.0258 37.5971 70.9698C37.4806 70.9137 36.2331 70.3791 36.1467 70.0903C35.8878 67.2708 42.0216 63.3262 44.6331 65.0765C44.8273 65.2834 44.9482 65.499 44.9439 65.7016Z" fill="#748791"/>
<path opacity="0.3" d="M44.6892 65.9473C44.6892 66.0594 44.6806 66.1758 44.6633 66.2879C41.7928 65.9904 38.931 69.2712 39.4533 70.5559C38.659 70.7887 38.0633 70.8318 37.9338 70.6248C37.9986 68.5038 41.8317 64.4729 44.6892 65.9473Z" fill="#5A6972"/>
<path d="M41.2575 56.8122C40.8992 56.6139 40.4978 56.4458 40.4978 56.4458L39.3668 56.6958C38.4819 56.7476 37.4158 56.9071 36.2848 57.1701C35.3697 57.3856 34.5237 57.6443 33.7985 57.9159L32.0848 58.291L31.6963 59.0325L31.3812 59.6317C31.5409 60.3215 33.9971 60.3344 36.8676 59.6619C39.7381 58.9894 41.9352 57.8857 41.7712 57.1959C41.7064 57.0882 41.4949 56.9416 41.2575 56.8122Z" fill="#748791"/>
<path d="M40.4158 55.8725C39.6259 55.644 37.9468 55.7518 36.0604 56.1915C34.1741 56.6312 32.6201 57.2865 32.0158 57.8383L31.6489 57.9246L31.7482 58.3557C31.8907 58.9592 34.0489 58.9722 36.5698 58.3815C39.0907 57.7909 41.0201 56.8209 40.882 56.2174L40.7827 55.7862L40.4158 55.8725Z" fill="#667880"/>
<path d="M40.7827 55.7862C40.9251 56.3897 38.9956 57.3597 36.4705 57.9504C33.9496 58.541 31.7913 58.5281 31.6489 57.9245C31.5064 57.3209 33.4359 56.3509 35.9611 55.7603C38.482 55.1697 40.6403 55.1783 40.7827 55.7862Z" fill="#748791"/>
<path d="M40.2776 55.8293C40.2906 55.8896 40.2776 55.9543 40.2431 56.0233C39.9755 56.5277 38.3956 57.2304 36.4143 57.696C34.433 58.1616 32.7064 58.2306 32.2445 57.8986C32.1798 57.8555 32.1409 57.7994 32.128 57.7434C32.0114 57.239 33.7424 56.407 35.9913 55.881C38.2402 55.3507 40.1568 55.3292 40.2776 55.8293Z" fill="#4B585F"/>
<path d="M40.2388 56.0232C39.9712 56.5276 38.3913 57.2303 36.41 57.6959C34.4287 58.1615 32.7021 58.2305 32.2402 57.8985C32.5122 57.3941 34.0877 56.6914 36.069 56.2301C38.0503 55.7645 39.7726 55.6912 40.2388 56.0232Z" fill="#62727C"/>
<path opacity="0.3" d="M37.8301 56.2085C37.1179 56.7646 37.2474 57.088 37.2949 57.2C37.3424 57.3121 39.0215 56.8595 39.2762 56.4456C39.5309 56.036 38.3222 55.8248 37.8301 56.2085Z" fill="#5A6972"/>
<path opacity="0.2" d="M122.663 176.859C122.663 176.859 117.531 179.946 110.987 181.024C104.987 182.011 99.6086 179.519 99.6086 179.519C99.6086 179.519 104.642 176.6 110.655 175.691C116.698 174.781 122.663 176.859 122.663 176.859Z" fill="#5F624F"/>
<path d="M104.724 169.28L108.565 172.195C108.565 172.195 110.232 170.246 111.367 170.444C112.502 170.647 113.607 171.677 113.607 171.677C113.607 171.677 116.672 170.013 117.009 169.354C117.345 168.694 118.658 169.06 118.658 169.06C118.658 169.06 120.186 172.32 120.289 173.147C120.389 173.975 118.921 177.45 118.446 177.894C117.263 177.476 113.106 176.053 113.106 176.053C113.106 176.053 112.468 176.851 111.203 176.868C109.942 176.889 109.45 176.109 109.45 176.109C109.45 176.109 105.915 179.416 105.591 179.795C104.711 179.153 105.829 175.376 105.829 175.376L104.724 169.28Z" fill="#CCBD94"/>
<path d="M110.24 173.565C110.577 172.863 112.567 172.656 112.541 173.531C112.515 174.406 110.24 173.565 110.24 173.565Z" fill="#534D3B"/>
<path d="M118.658 169.061C118.489 169.371 118.191 169.944 118.157 170.384C118.118 170.819 119.042 171.289 119.137 171.768C119.232 172.246 118.809 172.953 118.813 173.346C118.817 173.738 119.391 174.255 119.439 174.514C119.486 174.777 119.327 175.782 118.856 176.139C118.381 176.497 118.213 176.76 118.39 177.019C118.567 177.278 118.446 177.717 118.446 177.894C118.45 178.071 120.695 177.027 120.98 175.799C121.265 174.57 120.82 174.01 120.976 172.738C121.131 171.475 119.892 170 118.658 169.061Z" fill="#6D7E36"/>
<path d="M101.478 172.613C101.642 173.229 102.056 173.436 101.931 173.915C101.806 174.398 100.77 174.764 100.645 175.247C100.519 175.73 101.965 176.32 102.19 176.622C102.41 176.924 102.116 177.411 101.948 177.808C101.78 178.204 102.889 179.498 103.247 180.106C103.606 180.713 105.259 180.597 105.591 179.808C105.928 179.015 105.315 178.937 105.609 178.191C105.902 177.446 107.875 175.708 108.039 174.919C108.203 174.13 107.245 174.32 106.891 173.712C106.532 173.104 106.657 172.798 106.606 172.229C106.554 171.66 105.993 171.889 105.855 171.41C105.716 170.931 105.432 169.362 104.473 169.203C103.515 169.043 102.962 169.884 102.22 169.893C101.482 169.905 102.06 170.725 101.892 171.251C101.728 171.776 101.434 172.436 101.478 172.613Z" fill="#6D7E36"/>
<path d="M104.335 174.272C104.335 174.272 101.374 174.229 100.079 177.575C100.217 178.14 100.873 178.174 100.873 178.174C100.873 178.174 101.434 175.105 104.517 174.665C104.551 174.311 104.335 174.272 104.335 174.272Z" fill="#575032"/>
<path d="M103.256 172.018C103.256 172.018 104.491 173.005 104.771 174.398C105.052 175.79 103.692 177.691 103.692 177.691C103.692 177.691 104.27 175.76 104.21 174.713C104.15 173.665 103.256 172.018 103.256 172.018Z" fill="#576629"/>
<path d="M207 28.484C206.927 28.553 206.862 28.622 206.793 28.6952C206.728 28.7642 206.659 28.8418 206.581 28.9324C205.696 29.9972 204.078 32.558 203.797 33.0107C203.629 33.2866 203.789 33.7694 203.935 34.4247C204.069 35.0196 204.203 35.7482 204.073 36.5975C204.06 36.6794 204.048 36.7613 204.03 36.8432C204.026 36.8605 204.017 36.8864 204.013 36.9165C203.927 37.2399 203.676 37.7658 203.301 38.4427C203.284 38.4728 203.266 38.516 203.245 38.5461C202.023 40.7362 199.606 44.3403 197.486 47.4012C197.132 47.9185 196.774 48.4186 196.446 48.8928C195.108 50.7983 194.098 52.1908 193.964 52.3245C193.817 52.4926 191.862 52.0356 190.256 50.9621C188.612 49.8714 187.364 48.1901 187.455 47.9789C187.455 47.9789 187.455 47.9745 187.459 47.9659C187.485 47.9185 187.545 47.8064 187.64 47.6512C187.973 47.0778 188.724 45.8449 189.669 44.3187L189.682 44.3058C189.803 44.1075 189.928 43.9092 190.053 43.7108C190.653 42.7538 191.301 41.7277 191.961 40.7017C192.876 39.279 193.813 37.8564 194.672 36.6018C195.259 35.7396 195.812 34.9722 196.291 34.3342C196.934 33.4763 197.456 32.8727 197.776 32.6615C198.574 32.1183 199.381 31.9286 200.029 31.8165C200.685 31.7044 201.19 31.6527 201.376 31.394C201.678 30.9543 203.4 28.4711 204.039 27.2338C204.095 27.1303 204.142 27.0355 204.177 26.9493C204.212 26.8587 204.255 26.7682 204.289 26.6733C204.289 26.6733 204.328 26.7035 204.397 26.7466C204.414 26.7337 204.423 26.7337 204.427 26.7337C204.483 26.7725 205.036 27.1519 205.623 27.5485C205.869 27.708 206.111 27.8718 206.318 28.0055C206.637 28.2081 206.866 28.3676 206.909 28.3892C206.914 28.3892 206.909 28.3978 206.905 28.4193C206.953 28.4581 207 28.484 207 28.484Z" fill="#487070"/>
<path opacity="0.3" d="M207 28.4838C206.927 28.5528 206.862 28.6218 206.793 28.6951C206.728 28.764 206.659 28.8416 206.581 28.9322C205.696 29.997 204.078 32.5578 203.797 33.0105C203.629 33.2864 203.789 33.7692 203.935 34.4245C204.069 35.0195 204.203 35.748 204.073 36.5973C204.06 36.6792 204.048 36.7612 204.03 36.8431C204.026 36.8603 204.017 36.8862 204.013 36.9164C203.935 37.1621 203.685 37.6967 203.301 38.4425C203.284 38.4727 203.266 38.5158 203.245 38.546C202.023 40.736 199.606 44.3401 197.486 47.401C197.132 47.9183 196.774 48.4184 196.446 48.8926C195.108 50.7981 194.098 52.1906 193.964 52.3243C193.817 52.4924 191.862 52.0354 190.256 50.962C188.612 49.8712 187.364 48.1899 187.455 47.9787C187.455 47.9787 187.455 47.9744 187.459 47.9657C187.485 47.9183 187.545 47.8062 187.64 47.651C187.973 47.0776 188.724 45.8447 189.669 44.3185L189.682 44.3056C189.803 44.1073 189.928 43.909 190.053 43.7107C190.653 42.7536 191.301 41.7276 191.961 40.7015C192.876 39.2788 193.813 37.8562 194.672 36.6016C195.259 35.7394 195.812 34.972 196.291 34.334C197.223 34.666 198.272 34.8944 199.671 34.985C202.001 35.1359 203.154 32.7691 203.154 32.7691C203.154 32.7691 204.842 30.2729 205.852 28.7209C206.033 28.445 206.189 28.1993 206.318 28.001C206.637 28.2036 206.866 28.3631 206.909 28.3847C206.914 28.3847 206.909 28.3933 206.905 28.4148C206.953 28.458 207 28.4838 207 28.4838Z" fill="#487070"/>
<path d="M204.583 26.0225C204.708 25.8285 204.708 25.4535 204.898 25.2034C205.088 24.9534 208.096 27.3374 208.096 27.3374C207.928 27.7039 207.704 27.7815 207.509 28.0013C207.315 28.2212 207.285 28.6049 207.151 28.7687C206.922 29.1136 206.02 28.9196 205.135 28.329C204.25 27.7384 203.724 26.9796 203.953 26.6347C204.048 26.3459 204.458 26.2165 204.583 26.0225Z" fill="#487070"/>
<path d="M204.902 25.2032C204.673 25.5481 205.204 26.3069 206.085 26.8975C206.97 27.4881 207.868 27.6821 208.101 27.3372C208.33 26.9924 207.799 26.2336 206.918 25.643C206.033 25.0524 205.131 24.8584 204.902 25.2032Z" fill="#6EA8A8"/>
<path d="M205.291 25.4145C205.14 25.6473 205.567 26.2034 206.249 26.6561C206.931 27.1088 207.609 27.2898 207.76 27.0614C207.911 26.8286 207.483 26.2724 206.801 25.8198C206.119 25.3628 205.442 25.1817 205.291 25.4145Z" fill="#2E4B4C"/>
<path d="M153.233 41.5077C152.495 42.0423 151.757 42.4777 151.088 42.7665C149.87 43.3054 148.882 43.4132 148.55 42.9519L143.914 36.593L142.364 34.4676L142.178 34.2133L142.157 34.1831L142.347 34.0409L142.511 33.9245L142.947 33.6011L149.301 28.9667V28.9624L149.65 28.708L151.541 31.299L155.409 36.593L156.052 37.4768C156.561 38.1925 155.301 39.9945 153.233 41.5077Z" fill="#748791"/>
<path opacity="0.3" d="M151.088 42.7622C149.87 43.3011 148.882 43.4089 148.55 42.9476L143.914 36.593L142.364 34.4676L142.178 34.2133L142.157 34.1831L142.347 34.0408L142.511 33.9244L142.947 33.6011C143.029 33.7218 143.145 33.8856 143.283 34.0839C143.352 34.1788 143.421 34.2822 143.504 34.3943C143.918 34.9677 144.483 35.7437 145.131 36.5887C147.026 39.0633 149.611 42.15 151.088 42.7622Z" fill="#748791"/>
<path d="M142.157 34.1831C142.67 34.8945 144.768 34.2478 146.836 32.7346C148.908 31.2214 150.168 29.4236 149.655 28.7123C149.141 28.001 147.043 28.6476 144.975 30.1608C142.899 31.6697 141.639 33.4718 142.157 34.1831Z" fill="#8197A3"/>
<path d="M142.455 33.8641C142.895 34.4719 144.777 33.8555 146.655 32.4845C148.532 31.1136 149.702 29.5055 149.257 28.8977C148.813 28.2898 146.935 28.9063 145.057 30.2772C143.18 31.6482 142.014 33.2562 142.455 33.8641Z" fill="#3F4B51"/>
<path d="M142.394 34.2952C142.416 33.7692 141.786 33.4416 141.388 33.2476C141.138 33.1269 140.892 32.9932 140.646 32.8768C140.508 32.8122 140.404 32.7173 140.249 32.6958C140.119 32.6742 139.968 32.7949 139.847 32.7346C139.817 32.7216 139.727 32.3897 139.701 32.3379C139.191 32.8811 138.293 32.0663 137.724 32.5104C137.706 32.4198 137.637 32.3422 137.616 32.2646C137.594 32.3595 137.508 32.4414 137.482 32.5147C137.491 32.519 137.378 32.4328 137.413 32.4328C136.994 32.4285 136.623 32.6009 136.209 32.6225C135.712 32.6483 135.25 32.6699 134.758 32.7992C134.232 32.9372 133.152 33.2346 133.127 33.9374C133.118 34.1917 133.278 34.5452 133.541 34.5495C133.735 35.1186 134.322 34.8556 134.741 35.0496C134.81 35.7006 137.719 36.0498 138.173 35.554C138.298 35.7265 138.876 35.9162 139.096 35.9075C139.347 35.8989 139.584 35.5497 139.873 35.886C140.443 35.4807 142.355 35.3126 142.394 34.2952Z" fill="#748791"/>
<path opacity="0.4" d="M149.361 34.8297L151.325 37.5457C153.009 36.1575 153.963 34.653 153.505 34.0192L151.541 31.3032C151.999 31.9326 151.045 33.4415 149.361 34.8297Z" fill="#748791"/>
<g opacity="0.1">
<path d="M241.338 148.829C240.022 148.829 238.955 149.898 238.955 151.221C238.955 152.54 240.022 153.614 241.338 153.614C242.655 153.614 243.721 152.545 243.721 151.221C243.717 149.902 242.65 148.829 241.338 148.829Z" fill="white"/>
<path d="M247.343 139.913C246.384 139.913 245.612 140.693 245.612 141.65C245.612 142.612 246.389 143.388 247.343 143.388C248.301 143.388 249.073 142.608 249.073 141.65C249.073 140.693 248.296 139.913 247.343 139.913Z" fill="white"/>
<path d="M240.121 132.834C240.617 132.834 241.014 132.433 241.014 131.933C241.014 131.433 240.613 131.032 240.121 131.032C239.625 131.032 239.227 131.433 239.227 131.933C239.227 132.433 239.625 132.834 240.121 132.834Z" fill="white"/>
</g>
<g opacity="0.1">
<path d="M11.2015 135.473C9.88491 135.473 8.81873 136.542 8.81873 137.865C8.81873 139.185 9.88491 140.258 11.2015 140.258C12.518 140.258 13.5842 139.189 13.5842 137.865C13.5799 136.546 12.5137 135.473 11.2015 135.473Z" fill="white"/>
<path d="M17.2058 126.557C16.2475 126.557 15.4749 127.337 15.4749 128.295C15.4749 129.256 16.2518 130.032 17.2058 130.032C18.1641 130.032 18.9367 129.252 18.9367 128.295C18.9367 127.337 18.1597 126.557 17.2058 126.557Z" fill="white"/>
<path d="M9.98422 119.478C10.4806 119.478 10.8777 119.077 10.8777 118.577C10.8777 118.082 10.4763 117.676 9.98422 117.676C9.48782 117.676 9.0907 118.077 9.0907 118.577C9.0907 119.077 9.48782 119.478 9.98422 119.478Z" fill="white"/>
</g>
<path d="M278.417 149.988C278.024 149.988 277.645 150.13 277.282 150.376L248.706 150.462L248.784 175.833L277.364 175.747C277.731 175.984 278.106 176.126 278.499 176.126C281.154 176.117 283.291 170.263 283.269 163.042C283.243 155.825 281.072 149.979 278.417 149.988Z" fill="#233E3E"/>
<path d="M262.317 175.79C264.777 175.781 266.758 170.095 266.737 163.089C266.715 156.084 264.699 150.41 262.239 150.419L248.706 150.462L248.784 175.833L262.317 175.79Z" fill="#233E3E"/>
<path d="M249.643 149.367L248.702 149.372C247.019 149.376 245.668 155.549 245.693 163.158C245.715 170.768 247.101 176.932 248.788 176.928L249.729 176.924C251.413 176.92 252.764 170.746 252.738 163.137C252.712 155.523 251.331 149.359 249.643 149.367Z" fill="#2C4C4C"/>
<path opacity="0.4" d="M246.082 163.154C246.073 159.796 246.319 156.735 246.734 154.445C246.842 153.842 246.963 153.299 247.092 152.812C247.515 151.229 248.042 150.294 248.611 150.29C249.311 150.29 249.945 151.686 250.416 153.945C250.899 156.282 251.206 159.537 251.214 163.141C251.236 170.246 250.105 176.005 248.685 176.01C248.163 176.01 247.67 175.225 247.26 173.876C246.561 171.574 246.095 167.633 246.082 163.154Z" fill="#233E3E"/>
<g opacity="0.3">
<path d="M265.835 163.771C266.206 164.391 267.009 164.594 267.626 164.223C268.247 163.853 268.446 163.046 268.075 162.421C267.704 161.801 266.901 161.598 266.283 161.969C265.666 162.339 265.468 163.146 265.835 163.771Z" fill="#233E3E"/>
<path d="M267.216 160.951C267.76 161.016 268.273 161.287 268.632 161.744L272.922 159.162C271.597 157.132 269.4 155.985 267.138 155.929L267.216 160.951Z" fill="#233E3E"/>
<path d="M264.954 162.314L260.586 159.874C259.563 161.908 259.528 164.392 260.689 166.521L264.98 163.939C264.751 163.413 264.755 162.827 264.954 162.314Z" fill="#233E3E"/>
<path d="M268.062 164.948C267.816 165.094 267.553 165.189 267.285 165.228L267.358 170.25C268.476 170.19 269.594 169.862 270.622 169.242C271.649 168.625 272.465 167.789 273.043 166.832L268.671 164.392C268.515 164.611 268.312 164.797 268.062 164.948Z" fill="#233E3E"/>
</g>
<g opacity="0.4">
<path d="M129.341 109.27L132.445 112.352L134.75 112.486C134.75 112.486 138.069 115.672 134.719 119.324C132.557 119.686 127.912 120.229 127.912 120.229L121.895 116.189L129.341 109.27Z" fill="#8EC3CC"/>
<path d="M132.445 112.356C132.445 112.356 132.591 116.801 132.259 117.03C131.927 117.262 132.026 113.68 132.026 113.68C132.026 113.68 130.304 116.258 129.855 116.318C129.406 116.387 132.445 112.356 132.445 112.356Z" fill="#75A1AA"/>
<path d="M124.079 111.063C126.134 109.153 128.491 108.347 129.341 109.27C130.191 110.192 129.211 112.486 127.157 114.4C125.102 116.31 122.745 117.116 121.895 116.193C121.049 115.271 122.024 112.977 124.079 111.063Z" fill="#75A1AA"/>
</g>
<path d="M19.3425 20.5514C19.9036 19.0856 14.2792 18.8097 13.5022 17.068C12.7295 15.3263 16.5972 15.7833 18.1468 14.1321C19.6964 12.481 11.0418 12.2051 11.3914 9.36405C11.741 6.51872 15.5439 7.98881 16.2475 5.6953C16.9511 3.40179 9.07342 4.77703 8.50795 3.31125C7.9468 1.84547 51.4231 1.47903 51.9842 2.75943C52.5454 4.04414 46.8475 3.6777 46.636 5.50992C46.4245 7.34214 50.2921 7.34214 49.2389 10.7393C48.1856 14.1321 33.4101 8.26472 29.9612 8.81223C26.5123 9.36405 35.8705 12.3905 33.4101 14.9556C30.9497 17.525 22.2259 14.5891 19.6231 15.5074C17.0202 16.4257 20.1842 19.6331 20.0461 20.7368C19.9036 21.8361 19.3425 20.5514 19.3425 20.5514Z" fill="url(#paint2_linear_1876_26536)"/>
<path d="M156.052 37.477C156.561 38.1927 155.301 39.9947 153.229 41.5036C152.491 42.0382 151.753 42.4736 151.083 42.7625C149.866 43.3014 148.878 43.4091 148.545 42.9478L143.914 36.5933H155.409L156.052 37.477Z" fill="#6F989F"/>
<path d="M204.073 36.5933C204.06 36.6752 204.048 36.7571 204.03 36.839C204.026 36.8562 204.017 36.8821 204.013 36.9123C203.927 37.2356 203.676 37.7616 203.301 38.4384C203.284 38.4686 203.266 38.5117 203.245 38.5419C202.023 40.7319 199.606 44.336 197.486 47.3969C197.132 47.9142 196.774 48.4143 196.446 48.8886C195.108 50.7941 194.098 52.1866 193.964 52.3202C193.817 52.4883 191.862 52.0314 190.256 50.9579C188.612 49.8672 187.364 48.1858 187.455 47.9746C187.455 47.9746 187.455 47.9703 187.459 47.9617C187.485 47.9142 187.545 47.8022 187.64 47.647C187.973 47.0736 188.724 45.8406 189.669 44.3145L189.682 44.3015C189.803 44.1032 189.928 43.9049 190.053 43.7066C190.653 42.7495 191.301 41.7235 191.961 40.6974C192.876 39.2748 193.813 37.8521 194.672 36.5976H204.073V36.5933Z" fill="#6F989F"/>
<path opacity="0.2" d="M300 174.35V192H0V180.684C4.41583 179.282 9.02158 177.998 13.7914 176.834C38.8921 185.292 321.639 197.768 296.486 173.967C297.691 174.075 298.86 174.208 300 174.35Z" fill="#5F624F"/>
<path d="M0 36.5933C0 36.5933 43.7784 38.5979 141.518 38.5979C239.258 38.5979 300 36.5933 300 36.5933H0Z" fill="#B3E8D7"/>
<path d="M78.4835 122.324C77.4087 124.876 76.39 129.334 76.213 132.757C76.036 136.18 76.9295 139.793 76.9295 139.793C76.9295 139.793 75.2375 136.245 72.1166 135.882C68.9957 135.52 66.3454 138.081 66.4058 137.835C66.4662 137.59 68.4864 130.886 71.0634 126.739C73.6403 122.591 77.4259 121.022 77.4259 121.022L78.4835 122.324Z" fill="#263C54"/>
<path d="M97.2647 135.3C96.8374 136.244 95.4 137.594 95.2057 138.396C95.0115 139.198 97.6661 139.581 97.6661 139.581C97.6661 139.581 99.423 141.508 99.7424 146.949C100.062 152.385 96.8115 157.679 96.8115 157.679C96.8115 157.679 100.748 153.597 102.453 152.506C104.158 151.415 104.171 155.144 104.171 155.144C104.171 155.144 106.282 150.488 105.604 146.272C104.927 142.056 100.019 137.99 100.019 137.99L97.2647 135.3Z" fill="#263C54"/>
<path d="M121.688 103.859L121.744 103.863C121.813 103.837 121.873 103.816 121.908 103.807C121.968 103.794 122.05 103.833 122.132 103.893L122.711 103.941C122.776 104.018 124.075 104.915 124.317 105.092C124.558 105.273 124.381 105.614 123.958 105.57C123.816 105.557 123.509 105.355 123.168 105.096C123.397 105.402 123.617 105.708 123.635 105.795C123.673 105.984 123.518 106.114 123.298 106.161C123.078 106.213 122.586 105.109 122.34 104.997C122.305 104.98 122.253 104.975 122.188 104.98C122.27 105.251 122.465 105.915 122.387 106.002C122.292 106.105 122.137 106.062 122.046 105.997C121.981 105.954 121.847 105.398 121.77 105.049C121.381 105.139 120.958 105.295 120.958 105.295L120.384 105.04C120.384 105.04 120.522 104.51 120.647 104.393C120.747 104.299 121.368 104.005 121.718 103.868C121.696 103.868 121.688 103.859 121.688 103.859Z" fill="url(#paint3_linear_1876_26536)"/>
<path d="M118.614 105.579C118.614 105.579 119.318 106.545 119.655 106.45C119.991 106.355 120.104 105.937 120.617 106.114C121.131 106.291 121.494 106.799 121.597 107.062C121.701 107.33 122.128 107.2 121.86 106.416C121.593 105.635 120.803 105.088 120.855 104.963C120.911 104.838 121.744 104.178 122.042 104.062C122.34 103.945 123.488 104.627 123.98 104.402C124.472 104.178 124.235 103.997 123.052 103.501C121.869 103.001 121.921 102.781 121.165 103.208C120.41 103.635 118.64 104.704 118.64 104.704L118.17 105.247L118.614 105.579Z" fill="#FFB17D"/>
<path d="M85.1957 72.1727C87.4446 72.7159 90.0432 72.4012 90.2158 72.3796L90.1209 71.6252C90.0561 71.6338 83.8532 72.3882 82.8086 69.6722C82.5971 69.1247 82.4892 68.3401 83.1712 67.7279C84.4662 66.5596 88.0144 66.5036 93.0302 69.0256L93.3755 68.3444C87.6734 65.4775 84.0389 65.9173 82.6619 67.1632C81.8935 67.8573 81.6863 68.8747 82.1007 69.9482C82.5712 71.1854 83.8187 71.8407 85.1957 72.1727Z" fill="#40979A"/>
<path d="M107.417 85.4592C107.594 85.5023 107.775 85.5196 107.957 85.5066C108.773 85.4506 109.381 84.9936 109.662 84.2133C110.296 82.4673 109.256 78.9322 105.47 75.3022L104.944 75.8541C108.328 79.096 109.519 82.3854 108.945 83.9546C108.768 84.4461 108.419 84.7134 107.905 84.7479C107.801 84.7565 107.693 84.7436 107.586 84.7177C106.006 84.334 104.098 80.5877 103.213 78.1476L102.496 78.4062C102.747 79.1003 104.905 84.847 107.417 85.4592Z" fill="#40979A"/>
<path d="M91.2 73.6899L92.1237 71.7542L89.728 71.1118L89.4993 73.1467L91.2 73.6899Z" fill="#094B4D"/>
<path d="M102.315 79.1263L103.714 78.221L101.871 76.9233L101.232 78.208L102.315 79.1263Z" fill="#094B4D"/>
<path d="M85.4719 103.454C83.6417 102.997 82.364 102.398 83.6374 99.1902C84.9108 95.9827 94.7914 80.9973 97.3813 78.6995C99.9712 76.3973 104.473 77.8243 102.535 83.4848C100.597 89.141 88.7439 103.665 88.7439 103.665L85.4719 103.454Z" fill="url(#paint4_linear_1876_26536)"/>
<path d="M97.5064 80.8078C97.7179 80.6957 97.8518 80.4715 97.8733 80.2344C97.9812 78.8419 97.8776 77.859 101.711 76.4966C105.868 75.0179 109.951 68.1633 109.493 62.7571C109.036 57.351 103.606 55.1868 99.328 59.0539C95.0503 62.921 93.8028 69.6808 94.2474 73.2547C94.692 76.8286 93.9971 77.2468 92.905 77.7038C91.869 78.1349 95.1625 82.058 97.5064 80.8078Z" fill="#3D6187"/>
<path d="M101.784 86.7095C102.945 89.4729 104.258 99.992 105.406 100.923C106.554 101.854 118.778 104.618 118.778 104.618L118.817 105.803C118.817 105.803 105.626 105.683 103.373 103.635C101.119 101.587 98.0676 91.2361 98.0676 91.2361L101.784 86.7095Z" fill="#3D6187"/>
<path d="M91.3554 105.696C91.3554 105.696 100.619 112.581 101.322 113.991C102.026 115.405 98.7022 132.593 98.7367 133.826C98.8187 136.723 100.947 138.741 100.614 139.314C100.278 139.887 98.0029 138.749 97.295 137.072C96.5871 135.4 96.0604 126.51 95.7324 124.079C95.4043 121.647 97.4719 117.176 97.4719 117.176L88.1007 109.938C88.1007 109.938 87.3799 119.112 86.305 119.504C85.2259 119.897 83.4993 119.742 82.8691 118.017C82.2389 116.297 80.6719 106.83 80.3827 104.799C80.0892 102.769 80.7194 102.07 80.7194 102.07L86.9094 102.458C86.9007 102.463 91.377 104.786 91.3554 105.696Z" fill="#3D6187"/>
<path d="M86.3007 119.509C85.5367 120.763 78.9756 121.918 78.2115 122.91C77.4475 123.902 77.1626 125.074 76.4633 124.449C75.764 123.824 76.2043 122.556 76.813 121.397C77.4216 120.237 81.8504 115.749 82.6792 115.56C83.5079 115.37 86.3007 119.509 86.3007 119.509Z" fill="#3D6187"/>
<path d="M81.0475 101.501C79.0877 101.484 77.6503 101.203 78.0906 97.776C78.5266 94.353 84.5309 77.4319 86.5295 74.5823C88.528 71.7326 93.423 72.0646 92.9568 78.0355C92.4906 84.002 84.3885 100.936 84.3885 100.936L81.0475 101.501Z" fill="url(#paint5_linear_1876_26536)"/>
<path d="M107.853 63.8605C108.578 70.435 102.794 76.6257 98.7324 76.3628C94.6705 76.0998 94.7223 70.491 97.7223 64.8737C100.722 59.2563 107.34 59.2261 107.853 63.8605Z" fill="#FFB17D"/>
<path d="M109.14 67.2364C110.853 69.0384 109.01 71.9829 106.632 71.7889C104.253 71.5949 97.4201 68.0555 96.0518 66.012C94.6834 63.9729 96.5914 60.6447 99.9798 61.9596C103.364 63.2788 107.132 65.1282 109.14 67.2364Z" fill="#094B4D"/>
<path d="M106.433 70.9954C106.528 71.0127 106.619 71.0256 106.696 71.0299C107.706 71.1118 108.505 70.4307 108.846 69.7193C109.006 69.3831 109.308 68.5165 108.587 67.7621C106.99 66.0851 103.839 64.2787 99.7036 62.675C99.4576 62.5801 99.2158 62.5112 98.9827 62.4724C98.0201 62.3085 97.1957 62.6319 96.7165 63.3648C96.259 64.0675 96.2504 64.9383 96.6863 65.5936C97.8475 67.3267 103.986 70.5772 106.433 70.9954Z" fill="#58F0F5"/>
<path d="M103.498 66.0075C103.735 66.1325 103.027 70.2238 102.85 70.4954C102.673 70.767 101.879 70.8877 101.417 70.8058C100.955 70.7282 100.161 69.603 100.2 69.133C100.239 68.6718 103.26 65.8825 103.498 66.0075Z" fill="#094B4D"/>
<path d="M97.8389 72.1336C97.5842 73.1812 98.2274 74.2331 99.2763 74.4875C100.325 74.7418 101.378 74.0995 101.633 73.0519C101.888 72.0043 101.245 70.9524 100.196 70.698C99.1468 70.448 98.0892 71.0903 97.8389 72.1336Z" fill="#094B4D"/>
<path d="M98.6202 72.3236C98.4691 72.9357 98.849 73.5565 99.4619 73.7031C100.075 73.854 100.696 73.4746 100.843 72.8625C100.994 72.2503 100.614 71.6295 100.001 71.4829C99.3885 71.3363 98.7713 71.7114 98.6202 72.3236Z" fill="#157478"/>
<path d="M97.8734 80.2346C97.9382 81.2693 101.642 85.9598 101.789 86.7142C101.931 87.4687 96.3151 93.6292 94.5195 97.2463C92.7238 100.863 91.1612 104.342 91.1612 104.342L81.1641 100.484C81.1641 100.484 83.0029 96.6815 84.0259 91.1072C85.049 85.5373 84.4274 80.5493 84.4274 80.5493C84.4274 80.5493 83.7324 78.2903 84.5353 78.2213C85.3382 78.1524 91.8303 77.829 92.9094 77.6997C93.9885 77.566 97.8734 80.2346 97.8734 80.2346Z" fill="#3D6187"/>
<path d="M96.0388 94.211C95.8704 94.3662 90.6776 103.635 90.6776 103.635L89.0503 102.786L94.6618 93.6851L96.0388 94.211Z" fill="#456E99"/>
<path d="M90.2805 91.7711C90.1424 92.0643 86.1237 101.355 85.951 101.251C85.7784 101.143 84.3884 100.941 84.3884 100.941L88.8302 91.5513L90.2805 91.7711Z" fill="#456E99"/>
<path d="M91.6446 88.3093C94.364 88.9689 96.5999 90.5554 96.5999 90.5554L97.2388 89.2707C97.2388 89.2707 94.446 87.0246 91.7438 86.8306C91.5107 86.9728 91.6446 88.3093 91.6446 88.3093Z" fill="#263C54"/>
<path d="M95.7582 87.5415L94.4806 90.1066L93.5525 89.6237L93.9971 86.9854L95.7582 87.5415Z" fill="#5B6978"/>
<path d="M91.3554 105.696C89.469 103.212 80.9741 102.074 80.4863 102.475C80.2877 100.596 80.987 99.3281 80.987 99.3281C80.987 99.3281 88.0575 100.126 91.6359 103.734C91.7611 104.553 91.3554 105.696 91.3554 105.696Z" fill="#263C54"/>
<path d="M62.823 74.1428C62.8705 74.7162 62.2662 74.8498 61.9381 74.617C61.61 74.3842 61.4417 73.5004 60.9884 73.3668C60.5352 73.2332 59.9395 73.4703 59.8532 73.7289C59.7626 73.9876 60.6086 73.8841 60.8503 74.1471C61.092 74.4101 61.187 74.9705 61.446 75.3887C61.7007 75.8069 62.9352 76.1043 62.9352 76.1043L63.4705 75.6517C63.4705 75.6517 63.6 72.8408 63.4446 72.4183C63.2892 72.0002 62.2273 71.4354 61.7568 70.9353C61.2906 70.4395 60.9064 70.2197 60.7554 70.7456C60.6043 71.2716 62.2316 72.1511 62.4992 72.4183C62.7625 72.6986 62.81 73.9876 62.823 74.1428Z" fill="#FFB17D"/>
<path d="M61.3295 71.2284C61.3295 71.2284 60.0259 71.0171 59.7367 71.1508C59.4475 71.2844 59.482 71.5733 59.5597 71.6681C59.6374 71.7629 60.6173 71.7457 60.9842 71.8104C61.3511 71.875 62.9309 72.845 62.9309 72.845C62.9309 72.845 62.9093 72.4053 62.8316 72.3104C62.7539 72.2113 61.3295 71.2284 61.3295 71.2284Z" fill="#FFB17D"/>
<path d="M62.9179 72.4788C62.9179 72.4788 61.0446 71.8881 60.7467 71.9442C60.4532 72.0002 59.81 72.4572 59.7928 72.6296C59.7755 72.8064 60.1079 73.0133 60.2115 73.0133C60.3151 73.0133 60.9755 72.3925 60.9755 72.3925C60.9755 72.3925 61.9165 72.6943 62.1971 72.9142C62.4777 73.134 63.0518 74.4489 63.0518 74.4489L63.3496 73.0133L62.9179 72.4788Z" fill="#FFB17D"/>
<path d="M61.7655 72.5864C61.7655 72.5864 60.9237 72.7934 60.8504 72.9787C60.7813 73.1641 61.0748 73.315 61.4245 73.246C61.7741 73.177 62.3568 72.8839 62.3568 72.8839L61.7655 72.5864Z" fill="#FFB17D"/>
<path d="M84.5353 78.2213C82.1914 78.4368 71.9482 83.1532 71.9482 83.1532L63.3756 75.3242L62.7324 76.083C62.7324 76.083 67.9339 84.8604 71.059 86.0072C74.1842 87.1539 84.4101 84.3991 85.2044 83.2825C85.9986 82.1703 85.9425 78.8895 84.5353 78.2213Z" fill="#3D6187"/>
<path d="M98.6806 71.1856C98.5252 71.0174 93.3324 67.603 93.3324 67.603L92.6676 69.7974L98.1798 72.1771L98.6806 71.1856Z" fill="#094B4D"/>
<path d="M101.439 72.7677C101.637 72.7504 106.161 75.1517 106.161 75.1517L104.599 76.7339L100.904 73.617L101.439 72.7677Z" fill="#094B4D"/>
<path d="M91.1655 77.6047C93.7468 80.1913 92.3828 87.9686 91.7482 89.775C91.1137 91.5813 90.3065 93.0212 89.0245 92.6461C87.7425 92.2711 88.3166 90.9734 89.2058 87.8522C90.095 84.731 89.059 78.2082 88.5626 77.8246C89.9007 77.4279 91.1655 77.6047 91.1655 77.6047Z" fill="#263C54"/>
<path d="M98.8662 81.7563C98.5425 86.0588 95.2835 91.9392 94.5799 92.9437C93.8763 93.9525 93.9713 96.5219 96.7166 94.1163C99.4619 91.7064 100.826 84.1921 100.826 84.1921L98.8662 81.7563Z" fill="#263C54"/>
<path opacity="0.1" d="M300 78.1823V119.586C294.397 121.931 287.78 122.789 282.047 122.789C271.243 122.789 260.961 121.013 250.222 120.509C234.911 119.789 220.299 116.331 205.027 115.573C198.22 115.232 191.245 115.06 185.309 119.284C181.822 121.763 183.824 124.376 180.894 126.816C172.148 134.106 117.729 139.034 93.8892 141.349C86.1367 142.099 77.1237 143.457 69.4921 141.452C55.2173 137.706 71.3568 129.075 69.0129 122.319C67.4158 117.707 51.764 120.112 47.6417 120.625C34.0014 122.341 21.1468 124.949 7.84748 128.221C5.70647 128.752 2.84892 129.204 0 129.829V64.8739C6.50504 63.2271 13.6921 62.6666 19.7957 61.7958C25.4158 60.9939 31.8129 61.3043 37.3597 62.5589C40.3252 63.2314 49.5928 65.7017 50.8705 69.0341C52.8432 74.1902 30.5568 81.6226 49.9683 81.5967C56.223 81.5881 62.2619 80.9414 68.4561 80.5922C71.2834 80.4327 79.6489 78.8074 81.7381 81.5752C85.2647 86.2398 75.9022 89.4904 79.8086 93.8273C82.9597 97.3323 95.7583 95.1767 100.256 95.1767C109.476 95.1767 118.545 94.6508 127.718 94.2498C133.481 93.9955 144 92.7151 149.197 95.6078C153.988 98.2721 149.314 101.885 154.222 104.131C159.751 106.662 170.577 105.48 176.517 105.144C191.197 104.325 207.315 105.476 221.46 100.729C224.145 99.8284 229.399 98.4532 230.599 95.6294C231.626 93.2065 228.945 90.4862 230.206 88.3652C232.96 83.7178 249.799 81.4803 254.672 80.5922C264.138 78.8635 273.263 77.9754 282.941 77.9754C287.952 77.9797 294.406 78.7126 300 78.1823Z" fill="#6F989F"/>
<g opacity="0.2">
<path d="M127.114 84.4678C129.166 84.4678 130.83 82.7963 130.83 80.7344C130.83 78.6725 129.166 77.001 127.114 77.001C125.061 77.001 123.397 78.6725 123.397 80.7344C123.397 82.7963 125.061 84.4678 127.114 84.4678Z" fill="white"/>
<path d="M133.196 75.8675C134.688 75.8675 135.898 74.6516 135.898 73.1515C135.898 71.6515 134.688 70.4355 133.196 70.4355C131.703 70.4355 130.494 71.6515 130.494 73.1515C130.494 74.6516 131.703 75.8675 133.196 75.8675Z" fill="white"/>
<path d="M127.282 68.4005C128.37 68.4005 129.255 67.5124 129.255 66.4217C129.255 65.3267 128.37 64.4429 127.282 64.4429C126.194 64.4429 125.309 65.331 125.309 66.4217C125.309 67.5124 126.19 68.4005 127.282 68.4005Z" fill="white"/>
</g>
<path d="M213.587 118.427C213.587 118.427 209.085 124.117 207.324 125.316C205.563 126.51 197.331 118.638 197.119 118.78C196.908 118.923 196.347 119.836 196.347 119.836C196.347 119.836 203.875 128.269 207.043 128.48C210.212 128.692 216.052 121.242 216.052 121.242C216.052 121.242 216.004 134.128 216.66 144.621C217.317 155.114 220.787 175.075 220.787 175.075L222.009 174.795L222.57 144.436L233.361 174.044L234.488 173.764C234.488 173.764 229.986 152.023 228.859 142.75C227.732 133.473 231.298 121.669 231.298 121.669C231.298 121.669 237.492 127.946 238.899 128.976C240.307 130.006 250.722 131.692 250.722 131.692L251.003 130.757C251.003 130.757 241.338 127.571 240.212 127.01C239.085 126.45 233.737 118.578 233.737 118.578L213.587 118.427Z" fill="#324B5C"/>
<g opacity="0.4">
<path d="M222.241 142.948C221.59 137.891 221.957 120.66 221.961 120.487L222.241 120.492C222.237 120.664 221.875 137.874 222.521 142.914L222.241 142.948Z" fill="#324B5C"/>
</g>
<path d="M218.512 115.547L211.614 116.952C211.614 116.952 211.632 117.716 211.614 117.797C211.472 118.431 213.445 121.311 222.03 121.802C230.616 122.294 236.594 118.569 236.594 118.569V117.724L230.05 115.405L218.512 115.547Z" fill="#81BACC"/>
<path d="M236.594 117.724C236.594 117.724 232.204 120.457 225.553 120.931C224.439 121.013 223.26 121.026 222.03 120.957C213.445 120.466 211.407 117.164 211.614 116.952C211.826 116.741 218.512 114.702 218.512 114.702L228.203 114.586L230.05 114.564L236.594 117.724Z" fill="#C7E9ED"/>
<path opacity="0.5" d="M226.696 115.758C225.065 115.487 226.299 115.021 228.203 114.586L230.05 114.564L236.594 117.728C236.594 117.728 232.204 120.462 225.553 120.936C230.426 119.599 229.748 116.263 226.696 115.758Z" fill="#C7E9ED"/>
<path d="M230.616 111.33V115.124C230.616 115.922 228.954 116.603 226.602 116.883C225.855 116.974 225.035 117.021 224.18 117.021C220.623 117.021 217.74 116.172 217.74 115.124V111.33C217.74 110.283 220.623 109.434 224.18 109.434C226.964 109.434 229.334 109.955 230.232 110.684C230.478 110.882 230.616 111.102 230.616 111.33Z" fill="#C7E9ED"/>
<path opacity="0.3" d="M230.616 111.331V115.124C230.616 115.922 228.954 116.603 226.602 116.883C229.632 115.288 227.797 112.844 226.325 112.477C225.427 112.253 228.009 111.361 230.232 110.68C230.478 110.882 230.616 111.102 230.616 111.331Z" fill="#C7E9ED"/>
<path d="M235.606 103.782C234.911 110.089 229.222 114.642 222.911 113.943C220.649 113.693 218.612 112.805 216.963 111.477C214.006 109.098 212.292 105.308 212.737 101.264C213.432 94.9571 219.117 90.4046 225.432 91.103C227.197 91.297 228.829 91.8833 230.245 92.7627C233.888 95.0218 236.111 99.238 235.606 103.782Z" fill="#C7E9ED"/>
<path d="M231.311 106.032C231.099 108.917 226.468 110.93 220.964 110.529C215.461 110.128 211.17 107.468 211.377 104.584C211.589 101.7 216.22 99.6865 221.724 100.087C227.232 100.488 231.522 103.148 231.311 106.032Z" fill="#95CBDB"/>
<path d="M229.824 106.234C230.021 103.524 225.939 101.019 220.706 100.639C215.472 100.258 211.069 102.146 210.872 104.856C210.674 107.566 214.757 110.071 219.99 110.451C225.224 110.832 229.627 108.943 229.824 106.234Z" fill="#C7E9ED"/>
<path d="M228.19 106.123C228.039 108.175 224.646 109.619 220.515 109.434C220.364 109.425 220.213 109.421 220.058 109.408C215.724 109.093 212.335 107.11 212.486 104.98C212.642 102.851 216.281 101.381 220.619 101.695C220.77 101.708 220.925 101.721 221.076 101.734C225.194 102.152 228.341 104.071 228.19 106.123Z" fill="#95CBDB"/>
<path d="M228.19 106.123C228.151 106.658 227.892 107.149 227.46 107.585C227.288 107.757 227.085 107.921 226.86 108.072C226.407 108.382 225.85 108.645 225.212 108.861C224.245 109.184 223.096 109.387 221.845 109.438C221.413 109.456 220.968 109.456 220.515 109.434C216.397 109.02 213.25 107.102 213.401 105.05C213.466 104.14 214.17 103.351 215.288 102.773C216.194 102.303 217.373 101.967 218.711 101.816C219.186 101.76 219.678 101.73 220.187 101.726C220.481 101.721 220.774 101.726 221.072 101.739C221.426 101.773 221.771 101.821 222.108 101.877C225.708 102.484 228.328 104.248 228.19 106.123Z" fill="#79DEFC"/>
<path d="M250.999 130.748C251.832 130.933 254.4 130.48 255.069 130.127C255.738 129.773 256.088 130.269 255.281 130.726C254.473 131.183 253.204 131.429 252.747 131.498C252.289 131.567 252.358 132.097 252.466 132.235C252.57 132.377 253.558 131.92 254.05 132.235C254.542 132.55 254.439 132.869 254.119 132.972C253.804 133.076 253.485 132.726 252.993 132.83C252.501 132.933 251.586 133.287 251.271 132.899C250.955 132.511 250.718 131.679 250.718 131.679L250.999 130.748Z" fill="#FFB17D"/>
<path d="M252.147 131.778C252.781 131.709 256.265 131.286 256.722 131.075C257.18 130.864 256.934 130.338 255.807 130.653C254.681 130.967 252.358 131.321 252.358 131.321L252.147 131.778Z" fill="#FFB17D"/>
<path d="M254.858 131.321C254.858 131.321 256.161 131.041 256.442 131.11C256.722 131.179 256.688 131.356 256.545 131.602C256.403 131.847 252.427 131.705 252.427 131.705L254.858 131.321Z" fill="#FFB17D"/>
<path d="M254.189 131.605C254.189 131.605 255.138 131.959 255.35 132.166C255.561 132.377 255.492 132.692 254.996 132.588C254.504 132.485 253.273 131.605 253.273 131.605H254.189Z" fill="#FFB17D"/>
<path d="M195.807 118.052C195.98 118.569 195.453 118.823 195.104 118.685C194.75 118.543 194.4 117.771 193.955 117.75C193.511 117.728 193.019 118.077 192.993 118.336C192.971 118.595 193.718 118.315 194.003 118.5C194.284 118.685 194.495 119.181 194.823 119.509C195.151 119.836 196.347 119.836 196.347 119.836L197.12 118.78C197.12 118.78 196.23 116.694 195.993 116.344C195.76 115.991 194.655 115.711 194.115 115.361C193.576 115.008 193.178 114.892 193.153 115.409C193.131 115.926 194.819 116.37 195.121 116.556C195.432 116.741 195.76 117.914 195.807 118.052Z" fill="#FFB17D"/>
<path d="M193.791 115.71C193.791 115.71 192.548 115.805 192.315 115.991C192.082 116.176 192.173 116.435 192.268 116.508C192.363 116.577 193.252 116.344 193.606 116.323C193.96 116.301 195.622 116.84 195.622 116.84C195.622 116.84 195.505 116.443 195.41 116.37C195.315 116.297 193.791 115.71 193.791 115.71Z" fill="#FFB17D"/>
<path d="M195.527 116.508C195.527 116.508 193.714 116.344 193.455 116.461C193.196 116.577 192.501 117.375 192.527 117.538C192.548 117.702 192.95 117.642 193.045 117.62C193.14 117.599 193.645 116.987 193.645 116.987C193.645 116.987 194.663 116.926 194.97 117.069C195.276 117.211 196.096 118.289 196.096 118.289L196.049 116.905L195.527 116.508Z" fill="#FFB17D"/>
<path d="M194.495 116.857C194.495 116.857 193.77 117.232 193.744 117.418C193.722 117.603 194.024 117.677 194.331 117.534C194.637 117.392 195.104 116.995 195.104 116.995L194.495 116.857Z" fill="#FFB17D"/>
<path d="M223.122 177.847C222.561 178.373 221.504 178.2 220.696 178.235C219.889 178.269 218.901 178.795 217.567 178.834C216.229 178.868 215.102 178.657 215.141 177.954C215.176 177.252 216.022 177.183 216.794 177.183C216.794 177.183 216.794 177.183 216.799 177.183C217.576 177.178 220.455 176.058 220.796 175.075L222.013 174.794C222.013 174.794 222.764 175.924 223.092 176.834C223.247 177.278 223.308 177.67 223.122 177.847Z" fill="#324B5C"/>
<path d="M223.122 177.847C222.561 178.373 221.504 178.2 220.696 178.235C219.889 178.269 218.901 178.795 217.567 178.834C216.229 178.868 215.102 178.657 215.141 177.954C215.176 177.252 216.022 177.183 216.794 177.183C216.794 177.183 216.794 177.183 216.799 177.183C216.855 177.347 216.721 177.553 216.622 177.782C216.479 178.097 217.148 178.273 218.521 178.097C219.894 177.92 221.055 177.394 221.862 177.571C222.617 177.735 223.066 177.472 223.092 176.833C223.247 177.278 223.308 177.67 223.122 177.847Z" fill="#20303B"/>
<path d="M236.314 178.127C234.872 178.48 233.642 178.058 233.499 177.67C233.409 177.424 233.404 177.148 233.443 176.752C233.465 176.528 233.495 176.265 233.534 175.95C233.637 175.07 233.357 174.04 233.357 174.04L234.483 173.76C234.483 173.76 234.941 174.932 235.61 175.458C236.21 175.933 237.203 175.924 237.682 176.398C237.738 176.45 237.786 176.515 237.829 176.584C238.213 177.247 237.755 177.778 236.314 178.127Z" fill="#324B5C"/>
<path d="M236.314 178.127C234.872 178.48 233.642 178.058 233.499 177.67C233.409 177.424 233.404 177.148 233.443 176.752C233.741 177.553 234.704 177.48 235.014 177.109C235.368 176.687 235.753 176.019 236.668 176.549C237.276 176.898 237.604 176.691 237.682 176.398C237.738 176.45 237.786 176.514 237.829 176.583C238.213 177.247 237.755 177.778 236.314 178.127Z" fill="#20303B"/>
<path d="M221.586 142.742C221.633 142.905 221.702 143.302 221.702 143.302L223.014 143.255L223.084 142.737H221.586V142.742Z" fill="#507994"/>
<g opacity="0.4">
<path d="M215.288 102.773L221.845 109.438C223.096 109.386 224.245 109.184 225.212 108.86L218.711 101.816C217.377 101.967 216.194 102.299 215.288 102.773Z" fill="#79DEFC"/>
<path d="M222.117 101.881C221.78 101.824 221.435 101.777 221.081 101.743C220.783 101.73 220.485 101.725 220.196 101.73L226.865 108.08C227.089 107.929 227.292 107.765 227.465 107.593C226.217 106.274 223.817 103.734 222.117 101.881Z" fill="#79DEFC"/>
</g>
<path opacity="0.3" d="M235.606 103.782C234.911 110.089 229.222 114.642 222.911 113.943C220.649 113.693 218.612 112.805 216.963 111.477C224.814 115.547 232.938 112.042 234.017 104.42C235.079 96.897 231.371 93.7197 230.245 92.7583C233.888 95.0216 236.111 99.2379 235.606 103.782Z" fill="#C7E9ED"/>
<path opacity="0.2" d="M224.551 184.839C224.551 184.839 219.622 186.172 213.544 186.172C207.466 186.172 202.537 184.839 202.537 184.839C202.537 184.839 207.466 183.507 213.544 183.507C219.622 183.507 224.551 184.839 224.551 184.839Z" fill="#5F624F"/>
<path d="M213.086 184.451C213.272 185.107 212.447 185.145 211.852 184.525C211.619 185.395 210.777 184.503 210.777 184.503C210.777 184.503 210.708 185.227 210.44 185.352C210.25 185.439 209.866 185.62 208.973 185.283C208.601 185.145 208.14 184.913 207.565 184.551C205.614 183.309 204.388 180.597 204.574 180.136C204.764 179.679 206.249 176.243 206.702 175.877C207.16 175.51 214.006 172.979 214.006 172.979L216.514 183.55L216.639 184.072C216.639 184.072 215.275 183.925 214.079 183.718C214.347 184.275 214.39 185.189 213.086 184.451Z" fill="#B95C59"/>
<path opacity="0.5" d="M213.086 184.451C213.272 185.107 212.447 185.145 211.852 184.525C211.619 185.396 210.777 184.503 210.777 184.503C210.777 184.503 210.708 185.227 210.44 185.352C210.25 185.439 209.866 185.62 208.973 185.283C209.357 184.745 209.918 183.71 209.75 182.395C210.082 183.218 211.01 184.533 211.286 184.15C211.563 183.766 209.633 181.998 209.737 180.14C210.488 182.417 212.469 184.624 212.612 184.365C212.75 184.106 210.397 181.149 210.324 179.011C211.114 181.774 213.626 184.43 213.695 183.912C213.764 183.399 213.134 183.063 212.668 181.809C212.201 180.554 212.681 180.429 212.681 180.429C212.681 180.429 214.196 183.266 215.978 182.343L216.522 183.55L216.647 184.072C216.647 184.072 215.283 183.925 214.088 183.718C214.347 184.275 214.39 185.189 213.086 184.451Z" fill="#B95C59"/>
<path d="M219.207 183.667C219.406 182.27 219.203 180.162 218.577 177.89C217.951 175.618 217.049 173.704 216.164 172.604L215.801 171.285L214.519 171.639C213.319 171.971 213.19 175.303 214.23 179.084C215.27 182.865 217.083 185.663 218.288 185.331L219.57 184.977L219.207 183.667Z" fill="#DEC0A4"/>
<path d="M219.57 184.982C218.37 185.313 216.552 182.516 215.512 178.735C214.472 174.954 214.601 171.617 215.801 171.289C217.001 170.957 218.819 173.755 219.859 177.536C220.899 181.317 220.77 184.65 219.57 184.982Z" fill="#EEDDC8"/>
<path d="M220.152 183.494C220.632 183.067 221.132 182.533 221.296 182.037C221.512 181.386 219.302 173.238 218.611 172.837C217.921 172.436 216.807 172.001 216.522 172.182C215.542 172.453 215.465 175.286 216.35 178.506C217.235 181.731 218.75 184.124 219.729 183.852C219.898 183.805 220.036 183.68 220.152 183.494Z" fill="#DEC0A4"/>
<path d="M220.77 182.623C219.937 182.852 218.65 180.817 217.895 178.075C217.14 175.333 217.204 172.928 218.042 172.695C218.875 172.466 220.161 174.501 220.917 177.243C221.668 179.985 221.603 182.395 220.77 182.623Z" fill="#EEDDC8"/>
<path d="M219.363 177.691C219.704 178.756 220.135 179.782 220.135 179.782C220.135 179.782 219.958 178.687 219.669 177.588C219.824 177.519 219.958 177.416 220.036 177.269C219.906 177.234 219.751 177.247 219.591 177.286C219.414 176.652 219.198 176.049 218.965 175.7C218.931 176.088 219.073 176.73 219.272 177.394C218.922 177.541 218.624 177.739 218.624 177.739C218.624 177.739 218.991 177.773 219.363 177.691Z" fill="#94806D"/>
<path d="M219.268 176.924L219.604 178.149C219.604 178.149 220.075 178.183 220.269 178.295C220.463 178.407 220.921 177.916 221.085 177.674C221.249 177.433 223.493 178.015 223.955 178.084C224.417 178.153 225.501 176.717 225.501 176.717L227.832 179.83L229.122 178.981L225.436 176.14C225.436 176.14 224.219 177.265 223.899 177.355C223.58 177.446 220.783 176.584 220.783 176.584L220.355 177.541L219.268 176.924Z" fill="#B95C59"/>
<path d="M267.553 81.6743C267.548 81.6786 267.54 81.6699 267.527 81.6613C267.475 81.6958 267.445 81.7174 267.445 81.7174C267.414 81.6441 267.384 81.5751 267.35 81.5061C267.319 81.4415 267.281 81.3682 267.237 81.2863C266.711 80.3249 265.291 78.3849 265.04 78.0486C264.889 77.8417 264.483 77.8158 263.957 77.7382C263.439 77.6606 262.8 77.527 262.153 77.1088C261.436 76.6475 259.351 73.7461 257.396 70.862C257.236 70.6249 257.076 70.3921 256.921 70.1593C257.499 70.5731 258.384 71.2026 258.518 71.2284C258.721 71.2672 257.806 68.9091 257.806 68.9091L258.868 70.1119L258.376 68.2839L258.829 67.7149L259.101 67.3743L260.318 67.1846L261.052 67.9132L262.2 68.4736L262.528 69.1289L262.498 67.9735L261.678 67.7149L261.199 65.9947L261.98 65.8999C264.268 69.0341 266.84 72.7373 267.056 73.6858C267.224 74.4359 267.13 75.0826 267.022 75.5956C266.914 76.1172 266.797 76.5009 266.94 76.7122C267.173 77.0614 268.507 79.0574 269.227 79.8851C269.288 79.9541 269.344 80.0145 269.396 80.0662C269.452 80.1266 269.512 80.1783 269.564 80.23C269.564 80.23 269.53 80.2473 269.482 80.2861C269.486 80.3033 269.486 80.3119 269.486 80.3119L268.481 81.0017C268.42 81.0448 268.36 81.0879 268.295 81.1311C267.919 81.4156 267.591 81.6484 267.553 81.6743Z" fill="#628990"/>
<path d="M267.967 82.8641C267.812 82.6744 267.807 82.3726 267.699 82.226C267.596 82.0751 267.268 81.9803 267.19 81.7518C267.117 81.644 267.134 81.4759 267.237 81.2862C267.384 81.006 267.691 80.6783 268.101 80.3895C268.135 80.3636 268.174 80.3421 268.209 80.3205H268.213C268.584 80.0791 268.955 79.9282 269.24 79.8937C269.456 79.8635 269.62 79.898 269.698 80.0101C269.806 80.1351 269.836 80.4412 269.996 80.6093C270.155 80.7818 270.337 80.8335 270.479 81.1224C270.471 81.1224 268.122 83.0624 267.967 82.8641Z" fill="#628990"/>
<path opacity="0.3" d="M267.967 82.8641C267.812 82.6744 267.807 82.3726 267.699 82.226C267.596 82.0752 267.268 81.9803 267.19 81.7518C267.117 81.644 267.134 81.4759 267.237 81.2862C266.711 80.3248 265.291 78.3848 265.04 78.0486C264.889 77.8416 264.483 77.8158 263.957 77.7382C263.439 77.6606 262.8 77.5269 262.153 77.1088C261.436 76.6475 259.351 73.7461 257.396 70.8619C257.236 70.6248 257.076 70.392 256.921 70.1592C257.499 70.5731 258.384 71.2025 258.518 71.2284C258.721 71.2672 257.806 68.909 257.806 68.909L258.868 70.1118L258.376 68.2839L258.829 67.7148C259.593 70.0428 264.587 76.7208 265.675 77.1303C267.039 77.6433 268.209 80.3119 268.209 80.3119C268.209 80.3119 268.204 80.3119 268.204 80.3162H268.2C268.174 80.3464 268.062 80.48 267.941 80.7516C267.868 80.9155 268.079 81.0146 268.295 81.1353C268.489 81.2431 268.688 81.3768 268.696 81.5966C268.718 82.0795 268.114 82.6485 267.967 82.8641Z" fill="#2C4044"/>
<path d="M267.967 82.8641C267.777 82.5925 268.187 81.9846 268.878 81.5061C269.568 81.0232 270.281 80.8551 270.471 81.1224C270.661 81.394 270.25 82.0019 269.564 82.4804C268.869 82.9632 268.157 83.1357 267.967 82.8641Z" fill="#49686D"/>
<path d="M268.273 82.6962C268.148 82.5151 268.476 82.0711 269.012 81.7003C269.543 81.3296 270.078 81.1744 270.203 81.3555C270.328 81.5365 270 81.9806 269.465 82.3513C268.93 82.7178 268.399 82.873 268.273 82.6962Z" fill="#2C4044"/>
<path opacity="0.2" d="M192.604 172.208C192.307 171.57 190.994 171.781 190.994 171.781C190.994 171.781 191.486 170.992 190.813 170.578C190.14 170.173 186.872 171.949 186.872 171.949C186.872 171.949 185.84 171.393 184.256 170.716C182.642 170.035 180.445 169.233 178.183 168.789C177.919 168.738 177.63 168.703 177.328 168.677L177.915 168.561C178.355 168.475 178.489 167.772 178.096 167.539C178.066 167.522 178.036 167.509 178.006 167.496C177.609 167.358 175.403 167.492 173.823 168.837C171.963 169.104 169.99 169.626 168.315 170.315C167.344 170.712 166.476 171.165 165.786 171.656C165.591 171.794 165.056 171.885 164.892 172.031C164.141 172.691 164.094 173.454 164.201 174.187C164.43 175.691 173.555 177.743 177.66 177.42C178.766 177.338 179.953 176.993 181.096 176.541C184.235 175.308 187.088 173.238 187.088 173.238C187.088 173.238 192.414 174.139 192.652 173.32C192.691 173.182 192.669 172.337 192.604 172.208Z" fill="#5F624F"/>
<path d="M192.652 172.557C192.414 173.269 187.088 172.484 187.088 172.484C187.088 172.484 184.235 174.286 181.096 175.36C179.952 175.756 178.765 176.054 177.66 176.127C173.555 176.407 164.43 174.622 164.201 173.312C164.093 172.678 164.499 172.053 165.25 171.48C165.414 171.354 165.591 171.229 165.786 171.109C166.472 170.682 167.344 170.285 168.315 169.94C171.47 168.811 175.683 168.19 178.183 168.613C180.449 169.001 182.642 169.699 184.256 170.29C185.84 170.876 186.872 171.363 186.872 171.363C186.872 171.363 190.144 169.82 190.813 170.173C191.486 170.531 190.994 171.221 190.994 171.221C190.994 171.221 192.306 171.652 192.604 172.208C192.669 172.324 192.691 172.437 192.652 172.557Z" fill="#A88E6E"/>
<path opacity="0.5" d="M192.652 172.557C192.414 173.269 187.088 172.484 187.088 172.484C187.088 172.484 184.235 174.286 181.096 175.359C179.952 175.756 178.765 176.054 177.66 176.127C173.555 176.407 164.43 174.622 164.201 173.312C164.093 172.678 164.499 172.053 165.25 171.479C164.495 174.389 178.032 175.898 181.066 174.609C184.256 173.256 186.527 172.221 186.527 172.221C186.527 172.221 192.155 173.044 192.609 172.208C192.669 172.324 192.691 172.437 192.652 172.557Z" fill="#A88E6E"/>
<path opacity="0.3" d="M174.837 172.131C169.899 171.988 167.508 171.311 168.311 169.945C171.466 168.815 175.679 168.195 178.178 168.617C180.445 169.005 182.637 169.703 184.252 170.294C186.704 172.303 180.471 172.294 174.837 172.131Z" fill="#A88E6E"/>
<path opacity="0.5" d="M171.255 169.289C173.439 169.725 172.317 171.721 171.194 172.342C173.75 171.656 173.314 168.914 171.255 169.289Z" fill="#A88E6E"/>
<path d="M173.171 169.246C174.717 167.522 177.548 167.354 178.001 167.492C178.036 167.5 178.066 167.513 178.092 167.531C178.485 167.738 178.351 168.345 177.911 168.423L173.171 169.246Z" fill="#C4A680"/>
<path d="M170.378 170.1C170.413 170.277 170.098 170.492 169.666 170.583C169.235 170.673 168.859 170.6 168.82 170.423C168.786 170.246 169.101 170.031 169.532 169.94C169.964 169.85 170.344 169.923 170.378 170.1Z" fill="#6A5943"/>
<path d="M176.901 174.092C178.955 175.825 182.353 174.773 182.53 174.045C182.707 173.312 178.282 173.89 176.901 174.092Z" fill="#C4A680"/>
</g>
<defs>
<linearGradient id="paint0_linear_1876_26536" x1="150" y1="2.5881" x2="150" y2="49.98" gradientUnits="userSpaceOnUse">
<stop stop-color="#D0EFEA"/>
<stop offset="1" stop-color="#E9F9E8"/>
</linearGradient>
<linearGradient id="paint1_linear_1876_26536" x1="150" y1="44.9372" x2="150" y2="187.983" gradientUnits="userSpaceOnUse">
<stop stop-color="#88C2BD"/>
<stop offset="1" stop-color="#394F30"/>
</linearGradient>
<linearGradient id="paint2_linear_1876_26536" x1="30.2622" y1="19.5443" x2="30.2622" y2="3.10053" gradientUnits="userSpaceOnUse">
<stop stop-color="#B6D2CE"/>
<stop offset="0.5639" stop-color="#C7E5E1"/>
<stop offset="1" stop-color="#D0EFEA"/>
</linearGradient>
<linearGradient id="paint3_linear_1876_26536" x1="122.86" y1="106.345" x2="121.875" y2="103.788" gradientUnits="userSpaceOnUse">
<stop stop-color="#FFB17D"/>
<stop offset="0.2595" stop-color="#FAAC7A"/>
<stop offset="0.5863" stop-color="#ED9C71"/>
<stop offset="0.8382" stop-color="#DE8B68"/>
<stop offset="0.9069" stop-color="#E48F6B"/>
<stop offset="0.9974" stop-color="#F49973"/>
<stop offset="1" stop-color="#F59973"/>
</linearGradient>
<linearGradient id="paint4_linear_1876_26536" x1="93.0938" y1="111.563" x2="93.0938" y2="55.1152" gradientUnits="userSpaceOnUse">
<stop stop-color="#03B04E"/>
<stop offset="1" stop-color="#02C320"/>
</linearGradient>
<linearGradient id="paint5_linear_1876_26536" x1="85.521" y1="110.2" x2="85.521" y2="48.0283" gradientUnits="userSpaceOnUse">
<stop stop-color="#03B04E"/>
<stop offset="1" stop-color="#02C320"/>
</linearGradient>
<clipPath id="clip0_1876_26536">
<rect y="-2" width="300" height="194" rx="8" fill="white"/>
</clipPath>
</defs>
</svg>
