<svg width="264" height="194" viewBox="0 0 264 194" fill="none" xmlns="http://www.w3.org/2000/svg">
<g clip-path="url(#clip0_1876_25371)">
<path d="M257.911 192.37C257.899 192.447 257.885 192.525 257.871 192.605L256.457 192.61L251.218 192.638L234.063 192.725L206.807 192.862L134.855 193.226L132.931 193.236H131.616L122.248 193.23H121.037L14.9523 193.168C14.9523 193.168 12.7971 187.902 10.1245 179.241C5.87379 165.476 0.313444 143.143 0.0131781 119.765C-0.0627927 113.968 0.185922 108.108 0.857902 102.297C2.352 89.3811 5.93891 76.7148 12.7193 65.5607C37.0182 25.5942 70.7231 26.6896 82.9535 30.461C138.883 47.7088 127.878 20.7845 163.088 4.70902C182.321 -4.07181 196.581 0.340934 206.807 10.4306C222.107 25.5272 228.368 53.3385 228.73 68.651C228.961 78.4044 231.032 84.0491 234.063 87.7373C242.103 97.5205 256.904 93.5693 262.121 116.109C265.209 129.457 264.937 152.092 257.911 192.37Z" fill="#EBF3FA"/>
<path opacity="0.5" d="M231.191 90.2396V192.809L149.711 193.236H148.262L137.927 193.228H136.594L134.165 193.226L19.5886 193.157C19.5886 193.157 16.0523 188.81 12.1772 179.573C8.02078 166.135 2.58272 144.332 2.28906 121.508C2.3386 116.149 2.59953 110.467 3.11521 104.454C4.57644 91.8445 8.08447 79.4784 14.7158 68.5888C38.4803 29.5699 71.4439 30.6393 83.4053 34.3213C138.105 51.1601 127.342 24.8742 161.778 9.17989C180.587 0.60725 194.534 4.91537 204.535 14.7658C219.498 29.5045 225.622 56.6564 225.976 71.6059C226.202 81.1292 228.226 86.6401 231.191 90.2396Z" fill="#D1E3FD"/>
<path d="M174.945 28.0396H162.352V34.808H174.945V28.0396Z" fill="#D1E3FD"/>
<path d="M202.172 28.0396H189.579V34.808H202.172V28.0396Z" fill="#D6E6FE"/>
<path d="M168.303 19.8584H155.709V26.6268H168.303V19.8584Z" fill="#B7D1F8"/>
<path d="M195.876 19.8584H183.283V26.6268H195.876V19.8584Z" fill="#D1E3FD"/>
<path d="M161.159 44.415H148.566V51.1835H161.159V44.415Z" fill="#D1E3FD"/>
<path d="M174.945 44.415H162.352V51.1835H174.945V44.415Z" fill="#D1E3FD"/>
<path d="M188.732 44.415H176.139V51.1835H188.732V44.415Z" fill="#D1E3FD"/>
<path d="M202.519 44.415H189.926V51.1835H202.519V44.415Z" fill="#D1E3FD"/>
<path d="M216.306 44.415H203.713V51.1835H216.306V44.415Z" fill="#D6E6FE"/>
<path d="M92.3827 44.415H79.7896V51.1835H92.3827V44.415Z" fill="#D1E3FD"/>
<path d="M119.956 44.415H107.362V51.1835H119.956V44.415Z" fill="#D1E3FD"/>
<path d="M50.822 44.415H38.2289V51.1835H50.822V44.415Z" fill="#D1E3FD"/>
<path d="M78.3949 44.415H65.8018V51.1835H78.3949V44.415Z" fill="#D1E3FD"/>
<path d="M133.742 44.415H121.149V51.1835H133.742V44.415Z" fill="#D1E3FD"/>
<path d="M147.528 44.415H134.935V51.1835H147.528V44.415Z" fill="#D6E6FE"/>
<path d="M168.303 36.2339H155.709V43.0023H168.303V36.2339Z" fill="#D1E3FD"/>
<path d="M182.089 36.2339H169.496V43.0023H182.089V36.2339Z" fill="#D1E3FD"/>
<path d="M142.124 36.2339H129.53V43.0023H142.124V36.2339Z" fill="#D1E3FD"/>
<path d="M72.0988 36.2339H59.5056V43.0023H72.0988V36.2339Z" fill="#D1E3FD"/>
<path d="M209.663 36.2339H197.07V43.0023H209.663V36.2339Z" fill="#D6E6FE"/>
<path d="M161.159 60.7632H148.566V67.5316H161.159V60.7632Z" fill="#D1E3FD"/>
<path d="M174.945 60.7632H162.352V67.5316H174.945V60.7632Z" fill="#D1E3FD"/>
<path d="M188.732 60.7632H176.139V67.5316H188.732V60.7632Z" fill="#D1E3FD"/>
<path d="M202.519 60.7632H189.926V67.5316H202.519V60.7632Z" fill="#D1E3FD"/>
<path d="M216.306 60.7632H203.713V67.5316H216.306V60.7632Z" fill="#D6E6FE"/>
<path d="M119.956 60.7632H107.362V67.5316H119.956V60.7632Z" fill="#D1E3FD"/>
<path d="M133.742 60.7632H121.149V67.5316H133.742V60.7632Z" fill="#D1E3FD"/>
<path d="M36.9443 60.7632H24.3512V67.5316H36.9443V60.7632Z" fill="#D1E3FD"/>
<path d="M50.7308 60.7632H38.1377V67.5316H50.7308V60.7632Z" fill="#D1E3FD"/>
<path d="M147.528 60.7632H134.935V67.5316H147.528V60.7632Z" fill="#D6E6FE"/>
<path d="M182.089 52.5825H169.496V59.3509H182.089V52.5825Z" fill="#D1E3FD"/>
<path d="M209.663 52.5825H197.07V59.3509H209.663V52.5825Z" fill="#D6E6FE"/>
<path d="M99.5785 52.5825H86.9854V59.3509H99.5785V52.5825Z" fill="#D1E3FD"/>
<path d="M113.365 52.5825H100.772V59.3509H113.365V52.5825Z" fill="#D1E3FD"/>
<path d="M58.0425 52.5825H45.4493V59.3509H58.0425V52.5825Z" fill="#D1E3FD"/>
<path d="M71.829 52.5825H59.2358V59.3509H71.829V52.5825Z" fill="#D1E3FD"/>
<path d="M85.6154 52.5825H73.0222V59.3509H85.6154V52.5825Z" fill="#D1E3FD"/>
<path d="M154.371 52.5825H141.778V59.3509H154.371V52.5825Z" fill="#D1E3FD"/>
<path d="M140.939 52.5825H128.346V59.3509H140.939V52.5825Z" fill="#D6E6FE"/>
<path d="M161.159 77.522H148.566V84.2904H161.159V77.522Z" fill="#C4DAFB"/>
<path d="M174.945 77.522H162.352V84.2904H174.945V77.522Z" fill="#D1E3FD"/>
<path d="M188.732 77.522H176.139V84.2904H188.732V77.522Z" fill="#D1E3FD"/>
<path d="M202.519 77.522H189.926V84.2904H202.519V77.522Z" fill="#D1E3FD"/>
<path d="M216.306 77.522H203.713V84.2904H216.306V77.522Z" fill="#C4DAFB"/>
<path d="M147.373 77.522H134.779V84.2904H147.373V77.522Z" fill="#D6E6FE"/>
<path d="M120.082 77.522H107.489V84.2904H120.082V77.522Z" fill="#D1E3FD"/>
<path d="M133.868 77.522H121.275V84.2904H133.868V77.522Z" fill="#C4DAFB"/>
<path d="M23.2492 77.522H10.656V84.2904H23.2492V77.522Z" fill="#D6E6FE"/>
<path d="M154.516 69.3408H141.923V76.1092H154.516V69.3408Z" fill="#D1E3FD"/>
<path d="M168.303 69.3408H155.709V76.1092H168.303V69.3408Z" fill="#D1E3FD"/>
<path d="M182.089 69.3408H169.496V76.1092H182.089V69.3408Z" fill="#D1E3FD"/>
<path d="M209.663 69.3408H197.07V76.1092H209.663V69.3408Z" fill="#D6E6FE"/>
<path d="M30.7385 69.3408H18.1454V76.1092H30.7385V69.3408Z" fill="#D1E3FD"/>
<path d="M113.857 69.3408H101.264V76.1092H113.857V69.3408Z" fill="#D1E3FD"/>
<path d="M127.644 69.3408H115.05V76.1092H127.644V69.3408Z" fill="#D6E6FE"/>
<path d="M154.516 85.6289H141.923V92.3973H154.516V85.6289Z" fill="#D1E3FD"/>
<path d="M168.303 85.6289H155.709V92.3973H168.303V85.6289Z" fill="#D1E3FD"/>
<path d="M195.876 85.6289H183.283V92.3973H195.876V85.6289Z" fill="#D1E3FD"/>
<path d="M223.095 85.6289H210.502V92.3973H223.095V85.6289Z" fill="#D1E3FD"/>
<path d="M209.663 85.6289H197.07V92.3973H209.663V85.6289Z" fill="#D6E6FE"/>
<path d="M72.2004 85.6289H59.6073V92.3973H72.2004V85.6289Z" fill="#D1E3FD"/>
<path d="M85.9868 85.6289H73.3937V92.3973H85.9868V85.6289Z" fill="#D1E3FD"/>
<path d="M43.9293 85.6289H31.3362V92.3973H43.9293V85.6289Z" fill="#D1E3FD"/>
<path d="M57.7157 85.6289H45.1226V92.3973H57.7157V85.6289Z" fill="#D1E3FD"/>
<path d="M99.7733 85.6289H87.1802V92.3973H99.7733V85.6289Z" fill="#D1E3FD"/>
<path d="M113.56 85.6289H100.967V92.3973H113.56V85.6289Z" fill="#D1E3FD"/>
<path d="M140.779 85.6289H128.186V92.3973H140.779V85.6289Z" fill="#D1E3FD"/>
<path d="M127.346 85.6289H114.753V92.3973H127.346V85.6289Z" fill="#D6E6FE"/>
<path d="M161.159 93.604H148.566V100.372H161.159V93.604Z" fill="#D1E3FD"/>
<path d="M174.945 93.604H162.352V100.372H174.945V93.604Z" fill="#D1E3FD"/>
<path d="M188.732 93.604H176.139V100.372H188.732V93.604Z" fill="#D1E3FD"/>
<path d="M216.306 93.604H203.713V100.372H216.306V93.604Z" fill="#D6E6FE"/>
<path d="M92.283 93.604H79.6898V100.372H92.283V93.604Z" fill="#D1E3FD"/>
<path d="M106.07 93.604H93.4772V100.372H106.07V93.604Z" fill="#D1E3FD"/>
<path d="M119.857 93.604H107.264V100.372H119.857V93.604Z" fill="#D1E3FD"/>
<path d="M50.1342 93.604H37.541V100.372H50.1342V93.604Z" fill="#D1E3FD"/>
<path d="M63.9205 93.604H51.3274V100.372H63.9205V93.604Z" fill="#D1E3FD"/>
<path d="M77.707 93.604H65.1139V100.372H77.707V93.604Z" fill="#D1E3FD"/>
<path d="M147.43 93.604H134.836V100.372H147.43V93.604Z" fill="#D6E6FE"/>
<path d="M131.538 109.949H118.945V116.718H131.538V109.949Z" fill="#D1E3FD"/>
<path d="M145.739 109.949H133.145V116.718H145.739V109.949Z" fill="#D1E3FD"/>
<path d="M159.768 109.949H147.175V116.718H159.768V109.949Z" fill="#D1E3FD"/>
<path d="M117.463 109.949H104.87V116.718H117.463V109.949Z" fill="#D1E3FD"/>
<path d="M88.8836 109.949H76.2904V116.718H88.8836V109.949Z" fill="#D1E3FD"/>
<path d="M103.084 109.949H90.4911V116.718H103.084V109.949Z" fill="#D1E3FD"/>
<path d="M74.8103 109.949H62.2172V116.718H74.8103V109.949Z" fill="#D1E3FD"/>
<path d="M216.306 109.949H203.713V116.718H216.306V109.949Z" fill="#D6E6FE"/>
<path d="M168.303 101.768H155.709V108.536H168.303V101.768Z" fill="#B7D1F8"/>
<path d="M182.089 101.768H169.496V108.536H182.089V101.768Z" fill="#D1E3FD"/>
<path d="M195.876 101.768H183.283V108.536H195.876V101.768Z" fill="#D1E3FD"/>
<path d="M223.095 101.768H210.502V108.536H223.095V101.768Z" fill="#D1E3FD"/>
<path d="M98.6788 101.768H86.0857V108.536H98.6788V101.768Z" fill="#B7D1F8"/>
<path d="M112.465 101.768H99.8721V108.536H112.465V101.768Z" fill="#D1E3FD"/>
<path d="M126.253 101.768H113.66V108.536H126.253V101.768Z" fill="#D1E3FD"/>
<path d="M57.118 101.768H44.5249V108.536H57.118V101.768Z" fill="#B7D1F8"/>
<path d="M70.9055 101.768H58.3124V108.536H70.9055V101.768Z" fill="#D1E3FD"/>
<path d="M84.6919 101.768H72.0988V108.536H84.6919V101.768Z" fill="#D1E3FD"/>
<path d="M153.471 101.768H140.878V108.536H153.471V101.768Z" fill="#D1E3FD"/>
<path d="M229.191 101.768H223.923V108.538H229.191V101.768Z" fill="#D6E6FE"/>
<path d="M174.945 126.323H162.352V133.092H174.945V126.323Z" fill="#D1E3FD"/>
<path d="M188.732 126.323H176.139V133.092H188.732V126.323Z" fill="#D1E3FD"/>
<path d="M118.852 126.323H106.258V133.092H118.852V126.323Z" fill="#D1E3FD"/>
<path d="M132.639 126.323H120.046V133.092H132.639V126.323Z" fill="#D1E3FD"/>
<path d="M146.425 126.323H133.832V133.092H146.425V126.323Z" fill="#D1E3FD"/>
<path d="M76.908 126.323H64.3148V133.092H76.908V126.323Z" fill="#D1E3FD"/>
<path d="M90.6945 126.323H78.1013V133.092H90.6945V126.323Z" fill="#D1E3FD"/>
<path d="M104.482 126.323H91.8887V133.092H104.482V126.323Z" fill="#D1E3FD"/>
<path d="M202.519 126.323H189.926V133.092H202.519V126.323Z" fill="#D1E3FD"/>
<path d="M216.306 126.323H203.713V133.092H216.306V126.323Z" fill="#D6E6FE"/>
<path d="M139.441 118.144H126.848V124.912H139.441V118.144Z" fill="#D1E3FD"/>
<path d="M125.256 118.144H112.663V124.912H125.256V118.144Z" fill="#D1E3FD"/>
<path d="M153.228 118.144H140.635V124.912H153.228V118.144Z" fill="#D1E3FD"/>
<path d="M96.733 118.144H84.1399V124.912H96.733V118.144Z" fill="#D1E3FD"/>
<path d="M82.5476 118.144H69.9545V124.912H82.5476V118.144Z" fill="#D1E3FD"/>
<path d="M110.519 118.144H97.9263V124.912H110.519V118.144Z" fill="#D1E3FD"/>
<path d="M223.095 118.144H210.502V124.912H223.095V118.144Z" fill="#D1E3FD"/>
<path d="M209.663 118.144H197.07V124.912H209.663V118.144Z" fill="#D6E6FE"/>
<path d="M229.191 118.143H223.923V124.912H229.191V118.143Z" fill="#D6E6FE"/>
<path d="M161.159 142.672H148.566V149.44H161.159V142.672Z" fill="#D1E3FD"/>
<path d="M174.945 142.672H162.352V149.44H174.945V142.672Z" fill="#D1E3FD"/>
<path d="M202.519 142.672H189.926V149.44H202.519V142.672Z" fill="#D1E3FD"/>
<path d="M104.968 142.672H92.3751V149.44H104.968V142.672Z" fill="#D1E3FD"/>
<path d="M118.755 142.672H106.161V149.44H118.755V142.672Z" fill="#D1E3FD"/>
<path d="M77.1104 142.672H64.5172V149.44H77.1104V142.672Z" fill="#D1E3FD"/>
<path d="M90.8968 142.672H78.3037V149.44H90.8968V142.672Z" fill="#D1E3FD"/>
<path d="M132.542 142.672H119.949V149.44H132.542V142.672Z" fill="#D1E3FD"/>
<path d="M146.328 142.672H133.735V149.44H146.328V142.672Z" fill="#D1E3FD"/>
<path d="M216.306 142.672H203.713V149.44H216.306V142.672Z" fill="#D6E6FE"/>
<path d="M168.303 134.492H155.709V141.261H168.303V134.492Z" fill="#D1E3FD"/>
<path d="M182.089 134.492H169.496V141.261H182.089V134.492Z" fill="#D1E3FD"/>
<path d="M195.876 134.492H183.283V141.261H195.876V134.492Z" fill="#D1E3FD"/>
<path d="M223.095 134.492H210.502V141.261H223.095V134.492Z" fill="#D1E3FD"/>
<path d="M209.663 134.492H197.07V141.261H209.663V134.492Z" fill="#D6E6FE"/>
<path d="M229.191 134.491H223.923V141.26H229.191V134.491Z" fill="#D6E6FE"/>
<path d="M161.159 159.431H148.566V166.199H161.159V159.431Z" fill="#C4DAFB"/>
<path d="M174.945 159.431H162.352V166.199H174.945V159.431Z" fill="#D1E3FD"/>
<path d="M188.732 159.431H176.139V166.199H188.732V159.431Z" fill="#D1E3FD"/>
<path d="M202.519 159.431H189.926V166.199H202.519V159.431Z" fill="#D1E3FD"/>
<path d="M216.306 159.431H203.713V166.199H216.306V159.431Z" fill="#C4DAFB"/>
<path d="M147.373 159.431H134.779V166.199H147.373V159.431Z" fill="#D6E6FE"/>
<path d="M77.8999 159.431H65.3068V166.199H77.8999V159.431Z" fill="#C4DAFB"/>
<path d="M91.6863 159.431H79.0931V166.199H91.6863V159.431Z" fill="#D1E3FD"/>
<path d="M105.473 159.431H92.8796V166.199H105.473V159.431Z" fill="#D1E3FD"/>
<path d="M119.259 159.431H106.666V166.199H119.259V159.431Z" fill="#D1E3FD"/>
<path d="M133.047 159.431H120.453V166.199H133.047V159.431Z" fill="#C4DAFB"/>
<path d="M64.1134 159.431H51.5203V166.199H64.1134V159.431Z" fill="#D6E6FE"/>
<path d="M154.516 151.251H141.923V158.019H154.516V151.251Z" fill="#D1E3FD"/>
<path d="M168.303 151.251H155.709V158.019H168.303V151.251Z" fill="#D1E3FD"/>
<path d="M182.089 151.251H169.496V158.019H182.089V151.251Z" fill="#D1E3FD"/>
<path d="M195.876 151.251H183.283V158.019H195.876V151.251Z" fill="#D1E3FD"/>
<path d="M223.095 151.251H210.502V158.019H223.095V151.251Z" fill="#D1E3FD"/>
<path d="M209.663 151.251H197.07V158.019H209.663V151.251Z" fill="#D6E6FE"/>
<path d="M84.8923 151.251H72.2992V158.019H84.8923V151.251Z" fill="#D1E3FD"/>
<path d="M98.6788 151.251H86.0857V158.019H98.6788V151.251Z" fill="#D1E3FD"/>
<path d="M112.465 151.251H99.8721V158.019H112.465V151.251Z" fill="#D1E3FD"/>
<path d="M126.252 151.251H113.659V158.019H126.252V151.251Z" fill="#D1E3FD"/>
<path d="M140.038 151.251H127.445V158.019H140.038V151.251Z" fill="#D6E6FE"/>
<path d="M28.8574 151.251H16.2643V158.019H28.8574V151.251Z" fill="#D1E3FD"/>
<path d="M42.6438 151.251H30.0507V158.019H42.6438V151.251Z" fill="#D1E3FD"/>
<path d="M56.4303 151.251H43.8372V158.019H56.4303V151.251Z" fill="#D1E3FD"/>
<path d="M70.2177 151.251H57.6245V158.019H70.2177V151.251Z" fill="#D6E6FE"/>
<path d="M229.191 151.251H223.923V158.021H229.191V151.251Z" fill="#D6E6FE"/>
<path d="M168.303 167.539H155.709V174.307H168.303V167.539Z" fill="#D1E3FD"/>
<path d="M182.089 167.539H169.496V174.307H182.089V167.539Z" fill="#D1E3FD"/>
<path d="M195.876 167.539H183.283V174.307H195.876V167.539Z" fill="#D1E3FD"/>
<path d="M223.095 167.539H210.502V174.307H223.095V167.539Z" fill="#D1E3FD"/>
<path d="M209.663 167.539H197.07V174.307H209.663V167.539Z" fill="#D6E6FE"/>
<path d="M71.5857 167.539H58.9926V174.307H71.5857V167.539Z" fill="#D1E3FD"/>
<path d="M85.3722 167.539H72.7791V174.307H85.3722V167.539Z" fill="#D1E3FD"/>
<path d="M99.1586 167.539H86.5654V174.307H99.1586V167.539Z" fill="#D1E3FD"/>
<path d="M112.945 167.539H100.352V174.307H112.945V167.539Z" fill="#D1E3FD"/>
<path d="M140.164 167.539H127.571V174.307H140.164V167.539Z" fill="#D1E3FD"/>
<path d="M126.731 167.539H114.138V174.307H126.731V167.539Z" fill="#D6E6FE"/>
<path d="M229.191 167.538H223.923V174.307H229.191V167.538Z" fill="#D6E6FE"/>
<path d="M159.966 176.19H147.373V182.959H159.966V176.19Z" fill="#D1E3FD"/>
<path d="M173.752 176.19H161.159V182.959H173.752V176.19Z" fill="#D1E3FD"/>
<path d="M187.539 176.19H174.945V182.959H187.539V176.19Z" fill="#D1E3FD"/>
<path d="M201.325 176.19H188.732V182.959H201.325V176.19Z" fill="#D1E3FD"/>
<path d="M228.544 176.19H215.951V182.959H228.544V176.19Z" fill="#D1E3FD"/>
<path d="M215.111 176.19H202.518V182.959H215.111V176.19Z" fill="#D6E6FE"/>
<path d="M89.8906 176.19H77.2975V182.959H89.8906V176.19Z" fill="#D1E3FD"/>
<path d="M117.463 176.19H104.87V182.959H117.463V176.19Z" fill="#D1E3FD"/>
<path d="M131.25 176.19H118.657V182.959H131.25V176.19Z" fill="#D1E3FD"/>
<path d="M145.037 176.19H132.444V182.959H145.037V176.19Z" fill="#D6E6FE"/>
<path d="M184.375 193.707H233.47V165.188H184.375V193.707Z" fill="#027D37"/>
<path d="M208.95 193.51H258.045V164.991H208.95V193.51Z" fill="#03A047"/>
<path d="M208.95 190.746H216.73L216.045 187.891L216.73 185.851H208.95V190.746Z" fill="#35C071"/>
<path d="M208.95 185.851H201.171L201.856 188.705L201.171 190.746H208.95V185.851Z" fill="#02612B"/>
<path d="M258.046 179.245H250.266L250.952 181.899L250.266 183.796H258.046V179.245Z" fill="#35C071"/>
<path d="M184.404 164.992L180.069 172.035H204.052L208.95 164.992H184.404Z" fill="#03A047"/>
<path d="M258.139 165.186L258.045 164.991H208.95C208.329 164.597 213.06 172.148 213.06 172.148H261.476L258.139 165.186Z" fill="#35C071"/>
<path d="M192.99 114.325C192.99 114.325 210.312 139.148 211.467 140.056C212.623 140.966 191.54 144.093 191.54 144.093L184.341 132.263C184.341 132.263 193.45 113.977 192.99 114.325Z" fill="#03A047"/>
<path d="M218.495 182.507C218.495 182.507 219.118 193.194 221.182 193.354C221.456 193.376 231.655 193.412 231.655 193.412L244.674 193.384C244.674 193.384 244.601 190.244 240.798 189.566C236.995 188.888 230.634 186.188 228.348 181.145C225.942 175.84 218.495 182.507 218.495 182.507Z" fill="#162947"/>
<path d="M180.666 163.547C180.666 163.547 192.608 139.519 202.806 133.444C204.685 132.325 209.505 132.22 211.311 132.484C220.716 133.869 229.009 183.823 229.009 183.823L218.017 184.544L210.774 161.758C210.774 161.758 199.161 192.342 178.303 193.225C156.687 194.14 162.677 174.57 162.677 174.57L180.666 163.547Z" fill="#233862"/>
<path d="M182.263 104.881C182.28 105.248 182.3 105.639 182.321 106.037C182.488 109.292 180.927 113.815 180.927 113.815C178.021 115.149 175.258 115.092 172.895 114.453C170.734 113.875 168.909 112.807 167.618 111.877C166.292 110.925 165.527 110.116 165.527 110.116C165.527 110.116 165.631 109.983 165.807 109.719C166.717 108.337 169.528 103.337 168.851 95.0187C168.842 94.9119 169.649 95.1091 170.868 95.4679C170.935 95.4895 171.006 95.5099 171.076 95.5289C174.765 96.632 181.767 99.038 182.082 99.1462C182.092 99.1487 182.096 99.1474 182.096 99.1474C182.096 99.1474 182.091 100.889 182.226 104.018L182.263 104.881Z" fill="#FFB27D"/>
<path d="M182.097 99.1486C182.097 99.1486 182.092 100.89 182.227 104.019L182.321 106.141C174.384 105.849 169.177 96.4805 169.177 96.4805C169.791 96.0734 170.427 95.7591 171.078 95.5288C174.766 96.6319 181.768 99.0379 182.083 99.146C182.092 99.1498 182.097 99.1486 182.097 99.1486Z" fill="#ED975D"/>
<path d="M184.378 98.8328C184.378 98.8328 182.08 99.5198 179.184 99.7501C174.95 100.09 169.443 99.4537 167.984 94.269C165.526 85.5421 162.068 80.2022 170.864 77.1728C175.572 75.5506 178.525 75.6116 180.487 76.4361C182.193 77.1473 183.151 78.4362 183.86 79.6971C185.389 82.4097 187.939 97.5223 184.378 98.8328Z" fill="#FFB27D"/>
<path d="M185.594 76.7913C186.627 77.5751 185.363 78.6769 184.183 79.2138C180.544 80.8729 178.34 80.3004 176.525 80.9938C174.334 81.8284 173.753 85.4011 173.653 86.5398C173.552 87.6811 173.35 88.6354 170.48 87.7943C170.01 87.6569 169.665 87.6709 169.421 87.8007C168.177 88.4509 169.529 92.0057 169.953 92.7818C169.953 92.7818 170.487 95.3036 168.937 96.4334C168.75 96.5683 165.765 97.6854 159.324 86.5411C158.311 84.7917 157.465 80.9289 159.369 77.3575C161.272 73.7861 167.182 71.4806 172.664 70.4793C176.183 69.8368 178.12 69.95 180.293 72.3115C181.224 73.3242 183.497 75.2009 185.594 76.7913Z" fill="#233862"/>
<path d="M167.788 178.429C182.945 174.754 185.396 167.625 185.396 167.625C190.275 162.309 184.516 159.08 186.602 151.806C188.468 145.297 197.908 121.149 192.99 114.323C190.772 111.244 182.159 107.786 182.159 107.786C175.515 110.344 167.723 104.588 167.723 104.588C167.531 104.591 167.342 104.609 167.153 104.622C166.564 104.403 160.223 104.421 158.663 105C154.81 106.427 149.235 114.116 144.667 132.345C139.207 154.131 141.515 168.164 144.45 175.345C145.59 178.133 165.315 179.029 167.788 178.429Z" fill="#03A047"/>
<path d="M167.195 104.639C167.195 104.639 174.973 115.419 181.796 114.436C181.796 114.436 182.854 113.287 179.966 112.448C177.079 111.611 173.874 111.315 167.195 104.639Z" fill="#027D37"/>
<path d="M141.333 159.611C147.213 165.671 155.271 170.413 161.522 170.252C166.839 170.116 170.873 165.461 170.873 165.461L145.215 155.776C144.786 158.611 141.752 157.09 141.333 159.611Z" fill="#027D37"/>
<path d="M171.98 157.774C171.98 157.774 160.43 151.025 158.677 145.883C156.925 140.742 157.802 129.236 157.802 129.236L145.639 140.297L145.436 154.806L170.419 162.352L171.98 157.774Z" fill="#027D37"/>
<path d="M205.318 182.987C205.318 182.987 205.927 193.43 207.944 193.588C208.212 193.608 218.18 193.645 218.18 193.645L230.903 193.618C230.903 193.618 230.83 190.549 227.114 189.887C223.397 189.224 217.182 186.585 214.947 181.656C212.596 176.471 205.318 182.987 205.318 182.987Z" fill="#233862"/>
<path d="M168.002 164.083C168.002 164.083 182.559 131.478 198.618 131.397C202.034 131.379 204.084 133.346 205.342 136.842C211.344 153.524 217.099 184.583 217.099 184.583L204.264 185.127L195.352 168.313C195.352 168.313 184.323 192.789 175.104 193.007C170.087 193.127 167.634 193.324 161.556 193.262C144.502 193.085 142.986 170.437 142.986 170.437C142.986 170.437 146.629 171.719 152.931 170.794C166.03 168.872 168.002 164.083 168.002 164.083Z" fill="#213F7A"/>
<path d="M170.314 164.121C170.314 164.121 176.134 165.466 178.873 164.454C181.612 163.443 185.966 160.673 185.424 159.602C184.882 158.53 179.229 158.77 178.12 158.418C177.012 158.067 179.145 156.809 178.733 155.856C178.32 154.904 176.387 156.776 175.808 157.173C175.229 157.57 174.038 158.192 173.367 158.768C172.696 159.343 171.361 159.5 171.361 159.5L170.314 164.121Z" fill="#FFB27D"/>
<path d="M158.67 105.12C158.67 105.12 152.723 105.171 147.203 113.661C141.684 122.152 133.932 153.376 140.939 159.223C147.946 165.069 170.877 165.579 170.877 165.579C170.877 165.579 173.34 162.422 172.248 158.866C172.248 158.866 152.909 149.347 152.738 148.071C152.566 146.795 158.225 132.425 158.54 126.572C158.855 120.721 158.67 105.12 158.67 105.12Z" fill="#03A047"/>
<path d="M171.211 93.3012C171.211 93.3012 171.262 96.1575 171.974 98.1385C172.969 100.911 176.532 102.197 177.8 102.503C179.069 102.808 178.969 103.291 180.172 103.42C181.374 103.548 181.814 104.069 183.165 103.473C184.516 102.878 185.14 102.073 185.815 101.087C186.49 100.1 186.467 98.1245 186.728 97.2161C186.988 96.3064 187.623 93.8457 187.009 92.534C186.861 92.2184 185.937 89.8252 185.937 89.8252C185.937 89.8252 184.84 92.6459 183.581 92.5798C182.322 92.5136 180.725 93.4195 179.398 94.5531C178.07 95.6868 175.3 95.7249 173.829 94.889C172.359 94.0506 171.548 92.3088 171.211 93.3012Z" fill="#233862"/>
<path d="M184.137 94.366C183.517 94.1956 182.647 94.4678 181.862 94.7808C181.078 95.0938 180.197 96.0799 180.697 96.5773C181.196 97.0748 182.11 96.5748 183.038 96.2911C184.083 95.9717 185.984 94.8712 184.137 94.366Z" fill="#FFB27D"/>
<path d="M226.545 149.394L191.694 151.144L180.961 122.647L215.813 120.895L226.545 149.394Z" fill="#F9DDBF"/>
<path d="M198.297 134.472L197.441 134.515L193.513 130.024L195.246 134.626L194.391 134.669L191.948 128.183L192.803 128.139L196.746 132.648L195.006 128.029L195.855 127.985L198.297 134.472Z" fill="url(#paint0_linear_1876_25371)"/>
<path d="M201.79 131.346L199.766 131.447L200.517 133.444L202.881 133.325L203.221 134.225L200 134.386L197.557 127.9L200.754 127.74L201.096 128.648L198.754 128.765L199.429 130.557L201.453 130.455L201.79 131.346Z" fill="url(#paint1_linear_1876_25371)"/>
<path d="M206.4 131.114L204.376 131.216L205.127 133.212L207.491 133.094L207.831 133.993L204.61 134.155L202.167 127.669L205.364 127.508L205.706 128.417L203.364 128.534L204.039 130.325L206.063 130.223L206.4 131.114Z" fill="url(#paint2_linear_1876_25371)"/>
<path d="M209.223 133.923L206.78 127.437L208.234 127.365C208.563 127.348 208.891 127.405 209.218 127.538C209.544 127.67 209.856 127.865 210.152 128.124C210.448 128.384 210.722 128.701 210.973 129.075C211.224 129.45 211.438 129.871 211.615 130.341L211.735 130.661C211.912 131.131 212.018 131.557 212.053 131.941C212.089 132.325 212.058 132.656 211.962 132.934C211.865 133.211 211.705 133.43 211.481 133.589C211.258 133.748 210.975 133.837 210.635 133.853L209.223 133.923ZM207.977 128.302L209.739 132.981L210.297 132.953C210.529 132.941 210.715 132.881 210.853 132.773C210.992 132.665 211.083 132.514 211.129 132.322C211.175 132.128 211.176 131.895 211.133 131.622C211.09 131.348 211.005 131.043 210.877 130.704L210.753 130.375C210.489 129.671 210.17 129.139 209.797 128.779C209.425 128.419 209.018 128.251 208.576 128.273L207.977 128.302Z" fill="url(#paint3_linear_1876_25371)"/>
<path d="M202.023 144.356L201.171 144.4L200.085 141.517L197.882 141.627L198.968 144.51L198.112 144.554L195.67 138.067L196.525 138.024L197.542 140.724L199.744 140.613L198.728 137.913L199.581 137.87L202.023 144.356Z" fill="url(#paint4_linear_1876_25371)"/>
<path d="M205.515 141.23L203.492 141.332L204.243 143.328L206.607 143.21L206.946 144.11L203.725 144.271L201.282 137.785L204.479 137.625L204.821 138.533L202.48 138.65L203.155 140.441L205.178 140.34L205.515 141.23Z" fill="url(#paint5_linear_1876_25371)"/>
<path d="M208.855 143.096L211.091 142.984L211.43 143.883L208.338 144.038L205.895 137.552L206.75 137.509L208.855 143.096Z" fill="url(#paint6_linear_1876_25371)"/>
<path d="M212.727 141.363L213.634 143.772L212.779 143.816L210.336 137.329L212.221 137.235C212.507 137.221 212.782 137.259 213.042 137.351C213.303 137.443 213.544 137.576 213.768 137.753C213.99 137.93 214.19 138.142 214.365 138.39C214.541 138.639 214.684 138.912 214.796 139.209C214.914 139.523 214.98 139.808 214.994 140.061C215.008 140.314 214.972 140.532 214.883 140.711C214.794 140.891 214.656 141.033 214.468 141.136C214.281 141.239 214.044 141.298 213.758 141.313L212.727 141.363ZM212.386 140.458L213.415 140.406C213.578 140.398 213.711 140.364 213.809 140.304C213.906 140.244 213.976 140.164 214.016 140.062C214.055 139.961 214.068 139.841 214.051 139.704C214.035 139.566 213.997 139.419 213.937 139.258C213.88 139.107 213.807 138.962 213.72 138.824C213.632 138.687 213.529 138.565 213.412 138.46C213.295 138.356 213.164 138.275 213.022 138.216C212.879 138.158 212.726 138.133 212.562 138.141L211.533 138.193L212.386 140.458Z" fill="url(#paint7_linear_1876_25371)"/>
<path d="M221.812 131.044C221.812 131.044 219.177 129.617 217.534 130.763C215.892 131.909 221.02 138.695 222.983 137.842C224.945 136.99 222.839 131.693 221.812 131.044Z" fill="#FFB27D"/>
<path d="M65.5069 76.8088C65.5069 76.8088 75.1249 76.1026 79.1744 77.8864C83.2239 79.6702 93.7531 77.1574 99.5033 77.2783C105.253 77.3991 111.328 78.8407 111.328 78.8407H51.4404L65.5069 76.8088Z" fill="#17177A"/>
<path d="M100.444 78.0962L100.847 76.6279L96.9244 75.5503L96.5215 77.0185C96.3906 77.4969 96.1059 77.9117 95.7347 78.1662C93.832 79.4729 92.3767 81.5964 91.7043 84.0494L88.7911 94.6758C88.3755 96.1924 89.0377 97.6963 90.2731 98.036L95.103 99.3631C96.3359 99.7015 97.6731 98.7473 98.0887 97.2306L101.002 86.6042C101.674 84.1512 101.506 81.5824 100.535 79.4856C100.345 79.0759 100.313 78.5733 100.444 78.0962Z" fill="#F9DDBF"/>
<path d="M101.251 75.6496L97.0744 74.502L96.5189 76.5262L100.696 77.6738L101.251 75.6496Z" fill="#F77D48"/>
<path d="M87.4171 96.9868L87.5442 98.5046L91.5962 98.1637L91.4691 96.6458C91.4272 96.1521 91.5518 95.6636 91.8123 95.2971C93.1482 93.4141 93.7837 90.9178 93.5702 88.3833L92.6461 77.4019C92.5139 75.8344 91.3738 74.6512 90.099 74.7593L85.1089 75.1804C83.8341 75.2873 82.9075 76.6449 83.0397 78.2124L83.9637 89.1938C84.1772 91.7283 85.2195 94.0821 86.8515 95.7157C87.1718 96.0325 87.3751 96.4918 87.4171 96.9868Z" fill="#213F7A"/>
<path d="M87.5022 99.5618L91.8174 99.198L91.6407 97.105L87.3256 97.4689L87.5022 99.5618Z" fill="#213F7A"/>
<path d="M114.874 73.2793C114.242 73.7564 113.467 73.9944 112.746 74.3214C110.906 75.156 109.289 76.7846 109.056 78.7936C108.961 79.6193 109.101 80.4514 109.11 81.2822C109.129 83.206 108.409 85.1272 107.132 86.5649C106.625 87.1349 106.036 87.6298 105.556 88.2227C104.875 89.0663 104.427 90.1351 104.481 91.2178C104.534 92.3018 105.144 93.3807 106.125 93.8413C107.328 94.4062 108.825 93.9953 110.011 94.5958C110.579 94.8834 111.015 95.3783 111.559 95.7091C112.613 96.3516 114.029 96.2982 115.073 95.6391C116.117 94.9801 116.77 93.7713 116.826 92.5372C116.899 90.9519 116.069 89.3984 116.299 87.8283C116.718 84.9567 120.374 83.4465 120.868 80.5863C121.132 79.0569 120.412 77.5569 119.854 76.109C119.296 74.6611 118.914 72.9333 119.762 71.6342C119.017 71.2271 118.231 70.8975 117.418 70.6533C115.392 70.0476 116.081 72.3658 114.874 73.2793Z" fill="#213F7A"/>
<path d="M120.486 70.8748L119.896 72.8673C119.896 72.8673 116.075 72.7426 115.287 71.4995L115.877 69.5071C115.875 69.5058 118.472 68.9892 120.486 70.8748Z" fill="#FF9E55"/>
<path d="M104.188 65.1404L103.587 60.8666C103.344 59.1376 101.747 57.9327 100.019 58.1757L84.7008 60.3323C82.9265 60.5816 81.6898 62.2242 81.9389 64.0016L82.5274 68.1901L54.3537 72.1572C52.2704 72.4499 50.8202 74.3787 51.1125 76.4628L51.4392 78.7886L137.062 66.7321C137.638 66.6506 138.038 66.1188 137.957 65.5424L137.656 63.396C137.43 61.7891 135.945 60.6682 134.34 60.8946L104.188 65.1404ZM86.9582 62.8349L99.0673 61.13C100.139 60.9786 101.129 61.7267 101.28 62.7993L101.659 65.4979L85.0593 67.8352L84.7657 65.7486C84.5674 64.3375 85.5486 63.0334 86.9582 62.8349Z" fill="#9DB0F4"/>
<path d="M133.425 81.6527H52.5412C51.7659 81.6527 51.1367 81.0229 51.1367 80.2467C51.1367 79.4706 51.7659 78.8408 52.5412 78.8408H133.426C134.201 78.8408 134.83 79.4706 134.83 80.2467C134.83 81.0229 134.201 81.6527 133.425 81.6527Z" fill="#9DB0F4"/>
<path d="M127.547 193.571H58.3409L53.5288 81.6523H132.717L127.547 193.571Z" fill="#AEC3FF"/>
<path d="M127.836 187.426H58.0728V193.572H127.836V187.426Z" fill="#9DB0F4"/>
<path d="M86.8982 80.2773H85.9388V187.542H86.8982V80.2773Z" fill="#90A9F9"/>
<path d="M97.3752 80.2773H96.4159V187.542H97.3752V80.2773Z" fill="#90A9F9"/>
<path d="M75.8799 187.552L73.8844 80.2873L74.8428 80.2656L76.8383 187.53L75.8799 187.552Z" fill="#90A9F9"/>
<path d="M65.8222 187.563L61.5731 80.3002L62.5302 80.2544L66.7793 187.519L65.8222 187.563Z" fill="#90A9F9"/>
<path d="M108.192 187.552L107.234 187.53L109.229 80.2656L110.188 80.2873L108.192 187.552Z" fill="#90A9F9"/>
<path d="M118.25 187.563L117.293 187.519L121.542 80.2544L122.499 80.3002L118.25 187.563Z" fill="#90A9F9"/>
<path d="M84.3667 102.011L66.9065 100.347L55.7659 109.168L51.5194 125.581L56.7637 136.799L45.2901 131.972L18.5971 161.907L13.7341 187.372L22.7127 193.739H100.154L111.379 157.038L111.004 127.078L84.3667 102.011Z" fill="#03A047"/>
<path opacity="0.5" d="M45.29 131.972C45.29 131.972 55.4329 145.288 57.5949 145.787C59.7569 146.285 66.4082 145.288 66.2417 144.289C66.0752 143.29 56.7636 136.799 56.7636 136.799L45.29 131.972Z" fill="#027D37"/>
<path opacity="0.5" d="M18.597 161.907L32.7182 172.473C33.9104 173.365 34.485 174.864 34.1901 176.325C33.5622 179.442 32.4068 184.507 31.4891 184.737C30.1584 185.069 18.597 161.907 18.597 161.907Z" fill="#027D37"/>
<path opacity="0.5" d="M108.727 159.77C108.727 159.77 88.5242 170.256 87.7755 172.004C87.0269 173.752 94.0112 187.983 96.7554 185.986C99.4983 183.988 108.727 159.77 108.727 159.77Z" fill="#027D37"/>
<path d="M60.2565 103.842C60.2565 103.842 45.7896 100.013 44.4601 100.679C43.1293 101.344 36.478 110.5 37.144 112.164C37.8075 113.828 60.2565 103.842 60.2565 103.842Z" fill="#027D37"/>
<path d="M61.253 94.853L60.2552 103.842L66.4083 98.3493C66.4083 98.3493 64.0811 93.8555 61.253 94.853Z" fill="#027D37"/>
<path d="M62.2101 104.507C62.2101 104.382 62.0017 102.51 61.6699 102.594C61.3369 102.676 59.0923 104.05 59.0923 104.3C59.0923 104.549 58.6766 106.422 59.5498 106.339C60.4218 106.255 62.2101 104.507 62.2101 104.507Z" fill="#027D37"/>
<path opacity="0.5" d="M61.4194 105.496C61.4194 105.496 59.2574 113.32 59.5904 113.985C59.9234 114.65 64.4127 119.727 64.9948 119.478C65.577 119.228 61.4194 105.496 61.4194 105.496Z" fill="#027D37"/>
<path opacity="0.5" d="M62.0854 105.09C62.0854 105.09 64.5792 112.914 65.2452 112.83C65.91 112.747 69.4028 106.588 68.9033 106.089C68.4038 105.59 62.0854 105.09 62.0854 105.09Z" fill="#027D37"/>
<path opacity="0.5" d="M62.4464 104.668L64.5729 103.576C64.672 103.525 64.7877 103.52 64.8906 103.563L65.7765 103.931C65.9697 104.011 65.929 104.296 65.7206 104.318L62.4464 104.668Z" fill="#027D37"/>
<path opacity="0.5" d="M60.7293 105.796L59.5168 107.014C59.3388 107.193 59.3579 107.487 59.5587 107.641L59.9692 107.956C60.1065 108.061 60.3061 107.985 60.3391 107.816L60.7293 105.796Z" fill="#027D37"/>
<path d="M60.4636 103.842C60.2768 103.78 51.1101 102.843 50.3615 103.217C49.6128 103.591 46.1836 106.775 47.555 106.963C48.9277 107.15 60.4636 103.842 60.4636 103.842Z" fill="#027D37"/>
<path d="M22.7126 193.739C22.7126 193.739 54.9346 188.899 58.2609 190.064C61.5859 191.229 73.0595 193.559 73.0595 193.559C73.0595 193.559 87.3599 189.897 88.8559 190.729C90.3519 191.561 92.3474 193.725 92.3474 193.725L22.7126 193.739Z" fill="#027D37"/>
<path d="M263.675 194H0.325391C0.146203 194 0 193.866 0 193.701V193.536C0 193.371 0.146203 193.236 0.325391 193.236H263.675C263.854 193.236 264 193.371 264 193.536V193.701C264.001 193.866 263.855 194 263.675 194Z" fill="#2E3552"/>
<path d="M97.2055 128.795L89.4878 126.801L77.2884 133.281L68.0759 149.73L71.8102 160.445L64.3417 171.162L64.0925 189.355L71.3133 193.841H110.152L118.617 179.137L119.613 155.96L113.887 132.034L103.679 127.299L97.2055 128.795Z" fill="#2F5491"/>
<path d="M96.6894 127.287L94.854 121.406C94.7129 120.953 94.2833 120.654 93.8105 120.679C92.1632 120.763 88.556 120.985 88.556 121.305C88.556 121.721 96.6894 127.287 96.6894 127.287Z" fill="#233862"/>
<path d="M97.6859 127.537L97.9516 123.489C97.9859 122.963 98.4956 122.599 99.004 122.739L100.663 123.194C101.89 123.531 102.076 125.197 100.952 125.796L97.6859 127.537Z" fill="#233862"/>
<path d="M95.1895 127.628C95.3217 127.388 95.4526 127.151 95.5607 126.958C95.7196 126.673 96.017 126.496 96.3424 126.491L98.676 126.462C98.9658 126.458 99.2403 126.593 99.4132 126.825L99.7767 127.31C99.9254 127.507 99.9864 127.757 99.947 128.001L99.8898 128.356C99.8161 128.813 99.4119 129.14 98.9505 129.118L95.942 128.974C95.2722 128.943 94.8667 128.217 95.1895 127.628Z" fill="#233862"/>
<path d="M77.2883 133.281L82.1615 146.106C82.4398 146.84 83.4656 146.873 83.7909 146.158L85.775 141.801C86.1093 141.066 85.9034 140.197 85.2742 139.692L77.2883 133.281Z" fill="#233862"/>
<path d="M72.208 160.961C72.208 160.961 78.1832 168.244 77.0214 169.407C75.8597 170.57 65.089 171.162 65.089 171.162L72.208 160.961Z" fill="#233862"/>
<path d="M118.617 179.137C118.617 179.137 96.4135 186.521 97.6312 189.179C98.8488 191.837 110.152 193.841 110.152 193.841L118.617 179.137Z" fill="#233862"/>
<path d="M91.4337 154.626L115.135 157.353C115.911 157.442 116.041 158.517 115.307 158.788L101.748 163.815C100.855 164.146 99.8517 163.951 99.1463 163.31L90.8986 155.805C90.4118 155.361 90.7791 154.551 91.4337 154.626Z" fill="#233862"/>
<path d="M94.7816 129.945L89.2069 131.371C88.274 131.61 87.8456 132.692 88.3642 133.505L89.0239 134.54C89.4115 135.147 90.2746 135.208 90.7423 134.661L94.7816 129.945Z" fill="#233862"/>
<path d="M97.6859 129.78L103.261 128.8C103.623 128.736 103.997 128.821 104.295 129.038L106.517 130.645C106.934 130.946 106.645 131.603 106.143 131.5L97.6859 129.78Z" fill="#233862"/>
</g>
<defs>
<linearGradient id="paint0_linear_1876_25371" x1="195.132" y1="136.698" x2="195.132" y2="122.197" gradientUnits="userSpaceOnUse">
<stop stop-color="#03B04E"/>
<stop offset="1" stop-color="#02C320"/>
</linearGradient>
<linearGradient id="paint1_linear_1876_25371" x1="200.397" y1="136.404" x2="200.397" y2="121.983" gradientUnits="userSpaceOnUse">
<stop stop-color="#03B04E"/>
<stop offset="1" stop-color="#02C320"/>
</linearGradient>
<linearGradient id="paint2_linear_1876_25371" x1="205.007" y1="136.173" x2="205.007" y2="121.752" gradientUnits="userSpaceOnUse">
<stop stop-color="#03B04E"/>
<stop offset="1" stop-color="#02C320"/>
</linearGradient>
<linearGradient id="paint3_linear_1876_25371" x1="209.431" y1="135.915" x2="209.431" y2="121.679" gradientUnits="userSpaceOnUse">
<stop stop-color="#03B04E"/>
<stop offset="1" stop-color="#02C320"/>
</linearGradient>
<linearGradient id="paint4_linear_1876_25371" x1="198.856" y1="146.583" x2="198.856" y2="132.082" gradientUnits="userSpaceOnUse">
<stop stop-color="#03B04E"/>
<stop offset="1" stop-color="#02C320"/>
</linearGradient>
<linearGradient id="paint5_linear_1876_25371" x1="204.122" y1="146.289" x2="204.123" y2="131.868" gradientUnits="userSpaceOnUse">
<stop stop-color="#03B04E"/>
<stop offset="1" stop-color="#02C320"/>
</linearGradient>
<linearGradient id="paint6_linear_1876_25371" x1="208.671" y1="146.021" x2="208.671" y2="131.854" gradientUnits="userSpaceOnUse">
<stop stop-color="#03B04E"/>
<stop offset="1" stop-color="#02C320"/>
</linearGradient>
<linearGradient id="paint7_linear_1876_25371" x1="212.673" y1="145.814" x2="212.673" y2="131.531" gradientUnits="userSpaceOnUse">
<stop stop-color="#03B04E"/>
<stop offset="1" stop-color="#02C320"/>
</linearGradient>
<clipPath id="clip0_1876_25371">
<rect width="264" height="194" fill="white"/>
</clipPath>
</defs>
</svg>
