<svg width="20" height="20" viewBox="0 0 20 20" fill="none" xmlns="http://www.w3.org/2000/svg">
<g id="Featured_Icon" clip-path="url(#clip0_1876_20960)">
<path id="Vector" d="M4.16667 5C4.16667 4.53917 4.54 4.16667 5 4.16667H7.5C7.96 4.16667 8.33333 4.53917 8.33333 5C8.33333 5.46083 7.96 5.83333 7.5 5.83333H5C4.54 5.83333 4.16667 5.46083 4.16667 5ZM9.16667 7.5H5C4.54 7.5 4.16667 7.8725 4.16667 8.33333C4.16667 8.79417 4.54 9.16667 5 9.16667H9.16667C9.62667 9.16667 10 8.79417 10 8.33333C10 7.8725 9.62667 7.5 9.16667 7.5ZM9.16667 10.8333H5C4.54 10.8333 4.16667 11.2058 4.16667 11.6667C4.16667 12.1275 4.54 12.5 5 12.5H9.16667C9.62667 12.5 10 12.1275 10 11.6667C10 11.2058 9.62667 10.8333 9.16667 10.8333ZM19.9492 3.88083C19.8292 3.55167 19.5158 3.33333 19.1667 3.33333H16.6658L15.7808 0.85C15.6592 0.524167 15.3475 0.3075 15 0.3075C14.6525 0.3075 14.34 0.524167 14.2192 0.85L13.3342 3.33333H10.8333C10.4842 3.33333 10.1717 3.55167 10.0517 3.87917C9.93083 4.2075 10.0283 4.575 10.295 4.80167L12.2758 6.41417L11.4917 8.9275C11.3858 9.265 11.5042 9.6325 11.7867 9.845C11.9342 9.95583 12.11 10.0117 12.2867 10.0117C12.4483 10.0117 12.61 9.965 12.75 9.87083L15.0067 8.36083L17.3017 9.855C17.5975 10.0475 17.9842 10.0325 18.265 9.81667C18.5458 9.60083 18.6592 9.23083 18.5475 8.895L17.7317 6.41167L19.7033 4.80583C19.9708 4.58 20.0692 4.21167 19.9492 3.8825V3.88083ZM18.3333 16.6667V17.0833C18.3333 18.6917 17.025 20 15.4167 20H2.91583C1.30833 20 0 18.6917 0 17.0833V4.16667C0 1.86917 1.86917 0 4.16667 0H10.8333C11.2933 0 11.6667 0.3725 11.6667 0.833333C11.6667 1.29417 11.2933 1.66667 10.8333 1.66667H4.16667C2.78833 1.66667 1.66667 2.78833 1.66667 4.16667V17.0833C1.66667 17.7725 2.2275 18.3333 2.91667 18.3333C3.60583 18.3333 4.16667 17.7725 4.16667 17.0833V16.6667C4.16667 15.2883 5.28833 14.1667 6.66667 14.1667H14.1667V11.6667C14.1667 11.2058 14.54 10.8333 15 10.8333C15.46 10.8333 15.8333 11.2058 15.8333 11.6667V14.1667C17.2117 14.1667 18.3333 15.2883 18.3333 16.6667ZM16.6667 16.6667C16.6667 16.2067 16.2925 15.8333 15.8333 15.8333H6.66667C6.2075 15.8333 5.83333 16.2067 5.83333 16.6667V17.0833C5.83333 17.53 5.73167 17.9542 5.55167 18.3333H15.4167C16.1058 18.3333 16.6667 17.7725 16.6667 17.0833V16.6667Z" fill="#013216"/>
</g>
<defs>
<clipPath id="clip0_1876_20960">
<rect width="20" height="20" fill="white"/>
</clipPath>
</defs>
</svg>
