<svg width="32" height="32" viewBox="0 0 32 32" fill="none" xmlns="http://www.w3.org/2000/svg">
<g id="First_Place_Icon">
<g id="Group">
<path id="Vector" d="M9.68932 22.1948L8.42069 22.2567L5.96107 29.3233C5.88269 29.5484 6.06507 29.7786 6.30213 29.7537L9.74982 29.3927C9.79738 29.3877 9.84545 29.3933 9.89062 29.409C9.93578 29.4247 9.97693 29.4502 10.0111 29.4836L12.4896 31.9073C12.6599 32.0739 12.9458 32.0068 13.0241 31.7817L15.4998 24.6689L14.7698 23.9604L9.68932 22.1948Z" fill="#FF4755"/>
<path id="Vector_2" d="M15.4998 24.6688L16 23.2316L8.9194 20.8237L8.42065 22.2567C10.4313 23.6914 12.8658 24.5696 15.4998 24.6688Z" fill="#FC2B3A"/>
<path id="Vector_3" d="M22.3108 22.1948L23.5794 22.2567L26.0391 29.3233C26.1174 29.5484 25.9351 29.7786 25.698 29.7537L22.2503 29.3927C22.2027 29.3877 22.1547 29.3933 22.1095 29.409C22.0644 29.4247 22.0232 29.4502 21.9891 29.4836L19.5106 31.9073C19.3402 32.0739 19.0544 32.0068 18.9761 31.7817L16.5004 24.6689L17.2304 23.9604L22.3108 22.1948Z" fill="#FF4755"/>
<path id="Vector_4" d="M16.5002 24.6688L16 23.2316L23.0806 20.8237L23.5794 22.2567C21.5687 23.6914 19.1342 24.5696 16.5002 24.6688Z" fill="#FC2B3A"/>
<path id="Vector_5" d="M16 22.5072C4.38424 22.5072 4.38911 11.2242 4.39874 11.0302C4.70367 4.88712 9.78111 0 16 0C22.2189 0 27.2963 4.88712 27.6012 11.0303C27.6109 11.2242 27.6157 22.5072 16 22.5072Z" fill="#FFE27A"/>
<path id="Vector_6" d="M16 22.0606C9.78115 22.0606 4.7039 17.1735 4.3989 11.0303C4.38919 11.2253 4.38431 11.4205 4.38428 11.6157C4.38428 18.0309 9.58484 23.2315 16 23.2315C22.4152 23.2315 27.6158 18.0309 27.6158 11.6157C27.6158 11.4193 27.6108 11.2242 27.6012 11.0303C27.2962 17.1735 22.2189 22.0606 16 22.0606Z" fill="#F9CF58"/>
<path id="Vector_7" d="M16.0001 20.008C6.86775 20.008 6.8555 11.0279 6.86775 10.8343C7.16969 6.05329 11.1429 2.26904 16.0001 2.26904C20.8572 2.26904 24.8304 6.05329 25.1324 10.8343C25.1446 11.0279 25.1324 20.008 16.0001 20.008Z" fill="#FFBA57"/>
<path id="Vector_8" d="M16 19.5956C11.1429 19.5956 7.17037 15.8112 6.86843 11.0303C6.85587 11.2252 6.84947 11.4204 6.84924 11.6157C6.84924 16.6695 10.9462 20.7665 16 20.7665C21.0538 20.7665 25.1507 16.6695 25.1507 11.6157C25.1507 11.419 25.1438 11.2239 25.1316 11.0303C24.8296 15.8112 20.8571 19.5956 16 19.5956Z" fill="#FFAC3E"/>
<path id="Vector_9" d="M16.5219 17.0512C15.8866 17.0512 15.3715 16.5362 15.3715 15.9008V9.45386C15.3715 9.45386 14.6832 10.1442 13.8597 9.72999C13.2175 9.40705 13.2175 8.57586 13.2175 8.57586L14.6358 6.18174C14.7377 6.00988 14.8825 5.8675 15.056 5.7686C15.2295 5.6697 15.4258 5.61768 15.6256 5.61768H16.5219C17.1572 5.61768 17.6723 6.13268 17.6723 6.76805V15.9008C17.6723 16.5362 17.1572 17.0512 16.5219 17.0512Z" fill="#FFE27A"/>
<g id="Group_2">
<path id="Vector_10" d="M15.2135 8.55014C14.9082 9.06558 14.259 9.28908 13.7176 9.03252C13.5088 8.9344 13.3344 8.77562 13.2172 8.57689C12.8978 9.11727 13.0707 9.81245 13.6026 10.1409C14.1511 10.4796 14.884 10.2774 15.2125 9.7227L15.3716 9.45401V8.59333C15.3716 8.50695 15.2576 8.47577 15.2135 8.55014ZM16.522 16.443C15.8866 16.443 15.3716 15.928 15.3716 15.2926V16.4635C15.3716 17.0989 15.8866 17.6139 16.522 17.6139C17.1573 17.6139 17.6723 17.0989 17.6723 16.4635V15.2926C17.6723 15.928 17.1573 16.443 16.522 16.443Z" fill="#F9CF58"/>
</g>
</g>
</g>
</svg>
