<svg width="51" height="64" viewBox="0 0 51 64" fill="none" xmlns="http://www.w3.org/2000/svg">
<g id="Group">
<path id="Vector" d="M6.59559 23.2481C6.39613 23.2481 6.19998 23.1971 6.02585 23.0998C5.85172 23.0025 5.70542 22.8623 5.6009 22.6924C4.88407 21.5307 3.54497 20.187 2.0074 20.236C1.35361 20.201 0.823579 19.748 0.804899 19.1047C0.800072 18.9514 0.825513 18.7986 0.879766 18.6551C0.934019 18.5116 1.01602 18.3802 1.12108 18.2684C1.22615 18.1566 1.35221 18.0666 1.49207 18.0036C1.63193 17.9406 1.78285 17.9057 1.93619 17.901C4.39606 17.8275 6.49402 19.6919 7.58795 21.4677C7.697 21.6445 7.75691 21.8471 7.7615 22.0548C7.76609 22.2624 7.7152 22.4676 7.61408 22.649C7.51295 22.8304 7.36525 22.9816 7.18622 23.0869C7.00719 23.1922 6.8033 23.2479 6.59559 23.2481Z" fill="#436B1C"/>
<path id="Vector_2" d="M30.4904 7.70193C30.4141 6.59723 29.9216 5.56259 29.1123 4.80681C28.303 4.05103 27.2372 3.63038 26.1299 3.62976L26.11 3.63093C26.1531 3.26565 26.1213 2.89543 26.0166 2.54284C25.7037 1.47576 24.7651 0.656194 23.6606 0.524269C23.2392 0.472304 22.8114 0.516647 22.4096 0.653959C22.0078 0.791271 21.6424 1.01797 21.3409 1.31699C20.7711 0.795333 20.0271 0.505149 19.2546 0.503255C18.4257 0.503255 17.6307 0.83253 17.0446 1.41865C16.4585 2.00476 16.1292 2.7997 16.1292 3.62859L16.1304 3.64494C15.11 3.72262 14.1565 4.18273 13.4608 4.93322C12.7651 5.68371 12.3784 6.66923 12.3781 7.69259C12.3781 8.01948 12.4213 8.33587 12.4937 8.64058C11.286 8.69058 10.1444 9.20537 9.30746 10.0774C8.47047 10.9494 8.00289 12.1111 8.00242 13.3198C8.00242 14.1744 8.23475 14.973 8.63402 15.663C8.24074 15.9851 7.92392 16.3906 7.70647 16.8501C7.48903 17.3097 7.37637 17.8118 7.37665 18.3201C7.37665 19.2985 7.7911 20.1753 8.44723 20.7999C11.2632 18.4988 14.2216 26.1948 17.7053 32.3392C18.8623 34.38 31.3625 32.2061 32.3584 33.474C33.4931 32.4536 34.2263 14.6846 34.2578 13.1237C34.2809 11.9384 33.9291 10.776 33.2526 9.80239C32.576 8.8288 31.6094 8.09369 30.4904 7.70193Z" fill="#88C057"/>
<path id="Vector_3" d="M32.0887 30.9768L32.9211 30.4783C33.677 30.0246 34.542 29.7849 35.4236 29.7849C36.3052 29.7849 37.1702 30.0246 37.9261 30.4783L38.7585 30.9768C39.5144 31.4305 40.3794 31.6702 41.261 31.6702C42.1426 31.6702 43.0076 31.4305 43.7635 30.9768L46.116 29.9308C46.4615 28.9664 46.702 28.2683 46.7978 27.9589C48.9926 20.8991 50.4064 13.4658 50.5991 6.05116C50.6761 3.06942 48.2104 -1.58065 44.1137 0.532485C40.0871 2.60826 37.2034 10.5693 35.1767 14.3496C32.2977 19.7212 30.0211 25.5632 28.3995 31.5162C29.0196 31.6737 29.6648 31.7072 30.2979 31.6146C30.931 31.5221 31.5396 31.3053 32.0887 30.9768Z" fill="#EEAF4B"/>
<path id="Vector_4" d="M1.73658 29.7779L3.30684 30.72C4.192 31.2512 5.2049 31.5318 6.23721 31.5318C7.26952 31.5318 8.28242 31.2512 9.16758 30.72L9.57153 30.4772C10.3274 30.0235 11.1924 29.7838 12.074 29.7838C12.9556 29.7838 13.8206 30.0235 14.5765 30.4772L15.4089 30.9757C16.298 31.5062 17.3333 31.7385 18.3638 31.6388C19.111 29.2257 18.86 26.2089 17.7018 24.167C13.8071 17.2964 10.5674 18.6962 7.45022 21.6791C6.85133 22.2517 6.12208 22.6701 5.32541 22.8979C1.90703 23.8751 -0.61589 25.4734 0.818941 29.8257C0.949735 29.7273 1.10695 29.6701 1.27045 29.6616C1.43394 29.6531 1.59625 29.6936 1.73658 29.7779Z" fill="#ED3F32"/>
<path id="Vector_5" d="M35.0529 28.4353C34.8674 28.4352 34.6846 28.3908 34.5196 28.306C34.3547 28.2211 34.2123 28.0981 34.1043 27.9472C33.9964 27.7964 33.9259 27.6219 33.8988 27.4384C33.8717 27.2549 33.8887 27.0675 33.9485 26.8919C34.3255 25.7918 35.1226 24.8856 36.1655 24.3711C37.2085 23.8566 38.4126 23.7757 39.515 24.146C40.0309 24.3211 40.5951 24.2842 41.0838 24.0434C41.5724 23.8025 41.9454 23.3775 42.1208 22.8618C42.1701 22.7166 42.2475 22.5825 42.3486 22.4673C42.4497 22.352 42.5725 22.2577 42.7101 22.1899C42.8476 22.1221 42.9971 22.0821 43.1501 22.072C43.3031 22.062 43.4566 22.0822 43.6018 22.1315C43.747 22.1808 43.881 22.2582 43.9963 22.3593C44.1116 22.4604 44.2058 22.5832 44.2736 22.7208C44.3414 22.8583 44.3815 23.0078 44.3915 23.1608C44.4015 23.3138 44.3813 23.4673 44.332 23.6125C43.9565 24.7137 43.1597 25.6211 42.1163 26.1359C41.0728 26.6506 39.8678 26.7306 38.7655 26.3584C38.2496 26.1846 37.6859 26.2221 37.1976 26.4627C36.7093 26.7034 36.3361 27.1276 36.1597 27.6426C36.081 27.8737 35.932 28.0744 35.7335 28.2165C35.535 28.3587 35.297 28.4352 35.0529 28.4353ZM37.814 20.3015C37.6285 20.3014 37.4457 20.257 37.2807 20.1721C37.1157 20.0873 36.9734 19.9643 36.8654 19.8134C36.7575 19.6625 36.687 19.4881 36.6599 19.3046C36.6328 19.1211 36.6498 18.9337 36.7096 18.7581C36.8935 18.2115 37.1839 17.7069 37.564 17.2732C37.9442 16.8396 38.4065 16.4856 38.9243 16.2317C39.4407 15.9752 40.0028 15.8237 40.5782 15.786C41.1535 15.7484 41.7307 15.8252 42.2761 16.0122C42.5316 16.0992 42.8017 16.1349 43.071 16.1174C43.3404 16.0998 43.6036 16.0294 43.8456 15.91C44.0877 15.7906 44.3038 15.6246 44.4816 15.4216C44.6594 15.2186 44.7955 14.9825 44.8819 14.7268C44.928 14.5777 45.0034 14.4393 45.1039 14.3199C45.2043 14.2005 45.3277 14.1024 45.4667 14.0315C45.6057 13.9605 45.7575 13.9182 45.9131 13.9069C46.0688 13.8957 46.2251 13.9157 46.3729 13.9659C46.5206 14.0161 46.6568 14.0954 46.7734 14.1991C46.89 14.3029 46.9846 14.4289 47.0516 14.5698C47.1187 14.7107 47.1568 14.8637 47.1637 15.0196C47.1706 15.1755 47.1462 15.3312 47.0919 15.4775C46.7164 16.5787 45.9197 17.4862 44.8763 18.0012C43.8329 18.5161 42.6279 18.5964 41.5254 18.2246C41.0059 18.0471 40.4478 18.0833 39.9563 18.3261C39.4648 18.569 39.0971 18.9881 38.9196 19.5088C38.8413 19.7399 38.6925 19.9406 38.4942 20.0828C38.2959 20.225 38.058 20.3015 37.814 20.3015ZM40.5763 12.1665C40.3906 12.1666 40.2077 12.1223 40.0426 12.0375C39.8775 11.9527 39.7349 11.8298 39.6269 11.6789C39.5188 11.528 39.4482 11.3535 39.421 11.1699C39.3939 10.9863 39.4109 10.7988 39.4706 10.6231C39.8007 9.65686 40.5002 8.86077 41.4159 8.40914C42.3316 7.95751 43.389 7.88713 44.3565 8.21343C44.7418 8.34418 45.1528 8.3185 45.5159 8.13987C45.8789 7.96125 46.151 7.6507 46.2817 7.2666C46.3813 6.97338 46.5932 6.73171 46.8709 6.59476C47.1487 6.45781 47.4694 6.43679 47.7627 6.53634C48.0559 6.63589 48.2976 6.84784 48.4345 7.12557C48.5715 7.40331 48.5925 7.72407 48.4929 8.01729C48.3316 8.49698 48.0767 8.93992 47.743 9.32047C47.4094 9.70102 47.0035 10.0116 46.5491 10.2343C46.0955 10.4592 45.6018 10.5919 45.0966 10.6248C44.5914 10.6577 44.0847 10.59 43.6059 10.4258C43.2248 10.2967 42.8082 10.3242 42.4474 10.5022C42.0866 10.6801 41.8113 10.9941 41.6819 11.375C41.603 11.6056 41.4541 11.8059 41.2559 11.9479C41.0576 12.0898 40.82 12.1662 40.5763 12.1665Z" fill="#A46F3E"/>
<path id="Vector_6" d="M20.784 16.4558C19.6807 17.9233 17.94 19.6606 18.6101 22.7287L20.4127 30.9769L21.2463 30.4784C22.0022 30.0247 22.8672 29.785 23.7488 29.785C24.6304 29.785 25.4954 30.0247 26.2513 30.4784L27.0837 30.9769C27.7608 31.3832 28.3995 31.5175 28.3995 31.5175C29.6141 27.0442 31.1963 22.6789 33.1301 18.4662C32.2264 16.206 30.2966 15.4495 28.8956 14.6754L28.8723 14.6626C27.9862 14.1547 27.9313 12.9417 28.5979 12.1688C28.8606 11.8641 28.982 11.445 28.891 11.0247L28.7497 10.3803C28.674 10.0388 28.4662 9.74121 28.1718 9.55243C27.8773 9.36365 27.5202 9.29905 27.1783 9.37274L20.0835 10.9208C19.7421 10.9965 19.4444 11.2043 19.2557 11.4987C19.0669 11.7932 19.0023 12.1503 19.076 12.4922L19.2172 13.1367C19.3106 13.5663 19.6072 13.899 19.9831 14.0613C20.8459 14.4338 21.3724 15.3969 20.9311 16.227C20.8879 16.3069 20.8387 16.3834 20.784 16.4558Z" fill="#DAE7EF"/>
<path id="Vector_7" d="M28.2278 12.7245L20.1967 14.4792C19.7693 14.571 19.3228 14.4901 18.9548 14.2541C18.5867 14.0182 18.3269 13.6463 18.2319 13.2195L18.1163 12.6918C18.0245 12.2644 18.1054 11.8179 18.3414 11.4499C18.5773 11.0818 18.9492 10.822 19.376 10.727L27.4071 8.97223C27.8345 8.88044 28.2809 8.96135 28.649 9.19732C29.0171 9.43329 29.2769 9.80518 29.3719 10.2319L29.4875 10.7596C29.6813 11.6469 29.1139 12.5307 28.2278 12.7245Z" fill="white"/>
<path id="Vector_8" d="M48.1567 29.5746L46.1194 58.7954C46.0476 60.2001 45.439 61.5235 44.4194 62.4923C43.3997 63.4611 42.047 64.0013 40.6405 64.0012H7.86817C6.46168 64.0013 5.1089 63.4611 4.08926 62.4923C3.06962 61.5235 2.46103 60.2001 2.38919 58.7954L0.400979 30.5331C0.393315 30.3827 0.426678 30.233 0.497504 30.1C0.568329 29.967 0.673954 29.8558 0.803086 29.7783C0.932219 29.7007 1.08001 29.6597 1.23065 29.6596C1.38129 29.6595 1.52913 29.7003 1.65835 29.7778L3.22861 30.7199C4.11378 31.2511 5.12667 31.5317 6.15898 31.5317C7.19129 31.5317 8.20419 31.2511 9.08935 30.7199L9.4933 30.4771C10.2492 30.0234 11.1142 29.7837 11.9958 29.7837C12.8774 29.7837 13.7424 30.0234 14.4983 30.4771L15.3307 30.9768C16.0866 31.4305 16.9516 31.6701 17.8332 31.6701C18.7148 31.6701 19.5798 31.4305 20.3357 30.9768L21.1681 30.4771C21.924 30.0234 22.789 29.7837 23.6706 29.7837C24.5522 29.7837 25.4172 30.0234 26.1731 30.4771L27.0055 30.9768C27.7614 31.4305 28.6264 31.6701 29.508 31.6701C30.3896 31.6701 31.2546 31.4305 32.0105 30.9768L32.8429 30.4771C33.5988 30.0234 34.4638 29.7837 35.3454 29.7837C36.227 29.7837 37.092 30.0234 37.8479 30.4771L38.6803 30.9768C39.4361 31.4305 40.3012 31.6701 41.1828 31.6701C42.0644 31.6701 42.9294 31.4305 43.6852 30.9768L47.6395 29.2197C47.697 29.194 47.7601 29.1836 47.8228 29.1893C47.8854 29.195 47.9456 29.2167 47.9975 29.2523C48.0494 29.2879 48.0913 29.3362 48.1192 29.3927C48.147 29.4491 48.16 29.5118 48.1567 29.5746Z" fill="#FBD490"/>
<path id="Vector_9" d="M14.4095 49.0342H6.23718C5.92755 49.0342 5.63059 48.9112 5.41165 48.6922C5.1927 48.4733 5.0697 48.1763 5.0697 47.8667C5.0697 47.5571 5.1927 47.2601 5.41165 47.0412C5.63059 46.8222 5.92755 46.6992 6.23718 46.6992H14.4095C14.7192 46.6992 15.0161 46.8222 15.2351 47.0412C15.454 47.2601 15.577 47.5571 15.577 47.8667C15.577 48.1763 15.454 48.4733 15.2351 48.6922C15.0161 48.9112 14.7192 49.0342 14.4095 49.0342ZM16.7445 53.7041H6.23718C5.92755 53.7041 5.63059 53.5811 5.41165 53.3621C5.1927 53.1432 5.0697 52.8462 5.0697 52.5366C5.0697 52.227 5.1927 51.93 5.41165 51.7111C5.63059 51.4921 5.92755 51.3691 6.23718 51.3691H16.7445C17.0541 51.3691 17.3511 51.4921 17.57 51.7111C17.789 51.93 17.912 52.227 17.912 52.5366C17.912 52.8462 17.789 53.1432 17.57 53.3621C17.3511 53.5811 17.0541 53.7041 16.7445 53.7041ZM19.0794 58.374H6.23718C5.92755 58.374 5.63059 58.251 5.41165 58.0321C5.1927 57.8131 5.0697 57.5162 5.0697 57.2065C5.0697 56.8969 5.1927 56.5999 5.41165 56.381C5.63059 56.162 5.92755 56.039 6.23718 56.039H19.0794C19.3891 56.039 19.686 56.162 19.905 56.381C20.1239 56.5999 20.2469 56.8969 20.2469 57.2065C20.2469 57.5162 20.1239 57.8131 19.905 58.0321C19.686 58.251 19.3891 58.374 19.0794 58.374ZM26.0843 58.374H23.7494C23.4397 58.374 23.1428 58.251 22.9238 58.0321C22.7049 57.8131 22.5819 57.5162 22.5819 57.2065C22.5819 56.8969 22.7049 56.5999 22.9238 56.381C23.1428 56.162 23.4397 56.039 23.7494 56.039H26.0843C26.3939 56.039 26.6909 56.162 26.9098 56.381C27.1288 56.5999 27.2518 56.8969 27.2518 57.2065C27.2518 57.5162 27.1288 57.8131 26.9098 58.0321C26.6909 58.251 26.3939 58.374 26.0843 58.374Z" fill="#E0B877"/>
</g>
</svg>
