<svg width="49" height="48" viewBox="0 0 49 48" fill="none" xmlns="http://www.w3.org/2000/svg">
<g id="High_Bin_Icon" clip-path="url(#clip0_1980_28755)">
<path id="Vector 35" d="M37.25 43.25V20.6226C37.25 20.3083 37.1038 20.0129 36.8527 19.824C34.8752 18.3367 30.5364 15.1809 29 17.1075C26.9377 19.6935 24.875 23.5596 20.75 18.387C17.6271 14.471 14.5657 17.5807 12.7895 19.387C12.604 19.5757 12.5 19.8288 12.5 20.0935V43.25C12.5 43.8023 12.9477 44.25 13.5 44.25H36.25C36.8023 44.25 37.25 43.8023 37.25 43.25Z" fill="#FF5050"/>
<path id="Vector" d="M42.975 8H36.6975C36.2275 5.74283 34.984 3.71469 33.1765 2.25744C31.3691 0.80018 29.1082 0.00290905 26.775 0L22.725 0C20.3918 0.00290905 18.1309 0.80018 16.3235 2.25744C14.516 3.71469 13.2725 5.74283 12.8025 8H6.525C5.98794 8 5.47287 8.21071 5.09311 8.58579C4.71335 8.96086 4.5 9.46957 4.5 10C4.5 10.5304 4.71335 11.0391 5.09311 11.4142C5.47287 11.7893 5.98794 12 6.525 12H8.55V38C8.55322 40.6512 9.62099 43.1929 11.5191 45.0676C13.4172 46.9422 15.9907 47.9968 18.675 48H30.825C33.5093 47.9968 36.0828 46.9422 37.9809 45.0676C39.879 43.1929 40.9468 40.6512 40.95 38V12H42.975C43.5121 12 44.0271 11.7893 44.4069 11.4142C44.7867 11.0391 45 10.5304 45 10C45 9.46957 44.7867 8.96086 44.4069 8.58579C44.0271 8.21071 43.5121 8 42.975 8ZM22.725 4H26.775C28.0311 4.00151 29.2559 4.38675 30.2815 5.10289C31.3072 5.81902 32.0834 6.83098 32.5037 8H16.9963C17.4166 6.83098 18.1928 5.81902 19.2185 5.10289C20.2441 4.38675 21.4689 4.00151 22.725 4ZM36.9 38C36.9 39.5913 36.26 41.1174 35.1207 42.2426C33.9814 43.3679 32.4362 44 30.825 44H18.675C17.0638 44 15.5186 43.3679 14.3793 42.2426C13.24 41.1174 12.6 39.5913 12.6 38V12H36.9V38Z" fill="#013216"/>
</g>
<defs>
<clipPath id="clip0_1980_28755">
<rect width="48" height="48" fill="white" transform="translate(0.5)"/>
</clipPath>
</defs>
</svg>
