<svg width="25" height="24" viewBox="0 0 25 24" fill="none" xmlns="http://www.w3.org/2000/svg">
<g id="house_Icon" clip-path="url(#clip0_1537_360)">
<path id="Rectangle 6 (Stroke)" fill-rule="evenodd" clip-rule="evenodd" d="M7.70809 1.98083C8.91016 0.837679 10.5056 0.200195 12.1644 0.200195H13.2356C14.8945 0.200195 16.4899 0.837678 17.692 1.98083L22.4897 6.54337C23.7733 7.7641 24.5 9.45798 24.5 11.2294V17.3335C24.5 20.905 21.6048 23.8002 18.0334 23.8002H7.36669C3.79525 23.8002 0.900024 20.905 0.900024 17.3335V11.2294C0.900024 9.45798 1.62671 7.7641 2.91036 6.54337L7.70809 1.98083ZM12.1644 2.46686C11.087 2.46686 10.0508 2.8809 9.2701 3.62335L4.47237 8.1859C3.63866 8.97875 3.16669 10.0789 3.16669 11.2294V17.3335C3.16669 19.6531 5.04709 21.5335 7.36669 21.5335H18.0334C20.353 21.5335 22.2334 19.6531 22.2334 17.3335V11.2294C22.2334 10.0789 21.7614 8.97874 20.9277 8.1859L16.1299 3.62335C15.3492 2.8809 14.313 2.46686 13.2356 2.46686H12.1644Z" fill="#013216"/>
<path id="Vector 1 (Stroke)" fill-rule="evenodd" clip-rule="evenodd" d="M8.90002 17.3335C8.90002 16.7076 9.40743 16.2002 10.0334 16.2002H15.3667C15.9926 16.2002 16.5 16.7076 16.5 17.3335C16.5 17.9595 15.9926 18.4669 15.3667 18.4669H10.0334C9.40743 18.4669 8.90002 17.9595 8.90002 17.3335Z" fill="#013216"/>
</g>
<defs>
<clipPath id="clip0_1537_360">
<rect width="24" height="24" fill="white" transform="translate(0.700012)"/>
</clipPath>
</defs>
</svg>
