<svg width="61" height="60" viewBox="0 0 61 60" fill="none" xmlns="http://www.w3.org/2000/svg">
<g id="Group">
<path id="Vector" d="M0.503189 0.997327V57.0488C0.578781 58.6363 1.85251 60.0007 3.49663 60.0007H41.5005C43.1447 60.0007 44.4978 58.64 44.4978 56.9959V0.997327C44.4968 0.733647 44.3918 0.480993 44.2057 0.294189C44.0196 0.107384 43.7674 0.00149992 43.5037 -0.000488281H35.4985C35.2348 0.00149992 34.9826 0.107384 34.7965 0.294189C34.6104 0.480993 34.5055 0.733647 34.5045 0.997327V15.0008C34.5076 15.1333 34.4837 15.2651 34.4342 15.3881C34.3847 15.511 34.3106 15.6226 34.2165 15.716C34.1225 15.8094 34.0103 15.8826 33.8869 15.9312C33.7636 15.9798 33.6316 16.0027 33.4991 15.9986H29.5003C29.3683 16.0022 29.2369 15.9789 29.1142 15.93C28.9915 15.8812 28.88 15.8078 28.7866 15.7144C28.6932 15.621 28.6199 15.5096 28.571 15.3869C28.5221 15.2642 28.4988 15.1328 28.5025 15.0008C28.4975 14.2054 28.1794 13.444 27.6169 12.8815C27.0545 12.3191 26.2931 12.0009 25.4977 11.996H19.5033C18.7079 12.0009 17.9465 12.3191 17.384 12.8815C16.8216 13.444 16.5034 14.2054 16.4985 15.0008C16.5021 15.1328 16.4788 15.2642 16.4299 15.3869C16.3811 15.5096 16.3077 15.621 16.2143 15.7144C16.1209 15.8078 16.0095 15.8812 15.8868 15.93C15.7641 15.9789 15.6327 16.0022 15.5007 15.9986H11.5018C11.3693 16.0027 11.2374 15.9798 11.114 15.9312C10.9907 15.8826 10.8785 15.8094 10.7844 15.716C10.6903 15.6226 10.6162 15.511 10.5667 15.3881C10.5172 15.2651 10.4933 15.1333 10.4965 15.0008V0.997327C10.4955 0.732996 10.39 0.479776 10.2031 0.292865C10.0162 0.105954 9.76297 0.000507324 9.49864 -0.000488281H1.44809C1.19337 0.014857 0.954011 0.12649 0.778548 0.311779C0.603085 0.497068 0.504646 0.742146 0.503189 0.997327Z" fill="#35C071"/>
<path id="Vector_2" d="M34.5045 3.93786H44.4978V0.997327C44.4968 0.733647 44.3918 0.480993 44.2057 0.294189C44.0196 0.107384 43.7674 0.00149992 43.5037 -0.000488281H35.4985C35.2348 0.00149992 34.9826 0.107384 34.7965 0.294189C34.6104 0.480993 34.5055 0.733647 34.5045 0.997327V3.93786ZM0.503189 0.997327V3.93786H10.4965V0.997327C10.4955 0.732996 10.39 0.479776 10.2031 0.292865C10.0162 0.105954 9.76297 0.000507324 9.49864 -0.000488281H1.44809C1.19337 0.014857 0.954011 0.12649 0.778548 0.311779C0.603085 0.497068 0.504646 0.742146 0.503189 0.997327Z" fill="#56CA88"/>
<path id="Vector_3" d="M12.5034 39.0956L14.5066 59.101C14.5318 59.3473 14.6474 59.5755 14.8309 59.7416C15.0145 59.9077 15.2531 60 15.5007 60.0006H29.4965C30.0143 60.0006 30.4414 59.6113 30.4943 59.101L32.4975 39.0956H12.5034ZM43.5037 13.999V17.0945C41.4141 18.0483 39.643 19.5832 38.4018 21.516C37.1606 23.4488 36.5018 25.6979 36.5039 27.9949V55.998C36.5039 58.1977 38.3068 59.993 40.5027 59.993L41.5043 59.9968C42.6987 59.9968 43.7645 59.4525 44.4978 58.6097C45.2348 59.4487 46.3044 59.993 47.5025 59.993L49.4982 60.0006C50.6963 60.0006 51.7659 59.4563 52.503 58.6097C53.2362 59.4525 54.302 60.0006 55.5002 60.0006H56.5056C58.7053 60.0006 60.5006 58.1939 60.5006 55.9942V28.0025C60.5024 25.7055 59.8438 23.4565 58.6035 21.5232C57.3631 19.59 55.5932 18.054 53.5046 17.0983L53.5008 13.999H43.5037Z" fill="#DBE9EE"/>
<path id="Vector_4" d="M42.5021 10.9943V13.9953C42.5021 14.5471 42.9481 14.9969 43.4999 14.9969H53.5045C53.7695 14.9969 54.0237 14.8919 54.2114 14.7049C54.3992 14.5179 54.5051 14.2641 54.5061 13.9991L54.5024 10.9981C54.4984 10.2037 54.1808 9.44312 53.6188 8.88178C53.0567 8.32045 52.2957 8.00383 51.5014 8.00085L45.4994 7.99707C43.6965 7.99707 42.5286 9.51269 42.5021 10.9943ZM36.5455 27.0009C36.5181 27.3315 36.5042 27.6632 36.5039 27.9949V46.995L60.5006 46.9988V27.9874C60.5006 27.6472 60.4855 27.3184 60.459 26.9933C52.4841 27.0009 44.5167 27.0009 36.5455 27.0009Z" fill="#FF6B6B"/>
<path id="Vector_5" d="M41.4854 35.4863C41.2211 35.4903 40.9691 35.5986 40.7843 35.7877C40.5995 35.9767 40.4969 36.2311 40.4989 36.4955V41.9948C40.4906 42.1312 40.5102 42.268 40.5566 42.3965C40.6031 42.5251 40.6753 42.6428 40.769 42.7424C40.8626 42.842 40.9757 42.9214 41.1012 42.9756C41.2267 43.0299 41.3619 43.0579 41.4986 43.0579C41.6354 43.0579 41.7706 43.0299 41.8961 42.9756C42.0216 42.9214 42.1346 42.842 42.2283 42.7424C42.322 42.6428 42.3942 42.5251 42.4407 42.3965C42.4871 42.268 42.5067 42.1312 42.4984 41.9948V36.4955C42.4994 36.3623 42.4738 36.2303 42.4232 36.1072C42.3726 35.9841 42.298 35.8722 42.2037 35.7783C42.1094 35.6843 41.9973 35.6101 41.874 35.56C41.7506 35.5098 41.6185 35.4848 41.4854 35.4863ZM41.4854 30.981C41.3536 30.983 41.2234 31.011 41.1024 31.0634C40.9814 31.1158 40.8719 31.1916 40.7802 31.2864C40.6886 31.3812 40.6165 31.4932 40.5683 31.6159C40.52 31.7386 40.4964 31.8697 40.4989 32.0015V32.9993C40.4906 33.1358 40.5102 33.2725 40.5566 33.4011C40.6031 33.5297 40.6753 33.6474 40.769 33.747C40.8626 33.8466 40.9757 33.9259 41.1012 33.9802C41.2267 34.0344 41.3619 34.0624 41.4986 34.0624C41.6354 34.0624 41.7706 34.0344 41.8961 33.9802C42.0216 33.9259 42.1346 33.8466 42.2283 33.747C42.322 33.6474 42.3942 33.5297 42.4407 33.4011C42.4871 33.2725 42.5067 33.1358 42.4984 32.9993V32.0015C42.5009 31.8674 42.4765 31.7342 42.4266 31.6098C42.3767 31.4853 42.3023 31.3721 42.2078 31.277C42.1133 31.1818 42.0007 31.1066 41.8766 31.0557C41.7525 31.0049 41.6195 30.9795 41.4854 30.981Z" fill="#E86262"/>
<path id="Vector_6" d="M25.4826 24.9863C25.2226 24.9936 24.9758 25.1021 24.7947 25.2887L21.7899 28.2973C21.6065 28.4839 21.5034 28.7348 21.5027 28.9965V35.0023H23.5058V29.4085L26.2045 26.7098C26.3489 26.5695 26.4477 26.3889 26.488 26.1916C26.5282 25.9943 26.508 25.7894 26.4301 25.6037C26.3522 25.4181 26.22 25.2602 26.051 25.1507C25.882 25.0413 25.6839 24.9815 25.4826 24.9863Z" fill="#FFBC42"/>
<path id="Vector_7" d="M10.4965 34.9988V39.0014C10.4965 39.5532 10.95 39.9992 11.5018 39.9954H33.4991C33.7641 39.9964 34.0187 39.8924 34.2071 39.7061C34.3956 39.5198 34.5025 39.2664 34.5045 39.0014V34.995C34.5025 34.73 34.3956 34.4766 34.2071 34.2903C34.0187 34.104 33.7641 34 33.4991 34.001H11.4489C11.1929 34.0145 10.9516 34.1253 10.7746 34.3108C10.5975 34.4963 10.498 34.7424 10.4965 34.9988Z" fill="#C8D4D9"/>
</g>
</svg>
