<svg width="20" height="20" viewBox="0 0 20 20" fill="none" xmlns="http://www.w3.org/2000/svg">
<path d="M18.4241 3.33333H15.0066C14.6191 1.43417 12.9357 0 10.9241 0H9.25741C7.24574 0 5.56157 1.43417 5.17491 3.33333H1.75741C1.29657 3.33333 0.924072 3.70667 0.924072 4.16667C0.924072 4.62667 1.29657 5 1.75741 5H2.47407L3.55407 16.2325C3.76074 18.3808 5.54407 20 7.70241 20H12.4749C14.6366 20 16.4191 18.3775 16.6232 16.2267L17.6866 5H18.4249C18.8857 5 19.2582 4.62667 19.2582 4.16667C19.2582 3.70667 18.8857 3.33333 18.4249 3.33333H18.4241ZM9.25741 1.66667H10.9241C12.0107 1.66667 12.9366 2.36333 13.2807 3.33333H6.90074C7.24491 2.36333 8.17074 1.66667 9.25741 1.66667ZM14.9641 16.0692C14.8416 17.36 13.7716 18.3333 12.4749 18.3333H7.70241C6.40741 18.3333 5.33741 17.3608 5.21324 16.0725L4.14907 5H16.0132L14.9641 16.0692ZM13.0891 10.4008C13.4149 10.7267 13.4149 11.2542 13.0891 11.5792C12.9266 11.7417 12.7132 11.8233 12.4999 11.8233C12.2866 11.8233 12.0732 11.7417 11.9107 11.5792L10.8332 10.5017V14.1667C10.8332 14.6267 10.4607 15 9.99991 15C9.53907 15 9.16657 14.6267 9.16657 14.1667V10.5017L8.08907 11.5792C7.76324 11.905 7.23657 11.905 6.91074 11.5792C6.58491 11.2542 6.58491 10.7267 6.91074 10.4008L8.25491 9.05583C9.21824 8.09333 10.7841 8.095 11.7449 9.05583L13.0891 10.4008Z" fill="#013216"/>
</svg>
