<svg width="32" height="33" viewBox="0 0 32 33" fill="none" xmlns="http://www.w3.org/2000/svg">
<g id="lightbulb_Icon" clip-path="url(#clip0_2246_7679)">
<path id="Vector" d="M23.9919 3.54776C21.4479 1.27443 18.0292 0.191761 14.6079 0.578428C9.20521 1.18909 4.78655 5.54243 4.09988 10.9291C3.60121 14.8371 4.95855 18.6091 7.82388 21.2771C9.65721 22.9824 10.6665 25.1438 10.6665 27.3651V27.5798C10.6665 30.2931 12.8732 32.4998 15.5865 32.4998H16.4119C19.1252 32.4998 21.3319 30.2931 21.3319 27.5798V26.8478C21.3319 24.8664 22.2479 22.9731 23.9079 21.5171C26.5079 19.2398 27.9985 15.9531 27.9985 12.4998C27.9985 9.08643 26.5385 5.82376 23.9919 3.54776ZM16.4119 29.8331H15.5865C14.3439 29.8331 13.3332 28.8224 13.3332 27.5798V27.3651C13.3332 27.2984 13.3319 27.2318 13.3305 27.1664H18.6665V27.5798C18.6665 28.8224 17.6545 29.8331 16.4132 29.8331H16.4119ZM22.1505 19.5118C20.5812 20.8878 19.4865 22.6318 18.9825 24.4998H12.9185C12.3585 22.5918 11.2412 20.8131 9.64121 19.3251C7.41321 17.2504 6.35721 14.3131 6.74655 11.2678C7.27855 7.08376 10.7119 3.70376 14.9079 3.22909C15.2785 3.18776 15.6465 3.16643 16.0119 3.16643C18.3119 3.16643 20.4825 3.98909 22.2145 5.53709C24.1959 7.30776 25.3332 9.84509 25.3332 12.4998C25.3332 15.1838 24.1732 17.7398 22.1505 19.5118ZM14.6665 15.1664V8.49976C14.6665 7.76376 15.2625 7.16643 15.9999 7.16643C16.7372 7.16643 17.3332 7.76376 17.3332 8.49976V15.1664C17.3332 15.9024 16.7372 16.4998 15.9999 16.4998C15.2625 16.4998 14.6665 15.9024 14.6665 15.1664ZM17.9999 19.8331C17.9999 20.9371 17.1039 21.8331 15.9999 21.8331C14.8959 21.8331 13.9999 20.9371 13.9999 19.8331C13.9999 18.7291 14.8959 17.8331 15.9999 17.8331C17.1039 17.8331 17.9999 18.7291 17.9999 19.8331Z" fill="#EDD500"/>
</g>
<defs>
<clipPath id="clip0_2246_7679">
<rect width="32" height="32" fill="white" transform="translate(0 0.5)"/>
</clipPath>
</defs>
</svg>
