<svg width="20" height="20" viewBox="0 0 20 20" fill="none" xmlns="http://www.w3.org/2000/svg">
<g id="Log_Out_Icon" clip-path="url(#clip0_1369_9704)">
<g id="Group">
<path id="Vector" d="M6.66786 17.5H2.84204C2.65399 17.4995 2.50165 17.3472 2.50122 17.1592V2.84082C2.50169 2.65277 2.65399 2.50043 2.84204 2.5H6.66786C7.35821 2.5 7.91786 1.94035 7.91786 1.25C7.91786 0.559648 7.35821 0 6.66786 0H2.84204C1.27384 0.00183594 0.00305664 1.27266 0.0012207 2.84082V17.1591C0.00305664 18.7273 1.27384 19.9982 2.84204 20H6.66786C7.35821 20 7.91786 19.4404 7.91786 18.75C7.91786 18.0596 7.35821 17.5 6.66786 17.5Z" fill="#F54333"/>
<path id="Vector_2" d="M18.9028 7.34844L15.6678 4.11594C15.1795 3.62785 14.388 3.62805 13.8999 4.11637C13.4118 4.60469 13.412 5.39621 13.9003 5.8843L16.7437 8.7268L5.41785 8.75012C4.7275 8.75012 4.16785 9.30977 4.16785 10.0001C4.16785 10.6905 4.7275 11.2501 5.41785 11.2501L16.7895 11.2293L13.9003 14.1185C13.43 14.6238 13.4583 15.4147 13.9635 15.8851C14.4438 16.3322 15.188 16.3318 15.6678 15.8843L18.9003 12.6518C20.3648 11.1873 20.3648 8.81297 18.9004 7.34852L18.9003 7.34848L18.9028 7.34844Z" fill="#F54333"/>
</g>
</g>
<defs>
<clipPath id="clip0_1369_9704">
<rect width="20" height="20" fill="white"/>
</clipPath>
</defs>
</svg>
