<svg width="20" height="20" viewBox="0 0 20 20" fill="none" xmlns="http://www.w3.org/2000/svg">
<g id="Medal_Icon" clip-path="url(#clip0_3297_486)">
<path id="Vector" d="M18.5083 0.7825C18.2041 0.2925 17.6775 0 17.1008 0H14.5933C13.315 0 12.1691 0.711667 11.6041 1.85833L10.0533 5.0025C10.0358 5.0025 10.0183 5 10.0008 5C9.98913 5 9.9783 5.00167 9.96663 5.00167L8.4158 1.85833C7.84997 0.711667 6.70497 0 5.42663 0H2.91913C2.34247 0 1.8158 0.2925 1.5108 0.7825C1.20663 1.2725 1.17747 1.87417 1.43247 2.39167L4.1258 7.8525C3.11163 9.13167 2.5008 10.745 2.5008 12.5008C2.5008 16.6358 5.8658 20.0008 10.0008 20.0008C14.1358 20.0008 17.5008 16.6358 17.5008 12.5008C17.5008 10.7517 16.8941 9.145 15.8866 7.8675L18.5875 2.3925C18.8433 1.875 18.8133 1.27333 18.5091 0.783333L18.5083 0.7825ZM5.4258 1.66667C6.06497 1.66667 6.63747 2.0225 6.91997 2.59583L8.2158 5.22333C7.16247 5.48167 6.1958 5.96 5.36913 6.61167L2.9183 1.66667H5.4258ZM9.99997 18.3333C6.7833 18.3333 4.16663 15.7167 4.16663 12.5C4.16663 9.45 6.5208 6.94333 9.50747 6.69167C9.5083 6.69167 9.50913 6.69167 9.5108 6.69167C9.67247 6.67833 9.8358 6.66667 10.0008 6.66667C13.2175 6.66667 15.8341 9.28333 15.8341 12.5C15.8341 15.7167 13.2175 18.3333 10.0008 18.3333H9.99997ZM14.6416 6.62083C13.8166 5.9675 12.8516 5.48833 11.8 5.2275L13.0983 2.59583C13.3808 2.0225 13.9533 1.66667 14.5925 1.66667L17.0925 1.65417L14.6416 6.62083ZM13.4641 12.0083C13.4641 12.3092 13.255 12.5625 13.015 12.6958L11.7733 13.3858L12.3241 14.8883C12.4308 15.1792 12.3341 15.5058 12.0866 15.6925C11.8333 15.8833 11.4841 15.8808 11.2341 15.6867L9.99913 14.7317L8.76413 15.6867C8.5133 15.88 8.16413 15.8825 7.91163 15.6925C7.66413 15.5058 7.56747 15.18 7.67413 14.8883L8.22497 13.3858L6.9833 12.6958C6.7433 12.5625 6.53413 12.3092 6.53413 12.0083C6.53413 11.7533 6.7558 11.4717 7.11413 11.4717H8.89747L9.36997 9.65917C9.44497 9.37167 9.70247 9.17167 9.99913 9.16667C10.295 9.1725 10.5533 9.37167 10.6283 9.65917L11.1008 11.4717H12.8841C13.2425 11.4717 13.4641 11.7525 13.4641 12.0083Z" fill="#013216"/>
</g>
<defs>
<clipPath id="clip0_3297_486">
<rect width="20" height="20" fill="white"/>
</clipPath>
</defs>
</svg>
