<svg width="55" height="64" viewBox="0 0 55 64" fill="none" xmlns="http://www.w3.org/2000/svg">
<g id="Group">
<path id="Vector" d="M48.4625 8.88762C48.05 8.88762 47.675 8.62512 47.5375 8.21262C47.375 7.70012 47.6625 7.16262 48.175 7.00012L52.025 5.78762C52.5375 5.62512 53.075 5.91262 53.2375 6.42512C53.4 6.93762 53.1125 7.47512 52.6 7.63762L48.75 8.85012C48.65 8.87512 48.5625 8.88762 48.4625 8.88762Z" fill="#35C071"/>
<path id="Vector_2" d="M52.5875 10.1L41.375 6.225C40.6625 5.975 39.8875 6.3625 39.6375 7.075L34.3375 22.4125C34.0875 23.125 34.475 23.9 35.1875 24.15L46.4 28.025C47.1125 28.275 47.8875 27.8875 48.1375 27.175L53.4375 11.8375C53.675 11.125 53.3 10.3375 52.5875 10.1Z" fill="#FE5694"/>
<path id="Vector_3" d="M38.725 25.375L35.175 24.15C34.4625 23.9 34.0875 23.125 34.325 22.4125L39.625 7.07503C39.875 6.36253 40.65 5.98753 41.3625 6.22503L44.9125 7.45002C44.2 7.20002 43.425 7.58753 43.175 8.30003L37.875 23.6375C37.6375 24.35 38.0125 25.125 38.725 25.375Z" fill="#FD3581"/>
<path id="Vector_4" d="M53.0375 10.4749C52.9375 10.4749 52.825 10.4624 52.725 10.4249L41.5125 6.54995C41.0125 6.37495 40.7375 5.82495 40.9125 5.32495C41.0875 4.82495 41.6375 4.54995 42.1375 4.72495L53.35 8.59995C53.85 8.77495 54.125 9.32495 53.95 9.82495C53.8125 10.2249 53.4375 10.4749 53.0375 10.4749Z" fill="#E6F7ED"/>
<path id="Vector_5" d="M30.9125 9.09993C30.6625 9.09993 30.4125 8.99993 30.225 8.81243C29.85 8.42493 29.8625 7.82493 30.2375 7.44993L33.125 4.62493C33.5125 4.24993 34.1125 4.26243 34.4875 4.63743C34.8625 5.02493 34.85 5.62493 34.475 5.99993L31.5875 8.82493C31.4 9.01243 31.15 9.09993 30.9125 9.09993Z" fill="#35C071"/>
<path id="Vector_6" d="M35.825 7.98755L24.075 9.60005C23.325 9.70005 22.8 10.3876 22.9 11.1376L25.1125 27.2251C25.2125 27.9751 25.9 28.5001 26.65 28.4001L38.4 26.7876C39.15 26.6876 39.675 26.0001 39.575 25.2501L37.3625 9.16255C37.2625 8.41256 36.575 7.88755 35.825 7.98755Z" fill="#60B7FF"/>
<path id="Vector_7" d="M30.375 27.8876L26.65 28.4001C25.9 28.5001 25.2125 27.9751 25.1125 27.2251L22.9 11.1501C22.8 10.4001 23.325 9.7126 24.075 9.6126L27.8 9.1001C27.05 9.2001 26.525 9.8876 26.625 10.6376L28.8375 26.7251C28.9375 27.4626 29.625 27.9876 30.375 27.8876Z" fill="#359FC0"/>
<path id="Vector_8" d="M23.95 10.0624C23.475 10.0624 23.0625 9.71244 23 9.22494C22.925 8.69994 23.3 8.21244 23.825 8.13744L35.575 6.52494C36.1 6.44994 36.5875 6.82494 36.6625 7.34994C36.7375 7.87494 36.3625 8.36244 35.8375 8.43744L24.0875 10.0499C24.0375 10.0499 23.9875 10.0624 23.95 10.0624Z" fill="#E6F7ED"/>
<path id="Vector_9" d="M26.4375 14.5875L25.45 14.025C25.175 13.8625 25.0125 13.575 25.0125 13.2625V13.25C25.0125 12.9375 25.175 12.65 25.45 12.4875L26.4375 11.9125C27.6125 11.2375 28.0125 9.725 27.3375 8.55L25.1 4.6875C24.425 3.5125 22.9125 3.1 21.7375 3.7875L20.75 4.3625C20.475 4.525 20.15 4.5125 19.875 4.3625H19.8625C19.5875 4.2 19.425 3.9125 19.425 3.6V2.4625C19.425 1.1 18.325 0 16.9625 0H12.5C11.1375 0 10.0375 1.1 10.0375 2.4625V3.6C10.0375 3.9125 9.875 4.2 9.6 4.3625H9.5875C9.3125 4.5125 8.9875 4.525 8.7125 4.3625L7.725 3.7875C6.55 3.1125 5.0375 3.5125 4.3625 4.6875L2.1375 8.5625C1.4625 9.7375 1.8625 11.25 3.0375 11.925L4.025 12.5C4.3 12.6625 4.4625 12.95 4.4625 13.2625V13.275C4.4625 13.5875 4.3 13.875 4.025 14.0375L3.0375 14.6C1.8625 15.275 1.45 16.7875 2.1375 17.9625L4.375 21.825C5.05 23 6.5625 23.4125 7.7375 22.725L8.725 22.15C9 22 9.325 22 9.6 22.15H9.6125C9.875 22.3 10.05 22.5875 10.05 22.9V24.05C10.05 25.4125 11.15 26.5125 12.5125 26.5125H16.975C18.3375 26.5125 19.4375 25.4125 19.4375 24.05V22.9C19.4375 22.5875 19.6 22.3 19.875 22.15H19.8875C20.15 21.9875 20.4875 21.9875 20.7625 22.15L21.75 22.725C22.925 23.4 24.4375 23 25.1125 21.825L27.35 17.9625C28.0125 16.775 27.6125 15.275 26.4375 14.5875ZM14.7375 18.6375C11.7625 18.6375 9.3625 16.225 9.3625 13.2625C9.3625 10.3 11.7625 7.8875 14.7375 7.8875C17.7125 7.8875 20.1125 10.2875 20.1125 13.2625C20.1125 16.2375 17.7 18.6375 14.7375 18.6375Z" fill="#7A6D79"/>
<path id="Vector_10" d="M7.3375 21.825L5.1 17.9625C4.425 16.7875 4.825 15.275 6 14.6L6.9875 14.0375C7.2625 13.875 7.425 13.5875 7.425 13.275V13.25C7.425 12.9375 7.2625 12.65 6.9875 12.4875L6 11.9125C4.825 11.2375 4.4125 9.725 5.1 8.55L7.3375 4.6875C7.5625 4.2875 7.7625 4.05 7.9625 3.925L7.725 3.7875C6.55 3.1125 5.0375 3.5125 4.3625 4.6875L2.1375 8.5625C1.4625 9.7375 1.8625 11.25 3.0375 11.925L4.025 12.5C4.3 12.6625 4.4625 12.95 4.4625 13.2625V13.275C4.4625 13.5875 4.3 13.875 4.025 14.0375L3.0375 14.6C1.8625 15.275 1.45 16.7875 2.1375 17.9625L4.375 21.825C5.05 23 6.5625 23.4125 7.7375 22.725L7.975 22.5875C7.7625 22.4625 7.575 22.225 7.3375 21.825ZM13.0125 24.05V22.9125C13.0125 22.6 12.85 22.3125 12.575 22.1625H12.5625C12.2875 22 9.5875 22.1625 9.5875 22.1625H9.6C9.8625 22.3125 10.0375 22.6 10.0375 22.9125V24.05C10.0375 25.4125 11.1375 26.5125 12.5 26.5125H15.475C14.1125 26.525 13.0125 25.4125 13.0125 24.05ZM12.5 0C11.1375 0 10.0375 1.1 10.0375 2.4625V3.6C10.0375 3.9125 9.875 4.2 9.6 4.3625C9.6 4.3625 12.3 4.525 12.5625 4.3625H12.575C12.85 4.2 13.0125 3.9125 13.0125 3.6V2.4625C13.0125 1.1 14.1125 0 15.475 0L12.5 0Z" fill="#252525"/>
<path id="Vector_11" d="M12.6 64H9.6375C8.825 64 8.1625 63.3376 8.1625 62.5251V59.8251L11.3625 56.55L14.075 59.8251V62.5251C14.075 63.3376 13.4125 64 12.6 64ZM45.3625 64H42.4C41.5875 64 40.925 63.3376 40.925 62.5251V59.8251L43.95 56.55L46.8375 59.8251V62.5251C46.8375 63.3376 46.175 64 45.3625 64Z" fill="#7A6D79"/>
<path id="Vector_12" d="M53 19.2625H2C1.2875 19.2625 0.725001 19.8625 0.775001 20.575L3.1625 55.9375C3.3125 58.125 5.125 59.825 7.325 59.825H47.6875C49.875 59.825 51.7 58.125 51.85 55.9375L54.2375 20.575C54.275 19.8625 53.7125 19.2625 53 19.2625Z" fill="url(#paint0_linear_1931_367)"/>
<path id="Vector_13" d="M11.6125 59.825H7.325C5.125 59.825 3.3125 58.125 3.1625 55.9375L0.775001 20.575C0.725001 19.8625 1.2875 19.2625 2 19.2625H6.3C5.5875 19.2625 5.025 19.8625 5.075 20.575L7.4625 55.9375C7.6 58.125 9.425 59.825 11.6125 59.825Z" fill="#35C071"/>
<g id="Group_2">
<path id="Vector_14" d="M29.5625 46.8L25.275 44.325C24.6625 43.9625 23.8875 44.4125 23.8875 45.125V45.55H20.725C20.7375 44.8375 20.3625 44.1375 19.7 43.75C18.725 43.1875 17.475 43.525 16.9 44.5C16.275 45.575 16.275 46.85 16.9 47.925C17.525 49 18.625 49.6375 19.8625 49.6375H23.875V50.0625C23.875 50.775 24.65 51.225 25.2625 50.8625L29.55 48.3875C30.175 48.05 30.175 47.1625 29.5625 46.8ZM38.1 43.3625L36.0875 39.8875L36.4625 39.675C37.075 39.3125 37.075 38.425 36.4625 38.0625L32.175 35.5875C31.55 35.225 30.7875 35.675 30.7875 36.3875V41.3375C30.7875 42.05 31.5625 42.5 32.175 42.1375L32.55 41.925L34.1375 44.6625C33.5125 45.0125 33.1 45.6875 33.1 46.45C33.1 47.575 34.0125 48.5 35.15 48.5C36.3875 48.5 37.5 47.8625 38.1125 46.7875C38.725 45.7125 38.725 44.425 38.1 43.3625ZM21.4375 40.5375L25.725 38.0625C26.3375 37.7 26.3375 36.8125 25.725 36.45L25.35 36.2375L26.925 33.5C27.5375 33.8625 28.325 33.9 28.9875 33.5125C29.9625 32.95 30.3 31.7 29.7375 30.7125C29.1125 29.6375 28.0125 29 26.775 29C25.5375 29 24.425 29.6375 23.8125 30.7125L21.8125 34.1875L21.4375 33.975C20.825 33.6125 20.05 34.0625 20.05 34.775V39.725C20.05 40.45 20.825 40.8875 21.4375 40.5375Z" fill="#F5F8F9"/>
</g>
</g>
<defs>
<linearGradient id="paint0_linear_1931_367" x1="27.5826" y1="72.1386" x2="27.5827" y2="-15.8676" gradientUnits="userSpaceOnUse">
<stop stop-color="#03B04E"/>
<stop offset="1" stop-color="#02C320"/>
</linearGradient>
</defs>
</svg>
