<svg width="65" height="64" viewBox="0 0 65 64" fill="none" xmlns="http://www.w3.org/2000/svg">
<g id="Group">
<path id="Vector" fill-rule="evenodd" clip-rule="evenodd" d="M19.5745 21.4196C21.1961 18.6091 28.9041 20.0235 36.7867 24.5756C44.673 29.1278 49.7486 35.0943 48.127 37.9048C47.2244 39.4621 46.3239 41.0207 45.4256 42.5805C43.804 45.391 36.096 43.9766 28.2134 39.4245C20.3307 34.8724 15.2551 28.906 16.8767 26.0954C17.7747 24.5391 18.6764 22.9794 19.5745 21.4196Z" fill="#FE9923"/>
<path id="Vector_2" fill-rule="evenodd" clip-rule="evenodd" d="M36.7867 24.5756C44.673 29.1277 49.7486 35.0942 48.127 37.9047C46.5017 40.7152 38.7974 39.3044 30.9111 34.7524C23.0285 30.2003 17.9529 24.2302 19.5745 21.4197C21.196 18.6092 28.9041 20.0234 36.7867 24.5756Z" fill="#FECD3D"/>
<path id="Vector_3" fill-rule="evenodd" clip-rule="evenodd" d="M35.416 26.9536C41.6879 30.5749 46.0691 34.7234 45.2074 36.2214C44.342 37.7158 38.5574 35.9924 32.2855 32.3747C26.0136 28.7533 21.6288 24.6012 22.4941 23.1068C23.3558 21.6088 29.1441 23.3322 35.416 26.9536Z" fill="#FEA832"/>
<path id="Vector_4" d="M40.9933 41.3407L39.5572 43.8312C40.0953 43.9184 40.6043 43.9765 41.088 44.002L42.2187 42.0459L40.9933 41.3407ZM35.8413 42.8969C35.3882 42.7482 34.9385 42.5894 34.4925 42.4207L35.8596 40.05L37.0776 40.7554L35.8413 42.8969ZM31.0856 40.9517C30.663 40.7461 30.2436 40.534 29.8276 40.3154L31.1328 38.0503L32.3508 38.7593L31.0856 40.9517ZM26.6353 38.472C26.2353 38.2175 25.8391 37.963 25.4537 37.7013L26.7226 35.5052L27.9442 36.2105L26.6353 38.472ZM22.4795 35.4869C22.1102 35.1848 21.7477 34.8745 21.3923 34.5562L22.6286 32.411L23.8466 33.1164L22.4795 35.4869ZM18.7273 31.8038C18.3856 31.382 18.0765 30.9675 17.8111 30.5677L18.9418 28.6079L20.1635 29.3133L18.7273 31.8038Z" fill="#C85929"/>
<path id="Vector_5" fill-rule="evenodd" clip-rule="evenodd" d="M8.96503 40.428H18.5347C22.3887 43.3985 26.2427 46.3726 30.0967 49.3467C31.6492 50.543 32.0747 52.6845 31.1947 54.3679L42.6404 48.8195C44.6219 47.8596 47.0253 48.6922 47.9852 50.6737C48.945 52.6516 48.1088 55.0586 46.1309 56.0185C25.65 65.9481 29.6095 66.3226 8.96503 55.5532V40.428Z" fill="#FFCEBF"/>
<path id="Vector_6" d="M19.5599 48.9177L18.7818 48.3179L17.5855 49.8704L25.908 56.2914C26.9915 57.1276 28.3186 57.4439 29.5839 57.2839C30.8491 57.1202 32.0563 56.4767 32.8925 55.3896C33.0343 55.2042 33.1653 55.0115 33.2779 54.8115C33.3979 54.6006 33.4996 54.3934 33.5796 54.1897L34.0741 52.9717L31.1945 54.3679C30.7119 54.9041 30.0523 55.2487 29.3365 55.3386C28.5694 55.4367 27.7621 55.2477 27.1041 54.7387L19.5599 48.9177Z" fill="#FFB09E"/>
<path id="Vector_7" fill-rule="evenodd" clip-rule="evenodd" d="M0.5625 37.6829H8.965V58.2982H0.5625V37.6829Z" fill="#435469"/>
<path id="Vector_8" fill-rule="evenodd" clip-rule="evenodd" d="M56.0386 23.5721H46.4654C42.611 20.6011 38.7582 17.6282 34.9069 14.6533C33.3507 13.4571 32.9254 11.3156 33.8089 9.6322L22.3595 15.1806C20.3815 16.1405 17.9746 15.3078 17.0147 13.3263C16.0549 11.3485 16.8911 8.94145 18.869 7.98158C39.3499 -1.94792 35.394 -2.32242 56.0385 8.44695L56.0386 23.5721Z" fill="#FFCEBF"/>
<path id="Vector_9" d="M45.44 15.0823L46.2182 15.6821L47.4144 14.1296L39.0955 7.70875C38.0084 6.8725 36.6813 6.55613 35.4197 6.71613C34.1508 6.87975 32.9473 7.52325 32.1074 8.61038C31.9669 8.79479 31.8382 8.98788 31.722 9.1885C31.6082 9.38908 31.5075 9.59676 31.4203 9.81025L30.9258 11.0283L33.809 9.63213C34.2897 9.0954 34.9483 8.75062 35.6633 8.66138C36.4342 8.56325 37.2377 8.75225 37.8957 9.26125L45.44 15.0823Z" fill="#FFB09E"/>
<path id="Vector_10" fill-rule="evenodd" clip-rule="evenodd" d="M56.0386 5.7019H64.4375V26.3173H56.0386V5.7019Z" fill="#435469"/>
<path id="Vector_11" d="M10.6047 22.0232V24.5356H13.1171V26.3317H10.6047V28.8478H8.8086V26.3317H6.2926V24.5356H8.8086V22.0232H10.6047ZM55.7222 30.5821V33.0981H58.2347V34.8942H55.7222V37.4102H53.9261V34.8942H51.4101V33.0981H53.9261V30.5821H55.7222Z" fill="#FEA832"/>
</g>
</svg>
