<svg width="100" height="78" viewBox="0 0 100 78" fill="none" xmlns="http://www.w3.org/2000/svg">
<g id="244124 1">
<g id="surface1">
<path id="Vector" fill-rule="evenodd" clip-rule="evenodd" d="M29.3385 35.5104C29.0833 35.6094 28.7448 35.8698 28.5104 36.0156C26.6771 37.151 24.9271 38.6458 23.3281 40.0938C22.8073 40.5573 21.2552 42.1302 20.7135 42.7812C19.8073 43.8594 19.2708 44.474 18.349 45.6771C15.3698 49.5729 13.1406 53.8177 11.0937 58.2344C10.849 58.7604 10.8437 59.9635 11.1198 60.5156C11.599 61.4792 12.4635 61.9271 13.4948 62.0938C13.8021 62.1458 15.6719 62.1042 16.151 62.1042C39.0469 62.1042 61.9375 62.1042 84.8281 62.1042C85.7812 62.1042 86.3854 62.125 87.2135 61.8646C88.6927 61.3958 89.5312 60.401 89.3438 58.7448C89.25 57.9219 89.0312 57.3229 88.8385 56.5885C88.1875 54.1823 86.8438 51.3906 85.5781 49.2812C84.7708 47.9375 83.3073 45.8385 82.2865 44.6875L80.401 42.5677C79.7135 41.8385 79.1354 41.2917 78.4323 40.6094C78 40.1927 77.5521 39.7969 77.0677 39.349C76.3281 38.6615 71.5312 34.7656 71.1354 34.7188C70.8698 35.1042 70.6354 35.6302 70.375 36.0833C70.099 36.5625 69.8698 36.9844 69.6198 37.4479L65.0937 45.625C64.9167 45.6146 63.7917 44.9583 63.5156 44.8177C54.9167 40.401 45.6875 40.4792 37.1094 44.9323L35.5781 45.7656C35.5 45.7031 35.5885 45.7969 35.4896 45.6823C35.4583 45.6406 35.474 45.6615 35.4427 45.6146C35.4115 45.5625 35.3698 45.4948 35.3385 45.4427L32.4479 40.6458C32.2448 40.3021 29.5104 35.7083 29.3385 35.5104Z" fill="#EA1D78"/>
<path id="Vector_2" fill-rule="evenodd" clip-rule="evenodd" d="M43.6353 40.9114L44.7603 39.4687L45.505 39.9426C45.7082 40.0728 46.1353 40.3124 46.2498 40.4531C45.4582 40.4739 44.2082 40.8593 43.6353 40.9114ZM27.8853 31.0781C27.9321 31.2916 28.6925 32.4947 28.8592 32.7708L35.3748 43.7968C35.5311 44.0676 35.7082 44.3801 35.8905 44.651C36.0311 44.6249 37.0988 44.0312 37.3696 43.8958C41.3592 41.8801 45.5467 40.8281 50.1769 40.8281C54.828 40.8228 58.9842 42.026 63.1248 43.7135C63.6405 43.927 64.1925 44.2447 64.6978 44.4166C64.8228 44.2812 65.0571 43.802 65.1665 43.5937C65.3175 43.302 65.479 42.9895 65.6353 42.7239C65.9425 42.1874 66.2498 41.5885 66.5571 41.0156C67.1821 39.8385 67.7811 38.7083 68.4113 37.5728C69.0571 36.4166 69.6092 35.2968 70.2498 34.1562L71.6353 31.5781C71.7394 31.3958 72.0519 30.8489 72.0884 30.677L67.6405 28.4478C66.6561 27.9791 63.7863 26.6666 62.7967 26.5468L62.63 27.1353C62.9061 27.2708 63.4373 27.4062 63.7707 27.526C66.2082 28.4114 68.4009 29.5364 70.6925 30.6926C70.8644 30.776 71.0571 30.9062 71.2186 30.9478C71.1665 31.1926 69.7134 33.7968 69.5467 34.1145C69.2655 34.651 68.979 35.1562 68.6925 35.6926L67.8384 37.276C67.255 38.3228 66.729 39.3801 66.1509 40.4166C65.8488 40.9531 65.5988 41.4583 65.2967 41.9947C65.1509 42.2656 65.0155 42.5208 64.8696 42.7864L64.4217 43.5781C64.104 43.4843 62.9425 42.9426 62.505 42.7656C61.8488 42.5051 61.203 42.2708 60.5311 42.0312C57.6821 41.0051 54.5988 40.401 51.5103 40.2187C49.7134 40.1145 48.0571 40.2395 46.3332 40.4218C46.6144 39.9635 47.2446 39.4791 47.5467 38.9999C47.6717 39.0676 48.0675 39.427 48.1925 39.5364L48.6561 39.9322C48.6925 39.9583 48.7186 39.9843 48.7446 39.9999C48.8384 40.0728 48.7342 40.0156 48.8436 40.0676C49.1978 39.9062 50.0571 39.0624 50.453 38.8333C50.7811 39.026 51.1717 39.8801 51.505 39.9739L52.5363 39.1301C52.6873 39.0156 52.755 38.9218 52.9217 38.8333C53.0884 39.0312 53.2707 39.2812 53.4165 39.4895C53.5207 39.6406 53.5519 39.6926 53.6613 39.8333C53.7446 39.9426 53.8332 40.0572 53.9113 40.1718C54.1821 40.0885 54.453 39.9062 54.7186 39.776C54.9686 39.6458 55.3019 39.4739 55.5571 39.3645C55.9738 39.7603 56.3019 40.302 56.729 40.7031C57.1925 40.6249 57.9061 40.0312 58.38 39.9218L59.1925 41.3593L61.0311 40.8072C61.2655 41.2916 61.7811 41.6822 61.9634 42.1614C62.354 42.1353 64.1769 41.5676 64.6873 41.4218C64.9634 41.3385 65.3123 41.2812 65.5675 41.1614L65.4009 39.3593C65.5519 39.2291 65.9738 38.9999 66.1561 38.901C66.4217 38.7499 66.6717 38.6041 66.9269 38.4478L66.6717 36.6041C66.8853 36.552 67.9946 36.0989 68.1925 35.9791L67.9425 34.0676L69.6509 33.4426C69.6144 33.1666 69.4425 32.7291 69.3488 32.4635C69.2394 32.1301 69.1405 31.8281 69.0363 31.526C68.9373 31.2395 68.828 30.8749 68.7238 30.5833C68.63 30.3228 68.4582 29.8697 68.4165 29.6249C68.0936 29.5624 66.8384 30.0885 66.3853 30.1093L65.7655 28.6093C65.4217 28.6458 64.3592 29.1562 63.953 29.302C63.6561 29.0208 63.2238 27.9947 62.9321 27.6093C62.7707 27.6406 60.7655 28.526 60.6613 28.6041C60.8019 28.7031 61.5155 28.8333 61.729 28.8958C62.104 28.9999 62.4217 29.1041 62.7759 29.2239C64.4113 29.7864 65.979 30.5676 67.4738 31.401C67.6821 31.5208 68.1925 31.7603 68.3436 31.901C68.229 32.1978 64.604 39.1822 64.2446 39.8801C64.0467 40.2551 63.8853 40.6978 63.6353 41.0312C63.1717 40.8697 62.6509 40.6562 62.1613 40.4791C56.0623 38.2395 49.0467 37.5624 42.703 39.2603C41.6196 39.552 40.604 39.8645 39.5988 40.2812C39.1092 40.4843 38.6353 40.6666 38.1717 40.8853C37.8175 41.052 37.0675 41.4739 36.755 41.5676C36.5832 41.3593 36.2707 40.7239 36.13 40.4531C35.9321 40.0833 35.7134 39.6666 35.505 39.3072L33.6509 35.9426C33.229 35.1458 32.0467 33.1562 31.7759 32.5208C32.0884 32.302 32.4738 32.0833 32.8384 31.8697C33.2082 31.651 33.5884 31.4531 33.9634 31.2656C34.354 31.0676 34.7446 30.8906 35.1405 30.7187C35.505 30.5572 35.9842 30.3541 36.3748 30.2239C38.104 29.651 40.0988 29.0051 41.9165 28.8176C41.8332 28.651 41.6248 28.5312 41.4582 28.4114C41.13 28.1614 40.3071 27.4426 40.0103 27.3385C39.7863 27.526 38.7186 28.8489 38.5675 29.0364L36.8384 28.4062C36.6769 28.6458 36.5259 28.9478 36.3748 29.2083C36.2603 29.4166 36.0103 29.8385 35.9425 30.0312C35.3592 29.9166 34.5571 29.3333 34.0103 29.2343L33.3748 30.9322C32.8957 30.901 31.953 30.4947 31.5363 30.526C31.3748 31.1406 30.4894 33.6041 30.479 33.9791C30.8957 34.2603 31.8071 34.4374 32.255 34.7239L32.0988 36.4218C32.3384 36.6301 33.2655 36.8645 33.6144 37.0781L33.3644 38.8801C33.8644 39.2291 34.5675 39.3906 35.0623 39.7083C35.0728 40.1249 34.7134 41.0051 34.7603 41.3593L38.2811 42.7135C38.6092 42.401 39.0571 41.5208 39.3853 41.1093C39.8019 41.1249 40.5467 41.5208 40.953 41.5156C41.0884 41.3958 41.1196 41.3437 41.2134 41.2239C41.3123 41.1093 41.3696 41.0676 41.4894 40.9478C41.6873 40.7603 41.7811 40.5208 42.0519 40.3697C42.3332 40.4843 43.2707 40.8281 43.4478 40.9583C42.1457 41.3489 40.88 41.677 39.6196 42.1822C38.5363 42.6197 37.578 43.0468 36.578 43.5781C36.4217 43.6614 36.2811 43.776 36.1248 43.7864C35.7967 43.2656 35.5155 42.7708 35.203 42.2447L33.3696 39.1301C32.4425 37.6145 31.5155 35.9895 30.6144 34.4687C30.2915 33.927 29.979 33.4374 29.6925 32.9166C29.4738 32.5208 28.9061 31.6874 28.7811 31.3489C29.1665 31.0624 29.7655 30.802 30.2186 30.5833C31.7446 29.8333 33.2446 29.1666 34.8436 28.5364C36.453 27.8958 38.203 27.3593 39.9009 26.9218C40.2342 26.8385 41.5155 26.5833 41.6978 26.4843L41.5884 25.8958C40.6092 25.8541 35.4321 27.5833 34.3175 28.0468C31.7082 29.1406 30.4842 29.7135 27.8853 31.0781Z" fill="#002E63"/>
<path id="Vector_3" fill-rule="evenodd" clip-rule="evenodd" d="M49.2395 31.7607C49.1978 32.0524 49.4322 32.2347 49.4322 32.5264C49.2499 32.5003 49.2603 32.4587 49.0364 32.4951L48.9999 32.7451L48.8072 34.7243C48.7447 35.3285 48.9687 36.0107 49.4062 36.3597C50.5051 37.2451 51.6041 36.8076 52.6145 36.0628L53.8124 35.0264L56.0259 32.7607C56.2187 32.5628 56.3853 32.4118 56.5728 32.2087C57.9947 30.6514 59.5259 29.1982 60.9895 27.6826L63.9739 25.0472C64.3957 24.7087 64.7968 24.4326 65.2603 24.1045C66.0832 23.5316 67.1301 22.9587 68.1509 22.792L68.3801 22.7139C68.177 22.6253 67.953 22.5837 67.7395 22.5003C67.5103 22.4066 67.3489 22.3337 67.1457 22.2295C66.9478 22.1201 66.802 22.0316 66.6093 21.9014C66.4739 21.8076 66.1978 21.5837 66.052 21.5264C66.2343 22.8285 66.2134 22.1357 63.9634 23.318C63.2655 23.6826 62.7447 24.0628 62.1405 24.4743C61.5468 24.8857 61.0416 25.3493 60.4895 25.8024C60.1145 26.1097 59.6509 26.5212 59.328 26.8805C59.203 27.016 59.0728 27.1462 58.927 27.2347C58.7551 27.068 58.6145 26.7764 58.4166 26.6305C58.2447 26.7243 57.4895 27.4899 57.4114 27.6514C57.552 27.7555 57.8332 28.0003 57.9478 28.1305C57.8541 28.318 57.6093 28.516 57.4634 28.6722C57.3801 28.7607 57.3541 28.792 57.2812 28.8441C57.1197 28.6566 57.0468 28.2607 56.927 28.0107C56.5312 28.0628 55.3332 29.4378 55.3437 29.6774L56.3541 29.8024C56.2603 29.9899 55.9634 30.2555 55.802 30.4222C55.4009 30.8441 54.4218 31.8441 53.9374 32.0472C53.0676 32.4118 53.0468 31.4274 53.3384 30.7816C53.578 30.2295 53.8384 29.7816 54.1249 29.2555C54.9426 27.7816 55.9322 26.4587 56.9895 25.1774L58.1041 23.9847C57.9426 24.042 57.6041 24.2607 57.1457 24.4326C56.2916 24.7503 54.3697 25.2607 53.5103 25.1514C53.5937 25.292 54.3176 25.7399 54.5312 26.3337C54.8072 27.1045 54.2759 27.641 54.0364 27.9847C53.578 28.6357 53.2395 29.4587 52.9218 30.2139C52.8072 30.4847 52.6822 30.7243 52.6145 31.0368C52.4739 31.6878 52.3957 32.4899 52.953 32.7764C53.6249 33.1305 54.1562 32.6462 54.4999 32.2972C54.703 32.0941 54.8801 31.9639 55.0676 31.766L58.4582 28.4847C59.5312 27.3545 60.6249 26.1305 61.8437 25.1618C62.8905 24.3232 64.7499 22.8753 66.0884 22.693C66.2655 22.667 66.7551 22.7139 66.9478 22.7816C67.078 22.8232 66.9947 22.7816 67.0676 22.8441C66.5051 22.9899 65.1353 23.8441 64.6509 24.1618C63.8645 24.6826 63.203 25.2243 62.5312 25.7712L55.1978 32.4482C55.0103 32.6357 54.8853 32.7139 54.7082 32.9014C54.4009 33.2191 54.0624 33.4535 53.7447 33.7816C53.1562 34.3962 51.6509 35.568 50.6874 35.443C50.3905 35.4014 50.2343 35.2295 49.9947 35.141C50.0155 35.5055 50.0624 35.7035 50.3541 35.8441C50.5832 35.9587 50.8801 36.016 51.2239 35.9691C51.953 35.8753 52.7395 35.3232 53.1978 34.8441L53.7291 34.3493C53.8801 34.2087 54.6978 33.4899 54.8749 33.4326L54.1197 34.193C53.5312 34.7399 52.0728 36.0628 51.5103 36.2555C50.5312 36.5941 49.7239 36.4535 49.3749 35.6097C49.0155 34.7347 49.177 33.891 49.4322 32.9951C49.6562 32.193 49.8749 31.4014 50.1457 30.6149C50.4062 29.8545 50.6562 29.0107 50.8437 28.2035C51.1457 26.891 50.2603 25.1618 49.3541 24.3232C49.302 24.2712 49.0103 24.016 48.9322 23.9795C49.2134 24.5003 49.427 24.4847 49.7603 25.5316C50.5832 28.141 49.2864 30.9222 49.2395 31.7607Z" fill="#002E63"/>
<path id="Vector_4" fill-rule="evenodd" clip-rule="evenodd" d="M42.1301 33.0003C42.4165 31.7347 42.177 32.5315 43.1717 32.2295C43.4999 32.1357 43.5624 32.0159 43.7238 31.7659C44.3072 30.8336 44.9738 31.292 46.4582 30.417C46.8645 30.1774 47.1353 29.9274 47.4426 29.5992C47.4634 29.568 47.4686 29.5628 47.4999 29.5367L47.5832 29.4638C47.7655 29.719 48.479 31.4638 48.4999 31.7815C47.2603 31.7607 46.1822 31.8961 45.0467 32.094C43.5988 32.3388 43.2342 32.6305 42.1301 33.0003ZM42.3488 31.9274C42.4686 31.5732 42.5363 30.3909 42.5624 29.9378L42.7342 28.1565C42.7447 27.9795 42.7447 27.9534 42.8124 27.8805C42.8749 28.1149 42.9895 28.318 43.1509 28.4847C43.6822 29.0263 44.5415 28.2347 44.9738 27.8753C45.4322 27.5003 45.7447 27.1357 46.2134 27.3024C46.9217 27.5576 46.7134 28.0107 46.3592 28.3909C45.6874 29.1097 44.1092 29.818 43.5572 30.3024C43.3332 30.4951 43.3332 30.7086 43.328 31.0367C43.3176 31.4899 42.8801 31.9847 42.3488 31.9274ZM42.7447 25.219C42.9426 25.3076 42.8905 25.4482 43.1613 25.4899C43.8072 25.5836 43.8228 24.818 44.3332 24.719C44.9165 24.6045 44.9686 24.844 45.1926 25.1878C45.3645 25.4534 45.5259 25.6826 45.6926 25.969C45.328 26.4847 43.8592 27.8597 42.9322 27.8336C42.8176 27.6774 42.7707 27.7659 42.7551 27.5055L42.7447 25.219ZM39.9165 22.3024C40.0259 22.0315 40.177 21.6826 40.2811 21.417C40.453 20.9742 40.729 19.9899 41.5415 20.3649C41.8332 20.5003 41.9686 20.7086 42.1613 20.9586C42.6822 21.6409 43.2342 22.3336 43.7395 23.068C43.8697 23.2607 44.1874 23.6409 44.2238 23.8128C43.1092 23.5888 43.3957 24.2295 42.9947 24.4899C42.703 24.4951 42.729 24.3284 42.7082 24.068C42.6301 23.1461 42.2759 20.6982 41.3749 20.4899C40.8853 20.3753 40.8228 20.8753 40.7134 21.2295C40.604 21.6149 40.3176 23.0628 39.6249 22.917C39.453 22.8753 39.328 22.6878 39.3905 22.4534C39.4478 22.2399 39.6822 22.2763 39.9165 22.3024ZM49.0363 32.4951C49.2603 32.4586 49.2499 32.5003 49.4322 32.5263C49.4322 32.2347 49.1978 32.0524 49.2395 31.7607C49.1613 31.719 49.1613 31.7242 49.0936 31.5628C49.0676 31.4847 49.0311 31.3961 48.9947 31.3128C48.0624 29.2607 47.4947 28.219 46.2759 26.2659L44.0311 22.8909C43.7082 22.4274 43.1717 21.6982 42.7967 21.3024C42.3488 20.8232 41.203 19.2815 40.3228 20.792C40.2186 20.9742 39.9582 21.6097 39.854 21.7242C38.9113 21.4742 38.4322 22.6513 39.0624 23.1461C39.3124 23.3388 39.8384 23.4795 40.1665 23.2242C40.4634 22.9951 40.578 22.693 40.6926 22.2972C40.8384 21.792 41.0103 20.0107 41.6457 21.0784C41.9686 21.6201 42.1457 22.6149 42.2551 23.3284C42.5207 25.0628 42.4009 27.0055 42.2915 28.7607C42.2342 29.6149 42.1301 30.5159 41.9947 31.3388C41.927 31.7399 41.8488 32.1097 41.7707 32.5211C41.6926 32.917 41.552 33.3284 41.4842 33.719C41.6665 33.6722 42.0207 33.4378 42.2342 33.3336C44.1197 32.4013 45.9426 32.2659 48.0155 32.3753L48.9165 32.4534C48.9999 32.469 48.9842 32.4586 49.0363 32.4951Z" fill="#EA1D78"/>
<path id="Vector_5" fill-rule="evenodd" clip-rule="evenodd" d="M48.8075 34.7242L49.0002 32.7451C48.7397 32.7867 48.2606 32.719 47.9637 32.6982C47.5991 32.6774 47.245 32.6774 46.8804 32.6826C46.2033 32.6878 45.4325 32.7451 44.8022 32.8492C43.8491 33.0159 41.9272 33.3232 41.771 34.2867C41.5939 35.3649 44.1408 35.3597 45.0575 35.4222C46.8075 35.5367 48.6095 34.7399 48.8075 34.7242Z" fill="#EA1D78"/>
<path id="Vector_6" fill-rule="evenodd" clip-rule="evenodd" d="M57.521 31.927C57.7814 31.8697 58.1147 31.6926 58.6043 31.5781C58.9637 31.4999 59.5887 31.4843 59.8803 31.6926C60.4272 32.0833 59.297 33.1301 59.0158 33.4791C58.5887 33.9947 58.0678 34.5729 57.6512 35.0572C56.4064 36.5156 56.5001 38.9531 58.172 38.6666C58.896 38.5416 60.5626 37.1926 62.3022 36.927C62.7397 36.8645 63.2345 36.8333 63.6928 36.9114C64.1876 36.9947 64.4689 37.0416 64.5626 37.5416C64.7189 37.3801 64.6928 37.0781 64.672 36.8385C64.6147 36.2447 64.0678 35.7083 63.6772 35.5364C63.7293 35.6249 63.7553 35.6458 63.8126 35.7239C63.8491 35.776 63.9012 35.8437 63.9428 35.9166C64.0262 36.0729 64.0783 36.2968 64.021 36.4739C63.8439 36.5364 63.7085 36.4635 63.4428 36.4583C62.9376 36.4479 62.3439 36.552 61.8751 36.6822C61.2137 36.8697 60.6772 37.0572 60.0991 37.3072C59.4533 37.5937 58.0574 38.6197 57.9533 37.1562C57.922 36.6979 58.0626 36.4947 58.198 36.1979C58.3855 36.3281 58.7814 37.3541 60.0053 36.8593C60.4845 36.6666 60.9324 36.1301 61.521 35.7083C62.0262 35.3437 62.6303 35.026 63.2658 34.7916C64.2918 34.4114 64.4064 34.4739 65.2189 34.2656L65.3751 34.2083C63.4949 34.1041 62.8439 34.2083 61.4168 34.9374C60.8908 35.2083 59.5418 36.2187 58.9533 35.9999C58.646 35.8801 58.5887 35.4843 58.6564 35.1562C58.7918 34.5051 59.6564 33.5676 60.0783 33.0468C60.2866 32.7916 60.4689 32.6666 60.5158 32.2551C60.6512 30.9687 58.9949 31.1301 58.1616 31.3749C57.7658 31.4895 57.6199 31.5156 57.521 31.927Z" fill="#EA1D78"/>
<path id="Vector_7" fill-rule="evenodd" clip-rule="evenodd" d="M49.1353 23.8387C49.2446 23.6981 49.5363 23.4794 49.7342 23.3335C50.3957 22.8439 51.2915 22.5106 52.1405 22.3596C52.6769 22.2658 55.1717 22.1044 55.703 22.4898C56.4738 23.0471 55.4686 23.4898 54.3071 23.2606C53.8853 23.1773 54.1561 23.1825 53.6092 23.6408C52.8592 24.2658 51.8957 24.3179 50.9217 24.2814C50.38 24.2606 49.4946 24.0939 49.1353 23.8387ZM49.0415 23.8544C49.4009 24.2762 50.6873 24.5054 51.3905 24.5627C52.9946 24.6929 55.4634 24.5002 56.9998 24.12C57.6925 23.9533 59.0467 23.6981 58.3957 22.8127C58.1509 22.4742 57.8957 22.4273 57.4113 22.271C57.0259 22.1512 56.5988 22.0471 56.1717 21.9846C54.0415 21.6773 51.5884 21.87 49.8123 23.0939C49.5988 23.245 49.0832 23.6304 49.0415 23.8544Z" fill="#254A86"/>
<path id="Vector_8" fill-rule="evenodd" clip-rule="evenodd" d="M33.7397 33.7192C33.8075 33.8389 34.047 34.0212 34.1512 34.1046C34.4845 34.365 35.3127 35.1879 35.547 35.266L35.4637 34.6202C37.5054 34.6931 38.5887 33.4223 40.4064 33.1723C40.3439 33.3181 40.4012 33.2192 40.297 33.3285L39.3752 34.2452C38.995 34.5942 38.6512 34.8442 38.1825 35.1358C37.495 35.5629 36.7189 35.8233 35.9064 35.9535C35.6981 35.99 35.0887 36.0004 34.9585 36.0577C35.3752 36.3233 37.0158 35.9639 37.4585 35.8181C38.4272 35.5004 39.3908 34.8181 40.1304 34.1358C41.2554 33.0994 41.5939 32.7139 41.5262 31.1983C40.4012 31.0004 38.0939 33.8494 36.0106 34.2192C34.7762 34.4327 34.0731 33.8285 33.7397 33.7192Z" fill="#002E63"/>
<path id="Vector_9" fill-rule="evenodd" clip-rule="evenodd" d="M49.1353 23.8386C49.4946 24.0938 50.38 24.2604 50.9217 24.2813C51.8957 24.3177 52.8592 24.2657 53.6092 23.6407C54.1561 23.1823 53.8853 23.1771 54.3071 23.2604C55.4686 23.4896 56.4738 23.0469 55.703 22.4896C55.1717 22.1042 52.6769 22.2657 52.1405 22.3594C51.2915 22.5104 50.3957 22.8438 49.7342 23.3334C49.5363 23.4792 49.2446 23.6979 49.1353 23.8386Z" fill="#FCFBFB"/>
<path id="Vector_10" fill-rule="evenodd" clip-rule="evenodd" d="M44.9013 37.1198C44.8492 37.0781 44.1721 36.8646 44.0836 36.849C43.9065 36.8281 43.2033 37.5 42.8231 37.7708C42.1148 38.2813 41.3075 38.6771 40.3231 38.5729C39.7242 38.5104 39.0419 38.3125 39.1981 37.5573C39.4481 37.6406 39.4117 37.8021 40.094 37.8021C40.5158 37.8021 41.4325 37.3906 41.7763 37.2344C42.0471 37.1094 43.1617 36.6094 43.2815 36.4948C42.7658 36.5938 40.7971 37.5417 40.3231 37.1615C39.7242 36.6823 41.3856 36.0781 41.7294 35.9635C41.9221 35.9063 42.2815 35.8385 42.4429 35.7448C42.3856 35.6563 42.1252 35.5938 42.0158 35.5521C41.844 35.4844 41.7658 35.4115 41.5627 35.4896C40.7763 35.7812 40.1825 36.0885 39.5679 36.6406C39.4794 36.724 39.495 36.7083 39.4169 36.7969C39.3544 36.8802 39.3388 36.9115 39.2138 36.9792C39.3648 36.1458 40.0211 35.5573 40.6513 35.0885C40.9169 34.8906 40.8544 35.0052 40.9273 34.8281C40.5992 34.8958 39.9325 35.3542 39.7138 35.526C39.3336 35.8281 39.0263 36.1042 38.745 36.4792C38.0106 37.4635 38.0992 38.4583 39.2971 38.8542C40.8388 39.3646 42.4481 38.5885 43.6981 37.8229C43.8961 37.6927 44.0888 37.5781 44.2867 37.4688C44.4065 37.401 44.8283 37.2031 44.9013 37.1198Z" fill="#002E63"/>
<path id="Vector_11" fill-rule="evenodd" clip-rule="evenodd" d="M49.771 16.4741C49.7658 16.7345 49.9689 18.5522 49.7345 18.7814C49.6147 18.8752 49.4949 18.8127 49.3908 18.9897C49.1147 19.4897 49.8491 19.8804 50.0783 19.2814C50.297 18.7293 50.0418 17.5522 50.0522 17.1825C50.2241 17.0575 51.3074 16.547 51.4689 16.5054C51.6095 16.7241 51.6043 17.5939 51.5783 17.8022C51.3543 17.8439 51.2189 17.8595 51.0731 18.0002C50.9272 18.1356 50.922 18.3439 51.0366 18.5158C51.2814 18.8908 51.771 18.7085 51.797 18.1616C51.8491 17.1981 51.7033 16.396 51.6147 15.5054L49.771 16.4741Z" fill="#EA1D78"/>
<path id="Vector_12" fill-rule="evenodd" clip-rule="evenodd" d="M53.9947 18.8698C54.203 19.1927 54.4217 19.5417 54.4322 20.0313C54.4009 20.0365 53.7863 19.9427 53.7915 20.4375C53.7915 20.7604 54.1197 20.9479 54.4217 20.8385C55.0415 20.6042 54.7811 19.6823 54.6509 19.224C54.9895 18.9635 55.5676 18.7083 55.9374 18.4688C55.9009 18.3646 55.6249 17.9531 55.552 17.8906C55.4165 17.9271 54.052 18.8125 53.9947 18.8698Z" fill="#EA1D78"/>
<path id="Vector_13" fill-rule="evenodd" clip-rule="evenodd" d="M43.6353 40.9115C44.2082 40.8594 45.4582 40.474 46.2498 40.4531C46.1353 40.3125 45.7082 40.0729 45.505 39.9427L44.7603 39.4688L43.6353 40.9115Z" fill="#FCFEFC"/>
<path id="Vector_14" fill-rule="evenodd" clip-rule="evenodd" d="M58.5363 33.2605C58.9269 32.7918 58.9321 32.271 58.0415 32.4272C56.9373 32.6303 56.0988 33.3751 56.5415 33.2085C56.7602 33.1199 56.9842 33.021 57.229 32.948C58.4217 32.5939 58.3852 33.0574 58.5363 33.2605Z" fill="#D73A92"/>
<path id="Vector_15" fill-rule="evenodd" clip-rule="evenodd" d="M55.7605 35.3854C55.0782 35.6406 55.448 36.4999 56.1147 36.302C56.3439 36.2343 56.5262 35.9427 56.4168 35.6718C56.3334 35.4583 56.0782 35.2708 55.7605 35.3854Z" fill="#002E63"/>
<path id="Vector_16" fill-rule="evenodd" clip-rule="evenodd" d="M63.2033 31.8438C62.5314 32.0573 62.9012 32.9792 63.5314 32.7708C64.1304 32.5729 63.9012 31.6146 63.2033 31.8438Z" fill="#002E63"/>
<path id="Vector_17" fill-rule="evenodd" clip-rule="evenodd" d="M47.3543 36.0991C46.7449 36.4064 47.2033 37.2293 47.8127 36.9533C48.4272 36.6825 47.9377 35.797 47.3543 36.0991Z" fill="#D53693"/>
<path id="Vector_18" fill-rule="evenodd" clip-rule="evenodd" d="M36.7445 31.7293C36.1508 31.9689 36.5675 32.8491 37.1977 32.5782C37.7602 32.3334 37.4268 31.4532 36.7445 31.7293Z" fill="#D53693"/>
<path id="Vector_19" fill-rule="evenodd" clip-rule="evenodd" d="M21.7812 51.5576C21.776 51.2503 21.724 50.8128 21.7552 50.5107C21.8177 49.9326 22.3646 49.4847 23.0573 49.5993C23.7917 49.7243 23.8802 50.4274 23.8802 51.0107C23.8802 53.1618 23.8385 55.5472 23.8802 57.6513C24.0833 57.6201 25.7917 57.0368 25.9115 56.969C25.9635 56.3909 25.9219 53.2034 25.9219 52.3493C25.9219 51.7815 25.8125 50.5211 26.0365 50.1409C26.3281 49.6409 27.0729 49.4065 27.7083 49.6982C28.3646 49.9899 28.224 50.6722 28.2448 51.4847C28.2604 52.2555 28.2552 53.0263 28.2552 53.8024C28.2552 54.9951 28.0781 57.0211 28.9115 57.7659L30.7448 57.094C30.7083 56.9378 30.5208 56.7034 30.4427 56.4586C30.349 56.1826 30.3177 55.9534 30.3177 55.6461L30.276 50.068C30.276 49.4378 30.1927 49.0576 29.7656 48.6982C28.9948 48.0472 27.8854 47.8961 26.9167 48.4326C26.3229 48.7607 26.0417 49.1461 25.8229 49.219C25.5365 48.8232 24.6562 48.0576 23.8438 48.094C23.2135 48.1201 22.651 48.3909 22.2135 48.7972C22.1198 48.8805 21.9323 49.1045 21.8385 49.1565C21.5573 48.7399 21.6302 48.6513 20.9948 48.1722C20.875 48.0836 20.8021 47.9795 20.6354 48.042L19.0156 48.8128C19.1719 49.1305 19.099 48.9274 19.2552 49.1618C19.349 49.3076 19.4063 49.4065 19.4063 49.5993L19.3854 53.094C19.3854 54.6253 19.3333 56.2659 19.3958 57.7972L21.8333 57.1253L21.7812 52.6982C21.7812 52.318 21.7812 51.9378 21.7812 51.5576Z" fill="white"/>
<path id="Vector_20" fill-rule="evenodd" clip-rule="evenodd" d="M41.0728 48.3856C41.3123 48.5574 41.5675 48.7554 41.63 49.1095L41.6561 52.8543C41.6821 54.5106 41.6196 56.2293 41.6769 57.8699C41.8071 57.8751 43.7446 56.9533 43.8853 56.8595C43.9478 55.9689 43.8957 52.9272 43.8957 51.797C43.8957 51.3647 43.9009 50.9324 43.8957 50.5001C43.8644 48.7137 46.9269 48.1199 46.9217 50.7397V55.8022C46.9217 56.3231 46.9425 56.4272 47.1353 56.8439C47.2655 57.1199 47.453 57.3856 47.6717 57.5731L49.505 56.8179C49.4165 56.6304 49.255 56.5939 49.1821 56.1199C49.13 55.8126 49.1925 51.9272 49.1925 51.2866C49.1925 50.5574 49.3175 50.0835 48.9946 49.5262C48.5832 48.8283 47.6353 48.0314 46.7082 47.8439C45.5936 47.6095 44.354 48.8179 43.9373 48.9689C43.7759 48.6772 43.729 48.5158 43.4946 48.2345C42.8228 47.4376 43.0103 47.6043 41.9478 48.0054C41.7811 48.0626 41.6405 48.1304 41.505 48.1824L41.1561 48.3126C41.0623 48.3699 41.1144 48.3335 41.0728 48.3856Z" fill="white"/>
<path id="Vector_21" fill-rule="evenodd" clip-rule="evenodd" d="M62.8384 48.0575C62.9165 48.1564 62.7707 48.0366 62.9269 48.1877C63.0311 48.2866 63.328 48.4116 63.38 48.8543C63.4425 49.3283 63.4425 56.9741 63.4425 57.6043C63.578 57.5835 65.5207 56.672 65.6353 56.5835C65.6978 54.9481 65.6405 53.172 65.6405 51.521C65.6405 50.5887 65.4894 49.9585 65.9842 49.3127C66.703 48.3595 68.6717 48.3283 68.6821 50.4637V55.5262C68.6769 56.0262 68.7082 56.1512 68.8957 56.5522C69.0363 56.8595 69.2082 57.1095 69.4061 57.2762C69.5728 57.2762 71.1405 56.6408 71.2603 56.5418C71.1509 56.3127 70.9738 56.1772 70.9373 55.8439C70.8957 55.547 70.9165 55.1564 70.9321 54.8595C70.953 54.2085 70.9217 53.547 70.9373 52.896C70.953 52.2658 70.9582 51.6147 70.9582 50.9741C70.9582 50.2189 71.0728 49.8179 70.7446 49.2397C70.3957 48.62 69.3696 47.7397 68.4582 47.5627C67.6769 47.4168 66.8748 47.9377 66.2915 48.3283C66.1248 48.4429 65.88 48.6772 65.6769 48.6825C65.4634 48.245 65.0936 47.6304 64.6561 47.3647C64.13 47.5627 63.3592 47.922 62.8384 48.0575Z" fill="white"/>
<path id="Vector_22" fill-rule="evenodd" clip-rule="evenodd" d="M55.6251 52.5887C55.5991 52.8544 55.7449 53.3648 55.7762 53.6408C55.8804 54.495 56.1564 56.3023 54.672 55.8908C52.3074 55.2398 51.0991 48.1981 53.9116 49.0054C54.3908 49.1408 54.3491 49.1565 54.6929 49.4377C54.9949 49.6825 55.3543 50.0419 55.6147 50.3648C55.6981 50.4742 55.7814 50.6252 55.8908 50.7137C55.9741 50.62 56.2033 50.5002 56.3074 50.4377L57.5366 49.6773C57.5106 49.4377 57.0783 48.9325 56.9168 48.745C56.6824 48.4794 56.3856 48.2606 56.0522 48.0835C54.5314 47.2294 51.0574 47.896 50.3804 51.021C49.9897 52.8283 50.5522 54.7242 51.4533 55.8544C53.3439 58.2242 55.5366 56.9898 55.8595 56.969C55.896 57.4585 55.9585 57.9377 55.8595 58.4221C55.7501 58.969 55.5679 59.0367 55.3387 59.396C55.9481 59.3283 56.5991 58.969 56.9585 58.6565C57.3751 58.2971 57.7085 57.771 57.8283 57.1669C57.9116 56.7398 57.8856 53.1512 57.8647 52.495L55.6251 52.5887Z" fill="white"/>
<path id="Vector_23" fill-rule="evenodd" clip-rule="evenodd" d="M34.6456 49.5157C36.0154 49.2553 37.3852 51.1303 37.8331 52.1251C38.156 52.8282 38.4164 53.547 38.4268 54.4636C38.4373 55.3282 38.1352 56.1511 37.3643 56.3282C35.6925 56.7084 33.531 53.6928 33.531 51.3647C33.531 50.4376 33.8331 49.672 34.6456 49.5157ZM31.7914 53.0522C32.057 55.3855 33.9581 57.6511 36.2862 57.6511C37.6873 57.6459 38.5831 56.8282 39.2289 56.0366C39.932 55.172 40.3904 54.0834 40.3227 52.6199C40.2185 50.4324 38.1977 48.047 35.8123 48.0157C34.3435 48.0053 33.5414 48.797 32.8487 49.6199C32.1873 50.4011 31.6404 51.7397 31.7914 53.0522Z" fill="white"/>
<path id="Vector_24" fill-rule="evenodd" clip-rule="evenodd" d="M76.0054 54.9379C76.2189 55.4275 77.0158 56.1619 77.547 56.49C78.271 56.9275 79.0522 57.2296 79.9689 56.8702C80.6356 56.6098 81.3231 56.1046 81.7397 55.5369C83.6512 52.9066 80.0522 51.5785 78.8491 50.2087C78.6929 50.0369 78.3231 49.5264 78.3127 49.1671C78.3022 48.6983 78.7554 48.4327 79.2085 48.6358C79.7397 48.8806 80.8283 50.1098 80.8283 50.1098C81.0522 50.0264 82.1668 49.2816 82.3491 49.1306C81.7658 48.0525 80.7137 46.8129 79.0418 47.2191C78.4012 47.3806 77.745 47.7608 77.3127 48.1671C76.8127 48.6358 76.396 49.0941 76.3908 49.9119C76.3908 50.8494 77.1929 51.7504 77.7085 52.2087C77.9116 52.3858 78.0158 52.4848 78.2033 52.6202C78.3856 52.7452 78.5679 52.8494 78.745 52.9796C78.9325 53.1202 79.0627 53.24 79.2345 53.391C79.5262 53.6462 80.5887 54.4587 80.6564 54.6358C80.8595 55.1879 80.2502 56.1671 78.5522 54.9379C78.0106 54.5473 77.8491 54.1514 77.6877 54.0212C77.4897 54.0681 76.1304 54.8337 76.0054 54.9379Z" fill="white"/>
<path id="Vector_25" fill-rule="evenodd" clip-rule="evenodd" d="M72.2344 48.1458C72.4688 48.4739 72.5938 48.3802 72.5885 49.0104C72.5885 50.2448 72.5469 56.8333 72.599 57.3958L74.8021 56.6875C74.8542 54.0781 74.7969 51.4531 74.8125 48.8541C74.8177 48.3333 74.6875 48.0156 74.4115 47.6979C74.2708 47.5312 74.2083 47.401 73.9427 47.4896C73.5677 47.6198 72.4323 47.9531 72.2344 48.1458Z" fill="white"/>
<path id="Vector_26" fill-rule="evenodd" clip-rule="evenodd" d="M59.0728 48.2656C59.5623 48.6302 59.4165 49.5156 59.4165 50.3438C59.4165 52.6615 59.3696 55.2083 59.4113 57.474C59.63 57.4896 61.2811 56.8854 61.6353 56.7865C61.6821 56.0156 61.63 55.099 61.63 54.3073L61.6457 49.3646C61.6457 48.8958 61.6873 48.6406 61.5155 48.2292C61.4165 47.974 61.1769 47.6667 60.9686 47.5469C60.9686 47.5469 59.2759 48.026 59.0728 48.2656Z" fill="white"/>
<path id="Vector_27" d="M81.0052 45.2295C81.2344 45.2295 81.4271 45.3128 81.5833 45.4743C81.7396 45.6305 81.8177 45.8285 81.8177 46.0628C81.8177 46.2972 81.7396 46.4899 81.5833 46.6566C81.4271 46.8128 81.2344 46.8962 81.0052 46.8962C80.776 46.8962 80.5833 46.8128 80.4271 46.6566C80.2656 46.4899 80.1875 46.2972 80.1875 46.0628C80.1875 45.8285 80.2656 45.6305 80.4271 45.4743C80.5833 45.3128 80.776 45.2295 81.0052 45.2295ZM81.6562 46.0628C81.6562 45.8649 81.5938 45.6982 81.4688 45.5628C81.3438 45.4274 81.1875 45.3545 81.0052 45.3545C80.8229 45.3545 80.6667 45.4274 80.5417 45.5628C80.4115 45.6982 80.349 45.8649 80.349 46.0628C80.349 46.2607 80.4115 46.4274 80.5417 46.5628C80.6667 46.7035 80.8229 46.7712 81.0052 46.7712C81.1875 46.7712 81.3438 46.7035 81.4688 46.5628C81.5938 46.4274 81.6562 46.2607 81.6562 46.0628ZM80.7188 46.3701V45.7607C80.7188 45.7139 80.7135 45.6878 80.7031 45.6774C80.6875 45.667 80.6562 45.6618 80.6146 45.6618V45.6201H81.0365C81.1354 45.6201 81.2083 45.6357 81.2604 45.6722C81.3125 45.7087 81.3333 45.766 81.3333 45.8389C81.3333 45.9274 81.3021 45.9899 81.2396 46.042C81.2135 46.0576 81.1875 46.0785 81.1562 46.0889L81.3021 46.3076C81.3229 46.3389 81.3438 46.3649 81.3594 46.3857C81.3802 46.4066 81.4063 46.443 81.4427 46.4795V46.5107H81.2552C81.2448 46.5107 81.2292 46.5003 81.2083 46.4847C81.1979 46.4691 81.1771 46.443 81.1562 46.4066L81 46.1149L80.9844 46.1201H80.9062V46.3701C80.9062 46.4066 80.9167 46.4326 80.9323 46.443C80.9427 46.4535 80.974 46.4639 81.0156 46.4639V46.5107H80.6146V46.4639C80.6562 46.4639 80.6875 46.4535 80.7031 46.443C80.7135 46.4326 80.7188 46.4066 80.7188 46.3701ZM80.9062 46.0628H80.9531C81.0208 46.0628 81.0677 46.0472 81.099 46.016C81.125 45.9847 81.1354 45.9326 81.1354 45.8545C81.1354 45.792 81.125 45.7451 81.099 45.7139C81.0781 45.6826 81.0417 45.667 80.9948 45.667H80.9062V46.0628Z" fill="white"/>
</g>
</g>
</svg>
