<svg width="20" height="21" viewBox="0 0 20 21" fill="none" xmlns="http://www.w3.org/2000/svg">
<g id="Notification_Icon" clip-path="url(#clip0_1369_9735)">
<path id="Vector" d="M18.8077 11.8831L17.2243 6.18645C16.7602 4.51756 15.7516 3.05169 14.3588 2.02184C12.9659 0.991992 11.2688 0.45727 9.53721 0.50267C7.80559 0.54807 6.13883 1.17099 4.80188 2.2724C3.46492 3.37382 2.5345 4.89053 2.15849 6.58145L0.932659 12.0939C0.797255 12.7031 0.800386 13.3348 0.94182 13.9425C1.08325 14.5503 1.35938 15.1185 1.74981 15.6052C2.14024 16.092 2.63501 16.4848 3.19759 16.7547C3.76016 17.0247 4.37618 17.1648 5.00016 17.1648H5.92849C6.11975 18.1067 6.63077 18.9535 7.37494 19.5618C8.11912 20.17 9.0507 20.5023 10.0118 20.5023C10.973 20.5023 11.9045 20.17 12.6487 19.5618C13.3929 18.9535 13.9039 18.1067 14.0952 17.1648H14.7935C15.4358 17.1648 16.0695 17.0164 16.645 16.731C17.2204 16.4456 17.7221 16.031 18.1108 15.5197C18.4996 15.0083 18.7648 14.414 18.8858 13.7831C19.0069 13.1523 18.9795 12.502 18.8077 11.8831ZM10.0118 18.8314C9.49661 18.8293 8.99463 18.668 8.57458 18.3697C8.15452 18.0714 7.8369 17.6505 7.66516 17.1648H12.3585C12.1868 17.6505 11.8691 18.0714 11.4491 18.3697C11.029 18.668 10.527 18.8293 10.0118 18.8314ZM16.7835 14.5106C16.5513 14.8187 16.2504 15.0683 15.9048 15.2397C15.5592 15.4112 15.1784 15.4996 14.7927 15.4981H5.00016C4.62581 15.4981 4.25626 15.4139 3.91878 15.2519C3.58129 15.0899 3.2845 14.8542 3.05029 14.5622C2.81609 14.2702 2.65046 13.9293 2.56563 13.5647C2.48079 13.2 2.47893 12.821 2.56016 12.4556L3.78516 6.94228C4.08045 5.61412 4.81125 4.42278 5.86137 3.55766C6.9115 2.69253 8.22068 2.20326 9.5808 2.16763C10.9409 2.13199 12.2739 2.55205 13.3679 3.36101C14.4619 4.16996 15.2541 5.3214 15.6185 6.63228L17.2018 12.3289C17.3064 12.7001 17.3231 13.0905 17.2505 13.4692C17.1779 13.8479 17.018 14.2045 16.7835 14.5106Z" fill="#013216"/>
</g>
<defs>
<clipPath id="clip0_1369_9735">
<rect width="20" height="20" fill="white" transform="translate(0 0.5)"/>
</clipPath>
</defs>
</svg>
