<svg width="48" height="48" viewBox="0 0 48 48" fill="none" xmlns="http://www.w3.org/2000/svg">
<g id="Notification_Icon">
<path id="Vector" d="M34.4454 25.6612L32.5454 18.8252C31.9885 16.8225 30.7781 15.0635 29.1067 13.8277C27.4353 12.5919 25.3988 11.9502 23.3208 12.0047C21.2429 12.0591 19.2428 12.8066 17.6384 14.1284C16.0341 15.4501 14.9176 17.2701 14.4664 19.2992L12.9954 25.9142C12.8329 26.6451 12.8366 27.4032 13.0064 28.1325C13.1761 28.8618 13.5074 29.5437 13.9759 30.1278C14.4445 30.7118 15.0382 31.1832 15.7133 31.5072C16.3884 31.8311 17.1276 31.9992 17.8764 31.9992H18.9904C19.2199 33.1295 19.8331 34.1457 20.7261 34.8756C21.6191 35.6055 22.737 36.0042 23.8904 36.0042C25.0437 36.0042 26.1616 35.6055 27.0546 34.8756C27.9476 34.1457 28.5608 33.1295 28.7904 31.9992H29.6284C30.3992 31.9993 31.1596 31.8211 31.8501 31.4786C32.5407 31.1362 33.1427 30.6387 33.6092 30.0251C34.0757 29.4114 34.3939 28.6982 34.5392 27.9412C34.6844 27.1842 34.6516 26.4039 34.4454 25.6612ZM23.8904 33.9992C23.2721 33.9966 22.6697 33.8031 22.1657 33.4451C21.6616 33.0871 21.2804 32.5821 21.0744 31.9992H26.7064C26.5003 32.5821 26.1191 33.0871 25.6151 33.4451C25.111 33.8031 24.5086 33.9966 23.8904 33.9992ZM32.0164 28.8142C31.7377 29.1839 31.3767 29.4835 30.962 29.6892C30.5473 29.8949 30.0903 30.001 29.6274 29.9992H17.8764C17.4271 29.9991 16.9837 29.8982 16.5787 29.7038C16.1737 29.5094 15.8176 29.2265 15.5365 28.8761C15.2555 28.5257 15.0567 28.1166 14.9549 27.679C14.8531 27.2415 14.8509 26.7867 14.9484 26.3482L16.4184 19.7322C16.7727 18.1384 17.6497 16.7088 18.9098 15.6707C20.17 14.6325 21.741 14.0454 23.3731 14.0026C25.0053 13.9599 26.6049 14.4639 27.9177 15.4347C29.2304 16.4054 30.181 17.7871 30.6184 19.3602L32.5184 26.1962C32.6439 26.6416 32.6639 27.1101 32.5768 27.5645C32.4896 28.019 32.2977 28.4469 32.0164 28.8142Z" fill="white"/>
<circle id="Ellipse 251" cx="29" cy="15" r="4" fill="#007512" stroke="white" stroke-width="2"/>
</g>
</svg>
