<svg width="120" height="120" viewBox="0 0 120 120" fill="none" xmlns="http://www.w3.org/2000/svg">
<path d="M8.68133 30.3712L60 0.742308L111.319 30.3712V89.6288L60 119.258L8.68133 89.6288V30.3712Z" stroke="#8BDBAE" stroke-width="1.28571"/>
<g clip-path="url(#clip0_1998_12840)">
<path d="M63.9318 64.5783C63.8704 64.4171 63.7615 64.2784 63.6194 64.1807C63.4773 64.083 63.3088 64.0309 63.1364 64.0313H63.1354C62.9635 64.031 62.7955 64.0831 62.6537 64.1805C62.512 64.2778 62.4032 64.416 62.3417 64.5766L59.8774 71.0467C59.8136 71.2204 59.8207 71.4123 59.8974 71.5807C59.9741 71.7492 60.1142 71.8806 60.2871 71.9464C60.4601 72.0123 60.6521 72.0073 60.8214 71.9326C60.9907 71.8578 61.1237 71.7193 61.1915 71.5471L61.6328 70.3886H64.6214L65.0579 71.5452C65.1084 71.6789 65.1984 71.7941 65.3159 71.8754C65.4335 71.9567 65.573 72.0003 65.7159 72.0003C65.8297 72.0003 65.9417 71.9727 66.0424 71.9198C66.1431 71.867 66.2295 71.7905 66.2942 71.6969C66.3589 71.6034 66.3999 71.4955 66.4137 71.3826C66.4275 71.2697 66.4138 71.1551 66.3736 71.0487L63.9318 64.5783ZM62.1684 68.9824L63.134 66.4472L64.0908 68.9824H62.1684Z" fill="#35C071"/>
<path d="M63.9316 64.5783C63.8703 64.4171 63.7613 64.2784 63.6193 64.1807C63.4772 64.083 63.3087 64.0309 63.1362 64.0313H63.1353C62.9633 64.031 62.7954 64.0831 62.6536 64.1805C62.5119 64.2778 62.403 64.416 62.3415 64.5766L60.5 69.4118V71.9991C60.6482 72.0064 60.7949 71.9666 60.9191 71.8854C61.0433 71.8042 61.1386 71.6858 61.1914 71.5472L61.6327 70.3887H64.6212L65.0577 71.5453C65.1081 71.6786 65.1978 71.7935 65.3148 71.8747C65.4319 71.9559 65.5709 71.9997 65.7133 72.0002H65.7199C65.8333 71.9995 65.9448 71.9714 66.045 71.9183C66.1452 71.8652 66.231 71.7887 66.2952 71.6952C66.3594 71.6018 66.4001 71.4942 66.4137 71.3816C66.4273 71.2691 66.4136 71.1549 66.3735 71.0488L63.9316 64.5783ZM62.1683 68.9824L63.1339 66.4472L64.0906 68.9824H62.1683ZM72.6687 64.0315C72.4823 64.0333 72.3042 64.1091 72.1736 64.2423C72.043 64.3754 71.9707 64.5549 71.9725 64.7414L72.0148 69.1231L68.7168 64.3474C68.6316 64.224 68.5092 64.1311 68.3675 64.0823C68.2258 64.0334 68.0721 64.0311 67.929 64.0757C67.7859 64.1203 67.6608 64.2095 67.5719 64.3303C67.4831 64.451 67.4352 64.597 67.4352 64.7469V71.2972C67.4352 71.6856 67.75 72.0003 68.1383 72.0003C68.5266 72.0003 68.8414 71.6856 68.8414 71.2972V67.0024L71.9887 71.5598C72.2 71.8651 72.5506 71.9957 72.8817 71.892C73.2208 71.7862 73.44 71.4657 73.4399 71.0692L73.3786 64.7278C73.3749 64.3396 73.0567 64.0312 72.6687 64.0315Z" fill="#027D37"/>
<path d="M58.6818 67.3126H56.7187C56.3304 67.3126 56.0156 67.6273 56.0156 68.0157C56.0156 68.4041 56.3304 68.7188 56.7187 68.7188H57.9124C57.7242 69.6916 57.116 70.5938 55.8493 70.5938C54.4276 70.5938 53.2711 69.4373 53.2711 68.0157C53.2711 66.5942 54.4276 65.4376 55.8493 65.4376C56.3628 65.4366 56.8648 65.5898 57.2902 65.8774C57.3667 65.9294 57.4527 65.9658 57.5433 65.9845C57.6339 66.0032 57.7273 66.0038 57.8181 65.9864C57.9089 65.9689 57.9954 65.9337 58.0726 65.8828C58.1498 65.8319 58.2162 65.7662 58.268 65.6896C58.3198 65.6129 58.356 65.5268 58.3745 65.4362C58.3929 65.3456 58.3933 65.2522 58.3756 65.1614C58.3579 65.0706 58.3225 64.9842 58.2714 64.9071C58.2202 64.8301 58.1544 64.7638 58.0776 64.7123C57.4184 64.2668 56.6478 64.0312 55.8494 64.0312C53.6523 64.0312 51.865 65.8186 51.865 68.0156C51.865 70.2127 53.6523 72 55.8494 72C57.9312 72 59.3851 70.3615 59.3851 68.0156C59.385 67.9233 59.3668 67.8319 59.3315 67.7466C59.2961 67.6613 59.2443 67.5838 59.179 67.5185C59.1137 67.4532 59.0362 67.4014 58.9509 67.3661C58.8656 67.3308 58.7742 67.3126 58.6818 67.3126Z" fill="#35C071"/>
<path d="M83.6392 69.8318C83.5685 69.7725 83.4867 69.7277 83.3987 69.6999C83.3106 69.6722 83.2179 69.6621 83.1259 69.6702C83.0339 69.6782 82.9444 69.7044 82.8625 69.7471C82.7807 69.7898 82.708 69.8482 82.6487 69.9189C82.5885 69.9907 82.5233 70.058 82.4535 70.1204C82.1007 70.4346 81.6521 70.5938 81.1203 70.5938C79.6986 70.5938 78.5421 69.4373 78.5421 68.0157C78.5421 66.5942 79.6986 65.4376 81.1203 65.4376C81.6338 65.4366 82.1358 65.5898 82.5612 65.8774C82.6377 65.9294 82.7237 65.9658 82.8143 65.9845C82.9049 66.0032 82.9983 66.0038 83.0891 65.9864C83.1799 65.9689 83.2664 65.9337 83.3436 65.8828C83.4208 65.8319 83.4872 65.7662 83.539 65.6896C83.5908 65.6129 83.627 65.5268 83.6454 65.4362C83.6639 65.3456 83.6643 65.2522 83.6466 65.1614C83.6289 65.0706 83.5935 64.9842 83.5424 64.9071C83.4912 64.8301 83.4254 64.7638 83.3486 64.7123C82.6894 64.2668 81.9188 64.0312 81.1204 64.0312C78.9233 64.0312 77.136 65.8186 77.136 68.0156C77.136 70.2127 78.9233 72 81.1204 72C81.995 72 82.7794 71.7131 83.3888 71.1704C83.5096 71.0626 83.6224 70.9463 83.7263 70.8222C83.7856 70.7515 83.8305 70.6697 83.8582 70.5817C83.8859 70.4936 83.896 70.401 83.8879 70.309C83.8798 70.217 83.8537 70.1276 83.811 70.0457C83.7684 69.9638 83.71 69.8912 83.6392 69.8318Z" fill="#027D37"/>
<path d="M51.0709 66.4399C51.0709 65.1117 49.9471 64.0312 48.5657 64.0312H46.8198C46.6333 64.0312 46.4545 64.1053 46.3226 64.2372C46.1908 64.3691 46.1167 64.5479 46.1167 64.7344V71.2969C46.1167 71.6853 46.4315 72 46.8198 72C47.2081 72 47.5229 71.6853 47.5229 71.2969V69.1287L49.8401 71.7614C49.906 71.8365 49.9872 71.8967 50.0783 71.9378C50.1694 71.979 50.2682 72.0002 50.3682 72C50.5034 71.9999 50.6357 71.9609 50.7493 71.8875C50.8629 71.8142 50.953 71.7096 51.0086 71.5864C51.0643 71.4631 51.0833 71.3265 51.0632 71.1927C51.0432 71.059 50.985 70.9339 50.8957 70.8323L49.1006 68.7928C50.2257 68.5566 51.0709 67.5916 51.0709 66.4399ZM48.5657 67.4423C48.3268 67.4423 47.9024 67.4442 47.5331 67.446C47.5312 67.0841 47.5293 66.6712 47.5293 66.44C47.5293 66.2443 47.5282 65.8163 47.5272 65.4376H48.5658C49.1615 65.4376 49.6647 65.8966 49.6647 66.44C49.6647 66.9833 49.1614 67.4423 48.5657 67.4423ZM41.0938 64.0312C38.8967 64.0312 37.1094 65.8186 37.1094 68.0156C37.1094 70.2127 38.8967 72 41.0938 72C43.2908 72 45.0781 70.2127 45.0781 68.0156C45.0781 65.8186 43.2908 64.0312 41.0938 64.0312ZM41.0938 70.5938C39.6721 70.5938 38.5156 69.4372 38.5156 68.0156C38.5156 66.5941 39.6721 65.4375 41.0938 65.4375C42.5154 65.4375 43.6719 66.5941 43.6719 68.0156C43.6719 69.4372 42.5154 70.5938 41.0938 70.5938Z" fill="#35C071"/>
<path d="M75.3125 64.0312C75.126 64.0312 74.9472 64.1053 74.8153 64.2372C74.6835 64.3691 74.6094 64.5479 74.6094 64.7344V71.2969C74.6094 71.6853 74.9242 72 75.3125 72C75.7008 72 76.0156 71.6853 76.0156 71.2969V64.7344C76.0156 64.5479 75.9415 64.3691 75.8097 64.2372C75.6778 64.1053 75.499 64.0312 75.3125 64.0312Z" fill="#027D37"/>
<path d="M67.7306 61.3887C67.5586 61.3165 67.4224 61.179 67.3518 61.0064C67.2813 60.8337 67.2822 60.6402 67.3543 60.4682L70.884 52.0577C70.9568 51.8867 71.0944 51.7514 71.2666 51.6815C71.4388 51.6116 71.6317 51.6127 71.8031 51.6847C71.9745 51.7566 72.1105 51.8935 72.1812 52.0654C72.252 52.2373 72.2518 52.4302 72.1807 52.6019L68.651 61.0124C68.5788 61.1844 68.4413 61.3206 68.2687 61.3911C68.0961 61.4617 67.9025 61.4608 67.7306 61.3887Z" fill="#616173"/>
<path d="M48.9497 52.6406H47.3467C46.9584 52.6406 46.6436 52.9553 46.6436 53.3438C46.6436 53.7322 46.9584 54.0469 47.3467 54.0469H48.2466V60.8438C48.2466 61.2322 48.5614 61.5469 48.9497 61.5469C49.338 61.5469 49.6528 61.2322 49.6528 60.8438V53.3438C49.6528 53.1573 49.5788 52.9784 49.4469 52.8466C49.315 52.7147 49.1362 52.6406 48.9497 52.6406Z" fill="#7A7A93"/>
<path d="M67.327 51.2344C66.0792 51.2344 65.0642 52.3627 65.0642 53.7498C65.0642 55.1368 66.0792 56.2653 67.327 56.2653C68.5747 56.2653 69.5897 55.1368 69.5897 53.7498C69.5897 52.3627 68.5746 51.2344 67.327 51.2344ZM67.327 54.859C66.8627 54.859 66.4705 54.3511 66.4705 53.7498C66.4705 53.1486 66.8627 52.6406 67.327 52.6406C67.7912 52.6406 68.1835 53.1486 68.1835 53.7498C68.1835 54.3511 67.7912 54.859 67.327 54.859ZM72.0939 56.9847C70.8462 56.9847 69.8312 58.1132 69.8312 59.5002C69.8312 60.8873 70.8462 62.0156 72.0939 62.0156C73.3416 62.0156 74.3566 60.8873 74.3566 59.5002C74.3566 58.1132 73.3416 56.9847 72.0939 56.9847ZM72.0939 60.6094C71.6296 60.6094 71.2375 60.1014 71.2375 59.5002C71.2375 58.8989 71.6297 58.391 72.0939 58.391C72.5581 58.391 72.9504 58.8989 72.9504 59.5002C72.9504 60.1014 72.5582 60.6094 72.0939 60.6094Z" fill="#616173"/>
<path d="M53.846 52.6406C52.3092 52.6406 51.0591 53.8908 51.0591 55.4275V58.7601C51.0591 60.2968 52.3092 61.547 53.846 61.547C55.3826 61.547 56.6329 60.2968 56.6329 58.7601V55.4275C56.6329 53.8908 55.3826 52.6406 53.846 52.6406ZM55.2266 58.76C55.2266 59.5212 54.6073 60.1406 53.846 60.1406C53.0846 60.1406 52.4653 59.5213 52.4653 58.76V55.4274C52.4653 54.6662 53.0846 54.0468 53.846 54.0468C54.6072 54.0468 55.2266 54.6661 55.2266 55.4274V58.76ZM60.8257 52.6406C59.2889 52.6406 58.0388 53.8908 58.0388 55.4275V58.7601C58.0388 60.2968 59.2889 61.547 60.8257 61.547C62.3624 61.547 63.6126 60.2968 63.6126 58.7601V55.4275C63.6126 53.8908 62.3623 52.6406 60.8257 52.6406ZM62.2063 58.76C62.2063 59.5212 61.587 60.1406 60.8257 60.1406C60.0643 60.1406 59.445 59.5213 59.445 58.76V55.4274C59.445 54.6662 60.0643 54.0468 60.8257 54.0468C61.587 54.0468 62.2063 54.6661 62.2063 55.4274V58.76Z" fill="#7A7A93"/>
<path d="M60.8256 52.6406C60.7154 52.6406 60.6069 52.6478 60.5 52.6602V54.0872C60.6065 54.0608 60.7158 54.0472 60.8256 54.0468C61.5869 54.0468 62.2063 54.6661 62.2063 55.4274V58.76C62.2063 59.5212 61.5869 60.1406 60.8256 60.1406C60.7133 60.1406 60.6046 60.1256 60.5 60.1002V61.5272C60.6069 61.5397 60.7153 61.5468 60.8256 61.5468C62.3623 61.5468 63.6125 60.2966 63.6125 58.7599V55.4273C63.6125 53.8908 62.3622 52.6406 60.8256 52.6406Z" fill="#616173"/>
<path d="M84.0034 25.1408C83.9562 24.8957 83.8446 24.6677 83.6801 24.48C83.5156 24.2923 83.3042 24.1518 83.0674 24.0728C82.8307 23.9938 82.5772 23.9793 82.333 24.0306C82.0888 24.0819 81.8627 24.1973 81.6778 24.3649C81.628 24.41 76.6351 28.8987 71.3448 30.6623C66.3273 32.3348 62.6136 35.7835 60.6054 40.6359C60.5696 40.7227 60.5345 40.8099 60.5 40.8973C60.4655 40.8104 60.4308 40.7234 60.3946 40.6359C58.3864 35.7835 54.6727 32.3348 49.6552 30.6623C44.3794 28.9037 39.3995 24.4347 39.3228 24.3655C39.138 24.1977 38.9118 24.0822 38.6675 24.0307C38.4233 23.9792 38.1697 23.9937 37.9329 24.0726C37.6961 24.1516 37.4846 24.2921 37.32 24.4798C37.1555 24.6675 37.0438 24.8957 36.9966 25.1408C36.894 25.6736 34.5594 38.2647 40.9839 44.8239C44.6693 48.5866 50.4423 49.4138 54.8073 49.4138C57.5504 49.4138 59.7373 49.087 60.5 48.9567C61.2627 49.087 63.449 49.4138 66.1927 49.4138C70.5575 49.4138 76.3312 48.5861 80.0161 44.8239C86.4406 38.2647 84.106 25.6736 84.0034 25.1408Z" fill="#56CA88"/>
<path d="M84.0034 25.1402C83.9562 24.8952 83.8446 24.6671 83.6801 24.4795C83.5156 24.2918 83.3042 24.1513 83.0674 24.0723C82.8307 23.9933 82.5772 23.9787 82.333 24.0301C82.0888 24.0814 81.8627 24.1968 81.6777 24.3644C81.628 24.4095 76.6351 28.8982 71.3448 30.6617C66.3273 32.3342 62.6136 35.783 60.6054 40.6353C60.5696 40.7222 60.5345 40.8094 60.5 40.8968V48.9561C61.2627 49.0864 63.449 49.4131 66.1927 49.4131C70.5575 49.4131 76.3312 48.5855 80.0161 44.8233C86.4406 38.2642 84.106 25.6731 84.0034 25.1402Z" fill="#35C071"/>
<path d="M60.5005 48.9344H60.499C60.2839 48.9343 60.0716 48.8848 59.8786 48.7898C59.6856 48.6948 59.5169 48.5568 59.3856 48.3864C59.3422 48.3302 54.8856 42.6356 48.8638 40.9151C48.117 40.7018 47.6846 39.9234 47.898 39.1766C48.1114 38.4298 48.89 37.9973 49.6364 38.2108C54.7079 39.6598 58.6641 43.3794 60.5 45.3725C62.336 43.3794 66.2922 39.6598 71.3637 38.2108C72.1102 37.9974 72.8888 38.4297 73.1021 39.1766C73.3155 39.9234 72.8831 40.7018 72.1363 40.9151C66.1145 42.6357 61.6578 48.3303 61.6135 48.3876C61.4821 48.5577 61.3134 48.6954 61.1205 48.7902C60.9275 48.8849 60.7155 48.9343 60.5005 48.9344Z" fill="#35C071"/>
<path d="M73.1022 39.1765C72.8888 38.4296 72.1102 37.9974 71.3638 38.2107C66.2922 39.6597 62.3359 43.3794 60.5 45.3725V48.9343H60.5005C60.9358 48.9343 61.3472 48.7321 61.6136 48.3876C61.6579 48.3303 66.1145 42.6355 72.1363 40.915C72.8831 40.7018 73.3155 39.9234 73.1022 39.1765Z" fill="#027D37"/>
</g>
<path d="M37.7163 93V91.71H38.8863V87.29H37.7163V86H41.5463V87.29H40.3863V91.71H41.5463V93H37.7163ZM48.9759 93V89.69C48.9759 89.41 48.8893 89.1967 48.7159 89.05C48.5493 88.8967 48.3226 88.82 48.0359 88.82C47.7626 88.82 47.5193 88.8733 47.3059 88.98C47.0926 89.0867 46.8926 89.2533 46.7059 89.48L45.8359 88.64C46.1559 88.3067 46.5126 88.05 46.9059 87.87C47.3059 87.69 47.7393 87.6 48.2059 87.6C48.6326 87.6 49.0026 87.6667 49.3159 87.8C49.6359 87.9333 49.8826 88.1333 50.0559 88.4C50.2293 88.6667 50.3159 89.0033 50.3159 89.41V93H48.9759ZM47.5259 93.1C47.1926 93.1 46.8893 93.0333 46.6159 92.9C46.3493 92.7667 46.1359 92.5833 45.9759 92.35C45.8226 92.11 45.7459 91.83 45.7459 91.51C45.7459 91.2367 45.7959 90.9967 45.8959 90.79C45.9959 90.5767 46.1426 90.4033 46.3359 90.27C46.5359 90.13 46.7826 90.0233 47.0759 89.95C47.3759 89.8767 47.7226 89.84 48.1159 89.84H49.6759L49.5859 90.79H48.0959C47.9359 90.79 47.7926 90.8033 47.6659 90.83C47.5459 90.8567 47.4426 90.9 47.3559 90.96C47.2759 91.02 47.2126 91.09 47.1659 91.17C47.1259 91.25 47.1059 91.3433 47.1059 91.45C47.1059 91.5633 47.1359 91.6633 47.1959 91.75C47.2559 91.8367 47.3359 91.9033 47.4359 91.95C47.5426 91.9967 47.6626 92.02 47.7959 92.02C47.9893 92.02 48.1726 91.9867 48.3459 91.92C48.5259 91.8533 48.6859 91.76 48.8259 91.64C48.9659 91.52 49.0759 91.3833 49.1559 91.23L49.4259 91.94C49.2859 92.1667 49.1159 92.3667 48.9159 92.54C48.7159 92.7133 48.4993 92.85 48.2659 92.95C48.0326 93.05 47.7859 93.1 47.5259 93.1ZM51.5828 93V87.71H52.9528L52.9828 88.72L52.7728 88.78C52.8395 88.6067 52.9328 88.45 53.0528 88.31C53.1795 88.1633 53.3228 88.04 53.4828 87.94C53.6428 87.84 53.8128 87.76 53.9928 87.7C54.1795 87.64 54.3628 87.61 54.5428 87.61C54.8228 87.61 55.0695 87.6533 55.2828 87.74C55.5028 87.8267 55.6895 87.9633 55.8428 88.15C55.9961 88.3367 56.1128 88.58 56.1928 88.88L55.9828 88.84L56.0528 88.69C56.1395 88.5367 56.2495 88.3933 56.3828 88.26C56.5161 88.1267 56.6661 88.0133 56.8328 87.92C56.9995 87.82 57.1728 87.7433 57.3528 87.69C57.5328 87.6367 57.7095 87.61 57.8828 87.61C58.2961 87.61 58.6361 87.6933 58.9028 87.86C59.1761 88.0267 59.3795 88.2733 59.5128 88.6C59.6528 88.92 59.7228 89.32 59.7228 89.8V93H58.3028V89.9C58.3028 89.54 58.2295 89.2733 58.0828 89.1C57.9428 88.9267 57.7261 88.84 57.4328 88.84C57.2795 88.84 57.1361 88.8667 57.0028 88.92C56.8695 88.9667 56.7561 89.0367 56.6628 89.13C56.5695 89.2233 56.4961 89.33 56.4428 89.45C56.3895 89.57 56.3628 89.7033 56.3628 89.85V93H54.9428V89.88C54.9428 89.5467 54.8661 89.29 54.7128 89.11C54.5661 88.93 54.3528 88.84 54.0728 88.84C53.9261 88.84 53.7861 88.8667 53.6528 88.92C53.5195 88.9667 53.4061 89.0367 53.3128 89.13C53.2195 89.2167 53.1461 89.3233 53.0928 89.45C53.0395 89.57 53.0128 89.7033 53.0128 89.85V93H51.5828ZM65.7819 93V87.35H63.7619V86H69.3819V87.35H67.2819V93H65.7819ZM69.8252 93V87.71H71.1952L71.2452 89.41L71.0052 89.05C71.0919 88.7833 71.2219 88.54 71.3952 88.32C71.5752 88.1 71.7852 87.9267 72.0252 87.8C72.2719 87.6667 72.5286 87.6 72.7952 87.6C72.9152 87.6 73.0252 87.61 73.1252 87.63C73.2319 87.6433 73.3219 87.6667 73.3952 87.7L73.0152 89.25C72.9419 89.2167 72.8452 89.1867 72.7252 89.16C72.6119 89.1267 72.4952 89.11 72.3752 89.11C72.2219 89.11 72.0752 89.14 71.9352 89.2C71.8019 89.2533 71.6819 89.3333 71.5752 89.44C71.4752 89.54 71.3952 89.66 71.3352 89.8C71.2819 89.94 71.2552 90.0967 71.2552 90.27V93H69.8252ZM76.4954 93.1C75.9221 93.1 75.4187 92.9833 74.9854 92.75C74.5587 92.5167 74.2254 92.1967 73.9854 91.79C73.7521 91.3833 73.6354 90.92 73.6354 90.4C73.6354 89.9867 73.7021 89.61 73.8354 89.27C73.9687 88.9233 74.1554 88.6267 74.3954 88.38C74.6354 88.1333 74.9187 87.9433 75.2454 87.81C75.5787 87.67 75.9421 87.6 76.3354 87.6C76.6954 87.6 77.0254 87.6667 77.3254 87.8C77.6321 87.9267 77.8954 88.11 78.1154 88.35C78.3421 88.5833 78.5154 88.86 78.6354 89.18C78.7554 89.5 78.8121 89.85 78.8054 90.23L78.7954 90.67H74.5454L74.3154 89.79H77.6254L77.4554 89.97V89.76C77.4421 89.5733 77.3821 89.41 77.2754 89.27C77.1754 89.13 77.0454 89.02 76.8854 88.94C76.7254 88.8533 76.5487 88.81 76.3554 88.81C76.0554 88.81 75.8021 88.87 75.5954 88.99C75.3954 89.1033 75.2421 89.27 75.1354 89.49C75.0354 89.7033 74.9854 89.97 74.9854 90.29C74.9854 90.6033 75.0521 90.88 75.1854 91.12C75.3187 91.3533 75.5087 91.5333 75.7554 91.66C76.0087 91.7867 76.3054 91.85 76.6454 91.85C76.8787 91.85 77.0921 91.8133 77.2854 91.74C77.4787 91.6667 77.6887 91.54 77.9154 91.36L78.5854 92.31C78.3987 92.4767 78.1887 92.62 77.9554 92.74C77.7221 92.86 77.4821 92.95 77.2354 93.01C76.9887 93.07 76.7421 93.1 76.4954 93.1ZM82.3645 93.1C81.7912 93.1 81.2879 92.9833 80.8545 92.75C80.4279 92.5167 80.0945 92.1967 79.8545 91.79C79.6212 91.3833 79.5045 90.92 79.5045 90.4C79.5045 89.9867 79.5712 89.61 79.7045 89.27C79.8379 88.9233 80.0245 88.6267 80.2645 88.38C80.5045 88.1333 80.7879 87.9433 81.1145 87.81C81.4479 87.67 81.8112 87.6 82.2045 87.6C82.5645 87.6 82.8945 87.6667 83.1945 87.8C83.5012 87.9267 83.7645 88.11 83.9845 88.35C84.2112 88.5833 84.3845 88.86 84.5045 89.18C84.6245 89.5 84.6812 89.85 84.6745 90.23L84.6645 90.67H80.4145L80.1845 89.79H83.4945L83.3245 89.97V89.76C83.3112 89.5733 83.2512 89.41 83.1445 89.27C83.0445 89.13 82.9145 89.02 82.7545 88.94C82.5945 88.8533 82.4179 88.81 82.2245 88.81C81.9245 88.81 81.6712 88.87 81.4645 88.99C81.2645 89.1033 81.1112 89.27 81.0045 89.49C80.9045 89.7033 80.8545 89.97 80.8545 90.29C80.8545 90.6033 80.9212 90.88 81.0545 91.12C81.1879 91.3533 81.3779 91.5333 81.6245 91.66C81.8779 91.7867 82.1745 91.85 82.5145 91.85C82.7479 91.85 82.9612 91.8133 83.1545 91.74C83.3479 91.6667 83.5579 91.54 83.7845 91.36L84.4545 92.31C84.2679 92.4767 84.0579 92.62 83.8245 92.74C83.5912 92.86 83.3512 92.95 83.1045 93.01C82.8579 93.07 82.6112 93.1 82.3645 93.1Z" fill="url(#paint0_linear_1998_12840)"/>
<defs>
<linearGradient id="paint0_linear_1998_12840" x1="61.0706" y1="103.464" x2="61.0706" y2="64.4107" gradientUnits="userSpaceOnUse">
<stop stop-color="#03B04E"/>
<stop offset="1" stop-color="#02C320"/>
</linearGradient>
<clipPath id="clip0_1998_12840">
<rect width="48" height="48" fill="white" transform="translate(36.5 24)"/>
</clipPath>
</defs>
</svg>
