<svg width="63" height="62" viewBox="0 0 63 62" fill="none" xmlns="http://www.w3.org/2000/svg">
<g id="Group">
<path id="Vector" d="M51.387 43H52.365C52.6247 43.0029 52.8813 43.0569 53.1201 43.159C53.359 43.261 53.5753 43.4092 53.7569 43.5949C53.9384 43.7807 54.0816 44.0003 54.1782 44.2414C54.2749 44.4825 54.323 44.7403 54.32 45C54.323 45.2597 54.2749 45.5175 54.1782 45.7586C54.0816 45.9997 53.9384 46.2193 53.7569 46.4051C53.5753 46.5908 53.359 46.739 53.1201 46.841C52.8813 46.9431 52.6247 46.9971 52.365 47H51.387" fill="#442518"/>
<path id="Vector_2" d="M41.613 43H40.635C40.3753 43.0029 40.1187 43.0569 39.8799 43.159C39.641 43.261 39.4247 43.4092 39.2431 43.5949C39.0615 43.7807 38.9184 44.0003 38.8218 44.2414C38.7251 44.4825 38.677 44.7403 38.68 45C38.677 45.2597 38.7251 45.5175 38.8218 45.7586C38.9184 45.9997 39.0615 46.2193 39.2431 46.4051C39.4247 46.5908 39.641 46.739 39.8799 46.841C40.1187 46.9431 40.3753 46.9971 40.635 47H41.613" fill="#674025"/>
<path id="Vector_3" d="M53.223 38.307C51.2995 36.8145 48.9347 36.003 46.5 36C44.0653 36.003 41.7006 36.8145 39.777 38.307L40.907 41.2C41.3737 42.3948 41.6132 43.6663 41.613 44.949C41.6146 46.9367 41.039 48.8822 39.956 50.549L39.656 51.087V51.061C40.3267 51.1724 40.9609 51.4429 41.5054 51.8499C42.05 52.2568 42.4892 52.7884 42.786 53.4C43.0151 53.877 43.3738 54.2799 43.821 54.5628C44.2681 54.8458 44.7859 54.9972 45.315 55H47.685C48.2142 54.9972 48.7319 54.8458 49.1791 54.5628C49.6262 54.2799 49.9849 53.877 50.214 53.4C50.5097 52.7872 50.9481 52.2542 51.4924 51.8459C52.0367 51.4375 52.6709 51.1656 53.342 51.053L53.042 50.542C51.959 48.8752 51.3834 46.9297 51.385 44.942C51.3848 43.6593 51.6243 42.3878 52.091 41.193L53.22 38.306L53.223 38.307Z" fill="#F5CF88"/>
<path id="Vector_4" d="M39.777 38.3071L40.907 41.2001C41.5012 42.722 41.7249 44.3634 41.5596 45.9888C41.3942 47.6142 40.8445 49.177 39.956 50.5481L39.671 51.0621C40.3388 51.1758 40.9698 51.4473 41.5116 51.8539C42.0533 52.2606 42.4902 52.7906 42.786 53.4001C43.0151 53.877 43.3738 54.28 43.8209 54.5629C44.2681 54.8458 44.7858 54.9973 45.315 55.0001H46.823C48.8615 50.3807 49.9123 45.3863 49.908 40.3371C49.9086 39.0525 49.8419 37.7687 49.708 36.4911C48.0298 35.9688 46.2499 35.8612 44.521 36.1775C42.7921 36.4938 41.1656 37.2245 39.781 38.3071H39.777ZM39.658 51.0811L39.671 51.0571L39.662 51.0551L39.658 51.0811Z" fill="#FADFB2"/>
<g id="Group_2">
<path id="Vector_5" d="M27.673 21.536L29.337 20.426L31.937 24.326L30.273 25.436L27.673 21.536Z" fill="#D5CEC2"/>
<path id="Vector_6" d="M31.096 24.28L33.666 20.426L35.331 21.536L32.76 25.389L31.096 24.28ZM3.688 51.545L5.352 50.435L7.81 54.121L6.146 55.231L3.688 51.545Z" fill="#D5CEC2"/>
<path id="Vector_7" d="M6.91701 54.5729L9.68301 50.4259L11.347 51.5359L8.58101 55.6829L6.91701 54.5729ZM54.666 13.5299L56.33 12.4199L58.836 16.1759L57.172 17.2859L54.666 13.5299Z" fill="#D5CEC2"/>
<path id="Vector_8" d="M57.888 16.5719L60.658 12.4189L62.322 13.5289L59.552 17.6819L57.888 16.5719Z" fill="#D5CEC2"/>
</g>
<path id="Vector_9" d="M31.374 13H43.4C44.0649 12.9999 44.7233 13.1308 45.3376 13.3853C45.9518 13.6398 46.5099 14.0128 46.98 14.483C47.4614 14.9643 48.033 15.346 48.662 15.6063C49.2911 15.8666 49.9652 16.0004 50.646 16C51.1377 16 51.6093 15.8047 51.957 15.457C52.3047 15.1093 52.5 14.6377 52.5 14.146C52.4999 13.8017 52.404 13.4643 52.223 13.1714C52.042 12.8786 51.783 12.6419 51.475 12.488L51.394 12.447C51.1253 12.3127 50.8993 12.1061 50.7414 11.8505C50.5835 11.595 50.4999 11.3004 50.5 11C50.4999 10.6996 50.5835 10.405 50.7414 10.1495C50.8993 9.89387 51.1253 9.68733 51.394 9.553L51.475 9.512C51.783 9.35806 52.042 9.12141 52.223 8.82858C52.404 8.53574 52.4999 8.19828 52.5 7.854C52.5 7.36229 52.3047 6.89072 51.957 6.54302C51.6093 6.19533 51.1377 6 50.646 6C49.2722 6.00001 47.9546 6.54568 46.983 7.517C46.5126 7.98759 45.954 8.3608 45.3392 8.61528C44.7244 8.86975 44.0654 9.00048 43.4 9H31.374C31.4578 9.32674 31.5001 9.6627 31.5 10C31.4957 10.338 31.4483 10.674 31.359 11C31.4483 11.326 31.4957 11.662 31.5 12C31.5001 12.2707 31.473 12.5407 31.419 12.806L31.374 13Z" fill="#F5CF88"/>
<path id="Vector_10" d="M46.5 31C46.4972 29.4802 46.93 27.9915 47.747 26.71L47.727 26.697C47.9364 24.7116 47.6682 22.7049 46.9447 20.8441C46.2213 18.9834 45.0635 17.3225 43.568 16L39.658 21C41.1825 21.6325 42.5356 22.6167 43.6069 23.8723C44.6782 25.1278 45.4373 26.619 45.822 28.224L46.5 31Z" fill="#976947"/>
<path id="Vector_11" d="M46.5 31H50.23C51.7771 31.0024 53.2915 30.5542 54.588 29.71C54.621 29.727 54.698 29.77 54.73 29.789C57.9989 31.6606 60.4228 34.7176 61.5 38.327L59.285 39.46C58.5933 39.8145 57.8273 39.9996 57.05 40C55.9115 39.9985 54.8087 39.6027 53.929 38.88L53.463 38.499C51.5007 36.8862 49.0401 36.0031 46.5 36C43.9598 36.0033 41.4992 36.8868 39.537 38.5L39.071 38.881C38.1912 39.6033 37.0884 39.9987 35.95 40C35.1727 39.9996 34.4067 39.8145 33.715 39.46L31.5 38.327C32.5772 34.7176 35.0011 31.6606 38.27 29.789C39.1764 29.2722 40.2017 29.0003 41.245 29H41.713C42.9265 29.0005 44.1116 29.3675 45.113 30.053L46.5 31Z" fill="url(#paint0_linear_2246_5711)"/>
<path id="Vector_12" d="M50.23 31H46.5C46.5 28.8783 47.3429 26.8434 48.8431 25.3431C50.3434 23.8429 52.3783 23 54.5 23H58.23C58.23 25.1217 57.3871 27.1566 55.8869 28.6569C54.3866 30.1571 52.3517 31 50.23 31Z" fill="#78B75B"/>
<path id="Vector_13" d="M58.326 53.07L54.845 58.609C54.3923 59.3377 53.7618 59.9393 53.0128 60.3576C52.2638 60.7758 51.4209 60.9969 50.563 61C49.8916 60.9987 49.2272 60.8631 48.6089 60.6012C47.9907 60.3393 47.4311 59.9564 46.963 59.475C46.9028 59.4128 46.8307 59.3634 46.751 59.3296C46.6712 59.2959 46.5856 59.2785 46.499 59.2785C46.4124 59.2785 46.3268 59.2959 46.2471 59.3296C46.1673 59.3634 46.0952 59.4128 46.035 59.475C45.5672 59.9561 45.0079 60.3389 44.39 60.6008C43.7721 60.8627 43.1081 60.9984 42.437 61C41.5792 60.9969 40.7362 60.7758 39.9872 60.3576C39.2382 59.9393 38.6077 59.3377 38.155 58.609L34.673 53.067L36.633 51.73C37.3266 51.2551 38.1474 51.0007 38.988 51C39.7827 51.0034 40.5605 51.2302 41.2325 51.6546C41.9044 52.079 42.4434 52.6838 42.788 53.4C43.017 53.8767 43.3753 54.2794 43.8221 54.5623C44.2689 54.8452 44.7862 54.9969 45.315 55H47.685C48.2142 54.9972 48.7319 54.8458 49.1791 54.5628C49.6262 54.2799 49.9849 53.877 50.214 53.4C50.5586 52.6838 51.0976 52.079 51.7696 51.6546C52.4415 51.2302 53.2193 51.0034 54.014 51C54.8546 51.0007 55.6754 51.2551 56.369 51.73L58.328 53.07H58.326Z" fill="url(#paint1_linear_2246_5711)"/>
<path id="Vector_14" d="M46.5 47C47.0932 46.9293 47.6342 46.6266 48.0049 46.1582C48.3755 45.6897 48.5456 45.0935 48.478 44.5C48.5456 43.9065 48.3755 43.3103 48.0049 42.8418C47.6342 42.3734 47.0932 42.0707 46.5 42C45.9071 42.0712 45.3665 42.374 44.9961 42.8424C44.6257 43.3108 44.4556 43.9067 44.523 44.5C44.4556 45.0933 44.6257 45.6892 44.9961 46.1576C45.3665 46.626 45.9071 46.9288 46.5 47Z" fill="#674025"/>
<path id="Vector_15" d="M18.412 19.7259C18.4703 19.4883 18.4999 19.2446 18.5 18.9999C18.5 18.2043 18.1839 17.4412 17.6213 16.8786C17.0587 16.316 16.2956 15.9999 15.5 15.9999C15.5 15.2043 15.1839 14.4412 14.6213 13.8786C14.0587 13.316 13.2956 12.9999 12.5 12.9999C11.7043 12.9999 10.9413 13.316 10.3787 13.8786C9.81607 14.4412 9.5 15.2043 9.5 15.9999C8.70435 15.9999 7.94129 16.316 7.37868 16.8786C6.81607 17.4412 6.5 18.2043 6.5 18.9999C5.43913 18.9999 4.42172 18.5785 3.67157 17.8284C2.92142 17.0782 2.5 16.0608 2.5 14.9999C2.50549 14.6073 2.56953 14.2177 2.69 13.8439C2.31303 13.4724 2.01367 13.0297 1.80935 12.5414C1.60502 12.0532 1.4998 11.5292 1.4998 10.9999C1.4998 10.4707 1.60502 9.94668 1.80935 9.45844C2.01367 8.9702 2.31303 8.52745 2.69 8.15594C2.56953 7.7822 2.50549 7.39258 2.5 6.99994C2.5 5.93908 2.92142 4.92166 3.67157 4.17151C4.42172 3.42137 5.43913 2.99994 6.5 2.99994C6.67631 3.0059 6.85204 3.02361 7.026 3.05294C7.30486 2.54302 7.69286 2.10096 8.1623 1.75832C8.63174 1.41568 9.17104 1.1809 9.7417 1.07077C10.3124 0.960628 10.9003 0.977839 11.4635 1.12117C12.0268 1.26451 12.5514 1.53042 13 1.89994C13.4649 1.51747 14.011 1.24615 14.5967 1.10667C15.1823 0.967181 15.7921 0.963204 16.3795 1.09504C16.967 1.22688 17.5166 1.49105 17.9864 1.86743C18.4563 2.24381 18.8341 2.72247 19.091 3.26694C19.9828 2.91985 20.9705 2.90962 21.8693 3.23817C22.7681 3.56673 23.5163 4.21154 23.974 5.05194C24.5451 4.95251 25.1316 4.98955 25.6857 5.16004C26.2397 5.33053 26.7456 5.62964 27.162 6.03294C27.275 6.02394 27.384 5.99994 27.5 5.99994C28.1124 5.99262 28.7181 6.1277 29.2694 6.39451C29.8207 6.66133 30.3024 7.05259 30.6766 7.53743C31.0508 8.02226 31.3072 8.58742 31.4257 9.1883C31.5441 9.78919 31.5213 10.4094 31.359 10.9999C31.5213 11.5905 31.5441 12.2107 31.4257 12.8116C31.3072 13.4125 31.0508 13.9776 30.6766 14.4625C30.3024 14.9473 29.8207 15.3386 29.2694 15.6054C28.7181 15.8722 28.1124 16.0073 27.5 15.9999C27.384 15.9999 27.275 15.9759 27.162 15.9659C26.7456 16.3692 26.2397 16.6684 25.6857 16.8388C25.1316 17.0093 24.5451 17.0464 23.974 16.9469C23.5163 17.7873 22.7681 18.4322 21.8693 18.7607C20.9705 19.0893 19.9828 19.079 19.091 18.7319C18.9152 19.0951 18.6863 19.4301 18.412 19.7259Z" fill="#976947"/>
<path id="Vector_16" d="M32.5 24H30.5C29.3954 24 28.5 24.8954 28.5 26C28.5 27.1046 29.3954 28 30.5 28H32.5C33.6046 28 34.5 27.1046 34.5 26C34.5 24.8954 33.6046 24 32.5 24Z" fill="#78B75B"/>
<path id="Vector_17" d="M8.5 54H6.5C5.39543 54 4.5 54.8954 4.5 56C4.5 57.1046 5.39543 58 6.5 58H8.5C9.60457 58 10.5 57.1046 10.5 56C10.5 54.8954 9.60457 54 8.5 54Z" fill="#78B75B"/>
<path id="Vector_18" d="M59.5 16H57.5C56.3954 16 55.5 16.8954 55.5 18C55.5 19.1046 56.3954 20 57.5 20H59.5C60.6046 20 61.5 19.1046 61.5 18C61.5 16.8954 60.6046 16 59.5 16Z" fill="#78B75B"/>
<path id="Vector_19" d="M48.694 31H46.5L45.111 30.053C44.1102 29.3679 42.9259 29.0009 41.713 29H41.245C40.2017 29.0003 39.1764 29.2722 38.27 29.789C35.0011 31.6606 32.5772 34.7176 31.5 38.327L33.715 39.46C34.5668 39.8972 35.528 40.0752 36.4799 39.9721C37.4317 39.869 38.3325 39.4894 39.071 38.88L39.537 38.499C40.9302 37.3452 42.5893 36.5573 44.364 36.2068C46.1387 35.8564 47.9728 35.9544 49.7 36.492C49.5062 34.6382 49.1699 32.8021 48.694 31ZM45.315 55C44.7858 54.9972 44.2681 54.8458 43.8209 54.5628C43.3738 54.2799 43.0151 53.877 42.786 53.4C42.4414 52.6838 41.9024 52.079 41.2304 51.6546C40.5585 51.2302 39.7807 51.0034 38.986 51C38.1454 51.0007 37.3246 51.2551 36.631 51.73L34.671 53.067L38.153 58.609C38.6059 59.338 39.2367 59.9398 39.986 60.3581C40.7354 60.7763 41.5788 60.9972 42.437 61C42.8192 60.9958 43.1997 60.9479 43.571 60.857C44.8333 59.0092 45.922 57.0485 46.823 55H45.315Z" fill="url(#paint2_linear_2246_5711)"/>
<path id="Vector_20" d="M47.456 27.2061C46.827 28.3716 46.4984 29.6756 46.5 31.0001H48.694C48.3517 29.7135 47.9384 28.4469 47.456 27.2061Z" fill="#96CC7F"/>
<path id="Vector_21" d="M45.822 28.2241L46.5 31.0001C46.5036 29.6821 46.8353 28.3858 47.465 27.2281C46.1598 23.8539 44.3583 20.6934 42.12 17.8511L39.658 21.0001C41.1825 21.6326 42.5356 22.6168 43.6069 23.8723C44.6782 25.1279 45.4373 26.6191 45.822 28.2241Z" fill="#C18E59"/>
<path id="Vector_22" d="M37.258 48.976L36.853 48.183C36.7148 47.9019 36.5122 47.6575 36.2617 47.4694C36.0112 47.2814 35.7199 47.1551 35.4114 47.1008C35.1029 47.0466 34.786 47.0658 34.4864 47.1571C34.1867 47.2484 33.9129 47.409 33.687 47.626L30.114 51.2L27.685 48.77L30.418 42.393L28.579 41.6L26.162 47.243L24.686 45.767L27.419 39.389L25.58 38.6L23.162 44.243L21.686 42.767L24.419 36.389L22.58 35.6L20.162 41.243L18.686 39.767L21.419 33.389L19.58 32.6L17.162 38.243L12.185 33.27L10.5 24L8.5 31L1.5 33L10.771 34.686L15.747 39.662L10.105 42.079L10.894 43.918L17.27 41.185L18.747 42.662L13.105 45.079L13.894 46.918L20.27 44.185L21.747 45.662L16.105 48.079L16.894 49.918L23.27 47.185L24.747 48.662L19.1 51.079L19.889 52.918L26.266 50.185L28.7 52.614L25.127 56.187C24.91 56.4129 24.7493 56.6867 24.6581 56.9864C24.5668 57.286 24.5476 57.6029 24.6018 57.9114C24.6561 58.2199 24.7824 58.5112 24.9704 58.7617C25.1585 59.0122 25.4029 59.2148 25.684 59.353L26.477 59.758C28.0196 60.548 29.7231 60.973 31.456 61C32.3858 61.0166 33.3094 60.8463 34.1721 60.4991C35.0348 60.1519 35.8189 59.635 36.478 58.979C37.1343 58.3199 37.6515 57.5356 37.9989 56.6727C38.3462 55.8099 38.5166 54.886 38.5 53.956C38.4731 52.2228 38.0482 50.5189 37.258 48.976Z" fill="#D5CEC2"/>
<path id="Vector_23" d="M34 55C33.7033 55 33.4133 54.912 33.1666 54.7472C32.92 54.5824 32.7277 54.3481 32.6142 54.074C32.5006 53.7999 32.4709 53.4983 32.5288 53.2074C32.5867 52.9164 32.7296 52.6491 32.9393 52.4393C33.1491 52.2296 33.4164 52.0867 33.7074 52.0288C33.9983 51.9709 34.2999 52.0006 34.574 52.1142C34.8481 52.2277 35.0824 52.42 35.2472 52.6666C35.412 52.9133 35.5 53.2033 35.5 53.5C35.5 53.8978 35.342 54.2794 35.0607 54.5607C34.7794 54.842 34.3978 55 34 55Z" fill="#E7E4DD"/>
<path id="Vector_24" d="M34 52C33.7033 52 33.4133 52.088 33.1666 52.2528C32.92 52.4176 32.7277 52.6519 32.6142 52.926C32.5006 53.2001 32.4709 53.5017 32.5288 53.7926C32.5867 54.0836 32.7296 54.3509 32.9393 54.5607C33.1491 54.7704 33.4164 54.9133 33.7074 54.9712C33.9983 55.0291 34.2999 54.9993 34.574 54.8858C34.8481 54.7723 35.0824 54.58 35.2472 54.3334C35.412 54.0867 35.5 53.7967 35.5 53.5C35.5 53.1022 35.342 52.7206 35.0607 52.4393C34.7794 52.158 34.3978 52 34 52Z" fill="#013216"/>
<path id="Vector_25" d="M56.315 29.61C57.2324 28.7705 57.9652 27.7493 58.4669 26.6114C58.9685 25.4734 59.2281 24.2436 59.229 23C59.229 22.7348 59.1236 22.4805 58.9361 22.2929C58.7486 22.1054 58.4942 22 58.229 22H54.5C52.3804 21.9991 50.3291 22.7499 48.711 24.119C48.4034 20.698 46.7996 17.524 44.228 15.247C44.1256 15.1569 44.006 15.0886 43.8763 15.0461C43.7467 15.0037 43.6099 14.988 43.474 15C43.3384 15.0127 43.2068 15.0529 43.0873 15.1183C42.9678 15.1836 42.8629 15.2727 42.779 15.38L38.869 20.38C38.7739 20.5017 38.7083 20.6438 38.6773 20.7951C38.6464 20.9465 38.6509 21.1029 38.6905 21.2522C38.7301 21.4015 38.8038 21.5395 38.9057 21.6556C39.0076 21.7716 39.1351 21.8625 39.278 21.921C40.6557 22.4957 41.8784 23.3874 42.8466 24.5237C43.8148 25.6599 44.5012 27.0086 44.85 28.46L44.932 28.796C43.9381 28.2747 42.8333 28.0003 41.711 27.996H41.244C40.0276 27.9969 38.8323 28.3135 37.775 28.915C34.2777 30.908 31.6861 34.1757 30.542 38.035C30.4742 38.259 30.4872 38.4996 30.5785 38.7151C30.6699 38.9305 30.8339 39.1071 31.042 39.214L33.257 40.347C34.2166 40.8206 35.285 41.0297 36.3523 40.9529C37.4196 40.8761 38.4471 40.5161 39.329 39.91L39.973 41.556C40.036 41.718 40.085 41.883 40.139 42.048C39.4526 42.1739 38.8315 42.5351 38.3827 43.0695C37.9339 43.6039 37.6855 44.2781 37.6802 44.9759C37.6748 45.6738 37.913 46.3516 38.3535 46.8928C38.7941 47.434 39.4096 47.8047 40.094 47.941C39.8548 48.6653 39.5262 49.357 39.116 50L39.108 50.013C39.067 50.013 39.028 50.004 38.986 50.004C38.917 50.004 38.848 50.013 38.778 50.015C38.6009 49.5046 38.3901 49.0065 38.147 48.524L37.747 47.733C37.5301 47.3033 37.2144 46.9312 36.8256 46.6473C36.4369 46.3634 35.9863 46.1758 35.511 46.1C35.0546 46.0239 34.5867 46.058 34.1462 46.1996C33.7057 46.3413 33.3055 46.5862 32.979 46.914L29.406 50.487L27.685 48.77L30.418 42.393L28.579 41.6L26.162 47.243L24.685 45.77L27.418 39.393L25.579 38.6L23.162 44.243L21.685 42.77L24.418 36.393L22.579 35.6L20.162 41.243L18.685 39.77L21.418 33.393L19.579 32.6L17.162 38.243L13.426 34.507L11.482 23.819C11.4415 23.5972 11.3271 23.3956 11.1576 23.2469C10.988 23.0982 10.7732 23.0112 10.548 23C10.3235 22.9934 10.103 23.0606 9.92032 23.1914C9.73769 23.3222 9.60302 23.5093 9.537 23.724L7.689 30.189L1.224 32.037C1.00714 32.0991 0.817635 32.2327 0.686277 32.4161C0.554919 32.5995 0.489424 32.8219 0.500428 33.0472C0.511433 33.2725 0.598292 33.4875 0.746896 33.6572C0.8955 33.8269 1.09712 33.9414 1.319 33.982L12.011 35.926L15.747 39.662L10.1 42.079L10.889 43.918L17.266 41.185L18.743 42.662L13.1 45.079L13.889 46.918L20.266 44.185L21.743 45.662L16.1 48.079L16.889 49.918L23.266 47.185L24.743 48.662L19.1 51.079L19.889 52.918L26.266 50.185L27.987 51.906L24.415 55.479C24.0866 55.8051 23.8412 56.2053 23.6994 56.6458C23.5576 57.0864 23.5235 57.5546 23.6 58.011C23.6754 58.4845 23.8618 58.9335 24.1438 59.3212C24.4259 59.709 24.7957 60.0245 25.223 60.242L26.017 60.648C27.6981 61.5068 29.5535 61.9693 31.441 62H31.558C32.6024 62.0053 33.6375 61.8034 34.6033 61.406C35.5692 61.0086 36.4467 60.4237 37.185 59.685C37.285 59.585 37.376 59.474 37.47 59.368C37.9542 60.0822 38.5868 60.6835 39.3246 61.131C40.0623 61.5785 40.8879 61.8616 41.7451 61.9609C42.6022 62.0603 43.4706 61.9737 44.2912 61.7069C45.1118 61.4401 45.8652 60.9995 46.5 60.415C47.1533 61.0144 47.9309 61.4621 48.7773 61.7261C49.6237 61.99 50.518 62.0637 51.3962 61.9419C52.2744 61.8201 53.1149 61.5058 53.8575 61.0214C54.6001 60.5371 55.2265 59.8946 55.692 59.14L59.174 53.6C59.3118 53.3808 59.3592 53.1167 59.3063 52.8632C59.2533 52.6097 59.1041 52.3867 58.89 52.241L56.93 50.9C56.0705 50.3122 55.0532 49.9984 54.012 50C53.97 50 53.931 50.008 53.89 50.009L53.881 50C53.4711 49.3595 53.1423 48.6705 52.902 47.949C53.5864 47.8127 54.2019 47.442 54.6425 46.9008C55.083 46.3596 55.3212 45.6818 55.3158 44.9839C55.3105 44.2861 55.0621 43.6119 54.6133 43.0775C54.1645 42.5431 53.5434 42.1819 52.857 42.056C52.911 41.891 52.957 41.725 53.023 41.563L53.668 39.914C54.5411 40.5397 55.5701 40.9119 56.6414 40.9897C57.7127 41.0676 58.7846 40.8479 59.739 40.355L61.955 39.222C62.1631 39.1151 62.3271 38.9385 62.4185 38.7231C62.5098 38.5076 62.5228 38.267 62.455 38.043C61.4349 34.6116 59.2673 31.6346 56.315 29.61ZM5.9 32.782L8.777 31.96C8.94047 31.9133 9.08933 31.8258 9.20954 31.7056C9.32975 31.5854 9.41733 31.4365 9.464 31.273L10.286 28.396L11.26 33.756L5.9 32.782ZM54.5 24H57.159C56.9161 25.6651 56.0826 27.1873 54.8105 28.2889C53.5385 29.3904 51.9127 29.9977 50.23 30H47.57C47.8127 28.3347 48.6463 26.8122 49.9186 25.7106C51.1909 24.609 52.8171 24.0019 54.5 24ZM41.21 20.637L43.672 17.488C44.7896 18.6821 45.6409 20.0999 46.1694 21.6477C46.698 23.1954 46.8918 24.8378 46.738 26.466C46.6473 26.6207 46.5607 26.7787 46.478 26.94C45.5573 24.2624 43.6817 22.0183 41.21 20.637ZM39.68 45C39.6765 44.755 39.7655 44.5176 39.9294 44.3353C40.0933 44.1531 40.3199 44.0394 40.564 44.017C40.594 44.324 40.612 44.634 40.612 44.945C40.6065 45.2915 40.5818 45.6373 40.538 45.981C40.2991 45.9522 40.0794 45.836 39.921 45.6549C39.7626 45.4739 39.6768 45.2406 39.68 45ZM31.47 60C29.8905 59.9737 28.3379 59.5865 26.931 58.868L26.131 58.462C25.9839 58.3887 25.8565 58.2811 25.7596 58.1484C25.6626 58.0156 25.599 57.8615 25.574 57.699C25.5495 57.5551 25.5598 57.4074 25.604 57.2682C25.6482 57.1291 25.725 57.0025 25.828 56.899L34.389 48.337C34.493 48.2349 34.6197 48.1587 34.7587 48.1147C34.8977 48.0708 35.0451 48.0602 35.189 48.084C35.3515 48.109 35.5056 48.1727 35.6383 48.2696C35.7711 48.3665 35.8787 48.4939 35.952 48.641L36.352 49.433C37.0759 50.8379 37.4686 52.3899 37.5 53.97C37.5169 54.7665 37.3725 55.5582 37.0754 56.2975C36.7784 57.0367 36.3348 57.7082 35.7715 58.2715C35.2082 58.8349 34.5367 59.2784 33.7974 59.5755C33.0582 59.8725 32.2665 60.0169 31.47 60ZM56.97 53.351L54 58.076C53.6382 58.6629 53.1324 59.1477 52.5308 59.4844C51.9291 59.8211 51.2515 59.9986 50.562 60C50.0239 60.0001 49.4912 59.8918 48.9959 59.6815C48.5006 59.4712 48.0527 59.1632 47.679 58.776C47.3637 58.4675 46.9401 58.2947 46.499 58.2947C46.0579 58.2947 45.6343 58.4675 45.319 58.776C44.9453 59.1632 44.4974 59.4712 44.0021 59.6815C43.5067 59.8918 42.9741 60.0001 42.436 60C41.7469 59.9979 41.0698 59.8202 40.4685 59.4835C39.8673 59.1469 39.3619 58.6624 39 58.076L38.685 57.576C39.2398 56.4457 39.5191 55.2 39.5 53.941C39.4842 53.2981 39.4173 52.6574 39.3 52.025C39.8498 52.0837 40.3756 52.2809 40.8284 52.5981C41.2812 52.9154 41.6461 53.3423 41.889 53.839C42.198 54.4854 42.6834 55.0312 43.2892 55.4135C43.895 55.7959 44.5966 55.9992 45.313 56H47.685C48.4017 56.0001 49.1038 55.7972 49.7099 55.4147C50.3161 55.0323 50.8015 54.486 51.11 53.839C51.3711 53.2901 51.7822 52.8262 52.2956 52.5008C52.8091 52.1754 53.4041 52.0018 54.012 52C54.6516 51.9995 55.2762 52.1934 55.803 52.556L56.97 53.351ZM49.315 52.962C49.1692 53.2714 48.9387 53.5332 48.6502 53.7169C48.3617 53.9006 48.027 53.9988 47.685 54H45.313C44.9711 53.9983 44.6366 53.8998 44.3484 53.7159C44.0601 53.532 43.8297 53.2703 43.684 52.961C43.1547 51.8661 42.2625 50.9883 41.159 50.477C41.9802 49.0199 42.467 47.3984 42.5843 45.7299C42.7015 44.0614 42.4463 42.3877 41.837 40.83L40.993 38.671C42.6226 37.5816 44.5388 37.0001 46.499 37.0001C48.4592 37.0001 50.3754 37.5816 52.005 38.671L51.161 40.829C50.5518 42.3869 50.2965 44.0607 50.4138 45.7294C50.5311 47.398 51.0179 49.0197 51.839 50.477C50.7354 50.9885 49.8429 51.8662 49.313 52.961L49.315 52.962ZM53.319 45C53.3217 45.2404 53.2355 45.4733 53.0769 45.654C52.9184 45.8347 52.6987 45.9504 52.46 45.979C52.4162 45.6353 52.3915 45.2895 52.386 44.943C52.386 44.632 52.404 44.322 52.434 44.015C52.6784 44.0377 52.9053 44.1517 53.0694 44.3342C53.2334 44.5168 53.3226 44.7546 53.319 45ZM58.828 38.569C58.1467 38.9073 57.3827 39.0433 56.6265 38.9608C55.8703 38.8784 55.1535 38.5811 54.561 38.104L54.096 37.724C51.9559 35.963 49.2705 35.0001 46.499 35.0001C43.7275 35.0001 41.0421 35.963 38.902 37.724L38.437 38.104C37.8446 38.5812 37.1278 38.8786 36.3716 38.961C35.6153 39.0434 34.8513 38.9074 34.17 38.569L32.719 37.827C33.8186 34.795 35.9615 32.2533 38.764 30.657C39.52 30.2273 40.3744 30.001 41.244 30H41.711C42.7229 30.0002 43.7111 30.3063 44.546 30.878L45.935 31.825L45.945 31.811C46.1066 31.9287 46.3001 31.9946 46.5 32H50.23C51.7523 32.0008 53.2496 31.6129 54.58 30.873C57.2147 32.4763 59.2251 34.9289 60.28 37.827L58.828 38.569Z" fill="#013216"/>
<path id="Vector_26" d="M46.5003 42C45.9071 42.0707 45.3661 42.3734 44.9954 42.8419C44.6248 43.3103 44.4547 43.9065 44.5223 44.5C44.4547 45.0935 44.6248 45.6897 44.9954 46.1582C45.3661 46.6267 45.9071 46.9293 46.5003 47C47.0932 46.9288 47.6338 46.626 48.0042 46.1576C48.3746 45.6892 48.5447 45.0933 48.4773 44.5C48.5447 43.9067 48.3746 43.3108 48.0042 42.8424C47.6338 42.374 47.0932 42.0712 46.5003 42ZM1.59032 14.114C1.53061 14.4056 1.50046 14.7024 1.50032 15C1.50165 16.3257 2.02885 17.5967 2.96625 18.5341C3.90364 19.4715 5.17465 19.9987 6.50032 20C6.76554 20 7.01989 19.8947 7.20743 19.7071C7.39496 19.5196 7.50032 19.2652 7.50032 19C7.50032 18.4696 7.71104 17.9609 8.08611 17.5858C8.46118 17.2107 8.96989 17 9.50032 17C9.76554 17 10.0199 16.8947 10.2074 16.7071C10.395 16.5196 10.5003 16.2652 10.5003 16C10.5003 15.4696 10.711 14.9609 11.0861 14.5858C11.4612 14.2107 11.9699 14 12.5003 14C13.0308 14 13.5395 14.2107 13.9145 14.5858C14.2896 14.9609 14.5003 15.4696 14.5003 16C14.5003 16.2652 14.6057 16.5196 14.7932 16.7071C14.9808 16.8947 15.2351 17 15.5003 17C15.8039 17.0011 16.1033 17.071 16.376 17.2046C16.6486 17.3382 16.8874 17.5319 17.0743 17.7712C17.2611 18.0105 17.3913 18.289 17.4549 18.5859C17.5185 18.8828 17.5138 19.1902 17.4413 19.485C17.3885 19.7007 17.4089 19.9279 17.4994 20.1307C17.59 20.3335 17.7454 20.5004 17.9413 20.605C18.0865 20.6851 18.2496 20.7271 18.4153 20.727C18.5533 20.7268 18.6897 20.6982 18.8162 20.6429C18.9426 20.5877 19.0564 20.5071 19.1503 20.406C19.2972 20.2483 19.4338 20.0812 19.5593 19.906C20.4756 20.0856 21.4239 20.0019 22.2945 19.6646C23.1651 19.3273 23.9223 18.7501 24.4783 18H24.5003C25.5754 17.9978 26.6207 17.6469 27.4793 17H27.5003C28.4723 16.9989 29.4228 16.7146 30.2357 16.1818C31.0486 15.649 31.6885 14.8908 32.0773 14H43.4003C44.4775 14.0032 45.5098 14.4312 46.2733 15.191C46.8464 15.7665 47.5278 16.2227 48.2782 16.5332C49.0287 16.8437 49.8332 17.0023 50.6453 17C51.2963 17.0007 51.928 16.7789 52.4357 16.3714C52.9434 15.9638 53.2965 15.395 53.4366 14.7593C53.5766 14.1235 53.4952 13.459 53.2058 12.8758C52.9164 12.2927 52.4364 11.8259 51.8453 11.553C51.7417 11.5025 51.6544 11.4239 51.5934 11.3261C51.5324 11.2283 51.5001 11.1153 51.5003 11C51.506 10.8709 51.549 10.7461 51.624 10.6409C51.6991 10.5357 51.8031 10.4544 51.9233 10.407C52.4987 10.1195 52.96 9.64611 53.2326 9.06356C53.5052 8.481 53.573 7.82346 53.4251 7.19753C53.2771 6.57161 52.9221 6.014 52.4175 5.61513C51.913 5.21626 51.2885 4.99951 50.6453 5.00002C49.8333 4.99789 49.0289 5.15676 48.2786 5.46744C47.5284 5.77811 46.8471 6.23444 46.2743 6.81002C45.8979 7.18871 45.45 7.4889 44.9566 7.69317C44.4633 7.89745 43.9343 8.00175 43.4003 8.00002H32.0753C31.6867 7.10953 31.047 6.35157 30.2345 5.81879C29.422 5.28601 28.4719 5.00149 27.5003 5.00002H27.4783C26.6199 4.35335 25.575 4.00247 24.5003 4.00002H24.4793C23.9221 3.25104 23.1642 2.67512 22.2934 2.33888C21.4225 2.00264 20.4743 1.91983 19.5583 2.10002C19.1006 1.44947 18.4928 0.918909 17.7864 0.553333C17.0799 0.187756 16.2957 -0.00204875 15.5003 1.66778e-05C14.6203 -0.000790027 13.7564 0.236602 13.0003 0.687017C12.2443 0.236602 11.3804 -0.000790027 10.5003 1.66778e-05C9.72751 0.00249714 8.96583 0.184444 8.27533 0.531515C7.58484 0.878587 6.98439 1.3813 6.52132 2.00002H6.50032C5.17424 2.00002 3.90247 2.5268 2.96479 3.46448C2.02711 4.40216 1.50032 5.67393 1.50032 7.00002C1.50091 7.29732 1.53139 7.59381 1.59132 7.88502C0.884947 8.7696 0.500198 9.868 0.500198 11C0.500198 12.132 0.884947 13.2304 1.59132 14.115L1.59032 14.114ZM43.4003 10C44.1969 10.0021 44.986 9.84638 45.722 9.54171C46.458 9.23704 47.1263 8.78952 47.6883 8.22502C48.0756 7.83534 48.5364 7.52641 49.044 7.31613C49.5516 7.10585 50.0959 6.9984 50.6453 7.00002C50.8717 7.00002 51.0889 7.08982 51.2492 7.24973C51.4095 7.40964 51.4998 7.6266 51.5003 7.85302C51.4959 8.02555 51.4413 8.19307 51.3433 8.33513C51.2453 8.47719 51.1081 8.58765 50.9483 8.65302C50.5117 8.86973 50.1445 9.20452 49.8886 9.61938C49.6326 10.0342 49.4981 10.5126 49.5003 11C49.5031 11.5012 49.6483 11.9912 49.9191 12.4129C50.1898 12.8347 50.5748 13.1708 51.0293 13.382C51.1715 13.4522 51.2911 13.561 51.3744 13.6959C51.4577 13.8308 51.5013 13.9865 51.5003 14.145C51.5001 14.3712 51.4101 14.588 51.2502 14.7479C51.0903 14.9078 50.8735 14.9978 50.6473 14.998C50.0982 14.9995 49.5542 14.892 49.0468 14.6819C48.5394 14.4718 48.0787 14.1633 47.6913 13.774C46.5503 12.6408 45.0084 12.0033 43.4003 12H32.5003C32.4989 11.6636 32.4613 11.3284 32.3883 11C32.4612 10.6716 32.4988 10.3364 32.5003 10H43.4003ZM3.39232 8.86702C3.52156 8.73916 3.61349 8.5785 3.65825 8.4023C3.703 8.22611 3.69888 8.04104 3.64632 7.86702C3.55406 7.58707 3.50483 7.29474 3.50032 7.00002C3.50032 6.20437 3.81639 5.44131 4.379 4.8787C4.94161 4.31609 5.70467 4.00002 6.50032 4.00002C6.59723 4.00342 6.69378 4.01344 6.78932 4.03002L6.88932 4.04402C7.08708 4.07228 7.28875 4.03956 7.46742 3.95022C7.6461 3.86089 7.79328 3.71918 7.88932 3.54402C8.14807 3.07786 8.52638 2.68908 8.9853 2.41771C9.44422 2.14633 9.96717 2.00215 10.5003 2.00002C11.1838 2.00301 11.845 2.24299 12.3713 2.67902C12.5492 2.82278 12.7711 2.90121 12.9998 2.90121C13.2286 2.90121 13.4504 2.82278 13.6283 2.67902C13.9758 2.39112 14.3847 2.18662 14.8234 2.08117C15.2622 1.97573 15.7193 1.97215 16.1597 2.07071C16.6001 2.16927 17.0121 2.36736 17.364 2.64978C17.716 2.93219 17.9987 3.29145 18.1903 3.70002C18.2991 3.92472 18.4879 4.10061 18.7198 4.19314C18.9517 4.28566 19.2097 4.28811 19.4433 4.20002C20.1116 3.9387 20.8524 3.93091 21.5261 4.17812C22.1997 4.42533 22.7597 4.91045 23.1003 5.54202C23.1982 5.71548 23.3458 5.85574 23.5239 5.94482C23.7021 6.03391 23.9028 6.06775 24.1003 6.04202L24.2003 6.02702C24.612 5.98148 25.0288 6.02468 25.4224 6.15371C25.816 6.28273 26.1774 6.49459 26.4823 6.77502C26.5845 6.86578 26.7039 6.93497 26.8335 6.97844C26.9631 7.02192 27.1001 7.03878 27.2363 7.02802L27.5003 7.00002C28.296 7.00002 29.059 7.31609 29.6216 7.8787C30.1842 8.44131 30.5003 9.20437 30.5003 10C30.4964 10.2533 30.4601 10.505 30.3923 10.749C30.3503 10.913 30.3503 11.085 30.3923 11.249C30.5168 11.696 30.5342 12.166 30.443 12.621C30.3518 13.0759 30.1546 13.503 29.8674 13.8674C29.5802 14.2318 29.2111 14.5234 28.7901 14.7185C28.3691 14.9135 27.908 15.0066 27.4443 14.99H27.4263C27.3646 14.9813 27.3025 14.9747 27.2403 14.97C26.9681 14.9533 26.7002 15.0441 26.4943 15.223C25.9486 15.7197 25.2382 15.9966 24.5003 16C24.3689 15.9934 24.238 15.9787 24.1083 15.956C23.9108 15.9303 23.7101 15.9641 23.5319 16.0532C23.3538 16.1423 23.2062 16.2826 23.1083 16.456C22.7668 17.0872 22.2064 17.5718 21.5325 17.8186C20.8586 18.0654 20.1177 18.0574 19.4493 17.796C19.4029 17.7777 19.3551 17.7634 19.3063 17.753C19.0906 17.0984 18.7099 16.5105 18.2009 16.0458C17.6919 15.5811 17.0718 15.2554 16.4003 15.1C16.1969 14.2187 15.7008 13.4324 14.9929 12.8693C14.2851 12.3063 13.4073 11.9997 12.5028 11.9997C11.5983 11.9997 10.7206 12.3063 10.0127 12.8693C9.30488 13.4324 8.80876 14.2187 8.60532 15.1C7.91267 15.2609 7.27519 15.6029 6.7581 16.091C6.241 16.5791 5.86284 17.1958 5.66232 17.878C5.03955 17.696 4.49242 17.3173 4.10272 16.7986C3.71302 16.2798 3.50169 15.6488 3.50032 15C3.50535 14.7059 3.55491 14.4143 3.64732 14.135C3.69988 13.961 3.704 13.7759 3.65925 13.5997C3.61449 13.4235 3.52256 13.2629 3.39332 13.135C3.11056 12.8566 2.88601 12.5247 2.73273 12.1587C2.57946 11.7927 2.50052 11.3998 2.50052 11.003C2.50052 10.6062 2.57946 10.2133 2.73273 9.84732C2.88601 9.4813 3.11056 9.14943 3.39332 8.87102L3.39232 8.86702ZM27.5003 26C27.5003 26.7957 27.8164 27.5587 28.379 28.1213C28.9416 28.6839 29.7047 29 30.5003 29H32.5003C33.1533 29.0014 33.7888 28.7892 34.3099 28.3957C34.8309 28.0022 35.209 27.449 35.3863 26.8206C35.5636 26.1922 35.5305 25.523 35.292 24.9151C35.0535 24.3073 34.6227 23.7942 34.0653 23.454L35.3313 21.554L33.6663 20.445L31.9643 23H31.0353L29.3353 20.444L27.6703 21.555L28.9363 23.455C28.4994 23.7211 28.138 24.0948 27.8866 24.5404C27.6352 24.9859 27.5022 25.4884 27.5003 26ZM32.5003 27H30.5003C30.2351 27 29.9807 26.8947 29.7932 26.7071C29.6057 26.5196 29.5003 26.2652 29.5003 26C29.5003 25.7348 29.6057 25.4804 29.7932 25.2929C29.9807 25.1054 30.2351 25 30.5003 25H32.5003C32.7655 25 33.0199 25.1054 33.2074 25.2929C33.395 25.4804 33.5003 25.7348 33.5003 26C33.5003 26.2652 33.395 26.5196 33.2074 26.7071C33.0199 26.8947 32.7655 27 32.5003 27ZM10.0653 53.452L11.3313 51.552L9.66632 50.443L7.96432 53H7.03532L5.33532 50.444L3.66632 51.554L4.93232 53.454C4.37472 53.7943 3.94379 54.3077 3.70534 54.9158C3.46689 55.524 3.43401 56.1935 3.61173 56.822C3.78945 57.4506 4.16799 58.0038 4.68957 58.397C5.21115 58.7903 5.8471 59.0021 6.50032 59H8.50032C9.15329 59.0014 9.78878 58.7892 10.3099 58.3957C10.8309 58.0022 11.209 57.449 11.3863 56.8206C11.5636 56.1922 11.5305 55.523 11.292 54.9151C11.0535 54.3073 10.6227 53.7942 10.0653 53.454V53.452ZM8.50032 57H6.50032C6.23511 57 5.98075 56.8947 5.79321 56.7071C5.60568 56.5196 5.50032 56.2652 5.50032 56C5.50032 55.7348 5.60568 55.4804 5.79321 55.2929C5.98075 55.1054 6.23511 55 6.50032 55H8.50032C8.76554 55 9.01989 55.1054 9.20743 55.2929C9.39496 55.4804 9.50032 55.7348 9.50032 56C9.50032 56.2652 9.39496 56.5196 9.20743 56.7071C9.01989 56.8947 8.76554 57 8.50032 57ZM54.5003 18C54.5003 18.7957 54.8164 19.5587 55.379 20.1213C55.9416 20.6839 56.7047 21 57.5003 21H59.5003C60.1533 21.0014 60.7888 20.7892 61.3099 20.3957C61.8309 20.0022 62.209 19.449 62.3863 18.8206C62.5636 18.1922 62.5305 17.523 62.292 16.9151C62.0535 16.3073 61.6227 15.7942 61.0653 15.454L62.3313 13.554L60.6663 12.445L58.9643 15H58.0353L56.3353 12.444L54.6703 13.555L55.9363 15.455C55.4994 15.7211 55.138 16.0948 54.8866 16.5404C54.6352 16.9859 54.5022 17.4884 54.5003 18ZM59.5003 19H57.5003C57.2351 19 56.9807 18.8947 56.7932 18.7071C56.6057 18.5196 56.5003 18.2652 56.5003 18C56.5003 17.7348 56.6057 17.4804 56.7932 17.2929C56.9807 17.1054 57.2351 17 57.5003 17H59.5003C59.7655 17 60.0199 17.1054 60.2074 17.2929C60.395 17.4804 60.5003 17.7348 60.5003 18C60.5003 18.2652 60.395 18.5196 60.2074 18.7071C60.0199 18.8947 59.7655 19 59.5003 19Z" fill="#013216"/>
</g>
<defs>
<linearGradient id="paint0_linear_2246_5711" x1="46.5432" y1="43.3393" x2="46.5432" y2="19.4732" gradientUnits="userSpaceOnUse">
<stop stop-color="#03B04E"/>
<stop offset="1" stop-color="#02C320"/>
</linearGradient>
<linearGradient id="paint1_linear_2246_5711" x1="46.5346" y1="64.0357" x2="46.5346" y2="42.3393" gradientUnits="userSpaceOnUse">
<stop stop-color="#03B04E"/>
<stop offset="1" stop-color="#02C320"/>
</linearGradient>
<linearGradient id="paint2_linear_2246_5711" x1="40.6262" y1="70.7143" x2="40.6263" y2="1.28572" gradientUnits="userSpaceOnUse">
<stop stop-color="#03B04E"/>
<stop offset="1" stop-color="#02C320"/>
</linearGradient>
</defs>
</svg>
