<svg width="65" height="64" viewBox="0 0 65 64" fill="none" xmlns="http://www.w3.org/2000/svg">
<g id="Group">
<path id="Vector" d="M29.018 44.3481C28.7823 44.3481 28.5492 44.2978 28.3337 44.2005C27.4731 43.8139 27.0821 42.7878 27.4605 41.9085L33.8935 26.9563H27.1371C26.1972 26.9563 25.435 26.1775 25.435 25.2172C25.435 24.2568 26.1972 23.478 27.1371 23.478H36.5012C36.7842 23.478 37.0627 23.5502 37.3116 23.6878C37.5604 23.8255 37.7718 24.0244 37.9264 24.2666C38.0811 24.5087 38.1743 24.7864 38.1975 25.0746C38.2207 25.3627 38.1732 25.6523 38.0593 25.917L30.5769 43.3083C30.444 43.6176 30.2257 43.8806 29.9489 44.0652C29.672 44.2499 29.3486 44.3482 29.018 44.3481Z" fill="#013216"/>
<path id="Vector_2" d="M36.5012 23.478H31.8192V26.9563H33.8937L31.8192 31.778V40.4212L38.0593 25.9172C38.1732 25.6524 38.2208 25.3629 38.1976 25.0747C38.1744 24.7865 38.0812 24.5088 37.9265 24.2666C37.7719 24.0244 37.5605 23.8255 37.3116 23.6878C37.0628 23.5501 36.7842 23.478 36.5012 23.478Z" fill="#0F2418"/>
<path id="Vector_3" d="M25.1141 52.2853L18.9121 45.9469C17.9151 44.9281 16.2986 44.9279 15.3014 45.9465C14.3041 46.9651 14.3039 48.6168 15.3009 49.6357L17.1454 51.521H11.1686C9.33217 51.521 7.68945 50.558 6.76332 48.9422C5.81455 47.2867 5.86664 45.2227 6.81864 43.5691L12.7431 33.2783C13.458 32.0364 13.0523 30.4376 11.8369 29.7072C10.6214 28.9768 9.05659 29.3914 8.3417 30.6331L2.36587 41.0131C0.485021 44.2797 0.461532 48.1943 2.3034 51.4843C4.14494 54.7743 7.45915 56.7385 11.1686 56.7385H17.1454L15.3009 58.6237C14.3039 59.6425 14.3041 61.2943 15.3014 62.313C16.2986 63.3316 17.9151 63.3314 18.9121 62.3124L25.1141 55.9742C26.1109 54.9554 26.1109 53.3039 25.1141 52.2853Z" fill="#8AEB99"/>
<path id="Vector_4" d="M62.2307 31.8257L53.7749 29.4414C52.4159 29.0581 51.01 29.8729 50.6347 31.2616L48.2992 39.9007C47.9237 41.2894 48.7213 42.7263 50.0804 43.1097C51.4396 43.4934 52.8457 42.6786 53.2212 41.2897L53.9518 38.5878L56.8711 43.6586C57.8202 45.3071 57.8232 47.2856 56.8764 48.9398C55.9472 50.5635 54.2055 51.5212 52.3645 51.5212H40.3298C38.9198 51.5212 37.7766 52.6892 37.7766 54.1299C37.7766 55.5706 38.9198 56.7386 40.3298 56.7386H52.4695C56.179 56.7386 59.4932 54.7744 61.3347 51.4843C63.1764 48.1944 63.1531 44.2798 61.2723 41.0132L58.492 36.1838L60.8724 36.8549C62.2318 37.2383 63.6377 36.4231 64.0129 35.0343C64.3878 33.6456 63.5901 32.209 62.2307 31.8257Z" fill="url(#paint0_linear_2246_7418)"/>
<path id="Vector_5" d="M46.7858 15.8506L40.6219 5.14417C38.7674 1.92313 35.4767 0 31.8192 0C28.1616 0 24.8709 1.92313 23.0164 5.14417L19.8362 10.668L19.019 7.83878C18.6198 6.45687 17.1999 5.6673 15.8474 6.07513C14.4951 6.48296 13.7223 7.93356 14.1215 9.3153L16.6043 17.9115C17.0033 19.293 18.4229 20.0826 19.7752 19.6753L28.189 17.1407C29.5415 16.7332 30.3148 15.2826 29.916 13.9007C29.5172 12.5188 28.0975 11.7289 26.7449 12.1362L24.5312 12.8031L27.4176 7.78939C28.3451 6.17896 29.9904 5.21739 31.8192 5.21739C33.6479 5.21739 35.2932 6.17896 36.2205 7.78957L42.3844 18.4958C43.0993 19.7376 44.6643 20.1522 45.8796 19.4216C47.0951 18.6911 47.5007 17.0923 46.7858 15.8506Z" fill="#8AEB99"/>
<path id="Vector_6" d="M36.2205 7.78957L42.3844 18.4958C43.0993 19.7376 44.6643 20.1522 45.8796 19.4216C47.0949 18.6911 47.5007 17.0922 46.7856 15.8504L40.6217 5.144C38.7674 1.92313 35.4767 0 31.8192 0V5.21739C33.6479 5.21739 35.2932 6.17896 36.2205 7.78957Z" fill="url(#paint1_linear_2246_7418)"/>
</g>
<defs>
<linearGradient id="paint0_linear_2246_7418" x1="50.979" y1="65.054" x2="50.979" y2="5.62332" gradientUnits="userSpaceOnUse">
<stop stop-color="#03B04E"/>
<stop offset="1" stop-color="#02C320"/>
</linearGradient>
<linearGradient id="paint1_linear_2246_7418" x1="39.501" y1="25.7875" x2="39.501" y2="-17.1328" gradientUnits="userSpaceOnUse">
<stop stop-color="#03B04E"/>
<stop offset="1" stop-color="#02C320"/>
</linearGradient>
</defs>
</svg>
