<svg width="20" height="20" viewBox="0 0 20 20" fill="none" xmlns="http://www.w3.org/2000/svg">
<g id="Phone_Icon" clip-path="url(#clip0_2846_15293)">
<path id="Vector" d="M1.525 1.51654L2.4 0.758203C3.40833 -0.25013 5.04166 -0.25013 6.05 0.758203C6.075 0.783203 7.61666 2.79154 7.61666 2.79154C8.56666 3.79154 8.56666 5.36654 7.61666 6.3582L6.65 7.57487C7.86666 10.3332 9.75833 12.2332 12.425 13.3665L13.6417 12.3915C14.6333 11.4332 16.2167 11.4332 17.2083 12.3915C17.2083 12.3915 19.2167 13.9332 19.2417 13.9582C20.25 14.9665 20.25 16.5999 19.2833 17.5665L18.45 18.5249C17.4917 19.4832 16.2 20.0082 14.8 20.0082C8.43333 20.0082 -3.8147e-06 11.5665 -3.8147e-06 5.2082C-3.8147e-06 3.81654 0.524996 2.51654 1.525 1.52487V1.51654ZM14.8 18.3332C15.75 18.3332 16.625 17.9832 17.225 17.3749L18.0583 16.4165C18.4 16.0749 18.4167 15.5165 18.0917 15.1582C18.0917 15.1582 16.1 13.6249 16.075 13.5999C15.7333 13.2582 15.1333 13.2582 14.7833 13.5999C14.7583 13.6249 13.0833 14.9665 13.0833 14.9665C12.85 15.1499 12.5417 15.1999 12.2667 15.0915C8.81666 13.7749 6.34166 11.3082 4.91666 7.74987C4.80833 7.47487 4.85 7.1582 5.04166 6.91654C5.04166 6.91654 6.38333 5.2332 6.4 5.21654C6.75833 4.8582 6.75833 4.2832 6.4 3.92487C6.375 3.89987 4.84166 1.9082 4.84166 1.9082C4.48333 1.5832 3.925 1.59154 3.54166 1.97487L2.66666 2.7332C2.025 3.37487 1.66666 4.24987 1.66666 5.19987C1.66666 10.9999 9.80833 18.3332 14.8 18.3332Z" fill="url(#paint0_linear_2846_15293)"/>
</g>
<defs>
<linearGradient id="paint0_linear_2846_15293" x1="9.97278" y1="26.0815" x2="9.97276" y2="-17.3249" gradientUnits="userSpaceOnUse">
<stop stop-color="#03B04E"/>
<stop offset="1" stop-color="#02C320"/>
</linearGradient>
<clipPath id="clip0_2846_15293">
<rect width="20" height="20" fill="white" transform="matrix(-1 0 0 1 20 0)"/>
</clipPath>
</defs>
</svg>
