<svg width="17" height="16" viewBox="0 0 17 16" fill="none" xmlns="http://www.w3.org/2000/svg">
<g id="Play_Video_Icon" clip-path="url(#clip0_1980_28782)">
<path id="Vector" d="M11.18 6.748L7.71867 4.85267C7.27 4.6 6.73667 4.60467 6.29333 4.864C5.84867 5.124 5.584 5.586 5.584 6.10067V9.9C5.584 10.4147 5.84867 10.8767 6.29333 11.1367C6.52 11.2693 6.76933 11.3347 7.018 11.3347C7.25667 11.3347 7.49533 11.274 7.712 11.152L11.1867 9.24933C11.6447 8.992 11.9173 8.52533 11.9173 8.00067C11.9173 7.476 11.6447 7.00933 11.1807 6.74867L11.18 6.748ZM10.5393 8.08333L7.06467 9.98667C7.052 9.99333 7.01333 10.0147 6.96667 9.986C6.91733 9.95733 6.91733 9.91467 6.91733 9.90067V6.10133C6.91733 6.08733 6.91733 6.04467 6.96667 6.016C6.98467 6.00533 7.00133 6.002 7.016 6.002C7.04 6.002 7.05933 6.01267 7.07133 6.01933L10.5327 7.91533C10.5453 7.92267 10.5833 7.944 10.5833 8.002C10.5833 8.06 10.5447 8.08133 10.5393 8.08533V8.08333ZM8.25 0C3.83867 0 0.25 3.58867 0.25 8C0.25 12.4113 3.83867 16 8.25 16C12.6613 16 16.25 12.4113 16.25 8C16.25 3.58867 12.6613 0 8.25 0ZM8.25 14.6667C4.574 14.6667 1.58333 11.676 1.58333 8C1.58333 4.324 4.574 1.33333 8.25 1.33333C11.926 1.33333 14.9167 4.324 14.9167 8C14.9167 11.676 11.926 14.6667 8.25 14.6667Z" fill="white"/>
</g>
<defs>
<clipPath id="clip0_1980_28782">
<rect width="16" height="16" fill="white" transform="translate(0.25)"/>
</clipPath>
</defs>
</svg>
