<svg width="20" height="21" viewBox="0 0 20 21" fill="none" xmlns="http://www.w3.org/2000/svg">
<g id="Point_Icon" clip-path="url(#clip0_1369_9719)">
<path id="Vector" d="M5.83333 8.83333C2.6175 8.83333 0 11.45 0 14.6667C0 17.8833 2.6175 20.5 5.83333 20.5C9.04917 20.5 11.6667 17.8833 11.6667 14.6667C11.6667 11.45 9.04917 8.83333 5.83333 8.83333ZM5.83333 18.8333C3.53583 18.8333 1.66667 16.9642 1.66667 14.6667C1.66667 12.3692 3.53583 10.5 5.83333 10.5C8.13083 10.5 10 12.3692 10 14.6667C10 16.9642 8.13083 18.8333 5.83333 18.8333ZM8.11833 13.4175C8.25833 13.5575 8.3325 13.745 8.3325 13.935C8.3325 14.0292 8.315 14.1242 8.27667 14.215C8.16333 14.4883 7.89667 14.6658 7.6 14.6658H6.66583V16.3325C6.66583 16.7925 6.29333 17.1658 5.8325 17.1658C5.37167 17.1658 4.99917 16.7925 4.99917 16.3325V14.6658H4.065C3.76917 14.6658 3.50167 14.4883 3.38833 14.215C3.27333 13.9408 3.33667 13.6267 3.54667 13.4167L4.79667 12.1667C5.3675 11.5958 6.29667 11.5958 6.8675 12.1667L8.1175 13.4167L8.11833 13.4175ZM13.75 0.5C10.1875 0.5 7.5 1.93333 7.5 3.83333V6.75C7.5 7.21 7.8725 7.58333 8.33333 7.58333C8.79417 7.58333 9.16667 7.21 9.16667 6.75V6.145C10.2908 6.78083 11.9025 7.16667 13.75 7.16667C15.5975 7.16667 17.2092 6.78083 18.3333 6.145V7.16667C18.3333 7.83 16.5058 8.83333 13.75 8.83333C13.2217 8.83333 12.7025 8.79583 12.2058 8.72167C11.7517 8.6575 11.3267 8.96833 11.2583 9.42333C11.1908 9.87833 11.505 10.3025 11.96 10.3708C12.5375 10.4567 13.14 10.5 13.7492 10.5C15.5967 10.5 17.2083 10.1142 18.3325 9.47833V10.5C18.3325 11.1633 16.505 12.1667 13.7492 12.1667C13.2883 12.1667 12.9158 12.54 12.9158 13C12.9158 13.46 13.2883 13.8333 13.7492 13.8333C15.5967 13.8333 17.2083 13.4475 18.3325 12.8117V13.8333C18.3325 14.4967 16.505 15.5 13.7492 15.5C13.2883 15.5 12.9158 15.8733 12.9158 16.3333C12.9158 16.7933 13.2883 17.1667 13.7492 17.1667C15.5967 17.1667 17.2083 16.7808 18.3325 16.145V17.1667C18.3325 17.83 16.505 18.8333 13.7492 18.8333C13.3575 18.8333 12.9675 18.8125 12.5883 18.7717C12.1375 18.72 11.72 19.0525 11.67 19.51C11.62 19.9675 11.9508 20.3783 12.4092 20.4283C12.8458 20.4758 13.2967 20.5 13.7483 20.5C17.3108 20.5 19.9983 19.0667 19.9983 17.1667V3.83333C19.9983 1.93333 17.3108 0.5 13.7483 0.5H13.75ZM13.75 5.5C10.9942 5.5 9.16667 4.49667 9.16667 3.83333C9.16667 3.17 10.9942 2.16667 13.75 2.16667C16.5058 2.16667 18.3333 3.17 18.3333 3.83333C18.3333 4.49667 16.5058 5.5 13.75 5.5Z" fill="#013216"/>
</g>
<defs>
<clipPath id="clip0_1369_9719">
<rect width="20" height="20" fill="white" transform="translate(0 0.5)"/>
</clipPath>
</defs>
</svg>
