<svg width="25" height="24" viewBox="0 0 25 24" fill="none" xmlns="http://www.w3.org/2000/svg">
<g id="Profile_Icon" clip-path="url(#clip0_1537_379)">
<g id="01 align center">
<path id="Vector" d="M21.3 24H19.3V18.957C19.2993 18.173 18.9875 17.4213 18.4331 16.867C17.8787 16.3126 17.127 16.0008 16.343 16H8.25705C7.47305 16.0008 6.72138 16.3126 6.16701 16.867C5.61264 17.4213 5.30084 18.173 5.30005 18.957V24H3.30005V18.957C3.30164 17.6428 3.8244 16.3829 4.75367 15.4536C5.68295 14.5244 6.94286 14.0016 8.25705 14H16.343C17.6572 14.0016 18.9172 14.5244 19.8464 15.4536C20.7757 16.3829 21.2985 17.6428 21.3 18.957V24Z" fill="url(#paint0_linear_1537_379)"/>
<path id="Vector_2" d="M12.3001 12C11.1134 12 9.95332 11.6481 8.96663 10.9888C7.97994 10.3295 7.2109 9.39246 6.75677 8.2961C6.30265 7.19975 6.18383 5.99335 6.41534 4.82946C6.64685 3.66558 7.2183 2.59648 8.05741 1.75736C8.89653 0.918247 9.96562 0.346802 11.1295 0.115291C12.2934 -0.11622 13.4998 0.00259972 14.5962 0.456726C15.6925 0.910851 16.6296 1.67989 17.2889 2.66658C17.9482 3.65328 18.3001 4.81331 18.3001 6C18.2985 7.59081 17.6658 9.11602 16.5409 10.2409C15.4161 11.3658 13.8909 11.9984 12.3001 12ZM12.3001 2C11.5089 2 10.7356 2.2346 10.0778 2.67412C9.41997 3.11365 8.90728 3.73836 8.60453 4.46927C8.30178 5.20017 8.22257 6.00444 8.37691 6.78036C8.53125 7.55629 8.91221 8.26902 9.47162 8.82843C10.031 9.38784 10.7438 9.7688 11.5197 9.92314C12.2956 10.0775 13.0999 9.99827 13.8308 9.69552C14.5617 9.39277 15.1864 8.88008 15.6259 8.22228C16.0655 7.56449 16.3001 6.79113 16.3001 6C16.3001 4.93914 15.8786 3.92172 15.1285 3.17158C14.3783 2.42143 13.3609 2 12.3001 2Z" fill="url(#paint1_linear_1537_379)"/>
</g>
</g>
<defs>
<linearGradient id="paint0_linear_1537_379" x1="12.326" y1="27.0357" x2="12.326" y2="5.33929" gradientUnits="userSpaceOnUse">
<stop stop-color="#03B04E"/>
<stop offset="1" stop-color="#02C320"/>
</linearGradient>
<linearGradient id="paint1_linear_1537_379" x1="12.3173" y1="15.6429" x2="12.3173" y2="-10.3929" gradientUnits="userSpaceOnUse">
<stop stop-color="#03B04E"/>
<stop offset="1" stop-color="#02C320"/>
</linearGradient>
<clipPath id="clip0_1537_379">
<rect width="24" height="24" fill="white" transform="translate(0.300049)"/>
</clipPath>
</defs>
</svg>
