<svg width="20" height="21" viewBox="0 0 20 21" fill="none" xmlns="http://www.w3.org/2000/svg">
<g id="Rate_Icon" clip-path="url(#clip0_1369_9742)">
<path id="Vector" d="M10.0083 20.225C9.60833 20.225 9.20833 20.0833 8.89167 19.8L5.76667 17.1667H3.33333C1.49167 17.1667 0 15.675 0 13.8333V3.83333C0 1.99167 1.49167 0.5 3.33333 0.5H16.6667C18.5083 0.5 20 1.99167 20 3.83333V13.8333C20 15.675 18.5083 17.1667 16.6667 17.1667H14.2917L11.0833 19.8167C10.7833 20.0833 10.3917 20.225 10.0083 20.225ZM3.33333 2.16667C2.41667 2.16667 1.66667 2.91667 1.66667 3.83333V13.8333C1.66667 14.75 2.41667 15.5 3.33333 15.5H6.075C6.275 15.5 6.45833 15.5667 6.60833 15.7L9.98333 18.5417L13.4583 15.6917C13.6083 15.5667 13.7917 15.5 13.9917 15.5H16.6667C17.5833 15.5 18.3333 14.75 18.3333 13.8333V3.83333C18.3333 2.91667 17.5833 2.16667 16.6667 2.16667H3.33333ZM7.50833 13.2917C7.35 13.2917 7.18333 13.2417 7.05 13.1417C6.79167 12.95 6.68333 12.6083 6.78333 12.3L7.5 10L5.68333 8.525C5.44167 8.31667 5.35 7.98333 5.45833 7.68333C5.56667 7.38333 5.85833 7.18333 6.175 7.18333H8.46667L9.275 5.00833C9.38333 4.70833 9.675 4.50833 9.99167 4.50833C10.3083 4.50833 10.6 4.70833 10.7083 5.00833L11.5167 7.18333H13.8083C14.125 7.18333 14.4167 7.38333 14.525 7.68333C14.6333 7.98333 14.5417 8.325 14.3 8.53333L12.4917 10.0083L13.2417 12.2833C13.3417 12.5917 13.2417 12.9333 12.9833 13.125C12.725 13.325 12.375 13.3333 12.1 13.1583L10 11.7917L7.93333 13.175C7.80833 13.2583 7.65833 13.3 7.50833 13.3V13.2917Z" fill="#013216"/>
</g>
<defs>
<clipPath id="clip0_1369_9742">
<rect width="20" height="20" fill="white" transform="translate(0 0.5)"/>
</clipPath>
</defs>
</svg>
