<svg width="24" height="24" viewBox="0 0 24 24" fill="none" xmlns="http://www.w3.org/2000/svg">
<g id="Recycling_Icon" clip-path="url(#clip0_1515_45198)">
<path id="Vector" d="M10.357 2.92104L8.94097 5.22104C8.79513 5.43126 8.57425 5.57758 8.3238 5.62989C8.07335 5.6822 7.81238 5.63652 7.59458 5.50226C7.37679 5.36799 7.21874 5.15535 7.15296 4.9081C7.08718 4.66084 7.11868 4.39778 7.24097 4.17304L8.65697 1.87304C9.01205 1.30605 9.50539 0.838596 10.0907 0.514553C10.676 0.190509 11.334 0.0205078 12.003 0.0205078C12.672 0.0205078 13.33 0.190509 13.9153 0.514553C14.5006 0.838596 14.9939 1.30605 15.349 1.87304L19.549 8.70704L19.99 6.34204C20.0385 6.0812 20.1887 5.85032 20.4074 5.7002C20.6262 5.55008 20.8956 5.49301 21.1565 5.54154C21.4173 5.59008 21.6482 5.74024 21.7983 5.959C21.9484 6.17776 22.0055 6.4472 21.957 6.70804L21.457 9.37804C21.329 10.0654 20.965 10.6865 20.4279 11.134C19.8907 11.5815 19.2141 11.8273 18.515 11.829C18.32 11.829 15.298 11.253 15.298 11.253C15.0421 11.1974 14.8183 11.0437 14.6746 10.8249C14.5308 10.6061 14.4786 10.3397 14.5292 10.0828C14.5797 9.82594 14.729 9.59913 14.9449 9.45109C15.1608 9.30305 15.4262 9.24559 15.684 9.29104L17.817 9.71204L13.643 2.92104C13.4694 2.64157 13.2275 2.41098 12.94 2.25109C12.6525 2.0912 12.3289 2.00729 12 2.00729C11.671 2.00729 11.3475 2.0912 11.06 2.25109C10.7725 2.41098 10.5305 2.64157 10.357 2.92104ZM23.409 14.98L22.441 13.408C22.376 13.2887 22.2874 13.1838 22.1806 13.0999C22.0738 13.0159 21.951 12.9546 21.8197 12.9196C21.6884 12.8847 21.5513 12.8769 21.4169 12.8967C21.2825 12.9165 21.1535 12.9635 21.0378 13.0348C20.9222 13.1061 20.8222 13.2002 20.7442 13.3114C20.6661 13.4226 20.6115 13.5486 20.5837 13.6816C20.5559 13.8146 20.5556 13.9518 20.5826 14.085C20.6096 14.2182 20.6635 14.3444 20.741 14.456L21.709 16.028C21.8936 16.3237 21.9949 16.6639 22.0021 17.0124C22.0094 17.3609 21.9222 17.705 21.75 18.008C21.5843 18.3103 21.3399 18.5621 21.0427 18.7368C20.7456 18.9114 20.4067 19.0024 20.062 19H12.676L13.947 17.731C14.1294 17.5427 14.2306 17.2902 14.2287 17.028C14.2268 16.7658 14.122 16.5148 13.9368 16.3292C13.7517 16.1435 13.501 16.038 13.2388 16.0353C12.9766 16.0327 12.7238 16.1331 12.535 16.315L10.843 18C10.3149 18.5251 10.0125 19.2355 9.99997 19.98C9.99997 19.98 9.99997 19.99 9.99997 19.994C9.99997 19.998 9.99997 20.007 9.99997 20.014C9.99712 20.3988 10.0713 20.7803 10.2181 21.136C10.365 21.4916 10.5815 21.8143 10.855 22.085L12.537 23.737C12.6297 23.8336 12.7408 23.9107 12.8638 23.9635C12.9868 24.0164 13.1191 24.044 13.253 24.0447C13.3869 24.0455 13.5195 24.0194 13.6431 23.9679C13.7667 23.9164 13.8787 23.8406 13.9724 23.7451C14.0662 23.6495 14.1398 23.5361 14.1889 23.4116C14.238 23.287 14.2616 23.1539 14.2583 23.0201C14.255 22.8862 14.2248 22.7544 14.1696 22.6325C14.1145 22.5105 14.0353 22.4009 13.937 22.31L12.609 21H20.062C20.7635 20.9976 21.4517 20.8083 22.0558 20.4516C22.6599 20.0949 23.1581 19.5837 23.499 18.9705C23.8399 18.3573 24.0112 17.6644 23.9954 16.9631C23.9796 16.2617 23.7772 15.5772 23.409 14.98ZM6.77997 7.21304C6.45225 6.98986 6.08333 6.83424 5.69478 6.75526C5.30622 6.67627 4.90582 6.67552 4.51697 6.75304L1.88797 7.27104C1.75701 7.29413 1.63197 7.34311 1.52016 7.41511C1.40836 7.48711 1.31203 7.58069 1.23684 7.69037C1.16164 7.80005 1.10907 7.92363 1.08221 8.05387C1.05535 8.18412 1.05473 8.31841 1.08041 8.44889C1.10608 8.57937 1.15751 8.70342 1.23171 8.81379C1.30591 8.92415 1.40137 9.0186 1.51251 9.09162C1.62366 9.16464 1.74825 9.21476 1.879 9.23904C2.00975 9.26332 2.14402 9.26128 2.27397 9.23304L4.38197 8.81804L0.590974 14.98C0.222825 15.5771 0.0204077 16.2615 0.00454931 16.9628C-0.011309 17.6641 0.159964 18.3569 0.500746 18.9701C0.841528 19.5832 1.33951 20.0944 1.94346 20.4512C2.54741 20.808 3.23551 20.9975 3.93697 21H7.07997C7.34519 21 7.59954 20.8947 7.78708 20.7071C7.97462 20.5196 8.07997 20.2653 8.07997 20C8.07997 19.7348 7.97462 19.4805 7.78708 19.2929C7.59954 19.1054 7.34519 19 7.07997 19H3.93697C3.59296 19.0017 3.25489 18.9104 2.95848 18.7358C2.66207 18.5611 2.41831 18.3097 2.25297 18.008C2.08072 17.705 1.99359 17.3609 2.00081 17.0124C2.00802 16.6639 2.10932 16.3237 2.29397 16.028L6.13197 9.79004L6.57797 12.184C6.62677 12.4449 6.77719 12.6757 6.99614 12.8256C7.21509 12.9755 7.48463 13.0323 7.74547 12.9835C8.00631 12.9347 8.23708 12.7843 8.38702 12.5654C8.53696 12.3464 8.59377 12.0769 8.54497 11.816L8.04497 9.14604C7.97312 8.75595 7.82425 8.3841 7.60705 8.05221C7.38985 7.72031 7.10868 7.43503 6.77997 7.21304Z" fill="#013216"/>
</g>
<defs>
<clipPath id="clip0_1515_45198">
<rect width="24" height="24" fill="white"/>
</clipPath>
</defs>
</svg>
