<svg width="332" height="248" viewBox="0 0 332 248" fill="none" xmlns="http://www.w3.org/2000/svg">
<g clip-path="url(#clip0_2088_14482)">
<path d="M332 217.761H0V217.927H332V217.761Z" fill="#EBEBEB"/>
<path d="M298.734 228.435H276.741V228.6H298.734V228.435Z" fill="#EBEBEB"/>
<path d="M219.93 230.234H214.158V230.4H219.93V230.234Z" fill="#EBEBEB"/>
<path d="M276.077 222.277H263.333V222.443H276.077V222.277Z" fill="#EBEBEB"/>
<path d="M63.5132 223.391H34.833V223.557H63.5132V223.391Z" fill="#EBEBEB"/>
<path d="M73.6304 223.391H69.4253V223.557H73.6304V223.391Z" fill="#EBEBEB"/>
<path d="M149.498 226.191H87.2969V226.357H149.498V226.191Z" fill="#EBEBEB"/>
<path d="M157.377 188.188H29.1597C27.0701 188.188 25.3696 186.49 25.3696 184.403V4.41633C25.3696 2.32955 27.0701 0.631348 29.1597 0.631348H157.377C159.466 0.631348 161.167 2.32955 161.167 4.41633V184.403C161.167 186.49 159.466 188.188 157.377 188.188ZM29.1597 0.797786C27.1611 0.797786 25.5356 2.42106 25.5356 4.41699V184.404C25.5356 186.4 27.1611 188.023 29.1597 188.023H157.377C159.375 188.023 161.001 186.4 161.001 184.404V4.41633C161.001 2.42106 159.375 0.797123 157.377 0.797123L29.1597 0.797786Z" fill="#EBEBEB"/>
<path d="M300.998 188.188H172.781C170.691 188.188 168.991 186.49 168.991 184.403V4.41633C168.991 2.32955 170.692 0.631348 172.781 0.631348H300.998C303.088 0.631348 304.788 2.32955 304.788 4.41633V184.403C304.788 186.49 303.088 188.188 300.998 188.188ZM172.781 0.797786C170.783 0.797786 169.157 2.42106 169.157 4.41699V184.404C169.157 186.4 170.783 188.023 172.781 188.023H300.998C302.996 188.023 304.622 186.4 304.622 184.404V4.41633C304.622 2.42106 302.996 0.797123 300.998 0.797123L172.781 0.797786Z" fill="#EBEBEB"/>
<path d="M177.807 217.761H201.114V131.073H177.807V217.761Z" fill="#E6E6E6"/>
<path d="M181.686 217.761H177.807V209.961H185.753L181.686 217.761Z" fill="#F0F0F0"/>
<path d="M272.666 217.761H295.973V131.073H272.666V217.761Z" fill="#E6E6E6"/>
<path d="M177.807 214.766H276.051V131.073H177.807V214.766Z" fill="#F0F0F0"/>
<path d="M180.816 157.734H273.042V134.782H180.816V157.734Z" fill="#E6E6E6"/>
<path d="M222.572 141.915H231.284C235.069 141.915 238.687 139.084 241.29 134.084H212.567C215.17 139.084 218.788 141.915 222.572 141.915Z" fill="#F0F0F0"/>
<path d="M272.172 217.761H276.051V209.961H268.105L272.172 217.761Z" fill="#F0F0F0"/>
<path d="M180.816 184.396H273.042V161.444H180.816V184.396Z" fill="#E6E6E6"/>
<path d="M222.572 168.576H231.284C235.069 168.576 238.687 165.745 241.29 160.746H212.567C215.17 165.745 218.788 168.576 222.572 168.576Z" fill="#F0F0F0"/>
<path d="M180.816 211.057H273.042V188.105H180.816V211.057Z" fill="#E6E6E6"/>
<path d="M222.572 195.238H231.284C235.069 195.238 238.687 192.406 241.29 187.407H212.567C215.17 192.406 218.788 195.238 222.572 195.238Z" fill="#F0F0F0"/>
<path d="M51.7904 111.414L140.793 111.414V21.4738L51.7904 21.4738L51.7904 111.414Z" fill="#E6E6E6"/>
<path d="M45.6069 111.414L139.15 111.414V21.4738L45.6069 21.4738L45.6069 111.414Z" fill="#F0F0F0"/>
<path d="M131.313 103.588V29.3L53.4437 29.3L53.4437 103.588L131.313 103.588Z" fill="white"/>
<path d="M91.8469 39.1481L77.5543 53.4214C70.3639 60.6021 70.3632 72.2866 77.5536 79.4674L91.8456 93.74C92.1391 94.033 92.6165 94.033 92.91 93.7393L107.203 79.466C114.393 72.2853 114.394 60.6008 107.203 53.4201L92.9113 39.1475C92.6178 38.855 92.1411 38.855 91.8469 39.1481ZM78.6187 78.4044C72.0152 71.8099 72.0152 61.0789 78.6187 54.4843V78.4044ZM106.139 78.4044V54.4843C112.743 61.0789 112.743 71.8092 106.139 78.4044Z" fill="#F0F0F0"/>
<path d="M270.151 100.127H220.424L217.586 129.452H267.313L270.151 100.127Z" fill="#E6E6E6"/>
<path d="M267.313 129.452L267.112 131.073H217.382L217.584 129.452H267.313Z" fill="#E6E6E6"/>
<path d="M268.621 100.127H218.894L216.056 129.452H265.783L268.621 100.127Z" fill="#F0F0F0"/>
<path d="M264.777 127.542L266.855 102.139C266.885 101.777 266.599 101.467 266.235 101.467H220.519C220.194 101.467 219.925 101.715 219.898 102.038L217.82 127.44C217.79 127.802 218.076 128.112 218.44 128.112H264.157C264.481 128.113 264.751 127.864 264.777 127.542Z" fill="white"/>
<path d="M252.825 129.452L252.625 131.073H197.865L198.066 129.452H252.825Z" fill="#F0F0F0"/>
<path d="M185.98 84.4546L279.359 84.4546V22.4639L185.98 22.4639V84.4546Z" fill="#E6E6E6"/>
<path d="M183.905 84.4546L277.284 84.4546V22.4639L183.905 22.4639V84.4546Z" fill="#F5F5F5"/>
<path d="M273.559 80.2761V26.6418L187.63 26.6418V80.2761L273.559 80.2761Z" fill="white"/>
<path d="M189.198 80.2759V26.6416H187.629V80.2759H189.198Z" fill="#E6E6E6"/>
<path d="M185.445 73.1592L275.743 73.1592V67.55L185.445 67.55V73.1592Z" fill="#F5F5F5"/>
<path d="M179.844 15.5479H283.419C283.734 15.5479 283.993 15.8058 283.993 16.1208C283.993 16.4357 283.734 16.6937 283.419 16.6937H179.844C179.528 16.6937 179.27 16.4357 179.27 16.1208C179.271 15.8051 179.528 15.5479 179.844 15.5479Z" fill="#E6E6E6"/>
<path d="M177.837 16.1201C177.837 16.9105 178.479 17.5517 179.27 17.5517C180.062 17.5517 180.704 16.9105 180.704 16.1201C180.704 15.3297 180.062 14.6885 179.27 14.6885C178.478 14.6885 177.837 15.3297 177.837 16.1201Z" fill="#E6E6E6"/>
<path d="M278.585 19.3276C279.01 19.3276 279.359 18.9795 279.359 18.5544V16.894C279.359 16.469 279.01 16.1208 278.585 16.1208C278.159 16.1208 277.811 16.469 277.811 16.894V18.5544C277.811 18.9795 278.158 19.3276 278.585 19.3276Z" fill="#E6E6E6"/>
<path d="M188.492 19.3276C188.918 19.3276 189.266 18.9795 189.266 18.5544V16.894C189.266 16.469 188.918 16.1208 188.492 16.1208C188.066 16.1208 187.718 16.469 187.718 16.894V18.5544C187.718 18.9795 188.066 19.3276 188.492 19.3276Z" fill="#E6E6E6"/>
<path opacity="0.4" d="M180.027 76.353L275.743 76.353V16.1202L180.027 16.1202V76.353Z" fill="#E0E0E0"/>
<path d="M267.93 16.1201C267.93 16.9105 268.572 17.5517 269.363 17.5517C270.155 17.5517 270.797 16.9105 270.797 16.1201C270.797 15.3297 270.155 14.6885 269.363 14.6885C268.571 14.6885 267.93 15.3297 267.93 16.1201Z" fill="#E6E6E6"/>
<path d="M132.468 213.466H140.144V146.979H132.468V213.466Z" fill="#F0F0F0"/>
<path d="M49.2037 217.679H137.196V213.466H49.2037V217.679Z" fill="#F0F0F0"/>
<path d="M132.468 146.979H46.2559V213.466H132.468V146.979Z" fill="#F5F5F5"/>
<path d="M121.703 176.967H57.0212C54.409 176.967 52.2915 174.852 52.2915 172.244V159.885C52.2915 157.276 54.409 155.162 57.0212 155.162H121.704C124.316 155.162 126.434 157.276 126.434 159.885V172.244C126.433 174.853 124.316 176.967 121.703 176.967Z" fill="#F0F0F0"/>
<path d="M121.703 205.282H57.0212C54.409 205.282 52.2915 203.167 52.2915 200.559V188.199C52.2915 185.591 54.409 183.476 57.0212 183.476H121.704C124.316 183.476 126.434 185.591 126.434 188.199V200.559C126.433 203.167 124.316 205.282 121.703 205.282Z" fill="#F0F0F0"/>
<path d="M73.2986 167.56H105.426C106.249 167.56 106.923 166.887 106.923 166.065C106.923 165.242 106.249 164.569 105.426 164.569H73.2986C72.4752 164.569 71.8013 165.242 71.8013 166.065C71.8013 166.888 72.4752 167.56 73.2986 167.56Z" fill="#F5F5F5"/>
<path d="M73.2986 195.874H105.426C106.249 195.874 106.923 195.201 106.923 194.379C106.923 193.557 106.249 192.884 105.426 192.884H73.2986C72.4752 192.884 71.8013 193.557 71.8013 194.379C71.8013 195.201 72.4752 195.874 73.2986 195.874Z" fill="#F5F5F5"/>
<path d="M166 247.709C237.103 247.709 294.742 244.347 294.742 240.201C294.742 236.054 237.103 232.692 166 232.692C94.8977 232.692 37.2578 236.054 37.2578 240.201C37.2578 244.347 94.8977 247.709 166 247.709Z" fill="#F5F5F5"/>
<path d="M194.45 31.4629H71.7451L81.2782 198.348H203.983L194.45 31.4629Z" fill="#263238"/>
<path d="M196.837 31.4629H74.1323L83.6654 198.348H206.369L196.837 31.4629Z" fill="url(#paint0_linear_2088_14482)"/>
<path opacity="0.5" d="M188.38 37.0752C151.226 37.0752 116.895 37.0752 79.7397 37.0752L87.5271 188.137C124.682 188.137 161.836 188.137 198.991 188.137L188.38 37.0752Z" fill="black"/>
<path d="M79.7402 37.0752C87.8151 87.4291 82.276 137.783 90.351 188.137C127.506 188.137 164.66 188.137 201.815 188.137C193.74 137.783 199.279 87.4291 191.204 37.0752C154.049 37.0752 116.895 37.0752 79.7402 37.0752Z" fill="white"/>
<g opacity="0.3">
<path d="M102.531 82.3398C107.573 82.3404 111.871 86.4358 112.05 91.4727C112.136 93.901 111.264 96.182 109.598 97.8975C107.934 99.6116 105.676 100.554 103.245 100.555C98.2002 100.556 93.9884 96.4592 93.8085 91.4229C93.7221 88.9933 94.5767 86.7149 96.2181 84.9988C97.8609 83.2847 100.1 82.3404 102.531 82.3398ZM102.463 80.4194C96.3642 80.4194 91.6704 85.3576 91.8855 91.4481C92.1013 97.5374 97.173 102.478 103.273 102.477C109.371 102.476 114.189 97.5407 113.972 91.4481C113.759 85.3562 108.562 80.4201 102.463 80.4194Z" fill="url(#paint1_linear_2088_14482)"/>
</g>
<path d="M164.157 165.059C152.42 165.059 140.684 165.059 128.949 165.059C127.81 165.06 126.97 165.981 127.079 167.117C127.187 168.253 128.205 169.174 129.342 169.176C141.078 169.176 152.814 169.176 164.55 169.176C165.688 169.175 166.517 168.255 166.409 167.117C166.301 165.981 165.294 165.06 164.157 165.059Z" fill="#E0E0E0"/>
<path d="M182.981 156.404C164.739 156.404 146.497 156.404 128.254 156.404C127.118 156.404 126.258 157.323 126.343 158.463C126.428 159.599 127.426 160.521 128.563 160.521C146.805 160.521 165.047 160.521 183.29 160.521C184.429 160.521 185.277 159.601 185.192 158.463C185.107 157.327 184.119 156.404 182.981 156.404Z" fill="#E0E0E0"/>
<g opacity="0.3">
<path d="M103.649 118.012C108.693 118.013 112.895 122.106 113.047 127.144C113.12 129.569 112.251 131.855 110.594 133.569C108.94 135.284 106.692 136.226 104.261 136.226C99.2194 136.227 94.9539 132.129 94.8058 127.094C94.7328 124.665 95.6166 122.384 97.2865 120.67C98.9585 118.953 101.217 118.01 103.649 118.012ZM103.625 116.09C97.5289 116.089 92.7016 121.03 92.8829 127.119C93.0622 133.21 98.2115 138.148 104.312 138.148C110.409 138.147 115.151 133.211 114.97 127.119C114.788 121.027 109.727 116.091 103.625 116.09Z" fill="url(#paint2_linear_2088_14482)"/>
</g>
<path d="M144.616 89.179C138.343 89.179 132.07 89.179 125.797 89.179C124.659 89.179 123.7 88.258 123.655 87.1208C123.607 85.9829 124.492 85.0632 125.629 85.0625C131.903 85.0625 138.176 85.0625 144.449 85.0625C145.588 85.0638 146.551 85.9836 146.596 87.1208C146.642 88.2587 145.755 89.1777 144.616 89.179Z" fill="#E0E0E0"/>
<path d="M166.346 89.179C162.096 89.179 157.844 89.179 153.593 89.179C152.456 89.179 151.497 88.258 151.451 87.1208C151.405 85.9829 152.288 85.0632 153.426 85.0625C157.677 85.0625 161.928 85.0625 166.179 85.0625C167.318 85.0638 168.279 85.9836 168.326 87.1208C168.372 88.2587 167.485 89.1777 166.346 89.179Z" fill="#E0E0E0"/>
<path d="M176.615 97.8333C159.774 97.8333 142.932 97.8333 126.09 97.8333C124.952 97.8327 124.002 96.9123 123.965 95.7751C123.928 94.6385 124.821 93.7155 125.959 93.7168C142.801 93.7168 159.642 93.7168 176.484 93.7168C177.623 93.7175 178.576 94.6392 178.612 95.7751C178.648 96.9116 177.755 97.8333 176.615 97.8333Z" fill="#E0E0E0"/>
<g opacity="0.3">
<path d="M105.093 153.682C110.138 153.683 114.493 157.779 114.92 162.815C115.126 165.242 114.397 167.524 112.855 169.239C111.312 170.955 109.134 171.898 106.701 171.898C101.66 171.896 97.1014 167.802 96.6771 162.765C96.4712 160.336 97.2448 158.055 98.8417 156.341C100.437 154.625 102.663 153.683 105.093 153.682ZM104.997 151.761C98.9008 151.761 94.2388 156.699 94.7554 162.791C95.2674 168.88 100.793 173.819 106.89 173.819C112.99 173.82 117.355 168.882 116.843 162.791C116.326 156.699 111.099 151.759 104.997 151.761Z" fill="url(#paint3_linear_2088_14482)"/>
</g>
<path d="M185.274 129.388C165.832 129.388 146.39 129.388 126.947 129.388C125.809 129.39 124.915 130.31 124.954 131.446C124.992 132.582 125.948 133.503 127.086 133.505C146.529 133.505 165.97 133.505 185.413 133.505C186.55 133.505 187.441 132.586 187.403 131.446C187.365 130.31 186.412 129.387 185.274 129.388Z" fill="#E0E0E0"/>
<path d="M171.441 120.733C156.527 120.733 141.612 120.733 126.697 120.733C125.56 120.734 124.66 121.655 124.692 122.792C124.722 123.928 125.672 124.85 126.811 124.851C141.725 124.851 156.64 124.851 171.556 124.851C172.694 124.851 173.589 123.93 173.558 122.792C173.527 121.653 172.579 120.732 171.441 120.733Z" fill="#E0E0E0"/>
<path d="M103.538 97.9561C103.277 97.5277 103.015 97.098 102.752 96.6697C101.035 93.8621 97.4449 91.3569 96.2065 90.6255C96.518 90.0771 96.8287 89.5287 97.1388 88.9797C98.6062 89.8464 101.582 91.9842 103.56 94.5232C106.386 90.7402 110.506 86.8439 116.09 82.6411C116.492 83.159 116.892 83.6762 117.293 84.1941C111.318 88.6846 107.08 92.7885 104.368 96.7466C104.092 97.1498 103.815 97.5529 103.538 97.9561Z" fill="url(#paint4_linear_2088_14482)"/>
<path d="M104.535 133.627C104.271 133.197 104.007 132.769 103.743 132.34C102.017 129.534 98.4425 127.026 97.2095 126.296C97.5249 125.748 97.8396 125.199 98.1557 124.651C99.6145 125.514 102.571 127.654 104.549 130.195C107.377 126.414 111.534 122.515 117.204 118.312C117.595 118.83 117.986 119.348 118.377 119.865C112.321 124.355 108.06 128.463 105.361 132.418C105.085 132.821 104.81 133.224 104.535 133.627Z" fill="url(#paint5_linear_2088_14482)"/>
<path d="M106.808 169.384C106.516 168.955 106.224 168.526 105.933 168.097C104.026 165.29 100.316 162.783 99.0449 162.052C99.3304 161.504 99.6173 160.956 99.9055 160.408C101.408 161.271 104.475 163.409 106.606 165.951C109.207 162.172 113.164 158.271 118.665 154.069C119.077 154.587 119.489 155.104 119.902 155.622C114.038 160.112 110.002 164.219 107.554 168.176C107.305 168.577 107.056 168.981 106.808 169.384Z" fill="url(#paint6_linear_2088_14482)"/>
<path d="M148.8 49.7456C147.631 52.2899 146.434 54.8336 145.211 57.3772C150.206 59.9269 153.887 64.9313 154.268 70.6903C157.209 70.6903 160.152 70.6903 163.093 70.6903C162.504 61.6728 156.677 53.8204 148.8 49.7456Z" fill="url(#paint7_linear_2088_14482)"/>
<path d="M115.186 70.691C118.129 70.691 121.07 70.691 124.012 70.691C123.652 65.2641 126.095 60.513 130.135 57.8474C128.419 55.3024 126.677 52.7574 124.907 50.2124C118.47 54.4032 114.617 62.005 115.186 70.691Z" fill="#263238"/>
<path d="M136.866 46.7729C132.335 46.7723 128.263 48.0302 124.907 50.2125C126.677 52.7574 128.419 55.3031 130.136 57.8474C132.311 56.4144 134.952 55.5816 137.877 55.5829C140.464 55.5823 142.969 56.2341 145.212 57.3786C146.435 54.8349 147.632 52.2906 148.801 49.747C145.145 47.8531 141.061 46.7736 136.866 46.7729Z" fill="url(#paint8_linear_2088_14482)"/>
<path opacity="0.5" d="M136.866 46.7729C132.335 46.7723 128.263 48.0302 124.907 50.2125C126.677 52.7574 128.419 55.3031 130.136 57.8474C132.311 56.4144 134.952 55.5816 137.877 55.5829C140.464 55.5823 142.969 56.2341 145.212 57.3786C146.435 54.8349 147.632 52.2906 148.801 49.747C145.145 47.8531 141.061 46.7736 136.866 46.7729Z" fill="#263238"/>
<path d="M147.645 64.6616C147.65 64.6629 138.738 68.2649 137.794 68.9327C136.851 69.6031 136.685 70.9432 137.417 71.9305C138.151 72.9186 139.51 73.1778 140.456 72.5081C141.419 71.8397 147.662 64.6603 147.645 64.6616ZM138.286 71.3158C137.926 70.8311 138.008 70.1693 138.471 69.8398C138.934 69.5122 139.607 69.6402 139.968 70.1236C140.33 70.609 140.246 71.2708 139.782 71.5997C139.319 71.9266 138.647 71.8006 138.286 71.3158Z" fill="#263238"/>
<path d="M158.209 60.4513C158.364 62.1806 157.074 63.5784 155.345 63.5798C153.615 63.5791 152.098 62.1806 151.944 60.4513C151.788 58.7226 153.054 57.3221 154.783 57.3228C156.514 57.3221 158.056 58.7252 158.209 60.4513Z" fill="white"/>
<path d="M154.327 59.7304C154.352 60.0063 154.149 60.2311 153.873 60.2284C153.598 60.2284 153.353 60.0049 153.329 59.7304C153.304 59.4559 153.507 59.2331 153.782 59.2324C154.056 59.2311 154.301 59.4546 154.327 59.7304Z" fill="#263238"/>
<path d="M156.695 59.7304C156.718 60.0063 156.517 60.2311 156.241 60.2284C155.966 60.2284 155.722 60.0049 155.697 59.7304C155.671 59.4559 155.875 59.2331 156.15 59.2324C156.426 59.2311 156.669 59.4546 156.695 59.7304Z" fill="#263238"/>
<path d="M155.224 62.3466C155.222 62.3466 155.22 62.3466 155.218 62.3466C154.57 62.3466 153.94 62.0993 153.445 61.6497C153.344 61.5582 153.337 61.4017 153.428 61.3009C153.52 61.2001 153.677 61.1928 153.778 61.2843C154.181 61.651 154.693 61.8526 155.218 61.8526C155.221 61.8519 155.221 61.8526 155.223 61.8526C155.739 61.8526 156.205 61.6563 156.537 61.2989C156.63 61.1988 156.786 61.1928 156.886 61.2856C156.986 61.3785 156.992 61.535 156.899 61.6344C156.473 62.094 155.878 62.3466 155.224 62.3466Z" fill="#263238"/>
<path d="M140.513 51.1275C140.711 52.8549 139.456 54.2567 137.725 54.2561C135.993 54.2554 134.446 52.8569 134.247 51.1275C134.049 49.4002 135.276 47.9984 137.005 47.999C138.736 48.001 140.315 49.3995 140.513 51.1275Z" fill="white"/>
<path d="M136.612 50.4072C136.644 50.6824 136.446 50.9052 136.171 50.9052C135.895 50.9038 135.648 50.683 135.614 50.4072C135.582 50.132 135.778 49.9092 136.054 49.9092C136.33 49.9092 136.579 50.1326 136.612 50.4072Z" fill="#263238"/>
<path d="M138.98 50.4072C139.013 50.6824 138.814 50.9052 138.539 50.9052C138.263 50.9038 138.016 50.683 137.982 50.4072C137.95 50.132 138.149 49.9092 138.423 49.9092C138.697 49.9092 138.947 50.1326 138.98 50.4072Z" fill="#263238"/>
<path d="M139.047 52.3903H135.941C135.804 52.3903 135.693 52.2796 135.693 52.1436C135.693 52.007 135.804 51.897 135.941 51.897H139.047C139.184 51.897 139.294 52.0077 139.294 52.1436C139.294 52.2796 139.184 52.3903 139.047 52.3903Z" fill="#263238"/>
<path d="M124.743 60.4513C124.899 62.1806 123.609 63.5784 121.88 63.5798C120.15 63.5791 118.633 62.1806 118.478 60.4513C118.325 58.7226 119.587 57.3221 121.318 57.3228C123.047 57.3221 124.589 58.7252 124.743 60.4513Z" fill="white"/>
<path d="M120.86 59.7304C120.886 60.0063 120.682 60.2311 120.406 60.2284C120.131 60.2284 119.888 60.0049 119.862 59.7304C119.836 59.4559 120.038 59.2331 120.314 59.2324C120.589 59.2311 120.836 59.4546 120.86 59.7304Z" fill="#263238"/>
<path d="M123.228 59.7304C123.253 60.0063 123.05 60.2311 122.774 60.2284C122.498 60.2284 122.255 60.0049 122.231 59.7304C122.205 59.4559 122.409 59.2331 122.683 59.2324C122.959 59.2311 123.202 59.4546 123.228 59.7304Z" fill="#263238"/>
<path d="M120.2 62.3463C120.139 62.3463 120.079 62.3245 120.031 62.28C119.931 62.1872 119.925 62.0307 120.019 61.9306C120.449 61.4697 121.042 61.2237 121.7 61.2197C122.35 61.2197 122.981 61.4677 123.473 61.9166C123.574 62.0088 123.581 62.1646 123.489 62.2654C123.397 62.3662 123.241 62.3729 123.14 62.2814C122.737 61.914 122.204 61.7051 121.692 61.7137C121.18 61.7137 120.715 61.91 120.381 62.2674C120.332 62.3198 120.266 62.3463 120.2 62.3463Z" fill="#263238"/>
<path d="M170.478 37.5017C168.406 33.1497 163.568 30.2659 158.355 30.2659H147.737C146.149 30.2659 144.67 29.5067 144.052 28.3429C142.571 25.5712 139.04 23.5918 135.032 23.5918C131.029 23.5918 127.724 25.5705 126.56 28.3429C126.074 29.5067 124.682 30.2659 123.094 30.2659H112.476C107.263 30.2659 102.755 33.1497 101.18 37.5017C101.121 37.6588 101.102 37.822 101.112 37.9851C101.15 38.6488 101.718 39.239 102.439 39.239H169.417C170.313 39.239 170.869 38.3286 170.478 37.5017ZM135.482 31.4635C133.855 31.4635 132.451 30.1419 132.358 28.512C132.265 26.8814 133.518 25.5605 135.145 25.5605C136.777 25.5605 138.176 26.8821 138.269 28.512C138.362 30.1426 137.114 31.4635 135.482 31.4635Z" fill="#263238"/>
<path d="M239.32 235.477C238.694 235.477 238.08 235.39 237.846 235.11C237.763 235.012 237.689 234.844 237.799 234.605C237.86 234.471 237.973 234.38 238.135 234.335C238.921 234.115 240.735 235.085 240.812 235.126C240.856 235.15 240.884 235.198 240.882 235.245C240.879 235.293 240.847 235.33 240.801 235.34C240.497 235.402 239.904 235.477 239.32 235.477ZM238.441 234.532C238.36 234.532 238.285 234.54 238.22 234.558C238.117 234.587 238.049 234.64 238.012 234.72C237.947 234.863 237.984 234.934 238.018 234.975C238.281 235.29 239.515 235.297 240.408 235.17C239.929 234.937 239.011 234.532 238.441 234.532Z" fill="url(#paint9_linear_2088_14482)"/>
<path d="M240.779 235.342C240.763 235.342 240.746 235.339 240.731 235.332C240.112 235.068 238.828 234.015 238.855 233.464C238.862 233.335 238.936 233.174 239.25 233.142C239.483 233.118 239.706 233.184 239.913 233.34C240.59 233.848 240.868 235.16 240.88 235.216C240.889 235.257 240.875 235.297 240.844 235.321C240.826 235.335 240.803 235.342 240.779 235.342ZM239.368 233.367C239.345 233.367 239.322 233.369 239.299 233.371C239.093 233.392 239.089 233.474 239.088 233.501C239.071 233.831 239.957 234.659 240.598 235.02C240.492 234.637 240.231 233.851 239.786 233.518C239.652 233.417 239.515 233.367 239.368 233.367Z" fill="url(#paint10_linear_2088_14482)"/>
<path d="M246.13 235.227H241.252L239.503 223.945H244.382L246.13 235.227Z" fill="#FFC3BD"/>
<path d="M241.221 234.663H246.548C246.748 234.663 246.936 234.801 247.001 234.995L248.449 239.326C248.6 239.774 248.306 240.2 247.845 240.192C245.919 240.16 243.13 240.047 240.715 240.047C237.891 240.047 238.143 240.201 234.831 240.201C232.829 240.201 232.047 238.179 232.865 237.996C236.588 237.162 237.019 237.073 240.089 235.043C240.422 234.822 240.8 234.663 241.221 234.663Z" fill="#263238"/>
<path opacity="0.2" d="M239.505 223.949L240.405 229.763H245.286L244.385 223.949H239.505Z" fill="black"/>
<path d="M245.575 113.69L242.264 117.04L247.351 118.834C247.351 118.834 249.322 116.102 247.947 114.232L245.575 113.69Z" fill="#FFC3BD"/>
<path d="M241.139 121.721L246.215 122.463L247.352 118.835L242.264 117.041L241.139 121.721Z" fill="#FFC3BD"/>
<path d="M247.79 72.4585C248.222 73.3822 248.565 74.1739 248.913 75.034C249.26 75.8774 249.589 76.7242 249.91 77.5756C250.542 79.2811 251.107 81.0152 251.628 82.7744C252.158 84.5296 252.587 86.3379 252.947 88.18L253.198 89.5725L253.401 90.9929C253.475 91.4617 253.518 91.9497 253.562 92.4358C253.602 92.9391 253.665 93.3568 253.67 93.9715L253.688 94.8309L253.658 95.5915L253.619 96.3447L253.549 97.0543C253.464 98.0091 253.335 98.905 253.213 99.8121C252.949 101.604 252.646 103.352 252.308 105.088C251.605 108.555 250.835 111.947 249.904 115.358L243.854 114.168C244.236 110.795 244.638 107.375 244.954 104.008C245.111 102.325 245.271 100.648 245.366 99.0038C245.404 98.1908 245.451 97.3679 245.451 96.5967L245.459 96.0132L245.444 95.4714L245.433 94.937L245.39 94.502C245.384 94.2513 245.294 93.8157 245.242 93.4609C245.182 93.0889 245.127 92.7189 245.039 92.3389L244.799 91.2064L244.51 90.0645C244.096 88.54 243.631 87.0076 243.101 85.4738C242.571 83.9414 241.98 82.4176 241.358 80.9031C241.048 80.1452 240.73 79.3899 240.4 78.6446C240.076 77.9118 239.717 77.1247 239.414 76.4862L247.79 72.4585Z" fill="#263238"/>
<path d="M224.865 111.315C224.865 111.315 225.674 148.606 227.867 163.461C230.148 178.913 238.461 228.638 238.461 228.638H246.725C246.725 228.638 243.758 181.311 242.817 166.107C241.79 149.531 242.015 111.315 242.015 111.315H224.865Z" fill="url(#paint11_linear_2088_14482)"/>
<path d="M236.503 225.351C236.465 225.351 237.353 228.777 237.353 228.777H247.405L247.334 225.719L236.503 225.351Z" fill="#263238"/>
<path d="M223.004 50.8282C222.989 51.2406 222.759 51.5755 222.488 51.5755C222.218 51.5755 222.011 51.2413 222.026 50.8282C222.04 50.4157 222.271 50.0815 222.541 50.0815C222.811 50.0809 223.018 50.4151 223.004 50.8282Z" fill="#263238"/>
<path d="M222.796 51.5747C222.796 51.5747 221.773 53.9546 220.698 55.1031C221.405 55.7841 222.658 55.4731 222.658 55.4731L222.796 51.5747Z" fill="#ED847E"/>
<path d="M224.548 48.5418C224.499 48.5418 224.449 48.5272 224.408 48.496C223.552 47.8648 222.704 48.1764 222.695 48.1797C222.569 48.2281 222.43 48.1658 222.386 48.0411C222.343 47.9165 222.41 47.7759 222.537 47.7275C222.581 47.7103 223.644 47.319 224.706 48.1028C224.812 48.1811 224.831 48.3323 224.749 48.441C224.698 48.5066 224.623 48.5418 224.548 48.5418Z" fill="#263238"/>
<path d="M235.92 55.3853C235.095 58.9488 234.165 65.479 236.578 67.8569C236.578 67.8569 235.475 71.4721 228.844 71.4721C221.553 71.4721 225.487 67.8575 225.487 67.8575C229.501 66.9086 229.502 63.9598 228.906 61.1914L235.92 55.3853Z" fill="#FFC3BD"/>
<path d="M239.156 69.5296C239.872 68.0727 240.663 66.4064 239.167 65.8838C237.52 65.3096 228.417 64.7234 225.234 65.8016C222.05 66.8798 222.838 69.8339 222.838 69.8339L239.156 69.5296Z" fill="url(#paint12_linear_2088_14482)"/>
<path d="M246.135 69.2565C250.338 71.1914 252.476 85.8718 252.476 85.8718L244.01 88.5242C244.01 88.5242 241.582 82.423 240.338 76.5804C239.034 70.4587 241.838 67.2784 246.135 69.2565Z" fill="#263238"/>
<path d="M194.104 92.0956L190.201 88.7437L186.688 93.8489C186.688 93.8489 189.844 96.3746 193.3 95.3382L194.104 92.0956Z" fill="#FFC3BD"/>
<path d="M185.06 87.1211L184.518 92.166L186.688 93.8496L190.201 88.7437L185.06 87.1211Z" fill="#FFC3BD"/>
<path d="M236.813 49.9531C236.322 55.0199 236.292 58.0012 233.637 60.6012C229.645 64.5128 223.464 62.1927 222.432 57.1352C221.503 52.583 222.462 45.0621 227.499 43.0456C232.463 41.0596 237.303 44.8864 236.813 49.9531Z" fill="#FFC3BD"/>
<path d="M226.391 51.5746C225.944 48.0748 226.018 46.7486 227.893 45.9748C225.949 45.5882 224.261 45.5325 223.459 44.3999C222.657 43.2673 222.463 40.3662 226.364 39.04C226.004 39.731 227.139 41.0844 230.735 39.8411C234.332 38.5978 239.559 38.4598 240.017 42.1069C241.912 41.4438 245.094 47.3016 241.368 51.5746C238.244 55.1581 236.157 57.6274 235.543 59.5259C235.418 59.9118 235.001 60.0975 234.634 59.9264C233.333 59.3203 231.02 59.8382 229.995 60.1174C229.692 60.2003 229.376 60.0584 229.239 59.7759C228.574 58.4059 226.76 54.4651 226.391 51.5746Z" fill="#263238"/>
<path d="M239.359 42.5499C239.359 42.5499 240.897 40.3803 243.851 41.9936C243.851 41.9936 241.327 41.8471 239.359 42.5499Z" fill="#263238"/>
<path d="M239.613 43.0185C239.613 43.0185 241.755 41.7056 240.084 39.1904C240.084 39.1904 240.279 41.3402 239.613 43.0185Z" fill="#263238"/>
<path d="M228.907 51.7226C228.687 53.0342 227.948 54.2384 227.13 55.0076C225.901 56.1647 224.836 55.3438 224.801 53.8505C224.769 52.5057 225.37 50.2837 226.785 49.6855C228.179 49.0967 229.158 50.2233 228.907 51.7226Z" fill="#FFC3BD"/>
<path opacity="0.3" d="M225.548 132.037C226.026 143.163 226.776 156.081 227.865 163.461C228.284 166.273 228.894 170.211 229.625 174.78C232.56 158.786 234.313 138.177 225.548 132.037Z" fill="black"/>
<path d="M221.889 235.477C221.264 235.477 220.662 235.39 220.47 235.11C220.402 235.012 220.352 234.844 220.497 234.605C220.578 234.471 220.705 234.38 220.873 234.335C221.691 234.115 223.363 235.085 223.434 235.126C223.475 235.15 223.495 235.198 223.486 235.245C223.477 235.293 223.439 235.33 223.391 235.34C223.077 235.402 222.473 235.477 221.889 235.477ZM221.15 234.532C221.069 234.532 220.993 234.54 220.925 234.558C220.818 234.587 220.742 234.64 220.693 234.72C220.606 234.863 220.634 234.934 220.662 234.975C220.877 235.29 222.11 235.297 223.022 235.17C222.578 234.937 221.719 234.532 221.15 234.532Z" fill="url(#paint13_linear_2088_14482)"/>
<path d="M223.368 235.342C223.352 235.342 223.337 235.339 223.321 235.332C222.742 235.068 221.613 234.015 221.722 233.464C221.747 233.335 221.845 233.174 222.163 233.142C222.4 233.118 222.613 233.184 222.797 233.34C223.4 233.848 223.485 235.16 223.487 235.216C223.49 235.257 223.47 235.297 223.436 235.321C223.416 235.335 223.392 235.342 223.368 235.342ZM222.248 233.367C222.226 233.367 222.202 233.369 222.179 233.371C221.97 233.392 221.954 233.474 221.949 233.501C221.884 233.831 222.647 234.659 223.235 235.02C223.186 234.637 223.04 233.851 222.644 233.518C222.525 233.417 222.395 233.367 222.248 233.367Z" fill="url(#paint14_linear_2088_14482)"/>
<path d="M228.736 235.227H223.858L223.771 223.945H228.649L228.736 235.227Z" fill="#FFC3BD"/>
<path d="M223.911 234.663H229.238C229.437 234.663 229.605 234.801 229.642 234.995L230.452 239.326C230.536 239.774 230.18 240.2 229.72 240.192C227.8 240.16 225.027 240.047 222.611 240.047C219.787 240.047 217.342 240.201 214.031 240.201C212.028 240.201 211.544 238.179 212.389 237.996C216.234 237.162 219.354 237.073 222.723 235.043C223.088 234.822 223.489 234.663 223.911 234.663Z" fill="#263238"/>
<path opacity="0.2" d="M223.772 223.949L223.816 229.763H228.696L228.652 223.949H223.772Z" fill="black"/>
<path d="M216.159 111.315C216.159 111.315 214.2 147.737 214.205 162.593C214.21 178.044 222.038 228.638 222.038 228.638H230.302C230.302 228.638 228.15 178.947 229.054 163.772C230.04 147.229 234.835 111.316 234.835 111.316H216.159V111.315Z" fill="url(#paint15_linear_2088_14482)"/>
<path d="M220.564 225.351C220.526 225.351 220.909 228.777 220.909 228.777H230.961L231.341 225.719L220.564 225.351Z" fill="#263238"/>
<path d="M217.936 69.209C217.936 69.209 209.622 90.1822 213.243 126.431C221.104 126.431 239.777 126.431 243.602 126.431C243.923 122.431 240.744 87.803 245.273 68.9577C245.273 68.9577 240.833 68.0612 236.578 67.8563C233.25 67.6958 228.427 67.5897 225.487 67.8569C221.611 68.209 217.936 69.209 217.936 69.209Z" fill="#263238"/>
<path opacity="0.2" d="M213.642 88.1658C213.19 91.5078 212.819 95.2676 212.58 99.4186C218.476 94.0077 220.494 80.5269 220.494 80.5269L213.642 88.1658Z" fill="black"/>
<path d="M221.062 79.1956C219.872 82.2989 218.661 85.2862 217.334 88.2907C216.027 91.2912 214.629 94.2639 213.087 97.2273L212.497 98.3393L212.197 98.895C212.071 99.1178 212.084 99.1357 211.736 99.7093C211.175 100.617 210.266 101.451 209.337 101.938C208.408 102.431 207.5 102.64 206.741 102.722C205.207 102.872 204.061 102.657 203.021 102.421C201.989 102.172 201.073 101.854 200.206 101.508C198.475 100.813 196.938 99.9818 195.446 99.1185C194.7 98.6881 193.98 98.2286 193.268 97.7605C192.547 97.283 191.881 96.8255 191.13 96.2817L194.72 90.7946C197.299 92.1625 200.19 93.5139 202.784 94.2871C203.429 94.4807 204.056 94.626 204.596 94.6996C205.126 94.7798 205.6 94.752 205.663 94.6989C205.7 94.681 205.574 94.6591 205.353 94.7699C205.124 94.8667 204.822 95.1359 204.677 95.3567C204.54 95.5881 204.72 95.2413 204.777 95.1074L205.019 94.5888L205.498 93.5445C206.758 90.7349 207.923 87.8212 209.061 84.8896C210.179 81.9621 211.299 78.9688 212.317 76.0479L221.062 79.1956Z" fill="#263238"/>
<path d="M224.369 71.4082C225.919 75.7442 214.925 93.203 214.925 93.203L208.402 86.7564C208.402 86.7564 210.072 81.2672 212.271 74.6674C214.434 68.1736 222.887 67.2632 224.369 71.4082Z" fill="#263238"/>
</g>
<defs>
<linearGradient id="paint0_linear_2088_14482" x1="140.441" y1="249.01" x2="140.441" y2="-113.072" gradientUnits="userSpaceOnUse">
<stop stop-color="#03B04E"/>
<stop offset="1" stop-color="#02C320"/>
</linearGradient>
<linearGradient id="paint1_linear_2088_14482" x1="102.961" y1="109.173" x2="102.961" y2="61.3161" gradientUnits="userSpaceOnUse">
<stop stop-color="#03B04E"/>
<stop offset="1" stop-color="#02C320"/>
</linearGradient>
<linearGradient id="paint2_linear_2088_14482" x1="103.958" y1="144.844" x2="103.958" y2="96.986" gradientUnits="userSpaceOnUse">
<stop stop-color="#03B04E"/>
<stop offset="1" stop-color="#02C320"/>
</linearGradient>
<linearGradient id="paint3_linear_2088_14482" x1="105.832" y1="180.516" x2="105.832" y2="132.657" gradientUnits="userSpaceOnUse">
<stop stop-color="#03B04E"/>
<stop offset="1" stop-color="#02C320"/>
</linearGradient>
<linearGradient id="paint4_linear_2088_14482" x1="106.78" y1="102.605" x2="106.78" y2="69.3772" gradientUnits="userSpaceOnUse">
<stop stop-color="#03B04E"/>
<stop offset="1" stop-color="#02C320"/>
</linearGradient>
<linearGradient id="paint5_linear_2088_14482" x1="107.824" y1="138.276" x2="107.824" y2="105.049" gradientUnits="userSpaceOnUse">
<stop stop-color="#03B04E"/>
<stop offset="1" stop-color="#02C320"/>
</linearGradient>
<linearGradient id="paint6_linear_2088_14482" x1="109.504" y1="174.033" x2="109.504" y2="140.806" gradientUnits="userSpaceOnUse">
<stop stop-color="#03B04E"/>
<stop offset="1" stop-color="#02C320"/>
</linearGradient>
<linearGradient id="paint7_linear_2088_14482" x1="154.178" y1="77.0486" x2="154.178" y2="31.606" gradientUnits="userSpaceOnUse">
<stop stop-color="#03B04E"/>
<stop offset="1" stop-color="#02C320"/>
</linearGradient>
<linearGradient id="paint8_linear_2088_14482" x1="136.888" y1="61.2093" x2="136.888" y2="37.1817" gradientUnits="userSpaceOnUse">
<stop stop-color="#03B04E"/>
<stop offset="1" stop-color="#02C320"/>
</linearGradient>
<linearGradient id="paint9_linear_2088_14482" x1="239.317" y1="235.833" x2="239.317" y2="233.286" gradientUnits="userSpaceOnUse">
<stop stop-color="#03B04E"/>
<stop offset="1" stop-color="#02C320"/>
</linearGradient>
<linearGradient id="paint10_linear_2088_14482" x1="239.872" y1="236.011" x2="239.872" y2="231.228" gradientUnits="userSpaceOnUse">
<stop stop-color="#03B04E"/>
<stop offset="1" stop-color="#02C320"/>
</linearGradient>
<linearGradient id="paint11_linear_2088_14482" x1="235.826" y1="264.253" x2="235.827" y2="9.70523" gradientUnits="userSpaceOnUse">
<stop stop-color="#03B04E"/>
<stop offset="1" stop-color="#02C320"/>
</linearGradient>
<linearGradient id="paint12_linear_2088_14482" x1="231.409" y1="71.2409" x2="231.409" y2="61.1852" gradientUnits="userSpaceOnUse">
<stop stop-color="#03B04E"/>
<stop offset="1" stop-color="#02C320"/>
</linearGradient>
<linearGradient id="paint13_linear_2088_14482" x1="221.95" y1="235.833" x2="221.95" y2="233.286" gradientUnits="userSpaceOnUse">
<stop stop-color="#03B04E"/>
<stop offset="1" stop-color="#02C320"/>
</linearGradient>
<linearGradient id="paint14_linear_2088_14482" x1="222.603" y1="236.011" x2="222.603" y2="231.228" gradientUnits="userSpaceOnUse">
<stop stop-color="#03B04E"/>
<stop offset="1" stop-color="#02C320"/>
</linearGradient>
<linearGradient id="paint15_linear_2088_14482" x1="224.55" y1="264.254" x2="224.55" y2="9.70465" gradientUnits="userSpaceOnUse">
<stop stop-color="#03B04E"/>
<stop offset="1" stop-color="#02C320"/>
</linearGradient>
<clipPath id="clip0_2088_14482">
<rect width="332" height="248" fill="white"/>
</clipPath>
</defs>
</svg>
