<svg width="32" height="32" viewBox="0 0 32 32" fill="none" xmlns="http://www.w3.org/2000/svg">
<g clip-path="url(#clip0_1956_11987)">
<path d="M9.68932 22.1948L8.42069 22.2567L5.96107 29.3233C5.88269 29.5484 6.06507 29.7786 6.30213 29.7537L9.74982 29.3927C9.79738 29.3877 9.84545 29.3933 9.89062 29.409C9.93578 29.4247 9.97693 29.4502 10.0111 29.4836L12.4896 31.9073C12.6599 32.0739 12.9458 32.0068 13.0241 31.7817L15.4998 24.6689L14.7698 23.9604L9.68932 22.1948Z" fill="#001640" fill-opacity="0.7"/>
<path d="M15.4998 24.6688L16 23.2316L8.9194 20.8237L8.42065 22.2567C10.4313 23.6914 12.8658 24.5696 15.4998 24.6688Z" fill="#51526C"/>
<path d="M22.3108 22.1948L23.5794 22.2567L26.0391 29.3233C26.1174 29.5484 25.9351 29.7786 25.698 29.7537L22.2503 29.3927C22.2027 29.3877 22.1547 29.3933 22.1095 29.409C22.0644 29.4247 22.0232 29.4502 21.9891 29.4836L19.5106 31.9073C19.3402 32.0739 19.0544 32.0068 18.9761 31.7817L16.5004 24.6689L17.2304 23.9604L22.3108 22.1948Z" fill="#001640" fill-opacity="0.7"/>
<path d="M16.5002 24.6688L16 23.2316L23.0806 20.8237L23.5794 22.2567C21.5687 23.6914 19.1343 24.5696 16.5002 24.6688Z" fill="#51526C"/>
<path d="M16 22.5072C4.38424 22.5072 4.38911 11.2242 4.39874 11.0302C4.70367 4.88712 9.78111 0 16 0C22.2189 0 27.2963 4.88713 27.6012 11.0303C27.6109 11.2242 27.6157 22.5072 16 22.5072Z" fill="#DCDDE0"/>
<path d="M16 22.0606C9.78115 22.0606 4.7039 17.1735 4.3989 11.0303C4.38919 11.2253 4.38431 11.4205 4.38428 11.6157C4.38428 18.0309 9.58484 23.2315 16 23.2315C22.4152 23.2315 27.6158 18.0309 27.6158 11.6157C27.6158 11.4193 27.6108 11.2242 27.6012 11.0303C27.2962 17.1735 22.2189 22.0606 16 22.0606Z" fill="#B2CCFF" fill-opacity="0.7"/>
<path d="M16.0001 20.008C6.86775 20.008 6.8555 11.0279 6.86775 10.8343C7.16969 6.05329 11.1429 2.26904 16.0001 2.26904C20.8572 2.26904 24.8304 6.05329 25.1324 10.8343C25.1446 11.0279 25.1324 20.008 16.0001 20.008Z" fill="#B8B8B8"/>
<path d="M16 19.5956C11.1429 19.5956 7.17037 15.8112 6.86843 11.0303C6.85587 11.2252 6.84947 11.4204 6.84924 11.6157C6.84924 16.6695 10.9462 20.7665 16 20.7665C21.0538 20.7665 25.1507 16.6695 25.1507 11.6157C25.1507 11.419 25.1438 11.2239 25.1316 11.0303C24.8296 15.8112 20.8571 19.5956 16 19.5956Z" fill="#B2CCFF" fill-opacity="0.7"/>
<path d="M12.4781 16L12.0161 14.838L14.9561 11.562C15.1147 11.3847 15.2827 11.1887 15.4601 10.974C15.6374 10.75 15.8054 10.5213 15.9641 10.288C16.1321 10.0547 16.2674 9.826 16.3701 9.602C16.4727 9.36867 16.5241 9.154 16.5241 8.958C16.5241 8.69667 16.4681 8.47267 16.3561 8.286C16.2534 8.09933 16.1041 7.95467 15.9081 7.852C15.7121 7.74933 15.4694 7.698 15.1801 7.698C14.9374 7.698 14.6947 7.77267 14.4521 7.922C14.2094 8.062 13.9854 8.26733 13.7801 8.538C13.5841 8.79933 13.4207 9.112 13.2901 9.476L11.9321 8.664C12.1001 8.12267 12.3521 7.656 12.6881 7.264C13.0241 6.872 13.4207 6.56867 13.8781 6.354C14.3447 6.13933 14.8487 6.032 15.3901 6.032C15.9501 6.032 16.4494 6.14867 16.8881 6.382C17.3267 6.61533 17.6721 6.93733 17.9241 7.348C18.1854 7.75867 18.3161 8.23933 18.3161 8.79C18.3161 9.05133 18.2787 9.322 18.2041 9.602C18.1294 9.882 18.0127 10.176 17.8541 10.484C17.6954 10.792 17.4901 11.1187 17.2381 11.464C16.9861 11.8 16.6781 12.164 16.3141 12.556L14.1161 14.95L13.8221 14.32H18.6661V16H12.4781Z" fill="#67687E" fill-opacity="0.2"/>
<path d="M13.4781 16L13.0161 14.838L15.9561 11.562C16.1147 11.3847 16.2827 11.1887 16.4601 10.974C16.6374 10.75 16.8054 10.5213 16.9641 10.288C17.1321 10.0547 17.2674 9.826 17.3701 9.602C17.4727 9.36867 17.5241 9.154 17.5241 8.958C17.5241 8.69667 17.4681 8.47267 17.3561 8.286C17.2534 8.09933 17.1041 7.95467 16.9081 7.852C16.7121 7.74933 16.4694 7.698 16.1801 7.698C15.9374 7.698 15.6947 7.77267 15.4521 7.922C15.2094 8.062 14.9854 8.26733 14.7801 8.538C14.5841 8.79933 14.4207 9.112 14.2901 9.476L12.9321 8.664C13.1001 8.12267 13.3521 7.656 13.6881 7.264C14.0241 6.872 14.4207 6.56867 14.8781 6.354C15.3447 6.13933 15.8487 6.032 16.3901 6.032C16.9501 6.032 17.4494 6.14867 17.8881 6.382C18.3267 6.61533 18.6721 6.93733 18.9241 7.348C19.1854 7.75867 19.3161 8.23933 19.3161 8.79C19.3161 9.05133 19.2787 9.322 19.2041 9.602C19.1294 9.882 19.0127 10.176 18.8541 10.484C18.6954 10.792 18.4901 11.1187 18.2381 11.464C17.9861 11.8 17.6781 12.164 17.3141 12.556L15.1161 14.95L14.8221 14.32H19.6661V16H13.4781Z" fill="#67687E"/>
</g>
<defs>
<clipPath id="clip0_1956_11987">
<rect width="32" height="32" fill="white"/>
</clipPath>
</defs>
</svg>
