<svg width="21" height="20" viewBox="0 0 21 20" fill="none" xmlns="http://www.w3.org/2000/svg">
<g id="Shipping_Icon" clip-path="url(#clip0_2768_14945)">
<path id="Vector" d="M16.3333 4.16683H14.6025C14.3225 2.581 13.1417 1.27183 11.5408 0.860163C11.1 0.745996 10.6417 1.01433 10.5258 1.45933C10.4108 1.90516 10.68 2.35933 11.1258 2.4735C12.2292 2.75766 13 3.7535 13 4.89516V14.1668H3.83333C2.91417 14.1668 2.16667 13.4193 2.16667 12.5002V9.16683H4.25C4.71083 9.16683 5.08333 8.7935 5.08333 8.3335C5.08333 7.8735 4.71083 7.50016 4.25 7.50016H2.16667C1.2475 7.50016 0.5 8.24766 0.5 9.16683V12.5002C0.5 14.0668 1.58667 15.3843 3.04583 15.7393C3.01583 15.9068 3 16.0777 3 16.2502C3 17.8585 4.30833 19.1668 5.91667 19.1668C7.525 19.1668 8.83333 17.8585 8.83333 16.2502C8.83333 16.1093 8.8225 15.971 8.8025 15.8335H12.1975C12.1775 15.971 12.1667 16.1093 12.1667 16.2502C12.1667 17.8585 13.475 19.1668 15.0833 19.1668C16.6917 19.1668 18 17.8585 18 16.2502C18 16.0777 17.9842 15.9068 17.9542 15.7393C19.4133 15.3843 20.5 14.0668 20.5 12.5002V8.3335C20.5 6.036 18.6308 4.16683 16.3333 4.16683ZM18.8333 8.3335V9.16683H14.6667V5.8335H16.3333C17.7117 5.8335 18.8333 6.95516 18.8333 8.3335ZM7.16667 16.2502C7.16667 16.9393 6.60583 17.5002 5.91667 17.5002C5.2275 17.5002 4.66667 16.9393 4.66667 16.2502C4.66667 16.0927 4.6975 15.9535 4.7425 15.8335H7.09167C7.13667 15.9535 7.1675 16.0927 7.1675 16.2502H7.16667ZM15.0833 17.5002C14.3942 17.5002 13.8333 16.9393 13.8333 16.2502C13.8333 16.0927 13.8642 15.9535 13.9092 15.8335H16.2583C16.3033 15.9535 16.3342 16.0927 16.3342 16.2502C16.3342 16.9393 15.7725 17.5002 15.0833 17.5002ZM17.1667 14.1668H14.6667V10.8335H18.8333V12.5002C18.8333 13.4193 18.0858 14.1668 17.1667 14.1668ZM0.5 1.66683C0.5 1.20683 0.8725 0.833496 1.33333 0.833496H8.12833C8.58917 0.833496 8.96167 1.20683 8.96167 1.66683C8.96167 2.12683 8.58917 2.50016 8.12833 2.50016H1.33333C0.8725 2.50016 0.5 2.12683 0.5 1.66683ZM0.5 5.00016C0.5 4.54016 0.8725 4.16683 1.33333 4.16683H6.46167C6.9225 4.16683 7.295 4.54016 7.295 5.00016C7.295 5.46016 6.9225 5.8335 6.46167 5.8335H1.33333C0.8725 5.8335 0.5 5.46016 0.5 5.00016Z" fill="url(#paint0_linear_2768_14945)"/>
</g>
<defs>
<linearGradient id="paint0_linear_2768_14945" x1="10.5288" y1="24.7323" x2="10.5288" y2="-15.0445" gradientUnits="userSpaceOnUse">
<stop stop-color="#03B04E"/>
<stop offset="1" stop-color="#02C320"/>
</linearGradient>
<clipPath id="clip0_2768_14945">
<rect width="20" height="20" fill="white" transform="translate(0.5)"/>
</clipPath>
</defs>
</svg>
