<svg width="25" height="24" viewBox="0 0 25 24" fill="none" xmlns="http://www.w3.org/2000/svg">
<g id="shipping-fast 1" clip-path="url(#clip0_1537_371)">
<path id="Vector" d="M19.5 5H17.423C17.087 3.097 15.67 1.526 13.749 1.032C13.22 0.895 12.67 1.217 12.531 1.751C12.393 2.286 12.716 2.831 13.251 2.968C14.575 3.309 15.5 4.504 15.5 5.874V17H4.5C3.397 17 2.5 16.103 2.5 15V11H5C5.553 11 6 10.552 6 10C6 9.448 5.553 9 5 9H2.5C1.397 9 0.5 9.897 0.5 11V15C0.5 16.88 1.804 18.461 3.555 18.887C3.519 19.088 3.5 19.293 3.5 19.5C3.5 21.43 5.07 23 7 23C8.93 23 10.5 21.43 10.5 19.5C10.5 19.331 10.487 19.165 10.463 19H14.537C14.513 19.165 14.5 19.331 14.5 19.5C14.5 21.43 16.07 23 18 23C19.93 23 21.5 21.43 21.5 19.5C21.5 19.293 21.481 19.088 21.445 18.887C23.196 18.461 24.5 16.88 24.5 15V10C24.5 7.243 22.257 5 19.5 5ZM22.5 10V11H17.5V7H19.5C21.154 7 22.5 8.346 22.5 10ZM8.5 19.5C8.5 20.327 7.827 21 7 21C6.173 21 5.5 20.327 5.5 19.5C5.5 19.311 5.537 19.144 5.591 19H8.41C8.464 19.144 8.501 19.311 8.501 19.5H8.5ZM18 21C17.173 21 16.5 20.327 16.5 19.5C16.5 19.311 16.537 19.144 16.591 19H19.41C19.464 19.144 19.501 19.311 19.501 19.5C19.501 20.327 18.827 21 18 21ZM20.5 17H17.5V13H22.5V15C22.5 16.103 21.603 17 20.5 17ZM0.5 2C0.5 1.448 0.947 1 1.5 1H9.654C10.207 1 10.654 1.448 10.654 2C10.654 2.552 10.207 3 9.654 3H1.5C0.947 3 0.5 2.552 0.5 2ZM0.5 6C0.5 5.448 0.947 5 1.5 5H7.654C8.207 5 8.654 5.448 8.654 6C8.654 6.552 8.207 7 7.654 7H1.5C0.947 7 0.5 6.552 0.5 6Z" fill="#013216"/>
</g>
<defs>
<clipPath id="clip0_1537_371">
<rect width="24" height="24" fill="white" transform="translate(0.5)"/>
</clipPath>
</defs>
</svg>
