<svg width="160" height="160" viewBox="0 0 160 160" fill="none" xmlns="http://www.w3.org/2000/svg">
<g clip-path="url(#clip0_1502_40753)">
<path opacity="0.5" d="M41.8215 4.33683C71.6684 -13.9003 75.9899 31.5519 91.6803 27.2297C107.371 22.9074 112.863 27.92 119.723 47.7594C129.814 76.9457 117.055 116.224 97.4466 111.754C61.9165 103.654 55.3544 124.957 29.5544 117.464C3.75442 109.971 -0.935103 61.9077 20.2309 46.9995C30.6994 39.6263 18.9307 18.3241 41.8215 4.33683Z" fill="#B1E7C8"/>
<path opacity="0.5" d="M127.275 12.2861C101.525 -3.44799 97.7971 35.7654 84.2601 32.0366C70.7231 28.3078 65.9846 32.632 60.067 49.7483C51.3613 74.9282 62.3685 108.814 79.2853 104.958C109.938 97.9707 115.6 116.349 137.858 109.885C160.116 103.42 164.162 61.9539 145.902 49.0922C136.871 42.7315 147.024 24.3532 127.275 12.2861Z" fill="#B1E7C8"/>
<path d="M34.2413 135.647C34.2413 135.647 157.24 131.528 159.295 134.474C161.349 137.421 147.483 146.24 131.229 147.041C114.976 147.843 104.906 142.984 86.9115 141.872C68.9168 140.759 48.7752 149.847 36.9697 149.046C25.1641 148.244 9.13684 142.123 6.6227 139.751C2.27094 135.647 34.2413 135.647 34.2413 135.647Z" fill="#E6F7ED"/>
<path d="M31.4216 48.5109C28.4931 48.5109 23.5355 48.327 23.2361 47.0936C23.1992 46.9405 23.1992 46.7045 23.4096 46.4481C23.7624 46.1205 31.7084 38.8115 33.7083 38.8115C33.7424 38.8115 33.7744 38.8133 33.8052 38.8176C35.5991 39.0471 41.485 43.5675 43.2049 46.0368C43.3675 46.2702 43.3411 46.4902 43.3105 46.6008C42.8806 48.1677 34.5827 48.5109 31.4216 48.5109ZM33.7083 39.2453C31.7917 39.2453 23.6623 46.724 23.5804 46.7995C23.5335 46.8593 23.5065 46.9235 23.5123 46.947C23.6227 47.4012 25.8199 48.0771 31.4216 48.0771C38.0026 48.0771 42.826 47.2129 43.0391 46.4372C43.0455 46.4129 43.0053 46.3544 43.0009 46.3479C41.3089 43.9189 35.5351 39.474 33.7802 39.2497C33.757 39.2467 33.7336 39.2453 33.7083 39.2453Z" fill="#0F2418"/>
<path d="M28.2162 42.5276C28.2162 42.5276 31.231 45.2963 33.2885 45.341C35.3459 45.3856 38.4127 41.4188 38.9202 41.1342C39.4277 40.8496 45.4729 45.2802 46.401 46.6559C47.329 48.0315 50.9746 61.834 50.3624 62.7155C49.7501 63.5974 45.082 63.9966 45.082 63.9966C45.082 63.9966 47.5847 86.3063 46.6963 87.9062C45.8078 89.5061 25.9374 88.4402 25.0264 88.7187C24.1153 88.9972 24.3472 65.5987 24.3472 65.5987C24.3472 65.5987 19.3941 66.4021 18.798 65.4785C18.2016 64.5549 21.9264 47.5192 22.8245 46.1453C23.7226 44.7718 28.2162 42.5276 28.2162 42.5276Z" fill="#0F2418"/>
<path d="M33.6523 39.0988C33.6397 39.0389 33.3468 37.6214 33.6849 36.6728C33.748 36.4954 33.8492 36.2945 33.966 36.0621C34.2713 35.4557 34.6514 34.7005 34.5343 34.0165C34.4609 33.5888 34.1888 33.2105 33.7257 32.8922C33.3162 32.6111 32.8886 32.8128 32.5828 33.4322C32.2376 34.1314 32.139 35.2414 32.6192 36.01L32.4034 36.3041C31.8164 35.3637 31.93 34.0186 32.3459 33.1763C32.7351 32.3881 33.3112 32.1292 33.8498 32.4983C34.3969 32.8744 34.7233 33.3493 34.8193 33.9098C34.9707 34.7937 34.5266 35.6764 34.202 36.321C34.0922 36.5388 33.9974 36.7274 33.9449 36.8749C33.6637 37.6635 33.9302 38.9569 33.9329 38.97L33.6523 39.0988Z" fill="#0F2418"/>
<path d="M32.973 47.9746C30.9592 47.9746 28.797 45.3833 28.696 45.2615L28.8821 44.9262C28.9085 44.9583 31.5442 48.1177 33.5758 47.4472C35.6368 46.7692 38.0641 43.2402 38.0884 43.2046L38.295 43.5126C38.1935 43.6613 35.7824 47.1656 33.6398 47.8709C33.4214 47.9421 33.1981 47.9746 32.973 47.9746Z" fill="#0F2418"/>
<path d="M7.39944 136.17L6.52832 135.98L16.7193 34.1792L17.5945 34.2408L21.1914 136.048L20.3121 136.116L16.945 40.8158L7.39944 136.17Z" fill="#0F2418"/>
<path d="M78.5945 136.17L77.7234 135.98L87.9147 34.1792L88.7896 34.2408L92.3865 136.048L91.5072 136.116L88.1404 40.8158L78.5945 136.17Z" fill="#0F2418"/>
<path d="M88.7891 33.6216H16.7146V34.9229H88.7891V33.6216Z" fill="#0F2418"/>
<path d="M79.1941 107.82H46.7456V136.762H79.1941V107.82Z" fill="#DF9D72"/>
<path d="M40.5044 48.5109C37.5758 48.5109 32.6183 48.327 32.3189 47.0936C32.2819 46.9405 32.2819 46.7045 32.4924 46.4481C32.8452 46.1201 40.7915 38.8115 42.7914 38.8115C42.8254 38.8115 42.8574 38.8133 42.8882 38.8176C44.6821 39.0471 50.568 43.5675 52.2879 46.0368C52.4505 46.2702 52.4241 46.4902 52.3936 46.6008C51.9633 48.1677 43.6654 48.5109 40.5044 48.5109ZM42.7914 39.2453C40.8748 39.2453 32.7454 46.724 32.6635 46.7995C32.6165 46.8593 32.5895 46.9235 32.5954 46.947C32.7057 47.4012 34.9029 48.0771 40.5047 48.0771C47.0856 48.0771 51.909 47.2129 52.1221 46.4372C52.1286 46.4129 52.0884 46.3544 52.084 46.3479C50.3919 43.9189 44.6184 39.474 42.8633 39.2497C42.8401 39.2467 42.8163 39.2453 42.7914 39.2453Z" fill="#0F2418"/>
<path d="M37.2989 42.5276C37.2989 42.5276 40.3138 45.2963 42.3712 45.341C44.4287 45.3856 47.4955 41.4188 48.003 41.1342C48.5104 40.8496 54.5557 45.2802 55.4838 46.6559C56.4118 48.0315 60.0574 61.834 59.4452 62.7155C58.8329 63.5974 54.1647 63.9966 54.1647 63.9966C54.1647 63.9966 56.6674 86.3063 55.779 87.9062C54.8906 89.5061 35.0202 88.4402 34.1091 88.7187C33.1981 88.9972 33.43 65.5987 33.43 65.5987C33.43 65.5987 28.4768 66.4021 27.8807 65.4785C27.2843 64.5549 31.0092 47.5192 31.9073 46.1453C32.8054 44.7714 37.2989 42.5276 37.2989 42.5276Z" fill="#F0D7B2"/>
<path d="M42.7357 39.0984C42.7231 39.0386 42.4302 37.6211 42.7683 36.6724C42.8314 36.495 42.9326 36.2942 43.0495 36.0617C43.3547 35.4553 43.7345 34.7001 43.6174 34.0161C43.544 33.5884 43.2719 33.2102 42.8088 32.8918C42.3999 32.6112 41.972 32.812 41.6659 33.4318C41.3207 34.131 41.2224 35.241 41.7023 36.0097L41.4866 36.3037C40.8993 35.3634 41.0131 34.0183 41.429 33.1764C41.8179 32.3878 42.3949 32.1293 42.9329 32.4984C43.48 32.8745 43.8064 33.3494 43.9024 33.9098C44.0538 34.7938 43.6098 35.6765 43.2854 36.3207C43.1757 36.5388 43.0809 36.7271 43.0283 36.8746C42.7471 37.6631 43.0136 38.9566 43.0163 38.9696L42.7357 39.0984Z" fill="#0F2418"/>
<path d="M42.0562 47.9746C40.0425 47.9746 37.8803 45.3833 37.7793 45.2615L37.9654 44.9262C37.9918 44.9583 40.6301 48.119 42.6591 47.4472C44.7203 46.7692 47.1476 43.2402 47.1717 43.2046L47.3783 43.5126C47.2767 43.6613 44.8656 47.1656 42.7228 47.8709C42.5047 47.9421 42.281 47.9746 42.0562 47.9746Z" fill="#0F2418"/>
<path d="M65.1331 48.5109C62.2045 48.5109 57.2469 48.327 56.9476 47.0936C56.9106 46.9405 56.9106 46.7045 57.121 46.4481C57.4738 46.1205 65.4198 38.8115 67.42 38.8115C67.4541 38.8115 67.4861 38.8133 67.5169 38.8176C69.3108 39.0471 75.1967 43.5675 76.9166 46.0368C77.0792 46.2702 77.0528 46.4902 77.0223 46.6008C76.592 48.1677 68.2941 48.5109 65.1331 48.5109ZM67.42 39.2453C65.5035 39.2453 57.374 46.724 57.2922 46.7995C57.2452 46.8593 57.2182 46.9235 57.2241 46.947C57.3344 47.4012 59.5316 48.0771 65.1334 48.0771C71.7143 48.0771 76.5377 47.2129 76.7508 46.4372C76.7572 46.4129 76.717 46.3544 76.7126 46.3479C75.0206 43.9189 69.2471 39.474 67.4919 39.2497C67.4688 39.2467 67.445 39.2453 67.42 39.2453Z" fill="#0F2418"/>
<path d="M61.9271 42.5276C61.9271 42.5276 64.942 45.2963 66.9995 45.341C69.0569 45.3856 72.1237 41.4188 72.6312 41.1342C73.1387 40.8496 79.1839 45.2802 80.112 46.6559C81.04 48.0315 84.6856 61.834 84.0734 62.7155C83.4611 63.5974 78.793 63.9966 78.793 63.9966C78.793 63.9966 81.2957 86.3063 80.4073 87.9062C79.5188 89.5061 59.6484 88.4402 58.7374 88.7187C57.8263 88.9972 58.0582 65.5987 58.0582 65.5987C58.0582 65.5987 53.105 66.4021 52.5086 65.4785C51.9122 64.5549 55.6371 47.5192 56.5352 46.1453C57.4333 44.7714 61.9271 42.5276 61.9271 42.5276Z" fill="#D16F42"/>
<path d="M67.3641 39.0984C67.3515 39.0386 67.0586 37.6211 67.3967 36.6724C67.4598 36.495 67.5611 36.2942 67.6779 36.0617C67.9831 35.4553 68.3629 34.7001 68.2458 34.0161C68.1724 33.5884 67.9004 33.2102 67.4372 32.8918C67.0281 32.6112 66.6004 32.812 66.2943 33.4318C65.9491 34.131 65.8508 35.241 66.3307 36.0097L66.115 36.3037C65.5277 35.3634 65.6416 34.0183 66.0574 33.1764C66.4466 32.3878 67.0231 32.1293 67.5614 32.4984C68.1084 32.8745 68.4348 33.3494 68.5308 33.9098C68.6822 34.7938 68.2382 35.6765 67.9139 36.3207C67.8041 36.5388 67.7093 36.7271 67.6567 36.8746C67.3756 37.6631 67.6421 38.9566 67.6447 38.9696L67.3641 39.0984Z" fill="#0F2418"/>
<path d="M66.6851 47.9746C64.6714 47.9746 62.5092 45.3833 62.4082 45.2615L62.5943 44.9262C62.621 44.9583 65.2575 48.119 67.288 47.4472C69.3492 46.7692 71.7765 43.2402 71.8006 43.2046L72.0072 43.5126C71.9057 43.6613 69.4945 47.1656 67.3517 47.8709C67.1336 47.9421 66.9102 47.9746 66.6851 47.9746Z" fill="#0F2418"/>
<path d="M100.251 79.1816H73.7375V108.123H100.251V79.1816Z" fill="#DF9D72"/>
<path d="M148.466 128.689C148.466 128.689 151.015 112.261 147.156 99.786C143.297 87.3111 141.343 80.1413 140.861 81.4336C140.378 82.726 140.742 93.6136 142.473 102.305C144.203 110.995 147.133 124.076 148.466 128.689Z" fill="#76A6A5"/>
<path d="M145.913 110.495C145.295 98.0377 142.296 91.4653 142.265 91.3998L142.507 91.1538C142.538 91.2197 145.581 97.8785 146.206 110.464L145.913 110.495Z" fill="#402549"/>
<path d="M152.199 129.78C152.199 129.78 149.65 116.412 153.509 106.26C157.368 96.1087 159.322 90.2743 159.804 91.3263C160.287 92.3779 159.923 101.238 158.192 108.31C156.461 115.382 153.532 126.026 152.199 129.78Z" fill="#4D7D80"/>
<path d="M152.252 124.397C152.252 124.397 147.781 113.479 149.869 101.252C151.957 89.024 152.908 82.1757 153.526 82.843C154.144 83.5102 155.165 92.1406 154.617 100.009C154.068 107.877 152.936 119.939 152.252 124.397Z" fill="#76A6A5"/>
<path d="M147.381 127.305C147.381 127.305 153.47 122.92 152.201 98.6769C151.442 84.1795 149.615 76.3386 148.755 77.3021C147.895 78.2656 145.925 88.9736 146.068 98.3641C146.211 107.755 146.812 122.078 147.381 127.305Z" fill="#4D7D80"/>
<path d="M148.034 127.529L147.754 127.395C147.778 127.285 150.159 116.29 148.926 109.744C147.673 103.097 148.507 89.0321 148.516 88.8906L148.808 88.9297C148.8 89.0698 147.971 103.057 149.209 109.629C150.466 116.301 148.134 127.074 148.034 127.529Z" fill="#402549"/>
<path d="M152.11 124.448C150.319 111.737 153.298 94.5859 153.328 94.4146L153.612 94.5239C153.582 94.6948 150.62 111.749 152.397 124.36L152.11 124.448Z" fill="#402549"/>
<path d="M154.405 116.292L154.112 116.253C154.738 105.998 158.126 99.2641 158.16 99.1973L158.394 99.4593C158.361 99.5244 155.022 106.167 154.405 116.292Z" fill="#402549"/>
<path d="M146.313 131.376C146.313 131.376 148.862 118.008 145.003 107.856C141.144 97.7049 139.19 91.8705 138.708 92.9225C138.225 93.9741 138.588 102.834 140.32 109.906C142.05 116.978 144.98 127.623 146.313 131.376Z" fill="#4D7D80"/>
<path d="M144.106 117.908C143.488 107.782 140.149 101.141 140.116 101.075L140.35 100.813C140.384 100.88 143.772 107.614 144.398 117.869L144.106 117.908Z" fill="#402549"/>
<path d="M142.438 119.704C142.438 119.704 155.462 118.251 155.605 119.849C155.749 121.447 155.565 133.419 154.258 136.299L143.731 135.978C141.948 133.726 142.438 119.704 142.438 119.704Z" fill="#D16F42"/>
<path d="M48.94 157.653V150.653H50.23V156.453H53.46V157.653H48.94ZM57.0201 157.753C56.4667 157.753 55.9767 157.64 55.5501 157.413C55.1301 157.18 54.8001 156.863 54.5601 156.463C54.3267 156.057 54.2101 155.59 54.2101 155.063C54.2101 154.65 54.2767 154.273 54.4101 153.933C54.5434 153.593 54.7301 153.3 54.9701 153.053C55.2101 152.8 55.4934 152.607 55.8201 152.473C56.1534 152.333 56.5134 152.263 56.9001 152.263C57.2534 152.263 57.5767 152.33 57.8701 152.463C58.1701 152.597 58.4301 152.78 58.6501 153.013C58.8701 153.24 59.0367 153.513 59.1501 153.833C59.2701 154.147 59.3267 154.49 59.3201 154.863L59.3101 155.303H55.0501L54.8101 154.453H58.2801L58.1301 154.623V154.393C58.1101 154.193 58.0434 154.017 57.9301 153.863C57.8167 153.703 57.6701 153.58 57.4901 153.493C57.3167 153.4 57.1234 153.353 56.9101 153.353C56.5834 153.353 56.3067 153.417 56.0801 153.543C55.8534 153.663 55.6801 153.843 55.5601 154.083C55.4467 154.323 55.3901 154.62 55.3901 154.973C55.3901 155.313 55.4601 155.61 55.6001 155.863C55.7467 156.117 55.9534 156.313 56.2201 156.453C56.4867 156.593 56.7967 156.663 57.1501 156.663C57.3967 156.663 57.6234 156.623 57.8301 156.543C58.0434 156.463 58.2701 156.32 58.5101 156.113L59.1101 156.953C58.9301 157.12 58.7234 157.263 58.4901 157.383C58.2634 157.497 58.0234 157.587 57.7701 157.653C57.5167 157.72 57.2667 157.753 57.0201 157.753ZM60.9895 157.653V151.043H62.2095V157.653H60.9895ZM59.9495 153.523V152.383H63.3595V153.523H59.9495ZM64.1962 153.063L63.7862 152.563C64.0528 152.443 64.2695 152.303 64.4362 152.143C64.6095 151.983 64.6962 151.847 64.6962 151.733C64.6962 151.647 64.6628 151.57 64.5962 151.503C64.5295 151.43 64.4628 151.37 64.3962 151.323C64.2428 151.203 64.1395 151.1 64.0862 151.013C64.0328 150.92 64.0062 150.823 64.0062 150.723C64.0062 150.55 64.0695 150.41 64.1962 150.303C64.3228 150.197 64.4862 150.143 64.6862 150.143C64.8795 150.143 65.0528 150.193 65.2062 150.293C65.3595 150.393 65.4795 150.53 65.5662 150.703C65.6595 150.877 65.7062 151.083 65.7062 151.323C65.7062 151.51 65.6662 151.693 65.5862 151.873C65.5128 152.053 65.4062 152.223 65.2662 152.383C65.1328 152.537 64.9728 152.673 64.7862 152.793C64.6062 152.913 64.4095 153.003 64.1962 153.063ZM68.5757 157.753C68.1157 157.753 67.699 157.677 67.3257 157.523C66.959 157.363 66.659 157.137 66.4257 156.843L67.2157 156.163C67.4157 156.383 67.639 156.547 67.8857 156.653C68.1324 156.753 68.3924 156.803 68.6657 156.803C68.779 156.803 68.879 156.79 68.9657 156.763C69.059 156.737 69.139 156.697 69.2057 156.643C69.2724 156.59 69.3224 156.527 69.3557 156.453C69.3957 156.38 69.4157 156.3 69.4157 156.213C69.4157 156.053 69.3557 155.927 69.2357 155.833C69.169 155.793 69.0657 155.747 68.9257 155.693C68.7857 155.633 68.6024 155.577 68.3757 155.523C68.0157 155.43 67.7124 155.323 67.4657 155.203C67.2257 155.077 67.039 154.937 66.9057 154.783C66.7924 154.65 66.709 154.507 66.6557 154.353C66.6024 154.193 66.5757 154.017 66.5757 153.823C66.5757 153.523 66.6624 153.257 66.8357 153.023C67.0157 152.79 67.2524 152.607 67.5457 152.473C67.839 152.34 68.1657 152.273 68.5257 152.273C68.7924 152.273 69.049 152.307 69.2957 152.373C69.549 152.44 69.7824 152.537 69.9957 152.663C70.209 152.783 70.3924 152.93 70.5457 153.103L69.8657 153.853C69.7457 153.733 69.609 153.627 69.4557 153.533C69.309 153.433 69.159 153.357 69.0057 153.303C68.8524 153.25 68.709 153.223 68.5757 153.223C68.449 153.223 68.3357 153.237 68.2357 153.263C68.1357 153.283 68.0524 153.317 67.9857 153.363C67.919 153.41 67.8657 153.47 67.8257 153.543C67.7924 153.61 67.7757 153.687 67.7757 153.773C67.7824 153.86 67.8024 153.94 67.8357 154.013C67.8757 154.08 67.929 154.137 67.9957 154.183C68.0624 154.23 68.169 154.283 68.3157 154.343C68.4624 154.403 68.6524 154.46 68.8857 154.513C69.2124 154.6 69.4857 154.697 69.7057 154.803C69.9257 154.91 70.099 155.033 70.2257 155.173C70.3524 155.293 70.4424 155.433 70.4957 155.593C70.549 155.753 70.5757 155.933 70.5757 156.133C70.5757 156.447 70.4857 156.727 70.3057 156.973C70.1324 157.213 69.8957 157.403 69.5957 157.543C69.2957 157.683 68.9557 157.753 68.5757 157.753ZM74.8091 157.653V150.653H77.6191C78.1258 150.653 78.5825 150.737 78.9891 150.903C79.4025 151.07 79.7558 151.31 80.0491 151.623C80.3425 151.937 80.5691 152.307 80.7291 152.733C80.8891 153.16 80.9691 153.633 80.9691 154.153C80.9691 154.673 80.8891 155.15 80.7291 155.583C80.5691 156.01 80.3425 156.38 80.0491 156.693C79.7625 157 79.4125 157.237 78.9991 157.403C78.5858 157.57 78.1258 157.653 77.6191 157.653H74.8091ZM76.0991 156.643L76.0091 156.453H77.5691C77.8958 156.453 78.1891 156.4 78.4491 156.293C78.7091 156.187 78.9258 156.037 79.0991 155.843C79.2791 155.643 79.4158 155.4 79.5091 155.113C79.6091 154.827 79.6591 154.507 79.6591 154.153C79.6591 153.8 79.6091 153.483 79.5091 153.203C79.4158 152.917 79.2791 152.673 79.0991 152.473C78.9191 152.273 78.6991 152.12 78.4391 152.013C78.1858 151.907 77.8958 151.853 77.5691 151.853H75.9791L76.0991 151.683V156.643ZM84.5477 157.753C84.0211 157.753 83.5511 157.637 83.1377 157.403C82.7244 157.163 82.3977 156.837 82.1577 156.423C81.9244 156.01 81.8077 155.54 81.8077 155.013C81.8077 154.487 81.9244 154.017 82.1577 153.603C82.3977 153.19 82.7244 152.867 83.1377 152.633C83.5511 152.393 84.0211 152.273 84.5477 152.273C85.0677 152.273 85.5344 152.393 85.9477 152.633C86.3611 152.867 86.6844 153.19 86.9177 153.603C87.1577 154.017 87.2777 154.487 87.2777 155.013C87.2777 155.54 87.1577 156.01 86.9177 156.423C86.6844 156.837 86.3611 157.163 85.9477 157.403C85.5344 157.637 85.0677 157.753 84.5477 157.753ZM84.5477 156.663C84.8344 156.663 85.0911 156.593 85.3177 156.453C85.5444 156.307 85.7211 156.11 85.8477 155.863C85.9811 155.61 86.0444 155.327 86.0377 155.013C86.0444 154.693 85.9811 154.41 85.8477 154.163C85.7211 153.91 85.5444 153.713 85.3177 153.573C85.0911 153.433 84.8344 153.363 84.5477 153.363C84.2611 153.363 84.0011 153.437 83.7677 153.583C83.5411 153.723 83.3644 153.92 83.2377 154.173C83.1111 154.42 83.0477 154.7 83.0477 155.013C83.0477 155.327 83.1111 155.61 83.2377 155.863C83.3644 156.11 83.5411 156.307 83.7677 156.453C84.0011 156.593 84.2611 156.663 84.5477 156.663ZM88.3782 157.653V152.383H89.5682L89.5882 153.463L89.3582 153.583C89.4315 153.35 89.5615 153.137 89.7482 152.943C89.9415 152.743 90.1715 152.583 90.4382 152.463C90.7049 152.337 90.9815 152.273 91.2682 152.273C91.6682 152.273 92.0015 152.353 92.2682 152.513C92.5415 152.673 92.7449 152.913 92.8782 153.233C93.0115 153.553 93.0782 153.953 93.0782 154.433V157.653H91.8582V154.523C91.8582 154.25 91.8215 154.027 91.7482 153.853C91.6749 153.673 91.5615 153.543 91.4082 153.463C91.2549 153.377 91.0682 153.34 90.8482 153.353C90.6682 153.353 90.5015 153.383 90.3482 153.443C90.1949 153.497 90.0615 153.577 89.9482 153.683C89.8415 153.783 89.7549 153.903 89.6882 154.043C89.6282 154.177 89.5982 154.323 89.5982 154.483V157.653H88.9882C88.8749 157.653 88.7649 157.653 88.6582 157.653C88.5582 157.653 88.4649 157.653 88.3782 157.653ZM97.482 157.653V154.283C97.482 153.997 97.3853 153.773 97.192 153.613C97.0053 153.447 96.762 153.363 96.462 153.363C96.182 153.363 95.9286 153.42 95.702 153.533C95.4753 153.64 95.2653 153.813 95.072 154.053L94.312 153.293C94.6253 152.96 94.972 152.707 95.352 152.533C95.732 152.36 96.142 152.273 96.582 152.273C97.002 152.273 97.362 152.34 97.662 152.473C97.9686 152.607 98.2053 152.807 98.372 153.073C98.5386 153.333 98.622 153.653 98.622 154.033V157.653H97.482ZM95.982 157.753C95.642 157.753 95.3386 157.687 95.072 157.553C94.8053 157.42 94.592 157.237 94.432 157.003C94.2786 156.763 94.202 156.483 94.202 156.163C94.202 155.883 94.252 155.64 94.352 155.433C94.452 155.22 94.5986 155.043 94.792 154.903C94.992 154.763 95.2386 154.66 95.532 154.593C95.832 154.52 96.1753 154.483 96.562 154.483H98.072L97.982 155.363H96.492C96.312 155.363 96.152 155.38 96.012 155.413C95.872 155.447 95.752 155.497 95.652 155.563C95.552 155.63 95.4786 155.71 95.432 155.803C95.3853 155.89 95.362 155.997 95.362 156.123C95.362 156.257 95.3953 156.373 95.462 156.473C95.5286 156.567 95.6186 156.64 95.732 156.693C95.8453 156.747 95.9786 156.773 96.132 156.773C96.352 156.773 96.5586 156.737 96.752 156.663C96.952 156.59 97.1286 156.487 97.282 156.353C97.4353 156.22 97.5553 156.07 97.642 155.903L97.892 156.583C97.752 156.817 97.5786 157.02 97.372 157.193C97.172 157.367 96.952 157.503 96.712 157.603C96.4786 157.703 96.2353 157.753 95.982 157.753ZM100.501 157.653V151.043H101.721V157.653H100.501ZM99.4612 153.523V152.383H102.871V153.523H99.4612ZM106.229 157.753C105.676 157.753 105.186 157.64 104.759 157.413C104.339 157.18 104.009 156.863 103.769 156.463C103.536 156.057 103.419 155.59 103.419 155.063C103.419 154.65 103.486 154.273 103.619 153.933C103.752 153.593 103.939 153.3 104.179 153.053C104.419 152.8 104.702 152.607 105.029 152.473C105.362 152.333 105.722 152.263 106.109 152.263C106.462 152.263 106.786 152.33 107.079 152.463C107.379 152.597 107.639 152.78 107.859 153.013C108.079 153.24 108.246 153.513 108.359 153.833C108.479 154.147 108.536 154.49 108.529 154.863L108.519 155.303H104.259L104.019 154.453H107.489L107.339 154.623V154.393C107.319 154.193 107.252 154.017 107.139 153.863C107.026 153.703 106.879 153.58 106.699 153.493C106.526 153.4 106.332 153.353 106.119 153.353C105.792 153.353 105.516 153.417 105.289 153.543C105.062 153.663 104.889 153.843 104.769 154.083C104.656 154.323 104.599 154.62 104.599 154.973C104.599 155.313 104.669 155.61 104.809 155.863C104.956 156.117 105.162 156.313 105.429 156.453C105.696 156.593 106.006 156.663 106.359 156.663C106.606 156.663 106.832 156.623 107.039 156.543C107.252 156.463 107.479 156.32 107.719 156.113L108.319 156.953C108.139 157.12 107.932 157.263 107.699 157.383C107.472 157.497 107.232 157.587 106.979 157.653C106.726 157.72 106.476 157.753 106.229 157.753ZM109.818 155.193C109.772 154.78 109.725 154.35 109.678 153.903C109.638 153.457 109.605 153.013 109.578 152.573C109.558 152.133 109.548 151.717 109.548 151.323V150.613H110.828V151.323C110.828 151.737 110.815 152.17 110.788 152.623C110.768 153.07 110.735 153.513 110.688 153.953C110.648 154.393 110.605 154.807 110.558 155.193H109.818ZM110.168 157.763C109.928 157.763 109.742 157.693 109.608 157.553C109.482 157.413 109.418 157.217 109.418 156.963C109.418 156.73 109.485 156.54 109.618 156.393C109.758 156.24 109.942 156.163 110.168 156.163C110.402 156.163 110.585 156.233 110.718 156.373C110.852 156.507 110.918 156.703 110.918 156.963C110.918 157.197 110.848 157.39 110.708 157.543C110.568 157.69 110.388 157.763 110.168 157.763Z" fill="#0F2418"/>
<path d="M62.5471 135.812C62.5471 135.812 62.7549 139.9 63.0596 140.645C63.3642 141.389 70.7681 141.419 71.5418 141.029C72.3152 140.639 68.1812 137.513 67.7471 136.71C67.313 135.907 67.4116 134.541 67.4116 134.541L62.5471 135.812Z" fill="#D16F42"/>
<path d="M69.0387 140.105L68.7493 140.033C68.8881 138.811 69.6227 137.774 69.6538 137.73L69.8555 138.046C69.8484 138.056 69.1611 139.028 69.0387 140.105Z" fill="#0F2418"/>
<path d="M67.8577 139.606L67.5962 139.409C67.907 138.508 68.7552 137.263 68.791 137.21L68.9974 137.519C68.9892 137.531 68.1471 138.768 67.8577 139.606Z" fill="#0F2418"/>
<path d="M66.981 138.834L66.7034 138.695C66.9352 137.688 67.9058 136.416 67.9469 136.363L68.1409 136.688C68.1316 136.7 67.1879 137.936 66.981 138.834Z" fill="#0F2418"/>
<path d="M49.0551 135.807C49.0551 135.807 48.8478 139.881 48.5444 140.623C48.2409 141.365 40.8625 141.395 40.0921 141.006C39.3216 140.617 43.4409 137.502 43.8736 136.702C44.3062 135.902 44.2079 134.54 44.2079 134.54L49.0551 135.807Z" fill="#D16F42"/>
<path d="M71.1098 134.114C71.1098 134.114 67.3591 74.464 65.5673 67.1164C63.7754 59.7687 41.66 65.0379 40.8312 65.9455C40.0023 66.853 39.3519 133.508 39.9953 134.535C40.6474 135.577 52.1263 136.919 52.7309 136.012C54.0599 134.018 54.4655 87.1493 55.2477 84.1195C56.1361 80.6789 58.2511 133.193 60.5988 135.353C62.9466 137.514 71.1098 134.114 71.1098 134.114Z" fill="#76A6A5"/>
<path d="M55.161 81.4926C55.1261 81.4926 55.0979 81.4809 55.0803 81.4713C54.5854 81.198 54.3906 76.8572 54.3184 74.2942L54.6116 74.276C54.6943 77.206 54.9244 80.5186 55.1622 81.0232C55.8713 79.8896 56.5399 77.8307 55.8284 74.3475L56.1093 74.2222C56.8712 77.9509 56.1196 80.1594 55.355 81.3555C55.2855 81.4644 55.2153 81.4926 55.161 81.4926Z" fill="#0F2418"/>
<path d="M60.4513 131.193C60.439 130.788 59.2081 90.6413 57.1885 86.032L57.4347 85.7964C59.4975 90.5038 60.6944 129.515 60.7446 131.174L60.4513 131.193Z" fill="#0F2418"/>
<path d="M51.3403 133.277C51.3371 131.607 51.2822 92.3061 53.1968 86.7168L53.4589 86.9124C51.5757 92.4094 51.6333 132.868 51.6341 133.277L51.3403 133.277Z" fill="#0F2418"/>
<path d="M65.4855 80.5081C63.7201 78.7333 62.0993 72.3405 62.0312 72.0689L62.3066 71.918C62.323 71.983 63.9625 78.4522 65.6507 80.1489L65.4855 80.5081Z" fill="#0F2418"/>
<path d="M41.425 81.4464L41.2612 81.0863C41.2959 81.0516 44.7354 77.5619 44.3797 72.0012L44.6717 71.9604C45.0445 77.7819 41.4611 81.4104 41.425 81.4464Z" fill="#0F2418"/>
<path d="M37.2694 42.0548C37.2694 42.0548 31.0424 55.5111 31.605 57.2078C32.1677 58.9044 37.8276 61.2944 39.3421 62.2201C40.8565 63.1459 46.9153 50.9009 46.3571 49.0112C45.7991 47.1214 39.9798 34.9814 37.2694 42.0548Z" fill="#D27878"/>
<path d="M71.0453 25.4865C71.0453 25.4865 69.8986 17.4248 70.9582 18.0083C72.0177 18.5917 72.0177 22.7551 72.0177 22.7551C72.0177 22.7551 72.6972 15.0292 73.3027 16.4174C73.9082 17.8057 73.9002 21.8966 73.9002 21.8966C73.9002 21.8966 74.9416 16.1649 75.5471 17.2634C76.1526 18.3618 75.2186 22.441 75.2186 22.441C75.2186 22.441 76.643 18.8056 77.0081 20.2264C77.2083 21.0051 76.0269 23.4531 75.8755 26.3281C75.7241 29.203 78.1842 52.7807 76.6483 54.0852C75.1127 55.3897 67.9439 54.3499 65.2487 49.023C64.4128 47.371 66.6272 38.118 67.506 37.7076C68.3847 37.2977 71.1428 40.7261 71.1428 40.7261C71.1428 40.7261 71.0245 27.5584 71.0453 25.4865Z" fill="#D27878"/>
<path d="M73.4647 26.7755L73.2554 26.6745C73.2586 26.6601 73.561 25.2587 73.1726 24.4679C72.9942 24.1049 72.689 23.9205 72.2651 23.9205V23.5952C72.7635 23.5952 73.1289 23.8247 73.3511 24.2775C73.8051 25.2031 73.4788 26.7118 73.4647 26.7755Z" fill="#0F2418"/>
<path d="M71.4427 23.8981C71.4427 23.8981 69.5267 21.3792 69.3623 22.1886C69.198 22.9976 70.8099 26.2334 71.0441 26.3145C71.2786 26.3952 72.135 24.7404 71.4427 23.8981Z" fill="#D27878"/>
<path d="M64.7501 33.6328C64.7501 33.6328 70.4764 37.509 70.5336 39.6642C70.5908 41.819 69.8148 49.449 68.4386 52.1734C67.0623 54.8978 62.6988 48.5354 61.1045 47.3572C59.5099 46.1789 61.9507 31.4862 64.7501 33.6328Z" fill="url(#paint0_linear_1502_40753)"/>
<path d="M54.2745 18.6548C54.2745 18.6548 53.3823 26.1018 54.2745 29.2474C55.1668 32.393 61.0782 28.9294 62.8627 39.5636C64.6472 50.1979 64.8157 59.2773 63.3658 60.0083C61.9159 60.7397 45.4924 60.3467 44.4868 60.6573C41.3628 61.6226 41.4482 34.7951 42.5635 33.8298C43.6788 32.8646 48.698 31.1432 49.2557 30.2022C49.8133 29.2613 48.9211 21.0503 48.9211 21.0503L54.2745 18.6548Z" fill="#D27878"/>
<path d="M53.1871 11.2097C53.1871 11.2097 49.4015 11.0123 47.8386 12.9684C46.2757 14.9245 47.4057 17.7113 47.3185 20.3581C47.2269 23.1419 48.5794 24.8056 48.5794 24.8056C48.5794 24.8056 50.815 26.6984 52.2446 26.4979C52.8117 26.4186 56.8327 22.82 55.7989 19.2774C54.7215 15.5865 54.7858 11.0895 53.1871 11.2097Z" fill="#D27878"/>
<path d="M48.7828 17.8C48.7828 17.8 49.1365 17.7653 49.6853 17.587C50.2342 17.4087 49.4581 17.0218 49.1127 17.0925C48.7672 17.1632 48.4646 17.8546 48.7828 17.8Z" fill="#F0D7B2"/>
<path d="M53.4444 16.5125C53.4444 16.5125 53.1151 16.7064 52.5677 16.8946C52.0204 17.0829 52.6082 16.2401 52.9405 16.084C53.2727 15.9274 53.7476 16.3594 53.4444 16.5125Z" fill="#F0D7B2"/>
<path d="M54.7629 20.0759C54.7629 20.0759 54.9915 17.8819 55.9521 17.8199C56.9128 17.7579 57.2201 20.4285 55.9703 21.1611C54.7203 21.8942 54.7629 20.0759 54.7629 20.0759Z" fill="#D27878"/>
<path d="M48.2033 21.7647C48.2033 21.7647 47.4907 19.8106 46.5715 20.2279C45.6522 20.6451 45.968 23.3136 47.312 23.3852C48.6556 23.4568 48.2033 21.7647 48.2033 21.7647Z" fill="#D27878"/>
<path d="M47.3147 20.7566C48.0329 20.8855 46.8477 16.2323 47.6428 14.3096C48.4379 12.3873 49.6061 14.1773 50.8347 13.7881C52.0633 13.399 52.2864 11.2685 53.3051 12.1847C54.3238 13.1014 54.7213 18.0261 55.2842 18.3203C55.8474 18.614 55.8553 18.4131 55.9628 16.3707C56.0702 14.3287 55.4427 10.2981 53.613 9.16579C51.7833 8.03352 47.3482 9.14583 46.2596 12.0572C44.8132 15.9234 46.5965 20.6278 47.3147 20.7566Z" fill="#F0D7B2"/>
<path d="M55.4899 15.3952C55.1413 14.4101 54.4175 14.126 54.4102 14.123L54.465 13.8076C54.4985 13.8202 55.2918 14.1316 55.6854 15.2442L55.4899 15.3952Z" fill="#0F2418"/>
<path d="M46.2451 14.672L46.0637 14.4877C46.8353 12.8295 47.6228 13.2393 47.656 13.2571L47.5791 13.5621L47.6175 13.4094L47.58 13.5625C47.5532 13.5482 46.914 13.2346 46.2451 14.672Z" fill="#0F2418"/>
<path d="M46.1746 18.111L45.9568 18.0659C46.0754 16.8227 46.7519 16.1365 46.7809 16.1079L46.9039 16.3777C46.8975 16.3838 46.2793 17.0149 46.1746 18.111Z" fill="#0F2418"/>
<path d="M53.3152 19.1585C53.4793 19.1167 53.5877 18.8723 53.5574 18.6126C53.5271 18.353 53.3695 18.1764 53.2055 18.2182C53.0414 18.26 52.933 18.5044 52.9633 18.7641C52.9936 19.0238 53.1512 19.2004 53.3152 19.1585Z" fill="#0F2418"/>
<path d="M49.6255 20.2484C49.7896 20.2066 49.898 19.9621 49.8677 19.7025C49.8374 19.4428 49.6798 19.2662 49.5158 19.3081C49.3517 19.3499 49.2433 19.5943 49.2736 19.854C49.3039 20.1136 49.4615 20.2902 49.6255 20.2484Z" fill="#0F2418"/>
<path d="M47.454 18.8669C47.454 18.8669 47.8805 25.1868 49.1481 24.2436C50.4158 23.3009 50.859 21.3444 51.8255 21.3691C52.792 21.3939 53.4849 23.0819 54.5947 22.1578C55.7047 21.2338 54.6146 17.0765 54.9257 16.9611C55.2368 16.8457 55.7443 17.2635 55.8479 17.542C55.9515 17.8205 55.9257 22.081 56.1634 23.012C56.4009 23.9426 55.2098 27.0244 53.3455 27.7524C51.4815 28.4808 49.3806 28.5207 48.3862 26.8535C47.7707 25.8219 47.2644 19.9028 46.9196 19.8182C46.5753 19.7349 47.454 18.8669 47.454 18.8669Z" fill="#F0D7B2"/>
<path d="M46.0293 12.7879C46.0293 12.7879 46.4704 10.4395 47.9362 8.3792C49.102 6.74047 51.8462 7.27269 52.7578 6.42079C53.6695 5.5689 54.2154 7.0402 53.7103 7.72683C53.7103 7.72683 54.297 7.14387 54.6732 7.4193C55.0495 7.69517 54.7672 8.66461 54.3607 9.04762C54.3607 9.04762 54.9729 8.6889 55.2978 9.38855C55.6224 10.0886 55.4813 11.0451 54.3806 11.2992C53.2794 11.5539 48.5073 10.8776 46.0293 12.7879Z" fill="#F0D7B2"/>
<path d="M49.4708 11.0538L49.2524 11.013C49.2601 10.922 49.4535 8.78093 50.359 8.35195C50.8764 8.10644 51.3956 8.01925 51.8538 7.94205C52.1602 7.89043 52.4496 7.84185 52.7023 7.75293L52.7533 8.06914C52.4877 8.16239 52.1919 8.21228 51.8787 8.2652C51.4308 8.34067 50.9231 8.42612 50.4262 8.66165C49.6528 9.02817 49.4723 11.0334 49.4708 11.0538Z" fill="#0F2418"/>
<path d="M50.6869 11.6806L50.4756 11.5891C50.4897 11.5175 50.8404 9.83716 52.5442 9.78815C53.5879 9.75865 54.0061 8.85384 54.0102 8.84473L54.1937 9.02474C54.1743 9.06768 53.7062 10.0805 52.5486 10.1135C51.013 10.1573 50.6992 11.6186 50.6869 11.6806Z" fill="#0F2418"/>
<path d="M48.5595 12.3663C47.3805 10.4014 48.2903 9.10926 48.2994 9.09668L48.4497 9.33438C48.4183 9.37862 47.6919 10.4305 48.7244 12.1503L48.5595 12.3663Z" fill="#0F2418"/>
<path d="M54.9509 12.1885C53.9955 11.1657 53.4643 11.7769 53.4417 11.8038L53.3008 11.5539C53.3281 11.5201 53.9776 10.745 55.08 11.9252L54.9509 12.1885Z" fill="#0F2418"/>
<path d="M51.5873 18.6367C51.5873 18.6367 52.1655 20.884 52.1142 21.185C52.0628 21.4856 51.1494 21.3902 51.1494 21.3902" fill="#D27878"/>
<path d="M51.4819 21.573C51.3675 21.573 51.2506 21.5652 51.1394 21.5539L51.155 21.2295C51.5527 21.2715 51.9527 21.2247 52.0105 21.1301C52.0237 20.9584 51.754 19.7521 51.4825 18.6959L51.6883 18.5801C51.8655 19.2702 52.2726 20.9094 52.2189 21.2256C52.1725 21.4971 51.84 21.573 51.4819 21.573Z" fill="#0F2418"/>
<path d="M51.8568 23.6148C51.3247 23.6148 50.9106 23.0514 50.8921 23.0258L51.0424 22.7881C51.0465 22.7942 51.4585 23.3511 51.9408 23.2839C52.224 23.2435 52.4808 22.9933 52.7045 22.5396L52.8823 22.7308C52.6194 23.2639 52.3091 23.5589 51.9599 23.6079C51.9252 23.6127 51.8909 23.6148 51.8568 23.6148Z" fill="#0F2418"/>
<path d="M49.4699 22.1135C48.779 22.1135 48.1923 21.3822 48.0749 20.375C48.0107 19.8237 48.0952 19.2685 48.3135 18.8113C48.5319 18.3542 48.8574 18.0501 49.2305 17.9551C49.3106 17.9347 49.3925 17.9243 49.4732 17.9243C50.1641 17.9243 50.7508 18.6556 50.8682 19.6632C50.9325 20.2145 50.8479 20.7698 50.6296 21.2269C50.4112 21.6841 50.0854 21.9882 49.7124 22.0832C49.6323 22.1031 49.5507 22.1135 49.4699 22.1135ZM49.4732 18.2492C49.4051 18.2492 49.3358 18.2579 49.268 18.2752C48.9528 18.3555 48.6778 18.6123 48.4935 18.9983C48.3091 19.3843 48.2372 19.8537 48.2918 20.3191C48.391 21.1701 48.8865 21.7878 49.4699 21.7878C49.538 21.7878 49.607 21.7791 49.6748 21.7618C49.99 21.6815 50.265 21.4247 50.4497 21.0387C50.634 20.6526 50.7056 20.1833 50.6513 19.7179C50.5518 18.8669 50.0564 18.2492 49.4732 18.2492Z" fill="#0F2418"/>
<path d="M53.3625 21.1145C52.6716 21.1145 52.0849 20.3831 51.9675 19.376C51.9032 18.8247 51.9878 18.269 52.2061 17.8123C52.4245 17.3555 52.7503 17.051 53.1233 16.9556C53.2035 16.9352 53.285 16.9248 53.3658 16.9248C54.0567 16.9248 54.6434 17.6561 54.7608 18.6637C54.825 19.215 54.7405 19.7702 54.5222 20.2274C54.3038 20.6846 53.9783 20.9887 53.6053 21.0837C53.5248 21.1045 53.4432 21.1145 53.3625 21.1145ZM53.3655 17.2501C53.2974 17.2501 53.2284 17.2588 53.1606 17.2761C52.8454 17.3564 52.5704 17.6136 52.3858 17.9997C52.2014 18.3857 52.1298 18.855 52.1841 19.3204C52.2833 20.1715 52.7788 20.7891 53.3622 20.7891C53.4303 20.7891 53.4993 20.7805 53.5671 20.7631C53.8823 20.6829 54.1573 20.4261 54.3416 20.04C54.526 19.654 54.5979 19.1847 54.5433 18.7193C54.4444 17.8682 53.9489 17.2501 53.3655 17.2501Z" fill="#0F2418"/>
<path d="M52.0593 19.1975L50.7444 19.5337L50.782 19.8552L52.0969 19.519L52.0593 19.1975Z" fill="#0F2418"/>
<path d="M46.575 20.0697L46.5635 20.3955L48.1755 20.5196L48.187 20.1937L46.575 20.0697Z" fill="#0F2418"/>
<path d="M56.0434 17.6241L54.6042 18.5371L54.6913 18.8368L56.1305 17.9238L56.0434 17.6241Z" fill="#0F2418"/>
<path d="M48.6655 30.7091C48.6655 30.7091 50.4238 36.2433 52.4061 35.9453C54.3885 35.6468 53.9649 29.8302 55.5895 29.9794C57.214 30.1286 63.3764 31.9997 65.5964 34.3818C67.8165 36.7639 66.7851 68.4692 67.088 71.9832C67.3906 75.4976 42.7558 72.7901 40.3341 74.2772C37.9124 75.7648 40.9678 39.3759 40.0597 36.691C39.1516 34.0061 48.0749 31.2232 48.6655 30.7091Z" fill="url(#paint1_linear_1502_40753)"/>
<path d="M32.6136 50.72C32.6136 50.72 40.0228 57.2646 41.8895 56.1519C43.7562 55.0395 50.6406 29.9985 48.2764 30.9317C45.9122 31.8653 42.3163 30.0597 39.0499 34.8139C35.207 40.4072 31.9515 50.0562 32.6136 50.72Z" fill="url(#paint2_linear_1502_40753)"/>
<path d="M67.8566 41.373H41.343V70.3145H67.8566V41.373Z" fill="#DF9D72"/>
<path d="M31.5672 56.2929C31.5672 56.2929 29.5766 62.6878 30.4216 67.1636C31.2666 71.6397 50.9976 71.9968 52.6732 71.9968C54.3488 71.9968 55.8577 70.4471 55.2974 68.0021C54.7371 65.5567 52.0671 66.3931 52.0671 65.0235C52.0671 65.0235 53.1675 64.1763 53.2693 63.4978C53.6092 61.2315 50.4981 64.5784 49.3839 64.5784C48.2698 64.578 33.3836 52.0709 31.5672 56.2929Z" fill="#D27878"/>
<path d="M53.4005 38.6286C51.5764 38.6286 49.3006 36.5518 48.1536 33.8087L48.4033 33.581C49.531 36.2781 51.7904 38.3081 53.5367 38.1905C55.2396 38.0821 55.8251 32.6562 55.831 32.6016L56.121 32.6675C56.0963 32.9056 55.4914 38.4998 53.5493 38.6238C53.5 38.6273 53.4504 38.6286 53.4005 38.6286Z" fill="#0F2418"/>
<path d="M41.0175 58.9268C39.4402 57.5604 35.5279 56.5012 35.4885 56.4908L35.5411 56.064C35.7037 56.1078 39.5441 57.1475 41.166 58.5529L41.0175 58.9268Z" fill="#0F2418"/>
<path d="M39.6417 53.6989C37.9678 53.1073 34.2908 49.3536 34.1353 49.194L34.3023 48.8374C34.3398 48.876 38.0893 52.7043 39.7097 53.2769L39.6417 53.6989Z" fill="#0F2418"/>
<path d="M67.9939 49.095L67.7209 48.935C68.6942 45.3095 69.2008 38.7974 69.2058 38.7319L69.4975 38.7805C69.4925 38.8469 68.9815 45.4167 67.9939 49.095Z" fill="#0F2418"/>
<path d="M62.3214 133.84C61.4802 133.84 60.6479 133.733 59.863 133.475L59.9267 133.051C64.3677 134.513 70.413 131.009 70.4737 130.973L70.582 131.377C70.531 131.406 66.3342 133.84 62.3214 133.84Z" fill="#0F2418"/>
<path d="M48.3826 133.808C44.8964 133.808 40.8733 132.696 40.6191 132.625L40.674 132.199C40.7677 132.225 50.0623 134.796 52.6281 132.232L52.7927 132.591C51.8779 133.505 50.2035 133.808 48.3826 133.808Z" fill="#0F2418"/>
<path d="M45.0661 48.3745C45.0661 48.3745 63.9544 47.1221 64.0187 48.3745C64.083 49.627 63.8678 60.1671 63.8678 60.1671C63.8678 60.1671 46.0293 60.4091 45.0661 59.9402C44.1028 59.4712 45.0661 48.3745 45.0661 48.3745Z" fill="white"/>
<path d="M55.4167 54.1724L50.6029 58.9907L50.0142 58.4016L54.8275 53.5832L54.5334 53.2886C54.2994 53.0539 54.168 52.7361 54.168 52.4047C54.168 52.0733 54.2994 51.7554 54.5334 51.5207L57.0604 48.9907L57.6492 49.5799L55.1221 52.1099C55.0834 52.1486 55.0526 52.1945 55.0317 52.2451C55.0107 52.2957 54.9999 52.3499 54.9999 52.4047C54.9999 52.4594 55.0107 52.5137 55.0317 52.5642C55.0526 52.6148 55.0834 52.6608 55.1221 52.6995L55.4167 52.9941L58.2388 50.1691L58.8275 50.7586L56.005 53.5832L56.2992 53.8778C56.3773 53.9559 56.4833 53.9998 56.5938 53.9998C56.7043 53.9998 56.8102 53.9559 56.8884 53.8778L59.4167 51.3478L60.0042 51.9374L57.4771 54.467C57.2427 54.7009 56.9251 54.8323 56.594 54.8323C56.2628 54.8323 55.9452 54.7009 55.7109 54.467L55.4167 54.1724ZM52.5596 54.6749L53.68 53.5532C53.4812 53.2544 53.364 52.9087 53.34 52.5506C53.316 52.1924 53.3861 51.8342 53.5434 51.5116L51.39 49.2382C51.2765 49.1246 51.1318 49.0472 50.9743 49.0159C50.8168 48.9845 50.6535 49.0006 50.5052 49.0621C50.3568 49.1235 50.23 49.2276 50.1408 49.3612C50.0516 49.4948 50.0041 49.6518 50.0042 49.8124C50.0012 50.5818 50.1922 51.3396 50.5596 52.0157C51.0706 53.0091 51.747 53.9083 52.5596 54.6749ZM56.5938 55.6666C56.1856 55.6675 55.7863 55.5474 55.4463 55.3216L54.7379 56.0299C55.4452 56.3485 56.2202 56.4876 56.9942 56.4349L59.3892 58.9803L59.9959 58.4095L57.2729 55.5436C57.055 55.6222 56.8254 55.6638 56.5938 55.6666Z" fill="#013216"/>
<path d="M43.637 50.2156C43.637 50.2156 45.9935 46.9386 46.2515 47.0948C46.5095 47.2509 46.9198 47.8326 47.1023 48.2542C47.2849 48.6758 44.6733 52.0222 44.3508 51.6852C44.0282 51.3482 43.637 50.2156 43.637 50.2156Z" fill="#D16F42"/>
<path d="M62.4956 46.9961C62.4956 46.9961 65.0693 49.894 65.0074 50.2961C64.9455 50.6978 64.6244 51.3913 64.3728 51.7266C64.1213 52.0619 61.4595 48.8031 61.6315 48.2778C61.8035 47.7526 62.4956 46.9961 62.4956 46.9961Z" fill="#D16F42"/>
<path d="M65.0097 58.4563C65.0097 58.4563 62.6531 61.7333 62.3952 61.5771C62.1372 61.421 61.7271 60.8393 61.5443 60.4177C61.3617 59.9961 63.9733 56.6497 64.2959 56.9867C64.6184 57.3237 65.0097 58.4563 65.0097 58.4563Z" fill="#D16F42"/>
<path d="M46.1491 61.6619C46.1491 61.6619 43.5754 58.764 43.6373 58.3619C43.6993 57.9602 44.0203 57.2667 44.2719 56.9314C44.5234 56.5961 47.1852 59.8549 47.0132 60.3802C46.8409 60.9059 46.1491 61.6619 46.1491 61.6619Z" fill="#D16F42"/>
<path d="M42.5831 140.087C42.461 139.011 41.7763 138.045 41.7695 138.036L41.9712 137.72C42.0023 137.764 42.7346 138.796 42.8728 140.015L42.5831 140.087Z" fill="#0F2418"/>
<path d="M43.7606 139.592C43.4721 138.756 42.6333 137.525 42.6248 137.513L42.8311 137.204C42.8669 137.257 43.7122 138.497 44.0221 139.395L43.7606 139.592Z" fill="#0F2418"/>
<path d="M44.6348 138.82C44.4288 137.925 43.4884 136.693 43.479 136.681L43.673 136.355C43.7141 136.409 44.6815 137.676 44.9125 138.68L44.6348 138.82Z" fill="#0F2418"/>
<path d="M21.3528 102.795C21.3528 102.795 23.3833 104.833 25.4398 102.332C27.4964 99.8305 28.7913 99.1403 27.6091 97.5568C26.4269 95.9734 24.6964 96.1126 25.1698 94.622C25.6429 93.1314 28.6484 94.5149 29.4397 93.3692C30.231 92.2239 31.3378 88.1941 30.373 86.884C29.4083 85.5738 27.8545 86.9187 27.8556 85.9491C27.8568 84.9795 30.4135 86.592 30.4076 81.7657C30.4018 76.9395 30.7487 75.8007 28.7764 75.9408C27.0406 76.064 24.2288 76.5261 23.3049 78.2427C22.6604 79.44 23.5188 82.393 23.6318 81.6577C23.7448 80.9224 21.5612 79.0509 19.7743 81.5293C17.9875 84.0077 16.8332 85.4072 17.4979 87.2874C18.1627 89.1676 20.4652 90.8066 20.2985 91.1719C20.1318 91.5371 17.4739 89.2652 16.1123 93.2629C14.7505 97.2605 19.2722 102.63 21.3528 102.795Z" fill="#4D7D80"/>
<path d="M21.0138 104.359C21.0138 104.359 19.3508 100.502 21.0138 97.8106C22.6767 95.1196 21.8241 100.223 22.9776 99.9116C24.1311 99.6002 21.7739 98.169 22.9776 96.0528C24.1812 93.9366 27.1312 92.3809 27.9883 93.3765C28.8453 94.3722 28.5946 96.9864 28.9959 97.1109C29.3971 97.2354 28.3939 93.3766 29.8987 93.5011C31.4032 93.6256 35.1647 96.7061 35.6161 98.7134C36.0675 100.721 34.1618 102.09 32.9578 103.085C31.7542 104.081 31.2024 100.845 31.0019 101.405C30.8012 101.965 32.055 103.495 30.9518 104.473C29.8485 105.451 29.0689 107.007 27.9792 106.26C26.8894 105.513 26.6886 103.334 26.3376 103.646C25.9866 103.957 27.3408 105.657 25.9866 106.456C24.6326 107.256 21.442 105.682 21.0138 104.359Z" fill="#76A6A5"/>
<path d="M16.2557 92.066C16.2557 92.066 18.0669 87.0623 16.2557 83.5714C14.4445 80.0804 15.3731 86.701 14.1169 86.2971C12.8605 85.8932 15.428 84.0364 14.1169 81.2912C12.8059 78.546 9.5929 76.5274 8.65956 77.8194C7.72593 79.1113 7.99918 82.502 7.56215 82.6638C7.12513 82.8252 8.21754 77.8194 6.57892 77.9812C4.94029 78.1426 0.843292 82.1393 0.351675 84.7431C-0.139941 87.3469 1.93571 89.1234 3.24678 90.4149C4.55786 91.7068 5.15866 87.5083 5.37703 88.235C5.59539 88.9616 4.23002 90.9468 5.43162 92.2148C6.63322 93.4829 7.48232 95.5015 8.66924 94.5327C9.85617 93.564 10.0748 90.7381 10.457 91.1416C10.8394 91.5455 9.36455 93.7501 10.8394 94.7874C12.3143 95.8247 15.7893 93.7827 16.2557 92.066Z" fill="#76A6A5"/>
<path d="M14.9063 103.575C14.9063 103.575 14.3839 96.6287 11.4776 95.9676C8.57138 95.3064 8.79503 97.6538 8.79503 98.6803C8.79503 99.7067 8.34802 97.3584 6.4476 97.6018C4.54717 97.8452 2.5898 100.576 2.45097 101.157C2.31215 101.738 4.19173 103.939 3.4753 103.939C2.75886 103.939 1.86455 101.907 1.30573 103.939C0.746897 105.97 -0.706236 110.768 0.411422 112.008C1.52908 113.247 4.43534 112.122 5.10629 112.008C5.77724 111.894 5.44176 107.662 5.44176 107.662C5.44176 107.662 7.12089 110.985 7.39913 111.355C7.67737 111.724 8.60102 110.747 9.65969 110.38C10.7183 110.012 10.1487 106.087 10.7016 106.028C11.2546 105.97 11.3661 108.462 12.2604 108.908C13.1544 109.355 14.9063 103.575 14.9063 103.575Z" fill="#4D7D80"/>
<path d="M18.5834 122.91C18.5816 122.756 18.4536 107.463 23.2794 101.343C25.0058 99.1522 27.1665 98.37 29.7006 99.0134L29.6507 99.4411C27.2067 98.8186 25.1276 99.5695 23.4708 101.671C18.7498 107.658 18.8748 122.751 18.8769 122.902L18.5834 122.91Z" fill="#3E2D4A"/>
<path d="M18.583 117.561C17.8534 109.134 16.0824 104.034 13.3194 102.401C9.48533 100.136 4.99885 105.447 4.95424 105.5L4.76904 105.164C4.8163 105.107 5.94129 103.765 7.57346 102.691C9.74743 101.259 11.7723 101.019 13.4282 101.998C16.2975 103.694 18.1299 108.912 18.8742 117.506L18.583 117.561Z" fill="#3E2D4A"/>
<path d="M18.4934 118.958C18.1001 97.5022 21.0137 88.5121 23.5273 84.7487C25.374 81.984 27.0082 81.9896 27.0766 81.9888L27.0728 82.4226C27.0443 82.4044 25.4753 82.4365 23.721 85.0767C21.255 88.788 18.3972 97.677 18.7869 118.946L18.4934 118.958Z" fill="#3E2D4A"/>
<path d="M18.7885 128.298L18.4953 128.282C19.2199 98.7813 15.3612 88.4233 11.9965 84.9289C9.2743 82.1017 6.68208 83.5897 6.65596 83.6049L6.5459 83.2023C6.5729 83.1858 9.30306 81.6084 12.1583 84.5667C18.3679 91.0007 19.1915 111.899 18.7885 128.298Z" fill="#3E2D4A"/>
<path d="M27.8983 117.54H22.4902H17.0604H11.6523C11.6523 117.54 11.3263 129.751 13.2006 140.872H17.0604H22.4902H26.3501C28.2241 129.752 27.8983 117.54 27.8983 117.54Z" fill="#D16F42"/>
<path d="M15.627 112.579C15.627 112.579 17.8755 114.034 17.5392 117.939C17.2025 121.844 17.4972 123.831 15.9607 123.196C14.4242 122.561 13.5822 120.322 12.9808 121.708C12.3794 123.094 14.7723 126.117 14.5381 127.717C14.3039 129.317 12.586 132.848 11.3222 132.339C10.0581 131.83 10.0003 129.17 9.44585 129.688C8.89142 130.206 11.1766 132.545 8.41037 135.109C5.64381 137.673 5.41312 136.123 4.20624 136.171C2.46899 136.241 1.31025 129.004 1.80069 126.934C2.14291 125.489 5.09966 126.158 4.73865 126.691C4.37794 127.224 2.14291 125.49 2.61017 121.934C3.07743 118.379 3.2638 116.189 4.69433 116.02C6.12486 115.85 8.29003 117.856 8.41037 117.453C8.5307 117.05 5.81375 114.935 7.37753 111.103C8.94102 107.269 14.4242 110.065 15.627 112.579Z" fill="#76A6A5"/>
<path d="M7.93477 124.517L7.66504 124.345C7.8159 123.827 11.3896 111.687 15.0818 111.687C15.0924 111.687 15.1024 111.687 15.113 111.687C16.574 111.714 17.8364 113.652 18.8651 117.447L18.5924 117.608C17.6124 113.992 16.4402 112.146 15.1091 112.121C15.1 112.121 15.0907 112.121 15.0816 112.121C11.5818 112.121 7.97087 124.393 7.93477 124.517Z" fill="#3E2D4A"/>
<path d="M20.8115 114.239C20.8115 114.239 21.0704 104.095 26.4899 105.687C28.5844 106.302 26.9677 108.949 27.8195 109.852C28.6712 110.755 28.3584 105.473 30.5476 105.687C32.7368 105.901 36.3337 108.946 36.3337 111.237C36.3337 113.529 33.2992 116.929 33.7999 116.963C34.3006 116.996 36.6463 115.542 37.4282 116.963C38.2101 118.383 38.5229 126.109 37.4282 127.909C36.3334 129.709 32.5419 127.166 31.0756 126.704C29.6093 126.242 30.702 120.883 29.8426 121.945C28.9835 123.006 31.1842 125.95 27.8163 125.403C24.4483 124.855 23.041 124.351 22.7281 121.945C22.4152 119.539 24.7612 116.698 24.1354 116.963C23.51 117.227 22.2403 119.333 21.5485 117.469C20.8567 115.605 20.8115 114.239 20.8115 114.239Z" fill="#76A6A5"/>
<path d="M32.1468 119.717C32.0907 119.598 26.4725 107.767 22.4536 109.036C20.7407 109.573 19.5362 112.446 18.8734 117.573L18.5852 117.492C19.2723 112.176 20.5534 109.189 22.3928 108.611C24.17 108.05 26.3965 109.719 29.0095 113.564C30.9373 116.401 32.3734 119.439 32.3878 119.47L32.1468 119.717Z" fill="#3E2D4A"/>
<path d="M19.4569 105.262C19.4569 105.262 22.4348 106.285 23.1418 108.724C23.8486 111.163 21.2308 112.561 21.2279 112.568C21.2249 112.575 24.2424 111.967 24.6002 112.958C24.958 113.949 25.8855 117.249 25.319 118.311C24.7526 119.372 22.2895 119.671 22.232 120.015C22.1741 120.36 24.9152 120.427 24.7534 121.579C24.5917 122.731 24.8121 127.39 22.9082 128.565C21.0042 129.739 17.9923 125.399 17.9321 124.618C17.8717 123.837 19.2382 121.683 19.2382 121.683C19.2382 121.683 17.9565 123.093 16.6577 121.964C15.359 120.836 13.5322 117.938 14.1929 116.397C14.8536 114.855 16.6011 113.493 16.6011 113.493C16.6011 113.493 14.2551 113.773 14.4174 112C14.5792 110.227 15.9977 103.877 19.4569 105.262Z" fill="#4D7D80"/>
<path d="M20.4151 117.571C19.8058 111.377 17.5631 106.854 17.5405 106.809L17.7762 106.55C17.7991 106.596 20.0852 111.201 20.7054 117.508L20.4151 117.571Z" fill="#3E2D4A"/>
<path d="M111.676 107.82H81.2224V136.762H111.676V107.82Z" fill="#D16F42"/>
<path d="M96.3886 119.02L95.5052 120.071H98.4017L99.5925 116.6L98.8523 117.218C98.8523 117.218 97.68 114.897 97.5488 114.697C96.1738 112.599 93.7688 114.655 93.7688 114.655C93.7688 114.655 94.4855 114.418 94.9581 115.506C95.209 116.084 96.3886 119.02 96.3886 119.02Z" fill="white"/>
<path d="M97.3723 121.983L99.7861 120.08L101.101 123.525C101.101 123.525 101.802 126.008 99.2501 126.008H98.7295L97.3723 121.983Z" fill="white"/>
<path d="M96.9051 126.258V124.878L95.5051 128.303L96.9051 131.68V130.443H98.6268C98.6268 130.443 100.805 130.3 101.125 125.735C101.125 125.735 100.681 126.353 99.5921 126.4C98.9159 126.43 96.9051 126.258 96.9051 126.258Z" fill="white"/>
<path d="M90.1316 121.636L89.2625 120.78H92.2554L93.4461 124.443L92.5128 123.729C92.5128 123.729 90.6094 127.77 90.8668 129.149C90.8668 129.149 88.6796 127.012 88.9731 124.704C89.1167 123.581 90.1316 121.636 90.1316 121.636Z" fill="white"/>
<path d="M94.7964 130.293V126.346H91.8197C91.8197 126.346 91.1048 127.962 91.1949 128.794C91.3322 130.063 92.1602 130.293 92.1602 130.293C92.5462 130.293 94.7964 130.293 94.7964 130.293Z" fill="white"/>
<path d="M91.0496 118.699L93.638 120.793L95.3729 117.371C95.3729 117.371 95.0926 116.545 94.7964 115.897C94.2787 114.764 93.0759 114.663 92.4792 115.751C91.9512 116.715 91.0496 118.699 91.0496 118.699Z" fill="white"/>
<path d="M116.781 135.811C116.781 135.811 116.574 139.9 116.269 140.644C115.964 141.389 108.56 141.419 107.787 141.029C107.013 140.639 111.147 137.513 111.581 136.71C112.016 135.907 111.917 134.54 111.917 134.54L116.781 135.811Z" fill="#76A6A5"/>
<path d="M110.289 140.106C110.166 139.025 109.48 138.056 109.473 138.046L109.674 137.731C109.705 137.774 110.44 138.811 110.579 140.034L110.289 140.106Z" fill="#0F2418"/>
<path d="M111.471 139.606C111.181 138.767 110.339 137.531 110.331 137.519L110.537 137.21C110.573 137.263 111.421 138.508 111.732 139.409L111.471 139.606Z" fill="#0F2418"/>
<path d="M112.348 138.833C112.141 137.935 111.198 136.699 111.188 136.687L111.382 136.361C111.423 136.415 112.394 137.686 112.626 138.693L112.348 138.833Z" fill="#0F2418"/>
<path d="M135.393 135.811C135.393 135.811 135.185 139.9 134.88 140.644C134.576 141.389 127.172 141.419 126.398 141.029C125.625 140.639 129.759 137.513 130.193 136.71C130.627 135.907 130.528 134.54 130.528 134.54L135.393 135.811Z" fill="#76A6A5"/>
<path d="M128.901 140.106C128.778 139.025 128.091 138.056 128.084 138.046L128.286 137.731C128.317 137.774 129.052 138.811 129.19 140.034L128.901 140.106Z" fill="#0F2418"/>
<path d="M130.083 139.606C129.793 138.767 128.951 137.531 128.943 137.519L129.149 137.21C129.185 137.263 130.033 138.508 130.344 139.409L130.083 139.606Z" fill="#0F2418"/>
<path d="M130.959 138.833C130.752 137.935 129.808 136.699 129.799 136.687L129.993 136.361C130.034 136.415 131.005 137.686 131.237 138.693L130.959 138.833Z" fill="#0F2418"/>
<path d="M139.223 21.9385C139.223 21.9385 140.019 25.7014 143.509 46.2086C144.229 50.4388 127.82 49.952 127.82 49.952C127.82 49.952 126.187 37.1118 127.489 36.2186C128.791 35.3253 135.652 37.8384 136.158 37.3682C136.664 36.8979 135.918 23.161 135.918 23.161L139.223 21.9385Z" fill="#CD5F6D"/>
<path d="M97.5979 30.3496C97.5979 30.3496 96.9399 34.1703 94.2003 54.9247C93.6351 59.2061 110.002 57.4174 110.002 57.4174C110.002 57.4174 111.166 44.4661 109.833 43.6775C108.501 42.8888 101.741 45.9429 101.219 45.5134C100.696 45.0839 100.942 31.3075 100.942 31.3075L97.5979 30.3496Z" fill="#CD5F6D"/>
<path d="M134.561 49.8607C134.561 49.8607 135.032 38.0109 134.265 37.1572C133.498 36.3034 125.236 33.5786 122.875 36.1164C122.193 36.8496 124.492 47.9055 124.391 49.4616C124.289 51.0182 133.116 52.1509 134.561 49.8607Z" fill="#76A6A5"/>
<path d="M101.611 54.6144C101.611 54.6144 99.2069 43.2882 99.8107 42.185C100.415 41.0814 107.982 35.4738 110.689 37.0881C111.471 37.5544 111.057 49.1045 111.411 50.5777C111.765 52.051 103.389 56.3172 101.611 54.6144Z" fill="#76A6A5"/>
<path d="M118.643 32.6389C118.643 32.6389 118.6 33.4085 120.43 33.3443C122.26 33.2801 122.043 31.5487 123.432 31.3561C124.821 31.1635 125.515 28.7614 124.864 26.4032C124.213 24.0449 123.085 22.471 123.085 19.5362C123.085 16.6014 122.019 11.0173 117.266 10.2186C112.514 9.41995 111.066 16.1494 110.762 19.4239C110.458 22.6979 111.239 25.0071 109.764 27.7649C108.289 30.5227 110.602 32.4467 111.528 32.7673C112.454 33.0879 114.66 32.2541 115.379 33.0237C116.099 33.7933 118.643 32.6389 118.643 32.6389Z" fill="#0F2418"/>
<path d="M114.166 22.9902C114.166 22.9902 115.384 30.3357 114.632 33.5603C113.88 36.7853 107.829 33.8969 106.516 44.68C105.203 55.463 105.434 64.5394 106.913 65.1298C108.392 65.7203 124.764 63.7494 125.781 63.9628C128.941 64.6257 127.676 37.8633 126.52 37.007C125.365 36.1506 120.281 34.9155 119.683 34.0301C119.085 33.1447 119.614 24.8656 119.614 24.8656L114.166 22.9902Z" fill="#D27878"/>
<path d="M113.901 15.2529C113.901 15.2529 117.609 14.1067 119.374 15.642C121.139 17.1769 120.346 20.2071 120.737 22.7936C121.147 25.5141 120.005 27.4936 120.005 27.4936C120.005 27.4936 118.02 29.9204 116.588 30.0822C116.02 30.1464 111.644 27.6107 112.255 23.8599C112.892 19.9516 112.312 15.5362 113.901 15.2529Z" fill="#D27878"/>
<path d="M119.251 20.6883C119.251 20.6883 118.898 20.743 118.337 20.7052C117.776 20.6675 118.496 20.0915 118.844 20.0741C119.193 20.0563 119.57 20.6623 119.251 20.6883Z" fill="#0F2418"/>
<path d="M114.121 20.4412C114.121 20.4412 114.468 20.5492 115.029 20.5973C115.59 20.6455 114.914 19.9628 114.568 19.8921C114.223 19.8213 113.805 20.3666 114.121 20.4412Z" fill="#0F2418"/>
<path d="M113.368 24.4005C113.368 24.4005 112.891 22.2959 111.937 22.4763C110.983 22.6567 110.987 25.3656 112.303 25.7737C113.619 26.1819 113.368 24.4005 113.368 24.4005Z" fill="#D27878"/>
<path d="M120.025 24.4005C120.025 24.4005 120.503 22.2959 121.456 22.4763C122.41 22.6567 122.406 25.3656 121.09 25.7737C119.774 26.1819 120.025 24.4005 120.025 24.4005Z" fill="#D27878"/>
<path d="M115.29 22.7266C115.29 22.9904 115.155 23.2038 114.989 23.2038C114.822 23.2038 114.687 22.9899 114.687 22.7266C114.687 22.4629 114.822 22.2495 114.989 22.2495C115.155 22.2495 115.29 22.4629 115.29 22.7266Z" fill="#0F2418"/>
<path d="M118.732 22.797C118.732 23.0607 118.597 23.2741 118.431 23.2741C118.265 23.2741 118.13 23.0602 118.13 22.797C118.13 22.5337 118.265 22.3198 118.431 22.3198C118.597 22.3198 118.732 22.5332 118.732 22.797Z" fill="#0F2418"/>
<path d="M116.334 22.9922C116.334 22.9922 116.022 24.5242 116.108 24.8079C116.193 25.0916 117.082 24.768 117.082 24.768" fill="#D27878"/>
<path d="M116.385 25.0989C116.199 25.0989 116.053 25.0416 116.006 24.8846C115.915 24.5792 116.131 23.4345 116.228 22.9565L116.439 23.0502C116.296 23.7521 116.169 24.6039 116.208 24.7532C116.268 24.8169 116.668 24.7618 117.055 24.6204L117.108 24.9366C116.869 25.0234 116.6 25.0989 116.385 25.0989Z" fill="#0F2418"/>
<path d="M116.523 26.8577C116.201 26.8577 115.85 26.6972 115.523 26.2144L115.679 25.9845C116.509 27.2121 117.508 26.0253 117.549 25.9741L117.689 26.2253C117.682 26.2344 117.158 26.8577 116.523 26.8577Z" fill="#0F2418"/>
<path d="M117.268 22.8335H115.934V23.1598H117.268V22.8335Z" fill="#0F2418"/>
<path d="M121.43 22.3308L119.856 22.8589L119.905 23.177L121.479 22.649L121.43 22.3308Z" fill="#0F2418"/>
<path d="M111.82 22.3131L111.769 22.6304L113.292 23.1689L113.343 22.8516L111.82 22.3131Z" fill="#0F2418"/>
<path d="M107.051 136.324C107.051 136.324 104.786 80.4385 105.85 72.7881C106.914 65.1372 129.727 68.6581 130.635 69.3817C131.543 70.1049 137.294 135.983 136.386 136.38C135.478 136.776 128.811 138.121 127.15 136.777C125.488 135.434 120.985 89.2642 119.123 86.817C117.261 84.3698 120.922 135.842 118.278 137.037C116.823 137.694 107.051 136.324 107.051 136.324Z" fill="#F0D7B2"/>
<path d="M112.325 15.8318C112.325 15.8318 111.756 18.0756 112.196 18.7823C112.637 19.4889 114.279 19.4876 114.625 19.3597C114.971 19.2313 114.919 15.3507 114.988 15.8639C115.057 16.3771 115.38 19.4881 115.933 19.4252C116.204 19.3944 118.54 19.6829 119.12 19.4252C119.701 19.1675 119.743 15.4843 119.374 15.641C119.007 15.7967 119.137 18.9749 120.005 19.1033C120.873 19.2317 121.257 19.1033 121.455 18.5259C121.654 17.9484 122.354 13.3951 118.749 12.2407C115.145 11.0858 112.325 15.8318 112.325 15.8318Z" fill="#0F2418"/>
<path d="M119.13 11.4754C120.196 11.4754 121.061 10.1978 121.061 8.62175C121.061 7.0457 120.196 5.76807 119.13 5.76807C118.063 5.76807 117.199 7.0457 117.199 8.62175C117.199 10.1978 118.063 11.4754 119.13 11.4754Z" fill="#0F2418"/>
<path d="M114.008 26.4632C114.577 26.4632 115.038 25.7812 115.038 24.9399C115.038 24.0985 114.577 23.4165 114.008 23.4165C113.438 23.4165 112.977 24.0985 112.977 24.9399C112.977 25.7812 113.438 26.4632 114.008 26.4632Z" fill="#CA4F67"/>
<path d="M119.37 26.4632C119.939 26.4632 120.401 25.7812 120.401 24.9399C120.401 24.0985 119.939 23.4165 119.37 23.4165C118.801 23.4165 118.339 24.0985 118.339 24.9399C118.339 25.7812 118.801 26.4632 119.37 26.4632Z" fill="#CA4F67"/>
<path d="M118.574 25.0916C117.792 25.0916 117.157 24.152 117.157 22.997C117.157 21.8419 117.792 20.9023 118.574 20.9023C119.355 20.9023 119.991 21.8423 119.991 22.997C119.991 24.1516 119.355 25.0916 118.574 25.0916ZM118.574 21.2277C117.914 21.2277 117.377 22.0214 117.377 22.997C117.377 23.9725 117.914 24.7662 118.574 24.7662C119.234 24.7662 119.771 23.9725 119.771 22.997C119.771 22.0214 119.234 21.2277 118.574 21.2277Z" fill="#0F2418"/>
<path d="M114.626 25.0916C113.845 25.0916 113.209 24.152 113.209 22.997C113.209 21.8419 113.845 20.9023 114.626 20.9023C115.408 20.9023 116.044 21.8423 116.044 22.997C116.044 24.1516 115.408 25.0916 114.626 25.0916ZM114.626 21.2277C113.966 21.2277 113.429 22.0214 113.429 22.997C113.429 23.9725 113.966 24.7662 114.626 24.7662C115.286 24.7662 115.824 23.9725 115.824 22.997C115.824 22.0214 115.286 21.2277 114.626 21.2277Z" fill="#0F2418"/>
<path d="M105.736 74.2857C105.736 74.2857 128.178 73.9924 130.903 71.9916C133.628 69.9908 129.595 38.5054 128.519 37.4122C121.882 30.6737 119.426 42.3886 116.356 38.9115C112.029 34.0093 107.656 37.043 106.191 37.7115C103.02 39.1592 103.732 72.3604 105.736 74.2857Z" fill="#76A6A5"/>
<path d="M113.02 33.9975C113.02 33.9975 115.569 38.4693 116.356 38.9079C117.143 39.3465 119.695 32.8708 120.539 32.7563C121.383 32.6418 123.234 35.1137 123.337 36.2833C123.44 37.4528 120.678 43.8786 119.649 43.9211C118.62 43.9636 116.862 40.474 116.862 40.474C116.862 40.474 114.406 44.2365 113.983 44.7671C113.56 45.2976 110.571 38.7244 110.421 36.911C110.27 35.0972 113.02 33.9975 113.02 33.9975Z" fill="#B1E7C8"/>
<path d="M134.061 36.2324C129.713 36.2324 127.402 35.809 127.195 34.9748C127.157 34.8234 127.156 34.5883 127.363 34.3284C127.714 33.9913 135.631 26.4697 137.603 26.4697C137.63 26.4697 137.657 26.471 137.682 26.4736C139.477 26.6641 145.407 31.0561 147.152 33.4881C147.318 33.7193 147.293 33.941 147.263 34.0529C146.849 35.5934 138.461 36.2324 134.061 36.2324ZM137.603 26.9035C135.717 26.9035 127.619 34.5982 127.537 34.6759C127.491 34.7366 127.464 34.8013 127.47 34.8247C127.56 35.1861 129.049 35.7982 134.061 35.7982C140.327 35.7982 146.731 34.8542 146.989 33.8924C146.996 33.8681 146.955 33.81 146.95 33.8035C145.234 31.4109 139.417 27.0923 137.66 26.9057C137.642 26.9044 137.623 26.9035 137.603 26.9035Z" fill="#0F2418"/>
<path d="M132.131 30.3149C132.131 30.3149 135.173 33.018 137.231 33.018C139.289 33.018 142.316 28.9857 142.82 28.6898C143.325 28.3944 149.413 32.6935 150.355 34.0488C151.297 35.404 155.078 49.1262 154.475 50.0212C153.872 50.9162 149.208 51.4168 149.208 51.4168C149.208 51.4168 151.931 73.6701 151.059 75.2887C150.187 76.9077 130.307 76.2717 129.399 76.5702C128.491 76.8687 128.491 53.467 128.491 53.467C128.491 53.467 123.547 54.3776 122.941 53.467C122.336 52.5565 125.891 35.4418 126.776 34.0488C127.66 32.6562 132.131 30.3149 132.131 30.3149Z" fill="url(#paint3_linear_1502_40753)"/>
<path d="M137.533 26.7652C137.52 26.7057 137.213 25.2943 137.542 24.3383C137.604 24.1596 137.702 23.9566 137.818 23.7215C138.117 23.1082 138.489 22.3456 138.365 21.6637C138.287 21.2378 138.012 20.8652 137.545 20.5568C137.133 20.2848 136.708 20.4952 136.408 21.1211C136.07 21.8277 135.982 22.9399 136.469 23.6985L136.257 23.9969C135.66 23.0687 135.761 21.7214 136.168 20.8704C136.55 20.074 137.123 19.8016 137.665 20.1604C138.216 20.5247 138.547 20.9923 138.648 21.5505C138.809 22.4311 138.373 23.3229 138.055 23.9744C137.948 24.1947 137.855 24.3851 137.804 24.5339C137.53 25.3286 137.81 26.6164 137.813 26.6294L137.533 26.7652Z" fill="#0F2418"/>
<path d="M136.888 35.653C134.889 35.653 132.737 33.1511 132.636 33.0318L132.819 32.6926C132.845 32.7239 135.516 35.8231 137.537 35.1121C139.591 34.3895 141.983 30.8084 142.007 30.772L142.217 31.0756C142.116 31.2265 139.741 34.7825 137.605 35.5337C137.371 35.6162 137.13 35.653 136.888 35.653Z" fill="#0F2418"/>
<path d="M138.857 44.3959L138.165 45.2196H140.434L141.367 42.5L140.787 42.9841C140.787 42.9841 139.869 41.1662 139.766 41.0096C138.689 39.3661 136.806 40.9766 136.806 40.9766C136.806 40.9766 137.367 40.7905 137.737 41.6429C137.933 42.0962 138.857 44.3959 138.857 44.3959Z" fill="white"/>
<path d="M139.626 46.7219L141.517 45.2319L142.547 47.9303C142.547 47.9303 143.096 49.8753 141.097 49.8753H140.69L139.626 46.7219Z" fill="white"/>
<path d="M139.261 50.0727V48.9922L138.164 51.6745L139.261 54.3196V53.351H140.609C140.609 53.351 142.316 53.2391 142.566 49.6632C142.566 49.6632 142.218 50.1473 141.366 50.1846C140.836 50.2076 139.261 50.0727 139.261 50.0727Z" fill="white"/>
<path d="M133.957 46.4616L133.276 45.791H135.62L136.553 48.6594L135.822 48.1008C135.822 48.1008 134.331 51.265 134.533 52.3455C134.533 52.3455 132.82 50.6716 133.05 48.8646C133.162 47.985 133.957 46.4616 133.957 46.4616Z" fill="white"/>
<path d="M137.61 53.23V50.1382H135.278C135.278 50.1382 134.718 51.4043 134.788 52.0563C134.896 53.0504 135.544 53.2304 135.544 53.2304C135.847 53.23 137.61 53.23 137.61 53.23Z" fill="white"/>
<path d="M134.676 44.1374L136.704 45.7774L138.062 43.0972C138.062 43.0972 137.843 42.4505 137.611 41.943C137.205 41.0551 136.264 40.9757 135.796 41.8285C135.382 42.5836 134.676 44.1374 134.676 44.1374Z" fill="white"/>
<path d="M105.512 45.5978C100.54 45.5978 88.8812 43.6291 88.5126 41.7563C88.4858 41.6205 88.4791 41.3568 88.7333 41.1182C89.0902 40.8713 97.0975 35.3926 99.3833 35.3926C99.4992 35.3926 99.5976 35.406 99.6841 35.4329C101.445 35.986 106.911 41.5411 108.413 44.3041C108.547 44.551 108.513 44.7562 108.48 44.8564C108.368 45.2017 107.93 45.5978 105.512 45.5978ZM99.3833 35.826C97.1618 35.826 88.9566 41.4409 88.8738 41.4977C88.8272 41.5437 88.7884 41.6045 88.7943 41.6348C89.0538 42.9541 99.5218 45.164 105.512 45.164C107.984 45.164 108.199 44.7197 108.215 44.669C108.219 44.6581 108.209 44.6221 108.184 44.5757C106.707 41.8578 101.346 36.3986 99.6234 35.8572C99.5579 35.8364 99.4769 35.826 99.3833 35.826Z" fill="#0F2418"/>
<path d="M93.8308 38.1011C93.8308 38.1011 96.5926 41.3964 98.631 41.8141C100.669 42.2319 104.043 38.8525 104.57 38.662C105.097 38.4716 110.728 43.9663 111.535 45.5003C112.342 47.0339 114.812 61.3938 114.131 62.1577C113.451 62.9217 108.785 62.4705 108.785 62.4705C108.785 62.4705 109.414 85.0657 108.4 86.4921C107.385 87.9185 87.7535 83.2527 86.8263 83.3638C85.8991 83.4748 88.0737 60.2953 88.0737 60.2953C88.0737 60.2953 83.0915 60.1934 82.5764 59.1687C82.0613 58.144 87.1738 41.9131 88.1791 40.7131C89.1846 39.5123 93.8308 38.1011 93.8308 38.1011Z" fill="#0F2418"/>
<path d="M99.5103 35.6878C99.503 35.6262 99.3301 34.1662 99.7446 33.2857C99.822 33.1213 99.9389 32.9404 100.074 32.7309C100.428 32.1844 100.868 31.5042 100.808 30.8042C100.771 30.3661 100.533 29.9414 100.099 29.5411C99.7158 29.1876 99.275 29.3107 98.9198 29.8694C98.5192 30.5005 98.329 31.5845 98.7417 32.4347L98.503 32.6875C97.9982 31.6474 98.223 30.3331 98.7059 29.5727C99.157 28.8614 99.751 28.7083 100.254 29.1737C100.766 29.646 101.05 30.1765 101.099 30.7504C101.176 31.6552 100.662 32.4503 100.286 33.0311C100.159 33.2276 100.049 33.3972 99.9849 33.5342C99.6404 34.266 99.7971 35.598 99.7989 35.6115L99.5103 35.6878Z" fill="#0F2418"/>
<path d="M98.4926 44.3636C96.3777 44.3636 94.2013 41.0224 94.106 40.8745L94.2653 40.6503C94.2888 40.6867 96.6577 44.3181 98.7442 44.021C100.857 43.7204 103.567 40.6494 103.594 40.6182L103.729 40.8758C103.616 41.0046 100.94 44.0353 98.7653 44.3446C98.6746 44.3576 98.5839 44.3636 98.4926 44.3636Z" fill="#B1E7C8"/>
<path d="M116.915 30.2636C116.283 30.2636 115.248 29.6234 115.2 29.593L115.286 29.2933C115.298 29.3011 116.538 30.0667 117.06 29.9209C118.066 29.6377 119.045 28.3338 119.055 28.3208L119.203 28.5615C119.161 28.6175 118.168 29.9405 117.101 30.2406C117.045 30.2562 116.982 30.2636 116.915 30.2636Z" fill="#0F2418"/>
<path d="M118.595 84.9684C118.576 84.9684 118.556 84.9646 118.537 84.9572C118.138 84.8032 117.68 82.8696 117.366 81.2758C117.038 79.6138 116.702 77.3883 116.689 76.1628L116.983 76.1562C117.007 78.4789 118.132 83.9893 118.573 84.5047C118.769 83.9052 118.658 80.1209 118.428 76.656L118.72 76.6135C118.84 78.4104 119.193 84.3164 118.742 84.886C118.698 84.9407 118.648 84.9684 118.595 84.9684Z" fill="#0F2418"/>
<path d="M118.675 132.431C118.653 132.121 116.527 101.279 117.473 89.001L117.765 89.05C116.822 101.282 118.945 132.077 118.967 132.387L118.675 132.431Z" fill="#0F2418"/>
<path d="M135.289 132.449C135.237 132.079 130.122 95.2545 130.757 85.8892L131.049 85.9325C130.419 95.2328 135.525 131.992 135.576 132.362L135.289 132.449Z" fill="#0F2418"/>
<path d="M120.292 16.7594C120.115 14.4327 118.687 12.3854 118.673 12.3645L118.825 12.1299C118.887 12.2166 120.325 14.2804 120.51 16.7229L120.292 16.7594Z" fill="#B1E7C8"/>
<path d="M116.782 17.3843C116.169 15.7734 117.058 12.158 117.095 12.0049L117.302 12.1172C117.293 12.1532 116.411 15.7447 116.974 17.2247L116.782 17.3843Z" fill="#B1E7C8"/>
<path d="M113.564 17.3021C113.562 17.1216 113.547 12.8765 115.203 11.9053L115.284 12.2076C113.767 13.0968 113.784 17.2561 113.784 17.2982L113.564 17.3021Z" fill="#B1E7C8"/>
<path d="M97.155 31.3568C97.155 31.3568 97.1075 34.2252 98.3021 34.0864C99.4966 33.9476 102.189 33.5607 101.799 32.0152C101.409 30.4702 101.64 29.2396 100.789 28.9468C99.9383 28.6541 97.5422 28.2394 97.155 31.3568Z" fill="#D27878"/>
<path d="M138.713 20.1259C138.713 20.1259 140.264 22.5445 139.195 23.3439C138.126 24.1433 135.689 25.8801 135.478 24.2604C135.268 22.6408 134.639 21.7668 135.263 20.8633C135.886 19.9598 137.286 17.7597 138.713 20.1259Z" fill="#D27878"/>
<path d="M115.254 72.0347C112.471 72.0347 110.405 71.2617 110.378 71.2513L110.452 70.8314C110.485 70.8449 113.875 72.1114 117.809 71.3676C121.781 70.6172 127.712 70.3938 127.771 70.3916L127.779 70.8254C127.719 70.8275 121.803 71.05 117.846 71.7978C116.944 71.9687 116.068 72.0347 115.254 72.0347Z" fill="#0F2418"/>
<path d="M113.121 134.56C110.127 134.56 107.706 134.001 107.67 133.992L107.716 133.563C107.77 133.576 113.171 134.824 117.803 133.564L117.856 133.991C116.287 134.417 114.631 134.56 113.121 134.56Z" fill="#0F2418"/>
<path d="M131.658 134.738C129.385 134.738 127.116 134.301 126.963 134.271L127.001 133.841C127.062 133.853 133.137 135.025 135.373 133.573L135.491 133.971C134.586 134.557 133.121 134.738 131.658 134.738Z" fill="#0F2418"/>
<path d="M130.901 73.6674L130.799 73.2605C130.833 73.2423 134.209 71.4375 138.198 72.1913C142.121 72.9322 148.858 72.2798 149.251 72.03L149.391 72.4108C148.998 72.7392 142.07 73.3599 138.16 72.6216C134.243 71.8808 130.933 73.6496 130.901 73.6674Z" fill="#0F2418"/>
<path d="M149.337 50.0842L149.302 49.6535C150.323 49.47 153.074 48.8354 153.525 48.1167L153.74 48.4112C153.136 49.3768 149.724 50.0148 149.337 50.0842Z" fill="#0F2418"/>
<path d="M123.649 51.9015L123.618 51.4703C124.296 51.3653 127.636 51.4291 127.778 51.4317L127.774 51.8655C127.74 51.865 124.311 51.7995 123.649 51.9015Z" fill="#0F2418"/>
<path d="M106.896 84.1974C106.836 84.1913 100.924 83.5858 97.5219 82.9686C94.1246 82.3522 88.0057 81.443 87.9443 81.4339L87.966 81.1104C88.0277 81.1195 94.1487 82.0291 97.5486 82.6459C100.944 83.2618 106.851 83.8669 106.91 83.873L106.896 84.1974Z" fill="#B1E7C8"/>
<path d="M109.623 60.8411L109.62 60.5158C109.65 60.5154 112.602 60.4533 113.352 60.0742L113.423 60.3822C112.64 60.7778 109.746 60.8389 109.623 60.8411Z" fill="#B1E7C8"/>
<path d="M87.9455 58.6555C87.8422 58.6403 85.4049 58.2777 84.3879 57.9372L84.4367 57.6201C85.4404 57.9563 87.942 58.3284 87.9672 58.3323L87.9455 58.6555Z" fill="#B1E7C8"/>
<path d="M120.505 31.3956L120.297 31.2893C120.302 31.2667 120.819 29.022 120.56 27.0211L120.776 26.96C121.047 29.0476 120.527 31.3006 120.505 31.3956Z" fill="#B1E7C8"/>
<path d="M122.971 30.1551L122.775 30.009C122.779 29.9973 123.147 28.8244 122.235 26.4743L122.425 26.3125C123.405 28.8339 122.99 30.1027 122.971 30.1551Z" fill="#B1E7C8"/>
<path d="M113.769 31.5446C113.749 31.5194 113.277 30.9026 113.277 28.749H113.497C113.497 30.7256 113.908 31.2926 113.912 31.2978L113.769 31.5446Z" fill="#B1E7C8"/>
<path d="M111.949 31.5236C111.912 31.4638 111.037 30.0224 111.691 26.9492L111.901 27.0472C111.285 29.9417 112.102 31.2894 112.111 31.3028L111.949 31.5236Z" fill="#B1E7C8"/>
<path d="M118.332 10.2227C117.89 8.87195 118.456 7.44359 118.48 7.3833L118.67 7.54986C118.664 7.56331 118.141 8.89017 118.53 10.0808L118.332 10.2227Z" fill="#B1E7C8"/>
<path d="M119.24 10.1536H119.02C119.02 8.76645 119.904 7.79224 119.941 7.75146L120.071 8.01346C120.063 8.02256 119.24 8.93302 119.24 10.1536Z" fill="#B1E7C8"/>
</g>
<defs>
<linearGradient id="paint0_linear_1502_40753" x1="65.582" y1="58.7427" x2="65.5821" y2="16.5942" gradientUnits="userSpaceOnUse">
<stop stop-color="#03B04E"/>
<stop offset="1" stop-color="#02C320"/>
</linearGradient>
<linearGradient id="paint1_linear_1502_40753" x1="53.2745" y1="87.7835" x2="53.2746" y2="-8.42942" gradientUnits="userSpaceOnUse">
<stop stop-color="#03B04E"/>
<stop offset="1" stop-color="#02C320"/>
</linearGradient>
<linearGradient id="paint2_linear_1502_40753" x1="40.6697" y1="63.9817" x2="40.6697" y2="8.93145" gradientUnits="userSpaceOnUse">
<stop stop-color="#03B04E"/>
<stop offset="1" stop-color="#02C320"/>
</linearGradient>
<linearGradient id="paint3_linear_1502_40753" x1="138.752" y1="91.1134" x2="138.752" y2="-12.8076" gradientUnits="userSpaceOnUse">
<stop stop-color="#03B04E"/>
<stop offset="1" stop-color="#02C320"/>
</linearGradient>
<clipPath id="clip0_1502_40753">
<rect width="160" height="160" fill="white"/>
</clipPath>
</defs>
</svg>
