<svg width="160" height="160" viewBox="0 0 160 160" fill="none" xmlns="http://www.w3.org/2000/svg">
<g clip-path="url(#clip0_1502_41354)">
<path d="M159.56 97.3206H150.204C149.961 97.3206 149.763 97.0002 149.763 96.605V83.0712C149.763 82.6759 149.566 82.3555 149.323 82.3555H148.66C148.417 82.3555 148.219 82.0351 148.219 81.6399V79.0045C148.219 78.6093 148.022 78.2888 147.778 78.2888H147.294C147.051 78.2888 146.853 77.9684 146.853 77.5732V67.1741C146.853 66.7788 146.656 66.4584 146.413 66.4584H134.775C134.532 66.4584 134.334 66.7788 134.334 67.1741V77.5732C134.334 77.9684 134.137 78.2888 133.893 78.2888H131.664C131.421 78.2888 131.224 78.6093 131.224 79.0045V81.6399C131.224 82.0351 131.026 82.3555 130.783 82.3555H128.127C127.884 82.3555 127.687 82.0351 127.687 81.6399V61.6282C127.687 61.2329 127.489 60.9125 127.246 60.9125H121.665C121.422 60.9125 121.225 60.5921 121.225 60.1969V42.8852C121.225 42.49 121.027 42.1696 120.784 42.1696H120.424C120.181 42.1696 119.984 41.8492 119.984 41.4539V35.1935C119.984 34.7983 119.787 34.4779 119.543 34.4779H116.61C116.367 34.4779 116.17 34.7983 116.17 35.1935V41.4531C116.17 41.8484 115.973 42.1688 115.729 42.1688H111.556C111.313 42.1688 111.115 42.4892 111.115 42.8844V60.1961C111.115 60.5913 110.918 60.9117 110.675 60.9117H105.303C105.059 60.9117 104.862 60.5913 104.862 60.1961V23.0856C104.862 22.6903 104.665 22.3699 104.421 22.3699H91.886C91.6427 22.3699 91.4452 22.6903 91.4452 23.0856V73.8753C91.4452 74.2705 91.248 74.5909 91.0045 74.5909H86.0731C85.8298 74.5909 85.6323 74.2705 85.6323 73.8753V55.482C85.6323 55.0867 85.4351 54.7663 85.1916 54.7663H83.1786C82.9354 54.7663 82.7379 54.4459 82.7379 54.0507V20.1824C82.7379 19.7872 82.5407 19.4668 82.2972 19.4668H81.8048C81.5615 19.4668 81.364 19.1464 81.364 18.7511V13.6936C81.364 13.2984 81.1668 12.978 80.9233 12.978H80.3792C80.1359 12.978 79.9385 12.6576 79.9385 12.2623V7.20444C79.9385 6.8092 79.7413 6.4888 79.4977 6.4888H78.3307C78.0874 6.4888 77.89 6.16839 77.89 5.77315V0.715651C77.89 0.320406 77.6927 0 77.4492 0H74.8596C74.6163 0 74.4189 0.320406 74.4189 0.715651V5.77315C74.4189 6.16839 74.2217 6.4888 73.9782 6.4888H72.7922C72.5489 6.4888 72.3514 6.8092 72.3514 7.20444V12.2619C72.3514 12.6572 72.1542 12.9776 71.9107 12.9776H71.1341C70.8908 12.9776 70.6933 13.298 70.6933 13.6932V18.7507C70.6933 19.146 70.4961 19.4664 70.2526 19.4664H69.7602C69.5169 19.4664 69.3195 19.7868 69.3195 20.182V54.0499C69.3195 54.4451 69.1223 54.7656 68.8787 54.7656H66.8658C66.6225 54.7656 66.4251 54.4451 66.4251 54.0499V42.9113C66.4251 42.5161 66.2279 42.1957 65.9843 42.1957H47.6616C47.4183 42.1957 47.2208 42.5161 47.2208 42.9113V63.5233C47.2208 63.9185 47.0236 64.239 46.7801 64.239H44.7671C44.5239 64.239 44.3264 63.9185 44.3264 63.5233V38.6911V32.918C44.3264 32.5227 44.1292 32.2023 43.8857 32.2023H42.9745C42.7312 32.2023 42.5338 31.8819 42.5338 31.4867V26.4292C42.5338 26.0339 42.3366 25.7135 42.0931 25.7135H33.4342C33.1909 25.7135 32.9935 26.0339 32.9935 26.4292V31.4867C32.9935 31.8819 32.7962 32.2023 32.5527 32.2023H31.3492C31.1059 32.2023 30.9084 32.5227 30.9084 32.918V38.6911V63.5233C30.9084 63.9185 30.7112 64.239 30.4677 64.239H28.4547C28.2115 64.239 28.014 64.5594 28.014 64.9546V86.8147C28.014 87.2099 27.8168 87.5303 27.5733 87.5303H18.0575C17.8142 87.5303 17.6168 87.2099 17.6168 86.8147V73.0809C17.6168 72.6857 17.4196 72.3652 17.1761 72.3652H9.24958C9.0063 72.3652 8.80886 72.6857 8.80886 73.0809V87.5303V101.82C8.80886 102.215 8.61166 102.535 8.36814 102.535H0.440724C0.197437 102.535 0 102.856 0 103.251V139.158C0 139.554 0.197203 139.874 0.440724 139.874H2.08034H8.80909H28.015H47.2208H66.4267H85.6326H99.193H127.687H134.334H146.854H149.763H159.529C159.789 139.874 160 139.523 160 139.089V122.587V98.0351C160 97.641 159.803 97.3206 159.56 97.3206Z" fill="#E6E8EA"/>
<path d="M109.893 149.449C109.893 148.731 87.3082 148.149 59.448 148.149C31.5878 148.149 9.00281 148.731 9.00281 149.449C9.00281 150.166 31.5878 150.748 59.448 150.748C87.3082 150.748 109.893 150.166 109.893 149.449Z" fill="#CCD4DB"/>
<path d="M148.674 159.854C155.122 159.854 160.348 159.215 160.348 158.427C160.348 157.639 155.122 157 148.674 157C142.227 157 137 157.639 137 158.427C137 159.215 142.227 159.854 148.674 159.854Z" fill="#CCD4DB"/>
<path d="M107.679 38.4283C108.416 38.4283 109.014 37.4919 109.014 36.3369C109.014 35.1819 108.416 34.2456 107.679 34.2456C106.942 34.2456 106.344 35.1819 106.344 36.3369C106.344 37.4919 106.942 38.4283 107.679 38.4283Z" fill="#C1EAE3"/>
<path d="M149.948 18.1607C150.685 18.1607 151.283 17.2244 151.283 16.0694C151.283 14.9143 150.685 13.978 149.948 13.978C149.21 13.978 148.613 14.9143 148.613 16.0694C148.613 17.2244 149.21 18.1607 149.948 18.1607Z" fill="#C1EAE3"/>
<path d="M56.0206 17.5523C56.7579 17.5523 57.3556 16.616 57.3556 15.461C57.3556 14.3059 56.7579 13.3696 56.0206 13.3696C55.2834 13.3696 54.6857 14.3059 54.6857 15.461C54.6857 16.616 55.2834 17.5523 56.0206 17.5523Z" fill="#C1EAE3"/>
<path d="M18.7338 20.252C19.4711 20.252 20.0687 19.3157 20.0687 18.1607C20.0687 17.0057 19.4711 16.0693 18.7338 16.0693C17.9965 16.0693 17.3988 17.0057 17.3988 18.1607C17.3988 19.3157 17.9965 20.252 18.7338 20.252Z" fill="#C1EAE3"/>
<path d="M156.541 114.02C157.278 114.02 157.876 113.084 157.876 111.929C157.876 110.774 157.278 109.837 156.541 109.837C155.804 109.837 155.206 110.774 155.206 111.929C155.206 113.084 155.804 114.02 156.541 114.02Z" fill="#C1EAE3"/>
<path d="M4.16676 47.2276C4.90404 47.2276 5.50173 46.2913 5.50173 45.1362C5.50173 43.9812 4.90404 43.0449 4.16676 43.0449C3.42947 43.0449 2.83179 43.9812 2.83179 45.1362C2.83179 46.2913 3.42947 47.2276 4.16676 47.2276Z" fill="#C1EAE3"/>
<path d="M15.811 57.7126L17.0369 56.834" stroke="#D9E2E8" stroke-width="3" stroke-linecap="round" stroke-linejoin="round"/>
<path d="M19.4523 55.1024L83.6276 9.10107L144.051 29.0491" stroke="#D9E2E8" stroke-width="3" stroke-linecap="round" stroke-linejoin="round" stroke-dasharray="9.85 9.85"/>
<path d="M145.369 29.4839L146.706 29.9253" stroke="#D9E2E8" stroke-width="3" stroke-linecap="round" stroke-linejoin="round"/>
<path d="M87.8618 5.58468C87.8665 5.47266 87.8662 5.40474 87.866 5.38172C87.866 5.37859 87.8662 5.37547 87.8662 5.37196C87.8662 2.40944 85.9687 0.0078125 83.628 0.0078125C81.2873 0.0078125 79.3897 2.40944 79.3897 5.37196C79.3897 5.37196 79.3875 5.44924 79.3944 5.60029C79.404 5.89225 79.4356 6.17679 79.4765 6.45587C79.9513 9.7002 81.5657 13.2689 82.6361 15.3664C83.1101 16.2954 84.1415 16.302 84.6204 15.3778C86.8867 11.0035 87.5721 7.96953 87.7784 6.46368C87.8245 6.17835 87.8525 5.88445 87.8618 5.58468Z" fill="url(#paint0_linear_1502_41354)"/>
<path d="M83.6277 9.10115C85.0593 9.10115 86.2199 7.45149 86.2199 5.41654C86.2199 3.38159 85.0593 1.73193 83.6277 1.73193C82.196 1.73193 81.0354 3.38159 81.0354 5.41654C81.0354 7.45149 82.196 9.10115 83.6277 9.10115Z" fill="white"/>
<path d="M154.305 28.7431C154.311 28.5948 154.31 28.505 154.31 28.4742C154.31 28.4699 154.31 28.4656 154.31 28.4617C154.31 24.5406 151.799 21.3618 148.701 21.3618C145.603 21.3618 143.091 24.5406 143.091 28.4617C143.091 28.4617 143.088 28.564 143.097 28.7638C143.11 29.1498 143.152 29.5269 143.206 29.8965C143.834 34.1908 145.971 38.914 147.388 41.6904C148.015 42.9199 149.38 42.9288 150.014 41.7052C153.014 35.9156 153.921 31.9 154.194 29.9067C154.255 29.5288 154.292 29.1397 154.305 28.7431Z" fill="url(#paint1_linear_1502_41354)"/>
<path d="M148.7 33.3942C150.595 33.3942 152.131 31.2107 152.131 28.5172C152.131 25.8237 150.595 23.6401 148.7 23.6401C146.805 23.6401 145.269 25.8237 145.269 28.5172C145.269 31.2107 146.805 33.3942 148.7 33.3942Z" fill="white"/>
<path d="M16.9002 57.826C16.9032 57.7518 16.9032 57.7066 16.9029 57.6913C16.9029 57.6894 16.9029 57.687 16.9029 57.6851C16.9029 55.7198 15.6441 54.127 14.0915 54.127C12.5389 54.127 11.2801 55.7202 11.2801 57.6851C11.2801 57.6851 11.2787 57.7362 11.2831 57.8365C11.2894 58.0301 11.3106 58.2191 11.3375 58.4041C11.6525 60.5563 12.7234 62.9232 13.4333 64.3146C13.7477 64.931 14.432 64.9353 14.7497 64.3221C16.2532 61.4204 16.7077 59.408 16.8444 58.4091C16.8755 58.2198 16.8938 58.0251 16.9002 57.826Z" fill="url(#paint2_linear_1502_41354)"/>
<path d="M14.0913 60.1569C15.041 60.1569 15.8108 59.0626 15.8108 57.7127C15.8108 56.3628 15.041 55.2686 14.0913 55.2686C13.1416 55.2686 12.3717 56.3628 12.3717 57.7127C12.3717 59.0626 13.1416 60.1569 14.0913 60.1569Z" fill="white"/>
<path d="M149.173 79.9546H146.072V85.3484H149.173V79.9546Z" fill="#FEAC97"/>
<path d="M149.173 80.5066L146.072 80.146V82.8099C146.072 82.8099 148.096 82.9317 149.173 80.5066Z" fill="#F97373"/>
<path d="M151.073 74.7287C151.085 74.6764 151.492 73.7494 151.923 74.4074C152.354 75.0655 152.504 78.2216 150.755 77.9519C150.755 77.9519 150.588 76.8251 151.073 74.7287Z" fill="#FEAC97"/>
<path d="M144.371 74.713C144.358 74.6607 143.951 73.7337 143.52 74.3918C143.09 75.0499 142.939 78.206 144.688 77.9363C144.688 77.9363 144.855 76.8094 144.371 74.713Z" fill="#FEAC97"/>
<path d="M147.698 66.8257C145.405 66.9635 143.919 70.0848 143.919 71.9369C143.919 73.789 144.097 74.3307 144.355 75.57C144.614 76.8092 144.469 76.9014 144.614 77.7964C144.759 78.6914 145.017 79.3342 145.857 80.1835C146.255 80.5864 146.69 80.8319 147.037 80.9782C147.468 81.1605 147.928 81.1605 148.359 80.9782C148.706 80.8315 149.14 80.5864 149.539 80.1835C150.378 79.3342 150.637 78.6917 150.782 77.7964C150.927 76.9014 150.782 76.8092 151.04 75.57C151.299 74.3307 151.476 73.789 151.476 71.9369C151.476 70.0848 149.991 66.9635 147.698 66.8257Z" fill="#FEAC97"/>
<path d="M151.152 75.8358C151.152 75.8358 151.318 75.0286 151.559 75.2062C151.801 75.3834 151.648 76.5536 151.336 76.6679C151.025 76.7823 151.249 76.5473 151.255 76.1769C151.262 75.8065 151.152 75.8358 151.152 75.8358Z" fill="#F97373"/>
<path d="M144.24 75.6908C144.24 75.6908 144.075 74.8836 143.833 75.0612C143.592 75.2384 143.745 76.4086 144.056 76.5229C144.368 76.6373 144.144 76.4023 144.137 76.0319C144.131 75.6615 144.24 75.6908 144.24 75.6908Z" fill="#F97373"/>
<path d="M146.395 73.6966C146.395 73.6966 145.984 73.6853 145.606 73.8578C145.228 74.0303 145.109 73.743 145.199 73.3949C145.288 73.0467 145.95 72.914 146.333 73.0865C146.716 73.2594 146.754 73.665 146.395 73.6966Z" fill="#0F2418"/>
<path d="M146.955 75.0254C146.955 75.0254 146.604 74.4122 146.068 74.3701C145.532 74.3279 145.27 74.5512 145.138 74.4833C145.006 74.415 145.033 74.7811 145.357 74.8369C145.68 74.8927 146.242 74.6039 146.955 75.0254Z" fill="#0F2418"/>
<path d="M146.031 75.4185C146.188 75.4185 146.316 75.2104 146.316 74.9536C146.316 74.6969 146.188 74.4888 146.031 74.4888C145.873 74.4888 145.745 74.6969 145.745 74.9536C145.745 75.2104 145.873 75.4185 146.031 75.4185Z" fill="#0F2418"/>
<path d="M148.949 73.6541C148.949 73.6541 149.36 73.6428 149.738 73.8153C150.115 73.9874 150.234 73.7006 150.145 73.3524C150.056 73.0042 149.394 72.8715 149.011 73.044C148.628 73.217 148.59 73.6225 148.949 73.6541Z" fill="#0F2418"/>
<path d="M148.388 74.983C148.388 74.983 148.739 74.3698 149.275 74.3276C149.811 74.2855 150.074 74.5087 150.206 74.4408C150.337 74.3725 150.31 74.7386 149.987 74.7944C149.663 74.8499 149.102 74.5614 148.388 74.983Z" fill="#0F2418"/>
<path d="M149.313 75.376C149.471 75.376 149.598 75.1679 149.598 74.9112C149.598 74.6544 149.471 74.4463 149.313 74.4463C149.155 74.4463 149.027 74.6544 149.027 74.9112C149.027 75.1679 149.155 75.376 149.313 75.376Z" fill="#0F2418"/>
<path d="M144.195 77.8989C144.341 78.4001 144.571 78.8283 145.026 79.2182C145.052 79.2408 145.079 79.2436 145.105 79.2377C144.859 78.8224 144.727 78.4138 144.64 77.938C144.473 77.9583 144.328 77.938 144.195 77.8989Z" fill="#0F2418"/>
<path d="M151.532 71.5699C151.5 70.3427 151.362 68.4075 150.79 68.0742C150.202 67.7311 148.682 66.7358 147.912 66.4992C147.895 66.4825 147.878 66.4692 147.862 66.4629C147.821 66.4469 147.764 66.4465 147.7 66.4536C147.635 66.4469 147.578 66.4469 147.538 66.4629C147.521 66.4692 147.504 66.4825 147.487 66.4992C146.717 66.7354 145.197 67.7311 144.609 68.0742C144.014 68.4208 143.905 70.9301 143.858 72.0726L143.742 72.1108C143.742 72.1108 143.755 73.0874 143.792 74.1663C143.896 74.1436 143.992 74.1893 144.076 74.2638C144.16 74.7361 144.371 75.8099 144.571 75.9246C144.829 76.0726 144.81 75.0355 144.719 74.1015C144.627 73.1674 144.549 71.4005 145.183 71.1663C145.741 70.9602 146.657 71.742 147.7 71.628C148.743 71.742 149.659 70.9602 150.218 71.1663C150.851 71.4001 150.773 73.167 150.681 74.1015C150.59 75.0355 150.572 76.0726 150.829 75.9246C151.019 75.8154 151.219 74.8419 151.31 74.3392C151.378 74.2642 151.456 74.2029 151.541 74.1826C151.624 72.8462 151.679 71.5812 151.679 71.5812L151.532 71.5699Z" fill="#0F2418"/>
<path d="M150.755 77.952C150.755 77.952 150.755 77.9477 150.754 77.9453C150.65 78.5117 150.482 78.9836 150.129 79.4855C150.748 79.0355 150.962 78.5534 151.101 77.9547C150.994 77.9687 150.881 77.9711 150.755 77.952Z" fill="#0F2418"/>
<path d="M143.704 72.0609C143.721 71.8353 143.423 66.7518 147.023 65.3502C147.501 65.164 148.006 65.1679 148.481 65.3658C149.703 65.8744 151.99 67.3954 151.694 71.6105L143.704 72.0609Z" fill="#0F2418"/>
<path d="M144.178 71.0607C144.167 71.0607 144.155 71.0591 144.143 71.0564C144.031 71.0291 143.956 70.878 143.975 70.7188C143.986 70.6282 144.252 68.4815 145.271 67.1075C146.295 65.7274 147.569 65.6013 147.623 65.5966C147.734 65.5837 147.834 65.709 147.841 65.8702C147.848 66.0314 147.762 66.1704 147.649 66.1809C147.637 66.1821 146.466 66.3031 145.554 67.5322C144.637 68.7691 144.383 70.7964 144.381 70.8167C144.364 70.9596 144.277 71.0607 144.178 71.0607Z" fill="#3A5C6D"/>
<path d="M143.704 72.0898C143.704 72.0898 144.749 73.1483 147.359 73.1389C149.97 73.13 151.695 71.6105 151.695 71.6105L151.705 71.4411C151.187 71.1698 149.451 70.6616 148.101 70.5484C146.54 70.4173 144.4 71.103 143.705 71.8981V72.0898H143.704Z" fill="#0F2418"/>
<path d="M143.704 71.8983C143.704 71.8983 144.767 72.8097 147.377 72.8008C149.988 72.7918 151.705 71.4413 151.705 71.4413C151.705 71.4413 149.77 70.3488 148.119 70.2102C146.468 70.0716 144.27 71.0728 143.704 71.8983Z" fill="#2F4F5E"/>
<path d="M144.446 72.1285C144.366 72.1285 144.29 72.061 144.257 71.949C144.213 71.7999 144.262 71.6285 144.367 71.5661C144.445 71.5196 146.291 70.4388 147.702 70.4755C149.097 70.5196 150.802 71.2569 150.874 71.2886C150.983 71.3358 151.044 71.4997 151.011 71.6543C150.977 71.8085 150.863 71.8955 150.753 71.8483C150.736 71.8409 149.03 71.1035 147.693 71.061C147.667 71.0602 147.642 71.0598 147.616 71.0598C146.3 71.0598 144.544 72.0957 144.526 72.1063C144.5 72.1215 144.473 72.1285 144.446 72.1285Z" fill="#365C6B"/>
<path d="M144.957 76.9769C144.957 76.9769 144.802 78.6728 145.324 79.571C145.678 80.1806 146.601 81.0241 147.698 81.1151C148.794 81.2056 150.156 79.795 150.381 79.1732C150.606 78.5515 150.596 76.8579 150.42 76.6967C150.244 76.5359 148.159 75.1935 147.698 75.1803C147.237 75.1674 145.378 76.4305 144.957 76.9769Z" fill="#E1E0F0"/>
<path d="M150.504 76.9497C150.494 77.4388 150.44 77.9563 150.335 78.2444C150.11 78.8662 148.749 80.2768 147.653 80.1862C146.556 80.0957 145.633 79.2522 145.279 78.6425C145.087 78.3115 144.986 77.8724 144.936 77.4497C144.929 78.0188 144.976 78.9723 145.324 79.5719C145.678 80.1815 146.601 81.025 147.698 81.116C148.794 81.2065 150.156 79.7959 150.381 79.1741C150.562 78.6737 150.591 77.4817 150.504 76.9497Z" fill="#B7B7E2"/>
<path d="M151.111 75.2578C151.111 75.2578 150.645 76.5697 150.449 76.9393C150.336 77.1512 150.449 76.8554 150.449 76.8554L150.033 76.4936C150.033 76.4936 150.658 75.6794 151.111 75.2578Z" fill="#E1E0F0"/>
<path d="M144.355 75.5703C144.504 75.8888 144.962 77.0687 144.987 77.1749C145.045 77.4271 144.979 77.0914 144.979 77.0914L145.357 76.6542C145.357 76.6542 145.056 76.2811 144.709 75.9411L144.355 75.5703Z" fill="#E1E0F0"/>
<path d="M154.62 147.093C154.268 142.011 153.812 133.364 153.925 128.426C154.062 122.444 152.294 110.999 151.874 108.378C146.462 110.38 142.092 108.655 141.091 108.196C140.996 109.437 140.942 110.599 140.911 111.583C140.911 111.583 140.181 123.274 141.022 129.987C141.592 134.531 141.997 142.326 142.185 147.494C142.183 147.519 142.18 147.543 142.181 147.568C142.21 148.918 141.897 154.025 142.177 154.311C142.457 154.597 143.207 154.283 143.928 154.117C144.179 154.059 144.444 153.004 144.681 151.654C145.494 148.154 146.352 139.927 146.123 138.791C145.832 137.352 145.487 132.163 145.502 131.565C145.509 131.315 145.684 128.352 145.901 124.771L147.032 117.653L149.122 127.241C149.413 129.125 149.615 130.45 149.637 130.616C149.712 131.209 149.896 136.408 149.753 137.878C149.68 138.629 150.362 142.273 151.167 145.661C151.167 145.661 152.73 153.853 153.461 153.89C154.191 153.928 154.963 154.106 155.215 153.772C155.467 153.439 154.712 148.45 154.62 147.093Z" fill="#0F2418"/>
<path d="M140.953 115.97C140.855 115.97 140.767 115.868 140.75 115.725C140.732 115.565 140.808 115.415 140.92 115.388C141.363 115.284 142.585 114.899 142.921 114.374C143.222 113.904 143.518 111.425 143.635 109.974C143.648 109.813 143.747 109.699 143.863 109.716C143.976 109.734 144.057 109.879 144.044 110.04C144.012 110.444 143.714 114.005 143.226 114.768C142.734 115.537 141.165 115.924 140.987 115.966C140.976 115.969 140.965 115.97 140.953 115.97Z" fill="#3A5C6D"/>
<path d="M152.679 115.97C152.662 115.97 152.645 115.967 152.628 115.961C152.561 115.936 150.997 115.363 150.549 115.025C150.09 114.678 149.809 111.752 149.682 110.038C149.67 109.877 149.752 109.733 149.866 109.716C149.978 109.701 150.08 109.816 150.092 109.977C150.239 111.963 150.532 114.262 150.749 114.514C151.078 114.762 152.291 115.234 152.73 115.394C152.84 115.435 152.907 115.594 152.879 115.751C152.854 115.882 152.771 115.97 152.679 115.97Z" fill="#3A5C6D"/>
<path d="M142.061 153.611C142.061 153.611 140.909 156.162 140.278 156.556C139.662 156.94 138.706 157.074 138.314 157.364C137.923 157.654 137.757 158.984 137.757 158.984C137.757 158.984 144.106 158.762 144.46 158.612C144.814 158.461 144.246 153.483 144.228 153.541C144.209 153.598 142.591 153.973 142.061 153.611Z" fill="#0F2418"/>
<path d="M138.594 158.023C138.494 158.023 138.406 157.919 138.39 157.775C138.373 157.615 138.45 157.465 138.563 157.441C139.581 157.219 140.745 156.855 140.932 156.629C141.162 156.351 141.763 154.973 142.088 154.169C142.145 154.029 142.271 153.981 142.37 154.061C142.468 154.142 142.502 154.321 142.445 154.461C142.356 154.682 141.559 156.64 141.199 157.075C140.83 157.521 138.99 157.94 138.625 158.02C138.615 158.022 138.604 158.023 138.594 158.023Z" fill="#0F2418"/>
<path d="M155.279 153.642C155.279 153.642 156.472 156.155 157.109 156.528C157.731 156.891 158.689 156.994 159.085 157.271C159.481 157.548 159.668 158.872 159.668 158.872C159.668 158.872 153.317 158.858 152.961 158.72C152.605 158.581 153.092 153.585 153.111 153.642C153.131 153.699 154.755 154.021 155.279 153.642Z" fill="#0F2418"/>
<path d="M158.87 158.023C158.86 158.023 158.85 158.022 158.839 158.02C158.474 157.94 156.635 157.521 156.266 157.075C155.905 156.64 155.108 154.682 155.019 154.461C154.962 154.321 154.996 154.142 155.095 154.061C155.193 153.981 155.319 154.029 155.376 154.169C155.714 155.005 156.3 156.349 156.532 156.629C156.719 156.855 157.883 157.219 158.901 157.441C159.014 157.466 159.091 157.615 159.074 157.775C159.058 157.919 158.971 158.023 158.87 158.023Z" fill="#0F2418"/>
<path d="M149.125 82.9482C149.127 82.9415 149.128 82.937 149.128 82.937L149.125 82.9482Z" fill="url(#paint3_linear_1502_41354)"/>
<path d="M154.481 84.3921C154.08 84.1364 153.399 83.784 152.397 83.531C150.647 83.0888 149.299 82.204 149.299 82.204C149.299 82.204 149.279 82.8218 149.072 83.2043C149.072 83.2043 148.915 83.6251 147.575 83.6072C145.898 83.5845 145.886 81.7852 145.886 81.7852C145.886 81.7852 144.558 82.2762 142.79 82.5393C141.021 82.8019 140.209 83.4682 140.209 83.4682L140.204 83.6887C140.204 83.6887 141.466 98.0758 140.874 108.091C140.874 108.091 145.837 110.742 152.144 108.279C152.144 108.279 152.293 95.981 152.991 91.8803C153.512 88.8245 154.121 86.1509 154.398 84.9854C154.397 84.9858 154.524 84.3741 154.481 84.3921Z" fill="url(#paint4_linear_1502_41354)"/>
<path d="M147.466 84.0003C145.678 84.0003 145.577 82.0042 145.576 81.9835C145.567 81.7684 145.683 81.5838 145.834 81.5713C145.983 81.5604 146.115 81.722 146.124 81.9359C146.132 82.0764 146.232 83.2778 147.565 83.2173C148.962 83.1513 149.165 82.11 149.173 82.0655C149.21 81.8594 149.358 81.7302 149.503 81.779C149.649 81.8282 149.741 82.0307 149.709 82.2388C149.698 82.3071 149.43 83.9105 147.583 83.9971C147.543 83.9991 147.504 84.0003 147.466 84.0003Z" fill="#54848C"/>
<path d="M152.346 88.1309L141.874 87.5962L141.538 100.901L152.01 101.435L152.346 88.1309Z" fill="#3F636D"/>
<path d="M152.34 88.1224L150.277 86.9351L143.488 86.5752L141.869 87.5881L152.34 88.1224Z" fill="#4A757F"/>
<path d="M150.792 89.5972L148.076 89.4585L147.817 99.6756L150.534 99.8143L150.792 89.5972Z" fill="#4A757F"/>
<path d="M142.318 91.6448C142.204 91.6448 142.112 91.5137 142.112 91.3521V88.5711C142.112 88.4922 142.134 88.4165 142.174 88.3619C142.214 88.3064 142.267 88.2807 142.323 88.2783L151.359 88.5711C151.472 88.575 151.562 88.7088 151.56 88.8708C151.557 89.0324 151.45 89.1554 151.349 89.1565L142.524 88.8708V91.3521C142.524 91.5137 142.432 91.6448 142.318 91.6448Z" fill="#4A757F"/>
<path d="M151.331 100.793C151.329 100.793 151.326 100.793 151.324 100.793L142.074 100.354C141.96 100.348 141.871 100.213 141.875 100.051C141.879 99.8899 141.962 99.7643 142.088 99.7682L151.338 100.207C151.452 100.213 151.541 100.348 151.537 100.51C151.534 100.668 151.442 100.793 151.331 100.793Z" fill="#4A757F"/>
<path d="M140.152 83.4951C140.152 83.4951 139.061 84.4557 138.44 87.1895C137.818 89.9233 136.308 96.5536 136.364 98.4833C136.42 100.413 137.668 100.371 138.6 99.9451C139.532 99.5192 140.76 93.6699 141.131 91.951C141.502 90.232 141.045 84.0861 140.152 83.4951Z" fill="#54848C"/>
<path d="M141.027 93.1159C141.027 93.1159 137.207 94.774 136.482 96.9484C136.155 97.9301 135.961 102.006 137.219 101.925C138.477 101.845 140.796 97.6986 141.52 96.5815C142.244 95.4644 141.801 93.0921 141.027 93.1159Z" fill="#578D93"/>
<path d="M142.52 92.5115L142.589 92.4971C142.589 92.4971 142.501 92.7664 142.042 92.9022C141.583 93.0384 141.012 93.5552 141.012 93.5552L142.771 93.3585C142.771 93.3585 142.695 93.6844 142.523 93.7316C142.351 93.7789 141.138 94.353 141.138 94.353L140.901 94.8819L142.724 94.2793C142.724 94.2793 142.594 94.6508 142.309 94.78C142.025 94.9092 141.276 95.3597 141.157 95.3788C141.038 95.3979 142.618 95.3569 142.618 95.3569C142.618 95.3569 142.56 95.6122 142.313 95.7102C142.066 95.8085 141.741 96.0923 141.643 96.2586C141.545 96.4248 140.827 95.3823 140.827 95.3823L140.816 94.9549L140.862 93.8905L141.027 93.1157C141.027 93.1157 141.873 92.4498 142.52 92.5115Z" fill="#E0877C"/>
<path d="M140.82 93.666C140.82 93.666 140.98 92.6515 141.058 92.5013C141.135 92.351 141.76 92.1437 141.9 92.0774C142.04 92.011 142.63 92.059 142.617 92.2807C142.605 92.5024 142.587 92.6301 142.37 92.648C142.153 92.666 141.575 92.9088 141.499 92.9845C141.423 93.0602 141.049 93.4665 141.049 93.4665C141.049 93.4665 141.384 93.164 141.42 93.1078C141.456 93.0516 141.993 92.9392 142.163 92.8549C142.334 92.7706 142.58 92.6812 142.669 92.7729C142.759 92.8647 142.868 93.2799 142.725 93.438C142.581 93.5961 141.811 93.8416 141.617 93.8927C141.423 93.9439 140.993 94.2261 140.95 94.3596C140.907 94.4931 140.864 94.7792 140.864 94.7792C140.864 94.7792 140.946 94.4181 141.005 94.3287C141.065 94.2393 141.614 94.0294 141.738 93.94C141.808 93.89 142.354 93.7963 142.594 93.7077C142.8 93.6316 142.859 94.1117 142.661 94.3935C142.54 94.5645 142.21 94.6437 141.825 94.7331C141.44 94.8225 141.209 95.2741 141.209 95.2741C141.209 95.2741 141.379 95.1898 141.467 95.1617C141.555 95.1336 141.806 94.8732 141.978 94.8428C142.15 94.8119 142.332 94.7612 142.453 94.7721C142.693 94.7936 142.718 95.2905 142.552 95.4626C142.435 95.5844 141.895 95.6937 141.752 95.9845C141.609 96.2752 141.564 96.5937 141.519 96.5809C141.474 96.568 141.105 96.4103 141.047 96.2881C140.99 96.166 141.008 95.7733 140.95 95.7175C140.893 95.6617 140.638 95.3506 140.658 95.2105C140.678 95.0703 140.758 94.5629 140.756 94.4431C140.754 94.3233 140.612 93.9517 140.82 93.666Z" fill="#FEAC97"/>
<path d="M136.966 96.8454C136.914 96.8454 136.862 96.8181 136.822 96.7627C136.741 96.6503 136.739 96.4652 136.818 96.3489C136.863 96.2834 137.941 94.7283 140.331 93.5008C140.438 93.4461 140.556 93.5246 140.595 93.6764C140.634 93.8283 140.578 93.9961 140.471 94.0511C138.179 95.2283 137.124 96.742 137.114 96.7568C137.073 96.8161 137.019 96.8454 136.966 96.8454Z" fill="#5A959B"/>
<path d="M154.464 84.3813C154.464 84.3813 155.504 85.4508 155.985 88.2408C156.467 91.0308 157.64 97.7981 157.486 99.7173C157.333 101.637 156.09 101.467 155.182 100.947C154.275 100.427 153.344 94.468 153.061 92.7154C152.778 90.9633 153.543 84.8798 154.464 84.3813Z" fill="#54848C"/>
<path d="M153.105 93.888C153.105 93.888 156.832 95.931 157.445 98.1741C157.722 99.1866 157.71 103.272 156.459 103.063C155.209 102.855 153.105 98.4825 152.439 97.2947C151.773 96.1066 152.335 93.7858 153.105 93.888Z" fill="#578D93"/>
<path d="M151.647 93.1338L151.579 93.1123C151.579 93.1123 151.653 93.3898 152.104 93.5725C152.555 93.7552 153.098 94.3285 153.098 94.3285L151.354 93.953C151.354 93.953 151.413 94.2856 151.582 94.3504C151.751 94.4152 152.932 95.1111 152.932 95.1111L153.142 95.663L151.354 94.8762C151.354 94.8762 151.465 95.2598 151.742 95.4179C152.02 95.576 152.743 96.1014 152.861 96.1326C152.979 96.1638 151.405 95.962 151.405 95.962C151.405 95.962 151.45 96.2224 151.691 96.3457C151.933 96.469 152.243 96.7852 152.332 96.9608C152.422 97.1365 153.19 96.1697 153.19 96.1697L153.223 95.7446L153.23 94.6783L153.105 93.8887C153.105 93.8883 152.296 93.1381 151.647 93.1338Z" fill="#E0877C"/>
<path d="M153.285 94.4584C153.285 94.4584 153.175 93.4303 153.106 93.2722C153.037 93.1142 152.423 92.8441 152.287 92.7636C152.151 92.6832 151.56 92.6708 151.562 92.8932C151.563 93.1157 151.574 93.2445 151.79 93.2847C152.005 93.3249 152.569 93.6259 152.641 93.709C152.713 93.7921 153.066 94.2355 153.066 94.2355C153.066 94.2355 152.747 93.8995 152.714 93.8401C152.681 93.7808 152.151 93.6134 151.985 93.5119C151.819 93.4104 151.579 93.2964 151.485 93.3784C151.391 93.4608 151.261 93.864 151.396 94.0361C151.531 94.2086 152.287 94.5318 152.478 94.6024C152.668 94.6731 153.083 94.9986 153.119 95.136C153.156 95.2734 153.184 95.5634 153.184 95.5634C153.184 95.5634 153.12 95.1949 153.066 95.0997C153.011 95.0045 152.474 94.739 152.354 94.6376C152.287 94.5806 151.748 94.4315 151.513 94.3187C151.311 94.2215 151.228 94.695 151.411 94.9959C151.523 95.1786 151.847 95.2914 152.227 95.4198C152.608 95.5482 152.815 96.022 152.815 96.022C152.815 96.022 152.65 95.9205 152.563 95.8835C152.477 95.8464 152.24 95.5615 152.07 95.5131C151.9 95.465 151.721 95.3956 151.599 95.3944C151.359 95.3913 151.309 95.8842 151.465 96.0732C151.576 96.2066 152.109 96.3706 152.237 96.6754C152.365 96.9799 152.394 97.3023 152.439 97.2941C152.485 97.2859 152.861 97.1664 152.924 97.0501C152.988 96.9342 152.99 96.5408 153.05 96.4908C153.11 96.4408 153.38 96.1567 153.367 96.015C153.354 95.8733 153.3 95.3589 153.308 95.2398C153.316 95.1212 153.478 94.7648 153.285 94.4584Z" fill="#FEAC97"/>
<path d="M157.202 97.8542C157.135 97.8542 157.07 97.8086 157.03 97.7235C155.908 95.3234 153.713 94.5607 153.691 94.5533C153.58 94.5162 153.512 94.3585 153.538 94.2012C153.564 94.0439 153.677 93.9471 153.786 93.9838C153.882 94.0162 156.161 94.809 157.373 97.3995C157.436 97.5342 157.41 97.7161 157.316 97.8054C157.281 97.8382 157.241 97.8542 157.202 97.8542Z" fill="#5A959B"/>
<path d="M102.074 149.548C107.386 149.548 111.691 143.428 111.691 135.878C111.691 128.329 107.386 122.208 102.074 122.208C96.7628 122.208 92.457 128.329 92.457 135.878C92.457 143.428 96.7628 149.548 102.074 149.548Z" fill="#0F2418"/>
<path d="M101.702 143.147C104.526 143.147 106.816 139.893 106.816 135.878C106.816 131.863 104.526 128.609 101.702 128.609C98.8774 128.609 96.5876 131.863 96.5876 135.878C96.5876 139.893 98.8774 143.147 101.702 143.147Z" fill="#0F2418"/>
<path d="M41.0385 149.895C46.3499 149.895 50.6557 143.775 50.6557 136.225C50.6557 128.676 46.3499 122.556 41.0385 122.556C35.727 122.556 31.4213 128.676 31.4213 136.225C31.4213 143.775 35.727 149.895 41.0385 149.895Z" fill="#0F2418"/>
<path d="M40.6664 143.495C43.4909 143.495 45.7806 140.24 45.7806 136.225C45.7806 132.211 43.4909 128.956 40.6664 128.956C37.8418 128.956 35.5521 132.211 35.5521 136.225C35.5521 140.24 37.8418 143.495 40.6664 143.495Z" fill="#0F2418"/>
<path d="M118.012 123.646H84.5583V135.081H118.012V123.646Z" fill="#456C75"/>
<path d="M116.806 125.397H85.4484C85.2208 125.397 85.0365 125.134 85.0365 124.811C85.0365 124.488 85.2208 124.226 85.4484 124.226H116.806C117.033 124.226 117.218 124.488 117.218 124.811C117.218 125.134 117.034 125.397 116.806 125.397Z" fill="#55868E"/>
<path d="M85.8218 128.214V131.532C85.8218 132.506 86.2974 133.295 86.8842 133.295C87.471 133.295 87.9467 132.506 87.9467 131.532V128.214C87.9467 127.24 87.471 126.451 86.8842 126.451C86.2974 126.451 85.8218 127.24 85.8218 128.214Z" fill="white"/>
<path d="M114.681 128.214V131.532C114.681 132.506 115.157 133.295 115.744 133.295C116.331 133.295 116.806 132.506 116.806 131.532V128.214C116.806 127.24 116.331 126.451 115.744 126.451C115.157 126.451 114.681 127.24 114.681 128.214Z" fill="white"/>
<path d="M116.806 56.75H85.4486V123.646H116.806V56.75Z" fill="url(#paint5_linear_1502_41354)"/>
<path d="M115.744 98.7632C115.516 98.7632 115.332 98.5009 115.332 98.1777V58.4956C115.332 58.1721 115.516 57.9102 115.744 57.9102C115.971 57.9102 116.156 58.1721 116.156 58.4956V98.1777C116.156 98.5009 115.971 98.7632 115.744 98.7632Z" fill="#56CA88"/>
<path d="M86.511 98.6167C86.2834 98.6167 86.0991 98.3544 86.0991 98.0312V58.3491C86.0991 58.0256 86.2834 57.7637 86.511 57.7637C86.7387 57.7637 86.9229 58.0256 86.9229 58.3491V98.0316C86.9229 98.3544 86.7384 98.6167 86.511 98.6167Z" fill="#56CA88"/>
<path d="M87.5735 108.494H85.4486V116.594H87.5735V108.494Z" fill="#385863"/>
<path d="M116.806 108.494H114.681V116.594H116.806V108.494Z" fill="#385863"/>
<path d="M114.681 60.0376H87.5735V119.643H114.681V60.0376Z" fill="#56CA88"/>
<path d="M114.681 60.0376L87.5735 119.643V60.0376H114.681Z" fill="#35C071"/>
<path d="M101.702 79.9761H87.5735V119.643H101.702V79.9761Z" fill="#3F636D"/>
<path d="M110.339 98.1777H96.2106V119.643H110.339V98.1777Z" fill="#4A757F"/>
<path d="M39.8478 62.6582H34.6539C33.0195 62.6582 31.4976 64.0392 30.6156 66.3221L20.2048 93.2728L7.4365 103.604L4.01025 123.888H39.8478V62.6582Z" fill="#013216"/>
<path d="M6.01949 111.177H8.45853L6.80925 121.667L4.41003 121.506L6.01949 111.177Z" fill="url(#paint6_linear_1502_41354)"/>
<path d="M8.45918 105.321C8.31776 105.321 8.17991 105.217 8.10329 105.032C7.98851 104.753 8.05441 104.394 8.25075 104.231L19.8264 94.5945C20.0225 94.431 20.2751 94.5251 20.3899 94.8038C20.5047 95.0828 20.4388 95.4415 20.2425 95.6047L8.66678 105.241C8.60142 105.295 8.52975 105.321 8.45918 105.321Z" fill="#3A5B68"/>
<path d="M31.4309 70.7923L22.1311 94.5236H39.8475V67.4043L34.6742 67.7361C33.3583 67.8208 32.1489 68.9601 31.4309 70.7923Z" fill="#D9FFF8"/>
<path d="M28.9605 81.766C28.8298 81.766 28.7013 81.6777 28.6214 81.5138C28.4918 81.2476 28.5387 80.8831 28.7257 80.6992L38.118 71.4647C38.3056 71.2801 38.5618 71.3472 38.6911 71.613C38.8207 71.8792 38.7738 72.2437 38.5868 72.4276L29.1945 81.6621C29.1231 81.7324 29.0412 81.766 28.9605 81.766Z" fill="white"/>
<path d="M26.8526 89.2008C26.7219 89.2008 26.5934 89.1126 26.5135 88.9487C26.3838 88.6825 26.4308 88.3179 26.6178 88.1341L36.0101 78.8996C36.1977 78.7153 36.4541 78.7821 36.5832 79.0479C36.7128 79.3141 36.6659 79.6786 36.4789 79.8625L27.0866 89.097C27.0149 89.1673 26.9333 89.2008 26.8526 89.2008Z" fill="white"/>
<path d="M31.1647 89.9087C31.034 89.9087 30.9055 89.8205 30.8256 89.6565C30.696 89.3903 30.7429 89.0258 30.9299 88.8419L37.8431 82.0449C38.0307 81.8599 38.2869 81.9274 38.4162 82.1932C38.5458 82.4594 38.4989 82.824 38.3119 83.0078L31.3987 89.8048C31.327 89.8751 31.2455 89.9087 31.1647 89.9087Z" fill="white"/>
<path d="M85.4484 56.75H39.8475V123.646H85.4484V56.75Z" fill="url(#paint7_linear_1502_41354)"/>
<path d="M41.6119 93.8584C41.3842 93.8584 41.2 93.5961 41.2 93.2729V58.7629C41.2 58.4417 41.3823 58.1802 41.6083 58.1774L62.6444 57.9097C62.6455 57.9097 62.6468 57.9097 62.6482 57.9097C62.8739 57.9097 63.0579 58.1685 63.0601 58.4897C63.062 58.8133 62.8794 59.0775 62.6518 59.0806L42.0238 59.3429V93.2725C42.0238 93.5961 41.8395 93.8584 41.6119 93.8584Z" fill="#56CA88"/>
<path d="M85.4486 108.494H83.3235V116.594H85.4486V108.494Z" fill="#3F636D"/>
<path d="M84.5583 123.646H2.51697V135.081H84.5583V123.646Z" fill="#3F636D"/>
<path d="M62.22 126.107H29.3411C29.1135 126.107 28.9292 125.844 28.9292 125.521C28.9292 125.198 29.1135 124.936 29.3411 124.936H62.22C62.4477 124.936 62.6319 125.198 62.6319 125.521C62.6319 125.844 62.4474 126.107 62.22 126.107Z" fill="#55868E"/>
<path d="M11.6224 125.53H3.05387C2.82623 125.53 2.64197 125.268 2.64197 124.945C2.64197 124.622 2.82623 124.359 3.05387 124.359H11.6224C11.85 124.359 12.0343 124.622 12.0343 124.945C12.0343 125.268 11.85 125.53 11.6224 125.53Z" fill="#55868E"/>
<path d="M82.7495 136.225C82.7495 136.225 82.231 123.01 74.2702 121.122C66.3094 119.234 61.9734 128.862 61.7793 136.225H82.7495Z" fill="#243F44"/>
<path d="M72.3883 150.424C77.6997 150.424 82.0055 144.304 82.0055 136.754C82.0055 129.205 77.6997 123.084 72.3883 123.084C67.0769 123.084 62.7711 129.205 62.7711 136.754C62.7711 144.304 67.0769 150.424 72.3883 150.424Z" fill="#013216"/>
<path d="M72.0162 144.023C74.8407 144.023 77.1305 140.769 77.1305 136.754C77.1305 132.739 74.8407 129.485 72.0162 129.485C69.1917 129.485 66.902 132.739 66.902 136.754C66.902 140.769 69.1917 144.023 72.0162 144.023Z" fill="#3F636D"/>
<path d="M30.5195 136.225C30.5195 136.225 30.001 123.01 22.0402 121.122C14.0795 119.234 9.74346 128.862 9.54932 136.225H30.5195Z" fill="#243F44"/>
<path d="M20.0343 149.895C25.3457 149.895 29.6515 143.775 29.6515 136.225C29.6515 128.676 25.3457 122.556 20.0343 122.556C14.7229 122.556 10.4171 128.676 10.4171 136.225C10.4171 143.775 14.7229 149.895 20.0343 149.895Z" fill="#013216"/>
<path d="M19.6622 143.495C22.4867 143.495 24.7764 140.24 24.7764 136.225C24.7764 132.211 22.4867 128.956 19.6622 128.956C16.8377 128.956 14.548 132.211 14.548 136.225C14.548 140.24 16.8377 143.495 19.6622 143.495Z" fill="#3F636D"/>
<path d="M79.0006 90.9141L78.7619 90.9211L78.8461 100.192H78.9866V101.46H75.8127V100.57L73.1936 95.9034L73.0532 100.731H73.5236V102H70.3568V100.731H70.6307L70.3639 91.6078L70.0128 91.6569L69.8162 90.1923L73.8888 89.6528L74.0784 91.1173L73.7975 91.1524L75.9812 95.6441L75.6091 90.9491H75.3001L75.2861 89.4706L78.9866 89.4355L79.0006 90.9141Z" fill="white"/>
<path d="M68.8651 91.495H68.507L68.3595 99.7497H68.851V101.228H65.923V99.7497H66.3372L65.621 91.495H65.1716V90.0234H68.8651V91.495Z" fill="white"/>
<path d="M58.1954 99.8761L57.732 92.3922L57.1141 92.4693L56.9456 90.3601L58.1252 90.22C58.5465 90.1499 59.1083 90.0868 59.8034 90.0308C60.4986 89.9677 61.2148 89.9747 61.938 90.0378C62.6613 90.1008 63.2792 90.283 63.7918 90.5843C64.3043 90.8857 64.5852 91.3481 64.6344 91.9858C64.6695 93.2261 64.2622 94.1511 63.7005 94.8028C62.893 95.7768 61.8046 96.1622 61.8186 96.1622C64.6695 96.1762 64.6905 97.9771 64.7046 97.9701C64.6695 98.797 64.4167 99.4487 63.9322 99.9252C63.4477 100.402 62.8649 100.752 62.1768 100.969C61.4956 101.187 60.8286 101.327 60.1826 101.383V101.432H59.4523C58.8906 101.446 58.5254 101.446 58.3569 101.432H57.5073V99.8761H58.1954ZM60.6601 97.816L60.7935 99.757C63.4617 97.844 60.6671 97.83 60.6601 97.816ZM60.2739 92.3852L60.4494 95.0551C64.1428 92.4273 60.2739 92.3782 60.2739 92.3852Z" fill="white"/>
<path d="M56.2806 96.0193C56.2806 96.328 56.0303 96.5782 55.7217 96.5782H53.6394C53.3308 96.5782 53.0806 96.328 53.0806 96.0193C53.0806 95.7107 53.3308 95.4604 53.6394 95.4604H55.7217C56.0303 95.4604 56.2806 95.7107 56.2806 96.0193Z" fill="white"/>
<path d="M51.5681 91.9442L51.4206 100.199V101.397H50.4235H49.1877L49.1315 100.367L48.6821 91.9442L50.1251 93.0233L51.5681 91.9442Z" fill="white"/>
<g clip-path="url(#clip1_1502_41354)">
<mask id="mask0_1502_41354" style="mask-type:luminance" maskUnits="userSpaceOnUse" x="47" y="86" width="7" height="6">
<path d="M50.0466 87.5766C50.1063 87.69 50.1791 87.805 50.2444 87.9162C50.2474 87.917 50.2504 87.9177 50.2534 87.9185C50.1603 87.9722 50.0672 88.0258 49.9742 88.0794C50.1998 88.1753 50.4254 88.2711 50.651 88.367C50.8766 88.4628 51.1022 88.5587 51.3278 88.6545C51.3574 88.4116 51.387 88.1687 51.4167 87.9258C51.4463 87.6829 51.4759 87.44 51.5055 87.1971C51.4173 87.2479 51.3291 87.2988 51.2409 87.3496C51.0569 86.9822 50.8729 86.6149 50.689 86.2475C50.5349 85.9393 49.7011 85.8865 49.4426 86.3143C49.4426 86.3143 48.571 87.8382 48.4891 87.9798C48.8201 88.1705 49.1512 88.3613 49.4822 88.552L50.0466 87.5766ZM51.5681 90.0394C51.4397 90.0414 51.304 90.0542 51.1752 90.0621C51.1731 90.0645 51.171 90.0668 51.169 90.0691C51.1631 89.962 51.1571 89.8549 51.1512 89.7478C50.9637 89.9054 50.7761 90.063 50.5885 90.2206C50.4009 90.3782 50.2133 90.5358 50.0258 90.6933C50.2295 90.8294 50.4333 90.9655 50.6371 91.1016C50.8409 91.2377 51.0447 91.3737 51.2485 91.5098C51.2429 91.4083 51.2373 91.3068 51.2317 91.2053C51.6432 91.2074 52.0547 91.2095 52.4662 91.2116C52.8113 91.2136 53.2351 90.4951 52.9694 90.0717C52.9694 90.0717 52.0006 88.6074 51.911 88.4705C51.591 88.6791 51.2709 88.8878 50.9509 89.0964L51.5681 90.0394ZM47.7678 89.1548C47.541 89.4975 47.3142 89.8401 47.0874 90.1828C46.897 90.4701 47.268 91.2171 47.7685 91.2266C47.7685 91.2266 48.7599 91.2217 49.3232 91.2193C49.51 91.2185 49.6498 91.2179 49.6906 91.2179C49.6906 90.8365 49.6906 90.455 49.6906 90.0735H48.5619C48.6305 89.9652 48.6939 89.8447 48.7577 89.7327C48.7569 89.7297 48.7561 89.7268 48.7553 89.7238C48.8483 89.7774 48.9414 89.831 49.0345 89.8846C49.0049 89.6417 48.9752 89.3988 48.9456 89.1559C48.916 88.913 48.8864 88.6701 48.8568 88.4272C48.6311 88.5231 48.4055 88.6189 48.1799 88.7148C47.9543 88.8106 47.7287 88.9065 47.5031 89.0023C47.5913 89.0531 47.6796 89.104 47.7678 89.1548Z" fill="white"/>
</mask>
<g mask="url(#mask0_1502_41354)">
<path d="M53.2351 85.8862H46.897V91.5096H53.2351V85.8862Z" fill="white"/>
</g>
<path fill-rule="evenodd" clip-rule="evenodd" d="M50.6509 88.3668C50.8765 88.4626 51.1021 88.5585 51.3277 88.6543C51.3574 88.4114 51.387 88.1685 51.4166 87.9256C51.4462 87.6827 51.4759 87.4398 51.5055 87.1969C51.4173 87.2477 51.329 87.2985 51.2408 87.3494C50.5506 86.5606 50.0465 87.5763 50.0465 87.5763C50.1063 87.6897 50.1791 87.8048 50.2443 87.9159C50.2473 87.9167 50.2503 87.9175 50.2534 87.9183C50.1603 87.9719 50.0672 88.0256 49.9741 88.0792C50.1997 88.1751 50.4253 88.2709 50.6509 88.3668Z" fill="white"/>
<path fill-rule="evenodd" clip-rule="evenodd" d="M49.0344 89.8847C49.0048 89.6418 48.9752 89.3989 48.9455 89.156C48.9159 88.9131 48.8863 88.6701 48.8567 88.4272C48.6311 88.5231 48.4055 88.6189 48.1799 88.7148C47.9543 88.8106 47.7287 88.9065 47.5031 89.0023C47.5913 89.0532 47.6795 89.104 47.7677 89.1548C47.4284 90.1458 48.5618 90.0735 48.5618 90.0735C48.6304 89.9652 48.6938 89.8448 48.7576 89.7328C48.7568 89.7298 48.756 89.7268 48.7552 89.7238C48.8483 89.7774 48.9413 89.831 49.0344 89.8847Z" fill="white"/>
<path fill-rule="evenodd" clip-rule="evenodd" d="M50.5885 90.2203C50.4009 90.3779 50.2133 90.5355 50.0258 90.6931C50.2295 90.8292 50.4333 90.9652 50.6371 91.1013C50.8409 91.2374 51.0447 91.3735 51.2485 91.5096C51.2429 91.408 51.2373 91.3065 51.2317 91.205C51.2495 91.2051 51.2674 91.2052 51.2853 91.2053C52.2581 90.915 51.5681 90.0391 51.5681 90.0391C51.4397 90.0411 51.304 90.054 51.1752 90.0619C51.1731 90.0642 51.171 90.0665 51.169 90.0688C51.1631 89.9618 51.1571 89.8547 51.1512 89.7476C50.9637 89.9051 50.7761 90.0627 50.5885 90.2203Z" fill="white"/>
<path fill-rule="evenodd" clip-rule="evenodd" d="M48.489 87.9798C48.489 87.9798 49.9585 85.7439 50.9648 86.7986C50.8729 86.6149 50.7809 86.4312 50.6889 86.2475C50.5348 85.9393 49.701 85.8865 49.4425 86.3143C49.4425 86.3143 48.5709 87.8382 48.489 87.9798Z" fill="white"/>
<path fill-rule="evenodd" clip-rule="evenodd" d="M51.9107 88.4702C51.9107 88.4702 53.2462 90.7883 51.8489 91.2081C52.0546 91.2092 52.2604 91.2102 52.4661 91.2112C52.8113 91.2132 53.235 90.4946 52.9692 90.0712C52.9692 90.0712 52.0003 88.6071 51.9107 88.4702Z" fill="white"/>
<path fill-rule="evenodd" clip-rule="evenodd" d="M49.6906 91.2164C49.6906 91.2164 47.0154 91.0663 47.4265 89.6689C47.3132 89.8404 47.1999 90.0118 47.0866 90.1832C46.8965 90.4706 47.268 91.2174 47.7686 91.2265C47.7686 91.2265 49.5268 91.2165 49.6906 91.2164Z" fill="white"/>
<path fill-rule="evenodd" clip-rule="evenodd" d="M48.7552 89.7237C47.6997 89.9385 47.7677 89.1548 47.7677 89.1548C47.4284 90.1457 48.5619 90.0735 48.5619 90.0735C48.6304 89.9652 48.6938 89.8447 48.7577 89.7327C48.7569 89.7297 48.756 89.7267 48.7552 89.7237Z" fill="white"/>
<path fill-rule="evenodd" clip-rule="evenodd" d="M51.1689 90.0688C51.9263 90.8332 51.2317 91.205 51.2317 91.205C52.2486 90.9466 51.5681 90.0391 51.5681 90.0391C51.4397 90.041 51.304 90.0539 51.1751 90.0618C51.1731 90.0641 51.171 90.0665 51.1689 90.0688Z" fill="white"/>
<path fill-rule="evenodd" clip-rule="evenodd" d="M50.2533 87.9183C50.5947 86.8987 51.2408 87.3494 51.2408 87.3494C50.5505 86.5606 50.0465 87.5764 50.0465 87.5764C50.1062 87.6898 50.179 87.8048 50.2443 87.916C50.2473 87.9168 50.2503 87.9175 50.2533 87.9183Z" fill="white"/>
</g>
</g>
<defs>
<linearGradient id="paint0_linear_1502_41354" x1="83.64" y1="20.9422" x2="83.6401" y2="-13.9007" gradientUnits="userSpaceOnUse">
<stop stop-color="#03B04E"/>
<stop offset="1" stop-color="#02C320"/>
</linearGradient>
<linearGradient id="paint1_linear_1502_41354" x1="148.717" y1="49.0704" x2="148.717" y2="2.95268" gradientUnits="userSpaceOnUse">
<stop stop-color="#03B04E"/>
<stop offset="1" stop-color="#02C320"/>
</linearGradient>
<linearGradient id="paint2_linear_1502_41354" x1="14.0996" y1="68.0132" x2="14.0996" y2="44.9011" gradientUnits="userSpaceOnUse">
<stop stop-color="#03B04E"/>
<stop offset="1" stop-color="#02C320"/>
</linearGradient>
<linearGradient id="paint3_linear_1502_41354" x1="149.127" y1="82.9516" x2="149.127" y2="82.9273" gradientUnits="userSpaceOnUse">
<stop stop-color="#03B04E"/>
<stop offset="1" stop-color="#02C320"/>
</linearGradient>
<linearGradient id="paint4_linear_1502_41354" x1="147.367" y1="117.688" x2="147.367" y2="57.932" gradientUnits="userSpaceOnUse">
<stop stop-color="#03B04E"/>
<stop offset="1" stop-color="#02C320"/>
</linearGradient>
<linearGradient id="paint5_linear_1502_41354" x1="101.173" y1="143.954" x2="101.173" y2="-1.18659" gradientUnits="userSpaceOnUse">
<stop stop-color="#03B04E"/>
<stop offset="1" stop-color="#02C320"/>
</linearGradient>
<linearGradient id="paint6_linear_1502_41354" x1="6.44012" y1="124.852" x2="6.44013" y2="102.091" gradientUnits="userSpaceOnUse">
<stop stop-color="#03B04E"/>
<stop offset="1" stop-color="#02C320"/>
</linearGradient>
<linearGradient id="paint7_linear_1502_41354" x1="62.7137" y1="143.954" x2="62.7137" y2="-1.18659" gradientUnits="userSpaceOnUse">
<stop stop-color="#03B04E"/>
<stop offset="1" stop-color="#02C320"/>
</linearGradient>
<clipPath id="clip0_1502_41354">
<rect width="160" height="160" fill="white"/>
</clipPath>
<clipPath id="clip1_1502_41354">
<rect width="6.06533" height="5.53116" fill="white" transform="translate(47 86)"/>
</clipPath>
</defs>
</svg>
