<svg width="160" height="160" viewBox="0 0 160 160" fill="none" xmlns="http://www.w3.org/2000/svg">
<g id="Slider_Illustration_1" clip-path="url(#clip0_1502_40140)">
<path id="Vector" d="M150.116 61.5951C143.368 54.2163 133.153 49.1002 130.487 39.469C129.371 35.437 129.789 31.1016 128.664 27.0725C126.75 20.2237 120.516 15.2107 113.73 13.0549C106.944 10.8992 99.6343 11.1845 92.5529 11.9374C80.9307 13.1728 68.8322 15.9066 60.1818 23.7544C52.3483 30.8614 48.2286 41.3897 40.2215 48.3014C33.1048 54.4444 23.4283 57.2685 16.9321 64.0619C9.93027 71.3842 7.79517 82.3084 8.96479 92.3648C10.1344 102.421 16.6011 124.016 20.6356 133.304L132.866 134.236C136.922 125.267 146.563 114.551 152.43 106.643C162.143 93.5503 161.12 73.6273 150.116 61.5951Z" fill="#E6F7ED"/>
<g id="Group">
<g id="Group_2">
<g id="Group_3">
<path id="Vector_2" d="M11.5244 87.5576C7.83279 83.906 4.00101 78.9364 0.059261 73.2399C-0.049241 73.0828 -0.00547227 72.8628 0.163717 72.7206C2.63241 70.645 5.07537 68.8135 7.50397 67.2457C7.69781 67.1204 7.95269 67.1612 8.06892 67.3335C11.6579 72.6509 15.297 77.4439 19.0078 81.5773C19.1372 81.7212 19.1085 81.9643 18.9445 82.1164C16.7866 84.1194 14.4775 85.9424 12.0077 87.5704C11.8415 87.6795 11.6425 87.6743 11.5244 87.5576Z" fill="#8BDBAE"/>
<path id="Vector_3" d="M10.643 85.4244C7.87636 82.5625 5.02956 78.8734 2.11876 74.7007C2.02754 74.57 2.03674 74.3875 2.15333 74.2479C2.39682 73.9567 2.47957 73.5902 2.37254 73.2743C2.32399 73.1307 2.3696 72.9644 2.49796 72.8472C4.03465 71.4469 5.51285 70.2427 6.89984 69.4803C7.05431 69.3954 7.24336 69.4039 7.36658 69.5052C7.65273 69.7406 8.07423 69.7924 8.44866 69.6422C8.62704 69.5706 8.82308 69.6136 8.92055 69.7553C11.5614 73.6001 14.2434 77.118 16.9802 80.2337C17.0884 80.3567 17.0777 80.5499 16.964 80.7001C16.7316 81.0071 16.6676 81.4012 16.8011 81.7163C16.8647 81.8665 16.8158 82.0564 16.6783 82.1809C15.363 83.3722 13.9477 84.4512 12.4467 85.4494C12.308 85.5416 12.1436 85.5497 12.02 85.4791C11.7519 85.3264 11.3984 85.3275 11.0744 85.4828C10.9174 85.5577 10.746 85.5309 10.643 85.4244Z" fill="#8BDBAE"/>
</g>
<g id="Group_4">
<path id="Vector_4" d="M11.1041 79.4016C9.86682 80.3851 8.35735 80.1934 7.49816 79.1115C6.63382 78.0234 6.874 76.5995 8.15028 75.6399C9.40412 74.6975 10.9607 74.901 11.7868 75.9653C12.6088 77.0237 12.3197 78.4354 11.1041 79.4016Z" fill="#8BDBAE"/>
<path id="Vector_5" d="M7.09873 73.9963C6.44955 74.473 5.66871 74.3507 5.22881 73.7936C4.78782 73.2346 4.91324 72.5218 5.57271 72.0513C6.2263 71.5853 7.04025 71.7035 7.47131 72.2562C7.90127 72.8071 7.74201 73.524 7.09873 73.9963Z" fill="#8BDBAE"/>
<path id="Vector_6" d="M13.6853 82.6551C13.0799 83.1601 12.3432 83.0764 11.9228 82.5439C11.5013 82.0099 11.6109 81.2959 12.2262 80.7965C12.836 80.3018 13.6036 80.3796 14.016 80.9081C14.4272 81.4348 14.2856 82.1546 13.6853 82.6551Z" fill="#8BDBAE"/>
</g>
</g>
<g id="Group_5">
<g id="Group_6">
<path id="Vector_7" d="M149.855 47.4501C145.94 50.2868 140.792 53.0529 134.958 55.811C134.797 55.887 134.601 55.8135 134.496 55.6369C132.958 53.0603 131.64 50.5442 130.564 48.0807C130.477 47.8842 130.553 47.6565 130.729 47.5757C136.161 45.0843 141.118 42.468 145.479 39.6865C145.631 39.5895 145.85 39.6523 145.965 39.8257C147.483 42.1063 148.812 44.4982 149.939 47.0087C150.015 47.1777 149.98 47.3594 149.855 47.4501Z" fill="#8BDBAE"/>
<path id="Vector_8" d="M147.759 47.9372C144.71 50.0437 140.888 52.0996 136.611 54.1415C136.477 54.2054 136.311 54.1694 136.2 54.0416C135.969 53.7746 135.644 53.6435 135.337 53.6938C135.198 53.7166 135.052 53.6501 134.963 53.5146C133.906 51.8947 133.021 50.3574 132.528 48.9706C132.474 48.816 132.51 48.6441 132.621 48.5465C132.881 48.3195 132.992 47.9405 132.91 47.5747C132.871 47.4003 132.94 47.2269 133.085 47.159C137.02 45.3154 140.659 43.3848 143.938 41.3439C144.067 41.2635 144.243 41.3024 144.364 41.4291C144.612 41.6888 144.964 41.8067 145.275 41.7314C145.422 41.6954 145.589 41.7689 145.684 41.9139C146.582 43.2996 147.361 44.7601 148.054 46.2868C148.118 46.4278 148.1 46.5798 148.017 46.6827C147.836 46.9056 147.784 47.2299 147.878 47.5505C147.923 47.7058 147.873 47.859 147.759 47.9372Z" fill="#8BDBAE"/>
</g>
<g id="Group_7">
<path id="Vector_9" d="M142.288 46.6072C143.007 47.89 142.603 49.2456 141.479 49.871C140.348 50.5001 139.074 50.0656 138.383 48.7501C137.705 47.4582 138.127 46.0615 139.23 45.4636C140.327 44.8698 141.583 45.3472 142.288 46.6072Z" fill="#8BDBAE"/>
<path id="Vector_10" d="M136.713 49.4679C137.054 50.1352 136.824 50.833 136.245 51.1525C135.665 51.4731 135.028 51.2505 134.694 50.5748C134.364 49.9053 134.595 49.1763 135.169 48.8642C135.74 48.5531 136.375 48.8069 136.713 49.4679Z" fill="#8BDBAE"/>
<path id="Vector_11" d="M145.67 44.7303C146.044 45.3616 145.856 46.0245 145.303 46.3301C144.748 46.6364 144.108 46.4285 143.741 45.7891C143.378 45.1556 143.565 44.463 144.113 44.1644C144.659 43.8666 145.3 44.1045 145.67 44.7303Z" fill="#8BDBAE"/>
</g>
</g>
<g id="Group_8">
<g id="Group_9">
<g id="Group_10">
<path id="Vector_12" d="M46.6204 52.0585C40.8547 50.2825 36.9571 47.1058 33.4203 42.3455C33.3232 42.1875 33.3305 41.9701 33.4409 41.8306C35.0515 39.7934 37.2988 37.3953 39.3783 36.3883C39.5442 36.3079 39.7568 36.3666 39.8487 36.5032C42.2781 40.4361 45.5618 42.4476 49.6055 44.4289C49.7691 44.5016 49.8412 44.6848 49.7688 44.8439C48.815 46.9372 48.5013 50.1411 47.0422 51.9344C46.944 52.0545 46.7675 52.1026 46.6204 52.0585Z" fill="#8BDBAE"/>
<path id="Vector_13" d="M45.2037 50.3833C41.3903 48.9047 37.9363 46.4493 35.3922 43.2003C35.301 43.0838 35.2782 42.9156 35.3447 42.7816C35.4841 42.5014 35.4959 42.1514 35.3723 41.8565C35.3161 41.7224 35.33 41.5616 35.4157 41.4426C36.4393 40.0217 37.6104 38.7264 38.7157 38.0591C38.8389 37.9849 38.9904 37.9886 39.0886 38.0657C39.3174 38.2453 39.6495 38.2618 39.9434 38.1425C40.0835 38.0856 40.2365 38.1149 40.3108 38.2141C41.9156 40.5707 44.7789 42.8091 47.3745 43.9447C47.4937 44.0038 47.5536 44.1474 47.5279 44.2932C47.4756 44.5914 47.5878 44.9212 47.8144 45.1243C47.9222 45.2212 47.97 45.3872 47.9299 45.5352C47.5455 46.9513 47.2138 48.5625 46.5797 49.8486C46.5212 49.9676 46.402 50.0274 46.2777 50.0142C46.0077 49.9852 45.7455 50.1012 45.5627 50.3069C45.4741 50.4061 45.3288 50.4321 45.2037 50.3833Z" fill="#8BDBAE"/>
</g>
<g id="Group_11">
<path id="Vector_14" d="M43.0992 45.6547C42.5041 47.0157 41.2848 47.3998 40.3219 46.709C39.3531 46.0142 39.2472 44.6363 40.0873 43.3909C40.9122 42.1676 42.0888 41.9201 42.8325 42.5022C43.5718 43.081 43.684 44.3175 43.0992 45.6547Z" fill="#8BDBAE"/>
<path id="Vector_15" d="M39.0753 42.1905C38.6048 42.7832 37.9674 42.8585 37.5595 42.4138C37.1502 41.9679 37.2024 41.2485 37.7243 40.698C38.2415 40.1523 38.909 40.1423 39.2698 40.5463C39.6292 40.9488 39.5416 41.6029 39.0753 42.1905Z" fill="#8BDBAE"/>
<path id="Vector_16" d="M46.1175 47.3586C45.9071 48.0648 45.3326 48.3142 44.8092 48.0369C44.284 47.7589 44.0964 47.0942 44.3535 46.3964C44.6084 45.7045 45.1663 45.4452 45.6474 45.7148C46.1274 45.9836 46.3256 46.6586 46.1175 47.3586Z" fill="#8BDBAE"/>
</g>
</g>
</g>
<g id="Group_12">
<g id="Group_13">
<g id="Group_14">
<path id="Vector_17" d="M151.062 124.828C155.394 122.229 157.923 118.497 159.983 113.967C160.039 113.83 159.954 113.635 159.785 113.506C157.627 111.999 155.472 110.666 152.963 109.819C152.809 109.767 152.692 109.826 152.696 109.95C152.702 114.097 150.219 118.039 146.85 120.347C146.741 120.427 146.742 120.587 146.851 120.702C148.163 122.06 149.483 123.411 150.768 124.795C150.843 124.875 150.963 124.889 151.062 124.828Z" fill="#8BDBAE"/>
<path id="Vector_18" d="M152.138 123.211C155.025 121.174 156.77 118.478 158.311 115.366C158.36 115.254 158.328 115.098 158.225 114.98C158.01 114.735 157.893 114.429 157.908 114.165C157.915 114.045 157.85 113.908 157.736 113.815C156.369 112.702 155.071 111.949 154.053 111.584C153.94 111.544 153.837 111.572 153.798 111.656C153.706 111.851 153.482 111.937 153.238 111.883C153.121 111.856 153.028 111.911 153.01 112.02C152.591 115.773 151.219 117.562 148.707 119.505C148.626 119.575 148.62 119.695 148.685 119.796C148.82 120.003 148.833 120.252 148.716 120.437C148.661 120.525 148.678 120.645 148.759 120.733C149.537 121.569 150.319 122.346 151.055 123.075C151.123 123.142 151.22 123.161 151.307 123.128C151.494 123.058 151.707 123.088 151.871 123.21C151.95 123.269 152.056 123.267 152.138 123.211Z" fill="#8BDBAE"/>
</g>
<g id="Group_15">
<path id="Vector_19" d="M152.567 119.19C153.304 119.907 154.27 119.85 154.865 119.03C155.462 118.205 155.271 117.025 154.403 116.337C153.552 115.66 152.641 115.949 152.164 116.743C151.69 117.533 151.844 118.485 152.567 119.19Z" fill="#8BDBAE"/>
<path id="Vector_20" d="M154.902 114.982C155.371 115.314 155.865 115.18 156.067 114.703C156.269 114.224 156.041 113.653 155.523 113.34C155.009 113.03 154.551 113.203 154.395 113.664C154.239 114.123 154.437 114.654 154.902 114.982Z" fill="#8BDBAE"/>
<path id="Vector_21" d="M150.669 121.244C151 121.606 151.469 121.609 151.794 121.289C152.12 120.968 152.122 120.477 151.77 120.115C151.421 119.757 150.923 119.784 150.616 120.104C150.311 120.424 150.339 120.886 150.669 121.244Z" fill="#8BDBAE"/>
</g>
</g>
</g>
</g>
<g id="Group_16">
<g id="Group_17">
<g id="Group_18">
<path id="Vector_22" d="M66.6193 103.225C55.06 103.635 43.5003 103.638 31.9406 103.236C31.3561 103.216 30.8714 102.773 30.7993 102.193C29.4038 90.9859 28.4696 79.8362 28.2232 68.7559C28.2089 68.1084 28.719 67.5678 29.3667 67.5421C42.544 67.0144 55.7217 67.0147 68.899 67.5425C69.543 67.5682 70.0513 68.1025 70.0428 68.7459C69.8946 79.8303 69.067 90.976 67.7606 102.174C67.6929 102.757 67.2071 103.204 66.6193 103.225Z" fill="#0F2418"/>
<path id="Vector_23" d="M70.2139 76.7996C55.9964 76.8907 42.0294 76.9656 27.7646 76.7775C27.2423 76.7706 26.7803 76.425 26.6372 75.9233C25.8325 73.1028 25.3459 69.7076 25.4897 66.8611C25.5213 66.2345 26.0392 65.7424 26.6674 65.7358C41.4693 65.5823 56.2712 65.5827 71.0734 65.7362C71.6906 65.7424 72.2018 66.2184 72.2493 66.8328C72.4714 69.7116 72.1305 73.072 71.3526 75.934C71.2136 76.4445 70.7439 76.7963 70.2139 76.7996Z" fill="#014A21"/>
<g id="Group_19">
<path id="Vector_24" d="M69.2704 90.5374C56.0141 91.0718 42.6363 91.1323 29.1431 90.7434C28.8268 90.7342 28.5561 90.5051 28.5049 90.1933C28.2074 88.3787 28.1243 86.4176 28.196 84.3503C28.2085 83.9904 28.5012 83.7036 28.8621 83.7036H69.991C70.3588 83.7036 70.6574 84.0022 70.6578 84.3698C70.6593 86.6798 70.475 88.7261 69.8516 90.1481C69.7504 90.3784 69.522 90.5275 69.2704 90.5374Z" fill="#35C071"/>
<g id="Group_20">
<path id="Vector_25" d="M52.2159 104.288C50.1845 104.526 48.1535 104.526 46.1221 104.288C45.6179 104.229 45.2379 103.793 45.2379 103.279V66.0643C45.2379 65.5042 45.6859 65.0503 46.2387 65.0503H52.0997C52.6525 65.0503 53.1005 65.5042 53.1005 66.0643V103.279C53.1001 103.794 52.7201 104.229 52.2159 104.288Z" fill="#35C071"/>
<path id="Vector_26" d="M45.2377 83.7039V91.1583" stroke="#013216" stroke-width="0.25" stroke-miterlimit="10" stroke-linecap="round" stroke-linejoin="round"/>
<path id="Vector_27" d="M53.1001 83.7041V90.9555" stroke="#013216" stroke-width="0.25" stroke-miterlimit="10" stroke-linecap="round" stroke-linejoin="round"/>
</g>
</g>
<g id="Group_21">
<g id="Group_22">
<path id="Vector_28" d="M46.2159 63.7266C43.781 68.229 39.7017 71.5082 34.6205 74.0419C34.0133 74.3449 34.1913 75.2523 34.8684 75.3012L37.8807 75.5175L37.1253 78.6645C37.0035 79.1716 37.4865 79.6134 37.9834 79.4533C44.0396 77.4999 47.8684 72.8535 49.6482 65.7306L46.2159 63.7266Z" fill="#FD9518"/>
<path id="Vector_29" d="M47.7532 68.5166C46.4692 73.0444 43.7769 76.5274 38.4945 78.0886" stroke="#013216" stroke-width="0.25" stroke-miterlimit="10" stroke-linecap="round" stroke-linejoin="round"/>
</g>
<g id="Group_23">
<path id="Vector_30" d="M51.8545 63.7266C54.6678 68.929 59.3816 72.7183 65.2528 75.646C65.9546 75.996 65.7486 77.0449 64.9663 77.1011L61.4854 77.3512L62.3582 80.9873C62.4987 81.5731 61.9411 82.0839 61.367 81.8985C54.3691 79.6413 49.9452 74.2725 47.8884 66.0421L51.8545 63.7266Z" fill="#FD9518"/>
<path id="Vector_31" d="M51.593 72.9004C53.6759 76.6214 56.6716 79.4363 61.0415 80.8884" stroke="#013216" stroke-width="0.25" stroke-miterlimit="10" stroke-linecap="round" stroke-linejoin="round"/>
</g>
<g id="Group_24">
<path id="Vector_32" d="M37.3246 54.6262C37.3246 54.6262 32.8072 56.8297 34.8073 60.4108C36.8074 63.9918 42.9111 66.574 49.6008 65.7822L37.3246 54.6262Z" fill="#FFBD39"/>
<path id="Vector_33" d="M49.6004 65.7824C49.6004 65.7824 41.4966 52.6638 37.3242 54.6264C33.1519 56.589 49.6004 65.7824 49.6004 65.7824Z" fill="#FD9518"/>
<path id="Vector_34" d="M37.9093 56.3306C38.2543 57.5355 41.0474 60.2759 47.8878 64.3234" stroke="#013216" stroke-width="0.25" stroke-miterlimit="10" stroke-linecap="round" stroke-linejoin="round"/>
</g>
<g id="Group_25">
<path id="Vector_35" d="M60.9413 54.626C60.9413 54.626 65.4587 56.8295 63.4586 60.4105C61.4585 63.9916 55.3548 66.5737 48.6652 65.7819L60.9413 54.626Z" fill="#FFBD39"/>
<path id="Vector_36" d="M48.665 65.7824C48.665 65.7824 56.7689 52.6638 60.9412 54.6264C65.1136 56.589 48.665 65.7824 48.665 65.7824Z" fill="#FD9518"/>
<path id="Vector_37" d="M59.9972 57.105C59.7342 58.3775 55.3834 61.2681 50.1952 64.4908" stroke="#013216" stroke-width="0.25" stroke-miterlimit="10" stroke-linecap="round" stroke-linejoin="round"/>
</g>
</g>
</g>
<g id="Group_26">
<path id="Vector_38" d="M123.946 132.741L124.383 132.929C124.729 133.078 125.14 132.854 125.309 132.424C134.573 108.792 140.208 93.0652 143.806 82.4095C143.839 82.3114 143.734 82.1803 143.569 82.1153L143.364 82.0341C143.2 81.9695 143.036 81.9926 142.995 82.087C139.021 91.1735 133.293 105.646 123.614 131.687C123.453 132.121 123.599 132.592 123.946 132.741Z" fill="#014A21"/>
<g id="Group_27">
<path id="Vector_39" d="M158.892 99.0279C158.892 99.0279 159.844 101.31 158.219 102.973C156.46 104.774 148.929 104.635 147.834 103.369C146.739 102.104 147.33 98.5806 147.33 98.5806L158.892 99.0279Z" fill="#FD9518"/>
<path id="Vector_40" d="M118.647 85.2358C118.647 85.2358 115.287 86.104 116.279 88.4478C117.27 90.7912 118.721 93.8725 122.639 93.9815C124.376 94.03 126.115 91.1853 126.115 91.1853L118.647 85.2358Z" fill="#FFBD39"/>
<path id="Vector_41" d="M136.45 95.4506C136.45 95.4506 136.568 99.6299 134.464 100.188C131.371 101.009 123.936 96.884 123.252 95.1245C122.569 93.365 125.917 91.3701 125.917 91.3701L136.45 95.4506Z" fill="#FD9518"/>
<path id="Vector_42" d="M135.999 96.3154C135.999 96.3154 134.161 99.5256 135.671 101.024C137.89 103.225 145.052 104.432 146.586 103.249C148.121 102.066 147.658 99.0088 147.658 99.0088L135.999 96.3154Z" fill="#FFBD39"/>
<path id="Vector_43" d="M158.98 98.7589C156.846 91.6817 151.735 84.2588 145.526 78.32C144.949 77.7673 144.127 77.4889 143.306 77.5624C133.511 78.4405 124.865 80.7986 118.727 84.9874C118.37 85.2313 118.319 85.7047 118.613 86.0216C127.665 95.7387 144.434 101.428 158.351 99.6422C158.811 99.5834 159.105 99.1717 158.98 98.7589Z" fill="#FD9518"/>
<path id="Vector_44" d="M144.436 77.6865C144.844 77.814 145.22 78.027 145.526 78.3204C151.735 84.2588 156.846 91.6817 158.98 98.7593C159.104 99.1721 158.811 99.5838 158.352 99.6429C154.915 100.084 151.305 100.067 147.68 99.6488C149.142 92.2014 147.812 84.8931 144.436 77.6865Z" fill="#FFBD39"/>
<path id="Vector_45" d="M144.436 77.6865C140.633 84.3921 137.404 90.8895 135.744 96.8203C132.054 95.4842 128.549 93.7574 125.422 91.6975C130.242 84.9823 136.391 80.0571 144.436 77.6865Z" fill="#FFBD39"/>
</g>
<g id="Group_28">
<path id="Vector_46" d="M146.084 81.6641C148.141 86.4218 148.589 92.3154 147.784 99.0949" stroke="#013216" stroke-width="0.25" stroke-miterlimit="10" stroke-linecap="round" stroke-linejoin="round"/>
<path id="Vector_47" d="M137.405 80.6494C133.173 83.1184 129.439 86.3253 126.337 90.466" stroke="#013216" stroke-width="0.25" stroke-miterlimit="10" stroke-linecap="round" stroke-linejoin="round"/>
</g>
</g>
<g id="Group_29">
<g id="Group_30">
<path id="Vector_48" d="M86.7994 101.579C86.7994 101.579 90.0538 90.3795 83.5451 89.0923C77.0365 87.8051 62.0279 88.3872 58.9192 90.1331C55.8105 91.879 58.6764 102.209 58.6764 102.209L65.7191 101.967C65.7191 101.967 62.659 93.0913 65.2818 92.752C67.9046 92.4126 80.5332 92.1699 81.3103 93.2856C82.0875 94.4009 81.7962 101.336 81.7962 101.336L86.7994 101.579Z" fill="#FD9518"/>
<path id="Vector_49" d="M75.9256 92.0009C75.9256 92.0009 65.7713 91.5242 64.0051 92.5709C62.8005 93.2852 64.143 98.936 64.143 98.936" stroke="#013216" stroke-width="0.25" stroke-miterlimit="10" stroke-linecap="round" stroke-linejoin="round"/>
</g>
<path id="Vector_50" d="M106.687 147.026C84.2571 147.514 60.7148 147.143 38.285 146.597C36.7321 146.559 35.4595 145.347 35.3558 143.8C34.4488 130.292 35.5662 116.503 36.1698 102.489C36.2378 100.912 37.5218 99.6568 39.1026 99.6189C61.9929 99.0721 83.4222 99.1121 106.312 99.6656C107.898 99.7038 109.182 100.966 109.245 102.549C109.805 116.6 110.573 130.691 109.621 144.237C109.512 145.782 108.239 146.992 106.687 147.026Z" fill="#8BDBAE"/>
<g id="Group_31">
<g id="Group_32">
<g id="Group_33">
<path id="Vector_51" d="M45.6366 99.0499C45.2813 99.0628 44.9926 99.3727 44.9672 99.7708C44.8447 101.701 44.5928 106.998 45.4711 107.529C46.5473 108.179 53.2111 108.226 54.0391 107.529C54.7125 106.962 54.426 101.499 54.2958 99.4825C54.2689 99.0657 53.9541 98.7499 53.5822 98.7631L45.6366 99.0499Z" fill="#FD9518"/>
<path id="Vector_52" d="M53.6051 100.015C53.6051 100.015 54.0855 106.593 53.5223 107.041C52.5484 107.815 49.2349 107.482 49.2349 107.482" stroke="#013216" stroke-width="0.25" stroke-miterlimit="10" stroke-linecap="round" stroke-linejoin="round"/>
</g>
<g id="Group_34">
<path id="Vector_53" d="M51.5848 104.273C51.5848 105.338 50.7201 106.202 49.6531 106.202C48.5865 106.202 47.7218 105.338 47.7218 104.273C47.7218 103.208 48.752 102.62 49.819 102.62C50.8856 102.62 51.5848 103.208 51.5848 104.273Z" fill="white"/>
<path id="Vector_54" d="M51.0589 103.398C51.5849 104.989 50.8368 105.882 49.4343 105.909" stroke="#013216" stroke-width="0.25" stroke-miterlimit="10" stroke-linecap="round" stroke-linejoin="round"/>
</g>
</g>
<g id="Group_35">
<g id="Group_36">
<path id="Vector_55" d="M91.4165 99.0499C91.0612 99.0628 90.7725 99.3727 90.7471 99.7708C90.6246 101.701 90.3727 106.998 91.251 107.529C92.3272 108.179 98.991 108.226 99.819 107.529C100.492 106.962 100.206 101.499 100.076 99.4825C100.049 99.0657 99.734 98.7499 99.3622 98.7631L91.4165 99.0499Z" fill="#FD9518"/>
<path id="Vector_56" d="M99.3845 100.015C99.3845 100.015 99.8645 106.593 99.3018 107.041C98.3278 107.815 95.0143 107.482 95.0143 107.482" stroke="#013216" stroke-width="0.25" stroke-miterlimit="10" stroke-linecap="round" stroke-linejoin="round"/>
</g>
<g id="Group_37">
<path id="Vector_57" d="M97.3652 104.273C97.3652 105.338 96.5005 106.202 95.4335 106.202C94.3669 106.202 93.5018 105.338 93.5018 104.273C93.5018 103.208 94.532 102.62 95.599 102.62C96.6657 102.62 97.3652 103.208 97.3652 104.273Z" fill="white"/>
<path id="Vector_58" d="M96.8391 103.398C97.365 104.989 96.6169 105.882 95.2145 105.909" stroke="#013216" stroke-width="0.25" stroke-miterlimit="10" stroke-linecap="round" stroke-linejoin="round"/>
</g>
</g>
</g>
<g id="Group_38">
<path id="Vector_59" d="M89.1056 124.307C89.1056 133.441 81.6903 139.876 72.5427 139.876C63.395 139.876 55.9797 132.471 55.9797 123.338C55.9797 114.204 63.978 107.442 73.1253 107.442C82.2729 107.442 89.1056 115.173 89.1056 124.307Z" fill="white"/>
<path id="Vector_60" d="M82.8827 120.175H77.9273C76.8801 120.175 76.0316 119.327 76.0316 118.282V113.334C76.0316 112.289 75.1827 111.441 74.1359 111.441H70.9497C69.9025 111.441 69.054 112.289 69.054 113.334V118.282C69.054 119.328 68.2051 120.175 67.1583 120.175H62.2029C61.1558 120.175 60.3073 121.023 60.3073 122.068V125.249C60.3073 126.295 61.1561 127.142 62.2029 127.142H67.1583C68.2055 127.142 69.054 127.99 69.054 129.035V133.983C69.054 135.028 69.9029 135.876 70.9497 135.876H74.1359C75.1831 135.876 76.0316 135.028 76.0316 133.983V129.035C76.0316 127.989 76.8805 127.142 77.9273 127.142H82.8827C83.9298 127.142 84.7783 126.294 84.7783 125.249V122.068C84.7783 121.022 83.9298 120.175 82.8827 120.175Z" fill="#8BDBAE"/>
<path id="Vector_61" d="M86.1033 116.402C89.7456 123.658 88.7287 130.595 82.2954 135.721" stroke="#013216" stroke-width="0.25" stroke-miterlimit="10" stroke-linecap="round" stroke-linejoin="round"/>
</g>
</g>
<g id="Group_39">
<g id="Group_40">
<path id="Vector_62" d="M122.263 140.881C122.263 140.881 148.531 120.508 144.66 111C141.939 104.318 120.254 116.499 122.263 140.881Z" fill="#FFBD39"/>
<g id="Group_41">
<path id="Vector_63" d="M143.447 109.624C141.191 111.797 139.026 114.152 136.95 116.683C136.462 117.273 135.98 117.872 135.508 118.481H135.506C134.019 120.382 132.58 122.376 131.184 124.464C130.816 125.009 130.454 125.56 130.096 126.118C128.972 127.863 127.876 129.669 126.812 131.535C126.395 132.262 125.983 132.998 125.579 133.742C124.423 135.855 123.303 138.037 122.219 140.295C122.219 140.295 122.219 140.295 122.218 140.298" stroke="#013216" stroke-width="0.25" stroke-miterlimit="10" stroke-linecap="round" stroke-linejoin="round"/>
<path id="Vector_64" d="M136.962 110.475L136.943 116.682L136.949 116.682L144.322 116.565" stroke="#013216" stroke-width="0.25" stroke-miterlimit="10" stroke-linecap="round" stroke-linejoin="round"/>
<path id="Vector_65" d="M134.646 111.868L135.502 118.48L135.505 118.48L135.508 118.481L143.471 118.449" stroke="#013216" stroke-width="0.25" stroke-miterlimit="10" stroke-linecap="round" stroke-linejoin="round"/>
<g id="Group_42">
<path id="Vector_66" d="M129.947 116.111L131.18 124.463L131.183 124.463L139.684 124.123" stroke="#013216" stroke-width="0.25" stroke-miterlimit="10" stroke-linecap="round" stroke-linejoin="round"/>
<path id="Vector_67" d="M128.359 118.09C128.359 118.09 128.359 118.09 128.358 118.093L130.095 126.117L138.157 125.963" stroke="#013216" stroke-width="0.25" stroke-miterlimit="10" stroke-linecap="round" stroke-linejoin="round"/>
<path id="Vector_68" d="M124.994 123.9L124.994 123.903L126.808 131.534H126.811L133.217 131.213" stroke="#013216" stroke-width="0.25" stroke-miterlimit="10" stroke-linecap="round" stroke-linejoin="round"/>
<path id="Vector_69" d="M123.433 128.212L125.575 133.741H125.578L130.943 133.397" stroke="#013216" stroke-width="0.25" stroke-miterlimit="10" stroke-linecap="round" stroke-linejoin="round"/>
</g>
</g>
</g>
<g id="Group_43">
<path id="Vector_70" d="M118.402 145.356C118.402 145.356 128.822 128.723 142.418 131.913C152.842 134.359 140.513 137.691 140.513 137.691C140.513 137.691 143.648 139.039 141.895 141.119C140.143 143.198 131.307 141.727 131.307 141.727C131.307 141.727 136.995 143.909 133.701 145.118C130.407 146.328 118.402 145.356 118.402 145.356Z" fill="#35C071"/>
<g id="Group_44">
<path id="Vector_71" d="M118.466 145.362C119.494 144.46 120.567 143.599 121.679 142.78C122.938 141.853 124.243 140.98 125.586 140.172C126.921 139.368 128.296 138.627 129.697 137.957C131.368 137.156 133.082 136.458 134.817 135.874C138.651 134.58 142.601 133.843 146.494 133.798" stroke="#013216" stroke-width="0.25" stroke-miterlimit="10" stroke-linecap="round" stroke-linejoin="round"/>
<path id="Vector_72" d="M142.365 140.3C138.406 138.459 134.135 137.895 129.698 137.957C129.696 137.956 129.695 137.959 129.693 137.958" stroke="#013216" stroke-width="0.25" stroke-miterlimit="10" stroke-linecap="round" stroke-linejoin="round"/>
<path id="Vector_73" d="M121.679 142.78C125.779 142.172 130.163 142.8 134.728 144.216" stroke="#013216" stroke-width="0.25" stroke-miterlimit="10" stroke-linecap="round" stroke-linejoin="round"/>
<path id="Vector_74" d="M134.817 135.874C135.791 134.143 136.74 132.706 137.832 131.548" stroke="#013216" stroke-width="0.25" stroke-miterlimit="10" stroke-linecap="round" stroke-linejoin="round"/>
<path id="Vector_75" d="M125.585 140.172C125.785 138.953 126.104 137.704 126.521 136.429" stroke="#013216" stroke-width="0.25" stroke-miterlimit="10" stroke-linecap="round" stroke-linejoin="round"/>
</g>
</g>
</g>
</g>
<g id="Group_45">
<g id="Group_46">
<path id="Vector_76" d="M41.7146 114.555C41.7146 114.555 36.6617 91.9935 20.2992 90.2197C7.7553 88.8598 20.1499 97.3862 20.1499 97.3862C20.1499 97.3862 16.1375 97.6573 17.2685 100.654C18.3999 103.651 28.7962 105.473 28.7962 105.473C28.7962 105.473 21.6197 105.671 24.8059 108.305C27.9919 110.938 41.7146 114.555 41.7146 114.555Z" fill="#35C071"/>
<g id="Group_47">
<path id="Vector_77" d="M41.6414 114.537C40.8524 113.132 39.998 111.755 39.0833 110.41C38.049 108.887 36.9408 107.406 35.7653 105.983C34.5972 104.568 33.3599 103.205 32.0649 101.913C30.5223 100.369 28.8914 98.9232 27.1926 97.5956C23.4399 94.6576 19.34 92.2933 15.03 90.7207" stroke="#013216" stroke-width="0.25" stroke-miterlimit="10" stroke-linecap="round" stroke-linejoin="round"/>
<path id="Vector_78" d="M17.0686 99.5624C22.1903 99.0648 27.1586 100.11 32.0651 101.914C32.0676 101.914 32.0676 101.916 32.0702 101.916" stroke="#013216" stroke-width="0.25" stroke-miterlimit="10" stroke-linecap="round" stroke-linejoin="round"/>
<path id="Vector_79" d="M39.0832 110.41C34.7655 108.131 29.6472 107.114 24.0183 106.901" stroke="#013216" stroke-width="0.25" stroke-miterlimit="10" stroke-linecap="round" stroke-linejoin="round"/>
<path id="Vector_80" d="M27.1925 97.5952C26.7893 95.29 26.2998 93.3219 25.5399 91.6079" stroke="#013216" stroke-width="0.25" stroke-miterlimit="10" stroke-linecap="round" stroke-linejoin="round"/>
<path id="Vector_81" d="M35.765 105.983C36.0206 104.549 36.1565 103.037 36.1929 101.458" stroke="#013216" stroke-width="0.25" stroke-miterlimit="10" stroke-linecap="round" stroke-linejoin="round"/>
</g>
</g>
<g id="Group_48">
<g id="Group_49">
<path id="Vector_82" d="M45.4289 109.657C39.106 109.691 33.8549 106.88 29.2603 102.328C28.7078 101.781 27.8203 101.761 27.2602 102.3C23.0569 106.349 17.3611 108.433 10.8469 109.439C10.1658 109.545 9.66223 110.123 9.63906 110.811C9.61663 111.477 9.60522 112.148 9.60522 112.823C9.60522 131.074 15.9756 141.731 27.7464 146.151C28.0671 146.271 28.425 146.271 28.7457 146.151C40.5165 141.731 46.8869 131.074 46.8869 112.823C46.8869 112.227 46.8777 111.634 46.8604 111.045C46.8372 110.272 46.2035 109.653 45.4289 109.657Z" fill="#013216"/>
<path id="Vector_83" d="M42.8267 111.841C37.4612 111.87 33.0052 109.485 29.1065 105.622C28.6376 105.157 27.8847 105.14 27.4091 105.598C23.8422 109.033 19.0088 110.802 13.4811 111.656C12.9033 111.745 12.4755 112.236 12.4561 112.82C12.4373 113.384 12.4274 113.954 12.4274 114.528C12.4274 130.015 17.833 139.058 27.8214 142.809C28.0936 142.911 28.3974 142.911 28.6696 142.809C38.658 139.059 44.0636 130.015 44.0636 114.528C44.0636 114.022 44.0559 113.519 44.0412 113.019C44.0221 112.362 43.4843 111.837 42.8267 111.841Z" fill="#014A21"/>
</g>
<path id="Vector_84" d="M42.8622 113.867C42.8791 119.045 42.2223 124.148 40.2858 128.923" stroke="#013216" stroke-width="0.25" stroke-miterlimit="10" stroke-linecap="round" stroke-linejoin="round"/>
<path id="Vector_85" d="M13.8298 113.867C13.6205 124.853 16.2522 133.853 23.8227 139.401" stroke="#013216" stroke-width="0.25" stroke-miterlimit="10" stroke-linecap="round" stroke-linejoin="round"/>
<path id="Vector_86" d="M36.9657 121.791L35.7803 121.365C35.6317 120.864 35.4331 120.384 35.1874 119.933L35.7229 118.796C35.8049 118.622 35.7689 118.414 35.6324 118.278L33.8695 116.518C33.7331 116.382 33.526 116.346 33.3513 116.428L32.2122 116.962C31.7609 116.717 31.2802 116.519 30.7785 116.37L30.3515 115.187C30.286 115.006 30.1139 114.885 29.9211 114.885H27.4282C27.2354 114.885 27.0633 115.006 26.9978 115.187L26.5708 116.37C26.0688 116.519 25.5884 116.717 25.1368 116.962L23.998 116.428C23.8237 116.346 23.6163 116.382 23.4798 116.518L21.7169 118.278C21.5805 118.414 21.5444 118.621 21.6264 118.796L22.162 119.933C21.9163 120.383 21.7177 120.863 21.5691 121.364L20.3836 121.791C20.2023 121.856 20.0813 122.028 20.0813 122.22V124.709C20.0813 124.902 20.2023 125.074 20.3836 125.139L21.5691 125.566C21.7177 126.067 21.9163 126.546 22.162 126.997L21.6264 128.135C21.5444 128.309 21.5805 128.516 21.7169 128.652L23.4798 130.412C23.6163 130.549 23.8233 130.585 23.998 130.503L25.1371 129.968C25.5884 130.213 26.0691 130.412 26.5712 130.56L26.9982 131.744C27.0637 131.925 27.2358 132.046 27.4285 132.046H29.9215C30.1142 132.046 30.2864 131.925 30.3518 131.744L30.7789 130.56C31.2809 130.412 31.7613 130.213 32.2126 129.968L33.3517 130.503C33.5264 130.585 33.7334 130.549 33.8699 130.412L35.6328 128.652C35.7692 128.516 35.8053 128.309 35.7233 128.135L35.1874 126.997C35.4331 126.547 35.6317 126.067 35.7803 125.566L36.9657 125.139C37.147 125.074 37.268 124.902 37.268 124.71V122.221C37.268 122.029 37.1474 121.857 36.9657 121.791ZM28.675 126.7C26.8864 126.7 25.4365 125.252 25.4365 123.466C25.4365 121.68 26.8864 120.232 28.675 120.232C30.4637 120.232 31.9135 121.68 31.9135 123.466C31.9135 125.252 30.4637 126.7 28.675 126.7Z" fill="#013216"/>
</g>
<g id="Group_50">
<path id="Vector_87" d="M35.237 148.389C35.237 148.389 13.2412 126.282 4.81338 130.965C-1.10899 134.256 12.7234 153.035 35.237 148.389Z" fill="#FFBD39"/>
<g id="Group_51">
<path id="Vector_88" d="M3.66736 132.25C5.95142 134.1 8.39474 135.845 10.9918 137.488C11.5976 137.874 12.2114 138.255 12.833 138.624V138.626C14.775 139.792 16.7994 140.904 18.9062 141.964C19.4564 142.243 20.0118 142.517 20.5727 142.788C22.3286 143.634 24.1375 144.447 25.9997 145.224C26.725 145.529 27.458 145.829 28.1991 146.119C30.3015 146.954 32.4645 147.747 34.6942 148.498C34.6942 148.498 34.6942 148.498 34.6967 148.498" stroke="#013216" stroke-width="0.25" stroke-miterlimit="10" stroke-linecap="round" stroke-linejoin="round"/>
<path id="Vector_89" d="M5.20056 138.183L10.992 137.493L10.9916 137.488L10.0427 130.645" stroke="#013216" stroke-width="0.25" stroke-miterlimit="10" stroke-linecap="round" stroke-linejoin="round"/>
<path id="Vector_90" d="M6.76294 140.178L12.8335 138.629L12.8332 138.626V138.623L11.8964 131.221" stroke="#013216" stroke-width="0.25" stroke-miterlimit="10" stroke-linecap="round" stroke-linejoin="round"/>
<g id="Group_52">
<path id="Vector_91" d="M11.2563 144.065L18.9067 141.966L18.9063 141.964L17.6208 134.097" stroke="#013216" stroke-width="0.25" stroke-miterlimit="10" stroke-linecap="round" stroke-linejoin="round"/>
<path id="Vector_92" d="M13.2837 145.316C13.2837 145.316 13.2837 145.316 13.2863 145.316L20.5732 142.787L19.511 135.307" stroke="#013216" stroke-width="0.25" stroke-miterlimit="10" stroke-linecap="round" stroke-linejoin="round"/>
<path id="Vector_93" d="M19.0865 147.783H19.0891L26.0002 145.227L25.9998 145.224L24.9714 139.303" stroke="#013216" stroke-width="0.25" stroke-miterlimit="10" stroke-linecap="round" stroke-linejoin="round"/>
<path id="Vector_94" d="M23.2865 148.744L28.1993 146.121V146.119L27.2672 141.169" stroke="#013216" stroke-width="0.25" stroke-miterlimit="10" stroke-linecap="round" stroke-linejoin="round"/>
</g>
</g>
</g>
<g id="Group_53">
<g id="Group_54">
<path id="Vector_95" d="M71.5681 155.53C62.843 155.61 54.118 155.61 45.393 155.53C44.9858 155.526 44.6423 155.223 44.5897 154.82C44.3609 153.064 44.3609 151.308 44.5897 149.553C44.6423 149.149 44.9858 148.846 45.393 148.842C54.118 148.762 62.843 148.762 71.5681 148.842C71.9752 148.846 72.3188 149.149 72.3714 149.553C72.6001 151.308 72.6001 153.064 72.3714 154.82C72.3188 155.223 71.9752 155.526 71.5681 155.53Z" fill="#FFBD39"/>
<g id="Group_55">
<path id="Vector_96" d="M46.2739 149.485C45.9544 151.238 45.9544 152.992 46.2739 154.746" stroke="#013216" stroke-width="0.25" stroke-miterlimit="10" stroke-linecap="round" stroke-linejoin="round"/>
<path id="Vector_97" d="M48.4929 149.467C48.2314 151.233 48.2314 152.998 48.4929 154.763" stroke="#013216" stroke-width="0.25" stroke-miterlimit="10" stroke-linecap="round" stroke-linejoin="round"/>
<path id="Vector_98" d="M50.7125 149.453C50.5094 151.228 50.5094 153.002 50.7125 154.776" stroke="#013216" stroke-width="0.25" stroke-miterlimit="10" stroke-linecap="round" stroke-linejoin="round"/>
<path id="Vector_99" d="M52.9314 149.443C52.7864 151.224 52.7864 153.006 52.9314 154.787" stroke="#013216" stroke-width="0.25" stroke-miterlimit="10" stroke-linecap="round" stroke-linejoin="round"/>
<path id="Vector_100" d="M55.1511 149.437C55.0641 151.222 55.0641 153.008 55.1511 154.795" stroke="#013216" stroke-width="0.25" stroke-miterlimit="10" stroke-linecap="round" stroke-linejoin="round"/>
<path id="Vector_101" d="M57.3703 149.433C57.3413 151.221 57.3413 153.009 57.3703 154.798" stroke="#013216" stroke-width="0.25" stroke-miterlimit="10" stroke-linecap="round" stroke-linejoin="round"/>
<path id="Vector_102" d="M59.5897 149.433C59.6187 151.221 59.6187 153.009 59.5897 154.798" stroke="#013216" stroke-width="0.25" stroke-miterlimit="10" stroke-linecap="round" stroke-linejoin="round"/>
<path id="Vector_103" d="M61.8088 149.437C61.8959 151.222 61.8959 153.008 61.8088 154.795" stroke="#013216" stroke-width="0.25" stroke-miterlimit="10" stroke-linecap="round" stroke-linejoin="round"/>
<path id="Vector_104" d="M64.028 149.443C64.173 151.224 64.173 153.006 64.028 154.787" stroke="#013216" stroke-width="0.25" stroke-miterlimit="10" stroke-linecap="round" stroke-linejoin="round"/>
<path id="Vector_105" d="M66.2472 149.453C66.4503 151.228 66.4503 153.002 66.2472 154.776" stroke="#013216" stroke-width="0.25" stroke-miterlimit="10" stroke-linecap="round" stroke-linejoin="round"/>
<path id="Vector_106" d="M68.4668 149.467C68.7283 151.233 68.7283 152.998 68.4668 154.763" stroke="#013216" stroke-width="0.25" stroke-miterlimit="10" stroke-linecap="round" stroke-linejoin="round"/>
<path id="Vector_107" d="M70.6864 149.485C71.0059 151.238 71.0059 152.992 70.6864 154.746" stroke="#013216" stroke-width="0.25" stroke-miterlimit="10" stroke-linecap="round" stroke-linejoin="round"/>
<path id="Vector_108" d="M54.3416 155.172C59.6732 155.295 65.1259 155.29 70.6856 155.172" stroke="#013216" stroke-width="0.25" stroke-miterlimit="10" stroke-linecap="round" stroke-linejoin="round"/>
</g>
</g>
<g id="Group_56">
<path id="Vector_109" d="M74.1838 148.884C65.4588 148.964 56.7337 148.964 48.0087 148.884C47.6015 148.881 47.258 148.577 47.2054 148.174C46.9766 146.418 46.9766 144.663 47.2054 142.907C47.258 142.504 47.6015 142.2 48.0087 142.197C56.7337 142.117 65.4588 142.117 74.1838 142.197C74.5909 142.2 74.9345 142.504 74.9871 142.907C75.2158 144.662 75.2158 146.418 74.9871 148.174C74.9345 148.577 74.5909 148.881 74.1838 148.884Z" fill="#FD9518"/>
<g id="Group_57">
<path id="Vector_110" d="M48.8906 142.84C48.5711 144.593 48.5711 146.347 48.8906 148.101" stroke="#013216" stroke-width="0.25" stroke-miterlimit="10" stroke-linecap="round" stroke-linejoin="round"/>
<path id="Vector_111" d="M51.1098 142.823C50.8483 144.588 50.8483 146.353 51.1098 148.118" stroke="#013216" stroke-width="0.25" stroke-miterlimit="10" stroke-linecap="round" stroke-linejoin="round"/>
<path id="Vector_112" d="M53.3286 142.809C53.1255 144.583 53.1255 146.358 53.3286 148.132" stroke="#013216" stroke-width="0.25" stroke-miterlimit="10" stroke-linecap="round" stroke-linejoin="round"/>
<path id="Vector_113" d="M55.5487 142.798C55.4037 144.58 55.4037 146.361 55.5487 148.143" stroke="#013216" stroke-width="0.25" stroke-miterlimit="10" stroke-linecap="round" stroke-linejoin="round"/>
<path id="Vector_114" d="M57.7674 142.791C57.6804 144.577 57.6804 146.363 57.7674 148.149" stroke="#013216" stroke-width="0.25" stroke-miterlimit="10" stroke-linecap="round" stroke-linejoin="round"/>
<path id="Vector_115" d="M59.9871 142.788C59.9581 144.577 59.9581 146.365 59.9871 148.153" stroke="#013216" stroke-width="0.25" stroke-miterlimit="10" stroke-linecap="round" stroke-linejoin="round"/>
<path id="Vector_116" d="M62.2065 142.788C62.2356 144.577 62.2356 146.365 62.2065 148.153" stroke="#013216" stroke-width="0.25" stroke-miterlimit="10" stroke-linecap="round" stroke-linejoin="round"/>
<path id="Vector_117" d="M64.4257 142.791C64.5127 144.577 64.5127 146.363 64.4257 148.149" stroke="#013216" stroke-width="0.25" stroke-miterlimit="10" stroke-linecap="round" stroke-linejoin="round"/>
<path id="Vector_118" d="M66.6448 142.798C66.7898 144.58 66.7898 146.361 66.6448 148.143" stroke="#013216" stroke-width="0.25" stroke-miterlimit="10" stroke-linecap="round" stroke-linejoin="round"/>
<path id="Vector_119" d="M68.864 142.809C69.0671 144.583 69.0671 146.358 68.864 148.132" stroke="#013216" stroke-width="0.25" stroke-miterlimit="10" stroke-linecap="round" stroke-linejoin="round"/>
<path id="Vector_120" d="M71.0831 142.823C71.3446 144.588 71.3446 146.353 71.0831 148.118" stroke="#013216" stroke-width="0.25" stroke-miterlimit="10" stroke-linecap="round" stroke-linejoin="round"/>
<path id="Vector_121" d="M73.3024 142.84C73.6219 144.593 73.6219 146.347 73.3024 148.101" stroke="#013216" stroke-width="0.25" stroke-miterlimit="10" stroke-linecap="round" stroke-linejoin="round"/>
<path id="Vector_122" d="M56.9584 148.528C62.2901 148.651 67.7427 148.646 73.3025 148.528" stroke="#013216" stroke-width="0.25" stroke-miterlimit="10" stroke-linecap="round" stroke-linejoin="round"/>
</g>
</g>
<g id="Group_58">
<path id="Vector_123" d="M44.5342 131.207C43.7975 131.031 43.0759 130.956 42.3726 130.97V130.965H39.3739L39.3265 131.647C36.2671 133.01 33.858 136.354 32.7211 141.115C31.1914 147.52 33.3637 153.668 37.6423 155.89L38.0219 156.743L41.669 156.707L43.134 156.7C47.7253 156.193 50.9844 152.211 52.1147 146.005C53.5866 137.924 49.9549 132.497 44.5342 131.207Z" fill="#CC6B02"/>
<g id="Group_59">
<g id="Group_60">
<path id="Vector_124" d="M49.4823 145.339C47.7543 152.574 42.0287 157.843 36.608 156.552C31.1874 155.261 28.1938 148.35 29.9217 141.115C31.6497 133.88 36.3142 129.916 41.7349 131.206C47.1556 132.497 51.2102 138.104 49.4823 145.339Z" fill="#FD9518"/>
<g id="Group_61">
<g id="Group_62">
<path id="Vector_125" d="M36.5255 156.531L38.3818 148.76" stroke="#013216" stroke-width="0.25" stroke-miterlimit="10" stroke-linecap="round" stroke-linejoin="round"/>
</g>
<g id="Group_63">
<path id="Vector_126" d="M37.5827 148.433L34.4376 155.669" stroke="#013216" stroke-width="0.25" stroke-miterlimit="10" stroke-linecap="round" stroke-linejoin="round"/>
</g>
<g id="Group_64">
<path id="Vector_127" d="M36.8895 147.867L32.6134 154.195" stroke="#013216" stroke-width="0.25" stroke-miterlimit="10" stroke-linecap="round" stroke-linejoin="round"/>
</g>
<g id="Group_65">
<path id="Vector_128" d="M36.3388 147.088L31.1403 152.184" stroke="#013216" stroke-width="0.25" stroke-miterlimit="10" stroke-linecap="round" stroke-linejoin="round"/>
</g>
<g id="Group_66">
<path id="Vector_129" d="M35.96 146.142L30.0913 149.725" stroke="#013216" stroke-width="0.25" stroke-miterlimit="10" stroke-linecap="round" stroke-linejoin="round"/>
</g>
<g id="Group_67">
<path id="Vector_130" d="M35.7738 145.078L29.5237 146.934" stroke="#013216" stroke-width="0.25" stroke-miterlimit="10" stroke-linecap="round" stroke-linejoin="round"/>
</g>
<g id="Group_68">
<path id="Vector_131" d="M35.7883 143.955L29.4805 143.939" stroke="#013216" stroke-width="0.25" stroke-miterlimit="10" stroke-linecap="round" stroke-linejoin="round"/>
</g>
<g id="Group_69">
<path id="Vector_132" d="M36.0055 142.831L29.9764 140.891" stroke="#013216" stroke-width="0.25" stroke-miterlimit="10" stroke-linecap="round" stroke-linejoin="round"/>
</g>
<g id="Group_70">
<path id="Vector_133" d="M36.4124 141.769L30.9586 137.924" stroke="#013216" stroke-width="0.25" stroke-miterlimit="10" stroke-linecap="round" stroke-linejoin="round"/>
</g>
<g id="Group_71">
<path id="Vector_134" d="M36.9872 140.826L32.4386 135.202" stroke="#013216" stroke-width="0.25" stroke-miterlimit="10" stroke-linecap="round" stroke-linejoin="round"/>
</g>
<g id="Group_72">
<path id="Vector_135" d="M37.6982 140.051L34.4056 132.998" stroke="#013216" stroke-width="0.25" stroke-miterlimit="10" stroke-linecap="round" stroke-linejoin="round"/>
</g>
<g id="Group_73">
<path id="Vector_136" d="M38.5089 139.487L36.7089 131.568" stroke="#013216" stroke-width="0.25" stroke-miterlimit="10" stroke-linecap="round" stroke-linejoin="round"/>
</g>
<g id="Group_74">
<path id="Vector_137" d="M39.3732 139.164L39.1132 130.99" stroke="#013216" stroke-width="0.25" stroke-miterlimit="10" stroke-linecap="round" stroke-linejoin="round"/>
</g>
<g id="Group_75">
<path id="Vector_138" d="M40.2472 139.102L41.4267 131.14" stroke="#013216" stroke-width="0.25" stroke-miterlimit="10" stroke-linecap="round" stroke-linejoin="round"/>
</g>
<g id="Group_76">
<path id="Vector_139" d="M43.5705 131.833L41.0819 139.3" stroke="#013216" stroke-width="0.25" stroke-miterlimit="10" stroke-linecap="round" stroke-linejoin="round"/>
</g>
<g id="Group_77">
<path id="Vector_140" d="M45.532 132.986L41.8312 139.749" stroke="#013216" stroke-width="0.25" stroke-miterlimit="10" stroke-linecap="round" stroke-linejoin="round"/>
</g>
<g id="Group_78">
<path id="Vector_141" d="M47.27 134.622L42.458 140.428" stroke="#013216" stroke-width="0.25" stroke-miterlimit="10" stroke-linecap="round" stroke-linejoin="round"/>
</g>
<g id="Group_79">
<path id="Vector_142" d="M48.688 136.772L42.926 141.296" stroke="#013216" stroke-width="0.25" stroke-miterlimit="10" stroke-linecap="round" stroke-linejoin="round"/>
</g>
<g id="Group_80">
<path id="Vector_143" d="M49.6134 139.429L43.2107 142.308" stroke="#013216" stroke-width="0.25" stroke-miterlimit="10" stroke-linecap="round" stroke-linejoin="round"/>
</g>
<g id="Group_81">
<path id="Vector_144" d="M49.8782 142.438L43.2968 143.408" stroke="#013216" stroke-width="0.25" stroke-miterlimit="10" stroke-linecap="round" stroke-linejoin="round"/>
</g>
<g id="Group_82">
<path id="Vector_145" d="M49.4369 145.525L43.1798 144.54" stroke="#013216" stroke-width="0.25" stroke-miterlimit="10" stroke-linecap="round" stroke-linejoin="round"/>
</g>
<g id="Group_83">
<path id="Vector_146" d="M48.4506 148.442L42.8658 145.64" stroke="#013216" stroke-width="0.25" stroke-miterlimit="10" stroke-linecap="round" stroke-linejoin="round"/>
</g>
<g id="Group_84">
<path id="Vector_147" d="M47.0513 151.064L42.3724 146.649" stroke="#013216" stroke-width="0.25" stroke-miterlimit="10" stroke-linecap="round" stroke-linejoin="round"/>
</g>
<g id="Group_85">
<path id="Vector_148" d="M45.3044 153.295L41.725 147.515" stroke="#013216" stroke-width="0.25" stroke-miterlimit="10" stroke-linecap="round" stroke-linejoin="round"/>
</g>
<g id="Group_86">
<path id="Vector_149" d="M43.2835 155.046L40.9583 148.188" stroke="#013216" stroke-width="0.25" stroke-miterlimit="10" stroke-linecap="round" stroke-linejoin="round"/>
</g>
<g id="Group_87">
<path id="Vector_150" d="M41.0717 156.22L40.1146 148.635" stroke="#013216" stroke-width="0.25" stroke-miterlimit="10" stroke-linecap="round" stroke-linejoin="round"/>
</g>
<g id="Group_88">
<path id="Vector_151" d="M38.7753 156.73L39.2395 148.829" stroke="#013216" stroke-width="0.25" stroke-miterlimit="10" stroke-linecap="round" stroke-linejoin="round"/>
</g>
</g>
</g>
<path id="Vector_152" d="M47.3835 145.05C46.02 150.759 41.5016 154.917 37.224 153.898C32.9465 152.88 30.5841 147.426 31.9475 141.716C33.311 136.007 36.9919 132.878 41.2695 133.897C45.5474 134.916 48.7469 139.34 47.3835 145.05Z" fill="#FFBD39"/>
<g id="Group_89">
<path id="Vector_153" d="M41.4685 148.405C40.8712 148.918 40.1326 149.174 39.2536 149.174L38.8593 150.825L37.2884 150.451L37.665 148.875C37.1173 148.703 36.6116 148.461 36.1478 148.152C35.684 147.843 35.3181 147.509 35.0503 147.152L36.5079 144.796C36.8106 145.172 37.1714 145.502 37.5907 145.784C38.0096 146.068 38.4311 146.26 38.8545 146.36C39.2182 146.447 39.4897 146.462 39.6681 146.405C39.8464 146.348 39.9583 146.225 40.0031 146.037C40.0554 145.819 39.9921 145.631 39.8141 145.473C39.6357 145.315 39.3282 145.116 38.8909 144.876C38.3296 144.564 37.8713 144.264 37.5164 143.975C37.1615 143.686 36.8878 143.286 36.6962 142.774C36.5046 142.262 36.4987 141.629 36.6786 140.875C36.8867 140.003 37.3012 139.311 37.9225 138.798C38.5433 138.286 39.3157 138.051 40.24 138.093L40.6273 136.472L42.1982 136.846L41.8182 138.437C42.6837 138.759 43.3689 139.226 43.8743 139.838L42.4759 142.193C41.8337 141.495 41.1709 141.065 40.4879 140.903C39.8119 140.742 39.422 140.879 39.3179 141.315C39.2683 141.524 39.3312 141.704 39.507 141.855C39.6828 142.007 39.9866 142.197 40.4188 142.426C40.9774 142.716 41.4379 143.007 41.8006 143.297C42.1629 143.588 42.4424 143.987 42.6392 144.495C42.836 145.003 42.844 145.634 42.6642 146.387C42.4637 147.22 42.0658 147.892 41.4685 148.405Z" fill="#FD9518"/>
</g>
<g id="Group_90">
<path id="Vector_154" d="M47.083 141.94C47.2213 148.126 43.3962 152.298 39.1819 153.346" stroke="#013216" stroke-width="0.25" stroke-miterlimit="10" stroke-linecap="round" stroke-linejoin="round"/>
<path id="Vector_155" d="M36.3393 135.371C33.857 137.161 31.5306 143.006 32.6491 147.933" stroke="#013216" stroke-width="0.25" stroke-miterlimit="10" stroke-linecap="round" stroke-linejoin="round"/>
</g>
</g>
</g>
</g>
</g>
</g>
<g id="Group_91">
<g id="Group_92">
<g id="Group_93">
<path id="Vector_156" d="M145.52 22.6174H144.34C144.084 22.6174 143.876 22.4099 143.876 22.1543V20.9758C143.876 20.7198 143.668 20.5127 143.412 20.5127H141.953C141.697 20.5127 141.489 20.7202 141.489 20.9758V22.1543C141.489 22.4103 141.281 22.6174 141.025 22.6174H139.845C139.589 22.6174 139.381 22.8249 139.381 23.0805V24.5378C139.381 24.7937 139.589 25.0009 139.845 25.0009H141.025C141.282 25.0009 141.489 25.2084 141.489 25.464V26.6425C141.489 26.8984 141.697 27.1056 141.953 27.1056H143.412C143.669 27.1056 143.876 26.8981 143.876 26.6425V25.4643C143.876 25.2084 144.084 25.0012 144.34 25.0012H145.52C145.777 25.0012 145.984 24.7937 145.984 24.5381V23.0809C145.984 22.8245 145.777 22.6174 145.52 22.6174Z" stroke="#8BDBAE" stroke-width="0.5" stroke-miterlimit="10" stroke-linecap="round" stroke-linejoin="round"/>
<path id="Vector_157" d="M142.682 28.7091C145.392 28.7091 147.589 26.5156 147.589 23.8096C147.589 21.1037 145.392 18.9102 142.682 18.9102C139.972 18.9102 137.776 21.1037 137.776 23.8096C137.776 26.5156 139.972 28.7091 142.682 28.7091Z" stroke="#8BDBAE" stroke-width="0.5" stroke-miterlimit="10" stroke-linecap="round" stroke-linejoin="round"/>
</g>
<g id="Group_94">
<path id="Vector_158" d="M9.26837 35.1847H7.10164C6.81217 35.1847 6.57751 34.9504 6.57751 34.6614V29.7479C6.57751 29.4589 6.81217 29.2246 7.10164 29.2246H9.26837C9.55783 29.2246 9.79249 29.4589 9.79249 29.7479V34.6614C9.79249 34.9504 9.55783 35.1847 9.26837 35.1847Z" stroke="#8BDBAE" stroke-width="0.5" stroke-miterlimit="10" stroke-linecap="round" stroke-linejoin="round"/>
<path id="Vector_159" d="M14.1524 35.1845H12.1644C11.8257 35.1845 11.5509 34.9102 11.5509 34.5719V27.6309C11.5509 27.2926 11.8257 27.0183 12.1644 27.0183H14.1524C14.4911 27.0183 14.7659 27.2926 14.7659 27.6309V34.5719C14.7659 34.9102 14.4911 35.1845 14.1524 35.1845Z" stroke="#8BDBAE" stroke-width="0.5" stroke-miterlimit="10" stroke-linecap="round" stroke-linejoin="round"/>
<path id="Vector_160" d="M19.0436 35.1851H17.2208C16.8364 35.1851 16.5245 34.8741 16.5245 34.4899V25.3678C16.5245 24.984 16.8361 24.6726 17.2208 24.6726H19.0436C19.428 24.6726 19.7399 24.9837 19.7399 25.3678V34.4899C19.7399 34.8741 19.428 35.1851 19.0436 35.1851Z" stroke="#8BDBAE" stroke-width="0.5" stroke-miterlimit="10" stroke-linecap="round" stroke-linejoin="round"/>
</g>
<g id="Group_95">
<g id="Group_96">
<path id="Vector_161" d="M47.4777 11.0006L46.1445 10.8361C46.0345 10.434 45.8745 10.0528 45.6718 9.69874L46.4983 8.6407C46.6472 8.45009 46.6303 8.1787 46.4593 8.00756L45.5262 7.07584C45.3551 6.90507 45.083 6.88818 44.8924 7.03691L43.8328 7.86213C43.4782 7.65977 43.0965 7.50038 42.6937 7.39058L42.5289 6.05929C42.4991 5.81948 42.295 5.63916 42.053 5.63916H40.7333C40.4913 5.63916 40.2872 5.81948 40.2574 6.05929L40.0926 7.39058C39.6899 7.50038 39.3081 7.66014 38.9535 7.86249L37.8939 7.03728C37.703 6.88854 37.4312 6.90544 37.2602 7.07621L36.327 8.00792C36.156 8.17869 36.1391 8.45046 36.288 8.64106L37.1145 9.69948C36.9118 10.0535 36.7522 10.4347 36.6419 10.8369L35.3086 11.0014C35.0684 11.0311 34.8878 11.235 34.8878 11.4766V12.7943C34.8878 13.0359 35.068 13.2398 35.3086 13.2695L36.6419 13.434C36.7519 13.8362 36.9118 14.2174 37.1141 14.5714L36.2877 15.6298C36.1387 15.8204 36.1556 16.0918 36.3267 16.263L37.2598 17.1947C37.4308 17.3655 37.703 17.3824 37.8939 17.2336L38.9539 16.4084C39.3085 16.6108 39.6902 16.7701 40.093 16.88L40.2578 18.2112C40.2875 18.451 40.4917 18.6314 40.7337 18.6314H42.0534C42.2954 18.6314 42.4995 18.4514 42.5293 18.2112L42.6941 16.88C43.0968 16.7701 43.4786 16.6104 43.8335 16.408L44.8932 17.2332C45.0841 17.382 45.3559 17.3651 45.5273 17.1943L46.4604 16.2626C46.6314 16.0918 46.6483 15.8201 46.4994 15.6295L45.6729 14.5714C45.8756 14.2174 46.0356 13.8358 46.1456 13.4337L47.4788 13.2691C47.719 13.2394 47.8996 13.0356 47.8996 12.7939V11.4762C47.8985 11.2338 47.7179 11.03 47.4777 11.0006Z" stroke="#8BDBAE" stroke-width="0.5" stroke-miterlimit="10" stroke-linecap="round" stroke-linejoin="round"/>
<path id="Vector_162" d="M41.3926 14.8629C42.9016 14.8629 44.125 13.6414 44.125 12.1346C44.125 10.6278 42.9016 9.40625 41.3926 9.40625C39.8835 9.40625 38.6602 10.6278 38.6602 12.1346C38.6602 13.6414 39.8835 14.8629 41.3926 14.8629Z" stroke="#8BDBAE" stroke-width="0.5" stroke-miterlimit="10" stroke-linecap="round" stroke-linejoin="round"/>
</g>
<g id="Group_97">
<path id="Vector_163" d="M56.5404 17.7992L55.5632 17.6787C55.4826 17.3838 55.3653 17.1044 55.2171 16.8451L55.8229 16.0695C55.9321 15.9299 55.9196 15.7309 55.7942 15.6056L55.1101 14.9225C54.9846 14.7973 54.7853 14.7848 54.6455 14.8939L53.8687 15.4988C53.6087 15.3504 53.3288 15.2336 53.0338 15.1532L52.9128 14.1774C52.8911 14.0015 52.7414 13.8696 52.5641 13.8696H51.5968C51.4195 13.8696 51.2698 14.0018 51.2481 14.1774L51.1271 15.1532C50.8318 15.2336 50.5519 15.3508 50.2922 15.4988L49.5154 14.8939C49.3756 14.7848 49.1763 14.7973 49.0509 14.9225L48.3667 15.6056C48.2413 15.7309 48.2292 15.9299 48.3381 16.0695L48.9438 16.8451C48.7952 17.1047 48.6783 17.3842 48.5977 17.6787L47.6205 17.7992C47.4443 17.8209 47.3123 17.9703 47.3123 18.1474V19.1132C47.3123 19.2902 47.4447 19.4397 47.6205 19.4614L48.5977 19.5818C48.6783 19.8764 48.7956 20.1558 48.9438 20.4155L48.3381 21.1911C48.2288 21.3307 48.2413 21.5297 48.3667 21.655L49.0509 22.338C49.1763 22.4633 49.3756 22.4758 49.5154 22.3667L50.2922 21.7618C50.5519 21.9102 50.8318 22.027 51.1271 22.1074L51.2478 23.0832C51.2695 23.2591 51.4191 23.391 51.5964 23.391H52.5638C52.741 23.391 52.8907 23.2587 52.9124 23.0832L53.0334 22.1074C53.3288 22.027 53.6087 21.9098 53.8684 21.7618L54.6452 22.3667C54.7849 22.4758 54.9843 22.4633 55.1097 22.338L55.7938 21.655C55.9192 21.5297 55.9314 21.3307 55.8225 21.1911L55.2167 20.4155C55.3653 20.1558 55.4823 19.8764 55.5632 19.5818L56.5404 19.4614C56.7166 19.4397 56.8487 19.2902 56.8487 19.1132V18.1474C56.8487 17.9703 56.7166 17.8209 56.5404 17.7992Z" stroke="#8BDBAE" stroke-width="0.5" stroke-miterlimit="10" stroke-linecap="round" stroke-linejoin="round"/>
<path id="Vector_164" d="M52.0807 20.6292C53.1867 20.6292 54.0834 19.734 54.0834 18.6296C54.0834 17.5252 53.1867 16.6299 52.0807 16.6299C50.9746 16.6299 50.078 17.5252 50.078 18.6296C50.078 19.734 50.9746 20.6292 52.0807 20.6292Z" stroke="#8BDBAE" stroke-width="0.5" stroke-miterlimit="10" stroke-linecap="round" stroke-linejoin="round"/>
</g>
</g>
<g id="Group_98">
<path id="Vector_165" d="M147.382 64.346L146.405 64.2251C146.324 63.9302 146.207 63.6508 146.059 63.3915L146.664 62.6158C146.774 62.4763 146.761 62.2772 146.636 62.152L145.951 61.4689C145.826 61.3437 145.627 61.3316 145.487 61.4403L144.71 62.0451C144.45 61.8968 144.17 61.78 143.875 61.6996L143.755 60.7238C143.733 60.5479 143.583 60.416 143.406 60.416H142.439C142.261 60.416 142.112 60.5479 142.09 60.7238L141.969 61.6996C141.674 61.78 141.394 61.8971 141.134 62.0451L140.357 61.4403C140.217 61.3312 140.018 61.3437 139.893 61.4689L139.209 62.152C139.083 62.2772 139.071 62.4763 139.18 62.6158L139.786 63.3915C139.637 63.6508 139.52 63.9306 139.44 64.2251L138.462 64.3456C138.286 64.3673 138.154 64.5167 138.154 64.6937V65.6596C138.154 65.8366 138.286 65.9861 138.462 66.0078L139.44 66.1282C139.52 66.4231 139.637 66.7026 139.786 66.9619L139.18 67.7375C139.071 67.8771 139.083 68.0761 139.209 68.2014L139.893 68.8844C140.018 69.0097 140.217 69.0218 140.357 68.9131L141.134 68.3082C141.394 68.4566 141.674 68.5734 141.969 68.6538L142.09 69.6296C142.111 69.8055 142.261 69.9373 142.438 69.9373H143.406C143.583 69.9373 143.733 69.8055 143.754 69.6296L143.875 68.6538C144.17 68.5734 144.45 68.4562 144.71 68.3082L145.487 68.9131C145.626 69.0222 145.826 69.0097 145.951 68.8844L146.635 68.2014C146.761 68.0761 146.773 67.8771 146.664 67.7375L146.058 66.9619C146.207 66.7022 146.324 66.4228 146.405 66.1282L147.382 66.0074C147.558 65.9857 147.69 65.8363 147.69 65.6592V64.6934C147.69 64.5171 147.558 64.3676 147.382 64.346Z" stroke="#8BDBAE" stroke-width="0.5" stroke-miterlimit="10" stroke-linecap="round" stroke-linejoin="round"/>
<path id="Vector_166" d="M142.922 67.1771C144.028 67.1771 144.925 66.2818 144.925 65.1774C144.925 64.073 144.028 63.1777 142.922 63.1777C141.816 63.1777 140.919 64.073 140.919 65.1774C140.919 66.2818 141.816 67.1771 142.922 67.1771Z" stroke="#8BDBAE" stroke-width="0.5" stroke-miterlimit="10" stroke-linecap="round" stroke-linejoin="round"/>
</g>
</g>
<g id="Group_99">
<path id="Vector_167" d="M134.9 0C132.317 0 132.313 4.00817 134.9 4.00817C137.482 4.00817 137.487 0 134.9 0Z" stroke="#8BDBAE" stroke-width="0.5" stroke-miterlimit="10" stroke-linecap="round" stroke-linejoin="round"/>
<path id="Vector_168" d="M17.7659 8.06348C15.1828 8.06348 15.1787 12.0716 17.7659 12.0716C20.3486 12.072 20.353 8.06348 17.7659 8.06348Z" stroke="#8BDBAE" stroke-width="0.5" stroke-miterlimit="10" stroke-linecap="round" stroke-linejoin="round"/>
<path id="Vector_169" d="M154.579 72.8096C152.701 72.8096 152.698 75.7248 154.579 75.7248C156.458 75.7248 156.461 72.8096 154.579 72.8096Z" stroke="#8BDBAE" stroke-width="0.5" stroke-miterlimit="10" stroke-linecap="round" stroke-linejoin="round"/>
<path id="Vector_170" d="M66.0342 3.35938C64.1558 3.35938 64.1525 6.27461 66.0342 6.27461C67.9125 6.27424 67.9158 3.35938 66.0342 3.35938Z" stroke="#8BDBAE" stroke-width="0.5" stroke-miterlimit="10" stroke-linecap="round" stroke-linejoin="round"/>
<path id="Vector_171" d="M34.7624 25.9155C32.8841 25.9155 32.8808 28.8308 34.7624 28.8308C36.6408 28.8308 36.6441 25.9155 34.7624 25.9155Z" stroke="#8BDBAE" stroke-width="0.5" stroke-miterlimit="10" stroke-linecap="round" stroke-linejoin="round"/>
<path id="Vector_172" d="M4.61901 49.1179C2.74063 49.1179 2.73732 52.0332 4.61901 52.0332C6.49738 52.0328 6.50069 49.1179 4.61901 49.1179Z" stroke="#8BDBAE" stroke-width="0.5" stroke-miterlimit="10" stroke-linecap="round" stroke-linejoin="round"/>
</g>
</g>
<g id="Group_100">
<g id="Group_101">
<g id="Group_102">
<path id="Vector_173" d="M134.134 156.479L141.245 159.345C141.591 159.485 141.491 160 141.117 160H124.65C124.568 160 124.489 159.97 124.427 159.916L122.815 158.515L122.447 159.757C122.404 159.901 122.271 160 122.12 160H117.235C117.035 160 116.879 159.829 116.896 159.631L117.165 156.479H134.134Z" fill="#FD9518"/>
<path id="Vector_174" d="M87.7041 156.479L80.593 159.345C80.2461 159.485 80.3462 160 80.7202 160H97.1872C97.2692 160 97.3486 159.97 97.4108 159.916L99.0225 158.515L99.391 159.757C99.4337 159.901 99.5665 160 99.7173 160H104.603C104.802 160 104.959 159.829 104.942 159.631L104.673 156.479H87.7041Z" fill="#FD9518"/>
</g>
<g id="Group_103">
<path id="Vector_175" d="M114.041 83.0017L134.134 156.479H117.164L104.944 106.504L104.684 156.479H87.7151L91.4259 83.0017H114.041Z" fill="#F0D7B2"/>
<g id="Group_104">
<path id="Vector_176" d="M104.266 103.921C103.047 100.556 102.671 97.341 102.72 94.6865" stroke="#014A21" stroke-width="0.25" stroke-miterlimit="10" stroke-linecap="round" stroke-linejoin="round"/>
<path id="Vector_177" d="M102.715 84.4541C102.523 87.5739 102.505 90.5809 102.715 93.4418" stroke="#014A21" stroke-width="0.25" stroke-miterlimit="10" stroke-linecap="round" stroke-linejoin="round"/>
<path id="Vector_178" d="M102.669 92.747C102.669 92.747 101.5 92.4168 100.979 91.5093C100.457 90.6015 100.979 84.4541 100.979 84.4541" stroke="#014A21" stroke-width="0.25" stroke-miterlimit="10" stroke-linecap="round" stroke-linejoin="round"/>
<path id="Vector_179" d="M110.498 83.5049L129.862 153.728" stroke="#014A21" stroke-width="0.25" stroke-miterlimit="10" stroke-linecap="round" stroke-linejoin="round"/>
<path id="Vector_180" d="M102.716 99.1675L101.499 153.728" stroke="#014A21" stroke-width="0.25" stroke-miterlimit="10" stroke-linecap="round" stroke-linejoin="round"/>
<path id="Vector_181" d="M106.49 82.5146C106.49 82.5146 108.296 90.6334 112.806 90.3698" stroke="#014A21" stroke-width="0.25" stroke-miterlimit="10" stroke-linecap="round" stroke-linejoin="round"/>
<path id="Vector_182" d="M94.8786 83.7524C94.8786 83.7524 94.4655 89.4195 90.4436 89.3919" stroke="#014A21" stroke-width="0.25" stroke-miterlimit="10" stroke-linecap="round" stroke-linejoin="round"/>
<path id="Vector_183" d="M104.134 153.728H88.8171" stroke="#014A21" stroke-width="0.25" stroke-miterlimit="10" stroke-linecap="round" stroke-linejoin="round"/>
<path id="Vector_184" d="M132.288 153.728H117.577" stroke="#014A21" stroke-width="0.25" stroke-miterlimit="10" stroke-linecap="round" stroke-linejoin="round"/>
</g>
</g>
</g>
<g id="Group_105">
<path id="Vector_185" d="M69.1908 42.6086C68.8535 41.1029 67.7858 39.7661 67.6254 38.8913C67.2047 38.8285 67.5555 40.2031 67.5555 40.2031C67.5555 40.2031 65.0648 38.0275 64.7338 38.1201C64.4027 38.2126 65.448 39.2505 65.448 39.2505C65.448 39.2505 64.1581 38.1248 63.8977 38.3132C63.637 38.5016 65.1656 39.7738 65.1656 39.7738C65.1656 39.7738 63.8352 38.7352 63.6311 38.8905C63.427 39.0459 64.9986 40.2982 64.9986 40.2982C64.9986 40.2982 63.833 39.6239 63.6554 39.8248C63.4777 40.0257 64.7367 40.5505 65.1277 40.924C65.5187 41.2975 66.2142 42.2244 66.3867 42.9685C66.5588 43.7129 69.1908 42.6086 69.1908 42.6086Z" fill="#F98080"/>
<path id="Vector_186" d="M71.0116 40.0366L65.1978 42.6981C73.747 62.9736 83.0715 67.7974 95.095 75.9588L100.028 61.2181C90.2238 56.3748 77.3217 48.4265 71.0116 40.0366Z" fill="#03B04E"/>
</g>
<g id="Group_106">
<path id="Vector_187" d="M107.346 61.3752L103.551 63.0998L97.7743 60.1875L92.8416 74.9282L91.1851 82.9111L117.61 83.5053L118.38 75.0046L107.346 61.3752Z" fill="white"/>
<g id="Group_107">
<path id="Vector_188" d="M110.108 74.9326C106.821 76.6076 103.132 77.4901 99.4417 77.4843" stroke="#013216" stroke-width="0.25" stroke-miterlimit="10" stroke-linecap="round" stroke-linejoin="round"/>
</g>
</g>
<g id="Group_108">
<path id="Vector_189" d="M101.142 62.1009L94.391 90.811C90.2154 90.3138 84.6167 87.0875 80.8492 83.7529L96.6556 59.4912L101.142 62.1009Z" fill="#03B04E"/>
<path id="Vector_190" d="M88.8066 71.5393L93.1846 64.8193" stroke="#013216" stroke-width="0.25" stroke-miterlimit="10" stroke-linecap="round" stroke-linejoin="round"/>
</g>
<g id="Group_109">
<g id="Group_110">
<path id="Vector_191" d="M119.056 26.9758C119.056 42.4778 106.95 55.9239 91.4247 55.9239C75.8993 55.9239 63.3135 43.357 63.3135 27.855C63.3135 12.353 73.3884 2.06445 88.9137 2.06445C104.439 2.06445 119.056 11.4738 119.056 26.9758Z" fill="#FD9518"/>
<g id="Group_111">
<g id="Group_112">
<path id="Vector_192" d="M91.1862 55.9205V39.2698" stroke="#013216" stroke-width="0.25" stroke-miterlimit="10" stroke-linecap="round" stroke-linejoin="round"/>
</g>
<g id="Group_113">
<path id="Vector_193" d="M88.8104 38.9929L84.9702 55.1798" stroke="#013216" stroke-width="0.25" stroke-miterlimit="10" stroke-linecap="round" stroke-linejoin="round"/>
</g>
<g id="Group_114">
<path id="Vector_194" d="M86.5663 38.179L79.0737 53.0739" stroke="#013216" stroke-width="0.25" stroke-miterlimit="10" stroke-linecap="round" stroke-linejoin="round"/>
</g>
<g id="Group_115">
<path id="Vector_195" d="M84.5699 36.8655L73.78 49.7067" stroke="#013216" stroke-width="0.25" stroke-miterlimit="10" stroke-linecap="round" stroke-linejoin="round"/>
</g>
<g id="Group_116">
<path id="Vector_196" d="M82.9283 35.1306L69.3442 45.2282" stroke="#013216" stroke-width="0.25" stroke-miterlimit="10" stroke-linecap="round" stroke-linejoin="round"/>
</g>
<g id="Group_117">
<path id="Vector_197" d="M81.7365 33.0627L66.0004 39.8429" stroke="#013216" stroke-width="0.25" stroke-miterlimit="10" stroke-linecap="round" stroke-linejoin="round"/>
</g>
<g id="Group_118">
<path id="Vector_198" d="M81.0492 30.7791L63.9445 33.792" stroke="#013216" stroke-width="0.25" stroke-miterlimit="10" stroke-linecap="round" stroke-linejoin="round"/>
</g>
<g id="Group_119">
<path id="Vector_199" d="M80.9104 28.3964L63.3162 27.3733" stroke="#013216" stroke-width="0.25" stroke-miterlimit="10" stroke-linecap="round" stroke-linejoin="round"/>
</g>
<g id="Group_120">
<path id="Vector_200" d="M81.325 26.0461L64.057 20.884" stroke="#013216" stroke-width="0.25" stroke-miterlimit="10" stroke-linecap="round" stroke-linejoin="round"/>
</g>
<g id="Group_121">
<path id="Vector_201" d="M82.2726 23.8582L66.3059 14.6531" stroke="#013216" stroke-width="0.25" stroke-miterlimit="10" stroke-linecap="round" stroke-linejoin="round"/>
</g>
<g id="Group_122">
<path id="Vector_202" d="M83.6977 21.9423L70.2092 9.23218" stroke="#013216" stroke-width="0.25" stroke-miterlimit="10" stroke-linecap="round" stroke-linejoin="round"/>
</g>
<g id="Group_123">
<path id="Vector_203" d="M85.5311 20.4089L75.5283 5.22388" stroke="#013216" stroke-width="0.25" stroke-miterlimit="10" stroke-linecap="round" stroke-linejoin="round"/>
</g>
<g id="Group_124">
<path id="Vector_204" d="M87.6654 19.3363L81.6694 2.89087" stroke="#013216" stroke-width="0.25" stroke-miterlimit="10" stroke-linecap="round" stroke-linejoin="round"/>
</g>
<g id="Group_125">
<path id="Vector_205" d="M89.9915 18.7879L88.0344 2.0769" stroke="#013216" stroke-width="0.25" stroke-miterlimit="10" stroke-linecap="round" stroke-linejoin="round"/>
</g>
<g id="Group_126">
<path id="Vector_206" d="M94.2925 2.44849L92.3813 18.7878" stroke="#013216" stroke-width="0.25" stroke-miterlimit="10" stroke-linecap="round" stroke-linejoin="round"/>
</g>
<g id="Group_127">
<path id="Vector_207" d="M100.356 3.84009L94.7036 19.3366" stroke="#013216" stroke-width="0.25" stroke-miterlimit="10" stroke-linecap="round" stroke-linejoin="round"/>
</g>
<g id="Group_128">
<path id="Vector_208" d="M106.125 6.31421L96.8422 20.4089" stroke="#013216" stroke-width="0.25" stroke-miterlimit="10" stroke-linecap="round" stroke-linejoin="round"/>
</g>
<g id="Group_129">
<path id="Vector_209" d="M111.359 9.98999L98.6715 21.9425" stroke="#013216" stroke-width="0.25" stroke-miterlimit="10" stroke-linecap="round" stroke-linejoin="round"/>
</g>
<g id="Group_130">
<path id="Vector_210" d="M115.585 14.929L100.097 23.8579" stroke="#013216" stroke-width="0.25" stroke-miterlimit="10" stroke-linecap="round" stroke-linejoin="round"/>
</g>
<g id="Group_131">
<path id="Vector_211" d="M118.252 20.9016L101.044 26.0461" stroke="#013216" stroke-width="0.25" stroke-miterlimit="10" stroke-linecap="round" stroke-linejoin="round"/>
</g>
<g id="Group_132">
<path id="Vector_212" d="M119.053 27.3733L101.458 28.3964" stroke="#013216" stroke-width="0.25" stroke-miterlimit="10" stroke-linecap="round" stroke-linejoin="round"/>
</g>
<g id="Group_133">
<path id="Vector_213" d="M118.269 33.7637L101.32 30.7791" stroke="#013216" stroke-width="0.25" stroke-miterlimit="10" stroke-linecap="round" stroke-linejoin="round"/>
</g>
<g id="Group_134">
<path id="Vector_214" d="M116.173 39.7544L100.635 33.0627" stroke="#013216" stroke-width="0.25" stroke-miterlimit="10" stroke-linecap="round" stroke-linejoin="round"/>
</g>
<g id="Group_135">
<path id="Vector_215" d="M112.883 45.1217L99.4413 35.1306" stroke="#013216" stroke-width="0.25" stroke-miterlimit="10" stroke-linecap="round" stroke-linejoin="round"/>
</g>
<g id="Group_136">
<path id="Vector_216" d="M108.539 49.6465L97.7992 36.8655" stroke="#013216" stroke-width="0.25" stroke-miterlimit="10" stroke-linecap="round" stroke-linejoin="round"/>
</g>
<g id="Group_137">
<path id="Vector_217" d="M103.306 53.0952L95.803 38.179" stroke="#013216" stroke-width="0.25" stroke-miterlimit="10" stroke-linecap="round" stroke-linejoin="round"/>
</g>
<g id="Group_138">
<path id="Vector_218" d="M97.4131 55.2364L93.5588 38.9929" stroke="#013216" stroke-width="0.25" stroke-miterlimit="10" stroke-linecap="round" stroke-linejoin="round"/>
</g>
</g>
</g>
<path id="Vector_219" d="M113.179 27.4012C113.179 39.6343 103.626 50.2453 91.3743 50.2453C79.1227 50.2453 69.1906 40.3284 69.1906 28.0949C69.1906 15.8618 77.141 7.74268 89.3925 7.74268C101.644 7.74268 113.179 15.1681 113.179 27.4012Z" fill="#FFBD39"/>
<g id="Group_139">
<path id="Vector_220" d="M99.3225 37.0606C98.0352 38.3886 96.2002 39.2648 93.8176 39.6894V43.2264H89.3182V39.8488C87.7227 39.7636 86.1956 39.519 84.7383 39.1157C83.2811 38.7125 82.074 38.213 81.1162 37.6181L83.5415 32.1372C84.6052 32.7539 85.7965 33.2474 87.1158 33.6191C88.4348 33.9911 89.7011 34.1766 90.9138 34.1766C91.9558 34.1766 92.7009 34.076 93.1474 33.874C93.5939 33.6723 93.8176 33.3694 93.8176 32.9658C93.8176 32.4986 93.5248 32.1483 92.94 31.914C92.3545 31.6804 91.3923 31.4255 90.0516 31.1493C88.3285 30.7883 86.8922 30.4005 85.7435 29.9863C84.5945 29.572 83.5941 28.8926 82.7434 27.9469C81.8923 27.002 81.4671 25.7217 81.4671 24.1073C81.4671 22.2384 82.1424 20.6342 83.4933 19.2956C84.8443 17.9573 86.7852 17.1079 89.3175 16.7465V13.2734H93.8168V16.683C96.3698 16.9169 98.5291 17.5328 100.295 18.531L98.0297 23.9799C95.8383 22.8756 93.7635 22.3228 91.8064 22.3228C89.8703 22.3228 88.9026 22.7904 88.9026 23.725C88.9026 24.1712 89.1899 24.5058 89.764 24.7287C90.3385 24.9516 91.2849 25.1907 92.6042 25.4456C94.306 25.7644 95.7419 26.1305 96.9126 26.5451C98.0823 26.9594 99.0985 27.634 99.9606 28.5683C100.822 29.5033 101.253 30.7781 101.253 32.3921C101.253 34.177 100.61 35.7334 99.3225 37.0606Z" fill="#FD9518"/>
</g>
<path id="Vector_221" d="M110.352 21.2422C114.73 33.7166 107.065 44.0216 96.3217 48.1796" stroke="#013216" stroke-width="0.25" stroke-miterlimit="10" stroke-linecap="round" stroke-linejoin="round"/>
</g>
<g id="Group_140">
<g id="Group_141">
<path id="Vector_222" d="M118.532 33.3329C117.624 32.0846 117.326 30.4011 116.774 29.7026C117.005 29.346 117.806 30.5175 117.806 30.5175C117.806 30.5175 117.819 27.2134 118.107 27.0265C118.395 26.8395 118.484 28.3089 118.484 28.3089C118.484 28.3089 118.491 26.5986 118.805 26.5277C119.119 26.4569 119.064 28.4429 119.064 28.4429C119.064 28.4429 119.163 26.7598 119.415 26.7095C119.667 26.6592 119.568 28.6648 119.568 28.6648C119.568 28.6648 119.832 27.346 120.101 27.3456C120.369 27.3456 119.931 28.6354 119.953 29.1752C119.976 29.7151 120.212 30.8488 120.657 31.4698C121.102 32.0916 118.532 33.3329 118.532 33.3329Z" fill="#F98080"/>
<path id="Vector_223" d="M118.532 33.3329C117.624 32.0846 117.326 30.4011 116.774 29.7026C117.005 29.346 117.806 30.5175 117.806 30.5175C117.806 30.5175 117.819 27.2134 118.107 27.0265C118.395 26.8395 118.484 28.3089 118.484 28.3089C118.484 28.3089 118.491 26.5986 118.805 26.5277C119.119 26.4569 119.064 28.4429 119.064 28.4429" stroke="#013216" stroke-width="0.25" stroke-miterlimit="10" stroke-linecap="round" stroke-linejoin="round"/>
</g>
<path id="Vector_224" d="M121.729 31.1853L117.142 33.1277C114.258 43.7093 111.118 53.5049 107.347 61.3751L118.38 75.0041C126.956 59.2641 127.258 45.98 121.729 31.1853Z" fill="#03B04E"/>
</g>
<g id="Group_142">
<path id="Vector_225" d="M105.643 62.0627C104.991 73.128 109.127 83.9027 115.972 90.3759C121.528 87.4103 127.544 81.8785 128.73 76.8644C120.42 73.0692 112.986 68.2593 107.346 61.3745L105.643 62.0627Z" fill="#03B04E"/>
<path id="Vector_226" d="M119.622 71.9996C117.03 70.3668 114.584 68.5643 112.323 66.5488" stroke="#013216" stroke-width="0.25" stroke-miterlimit="10" stroke-linecap="round" stroke-linejoin="round"/>
</g>
<g id="Group_143">
<path id="Vector_227" d="M114.099 76.2397C108.475 74.5536 105.102 72.4214 102.332 66.7778L102.94 65.2806L100.247 65.1777L101.02 66.7778C102.929 73.0049 106.856 77.3745 112.6 80.0719C112.708 80.123 112.829 80.1524 112.949 80.1549C113.959 80.1762 114.936 80.0348 115.878 79.7186C116.506 79.5082 116.651 78.694 116.135 78.2801C115.538 77.8016 115.01 77.2228 114.541 76.5607C114.434 76.4082 114.278 76.2933 114.099 76.2397Z" fill="#FFBD39"/>
<g id="Group_144">
<g id="Group_145">
<path id="Vector_228" d="M99.6751 55.7025C99.6667 55.582 99.6935 55.42 99.8134 55.4083C99.894 55.4006 99.958 55.4722 100.007 55.5372C100.101 55.6635 100.196 55.7899 100.291 55.9162C100.33 55.9683 100.373 56.0238 100.436 56.0429C100.532 56.0726 100.634 56.0021 100.685 55.9151C100.736 55.8281 100.752 55.726 100.789 55.6323C100.832 55.5225 100.93 55.4127 101.047 55.4296C101.12 55.4402 101.177 55.4975 101.227 55.5515C101.417 55.755 101.608 55.9584 101.798 56.1619C101.926 55.965 102.055 55.7678 102.183 55.571C102.321 55.773 102.463 55.979 102.663 56.1211C102.862 56.2632 103.134 56.3301 103.355 56.2265C103.434 56.1898 103.504 56.1332 103.585 56.1017C103.667 56.0701 103.771 56.0697 103.829 56.1343C103.868 56.1769 103.879 56.2372 103.888 56.2941C103.917 56.4814 103.947 56.6687 103.977 56.8556C103.996 56.9812 104.016 57.1105 103.989 57.2346C103.956 57.383 103.86 57.5082 103.766 57.6279C103.552 57.9012 103.338 58.1744 103.124 58.4476C103.003 58.6034 102.879 58.7606 102.725 58.8843C102.57 59.0077 102.38 59.0966 102.182 59.0925C101.998 59.0889 101.826 59.007 101.661 58.9269C101.169 58.6886 100.677 58.4506 100.185 58.2122C100.06 58.152 99.9282 58.0852 99.859 57.9651C99.7546 57.784 99.908 57.7117 99.9484 57.5607C99.99 57.4054 99.876 57.1498 99.8454 56.9926C99.7623 56.567 99.7057 56.1354 99.6751 55.7025Z" fill="#212226"/>
<path id="Vector_229" d="M100.138 57.0103C98.6911 58.7554 97.1066 61.2042 97.5711 61.6839C98.0357 62.1635 99.8717 62.2641 99.8717 62.2641L100.983 65.5514L105.324 62.9799L102.296 58.6232L102.432 57.1465L100.138 57.0103Z" fill="#F98080"/>
<path id="Vector_230" d="M102.218 58.6407C102.218 58.8982 102.405 59.1071 102.635 59.1071C102.866 59.1071 103.053 58.8982 103.053 58.6407C103.053 58.3833 102.866 58.1743 102.635 58.1743C102.405 58.1743 102.218 58.3829 102.218 58.6407Z" fill="#F98080"/>
<g id="Group_146">
<path id="Vector_231" d="M101.141 58.212C101.087 58.1198 100.973 58.0754 100.866 58.0772C100.758 58.079 100.656 58.1194 100.558 58.1635" stroke="#013216" stroke-width="0.25" stroke-miterlimit="10" stroke-linecap="round" stroke-linejoin="round"/>
<path id="Vector_232" d="M99.9359 58.0415C99.9193 57.9548 99.8529 57.8799 99.7691 57.8527C99.6854 57.8256 99.5873 57.848 99.5234 57.9086" stroke="#013216" stroke-width="0.25" stroke-miterlimit="10" stroke-linecap="round" stroke-linejoin="round"/>
<path id="Vector_233" d="M100.207 58.1821C100.087 58.3107 99.9321 58.4028 99.7699 58.4712C99.6077 58.5395 99.437 58.5843 99.2667 58.6291C99.394 58.7304 99.5341 58.8153 99.6827 58.8806C99.5632 58.9034 99.444 58.9265 99.3245 58.9493C99.6742 59.13 100.058 59.245 100.45 59.2865C100.275 59.5237 100.043 59.7187 99.7791 59.8505C99.7026 59.8887 99.6194 59.9225 99.5341 59.9156C99.4024 59.9045 99.2998 59.8013 99.2115 59.7029" stroke="#013216" stroke-width="0.25" stroke-miterlimit="10" stroke-linecap="round" stroke-linejoin="round"/>
</g>
</g>
</g>
<path id="Vector_234" d="M104.3 61.5063L105.643 62.0631C105.424 63.6452 104.918 65.4917 104.161 66.9284C104.08 67.0819 103.876 67.1223 103.741 67.014L101.521 65.2398C102.426 64.6247 103.362 63.0907 104.3 61.5063Z" fill="#8BDBAE"/>
<path id="Vector_235" d="M99.872 62.2643C100.296 63.5206 100.712 64.5897 101.52 65.2405L100.217 66.6863C100.084 66.8336 99.84 66.7987 99.7591 66.6177C99.083 65.1017 98.8112 63.6191 99.0746 62.1816L99.872 62.2643Z" fill="#8BDBAE"/>
</g>
</g>
</g>
<defs>
<clipPath id="clip0_1502_40140">
<rect width="160" height="160" fill="white"/>
</clipPath>
</defs>
</svg>
