<svg width="20" height="20" viewBox="0 0 20 20" fill="none" xmlns="http://www.w3.org/2000/svg">
<g id="Statistics_Icon" clip-path="url(#clip0_2846_15556)">
<path id="Vector" d="M15.5941 9.99983H11.6666C11.2246 9.99983 10.8007 9.82424 10.4881 9.51168C10.1756 9.19912 9.99996 8.77519 9.99996 8.33317V4.39483C10.0011 4.01149 9.91406 3.63301 9.74557 3.28867C9.57709 2.94433 9.33167 2.64335 9.0283 2.409C8.74083 2.18134 8.40487 2.02281 8.04639 1.94565C7.6879 1.86849 7.31647 1.87477 6.9608 1.964C4.94051 2.46551 3.15191 3.64155 1.89077 5.29764C0.629642 6.95372 -0.0284727 8.99065 0.0252652 11.0716C0.079003 13.1525 0.841375 15.1527 2.1863 16.7415C3.53123 18.3303 5.37815 19.4124 7.42163 19.809C9.71922 20.2488 12.098 19.7935 14.0708 18.5364C16.0437 17.2794 17.4613 15.3156 18.0333 13.0473C18.1229 12.6912 18.1294 12.3192 18.0524 11.9602C17.9754 11.6011 17.8169 11.2646 17.5891 10.9765C17.352 10.6735 17.0493 10.4283 16.7038 10.2591C16.3582 10.09 15.9788 10.0013 15.5941 9.99983ZM16.4175 12.6398C16.0984 13.9247 15.4438 15.1018 14.5205 16.0507C13.5973 16.9996 12.4386 17.6862 11.1629 18.0403C9.88723 18.3945 8.54039 18.4034 7.26013 18.0662C5.97987 17.7291 4.81215 17.0579 3.87639 16.1214C2.94063 15.1848 2.27042 14.0165 1.93432 12.736C1.59821 11.4555 1.60827 10.1086 1.96346 8.83326C2.31866 7.55788 3.00624 6.39974 3.95588 5.47729C4.90552 4.55483 6.08315 3.90117 7.3683 3.58317C7.47824 3.5557 7.59309 3.55435 7.70365 3.57924C7.81421 3.60413 7.9174 3.65457 8.00496 3.7265C8.10837 3.80534 8.19223 3.90694 8.25004 4.02342C8.30785 4.1399 8.33805 4.26813 8.3383 4.39817V8.33317C8.3383 9.21722 8.68949 10.0651 9.31461 10.6902C9.93973 11.3153 10.7876 11.6665 11.6716 11.6665H15.5983C15.7295 11.667 15.8588 11.6973 15.9766 11.755C16.0944 11.8128 16.1975 11.8965 16.2783 11.9998C16.3491 12.0886 16.3985 12.1926 16.4225 12.3036C16.4465 12.4146 16.4453 12.5297 16.4175 12.6398Z" fill="#013216"/>
<path id="Vector_2" d="M19.7092 6.20508C19.3255 4.79464 18.5802 3.50883 17.547 2.47489C16.5138 1.44096 15.2285 0.694735 13.8183 0.310075C13.6705 0.270333 13.5181 0.250161 13.365 0.250075C13.1448 0.247983 12.9264 0.289548 12.7223 0.372369C12.5183 0.45519 12.3327 0.577624 12.1762 0.732597C12.0198 0.88757 11.8956 1.07201 11.8109 1.27526C11.7261 1.47851 11.6825 1.69653 11.6825 1.91674V5.83341C11.6825 6.49645 11.9459 7.13234 12.4147 7.60118C12.8836 8.07002 13.5195 8.33341 14.1825 8.33341H18.115C18.3722 8.33093 18.6254 8.26919 18.8549 8.15297C19.0844 8.03676 19.284 7.8692 19.4382 7.66331C19.5924 7.45743 19.6971 7.21876 19.7441 6.96586C19.7911 6.71295 19.7791 6.45262 19.7092 6.20508ZM17.6275 6.66674H14.1792C13.9581 6.66674 13.7462 6.57894 13.5899 6.42266C13.4336 6.26638 13.3458 6.05442 13.3458 5.83341L13.3392 1.92258C13.3453 1.91816 13.3525 1.91557 13.36 1.91508H13.3817C14.5167 2.22431 15.5509 2.82583 16.3809 3.65961C17.2108 4.49339 17.8076 5.53026 18.1117 6.66674H17.6275Z" fill="#013216"/>
</g>
<defs>
<clipPath id="clip0_2846_15556">
<rect width="20" height="20" fill="white"/>
</clipPath>
</defs>
</svg>
