<svg width="20" height="21" viewBox="0 0 20 21" fill="none" xmlns="http://www.w3.org/2000/svg">
<g id="Support_Icon" clip-path="url(#clip0_1369_9750)">
<path id="Vector" d="M9.23836 6.46085C10.7667 5.99502 12.2542 7.00502 12.5 8.41669C12.5 9.10669 13.06 9.66669 13.75 9.66669C14.44 9.66669 15 9.10669 15 8.41669C15 8.27002 14.97 8.13169 14.9242 8.00086C14.4167 5.07169 11.3625 2.99502 8.12919 4.19002C6.21585 4.89752 5.00085 6.79336 5.00085 8.83335V8.84669C5.00169 9.23752 5.04835 9.61752 5.13502 9.98252C5.39419 11.0742 6.86169 11.2 7.38419 10.2075C7.38919 10.1975 7.39502 10.1875 7.40002 10.1775C7.54835 9.90419 7.60335 9.59752 7.54502 9.29252C7.46752 8.88919 7.48835 8.45252 7.64585 8.00086C7.89919 7.27419 8.50336 6.68669 9.24002 6.46252L9.23836 6.46085Z" fill="#013216"/>
<path id="Vector_2" d="M3.84165 7.33742C4.06998 6.00992 4.71915 4.79992 5.72581 3.85576C6.99998 2.66159 8.66832 2.07159 10.4175 2.17992C13.7116 2.39326 16.2875 5.27909 16.2491 8.73409C16.2333 10.1808 15.0216 11.3324 13.5758 11.3324H11.4358C11.1475 10.8366 10.6158 10.4991 9.99998 10.4991C9.07915 10.4991 8.33331 11.2449 8.33331 12.1658C8.33331 13.0866 9.07915 13.8324 9.99998 13.8324C10.615 13.8324 11.1466 13.4949 11.4358 12.9991H13.5758C15.925 12.9991 17.8825 11.1283 17.9158 8.77992C17.9775 4.42909 14.7091 0.787425 10.525 0.517425C8.30498 0.373258 6.19915 1.12742 4.58665 2.64076C3.33748 3.81159 2.50665 5.36159 2.20748 7.02909C2.11665 7.53576 2.51748 8.00076 3.03165 8.00076C3.42498 8.00076 3.77581 7.72659 3.84165 7.33826V7.33742Z" fill="#013216"/>
<path id="Vector_3" d="M9.96754 14.6665C7.15337 14.6665 4.46587 16.349 3.4342 18.7573C3.16254 19.3923 3.4567 20.1273 4.09087 20.399C4.7267 20.6698 5.46087 20.3773 5.73254 19.7423C6.3717 18.2498 8.15337 17.1665 9.96837 17.1665C11.7834 17.1665 13.6392 18.274 14.2684 19.7423C14.4717 20.2165 14.9334 20.4998 15.4184 20.4998C15.5825 20.4998 15.7492 20.4673 15.91 20.399C16.545 20.1273 16.8384 19.3915 16.5667 18.7573C15.5342 16.3482 12.8209 14.6665 9.9692 14.6665H9.96754Z" fill="#013216"/>
</g>
<defs>
<clipPath id="clip0_1369_9750">
<rect width="20" height="20" fill="white" transform="translate(0 0.5)"/>
</clipPath>
</defs>
</svg>
