<svg width="88" height="16" viewBox="0 0 88 16" fill="none" xmlns="http://www.w3.org/2000/svg">
<g id="surface1">
<path id="Vector" d="M3.98404 9.29972C3.98027 10.4656 3.98027 11.6277 3.98404 12.7955C6.20306 12.7144 8.45415 12.9804 10.6543 12.6276C12.2167 12.354 12.1846 9.82606 10.6732 9.49592C8.47302 9.08842 6.21061 9.38838 3.98404 9.29972ZM3.98404 3.24581C3.98027 4.38905 3.98027 5.53795 3.98404 6.68497C6.20683 6.60385 8.45415 6.86985 10.6543 6.51518C12.2072 6.19258 12.0808 3.60425 10.5109 3.4005C8.35792 3.06847 6.15777 3.31938 3.98404 3.24581ZM0.300781 0.595215H10.7619C12.177 0.749911 13.7658 0.9197 14.8131 1.99503C16.0245 3.31561 16.1169 5.65303 14.7697 6.9189C14.3093 7.33771 13.7734 7.66031 13.262 8.01498C14.1885 8.55453 15.2791 9.07333 15.6584 10.1619C16.1584 11.7069 15.7018 13.6991 14.2281 14.55C13.1054 15.2008 11.7695 15.3159 10.5033 15.4046H0.300781V0.595215Z" fill="#545554"/>
<path id="Vector_2" d="M26.2195 0.595215H41.7809C41.7733 1.45736 41.7733 2.31574 41.7771 3.17978C39.8336 3.176 37.8901 3.17978 35.9447 3.17978V15.4046H32.001V3.18355C30.0745 3.17978 28.1498 3.176 26.2233 3.17978C26.227 2.31574 26.2233 1.45736 26.2195 0.595215Z" fill="#545554"/>
<path id="Vector_3" d="M49.7814 0.595215H56.595C56.5875 1.44982 56.5875 2.30442 56.5913 3.16468C53.9288 3.2609 51.2324 2.93453 48.5926 3.37975C47.0265 3.67216 46.1321 5.13423 46.0075 6.63403C49.5361 6.65479 53.0665 6.64158 56.5913 6.64158C56.5837 7.49618 56.5837 8.35267 56.595 9.21105C53.0759 9.21105 49.5587 9.20727 46.0415 9.21105C46.1226 10.6184 46.6661 12.2389 48.2284 12.5653C50.9739 13.1086 53.8062 12.7238 56.5913 12.8351C56.5875 13.6916 56.5875 14.55 56.595 15.4046H49.7776C47.736 15.297 45.5698 14.9461 43.9546 13.5973C42.5224 12.4314 41.8601 10.5618 41.811 8.75451C41.7186 6.57744 42.1186 4.14568 43.7772 2.5874C45.3849 1.08383 47.6699 0.719726 49.7814 0.595215Z" fill="#545554"/>
<path id="Vector_4" d="M65.3239 0.595215H72.1489C72.1414 1.4385 72.1414 2.2799 72.1451 3.12318C69.6676 3.18732 67.175 2.97603 64.705 3.24203C63.3162 3.39296 62.1652 4.48904 61.8463 5.83414C61.4123 7.47354 61.3237 9.2733 61.8463 10.9033C62.2501 12.1031 63.52 12.754 64.7314 12.7842C67.1976 12.9124 69.6752 12.803 72.1451 12.8351C72.1414 13.6916 72.1414 14.55 72.1489 15.4046H65.3315C63.2125 15.297 60.9387 14.9122 59.3198 13.4312C57.9065 12.1729 57.346 10.2222 57.3517 8.38097C57.3253 6.31898 57.7612 4.04947 59.3349 2.5874C60.9387 1.0876 63.2162 0.7235 65.3239 0.595215Z" fill="#545554"/>
<path id="Vector_5" d="M73.6265 0.595215H77.3003V6.60008H84.0555V0.595215H87.6991V15.4046H84.0555C84.0555 13.3388 84.0555 11.273 84.0517 9.21105C81.8044 9.20727 79.5533 9.20727 77.3003 9.21105V15.4046H73.6265V0.595215Z" fill="#545554"/>
<path id="Vector_6" d="M20.2323 7.16966C22.5419 5.65666 25.9912 6.96403 26.7421 9.61085C27.6932 12.2652 25.5572 15.2893 22.7683 15.4044H22.306C21.0606 15.2761 19.8209 14.7385 19.0492 13.716C17.3868 11.7464 17.9831 8.43364 20.2323 7.16966Z" fill="#EB8F2D"/>
</g>
</svg>
