<svg width="20" height="22" viewBox="0 0 20 22" fill="none" xmlns="http://www.w3.org/2000/svg">
<g id="svgexport-18 (8) 1">
<g id="Group">
<path id="Vector" d="M19.5637 16.7165L19.416 16.7426L19.5637 16.7165L18.0821 8.33039C17.7628 6.52298 16.1986 5.21094 14.3632 5.21094H12.5399C12.7821 4.78578 12.921 4.29427 12.921 3.77082C12.921 2.16016 11.6107 0.85 10.0001 0.85C8.38944 0.85 7.07924 2.16016 7.07924 3.77086C7.07924 4.29431 7.21814 4.78581 7.46034 5.21098H5.63697C3.80162 5.21098 2.23743 6.52302 1.91809 8.33042L2.0658 8.35652L1.91809 8.33043L0.436524 16.7165L0.584236 16.7426L0.436523 16.7165C0.241816 17.8188 0.542809 18.943 1.26209 19.8005C1.98141 20.6581 3.03614 21.15 4.15545 21.15H15.8448C16.9641 21.15 18.0189 20.658 18.7381 19.8005C19.4575 18.943 19.7583 17.8187 19.5637 16.7165ZM17.6036 18.8489L17.6035 18.849C17.3883 19.1062 17.1193 19.3129 16.8154 19.4546C16.5116 19.5964 16.1803 19.6696 15.845 19.6693H15.8448H4.15545C3.47487 19.6693 2.83398 19.3704 2.39662 18.8489C1.95925 18.3275 1.77635 17.6443 1.89476 16.9741L1.74705 16.948L1.89476 16.9741L3.37632 8.58805C3.5705 7.48912 4.52112 6.69168 5.63701 6.69168H14.3633C15.4792 6.69168 16.4298 7.48905 16.624 8.58797L18.1055 16.9741C18.2239 17.6443 18.041 18.3275 17.6036 18.8489ZM17.7186 18.9453C17.4893 19.2193 17.2026 19.4396 16.8788 19.5906C16.5551 19.7416 16.2021 19.8196 15.8448 19.8193L17.7186 18.9453ZM10.0001 2.33074C10.7941 2.33074 11.4402 2.97691 11.4402 3.77086C11.4402 4.56481 10.794 5.21098 10.0001 5.21098C9.20618 5.21098 8.55998 4.56481 8.55998 3.77086C8.55998 2.97691 9.20614 2.33074 10.0001 2.33074Z" fill="#013216" stroke="#013216" stroke-width="0.3"/>
<path id="Vector_2" d="M8.68593 10.8272L7.04003 12.528V11.2413C7.04003 10.9125 6.77345 10.6459 6.44464 10.6459C6.11582 10.6459 5.84925 10.9125 5.84925 11.2413V15.1198C5.84925 15.4486 6.11582 15.7152 6.44464 15.7152C6.77345 15.7152 7.04003 15.4486 7.04003 15.1198V13.8331L8.68592 15.5338C8.74138 15.5913 8.80787 15.637 8.8814 15.6682C8.95494 15.6993 9.034 15.7153 9.11386 15.7152C9.26292 15.7152 9.41222 15.6596 9.52784 15.5477C9.76412 15.319 9.77027 14.9421 9.54167 14.7058L9.53808 14.7093L9.54167 14.7058L8.06562 13.1805L9.54167 11.6553C9.77035 11.4191 9.76412 11.0421 9.52784 10.8135C9.29152 10.5847 8.91461 10.591 8.68593 10.8272L8.68952 10.8307L8.68593 10.8272ZM12.9494 13.9428C12.8911 14.273 12.6022 14.5246 12.2556 14.5246C11.8672 14.5246 11.5512 14.2085 11.5512 13.8201V12.5412C11.5512 12.1527 11.8672 11.8367 12.2556 11.8367C12.4741 11.8367 12.6767 11.9357 12.8115 12.1084C13.0138 12.3675 13.388 12.4137 13.6472 12.2114C13.9063 12.009 13.9525 11.6349 13.7502 11.3757C13.3882 10.912 12.8434 10.646 12.2557 10.646C11.2107 10.646 10.3605 11.4962 10.3605 12.5412V13.8202C10.3605 14.8652 11.2107 15.7153 12.2557 15.7153C13.3006 15.7153 14.1508 14.8652 14.1508 13.8202V13.3475C14.1508 13.0186 13.8842 12.7521 13.5554 12.7521H12.6692C12.3404 12.7521 12.0738 13.0186 12.0738 13.3474C12.0738 13.6763 12.3404 13.9428 12.6692 13.9428H12.9494Z" fill="#013216" stroke="#013216" stroke-width="0.01"/>
</g>
</g>
</svg>
