<svg width="21" height="20" viewBox="0 0 21 20" fill="none" xmlns="http://www.w3.org/2000/svg">
<g id="Time_Icon" clip-path="url(#clip0_1956_12046)">
<path id="Vector" d="M8.41667 20H1.75C1.41848 20 1.10054 19.8683 0.866117 19.6339C0.631696 19.3995 0.5 19.0815 0.5 18.75C0.5 18.4185 0.631696 18.1005 0.866117 17.8661C1.10054 17.6317 1.41848 17.5 1.75 17.5H8.41667C8.74819 17.5 9.06613 17.6317 9.30055 17.8661C9.53497 18.1005 9.66667 18.4185 9.66667 18.75C9.66667 19.0815 9.53497 19.3995 9.30055 19.6339C9.06613 19.8683 8.74819 20 8.41667 20Z" fill="#FE0017"/>
<path id="Vector_2" d="M6.75 15.8335H1.75C1.41848 15.8335 1.10054 15.7018 0.866116 15.4674C0.631696 15.233 0.5 14.915 0.5 14.5835C0.5 14.252 0.631696 13.934 0.866116 13.6996C1.10054 13.4652 1.41848 13.3335 1.75 13.3335H6.75C7.08152 13.3335 7.39946 13.4652 7.63388 13.6996C7.8683 13.934 8 14.252 8 14.5835C8 14.915 7.8683 15.233 7.63388 15.4674C7.39946 15.7018 7.08152 15.8335 6.75 15.8335Z" fill="#FE0017"/>
<path id="Vector_3" d="M5.08333 11.6665H1.75C1.41848 11.6665 1.10054 11.5348 0.866117 11.3004C0.631696 11.066 0.5 10.748 0.5 10.4165C0.5 10.085 0.631696 9.76704 0.866117 9.53262C1.10054 9.2982 1.41848 9.1665 1.75 9.1665H5.08333C5.41485 9.1665 5.7328 9.2982 5.96722 9.53262C6.20164 9.76704 6.33333 10.085 6.33333 10.4165C6.33333 10.748 6.20164 11.066 5.96722 11.3004C5.7328 11.5348 5.41485 11.6665 5.08333 11.6665Z" fill="#FE0017"/>
<path id="Vector_4" d="M12.5834 19.7685C12.2773 19.7689 11.9818 19.6569 11.7529 19.4539C11.5239 19.2509 11.3773 18.9709 11.3409 18.6671C11.3046 18.3632 11.3809 18.0566 11.5556 17.8053C11.7302 17.554 11.9909 17.3755 12.2884 17.3035C13.521 17.0014 14.6571 16.392 15.5908 15.5324C16.5244 14.6727 17.2253 13.5907 17.628 12.3871C18.0307 11.1836 18.1222 9.89766 17.8939 8.64921C17.6657 7.40075 17.1251 6.2304 16.3225 5.24722C15.52 4.26403 14.4816 3.50001 13.3041 3.02635C12.1267 2.55268 10.8485 2.3848 9.58868 2.53833C8.32885 2.69187 7.12839 3.16183 6.09917 3.90442C5.06995 4.64701 4.24546 5.63806 3.70253 6.78522C3.55774 7.08001 3.30273 7.30598 2.99266 7.41426C2.68258 7.52253 2.34234 7.50442 2.04551 7.36383C1.74868 7.22325 1.51911 6.97149 1.40643 6.66298C1.29375 6.35447 1.30702 6.01402 1.44337 5.71522C2.16684 4.18608 3.2657 2.86502 4.63752 1.87519C6.00934 0.88536 7.60945 0.258985 9.28868 0.0544586C10.9679 -0.150068 12.6716 0.0739136 14.2409 0.705523C15.8102 1.33713 17.194 2.3558 18.2634 3.66658C19.3328 4.97735 20.0528 6.53754 20.3565 8.20171C20.6601 9.86587 20.5375 11.5798 19.9999 13.1838C19.4624 14.7878 18.5275 16.2295 17.2824 17.3747C16.0373 18.5198 14.5225 19.331 12.8792 19.7327C12.7824 19.7563 12.683 19.7683 12.5834 19.7685Z" fill="#FE0017"/>
<path id="Vector_5" d="M10.9167 5C10.5852 5 10.2673 5.1317 10.0329 5.36612C9.79844 5.60054 9.66675 5.91848 9.66675 6.25V9.8275C9.66684 10.2695 9.8425 10.6933 10.1551 11.0058L11.6492 12.5C11.885 12.7277 12.2008 12.8537 12.5285 12.8508C12.8562 12.848 13.1698 12.7165 13.4015 12.4848C13.6333 12.253 13.7647 11.9395 13.7676 11.6118C13.7704 11.284 13.6444 10.9683 13.4167 10.7325L12.1667 9.4825V6.25C12.1667 5.91848 12.0351 5.60054 11.8006 5.36612C11.5662 5.1317 11.2483 5 10.9167 5Z" fill="#FE0017"/>
</g>
<defs>
<clipPath id="clip0_1956_12046">
<rect width="20" height="20" fill="white" transform="translate(0.5)"/>
</clipPath>
</defs>
</svg>
