<svg width="25" height="24" viewBox="0 0 25 24" fill="none" xmlns="http://www.w3.org/2000/svg">
<g id="Users_Icon" clip-path="url(#clip0_2846_15597)">
<path id="Vector" d="M7.22766 10.4799C7.0862 10.7851 6.79082 11 6.45451 11H3.66663C3.40141 11 3.14706 11.1054 2.95952 11.2929C2.77198 11.4804 2.66663 11.7348 2.66663 12V14C2.66663 14.5523 2.21891 15 1.66663 15C1.11434 15 0.666626 14.5523 0.666626 14V12C0.666626 11.2044 0.982696 10.4413 1.54531 9.87868C2.10791 9.31607 2.87098 9 3.66663 9H6.42359C7.11047 9 7.51659 9.85679 7.22766 10.4799ZM21.6666 9H18.9097C18.2228 9 17.8167 9.85679 18.1056 10.4799C18.2471 10.7851 18.5424 11 18.8787 11H21.6666C21.9318 11 22.1862 11.1054 22.3737 11.2929C22.5613 11.4804 22.6666 11.7348 22.6666 12V14C22.6666 14.5523 23.1143 15 23.6666 15C24.2189 15 24.6666 14.5523 24.6666 14V12C24.6666 11.2044 24.3506 10.4413 23.7879 9.87868C23.2253 9.31607 22.4623 9 21.6666 9ZM16.6666 13C16.6666 12.2089 16.432 11.4355 15.9925 10.7777C15.553 10.1199 14.9283 9.60723 14.1974 9.30448C13.4665 9.00173 12.6622 8.92252 11.8863 9.07686C11.1103 9.2312 10.3976 9.61217 9.8382 10.1716C9.27879 10.731 8.89783 11.4437 8.74348 12.2196C8.58914 12.9956 8.66836 13.7998 8.97111 14.5307C9.27386 15.2616 9.78655 15.8864 10.4443 16.3259C11.1021 16.7654 11.8755 17 12.6666 17C13.7275 17 14.7449 16.5786 15.4951 15.8284C16.2452 15.0783 16.6666 14.0609 16.6666 13ZM14.6666 13C14.6666 13.3956 14.5493 13.7822 14.3296 14.1111C14.1098 14.44 13.7974 14.6964 13.432 14.8478C13.0665 14.9991 12.6644 15.0387 12.2764 14.9616C11.8885 14.8844 11.5321 14.6939 11.2524 14.4142C10.9727 14.1345 10.7822 13.7781 10.7051 13.3902C10.6279 13.0022 10.6675 12.6001 10.8189 12.2346C10.9702 11.8692 11.2266 11.5568 11.5555 11.3371C11.8844 11.1173 12.2711 11 12.6666 11C13.1971 11 13.7058 11.2107 14.0808 11.5858C14.4559 11.9609 14.6666 12.4696 14.6666 13ZM18.6666 21C18.6666 20.2044 18.3506 19.4413 17.7879 18.8787C17.2253 18.3161 16.4623 18 15.6666 18H9.66663C8.87098 18 8.10791 18.3161 7.54531 18.8787C6.9827 19.4413 6.66663 20.2044 6.66663 21V23C6.66663 23.5523 7.11434 24 7.66663 24C8.21891 24 8.66663 23.5523 8.66663 23V21C8.66663 20.7348 8.77198 20.4804 8.95952 20.2929C9.14706 20.1054 9.40141 20 9.66663 20H15.6666C15.9318 20 16.1862 20.1054 16.3737 20.2929C16.5613 20.4804 16.6666 20.7348 16.6666 21V23C16.6666 23.5523 17.1143 24 17.6666 24C18.2189 24 18.6666 23.5523 18.6666 23V21ZM22.6666 4C22.6666 3.20888 22.432 2.43552 21.9925 1.77772C21.553 1.11992 20.9283 0.607234 20.1974 0.304484C19.4665 0.00173312 18.6622 -0.0774802 17.8863 0.0768607C17.1103 0.231202 16.3976 0.612165 15.8382 1.17157C15.2788 1.73098 14.8978 2.44372 14.7435 3.21964C14.5891 3.99557 14.6684 4.79983 14.9711 5.53074C15.2739 6.26164 15.7865 6.88636 16.4443 7.32588C17.1021 7.76541 17.8755 8 18.6666 8C19.7275 8 20.7449 7.57858 21.4951 6.82843C22.2452 6.07828 22.6666 5.06087 22.6666 4ZM20.6666 4C20.6666 4.39557 20.5493 4.78224 20.3296 5.11114C20.1098 5.44004 19.7974 5.69639 19.432 5.84776C19.0665 5.99914 18.6644 6.03874 18.2764 5.96157C17.8885 5.8844 17.5321 5.69392 17.2524 5.41422C16.9727 5.13451 16.7822 4.77815 16.7051 4.39018C16.6279 4.00222 16.6675 3.60009 16.8189 3.23464C16.9702 2.86918 17.2266 2.55683 17.5555 2.33706C17.8844 2.1173 18.2711 2 18.6666 2C19.1971 2 19.7058 2.21072 20.0808 2.58579C20.4559 2.96086 20.6666 3.46957 20.6666 4ZM10.6666 4C10.6666 3.20888 10.432 2.43552 9.9925 1.77772C9.55298 1.11992 8.92826 0.607234 8.19736 0.304484C7.46645 0.00173312 6.66219 -0.0774802 5.88626 0.0768607C5.11034 0.231202 4.39761 0.612165 3.8382 1.17157C3.27879 1.73098 2.89783 2.44372 2.74348 3.21964C2.58914 3.99557 2.66836 4.79983 2.97111 5.53074C3.27386 6.26164 3.78655 6.88636 4.44434 7.32588C5.10214 7.76541 5.8755 8 6.66663 8C7.72749 8 8.74491 7.57858 9.49505 6.82843C10.2452 6.07828 10.6666 5.06087 10.6666 4ZM8.66663 4C8.66663 4.39557 8.54933 4.78224 8.32957 5.11114C8.1098 5.44004 7.79745 5.69639 7.43199 5.84776C7.06654 5.99914 6.66441 6.03874 6.27645 5.96157C5.88848 5.8844 5.53212 5.69392 5.25241 5.41422C4.97271 5.13451 4.78223 4.77815 4.70506 4.39018C4.62788 4.00222 4.66749 3.60009 4.81887 3.23464C4.97024 2.86918 5.22659 2.55683 5.55549 2.33706C5.88438 2.1173 6.27106 2 6.66663 2C7.19706 2 7.70577 2.21072 8.08084 2.58579C8.45591 2.96086 8.66663 3.46957 8.66663 4Z" fill="#013216"/>
</g>
<defs>
<clipPath id="clip0_2846_15597">
<rect width="24" height="24" fill="white" transform="translate(0.666626)"/>
</clipPath>
</defs>
</svg>
