<svg width="32" height="17" viewBox="0 0 32 17" fill="none" xmlns="http://www.w3.org/2000/svg">
<path d="M32 5.41462L31.7613 5.42163L31.8455 14.6926H31.986V15.9609H28.8121V15.071L26.1929 10.404L26.0525 15.2322H26.523V16.5005H23.3561V15.2322H23.63L23.3631 6.10837L23.012 6.15742L22.8154 4.69285L26.8881 4.15327L27.0777 5.61784L26.7968 5.65288L28.9806 10.1447L28.6085 5.44966H28.2995L28.2855 3.97107L31.986 3.93604L32 5.41462Z" fill="url(#paint0_linear_2246_7548)"/>
<path d="M21.8644 5.9955H21.5063L21.3588 14.2504H21.8504V15.7289H18.9222V14.2504H19.3365L18.6203 5.9955H18.1709V4.52393H21.8644V5.9955Z" fill="url(#paint1_linear_2246_7548)"/>
<path d="M11.1947 14.3773L10.7313 6.89327L10.1133 6.97035L9.94482 4.86109L11.1245 4.72094C11.5458 4.65086 12.1076 4.5878 12.8027 4.53174C13.4979 4.46867 14.2141 4.47568 14.9374 4.53874C15.6606 4.60181 16.2785 4.78401 16.7911 5.08533C17.3037 5.38665 17.5846 5.84915 17.6338 6.48683C17.6689 7.72716 17.2616 8.65215 16.6998 9.30385C15.8923 10.2779 14.8039 10.6633 14.818 10.6633C17.6689 10.6773 17.6899 12.4783 17.704 12.4712C17.6689 13.2981 17.4161 13.9498 16.9316 14.4263C16.4471 14.9028 15.8642 15.2532 15.1761 15.4705C14.495 15.6877 13.8279 15.8278 13.1819 15.8839V15.933H12.4516C11.8899 15.947 11.5247 15.947 11.3562 15.933H10.5066V14.3773H11.1947ZM13.6594 12.3171L13.7928 14.2582C16.4611 12.3451 13.6664 12.3311 13.6594 12.3171ZM13.2732 6.88626L13.4487 9.55612C17.1422 6.9283 13.2732 6.87925 13.2732 6.88626Z" fill="url(#paint2_linear_2246_7548)"/>
<path d="M9.27963 10.5198C9.27963 10.8285 9.02942 11.0787 8.72077 11.0787H6.63846C6.3298 11.0787 6.07959 10.8285 6.07959 10.5198C6.07959 10.2112 6.3298 9.96094 6.63846 9.96094H8.72077C9.02942 9.96094 9.27963 10.2112 9.27963 10.5198Z" fill="url(#paint3_linear_2246_7548)"/>
<path d="M4.56713 6.4442L4.41968 14.6991V15.8973H3.42257H2.18673L2.13055 14.8672L1.68115 6.4442L3.12414 7.52336L4.56713 6.4442Z" fill="url(#paint4_linear_2246_7548)"/>
<g clip-path="url(#clip0_2246_7548)">
<mask id="mask0_2246_7548" style="mask-type:luminance" maskUnits="userSpaceOnUse" x="0" y="0" width="7" height="7">
<path d="M3.04663 2.07659C3.10636 2.19 3.17916 2.30502 3.24442 2.4162C3.24743 2.41698 3.25044 2.41778 3.25345 2.41857C3.16038 2.4722 3.06729 2.52583 2.97421 2.57946C3.19982 2.67531 3.42543 2.77116 3.65103 2.86701C3.87664 2.96286 4.10225 3.05871 4.32785 3.15456C4.35748 2.91165 4.3871 2.66874 4.41672 2.42584C4.44635 2.18293 4.47598 1.94002 4.5056 1.69711C4.41738 1.74794 4.32915 1.79878 4.24094 1.84961C4.05697 1.48225 3.873 1.1149 3.68903 0.747545C3.53491 0.439333 2.70116 0.386471 2.44259 0.814304C2.44259 0.814304 1.57101 2.33826 1.48911 2.47983C1.82016 2.67058 2.15122 2.86132 2.48227 3.05207L3.04663 2.07659ZM4.56818 4.53947C4.43982 4.54144 4.30411 4.55432 4.17523 4.56221C4.17317 4.56454 4.17109 4.56686 4.16904 4.56918C4.16313 4.46209 4.15721 4.35499 4.1513 4.24789C3.96372 4.40548 3.77614 4.56307 3.58856 4.72066C3.40097 4.87824 3.21339 5.03584 3.02581 5.19343C3.2296 5.3295 3.43338 5.46559 3.63717 5.60166C3.84096 5.73775 4.04475 5.87383 4.24854 6.00991C4.24293 5.9084 4.23733 5.80689 4.23173 5.70538C4.64324 5.70749 5.05476 5.70959 5.46627 5.71169C5.81142 5.71367 6.23523 4.99518 5.96951 4.57173C5.96951 4.57173 5.00066 3.10743 4.91108 2.97057C4.59104 3.17919 4.27099 3.38782 3.95095 3.59644L4.56818 4.53947ZM0.767806 3.65485C0.540999 3.99752 0.314201 4.3402 0.087401 4.68288C-0.103011 4.97017 0.267992 5.71718 0.768545 5.72674C0.768545 5.72674 1.75992 5.72182 2.3232 5.71938C2.51006 5.71857 2.64982 5.71802 2.69063 5.71802C2.69063 5.33653 2.69063 4.95504 2.69063 4.57355H1.56193C1.63048 4.46523 1.6939 4.3448 1.75775 4.2328C1.75693 4.2298 1.75612 4.22681 1.75529 4.22381C1.84837 4.27744 1.94145 4.33107 2.03453 4.38471C2.00491 4.1418 1.97528 3.89889 1.94566 3.65598C1.91603 3.41307 1.88641 3.17016 1.85678 2.92725C1.63117 3.0231 1.40557 3.11895 1.17996 3.21481C0.954351 3.31066 0.728744 3.40651 0.503135 3.50236C0.591359 3.55318 0.679584 3.60402 0.767806 3.65485Z" fill="white"/>
</mask>
<g mask="url(#mask0_2246_7548)">
<path d="M6.23521 0.38623H-0.103027V6.00967H6.23521V0.38623Z" fill="url(#paint5_linear_2246_7548)"/>
</g>
<path fill-rule="evenodd" clip-rule="evenodd" d="M3.65094 2.86677C3.87655 2.96263 4.10216 3.05848 4.32776 3.15433C4.35739 2.91142 4.38701 2.66851 4.41664 2.42561C4.44626 2.1827 4.47589 1.93979 4.50552 1.69688C4.41729 1.74771 4.32907 1.79855 4.24085 1.84938C3.55057 1.06059 3.04654 2.07636 3.04654 2.07636C3.10626 2.18976 3.17907 2.30479 3.24433 2.41596C3.24734 2.41675 3.25035 2.41754 3.25336 2.41834C3.16028 2.47197 3.0672 2.5256 2.97412 2.57923C3.19973 2.67508 3.42534 2.77093 3.65094 2.86677Z" fill="url(#paint6_linear_2246_7548)"/>
<path fill-rule="evenodd" clip-rule="evenodd" d="M2.03433 4.3847C2.0047 4.14179 1.97508 3.89888 1.94545 3.65597C1.91583 3.41307 1.8862 3.17015 1.85658 2.92725C1.63097 3.02309 1.40536 3.11894 1.17976 3.2148C0.954146 3.31065 0.728539 3.4065 0.50293 3.50235C0.591151 3.55318 0.679377 3.60402 0.767598 3.65485C0.428233 4.64581 1.56173 4.57354 1.56173 4.57354C1.63028 4.46523 1.69369 4.34479 1.75755 4.2328C1.75673 4.2298 1.7559 4.2268 1.75508 4.22381C1.84817 4.27743 1.94125 4.33106 2.03433 4.3847Z" fill="url(#paint7_linear_2246_7548)"/>
<path fill-rule="evenodd" clip-rule="evenodd" d="M3.58863 4.72033C3.40104 4.87792 3.21346 5.03551 3.02588 5.19309C3.22967 5.32918 3.43345 5.46526 3.63724 5.60134C3.84103 5.73742 4.04482 5.8735 4.24861 6.00959C4.24301 5.90807 4.2374 5.80656 4.2318 5.70506C4.24967 5.70515 4.26755 5.70524 4.28543 5.70533C5.25829 5.41497 4.56825 4.53914 4.56825 4.53914C4.43989 4.54111 4.30418 4.55399 4.17531 4.56188C4.17324 4.56421 4.17117 4.56653 4.1691 4.56885C4.1632 4.46176 4.15729 4.35466 4.15138 4.24756C3.96379 4.40515 3.77621 4.56274 3.58863 4.72033Z" fill="url(#paint8_linear_2246_7548)"/>
<path fill-rule="evenodd" clip-rule="evenodd" d="M1.48926 2.47983C1.48926 2.47983 2.95882 0.243903 3.96513 1.29858C3.87314 1.1149 3.78116 0.931224 3.68917 0.747545C3.53506 0.439333 2.7013 0.386471 2.44274 0.814303C2.44274 0.814303 1.57116 2.33826 1.48926 2.47983Z" fill="url(#paint9_linear_2246_7548)"/>
<path fill-rule="evenodd" clip-rule="evenodd" d="M4.91092 2.9707C4.91092 2.9707 6.24647 5.28885 4.84912 5.70867C5.05488 5.7097 5.26063 5.71074 5.46639 5.71177C5.81154 5.71371 6.23527 4.99517 5.96951 4.57176C5.96951 4.57176 5.00052 3.10755 4.91092 2.9707Z" fill="url(#paint10_linear_2246_7548)"/>
<path fill-rule="evenodd" clip-rule="evenodd" d="M2.69077 5.71642C2.69077 5.71642 0.0155498 5.56631 0.426588 4.16895C0.313315 4.34037 0.200039 4.51179 0.0867638 4.68321C-0.103429 4.97066 0.268137 5.71739 0.7687 5.72657C0.7687 5.72657 2.52697 5.71654 2.69077 5.71642Z" fill="url(#paint11_linear_2246_7548)"/>
<path fill-rule="evenodd" clip-rule="evenodd" d="M1.75548 4.22375C0.699983 4.4385 0.767995 3.65479 0.767995 3.65479C0.428629 4.64575 1.56212 4.57349 1.56212 4.57349C1.63067 4.46517 1.69409 4.34474 1.75794 4.23274C1.75712 4.22974 1.7563 4.22674 1.75548 4.22375Z" fill="url(#paint12_linear_2246_7548)"/>
<path fill-rule="evenodd" clip-rule="evenodd" d="M4.16895 4.56927C4.92634 5.33369 4.23166 5.70547 4.23166 5.70547C5.2486 5.44707 4.56809 4.53955 4.56809 4.53955C4.43973 4.54152 4.30402 4.5544 4.17514 4.56229C4.17307 4.56462 4.17101 4.56694 4.16895 4.56927Z" fill="url(#paint13_linear_2246_7548)"/>
<path fill-rule="evenodd" clip-rule="evenodd" d="M3.2532 2.41834C3.59459 1.39874 4.24069 1.84938 4.24069 1.84938C3.55041 1.06059 3.04639 2.07636 3.04639 2.07636C3.10611 2.18976 3.17892 2.30479 3.24417 2.41597C3.24718 2.41677 3.2502 2.41755 3.2532 2.41834Z" fill="url(#paint14_linear_2246_7548)"/>
</g>
<defs>
<linearGradient id="paint0_linear_2246_7548" x1="27.421" y1="20.3147" x2="27.421" y2="-6.9457" gradientUnits="userSpaceOnUse">
<stop stop-color="#03B04E"/>
<stop offset="1" stop-color="#02C320"/>
</linearGradient>
<linearGradient id="paint1_linear_2246_7548" x1="20.023" y1="19.1305" x2="20.023" y2="-5.18042" gradientUnits="userSpaceOnUse">
<stop stop-color="#03B04E"/>
<stop offset="1" stop-color="#02C320"/>
</linearGradient>
<linearGradient id="paint2_linear_2246_7548" x1="13.8356" y1="19.4211" x2="13.8356" y2="-5.43364" gradientUnits="userSpaceOnUse">
<stop stop-color="#03B04E"/>
<stop offset="1" stop-color="#02C320"/>
</linearGradient>
<linearGradient id="paint3_linear_2246_7548" x1="7.68422" y1="11.418" x2="7.68422" y2="8.9929" gradientUnits="userSpaceOnUse">
<stop stop-color="#03B04E"/>
<stop offset="1" stop-color="#02C320"/>
</linearGradient>
<linearGradient id="paint4_linear_2246_7548" x1="3.1283" y1="18.8138" x2="3.12832" y2="-2.03056" gradientUnits="userSpaceOnUse">
<stop stop-color="#03B04E"/>
<stop offset="1" stop-color="#02C320"/>
</linearGradient>
<linearGradient id="paint5_linear_2246_7548" x1="3.06609" y1="0.38623" x2="3.06609" y2="6.00967" gradientUnits="userSpaceOnUse">
<stop stop-color="#03B04E"/>
<stop offset="1" stop-color="#00D421"/>
</linearGradient>
<linearGradient id="paint6_linear_2246_7548" x1="3.73982" y1="1.54932" x2="3.73982" y2="3.15433" gradientUnits="userSpaceOnUse">
<stop stop-color="#03B04E"/>
<stop offset="1" stop-color="#00D421"/>
</linearGradient>
<linearGradient id="paint7_linear_2246_7548" x1="1.26863" y1="2.92725" x2="1.26863" y2="4.57471" gradientUnits="userSpaceOnUse">
<stop stop-color="#03B04E"/>
<stop offset="1" stop-color="#00D421"/>
</linearGradient>
<linearGradient id="paint8_linear_2246_7548" x1="3.91576" y1="4.24756" x2="3.91576" y2="6.00959" gradientUnits="userSpaceOnUse">
<stop stop-color="#03B04E"/>
<stop offset="1" stop-color="#00D421"/>
</linearGradient>
<linearGradient id="paint9_linear_2246_7548" x1="2.72719" y1="0.504883" x2="2.72719" y2="2.47983" gradientUnits="userSpaceOnUse">
<stop stop-color="#03B04E"/>
<stop offset="1" stop-color="#00D421"/>
</linearGradient>
<linearGradient id="paint10_linear_2246_7548" x1="5.45105" y1="2.9707" x2="5.45105" y2="5.71177" gradientUnits="userSpaceOnUse">
<stop stop-color="#03B04E"/>
<stop offset="1" stop-color="#00D421"/>
</linearGradient>
<linearGradient id="paint11_linear_2246_7548" x1="1.36345" y1="4.16895" x2="1.36345" y2="5.72657" gradientUnits="userSpaceOnUse">
<stop stop-color="#03B04E"/>
<stop offset="1" stop-color="#00D421"/>
</linearGradient>
<linearGradient id="paint12_linear_2246_7548" x1="1.23127" y1="3.65479" x2="1.23127" y2="4.57466" gradientUnits="userSpaceOnUse">
<stop stop-color="#03B04E"/>
<stop offset="1" stop-color="#00D421"/>
</linearGradient>
<linearGradient id="paint13_linear_2246_7548" x1="4.47998" y1="4.53955" x2="4.47998" y2="5.70547" gradientUnits="userSpaceOnUse">
<stop stop-color="#03B04E"/>
<stop offset="1" stop-color="#00D421"/>
</linearGradient>
<linearGradient id="paint14_linear_2246_7548" x1="3.64354" y1="1.54932" x2="3.64354" y2="2.41834" gradientUnits="userSpaceOnUse">
<stop stop-color="#03B04E"/>
<stop offset="1" stop-color="#00D421"/>
</linearGradient>
<clipPath id="clip0_2246_7548">
<rect width="6.06544" height="5.53125" fill="white" transform="translate(0 0.5)"/>
</clipPath>
</defs>
</svg>
